<svg width="91" height="18" viewBox="0 0 91 18" fill="none" xmlns="http://www.w3.org/2000/svg">
<path d="M59.9053 0.00732422H75.6026V2.87751H69.3756V17.9771H66.2619V2.87751H59.9053V0.00732422Z" fill="white"/>
<path d="M34.0957 0.00732422V2.87751H21.5132V7.49475H31.632V10.3649H21.5132V15.107H34.0957V17.9771H18.3997V2.87751H18.3984V0.00732422H34.0957Z" fill="white"/>
<path d="M41.9281 0.0145264H37.8535L52.4479 17.9844H56.5344L49.2363 9.00562L56.5227 0.0282362L52.4479 0.0344742L47.1962 6.49577L41.9281 0.0145264Z" fill="white"/>
<path d="M46.1112 12.8522L44.0707 10.3389L37.8438 17.9998H41.93L46.1112 12.8522Z" fill="white"/>
<path fill-rule="evenodd" clip-rule="evenodd" d="M18.5059 17.9776L3.89187 0.000244141H0L0 17.9701H3.1135V3.84128L14.5945 17.9776H18.5059Z" fill="white"/>
<path d="M76.3036 17.8678C76.0755 17.8678 75.8816 17.7895 75.7192 17.633C75.5568 17.4765 75.4765 17.2871 75.4786 17.0626C75.4765 16.8443 75.5568 16.6569 75.7192 16.5004C75.8816 16.3439 76.0755 16.2656 76.3036 16.2656C76.5229 16.2656 76.7148 16.3439 76.8772 16.5004C77.0419 16.6569 77.124 16.8443 77.1263 17.0626C77.124 17.2109 77.0861 17.3468 77.0101 17.4683C76.9321 17.5918 76.8331 17.6886 76.7084 17.7587C76.5861 17.8307 76.4511 17.8678 76.3036 17.8678Z" fill="white"/>
<path d="M81.6172 10.296H82.9969V15.5618C82.9949 16.0457 82.8892 16.4597 82.6826 16.8077C82.4738 17.1557 82.1847 17.4213 81.8135 17.6088C81.4443 17.7941 81.0118 17.8888 80.5202 17.8888C80.0708 17.8888 79.668 17.8085 79.3093 17.652C78.9507 17.4955 78.6659 17.2607 78.4571 16.9518C78.246 16.6429 78.1426 16.2578 78.1426 15.7966H79.5246C79.5266 15.9984 79.5731 16.1734 79.6616 16.3196C79.7501 16.4658 79.8725 16.577 80.0287 16.6553C80.1867 16.7335 80.3684 16.7727 80.5728 16.7727C80.7945 16.7727 80.9843 16.7274 81.1383 16.6347C81.2922 16.5441 81.4105 16.4082 81.4928 16.2269C81.5728 16.0478 81.6152 15.8254 81.6172 15.5618V10.296Z" fill="white"/>
<path d="M88.6754 12.3564C88.6418 12.0372 88.494 11.788 88.2367 11.6109C87.9771 11.4318 87.6418 11.3432 87.2303 11.3432C86.9414 11.3432 86.6925 11.3865 86.4858 11.4709C86.279 11.5574 86.1186 11.6727 86.0088 11.8189C85.8993 11.9651 85.8444 12.132 85.84 12.3194C85.84 12.4759 85.878 12.6118 85.9519 12.7251C86.0258 12.8404 86.1248 12.9372 86.2536 13.0154C86.3801 13.0957 86.5214 13.1616 86.6756 13.2152C86.8316 13.2687 86.9878 13.314 87.1438 13.3511L87.8632 13.5261C88.1523 13.592 88.4329 13.6806 88.7008 13.7939C88.9686 13.9051 89.2113 14.0472 89.4243 14.2181C89.6374 14.389 89.8062 14.5949 89.9307 14.8359C90.0551 15.0768 90.1184 15.3589 90.1184 15.6843C90.1184 16.123 90.0045 16.5081 89.7744 16.8417C89.5446 17.1732 89.2134 17.4327 88.7788 17.6201C88.3462 17.8055 87.8231 17.9002 87.2072 17.9002C86.6122 17.9002 86.0933 17.8096 85.6566 17.6284C85.2179 17.4492 84.8759 17.1856 84.6291 16.8396C84.3823 16.4937 84.2495 16.0715 84.2305 15.5752H85.5976C85.6166 15.8346 85.701 16.0509 85.8444 16.2259C85.9899 16.3989 86.1797 16.5266 86.4119 16.6131C86.6461 16.6975 86.9075 16.7408 87.1966 16.7408C87.4983 16.7408 87.7641 16.6955 87.994 16.6069C88.2218 16.5184 88.4011 16.3948 88.5299 16.2342C88.6607 16.0756 88.7262 15.8882 88.7282 15.674C88.7262 15.4784 88.6669 15.3157 88.553 15.188C88.4371 15.0603 88.2767 14.9533 88.072 14.8668C87.8655 14.7803 87.6248 14.702 87.3506 14.6341L86.4773 14.4158C85.8464 14.2572 85.3464 14.0163 84.9814 13.693C84.6145 13.3696 84.4329 12.9413 84.4329 12.4038C84.4329 11.9631 84.5553 11.576 84.8023 11.2444C85.0468 10.9128 85.3824 10.6554 85.8064 10.4721C86.2325 10.2868 86.7136 10.1962 87.2493 10.1962C87.7936 10.1962 88.2703 10.2868 88.6818 10.4721C89.093 10.6554 89.416 10.9108 89.65 11.2361C89.8842 11.5615 90.0066 11.9343 90.013 12.3564H88.6754Z" fill="white"/>
</svg>
