<svg width="27" height="27" viewBox="0 0 27 27" fill="none" xmlns="http://www.w3.org/2000/svg">
<path d="M16.0789 13.3525L12.6559 11.3965V15.3085L16.0789 13.3525Z" fill="white"/>
<path fill-rule="evenodd" clip-rule="evenodd" d="M0.919922 13.3525C0.919922 6.15071 6.75813 0.3125 13.9599 0.3125C21.1617 0.3125 26.9999 6.15071 26.9999 13.3525C26.9999 20.5543 21.1617 26.3925 13.9599 26.3925C6.75813 26.3925 0.919922 20.5543 0.919922 13.3525ZM19.0129 9.033C19.5834 9.196 19.9909 9.6035 20.1539 10.174C20.4799 11.2335 20.4799 13.3525 20.4799 13.3525C20.4799 13.3525 20.4799 15.4715 20.2354 16.531C20.0724 17.1015 19.6649 17.509 19.0944 17.672C18.0349 17.9165 13.9599 17.9165 13.9599 17.9165C13.9599 17.9165 9.80342 17.9165 8.82542 17.672C8.25492 17.509 7.84742 17.1015 7.68442 16.531C7.43992 15.4715 7.43992 13.3525 7.43992 13.3525C7.43992 13.3525 7.43992 11.2335 7.60292 10.174C7.76592 9.6035 8.17343 9.196 8.74393 9.033C9.80343 8.7885 13.8784 8.7885 13.8784 8.7885C13.8784 8.7885 18.0349 8.7885 19.0129 9.033Z" fill="white"/>
</svg>
