<svg width="48" height="49" viewBox="0 0 48 49" fill="none" xmlns="http://www.w3.org/2000/svg">
<path fill-rule="evenodd" clip-rule="evenodd" d="M11.6631 20.4539V37.9036H17.2079V20.4539H11.6631ZM11.3369 14.9091C11.3369 16.703 12.6416 18.0076 14.4355 18.0076C16.2294 18.0076 17.534 16.703 17.534 14.9091C17.534 13.1152 16.2294 11.8105 14.4355 11.8105C12.8046 11.8105 11.3369 13.1152 11.3369 14.9091ZM31.8852 37.9036H37.1038V27.1402C37.1038 21.7585 33.8421 19.9646 30.7436 19.9646C27.9712 19.9646 26.0142 21.7585 25.525 22.9001V20.4539H20.3064V37.9036H25.8511V28.6079C25.8511 26.1617 27.482 24.8571 29.1128 24.8571C30.7436 24.8571 31.8852 25.6725 31.8852 28.4448V37.9036Z" fill="white"/>
</svg>
