<svg width="48" height="49" viewBox="0 0 48 49" fill="none" xmlns="http://www.w3.org/2000/svg">
<path fill-rule="evenodd" clip-rule="evenodd" d="M35.5955 17.3314C36.8838 17.1473 37.9881 16.9633 39.0924 16.4111C38.3562 17.6995 37.2519 18.8038 35.9636 19.54C36.3316 28.1903 30.074 37.5768 18.847 37.5768C15.5341 37.5768 12.4053 36.4725 9.64453 34.816C12.7734 35.1841 16.0863 34.2639 18.2948 32.6074C15.5341 32.6074 13.3255 30.767 12.5893 28.3743C13.5096 28.5584 14.4298 28.3743 15.3501 28.1903C12.5893 27.4541 10.5648 24.8774 10.5648 22.1166C11.485 22.4847 12.4053 22.8528 13.3255 22.8528C10.7488 21.0124 9.82858 17.5154 11.485 14.7547C14.6139 18.4357 19.031 20.8283 24.0004 21.0124C23.0801 17.3314 26.0249 13.6504 29.8899 13.6504C31.5464 13.6504 33.2028 14.3866 34.3071 15.4909C35.7795 15.1228 37.0678 14.7547 38.1721 14.0185C37.804 15.4909 36.8838 16.5952 35.5955 17.3314Z" fill="white"/>
</svg>
