<svg width="88" height="21" viewBox="0 0 88 21" fill="none" xmlns="http://www.w3.org/2000/svg">
<path d="M8.11958 1.31567H6.43319L0.766602 16.1001H2.91874L4.62454 11.5773H9.84479L11.568 16.1001H13.759L8.11958 1.31567ZM7.26765 4.30565C7.4035 4.76013 7.53934 5.16677 7.6713 5.51759L9.15781 9.58795H5.37167L6.88535 5.50165C7.03155 5.08969 7.15898 4.69103 7.26765 4.30565Z" fill="white"/>
<path d="M21.8223 0.847976L21.2676 2.61272L21.0324 2.53341C19.7252 2.10115 18.8765 2.14675 18.4689 2.74756C18.218 3.10646 18.0906 3.71123 18.0906 4.54602V4.98621H20.7071V6.73906H18.0906V16.1002H16.0425V6.73906H14.2061V5.57314L16.0425 4.99216V4.58369C16.0425 1.82553 17.24 0.419678 19.5997 0.419678C20.2746 0.439301 20.9433 0.556827 21.5851 0.768661L21.8223 0.847976Z" fill="white"/>
<path d="M28.0952 14.05V15.7262L27.9556 15.7921C27.6916 15.9063 27.4121 15.982 27.1259 16.0169C26.8128 16.0699 26.4959 16.0977 26.1782 16.1002C24.0155 16.1002 22.8811 14.9201 22.8811 12.6897V6.77175H21.375V5.60909L22.9223 4.93862L23.6164 2.65979H24.9494V5.06263H28.0008V6.77175H24.9494V12.6316C24.9494 13.1935 25.0811 13.6218 25.3426 13.9105C25.4752 14.0537 25.6388 14.1657 25.8212 14.2381C26.0036 14.3106 26.2002 14.3417 26.3965 14.3291C26.6565 14.3291 26.9161 14.3096 27.1731 14.2709C27.372 14.2425 27.5689 14.2023 27.7629 14.1508L28.0952 14.05Z" fill="white"/>
<path d="M38.3985 9.78457C38.3985 8.33343 37.9907 7.14508 37.1828 6.25237C36.375 5.35966 35.2519 4.89978 33.8628 4.89978C32.3831 4.89978 31.1832 5.42343 30.3025 6.45719C29.4217 7.49096 28.9902 8.86867 28.9902 10.5845C28.9902 12.3004 29.4671 13.6549 30.4069 14.6288C31.3467 15.6027 32.6531 16.0992 34.2766 16.0992C34.9045 16.1078 35.5316 16.0541 36.1484 15.9389C36.7147 15.8175 37.2672 15.6408 37.7976 15.4114L37.9454 15.3476V13.4153L37.6045 13.5602C36.5726 14.0022 35.4597 14.233 34.3337 14.2385C33.319 14.2385 32.5605 13.9564 32.0088 13.3747C31.4985 12.8337 31.2108 12.0415 31.1458 11.0154H38.3985V9.78457ZM33.8431 6.69293C34.6076 6.69293 35.1751 6.92094 35.579 7.39242C35.9514 7.82911 36.1563 8.4571 36.1898 9.26672H31.2049C31.2705 8.58799 31.5454 7.94497 31.993 7.42333C32.2275 7.17507 32.5148 6.98043 32.8345 6.8532C33.1542 6.72597 33.4986 6.66928 33.8431 6.68713V6.69293Z" fill="white"/>
<path d="M47.3608 5.06128L47.0597 7.02688L46.7986 6.96988C46.4304 6.88583 46.0543 6.83971 45.6763 6.83229C45.2848 6.83082 44.898 6.91556 44.5446 7.08024C44.1911 7.24492 43.88 7.48532 43.6343 7.78364C43.0505 8.45775 42.7428 9.31993 42.7709 10.2033V16.1001H40.6406V5.09273H42.4637L42.6123 6.65342C42.935 6.20181 43.3384 5.81094 43.803 5.49961C44.3902 5.10671 45.0855 4.89765 45.7967 4.9001C46.2448 4.89576 46.6922 4.93594 47.1319 5.02L47.3608 5.06128Z" fill="white"/>
<path d="M50.4959 0.419678H48.2559V16.1002H50.4959V0.419678Z" fill="white"/>
<path d="M60.8257 6.42437C59.9421 5.41184 58.7361 4.89978 57.2438 4.89978C55.6999 4.89978 54.4748 5.40218 53.5989 6.38959C52.723 7.377 52.2898 8.7528 52.2898 10.4919C52.2672 11.5088 52.4707 12.5179 52.8852 13.4444C53.2576 14.2593 53.8599 14.9444 54.616 15.4135C55.3886 15.8773 56.2732 16.1148 57.1713 16.0994C58.7151 16.0994 59.9421 15.5951 60.8257 14.6C61.7092 13.6048 62.1443 12.2309 62.1443 10.4919C62.1501 8.79531 61.7035 7.42917 60.8257 6.42437ZM57.2151 14.3043C56.2724 14.3043 55.5816 13.9971 55.1045 13.3633C54.6275 12.7295 54.3698 11.7517 54.3698 10.4919C54.3698 9.23201 54.6122 8.25426 55.0931 7.6282C55.574 7.00213 56.2534 6.71422 57.1922 6.71422C58.1311 6.71422 58.8468 7.01759 59.3296 7.64365C59.8124 8.26972 60.0662 9.23781 60.0662 10.4919C60.0662 11.7459 59.8181 12.7256 59.3296 13.3671C58.841 14.0087 58.1579 14.3043 57.2151 14.3043Z" fill="white"/>
<path d="M73.7907 5.09365H69.9889C69.4978 4.96067 68.9907 4.89551 68.4818 4.9C67.175 4.9 66.1482 5.23115 65.4151 5.8857C64.682 6.54026 64.3086 7.48723 64.3086 8.68789C64.2993 9.37239 64.4891 10.0449 64.8551 10.6244C65.1155 11.043 65.4713 11.3946 65.8935 11.6508C65.6351 11.8304 65.4073 12.0501 65.2187 12.3015C64.9852 12.6337 64.8633 13.0309 64.8706 13.4363C64.8645 13.8002 64.9741 14.1568 65.1837 14.4549C65.2703 14.5754 65.3701 14.6858 65.4812 14.7842C64.9736 14.9547 64.5188 15.2529 64.1608 15.6498C63.7209 16.1442 63.4823 16.7845 63.4919 17.445C63.4758 17.9053 63.5789 18.3619 63.7915 18.771C64.004 19.18 64.3187 19.5277 64.7053 19.7805C65.4832 20.3111 66.5838 20.5803 67.9898 20.5803C69.8022 20.5803 71.2062 20.2627 72.1669 19.6372C73.1587 18.9923 73.6643 18.0414 73.6643 16.8117C73.6643 15.8435 73.3259 15.0688 72.6628 14.5595C71.9997 14.0502 71.0935 13.8004 69.9169 13.8004H68.0734C67.422 13.8004 67.1264 13.7055 66.9903 13.628C66.9152 13.5882 66.8534 13.5274 66.8127 13.4531C66.7719 13.3788 66.7539 13.2942 66.7608 13.2097C66.7608 12.7856 67.0233 12.4351 67.5659 12.1291C67.8404 12.1737 68.1181 12.195 68.3962 12.1931C69.668 12.1931 70.687 11.8677 71.426 11.2248C71.7967 10.8994 72.0902 10.4961 72.2853 10.044C72.4804 9.59185 72.5721 9.10219 72.5539 8.61043C72.5561 8.17387 72.4776 7.74062 72.3225 7.33231C72.2444 7.13203 72.1515 6.93783 72.0444 6.75134L73.7946 6.54607L73.7907 5.09365ZM68.0034 18.9071C67.1672 18.9071 66.5216 18.7735 66.088 18.5081C65.8982 18.4027 65.7417 18.2466 65.6362 18.0574C65.5308 17.8682 65.4804 17.6534 65.491 17.4372C65.491 16.8679 65.6601 16.4496 66.0043 16.1552C66.3485 15.8609 66.8658 15.704 67.5192 15.704H69.4055C70.5412 15.704 71.0312 15.8609 71.2432 15.9926C71.5174 16.1649 71.6516 16.4786 71.6516 16.9608C71.6516 17.5418 71.3774 18.0066 70.8095 18.359C70.2417 18.7115 69.2733 18.9071 68.0034 18.9071ZM68.4332 10.6148C67.7662 10.6148 67.2411 10.4463 66.8775 10.1209C66.5138 9.7956 66.3388 9.3134 66.3388 8.65304C66.3388 7.94232 66.5177 7.40396 66.8678 7.05538C67.2178 6.7068 67.7331 6.53251 68.4021 6.53251C69.8294 6.53251 70.4964 7.19675 70.4964 8.62399C70.5042 9.98151 69.8469 10.6148 68.4332 10.6148Z" fill="white"/>
<path d="M77.772 18.9989C77.7844 19.1375 77.7646 19.2769 77.7139 19.408C77.6632 19.5391 77.5827 19.6591 77.4776 19.76C77.2834 19.9208 77.0303 20.0098 76.7677 20.0098C76.5052 20.0098 76.2521 19.9208 76.0578 19.76C75.9507 19.66 75.868 19.5405 75.8152 19.4093C75.7625 19.2781 75.7409 19.1382 75.7518 18.9989C75.7418 18.8598 75.7637 18.7203 75.8161 18.5892C75.8685 18.4582 75.9502 18.3385 76.0561 18.2378C76.2457 18.0722 76.4991 17.981 76.7619 17.9836C76.8947 17.9803 77.0269 18.0016 77.1505 18.0461C77.2741 18.0905 77.3865 18.1573 77.481 18.2424C77.5836 18.3437 77.6624 18.4632 77.7124 18.5933C77.7624 18.7234 77.7827 18.8614 77.772 18.9989Z" fill="white"/>
<path d="M77.7756 5.14832H75.749V16.6322H77.7756V5.14832Z" fill="white"/>
<path d="M86.6852 13.7116L87.0175 13.5764V15.4702L86.8854 15.5378C86.1606 15.9107 85.2375 16.1001 84.1455 16.1001C82.5773 16.1001 81.3375 15.6093 80.4689 14.6392C79.6003 13.6691 79.1689 12.3048 79.1689 10.5657C79.1689 8.78396 79.6139 7.38102 80.4884 6.39741C81.3628 5.41381 82.6259 4.89978 84.2504 4.89978C84.773 4.89996 85.2942 4.95567 85.8049 5.06597C86.2322 5.14469 86.6471 5.27919 87.0389 5.46598L87.2332 5.5626L86.5939 7.32691L86.3607 7.23222C86.0018 7.09377 85.6328 6.98266 85.257 6.89984C84.9169 6.81848 84.569 6.77442 84.2193 6.76844C82.2508 6.76844 81.2929 8.00519 81.2929 10.5463C81.2929 11.7599 81.5357 12.6952 82.0177 13.3271C82.4996 13.959 83.1836 14.2489 84.1163 14.2489C84.9996 14.2378 85.8723 14.0553 86.6852 13.7116Z" fill="white"/>
</svg>
