<svg width="65" height="64" viewBox="0 0 65 64" fill="none" xmlns="http://www.w3.org/2000/svg">
<g opacity="0.7">
<path d="M44.6667 1H7.33333C4.38781 1 2 3.38781 2 6.33333V57C2 59.9455 4.38781 62.3333 7.33333 62.3333H44.6667C47.6122 62.3333 50 59.9455 50 57V35.8762" stroke="white" stroke-width="1.5" stroke-linecap="round" stroke-linejoin="round"/>
<path d="M20.2578 58.5137H33.9721" stroke="white" stroke-width="1.5" stroke-linecap="round" stroke-linejoin="round"/>
<path d="M29.59 20.1138H12.0293V30.6281H24.5614" stroke="white" stroke-width="1.5" stroke-linecap="round" stroke-linejoin="round"/>
<path d="M42.3902 36.5708H12.2188V53.0279H42.3902V36.5708Z" stroke="white" stroke-width="1.5" stroke-linecap="round" stroke-linejoin="round"/>
<path d="M19 9C19.1978 9 19.3911 9.05865 19.5556 9.16853C19.72 9.27841 19.8482 9.43459 19.9239 9.61732C19.9996 9.80004 20.0194 10.0011 19.9808 10.1951C19.9422 10.3891 19.847 10.5673 19.7071 10.7071C19.5673 10.847 19.3891 10.9422 19.1951 10.9808C19.0011 11.0194 18.8 10.9996 18.6173 10.9239C18.4346 10.8482 18.2784 10.72 18.1685 10.5556C18.0586 10.3911 18 10.1978 18 10C18 9.73478 18.1054 9.48043 18.2929 9.29289C18.4804 9.10536 18.7348 9 19 9Z" fill="white"/>
<path d="M19 9C19.1978 9 19.3911 9.05865 19.5556 9.16853C19.72 9.27841 19.8482 9.43459 19.9239 9.61732C19.9996 9.80004 20.0194 10.0011 19.9808 10.1951C19.9422 10.3891 19.847 10.5673 19.7071 10.7071C19.5673 10.847 19.3891 10.9422 19.1951 10.9808C19.0011 11.0194 18.8 10.9996 18.6173 10.9239C18.4346 10.8482 18.2784 10.72 18.1685 10.5556C18.0586 10.3911 18 10.1978 18 10C18 9.73478 18.1054 9.48043 18.2929 9.29289C18.4804 9.10536 18.7348 9 19 9" stroke="white" stroke-width="1.5" stroke-linecap="round" stroke-linejoin="round"/>
<path d="M27 9C27.1978 9 27.3911 9.05865 27.5556 9.16853C27.72 9.27841 27.8482 9.43459 27.9239 9.61732C27.9996 9.80004 28.0194 10.0011 27.9808 10.1951C27.9422 10.3891 27.847 10.5673 27.7071 10.7071C27.5673 10.847 27.3891 10.9422 27.1951 10.9808C27.0011 11.0194 26.8 10.9996 26.6173 10.9239C26.4346 10.8482 26.2784 10.72 26.1685 10.5556C26.0586 10.3911 26 10.1978 26 10C26 9.73478 26.1054 9.48043 26.2929 9.29289C26.4804 9.10536 26.7348 9 27 9Z" fill="white"/>
<path d="M27 9C27.1978 9 27.3911 9.05865 27.5556 9.16853C27.72 9.27841 27.8482 9.43459 27.9239 9.61732C27.9996 9.80004 28.0194 10.0011 27.9808 10.1951C27.9422 10.3891 27.847 10.5673 27.7071 10.7071C27.5673 10.847 27.3891 10.9422 27.1951 10.9808C27.0011 11.0194 26.8 10.9996 26.6173 10.9239C26.4346 10.8482 26.2784 10.72 26.1685 10.5556C26.0586 10.3911 26 10.1978 26 10C26 9.73478 26.1054 9.48043 26.2929 9.29289C26.4804 9.10536 26.7348 9 27 9" stroke="white" stroke-width="1.5" stroke-linecap="round" stroke-linejoin="round"/>
<path d="M35 9C35.1978 9 35.3911 9.05865 35.5556 9.16853C35.72 9.27841 35.8482 9.43459 35.9239 9.61732C35.9996 9.80004 36.0194 10.0011 35.9808 10.1951C35.9422 10.3891 35.847 10.5673 35.7071 10.7071C35.5673 10.847 35.3891 10.9422 35.1951 10.9808C35.0011 11.0194 34.8 10.9996 34.6173 10.9239C34.4346 10.8482 34.2784 10.72 34.1685 10.5556C34.0586 10.3911 34 10.1978 34 10C34 9.73478 34.1054 9.48043 34.2929 9.29289C34.4804 9.10536 34.7348 9 35 9Z" fill="white"/>
<path d="M35 9C35.1978 9 35.3911 9.05865 35.5556 9.16853C35.72 9.27841 35.8482 9.43459 35.9239 9.61732C35.9996 9.80004 36.0194 10.0011 35.9808 10.1951C35.9422 10.3891 35.847 10.5673 35.7071 10.7071C35.5673 10.847 35.3891 10.9422 35.1951 10.9808C35.0011 11.0194 34.8 10.9996 34.6173 10.9239C34.4346 10.8482 34.2784 10.72 34.1685 10.5556C34.0586 10.3911 34 10.1978 34 10C34 9.73478 34.1054 9.48043 34.2929 9.29289C34.4804 9.10536 34.7348 9 35 9" stroke="white" stroke-width="1.5" stroke-linecap="round" stroke-linejoin="round"/>
<path d="M59.6561 12.842L43.1248 29.3751L35 31L36.625 22.8754L53.1563 6.34225C54.016 5.48281 55.1819 5 56.3975 5C57.6132 5 58.7791 5.48281 59.6388 6.34225L59.6561 6.36174C60.0821 6.78696 60.4201 7.292 60.6507 7.84798C60.8813 8.40396 61 8.99995 61 9.60185C61 10.2038 60.8813 10.7997 60.6507 11.3557C60.4201 11.9117 60.0821 12.4167 59.6561 12.842Z" stroke="white" stroke-width="1.5" stroke-linecap="round" stroke-linejoin="round"/>
</g>
</svg>
