<svg width="64" height="64" viewBox="0 0 64 64" fill="none" xmlns="http://www.w3.org/2000/svg">
<g opacity="0.7">
<g clip-path="url(#clip0_144_7466)">
<path d="M25.333 30.6668L38.6663 17.3335" stroke="white" stroke-width="1.5" stroke-linecap="round" stroke-linejoin="round"/>
<path d="M39.4493 8.55216C38.9492 9.05214 38.6681 9.73031 38.668 10.4375V17.3335H45.564C46.2712 17.3333 46.9493 17.0523 47.4493 16.5522L54.668 9.3335H46.668V1.3335L39.4493 8.55216Z" stroke="white" stroke-width="1.5" stroke-linecap="round" stroke-linejoin="round"/>
<path d="M25.3338 44.0002C22.8696 43.9995 20.4538 43.316 18.3546 42.0255C16.2553 40.735 14.5548 38.888 13.4417 36.6896C12.3286 34.4911 11.8465 32.0272 12.049 29.5714C12.2514 27.1155 13.1305 24.7638 14.5886 22.7773C16.0467 20.7908 18.0267 19.2473 20.309 18.318C22.5912 17.3887 25.0863 17.11 27.5173 17.5129" stroke="white" stroke-width="1.5" stroke-linecap="round" stroke-linejoin="round"/>
<path d="M25.3347 54.6665C21.8451 54.6642 18.398 53.9009 15.2337 52.43C12.0693 50.959 9.26376 48.8156 7.01259 46.1493C4.76141 43.483 3.11875 40.3579 2.19908 36.9917C1.27941 33.6255 1.10486 30.0992 1.68759 26.6587C2.27033 23.2181 3.59632 19.946 5.57317 17.0704C7.55002 14.1948 10.1302 11.7849 13.1338 10.0086C16.1374 8.23228 19.4923 7.13233 22.9646 6.78541C26.4368 6.43848 29.943 6.85292 33.2387 7.99984" stroke="white" stroke-width="1.5" stroke-linecap="round" stroke-linejoin="round"/>
<path d="M46.668 62.6665C55.5045 62.6665 62.668 55.5031 62.668 46.6665C62.668 37.8299 55.5045 30.6665 46.668 30.6665C37.8314 30.6665 30.668 37.8299 30.668 46.6665C30.668 55.5031 37.8314 62.6665 46.668 62.6665Z" stroke="white" stroke-width="1.5" stroke-linecap="round" stroke-linejoin="round"/>
<path d="M53.7988 42.0161L46.0521 52.3441C45.8798 52.573 45.6604 52.7623 45.4088 52.8993C45.1571 53.0363 44.8791 53.1178 44.5933 53.1383C44.3075 53.1587 44.0206 53.1177 43.752 53.018C43.4834 52.9183 43.2393 52.7621 43.0361 52.5601L39.0361 48.5601" stroke="white" stroke-width="1.5" stroke-linecap="round" stroke-linejoin="round"/>
</g>
</g>
<defs>
<clipPath id="clip0_144_7466">
<rect width="64" height="64" fill="white"/>
</clipPath>
</defs>
</svg>
