<svg width="0" height="0" class="hidden">

  <symbol id="arrow-top-right" viewBox="0 0 24 25" fill="none" xmlns="http://www.w3.org/2000/svg">
    <path fill-rule="evenodd" clip-rule="evenodd"
      d="M21.8906 17.6819V4.14193L1.4921 24.4812L0 22.9935L20.0972 2.95459H7.1172V0.850661H21.8906L24.0009 0.850464V17.6819H21.8906Z"
      fill="currentColor" />
  </symbol>

  <symbol id="map-pin" viewBox="0 0 12 16" fill="none" xmlns="http://www.w3.org/2000/svg">
    <path fill-rule="evenodd" clip-rule="evenodd"
      d="M6 15.5C6 15.5 12 12.2136 12 6.5C12 4.9087 11.3679 3.38258 10.2426 2.25736C9.11742 1.13214 7.5913 0.5 6 0.5C4.4087 0.5 2.88258 1.13214 1.75736 2.25736C0.632141 3.38258 0 4.9087 0 6.5C0 12.2136 6 15.5 6 15.5ZM7.69706 8.19706C8.14714 7.74697 8.4 7.13652 8.4 6.5C8.4 5.86348 8.14714 5.25303 7.69706 4.80294C7.24697 4.35286 6.63652 4.1 6 4.1C5.36348 4.1 4.75303 4.35286 4.30294 4.80294C3.85286 5.25303 3.6 5.86348 3.6 6.5C3.6 7.13652 3.85286 7.74697 4.30294 8.19706C4.75303 8.64714 5.36348 8.9 6 8.9C6.63652 8.9 7.24697 8.64714 7.69706 8.19706Z"
      fill="white" />
  </symbol>


</svg>