<svg width="0" height="0" class="hidden">

  <symbol id="arrow-top-right" viewBox="0 0 24 25" fill="none" xmlns="http://www.w3.org/2000/svg">
    <path fill-rule="evenodd" clip-rule="evenodd"
      d="M21.8906 17.6819V4.14193L1.4921 24.4812L0 22.9935L20.0972 2.95459H7.1172V0.850661H21.8906L24.0009 0.850464V17.6819H21.8906Z"
      fill="currentColor" />
  </symbol>

  <symbol id="map-pin" viewBox="0 0 12 16" fill="none" xmlns="http://www.w3.org/2000/svg">
    <path fill-rule="evenodd" clip-rule="evenodd"
      d="M6 15.5C6 15.5 12 12.2136 12 6.5C12 4.9087 11.3679 3.38258 10.2426 2.25736C9.11742 1.13214 7.5913 0.5 6 0.5C4.4087 0.5 2.88258 1.13214 1.75736 2.25736C0.632141 3.38258 0 4.9087 0 6.5C0 12.2136 6 15.5 6 15.5ZM7.69706 8.19706C8.14714 7.74697 8.4 7.13652 8.4 6.5C8.4 5.86348 8.14714 5.25303 7.69706 4.80294C7.24697 4.35286 6.63652 4.1 6 4.1C5.36348 4.1 4.75303 4.35286 4.30294 4.80294C3.85286 5.25303 3.6 5.86348 3.6 6.5C3.6 7.13652 3.85286 7.74697 4.30294 8.19706C4.75303 8.64714 5.36348 8.9 6 8.9C6.63652 8.9 7.24697 8.64714 7.69706 8.19706Z"
      fill="white" />
  </symbol>

  <symbol id="facebook" viewBox="0 0 49 49" fill="none" xmlns="http://www.w3.org/2000/svg">
    <path fill-rule="evenodd" clip-rule="evenodd"
      d="M25.0556 11.498C33.3125 11.498 40.0682 18.1238 40.0682 26.222C40.0682 33.5839 34.6262 39.8416 27.1198 40.9459V30.4551H30.6853L31.436 26.222H27.3075V23.4612C27.3075 22.3569 27.8705 21.2527 29.7471 21.2527H31.6236V17.5717C31.6236 17.5717 29.9347 17.2036 28.2458 17.2036C24.8679 17.2036 22.6161 19.2281 22.6161 22.9091V26.222H18.8629V30.4551H22.6161V40.7619C15.4851 39.6576 10.043 33.5839 10.043 26.222C10.043 18.1238 16.7987 11.498 25.0556 11.498Z"
      fill="currentColor" />
  </symbol>

  <symbol id="linkedin" viewBox="0 0 49 49" fill="none" xmlns="http://www.w3.org/2000/svg">
    <path fill-rule="evenodd" clip-rule="evenodd"
      d="M11.7226 20.1414V37.5911H17.2674V20.1414H11.7226ZM11.3965 14.5966C11.3965 16.3905 12.7011 17.6951 14.495 17.6951C16.2889 17.6951 17.5936 16.3905 17.5936 14.5966C17.5936 12.8027 16.2889 11.498 14.495 11.498C12.8642 11.498 11.3965 12.8027 11.3965 14.5966ZM31.9448 37.5911H37.1634V26.8277C37.1634 21.446 33.9017 19.6521 30.8032 19.6521C28.0308 19.6521 26.0738 21.446 25.5846 22.5876V20.1414H20.366V37.5911H25.9107V28.2954C25.9107 25.8492 27.5415 24.5446 29.1723 24.5446C30.8032 24.5446 31.9448 25.36 31.9448 28.1323V37.5911Z"
      fill="currentColor" />
  </symbol>

  <symbol id="twitter" viewBox="0 0 49 49" fill="none" xmlns="http://www.w3.org/2000/svg">
    <path fill-rule="evenodd" clip-rule="evenodd"
      d="M35.654 17.0189C36.9424 16.8348 38.0467 16.6508 39.151 16.0986C38.4148 17.387 37.3105 18.4913 36.0221 19.2275C36.3902 27.8778 30.1326 37.2643 18.9056 37.2643C15.5927 37.2643 12.4639 36.16 9.70312 34.5035C12.832 34.8716 16.1448 33.9514 18.3534 32.2949C15.5927 32.2949 13.3841 30.4545 12.6479 28.0618C13.5682 28.2459 14.4884 28.0618 15.4086 27.8778C12.6479 27.1416 10.6234 24.5649 10.6234 21.8041C11.5436 22.1722 12.4639 22.5403 13.3841 22.5403C10.8074 20.6999 9.88717 17.2029 11.5436 14.4422C14.6725 18.1232 19.0896 20.5158 24.059 20.6999C23.1387 17.0189 26.0835 13.3379 29.9485 13.3379C31.605 13.3379 33.2614 14.0741 34.3657 15.1784C35.8381 14.8103 37.1264 14.4422 38.2307 13.706C37.8626 15.1784 36.9424 16.2827 35.654 17.0189Z"
      fill="currentColor" />
  </symbol>

  <symbol id="youtube" viewBox="0 0 49 49" fill="none" xmlns="http://www.w3.org/2000/svg">
    <path fill-rule="evenodd" clip-rule="evenodd"
      d="M36.9308 20.1484C36.5555 18.86 35.6172 17.9398 34.3036 17.5717C32.0517 17.0195 22.4812 17.0195 22.4812 17.0195C22.4812 17.0195 13.0983 17.0195 10.6588 17.5717C9.34518 17.9398 8.40687 18.86 8.03156 20.1484C7.65624 22.541 7.65625 27.3263 7.65625 27.3263C7.65625 27.3263 7.65625 32.1115 8.21923 34.5041C8.59454 35.7925 9.53282 36.7127 10.8464 37.0808C13.0983 37.633 22.6688 37.633 22.6688 37.633C22.6688 37.633 32.0517 37.633 34.4912 37.0808C35.8048 36.7127 36.7432 35.7925 37.1185 34.5041C37.6814 32.1115 37.6814 27.3263 37.6814 27.3263C37.6814 27.3263 37.6814 22.541 36.9308 20.1484ZM17.9766 22.5L28.2977 28.061L17.9766 32.6622V22.5Z"
      fill="currentColor" />
  </symbol>


</svg>