<svg width="1074" height="107" viewBox="0 0 1074 107" fill="none" xmlns="http://www.w3.org/2000/svg">
<path fill-rule="evenodd" clip-rule="evenodd" d="M561.545 25.2172C561.539 25.2172 561.535 25.2217 561.535 25.2272V40.3597C561.535 40.3652 561.539 40.3697 561.545 40.3697H591.436C591.441 40.3697 591.446 40.3741 591.446 40.3797V62.5771C591.446 62.5826 591.441 62.5871 591.436 62.5871H561.545C561.539 62.5871 561.535 62.5916 561.535 62.5971V80.8722C561.535 80.8777 561.539 80.8822 561.545 80.8822H593.826C593.831 80.8822 593.836 80.8867 593.836 80.8922V103.431C593.836 103.437 593.831 103.441 593.826 103.441H534.01C534.004 103.441 534 103.437 534 103.431V3.00977C534 3.00425 534.004 2.99977 534.01 2.99977H593.826C593.831 2.99977 593.836 3.00425 593.836 3.00977V25.2072C593.836 25.2127 593.831 25.2172 593.826 25.2172H561.545Z" stroke="white" stroke-width="1.5" stroke-linecap="round" stroke-linejoin="round"/>
<path fill-rule="evenodd" clip-rule="evenodd" d="M986 3.44482V104.042H1012.36V70.214L1021.66 64.6823L1042.14 104.042H1071.71L1040.27 48.3881L1072.1 3.44482H1043.62L1022.28 34.4072L1022.27 34.4181C1018 40.3787 1013.8 44.3078 1012.42 47L1012.36 47.0372V3.44482H986Z" stroke="white" stroke-width="1.5"/>
<path fill-rule="evenodd" clip-rule="evenodd" d="M893 3V104H919.266V66.6873H927.522L949.348 104H979L949.347 59.8283L950.075 59.4213C961.508 53.0384 967.141 44.089 967.141 32.5292C967.141 22.6275 963.727 15.3069 956.971 10.4282C950.168 5.51631 939.869 3 925.952 3H893ZM920.81 23.9706V45.8569H925.247C930.009 45.8569 933.435 44.8067 935.667 42.8413C937.881 40.8918 939.05 37.925 939.05 33.7916C939.05 30.4515 937.935 28.057 935.788 26.4662C933.598 24.8435 930.22 23.9706 925.53 23.9706H920.81Z" stroke="white" stroke-width="1.5"/>
<path fill-rule="evenodd" clip-rule="evenodd" d="M816.007 31.3112C812.658 36.1073 810.926 43.3969 810.926 53.2981C810.926 63.1058 812.647 70.3253 815.972 75.0747C819.262 79.7736 824.189 82.1508 830.891 82.1508C837.724 82.1508 842.664 79.8331 845.864 75.2829L845.867 75.2788C849.15 70.6758 850.856 63.3945 850.856 53.2981C850.856 43.1566 849.126 35.8288 845.798 31.1789L845.793 31.172C842.538 26.5198 837.662 24.166 831.032 24.166C824.284 24.166 819.322 26.5658 816.007 31.3112Z" stroke="white" stroke-width="1.5"/>
<path fill-rule="evenodd" clip-rule="evenodd" d="M632 5L657.064 105.597H688.669C694.584 79.1874 697.935 64.1185 698.725 60.3804L698.727 60.3715C699.568 56.6088 700.41 52.4958 701.252 48.032C702.094 43.5237 702.7 39.7686 703.073 36.7629L704.604 36.7614C705.069 40.4692 705.793 45.0886 706.776 50.6224C707.808 56.1656 708.553 59.8436 709.015 61.6791L709.017 61.6898L718.727 105.597H750.329L775.255 5H750.077L738.825 55.7367V55.7389C736.106 68.4991 734.45 77.4318 733.846 82.5618L732.315 82.5698C731.803 78.5887 730.775 72.5531 729.229 64.4528C727.684 56.3584 726.164 49.2224 724.667 43.0434L724.665 43.0331L716.014 5H691.516L682.584 43.0515C681.23 48.3881 679.757 55.1252 678.166 63.2663C676.62 71.4094 675.546 77.8417 674.94 82.5695L673.411 82.578C672.477 75.9016 670.749 66.913 668.22 55.6045L668.219 55.6007L657.174 5H632Z" stroke="white" stroke-width="1.5"/>
<path d="M793.419 14.8137C792.475 15.8293 791.585 16.8948 790.749 18.0102C784.224 26.7188 781 38.4635 781 53.1619C781 70.1415 785.233 83.1967 793.817 92.2025C802.451 101.211 814.803 105.667 830.749 105.667C846.919 105.667 859.321 101.239 867.82 92.2695C876.312 83.3086 880.498 70.2763 880.498 53.299C880.498 36.278 876.336 23.2448 867.889 14.3286C859.435 5.40455 847.056 1 830.887 1C814.969 1 802.662 5.33719 794.086 14.1147" stroke="white" stroke-width="1.5" stroke-linecap="round" stroke-linejoin="round"/>
<path fill-rule="evenodd" clip-rule="evenodd" d="M205 3L230.064 103.597H261.669C267.584 77.1874 270.935 62.1185 271.725 58.3804L271.727 58.3715C272.568 54.6088 273.41 50.4958 274.252 46.032C275.094 41.5237 275.7 37.7686 276.073 34.7629L277.604 34.7614C278.069 38.4692 278.793 43.0886 279.776 48.6224C280.808 54.1656 281.553 57.8436 282.015 59.6791L282.017 59.6898L291.727 103.597H323.329L348.255 3H323.077L311.825 53.7367V53.7389C309.106 66.4991 307.45 75.4318 306.846 80.5618L305.315 80.5698C304.803 76.5887 303.775 70.5531 302.229 62.4528C300.684 54.3584 299.164 47.2224 297.667 41.0434L297.665 41.0331L289.014 3H264.516L255.584 41.0515C254.23 46.3881 252.757 53.1252 251.166 61.2663C249.62 69.4094 248.546 75.8417 247.94 80.5695L246.411 80.578C245.477 73.9016 243.749 64.913 241.22 53.6045L241.219 53.6007L230.174 3H205Z" stroke="white" stroke-width="1.5"/>
<path fill-rule="evenodd" clip-rule="evenodd" d="M380 3L405.064 103.597H436.669C442.584 77.1874 445.935 62.1185 446.725 58.3804L446.727 58.3715C447.568 54.6088 448.41 50.4958 449.252 46.032C450.094 41.5237 450.7 37.7686 451.073 34.7629L452.604 34.7614C453.069 38.4692 453.793 43.0886 454.776 48.6224C455.808 54.1656 456.553 57.8436 457.015 59.6791L457.017 59.6898L466.727 103.597H498.329L523.255 3H498.077L486.825 53.7367V53.7389C484.106 66.4991 482.45 75.4318 481.846 80.5618L480.315 80.5698C479.803 76.5887 478.775 70.5531 477.229 62.4528C475.684 54.3584 474.164 47.2224 472.667 41.0434L472.665 41.0331L464.014 3H439.516L430.584 41.0515C429.23 46.3881 427.757 53.1252 426.166 61.2663C424.62 69.4094 423.546 75.8417 422.94 80.5695L421.411 80.578C420.477 73.9016 418.749 64.913 416.22 53.6045L416.219 53.6007L405.174 3H380Z" stroke="white" stroke-width="1.5"/>
<path fill-rule="evenodd" clip-rule="evenodd" d="M136.007 31.3112C132.658 36.1073 130.926 43.3969 130.926 53.2981C130.926 63.1058 132.647 70.3253 135.972 75.0747C139.262 79.7736 144.189 82.1508 150.891 82.1508C157.724 82.1508 162.664 79.8331 165.864 75.2829L165.867 75.2788C169.15 70.6758 170.856 63.3945 170.856 53.2981C170.856 43.1566 169.126 35.8288 165.798 31.1789L165.793 31.172C162.538 26.5198 157.662 24.166 151.032 24.166C144.284 24.166 139.322 26.5658 136.007 31.3112Z" stroke="white" stroke-width="1.5"/>
<path d="M113.419 14.8137C112.475 15.8293 111.585 16.8948 110.749 18.0102C104.224 26.7188 101 38.4635 101 53.1619C101 70.1415 105.233 83.1967 113.817 92.2025C122.451 101.211 134.803 105.667 150.749 105.667C166.919 105.667 179.321 101.239 187.82 92.2695C196.312 83.3086 200.498 70.2763 200.498 53.299C200.498 36.278 196.336 23.2448 187.889 14.3286C179.435 5.40455 167.056 1 150.887 1C134.969 1 122.662 5.33719 114.086 14.1147" stroke="white" stroke-width="1.5" stroke-linecap="round" stroke-linejoin="round"/>
<path fill-rule="evenodd" clip-rule="evenodd" d="M1 1H29.6387V38.0508H59.5156V1H88.1543V102.441H59.5156V61.6992H29.6387V102.441H1V1Z" stroke="white" stroke-width="1.5"/>
</svg>
