<svg width="305" height="133" viewBox="0 0 305 133" fill="none" xmlns="http://www.w3.org/2000/svg">
<path fill-rule="evenodd" clip-rule="evenodd" d="M286.032 13.1406C286.03 13.1406 286.027 13.1429 286.027 13.1457V20.7324C286.027 20.7352 286.03 20.7374 286.032 20.7374H301.018C301.021 20.7374 301.023 20.7397 301.023 20.7424V31.8712C301.023 31.874 301.021 31.8762 301.018 31.8762H286.032C286.03 31.8762 286.027 31.8785 286.027 31.8812V41.0435C286.027 41.0463 286.03 41.0486 286.032 41.0486H302.217C302.219 41.0486 302.222 41.0508 302.222 41.0536V52.3536C302.222 52.3564 302.219 52.3586 302.217 52.3586H272.228C272.225 52.3586 272.223 52.3564 272.223 52.3536V2.00685C272.223 2.00408 272.225 2.00184 272.228 2.00184H302.217C302.219 2.00184 302.222 2.00408 302.222 2.00685V13.1356C302.222 13.1384 302.219 13.1406 302.217 13.1406H286.032Z" stroke="white" stroke-width="1.5" stroke-linecap="round" stroke-linejoin="round"/>
<path fill-rule="evenodd" clip-rule="evenodd" d="M179.48 79.2256V129.661H192.699V112.701L197.359 109.927L207.629 129.661H222.45L206.69 101.758L222.646 79.2256H208.371L197.668 94.7487L197.663 94.7542C195.524 97.7426 193.417 99.7124 192.726 101.062L192.699 101.081V79.2256H179.48Z" stroke="white" stroke-width="1.5"/>
<path fill-rule="evenodd" clip-rule="evenodd" d="M132.854 79.002V129.639H146.022V110.932H150.161L161.104 129.639H175.97L161.103 107.493L161.468 107.289C167.2 104.089 170.025 99.6021 170.025 93.8065C170.025 88.8423 168.313 85.1721 164.925 82.7261C161.515 80.2635 156.352 79.002 149.374 79.002H132.854ZM146.796 89.5157V100.488H149.021C151.408 100.488 153.126 99.962 154.245 98.9766C155.355 97.9992 155.941 96.5118 155.941 94.4395C155.941 92.7649 155.382 91.5644 154.305 90.7668C153.208 89.9533 151.514 89.5157 149.162 89.5157H146.796Z" stroke="white" stroke-width="1.5"/>
<path fill-rule="evenodd" clip-rule="evenodd" d="M94.2548 93.1975C92.5757 95.6021 91.707 99.2567 91.707 104.221C91.707 109.138 92.57 112.757 94.2367 115.139C95.8864 117.494 98.3569 118.686 101.717 118.686C105.142 118.686 107.619 117.524 109.223 115.243L109.225 115.241C110.871 112.933 111.726 109.283 111.726 104.221C111.726 99.1362 110.859 95.4624 109.19 93.1312L109.188 93.1277C107.556 90.7953 105.111 89.6152 101.787 89.6152C98.4043 89.6152 95.9163 90.8184 94.2548 93.1975Z" stroke="white" stroke-width="1.5"/>
<path fill-rule="evenodd" clip-rule="evenodd" d="M2 80.0059L14.5661 130.441H30.4115C33.3768 117.2 35.0569 109.645 35.4529 107.771L35.4539 107.767C35.8756 105.88 36.2978 103.818 36.7201 101.58C37.1418 99.3199 37.4459 97.4373 37.6326 95.9303L38.4002 95.9296C38.6337 97.7885 38.9967 100.104 39.4895 102.879C40.0066 105.658 40.3803 107.502 40.6118 108.422L40.6128 108.428L45.481 130.441H61.3248L73.8213 80.0059H61.1985L55.5571 105.443V105.444C54.194 111.841 53.364 116.32 53.0609 118.892L52.2933 118.896C52.0365 116.9 51.5215 113.874 50.7461 109.813C49.9718 105.755 49.2093 102.177 48.4592 99.0791L48.4582 99.074L44.121 80.0059H31.8385L27.3606 99.0832C26.6816 101.759 25.9434 105.136 25.1453 109.218C24.3705 113.301 23.8318 116.525 23.5281 118.896L22.7615 118.9C22.2934 115.553 21.4268 111.046 20.1591 105.377L20.1586 105.375L14.6213 80.0059H2Z" stroke="white" stroke-width="1.5"/>
<path d="M82.9296 84.9255C82.4562 85.4347 82.01 85.9689 81.591 86.5281C78.3193 90.8942 76.7031 96.7825 76.7031 104.152C76.7031 112.664 78.8252 119.21 83.1289 123.725C87.4575 128.241 93.6503 130.475 101.645 130.475C109.752 130.475 115.97 128.255 120.231 123.758C124.488 119.266 126.587 112.732 126.587 104.22C126.587 95.6868 124.5 89.1526 120.265 84.6824C116.027 80.2082 109.821 78 101.714 78C93.7338 78 87.5637 80.1745 83.2636 84.5751" stroke="white" stroke-width="1.5" stroke-linecap="round" stroke-linejoin="round"/>
<path fill-rule="evenodd" clip-rule="evenodd" d="M107.277 2.00195L119.843 52.437H135.689C138.654 39.1961 140.334 31.6413 140.73 29.7672L140.731 29.7627C141.153 27.8763 141.575 25.8142 141.997 23.5762C142.419 21.316 142.723 19.4333 142.91 17.9264L143.678 17.9257C143.911 19.7846 144.274 22.1006 144.767 24.8749C145.284 27.6541 145.658 29.498 145.889 30.4183L145.89 30.4237L150.758 52.437H166.602L179.099 2.00195H166.476L160.834 27.439V27.4401C159.471 33.8375 158.641 38.316 158.338 40.8879L157.571 40.892C157.314 38.896 156.799 35.87 156.023 31.8089C155.249 27.7507 154.487 24.173 153.737 21.0752L153.736 21.07L149.398 2.00195H137.116L132.638 21.0793C131.959 23.7548 131.221 27.1324 130.423 31.214C129.648 35.2966 129.109 38.5215 128.805 40.8918L128.039 40.8961C127.571 37.5488 126.704 33.0424 125.436 27.3728L125.436 27.3709L119.899 2.00195H107.277Z" stroke="white" stroke-width="1.5"/>
<path fill-rule="evenodd" clip-rule="evenodd" d="M195.014 2.00195L207.58 52.437H223.425C226.391 39.1961 228.071 31.6413 228.467 29.7672L228.468 29.7627C228.889 27.8763 229.312 25.8142 229.734 23.5762C230.155 21.316 230.46 19.4333 230.646 17.9264L231.414 17.9257C231.647 19.7846 232.01 22.1006 232.503 24.8749C233.02 27.6541 233.394 29.498 233.625 30.4183L233.626 30.4237L238.495 52.437H254.339L266.835 2.00195H254.212L248.571 27.439V27.4401C247.208 33.8375 246.378 38.316 246.075 40.8879L245.307 40.892C245.05 38.896 244.535 35.87 243.76 31.8089C242.985 27.7507 242.223 24.173 241.473 21.0752L241.472 21.07L237.135 2.00195H224.852L220.374 21.0793C219.695 23.7548 218.957 27.1324 218.159 31.214C217.384 35.2966 216.845 38.5215 216.542 40.8918L215.775 40.8961C215.307 37.5488 214.44 33.0424 213.173 27.3728L213.172 27.3709L207.635 2.00195H195.014Z" stroke="white" stroke-width="1.5"/>
<path fill-rule="evenodd" clip-rule="evenodd" d="M72.6864 16.1975C71.0073 18.6021 70.1387 22.2567 70.1387 27.2207C70.1387 32.1379 71.0017 35.7574 72.6684 38.1386C74.3181 40.4944 76.7885 41.6862 80.1482 41.6862C83.5739 41.6862 86.0506 40.5242 87.6549 38.2429L87.6564 38.2409C89.3025 35.9331 90.1578 32.2826 90.1578 27.2207C90.1578 22.1362 89.2907 18.4624 87.6219 16.1312L87.6193 16.1277C85.9876 13.7953 83.543 12.6152 80.2189 12.6152C76.8359 12.6152 74.348 13.8184 72.6864 16.1975Z" stroke="white" stroke-width="1.5"/>
<path d="M61.3612 7.92554C60.8878 8.43472 60.4416 8.96894 60.0226 9.52814C56.7509 13.8942 55.1348 19.7825 55.1348 27.1516C55.1348 35.6644 57.2568 42.2097 61.5606 46.7248C65.8891 51.2413 72.0819 53.4752 80.0764 53.4752C88.1836 53.4752 94.4013 51.2552 98.6626 46.7584C102.92 42.2658 105.019 35.732 105.019 27.2203C105.019 18.6868 102.932 12.1526 98.6969 7.68235C94.4584 3.20824 88.2524 1 80.1457 1C72.1654 1 65.9953 3.17447 61.6953 7.57512" stroke="white" stroke-width="1.5" stroke-linecap="round" stroke-linejoin="round"/>
<path fill-rule="evenodd" clip-rule="evenodd" d="M5 1H19.3581V19.5756H34.3371V1H48.6952V51.8581H34.3371V31.4318H19.3581V51.8581H5V1Z" stroke="white" stroke-width="1.5"/>
</svg>
