<svg width="1201" height="140" viewBox="0 0 1201 140" fill="none" xmlns="http://www.w3.org/2000/svg">
<g clip-path="url(#clip0_1522_4945)">
<path fill-rule="evenodd" clip-rule="evenodd" d="M1035 9V109.597H1061.36V75.7692L1070.66 70.2375L1091.14 109.597H1120.71L1089.27 53.9433L1121.1 9H1092.62L1071.28 39.9624L1071.27 39.9733C1067 45.9339 1062.8 49.863 1061.42 52.5552L1061.36 52.5924V9H1035Z" stroke="white" stroke-width="1.5"/>
<path fill-rule="evenodd" clip-rule="evenodd" d="M938 9V110H964.266V72.6873H972.522L994.348 110H1024L994.347 65.8283L995.075 65.4213C1006.51 59.0384 1012.14 50.089 1012.14 38.5292C1012.14 28.6275 1008.73 21.3069 1001.97 16.4282C995.168 11.5163 984.869 9 970.952 9H938ZM965.81 29.9706V51.8569H970.247C975.009 51.8569 978.435 50.8067 980.667 48.8413C982.881 46.8918 984.05 43.925 984.05 39.7916C984.05 36.4515 982.935 34.057 980.788 32.4662C978.598 30.8435 975.22 29.9706 970.53 29.9706H965.81Z" stroke="white" stroke-width="1.5"/>
<path fill-rule="evenodd" clip-rule="evenodd" d="M860.866 35.3112C857.517 40.1073 855.784 47.3969 855.784 57.2981C855.784 67.1058 857.505 74.3253 860.83 79.0747C864.12 83.7736 869.048 86.1508 875.749 86.1508C882.582 86.1508 887.522 83.8331 890.722 79.2829L890.725 79.2788C894.008 74.6758 895.714 67.3945 895.714 57.2981C895.714 47.1566 893.985 39.8288 890.656 35.1789L890.651 35.172C887.396 30.5198 882.52 28.166 875.89 28.166C869.143 28.166 864.18 30.5658 860.866 35.3112Z" stroke="white" stroke-width="1.5"/>
<path fill-rule="evenodd" clip-rule="evenodd" d="M674.778 11L699.843 111.597H731.448C737.362 85.1874 740.714 70.1185 741.503 66.3804L741.505 66.3715C742.346 62.6088 743.189 58.4958 744.031 54.032C744.872 49.5237 745.479 45.7686 745.851 42.7629L747.382 42.7614C747.848 46.4692 748.572 51.0886 749.555 56.6224C750.586 62.1656 751.332 65.8436 751.793 67.6791L751.795 67.6898L761.505 111.597H793.107L818.033 11H792.855L781.603 61.7367V61.7389C778.884 74.4991 777.229 83.4318 776.624 88.5618L775.093 88.5698C774.581 84.5887 773.554 78.5531 772.007 70.4528C770.463 62.3584 768.942 55.2224 767.446 49.0434L767.444 49.0331L758.793 11H734.294L725.362 49.0515C724.008 54.3881 722.536 61.1252 720.944 69.2663C719.398 77.4094 718.324 83.8417 717.718 88.5695L716.189 88.578C715.255 81.9016 713.527 72.913 710.998 61.6045L710.997 61.6007L699.953 11H674.778Z" stroke="white" stroke-width="1.5"/>
<path fill-rule="evenodd" clip-rule="evenodd" d="M653.769 86.9016C656.345 84.3726 660.013 83.167 664.658 83.167C669.093 83.167 672.611 84.3777 675.098 86.9113C677.59 89.4495 678.792 93.0213 678.792 97.5089C678.792 101.917 677.537 105.462 674.962 108.04C672.437 110.565 668.971 111.78 664.658 111.78C660.218 111.78 656.628 110.568 653.975 108.054C651.302 105.523 650 101.97 650 97.5089C650 93.0169 651.227 89.4435 653.765 86.9064L653.769 86.9016Z" stroke="white" stroke-width="1.5"/>
<path fill-rule="evenodd" clip-rule="evenodd" d="M1139.03 13.88C1145.9 8.597 1155.28 6 1167.1 6C1177.56 6 1188.22 8.42052 1199.05 13.2425L1199.71 13.5351L1190.88 35.7885L1190.17 35.4591C1180.88 31.1993 1172.92 29.1016 1166.28 29.1016C1162.83 29.1016 1160.48 29.7132 1159.08 30.7911C1157.65 31.8967 1156.98 33.2136 1156.98 34.7773C1156.98 36.4384 1157.82 37.9929 1159.69 39.445C1160.66 40.1762 1162.5 41.2435 1165.25 42.6548C1168 44.0601 1171.61 45.7864 1176.09 47.8345C1184.75 51.7274 1190.85 55.9608 1194.29 60.5759C1197.78 65.1526 1199.5 70.9039 1199.5 77.7754C1199.5 84.1071 1197.89 89.7658 1194.66 94.7275V94.7302C1191.43 99.6494 1186.78 103.473 1180.74 106.212V106.214C1174.7 108.909 1167.64 110.244 1159.58 110.244C1152.9 110.244 1147.26 109.787 1142.68 108.862C1138.1 107.89 1133.35 106.228 1128.43 103.882L1128 103.678V77.9146L1129.09 78.4753C1134.19 81.0943 1139.5 83.1487 1145.01 84.6387C1150.52 86.0838 1155.56 86.8008 1160.13 86.8008C1164.08 86.8008 1166.82 86.1222 1168.5 84.8982C1170.19 83.6162 1171 82.0316 1171 80.0996C1171 78.8844 1170.66 77.8641 1169.99 77.0035L1169.98 76.9886L1169.97 76.9732C1169.32 76.0423 1168.21 75.0584 1166.57 74.0374L1166.56 74.0325C1164.98 73.0206 1160.61 70.9031 1153.39 67.6587V67.6574C1146.85 64.6828 1141.88 61.778 1138.52 58.9336V58.9302C1135.2 56.0838 1132.72 52.8053 1131.07 49.0948V49.0875C1129.47 45.373 1128.68 41.0064 1128.68 36.0078C1128.68 26.5932 1132.12 19.1857 1139.03 13.88Z" stroke="white" stroke-width="1.5"/>
<path d="M838.944 18.1147C847.521 9.33719 859.828 5 875.745 5C891.915 5 904.293 9.40455 912.747 18.3286C921.194 27.2448 925.357 40.278 925.357 57.299C925.357 74.2763 921.17 87.3086 912.679 96.2695C904.179 105.239 891.778 109.667 875.607 109.667C859.661 109.667 847.309 105.211 838.675 96.2025C830.091 87.1967 825.858 74.1415 825.858 57.1619C825.858 42.4635 829.082 30.7188 835.608 22.0102C836.443 20.8948 837.333 19.8293 838.278 18.8137L838.944 18.1147ZM838.944 18.1147C838.941 18.1175 838.947 18.1119 838.944 18.1147Z" stroke="white" stroke-width="1.5" stroke-linecap="round" stroke-linejoin="round"/>
<path d="M838.944 18.1151C847.52 9.3373 859.827 5 875.745 5C891.915 5 904.293 9.40455 912.747 18.3286C921.194 27.2448 925.357 40.278 925.357 57.299C925.357 74.2763 921.17 87.3086 912.679 96.2695C904.179 105.239 891.778 109.667 875.607 109.667C859.661 109.667 847.309 105.211 838.675 96.2025C830.091 87.1967 825.858 74.1415 825.858 57.1619C825.858 42.4635 829.082 30.7188 835.608 22.0102C836.446 20.891 837.34 19.8219 838.287 18.8031L838.944 18.1151ZM838.944 18.1151C838.941 18.1177 838.946 18.1124 838.944 18.1151Z" stroke="white" stroke-width="1.5" stroke-linecap="round" stroke-linejoin="round"/>
<path d="M838.278 18.8137C837.333 19.8293 836.443 20.8948 835.608 22.0102C829.082 30.7188 825.858 42.4635 825.858 57.1619C825.858 74.1415 830.091 87.1967 838.675 96.2025C847.309 105.211 859.661 109.667 875.607 109.667C891.778 109.667 904.179 105.239 912.679 96.2695C921.17 87.3086 925.357 74.2763 925.357 57.299C925.357 40.278 921.194 27.2448 912.747 18.3286C904.293 9.40455 891.915 5 875.745 5C859.828 5 847.521 9.33719 838.944 18.1147" stroke="white" stroke-width="1.5" stroke-linecap="round" stroke-linejoin="round"/>
<path d="M630.271 106.181C630.271 107.532 629.943 108.487 629.287 109.046C628.679 109.558 626.5 110.117 622.751 110.723C619.049 111.374 614.362 111.7 608.692 111.7C598.664 111.7 590.673 108.65 584.723 102.549C578.817 96.4481 575.865 87.9257 575.865 76.9815V63.639C575.865 52.6949 578.817 44.1723 584.723 38.0716C590.673 31.9708 598.664 28.9204 608.692 28.9204C614.503 28.9204 619.236 29.2464 622.891 29.8984C626.593 30.5503 628.749 31.1325 629.358 31.6448C629.967 32.1571 630.271 33.0885 630.271 34.4391V43.7998C630.271 45.1969 629.405 45.8955 627.671 45.8955H627.249C621.907 45.2435 615.721 44.9175 608.692 44.9175C599.46 44.9175 594.844 51.1579 594.844 63.639V76.9815C594.844 89.4625 599.46 95.703 608.692 95.703C613.144 95.703 616.682 95.6099 619.306 95.4236L627.249 94.725H627.671C629.405 94.725 630.271 95.4236 630.271 96.8207V106.181Z" fill="white"/>
<path d="M541.526 124.158C541.526 123.367 541.807 122.691 542.37 122.133C542.932 121.574 543.612 121.294 544.409 121.294H558.396C559.193 121.294 559.896 121.574 560.505 122.133C561.114 122.691 561.418 123.367 561.418 124.158V136.733C561.418 137.524 561.114 138.199 560.505 138.758C559.896 139.317 559.193 139.596 558.396 139.596H544.409C543.612 139.596 542.932 139.317 542.37 138.758C541.807 138.199 541.526 137.524 541.526 136.733V124.158ZM541.948 32.8563C541.948 32.0646 542.252 31.3661 542.862 30.7607C543.425 30.1552 544.081 29.8525 544.83 29.8525H558.116C558.865 29.8525 559.545 30.1552 560.154 30.7607C560.716 31.3661 560.997 32.0646 560.997 32.8563V107.672C560.997 108.464 560.716 109.14 560.154 109.699C559.591 110.258 558.912 110.537 558.116 110.537H544.83C544.081 110.537 543.424 110.258 542.862 109.699C542.252 109.14 541.948 108.464 541.948 107.672V32.8563Z" fill="white"/>
<path d="M529.61 39.7482C529.61 41.0521 529.352 41.8672 528.837 42.1932C528.368 42.4726 526.259 43.3341 522.511 44.7779C524.947 48.0843 526.165 51.9032 526.165 56.2343V57.2122C526.165 74.5832 514.778 83.2687 492.004 83.2687C485.724 83.2687 480.498 82.4536 476.328 80.8237C474.688 81.8948 473.868 83.129 473.868 84.526C473.868 86.9012 475.11 88.3915 477.593 88.9968L495.729 93.2582C503.93 95.1676 510.092 96.8674 514.216 98.3576C518.386 99.8014 521.714 101.92 524.197 104.715C526.728 107.509 527.993 111.328 527.993 116.171V117.149C527.993 132.145 516.231 139.642 492.706 139.642C481.225 139.642 472.391 137.57 466.206 133.425C460.067 129.327 456.998 123.483 456.998 115.891V114.564C456.998 108.603 459.458 103.364 464.378 98.8466C460.067 95.4935 457.911 91.1158 457.911 85.7137V85.5739C457.911 80.5908 459.833 76.7255 463.676 73.9778C459.739 70.0193 457.771 64.4307 457.771 57.2122V56.2343C457.771 47.9912 460.7 41.5411 466.558 36.8841C472.415 32.227 480.897 29.8984 492.004 29.8984H525.674C526.751 29.8984 527.665 30.271 528.415 31.0162C529.212 31.7613 529.61 32.6694 529.61 33.7406V39.7482ZM507.397 57.6314V56.5137C507.397 52.1827 506.132 49.0857 503.602 47.2228C501.071 45.3134 497.205 44.3587 492.004 44.3587C481.647 44.3587 476.468 48.4103 476.468 56.5137V57.6314C476.468 65.1759 481.647 68.9481 492.004 68.9481C497.346 68.9481 501.235 68.1099 503.672 66.4333C506.156 64.7102 507.397 61.7762 507.397 57.6314ZM509.014 117.149V116.171C509.014 114.075 507.562 112.446 504.656 111.281C501.751 110.117 493.268 107.882 479.21 104.575C476.82 107.602 475.625 110.932 475.625 114.564V115.891C475.625 119.384 477.007 121.83 479.772 123.227C482.537 124.623 486.849 125.322 492.706 125.322C498.189 125.322 502.266 124.809 504.937 123.786C507.655 122.761 509.014 120.548 509.014 117.149Z" fill="white"/>
<path d="M446.558 76.0734C446.558 86.9243 443.488 95.5866 437.349 102.06C431.258 108.487 422.869 111.7 412.185 111.7C401.453 111.7 393.018 108.487 386.879 102.06C380.788 95.5866 377.742 86.9243 377.742 76.0734V64.5471C377.742 53.6961 380.788 45.0572 386.879 38.6304C393.018 32.1571 401.453 28.9204 412.185 28.9204C422.869 28.9204 431.258 32.1571 437.349 38.6304C443.488 45.0572 446.558 53.6961 446.558 64.5471V76.0734ZM427.579 76.0734V64.5471C427.579 58.4463 426.22 53.6961 423.502 50.2965C420.831 46.8967 417.058 45.1969 412.185 45.1969C407.311 45.1969 403.516 46.8967 400.797 50.2965C398.127 53.6961 396.791 58.4463 396.791 64.5471V76.0734C396.791 82.0811 398.103 86.808 400.727 90.2542C403.399 93.7004 407.218 95.4236 412.185 95.4236C417.058 95.4236 420.831 93.7238 423.502 90.3241C426.22 86.9244 427.579 82.1742 427.579 76.0734Z" fill="white"/>
<path d="M362.171 107.578C362.171 108.37 361.89 109.069 361.328 109.674C360.812 110.28 360.179 110.583 359.43 110.583H346.003C345.254 110.583 344.574 110.28 343.965 109.674C343.403 109.069 343.122 108.37 343.122 107.578V4.54087C343.122 3.79573 343.403 3.14374 343.965 2.5849C344.528 1.97947 345.207 1.67676 346.003 1.67676H359.43C360.179 1.67676 360.812 1.95619 361.328 2.51504C361.89 3.07389 362.171 3.74917 362.171 4.54087V107.578Z" fill="white"/>
<path d="M331.627 42.0533C331.627 42.8451 331.346 43.5204 330.784 44.0792C330.222 44.638 329.542 44.9175 328.745 44.9175C321.997 44.9175 315.366 46.6406 308.852 50.0869V107.578C308.852 108.37 308.571 109.069 308.009 109.674C307.446 110.28 306.767 110.583 305.971 110.583H292.755C292.006 110.583 291.326 110.28 290.717 109.674C290.155 109.069 289.873 108.37 289.873 107.578V32.7624C289.873 31.9708 290.155 31.2955 290.717 30.7366C291.28 30.1778 291.958 29.8984 292.755 29.8984H305.267C306.064 29.8984 306.744 30.1778 307.305 30.7366C307.868 31.2955 308.15 31.9708 308.15 32.7624V35.7663C314.148 31.2024 321.013 28.9204 328.745 28.9204C329.542 28.9204 330.222 29.1998 330.784 29.7587C331.346 30.3175 331.627 30.9928 331.627 31.7845V42.0533Z" fill="white"/>
<path d="M275.005 73.2093C275.005 75.631 274.044 76.8418 272.124 76.8418H225.238V77.261C225.238 82.2906 226.55 86.5752 229.175 90.1145C231.799 93.6539 236.228 95.4236 242.46 95.4236C247.099 95.4236 251.715 95.2606 256.308 94.9346L268.96 93.9566H269.382C271.116 93.9566 271.983 94.6784 271.983 96.1221V105.553C271.983 107.416 271.514 108.534 270.577 108.906C269.639 109.232 266.594 109.791 261.439 110.583C256.331 111.327 249.537 111.7 241.054 111.7C231.073 111.7 222.755 108.627 216.1 102.479C209.492 96.3317 206.189 87.4367 206.189 75.7939V65.2457C206.189 53.9289 209.235 45.0572 215.327 38.6304C221.466 32.1571 229.948 28.9204 240.772 28.9204C251.41 28.9204 259.775 32.2037 265.868 38.7702C271.959 45.3366 275.005 54.1618 275.005 65.2457V73.2093ZM255.886 63.3596V62.8007C255.886 57.3519 254.503 53.0673 251.738 49.9472C248.974 46.7803 245.319 45.1969 240.772 45.1969C236.134 45.1969 232.408 46.7803 229.596 49.9472C226.785 53.0673 225.379 57.3519 225.379 62.8007V63.3596H255.886Z" fill="white"/>
<path d="M199.756 108.137C199.756 108.836 199.521 109.441 199.052 109.954C198.631 110.419 196.991 110.816 194.132 111.142C191.274 111.514 188.977 111.701 187.244 111.701C177.543 111.701 171.287 109.977 168.476 106.531C165.711 103.038 164.329 97.1934 164.329 88.9968V44.0793C155.284 42.7288 150.551 42.0069 150.129 41.9137C149.708 41.8206 149.239 41.5411 148.723 41.0754C148.207 40.5632 147.95 39.9345 147.95 39.1893V32.7625C147.95 31.9708 148.231 31.2956 148.793 30.7367C149.356 30.1778 150.036 29.8984 150.832 29.8984H164.329V18.1625C164.329 17.3709 164.609 16.7422 165.172 16.2764C165.734 15.7641 167.398 15.2752 170.162 14.8095C172.927 14.3438 176.418 13.7383 180.636 12.9932H181.199C182.745 12.9932 183.518 13.715 183.518 15.1588V29.8984H196.452C197.249 29.8984 197.928 30.1778 198.49 30.7367C199.053 31.2956 199.334 31.9708 199.334 32.7625V41.2151C199.334 42.0069 199.053 42.6822 198.49 43.241C197.928 43.7998 197.249 44.0793 196.452 44.0793H183.518V88.9968C183.518 92.1637 183.705 94.2827 184.081 95.3537C184.502 96.4249 186.189 96.9605 189.141 96.9605H196.733C198.748 96.9605 199.756 97.6823 199.756 99.1261V108.137Z" fill="white"/>
<path d="M143.555 11.8756C143.555 13.5055 142.829 14.3206 141.376 14.3206H134.909C131.395 14.3206 129.098 14.8793 128.021 15.9971C126.943 17.0682 126.404 19.3734 126.404 22.9129V29.8985H140.252C141.048 29.8985 141.728 30.1779 142.29 30.7367C142.853 31.2956 143.133 31.9709 143.133 32.7626V41.355C143.133 42.1 142.853 42.752 142.29 43.3109C141.728 43.8232 141.048 44.0794 140.252 44.0794H126.404V107.578C126.404 108.37 126.123 109.069 125.56 109.674C124.999 110.28 124.319 110.583 123.522 110.583H110.448C109.651 110.583 108.948 110.28 108.339 109.674C107.73 109.069 107.425 108.37 107.425 107.578V44.0794C98.8495 42.7288 94.3274 42.0069 93.8587 41.9137C93.437 41.8207 92.9684 41.5645 92.4529 41.1454C91.9842 40.6796 91.75 40.0742 91.75 39.3291V32.7626C91.75 31.9709 92.0311 31.2956 92.5935 30.7367C93.1559 30.1779 93.8353 29.8985 94.6319 29.8985H107.425V22.9129C107.425 15.0424 109.3 9.2676 113.048 5.5885C116.797 1.86284 123.218 0 132.309 0C133.668 0 135.87 0.232855 138.916 0.698563C142.01 1.16427 143.555 2.0724 143.555 3.42296V11.8756Z" fill="white"/>
<path d="M27.8877 80.9635L23.5999 98.4276C22.0066 105.041 21.1397 108.534 20.9991 108.906C20.9053 109.232 20.6007 109.605 20.0853 110.024C19.6167 110.397 19.1012 110.583 18.5388 110.583H3.28539C1.55151 110.583 0.68457 109.767 0.68457 108.137C0.68457 108.044 0.731432 107.811 0.825154 107.439L24.4434 17.7435C26.9739 8.01021 33.6518 3.14355 44.4767 3.14355C55.2549 3.14355 61.9092 8.01021 64.4398 17.7435L88.1986 108.137C88.1986 109.767 87.3317 110.583 85.5978 110.583H70.3444C68.8917 110.583 67.9778 109.791 67.6029 108.208L60.9955 80.9635H27.8877ZM57.1294 64.687L49.7487 34.4392C47.5461 25.4976 46.3043 20.8405 46.0232 20.4679C45.742 20.0953 45.2266 19.909 44.4767 19.909C43.3521 19.909 42.6725 20.3049 42.4383 21.0966L31.7539 64.687H57.1294Z" fill="white"/>
</g>
<defs>
<clipPath id="clip0_1522_4945">
<rect width="1201" height="140" fill="white"/>
</clipPath>
</defs>
</svg>
