<svg width="266" height="132" viewBox="0 0 266 132" fill="none" xmlns="http://www.w3.org/2000/svg">
<path fill-rule="evenodd" clip-rule="evenodd" d="M101.768 79.1533H115.979V118.113H135.169V129.734H101.768V79.1533Z" stroke="white" stroke-width="1.5"/>
<path fill-rule="evenodd" clip-rule="evenodd" d="M59.0254 1.49902H73.3053V31.1184C73.3053 34.6094 73.9614 37.0586 75.1962 38.549C76.4262 40.0335 78.2509 40.7996 80.7369 40.7996C82.5329 40.7996 83.9603 40.4668 85.044 39.8302C86.1154 39.1783 86.9065 38.1533 87.4054 36.7217L87.4071 36.7169C87.9322 35.2728 88.2026 33.3888 88.2026 31.0502V1.49902H102.414V31.8682C102.414 36.097 101.61 39.7937 99.9869 42.9468L99.9864 42.9478C98.3591 46.086 95.9168 48.5145 92.6711 50.2301L92.6693 50.2311C89.4197 51.9255 85.3679 52.7617 80.5324 52.7617C73.6082 52.7617 68.2629 50.984 64.5579 47.3723C60.8541 43.7617 59.0254 38.6775 59.0254 32.175V1.49902Z" stroke="white" stroke-width="1.5"/>
<path fill-rule="evenodd" clip-rule="evenodd" d="M233.239 82.8069C236.584 80.2546 241.153 79 246.903 79C251.996 79 257.181 80.1694 262.456 82.4989L262.777 82.6403L258.48 93.391L258.13 93.2318C253.608 91.1739 249.737 90.1605 246.504 90.1605C244.823 90.1605 243.681 90.4559 243.001 90.9767C242.303 91.5108 241.978 92.147 241.978 92.9025C241.978 93.7049 242.385 94.4559 243.299 95.1574C243.77 95.5107 244.665 96.0263 246.005 96.7081C247.34 97.387 249.098 98.221 251.28 99.2105C255.492 101.091 258.464 103.136 260.137 105.366C261.836 107.577 262.673 110.355 262.673 113.675C262.673 116.734 261.89 119.468 260.318 121.865L260.317 121.866C258.744 124.243 256.48 126.09 253.542 127.413L253.54 127.414C250.6 128.716 247.165 129.361 243.243 129.361C239.991 129.361 237.247 129.14 235.02 128.693L235.016 128.692C232.788 128.223 230.476 127.42 228.081 126.287L227.873 126.189V113.742L228.405 114.013C230.888 115.278 233.47 116.271 236.151 116.991C238.833 117.689 241.285 118.035 243.51 118.035C245.433 118.035 246.768 117.707 247.584 117.116C248.408 116.497 248.801 115.731 248.801 114.798C248.801 114.211 248.635 113.718 248.311 113.302L248.306 113.295L248.301 113.288C247.985 112.838 247.444 112.362 246.644 111.869L246.64 111.867C245.869 111.378 243.747 110.355 240.233 108.788L240.231 108.787C237.046 107.35 234.627 105.947 232.993 104.572L232.991 104.571C231.378 103.196 230.168 101.612 229.368 99.8193L229.367 99.8158C228.589 98.0213 228.206 95.9118 228.206 93.4969C228.206 88.9487 229.88 85.3701 233.239 82.8069Z" stroke="white" stroke-width="1.5"/>
<path fill-rule="evenodd" clip-rule="evenodd" d="M65.1871 120.13H80.4942C80.4964 120.13 80.4984 120.132 80.499 120.134L82.9039 129.283C82.9045 129.285 82.9065 129.286 82.9087 129.286H98.1286C98.132 129.286 98.1344 129.283 98.1333 129.28L81.7494 79.5015C81.7487 79.4994 81.7468 79.498 81.7447 79.498H63.6033C63.6012 79.498 63.5992 79.4994 63.5986 79.5015L47.4182 129.28C47.4172 129.283 47.4196 129.286 47.423 129.286H62.7058C62.708 129.286 62.71 129.285 62.7106 129.283L65.1823 120.134C65.1829 120.132 65.1849 120.13 65.1871 120.13ZM72.7659 89.7853C72.6167 90.4996 72.4437 91.2852 72.2468 92.142C71.8898 93.7703 71.5104 95.3875 71.1088 96.9936C70.7296 98.5987 70.3945 99.9387 70.1036 101.013L68.1207 108.564C68.1198 108.567 68.1222 108.57 68.1255 108.57H77.5578C77.5611 108.57 77.5635 108.567 77.5626 108.564L75.579 101.01C75.3565 100.142 75.0331 98.9049 74.6097 97.3012C74.1859 95.6734 73.7618 93.9999 73.338 92.2831C73.1263 91.3661 72.938 90.53 72.7756 89.7852C72.7745 89.78 72.767 89.78 72.7659 89.7853Z" stroke="white" stroke-width="1.5" stroke-linecap="round" stroke-linejoin="round"/>
<path fill-rule="evenodd" clip-rule="evenodd" d="M126.711 11.6844C129.163 11.6844 130.972 12.1396 132.105 13.0794C133.237 14.0181 133.798 15.3204 133.798 16.968C133.798 19.3307 133.129 21.0093 131.753 21.9543C130.4 22.8829 128.67 23.3416 126.574 23.3416H123.906C123.903 23.3416 123.901 23.3394 123.901 23.3366V11.6894C123.901 11.6866 123.903 11.6844 123.906 11.6844H126.711Z" stroke="white" stroke-width="1.5" stroke-linecap="round" stroke-linejoin="round"/>
<path fill-rule="evenodd" clip-rule="evenodd" d="M137.995 51.5814H153.658C153.662 51.5814 153.664 51.5769 153.662 51.5736L139.03 29.7956C139.089 29.8836 139.032 29.7885 139.032 29.7885L139.244 29.666C140.862 28.7289 142.263 27.6513 143.444 26.4329C144.734 25.1033 145.725 23.6009 146.416 21.9264C147.108 20.2497 147.453 18.3919 147.453 16.3548C147.453 13.0856 146.683 10.3413 145.135 8.13307C143.61 5.92513 141.324 4.27425 138.291 3.17649C135.259 2.05637 131.466 1.49902 126.916 1.49902H110.388C110.385 1.49902 110.383 1.50126 110.383 1.50401V51.5764C110.383 51.5791 110.385 51.5814 110.388 51.5814H124.177C124.179 51.5814 124.182 51.5791 124.182 51.5764V33.4639C124.182 33.4611 124.184 33.4589 124.187 33.4589H127.38C127.382 33.4589 127.383 33.4598 127.384 33.4613L137.99 51.5789C137.991 51.5804 137.993 51.5814 137.995 51.5814ZM126.711 11.6844C129.163 11.6844 130.972 12.1396 132.105 13.0794C133.237 14.0181 133.798 15.3204 133.798 16.968C133.798 19.3307 133.129 21.0093 131.753 21.9543C130.4 22.8829 128.67 23.3416 126.574 23.3416H123.906C123.903 23.3416 123.901 23.3394 123.901 23.3366V11.6894C123.901 11.6866 123.903 11.6844 123.906 11.6844H126.711Z" stroke="white" stroke-width="1.5" stroke-linecap="round" stroke-linejoin="round"/>
<path fill-rule="evenodd" clip-rule="evenodd" d="M1.0052 79C1.00167 79 0.999165 79.0034 1.00026 79.0068L17.338 128.859C17.3387 128.861 17.3407 128.862 17.343 128.862H32.9549C32.9571 128.862 32.9591 128.861 32.9598 128.859L49.3661 79.0068C49.3672 79.0034 49.3647 79 49.3612 79H34.8175C34.8152 79 34.8131 79.0016 34.8125 79.0038L27.8298 104.516C27.5548 105.474 27.2541 106.704 26.9305 108.2C26.6302 109.672 26.3529 111.145 26.0987 112.617C25.8449 114.087 25.6728 115.288 25.5812 116.221C25.5809 116.223 25.5786 116.225 25.5759 116.225L24.8251 116.216C24.8224 116.216 24.8202 116.214 24.82 116.211C24.7518 115.288 24.5697 114.083 24.2703 112.593C23.993 111.098 23.6801 109.597 23.3336 108.102C23.0096 106.582 22.7196 105.335 22.4667 104.374L15.623 79.0038C15.6224 79.0016 15.6203 79 15.618 79H1.0052Z" stroke="white" stroke-width="1.5" stroke-linecap="round" stroke-linejoin="round"/>
<path fill-rule="evenodd" clip-rule="evenodd" d="M206.703 90.078C206.7 90.078 206.698 90.0802 206.698 90.083V97.6284C206.698 97.6311 206.7 97.6334 206.703 97.6334H221.608C221.61 97.6334 221.613 97.6356 221.613 97.6383V108.706C221.613 108.709 221.61 108.711 221.608 108.711H206.703C206.7 108.711 206.698 108.714 206.698 108.716V117.829C206.698 117.832 206.7 117.834 206.703 117.834H222.799C222.802 117.834 222.804 117.836 222.804 117.839V129.077C222.804 129.08 222.802 129.082 222.799 129.082H192.974C192.971 129.082 192.969 129.08 192.969 129.077V79.0049C192.969 79.0021 192.971 78.9999 192.974 78.9999H222.799C222.802 78.9999 222.804 79.0021 222.804 79.0049V90.073C222.804 90.0758 222.802 90.078 222.799 90.078H206.703Z" stroke="white" stroke-width="1.5" stroke-linecap="round" stroke-linejoin="round"/>
<path fill-rule="evenodd" clip-rule="evenodd" d="M141.229 79.503C141.229 79.5003 141.231 79.498 141.234 79.498H155.175C155.178 79.498 155.18 79.5003 155.18 79.503V108.541C155.18 111.964 155.821 114.366 157.028 115.827C158.229 117.283 160.012 118.034 162.441 118.034C164.196 118.034 165.591 117.708 166.65 117.083C167.696 116.444 168.469 115.439 168.956 114.035C169.469 112.619 169.735 110.767 169.735 108.474V79.503C169.735 79.5003 169.737 79.498 169.74 79.498H183.615C183.618 79.498 183.62 79.5003 183.62 79.503V109.276C183.62 113.423 182.834 117.048 181.249 120.139C179.659 123.217 177.272 125.599 174.101 127.281C170.926 128.943 166.966 129.763 162.241 129.763C155.476 129.763 150.254 128.02 146.634 124.479C143.015 120.939 141.229 115.953 141.229 109.577V79.503Z" stroke="white" stroke-width="1.5" stroke-linecap="round" stroke-linejoin="round"/>
<path fill-rule="evenodd" clip-rule="evenodd" d="M10.1117 8.27686L10.4374 7.93518C14.5325 3.74633 20.4488 1.625 28.2477 1.625C36.1759 1.625 42.1222 3.78158 46.1533 8.03674L46.6978 7.52094L46.1534 8.03675C50.1878 12.2952 52.2351 18.5789 52.2351 26.9524C52.2351 35.3022 50.1767 41.5864 46.1192 45.8681C42.0648 50.1466 36.1061 52.3142 28.1788 52.3142C20.3694 52.3142 14.4307 50.136 10.3056 45.832C6.20299 41.5271 4.12305 35.232 4.12305 26.8841C4.12305 19.6587 5.70796 13.9788 8.83444 9.8064C9.23447 9.27255 9.66019 8.76271 10.1117 8.27686ZM28.2477 0.125C20.175 0.125 13.8194 2.32781 9.36135 6.89012L9.36131 6.89008L9.3549 6.89681L9.02269 7.24533L9.02265 7.24529L9.01631 7.25211C8.52731 7.77803 8.06658 8.32971 7.63405 8.90692C4.25288 13.4192 2.62305 19.4516 2.62305 26.8841C2.62305 35.4683 4.76369 42.1919 9.22095 46.8681L9.22235 46.8695C13.7072 51.5492 20.0865 53.8142 28.1788 53.8142C36.3775 53.8142 42.7863 51.5659 47.208 46.8999C51.6187 42.2454 53.7351 35.5332 53.7351 26.9524C53.7351 18.3519 51.6317 11.6383 47.2423 7.00513C42.8425 2.36084 36.4445 0.125 28.2477 0.125ZM28.057 11.3438C24.403 11.3438 21.9811 13.0316 20.2158 15.5592L20.2158 15.5592C18.4178 18.134 17.5469 21.9506 17.5469 26.9517C17.5469 31.9008 18.4245 35.8977 20.2126 38.4522L20.2126 38.4523C22.0358 41.0559 24.7498 42.0883 28.2519 42.0883C31.8432 42.0883 34.5588 40.8583 36.3239 38.3555L36.3241 38.3553L36.3298 38.3473C38.1024 35.8622 38.9569 32.0414 38.9569 26.9517C38.9569 21.8381 38.0901 17.9943 36.2947 15.4861L36.2895 15.4788L36.2892 15.4784C34.5231 12.9611 31.5989 11.3438 28.057 11.3438ZM21.4456 16.418C22.9854 14.2133 24.9821 12.8438 28.057 12.8438C31.1221 12.8438 33.5875 14.2331 35.0677 16.3491L35.0751 16.3598L35.08 16.3663C36.6008 18.4958 37.4569 21.9573 37.4569 26.9517C37.4569 31.9246 36.6123 35.3626 35.1141 37.4685L35.1112 37.4724L35.1042 37.4824C33.6779 39.5104 31.4698 40.5883 28.2519 40.5883C25.0711 40.5883 22.8996 39.6743 21.4413 37.5919C19.9142 35.4101 19.0469 31.7833 19.0469 26.9517C19.0469 22.079 19.9037 18.6261 21.4456 16.418Z" fill="white"/>
</svg>
