<svg viewBox="0 0 858 107" fill="none" xmlns="http://www.w3.org/2000/svg">
  <path fill-rule="evenodd" clip-rule="evenodd"
    d="M533.45 2.30859H561.952V80.4434H600.438V103.75H533.45V2.30859Z" stroke="white"
    stroke-width="1.5" />
  <path fill-rule="evenodd" clip-rule="evenodd"
    d="M112.359 2H140.998V61.4023C140.998 68.4038 142.314 73.3157 144.79 76.3047C147.257 79.2819 150.917 80.8184 155.902 80.8184C159.504 80.8184 162.367 80.151 164.54 78.8742C166.689 77.5667 168.276 75.511 169.276 72.6399L169.28 72.6304C170.333 69.7342 170.875 65.9558 170.875 61.2656V2H199.377V62.9062C199.377 71.387 197.763 78.8009 194.509 85.1245L194.508 85.1265C191.244 91.4202 186.346 96.2908 179.837 99.7314L179.833 99.7334C173.316 103.132 165.19 104.809 155.492 104.809C141.606 104.809 130.885 101.243 123.455 93.9999C116.027 86.7588 112.359 76.5624 112.359 63.5215V2Z"
    stroke="white" stroke-width="1.5" />
  <path fill-rule="evenodd" clip-rule="evenodd"
    d="M797.121 9.63476C803.83 4.51618 812.992 2 824.525 2C834.739 2 845.138 4.34519 855.717 9.0171L856.359 9.30064L847.742 30.8614L847.041 30.5423C837.972 26.415 830.207 24.3826 823.724 24.3826C820.353 24.3826 818.062 24.9752 816.698 26.0196C815.299 27.0908 814.648 28.3667 814.648 29.8818C814.648 31.4911 815.463 32.9972 817.296 34.4042C818.242 35.1127 820.035 36.1467 822.724 37.5141C825.401 38.8757 828.926 40.5482 833.302 42.5326C841.75 46.3043 847.709 50.406 851.067 54.8775C854.473 59.3117 856.152 64.8841 856.152 71.5417C856.152 77.6764 854.582 83.159 851.429 87.9663L851.427 87.9689C848.272 92.735 843.731 96.4396 837.839 99.0936L837.835 99.0955C831.939 101.706 825.05 103 817.185 103C810.661 103 805.16 102.557 800.692 101.661L800.685 101.66C796.216 100.719 791.58 99.1084 786.776 96.836L786.359 96.6386V71.6766L787.426 72.2199C792.406 74.7574 797.585 76.7477 802.961 78.1914C808.34 79.5916 813.258 80.2862 817.719 80.2862C821.576 80.2862 824.254 79.6288 825.89 78.4429C827.543 77.2007 828.33 75.6655 828.33 73.7936C828.33 72.6162 827.998 71.6277 827.349 70.7938L827.338 70.7794L827.327 70.7645C826.695 69.8625 825.608 68.9093 824.005 67.92L823.997 67.9153C822.452 66.9349 818.194 64.8832 811.147 61.7399L811.144 61.7386C804.756 58.8566 799.904 56.0422 796.627 53.2862L796.623 53.283C793.389 50.5251 790.963 47.3487 789.358 43.7537L789.355 43.7466C787.794 40.1476 787.027 35.917 787.027 31.074C787.027 21.9523 790.384 14.7754 797.121 9.63476Z"
    stroke="white" stroke-width="1.5" />
  <path fill-rule="evenodd" clip-rule="evenodd"
    d="M460.089 84.4889H490.787C490.792 84.4889 490.796 84.492 490.797 84.4963L495.62 102.844C495.621 102.848 495.625 102.852 495.63 102.852H526.154C526.16 102.852 526.165 102.845 526.163 102.838L493.305 3.00687C493.303 3.00277 493.3 3 493.295 3H456.912C456.908 3 456.904 3.00279 456.903 3.00691L424.453 102.838C424.451 102.845 424.455 102.852 424.462 102.852H455.112C455.117 102.852 455.121 102.849 455.122 102.844L460.079 84.4963C460.08 84.4919 460.084 84.4889 460.089 84.4889ZM475.288 23.6313C474.989 25.0639 474.642 26.6395 474.247 28.3578C473.531 31.6234 472.77 34.8667 471.965 38.0878C471.204 41.3069 470.532 43.9943 469.949 46.1482L465.972 61.2923C465.97 61.2986 465.975 61.3048 465.982 61.3048H484.898C484.905 61.3048 484.91 61.2986 484.908 61.2923L480.93 46.1427C480.484 44.4028 479.835 41.921 478.986 38.7047C478.136 35.4401 477.285 32.0838 476.435 28.6407C476.011 26.8017 475.633 25.1248 475.308 23.6312C475.305 23.6207 475.29 23.6208 475.288 23.6313Z"
    stroke="white" stroke-width="1.5" stroke-linecap="round" stroke-linejoin="round" />
  <path fill-rule="evenodd" clip-rule="evenodd"
    d="M248.105 22.4271C253.024 22.4271 256.652 23.34 258.924 25.2248C261.194 27.1074 262.32 29.7191 262.32 33.0234C262.32 37.7618 260.978 41.1283 258.217 43.0236C255.504 44.8859 252.035 45.8059 247.831 45.8059H242.48C242.475 45.8059 242.47 45.8014 242.47 45.7959V22.4371C242.47 22.4315 242.475 22.4271 242.48 22.4271H248.105Z"
    stroke="white" stroke-width="1.5" stroke-linecap="round" stroke-linejoin="round" />
  <path fill-rule="evenodd" clip-rule="evenodd"
    d="M270.736 102.441H302.149C302.157 102.441 302.161 102.432 302.157 102.426L272.813 58.7496C272.931 58.926 272.816 58.7353 272.816 58.7353L273.241 58.4895C276.487 56.6102 279.296 54.4491 281.664 52.0055C284.251 49.339 286.238 46.326 287.625 42.9677C289.013 39.605 289.705 35.8791 289.705 31.7937C289.705 25.2372 288.16 19.7333 285.056 15.3047C281.996 10.8767 277.412 7.5658 271.331 5.36421C265.25 3.11778 257.642 2 248.517 2H215.369C215.364 2 215.359 2.00448 215.359 2.01V102.431C215.359 102.437 215.364 102.441 215.369 102.441H243.023C243.029 102.441 243.033 102.437 243.033 102.431V66.1063C243.033 66.1008 243.038 66.0963 243.043 66.0963H249.448C249.451 66.0963 249.454 66.0982 249.456 66.1012L270.727 102.436C270.729 102.44 270.732 102.441 270.736 102.441ZM248.105 22.4271C253.024 22.4271 256.652 23.34 258.924 25.2248C261.194 27.1074 262.32 29.7191 262.32 33.0234C262.32 37.7618 260.978 41.1283 258.217 43.0236C255.504 44.8859 252.035 45.8059 247.831 45.8059H242.48C242.475 45.8059 242.47 45.8014 242.47 45.7959V22.4371C242.47 22.4315 242.475 22.4271 242.48 22.4271H248.105Z"
    stroke="white" stroke-width="1.5" stroke-linecap="round" stroke-linejoin="round" />
  <path fill-rule="evenodd" clip-rule="evenodd"
    d="M331.37 2C331.363 2 331.358 2.00687 331.36 2.01357L364.126 101.993C364.127 101.997 364.131 102 364.136 102H395.446C395.45 102 395.454 101.997 395.456 101.993L428.359 2.01359C428.361 2.00689 428.356 2 428.349 2H399.181C399.177 2 399.172 2.00313 399.171 2.00764L385.167 53.1725C384.616 55.0944 384.013 57.5618 383.364 60.5614C382.761 63.5143 382.205 66.4672 381.695 69.42C381.186 72.3688 380.841 74.776 380.658 76.6469C380.657 76.6523 380.652 76.6563 380.647 76.6562L379.141 76.6381C379.136 76.638 379.131 76.6339 379.131 76.6285C378.994 74.7763 378.629 72.3603 378.028 69.371C377.472 66.373 376.845 63.3637 376.15 60.3654C375.5 57.3161 374.919 54.8158 374.411 52.8874L360.686 2.00768C360.685 2.00315 360.681 2 360.676 2H331.37Z"
    stroke="white" stroke-width="1.5" stroke-linecap="round" stroke-linejoin="round" />
  <path fill-rule="evenodd" clip-rule="evenodd"
    d="M743.904 24.2172C743.899 24.2172 743.894 24.2217 743.894 24.2272V39.3597C743.894 39.3652 743.899 39.3697 743.904 39.3697H773.795C773.801 39.3697 773.805 39.3741 773.805 39.3797V61.5771C773.805 61.5826 773.801 61.5871 773.795 61.5871H743.904C743.899 61.5871 743.894 61.5916 743.894 61.5971V79.8722C743.894 79.8777 743.899 79.8822 743.904 79.8822H776.185C776.191 79.8822 776.195 79.8867 776.195 79.8922V102.431C776.195 102.437 776.191 102.441 776.185 102.441H716.369C716.364 102.441 716.359 102.437 716.359 102.431V2.00977C716.359 2.00425 716.364 1.99977 716.369 1.99977H776.185C776.191 1.99977 776.195 2.00425 776.195 2.00977V24.2072C776.195 24.2127 776.191 24.2172 776.185 24.2172H743.904Z"
    stroke="white" stroke-width="1.5" stroke-linecap="round" stroke-linejoin="round" />
  <path fill-rule="evenodd" clip-rule="evenodd"
    d="M612.588 3.01C612.588 3.00448 612.592 3 612.598 3H640.558C640.564 3 640.568 3.00448 640.568 3.01V61.2468C640.568 68.112 641.854 72.9284 644.274 75.8592C646.684 78.7785 650.259 80.2851 655.13 80.2851C658.65 80.2851 661.448 79.6303 663.571 78.3777C665.67 77.0956 667.219 75.0803 668.196 72.2657C669.225 69.4258 669.759 65.7116 669.759 61.1127V3.01C669.759 3.00448 669.763 3 669.769 3H697.595C697.601 3 697.605 3.00448 697.605 3.01V62.7214C697.605 71.0372 696.029 78.3069 692.849 84.5074C689.661 90.6787 684.874 95.4565 678.514 98.8302C672.147 102.162 664.204 103.809 654.729 103.809C641.162 103.809 630.688 100.313 623.428 93.2102C616.171 86.1099 612.588 76.1119 612.588 63.3247V3.01Z"
    stroke="white" stroke-width="1.5" stroke-linecap="round" stroke-linejoin="round" />
  <path fill-rule="evenodd" clip-rule="evenodd"
    d="M13.7154 15.0777L14.3751 14.3856C22.7705 5.79592 34.8571 1.5 50.6367 1.5C66.6719 1.5 78.8246 5.86493 87.0945 14.5944L87.6389 14.0786L87.0945 14.5944C95.3641 23.3233 99.4982 36.1415 99.4982 53.049C99.4982 69.9108 95.3409 82.7291 87.026 91.5036C78.71 100.279 66.5335 104.667 50.4986 104.667C34.6947 104.667 22.5631 100.255 14.1094 91.4346C5.70234 82.6145 1.5 69.7736 1.5 52.9119C1.5 38.317 4.70117 26.7486 11.0994 18.2099C11.9185 17.1169 12.7904 16.0728 13.7154 15.0777ZM50.6367 0C34.5833 0 22.0574 4.37738 13.2991 13.3405L13.2991 13.3405L13.2926 13.3472L12.6264 14.0462L12.6263 14.0461L12.62 14.053C11.6576 15.0881 10.7506 16.174 9.89907 17.3104C3.24609 26.189 0 38.11 0 52.9119C0 70.0093 4.26279 83.2785 13.024 92.4699L13.0254 92.4714C21.8389 101.668 34.4114 106.167 50.4986 106.167C66.8048 106.167 79.4316 101.698 88.1148 92.5353C96.7829 83.3881 100.998 70.1418 100.998 53.049C100.998 35.9145 96.8081 22.6664 88.1834 13.5628C79.5448 4.44418 66.9406 0 50.6367 0ZM50.25 22.5C43.2129 22.5 38.5694 25.725 35.1426 30.6318L35.1426 30.6318C31.6654 35.6113 29.9258 43.0827 29.9258 53.0481C29.9258 62.9145 31.6807 70.7444 35.1356 75.6801L35.1357 75.6802C38.6086 80.6397 43.7788 82.6508 50.6408 82.6508C57.6578 82.6508 62.8503 80.2587 66.2199 75.4745L66.2216 75.4723L66.2272 75.4643C69.646 70.6713 71.3558 63.1999 71.3558 53.0481C71.3558 42.8497 69.6219 35.3319 66.1576 30.4923L66.1524 30.4851L66.1496 30.4814C62.7518 25.6315 57.1162 22.5 50.25 22.5ZM31.4258 53.0481C31.4258 43.2112 33.1513 36.1034 36.3724 31.4907C39.5738 26.9067 43.792 24 50.25 24C56.6394 24 61.8161 26.9034 64.928 31.352L64.9355 31.3626L64.943 31.3726C68.1325 35.8334 69.8558 42.9688 69.8558 53.0481C69.8558 63.0833 68.1558 70.1718 65.0116 74.5855L65.0071 74.5914L65.0001 74.6014C61.9694 78.9108 57.2845 81.1508 50.6408 81.1508C44.1002 81.1508 39.4724 79.2581 36.3644 74.8199C33.1705 70.2569 31.4258 62.7972 31.4258 53.0481Z"
    fill="white" />
</svg>