<svg width="108" height="623" viewBox="0 0 108 623" fill="none" xmlns="http://www.w3.org/2000/svg">
<path fill-rule="evenodd" clip-rule="evenodd" d="M7.45798 210.917C3.14353 203.448 1 194.701 1 184.702C1 173.788 3.37244 163.356 8.11404 153.412L8.41384 152.784L31.0706 161.599L30.7298 162.325C29.0109 165.989 27.5645 169.651 26.3899 173.31C25.2309 176.921 24.6484 180.808 24.6484 184.975C24.6484 191.154 27.1701 195.935 32.2503 199.395L32.2528 199.396C37.3237 202.88 44.401 204.665 53.5664 204.665C63.1085 204.665 70.1278 202.847 74.7481 199.332C79.3296 195.847 81.6641 190.607 81.6641 183.471C81.6641 179.122 81.0588 174.91 79.8493 170.833C78.6266 166.712 77.1542 162.566 75.4318 158.396L75.0038 157.36H99.4453L99.6429 157.807C103.383 166.256 105.244 175.795 105.244 186.411C105.244 201.645 100.821 213.445 91.8775 221.689L91.8759 221.69C82.9413 229.88 70.0862 233.919 53.4297 233.919C42.9904 233.919 33.7812 231.964 25.822 228.031L25.8189 228.029C17.8548 224.047 11.7273 218.341 7.45798 210.917Z" stroke="white" stroke-width="1.5"/>
<path fill-rule="evenodd" clip-rule="evenodd" d="M2.43555 276.236L2.43555 247.597H103.877V276.236H2.43555Z" stroke="white" stroke-width="1.5"/>
<path fill-rule="evenodd" clip-rule="evenodd" d="M2.43555 462.589L2.43555 429.095C2.43555 415.446 4.90484 405.074 9.9611 398.098C15.0498 391.078 22.6802 387.603 32.7168 387.603C44.3559 387.603 53.4083 393.197 59.8341 404.235L103.877 374.781L103.877 407.241L67.5098 428.432V434.087H103.877V462.589H2.43555ZM22.875 435.587V429.505C22.875 424.808 23.7446 421.149 25.6038 418.65C27.494 416.109 30.3212 414.878 33.9473 414.878C38.2584 414.878 41.6217 416.102 43.8915 418.669C46.1457 421.219 47.207 424.967 47.207 429.779V435.587H22.875Z" stroke="white" stroke-width="1.5" stroke-linecap="round"/>
<path fill-rule="evenodd" clip-rule="evenodd" d="M2.43555 536.625L2.43555 475.789H25.6055L25.6055 508.123H39.8281L39.8281 478.182H62.998L62.998 508.123H80.3652V475.789H103.877V536.625H2.43555Z" stroke="white" stroke-width="1.5"/>
<path fill-rule="evenodd" clip-rule="evenodd" d="M2.43555 536.836L2.43555 476H25.6055L25.6055 508.334H39.8281L39.8281 478.393H62.998L62.998 508.334H80.3652V476H103.877V536.836H2.43555Z" stroke="white" stroke-width="1.5"/>
<path fill-rule="evenodd" clip-rule="evenodd" d="M2.43555 143.836L2.43555 83H25.6055L25.6055 115.334H39.8281L39.8281 85.3925H62.998L62.998 115.334H80.3652V83H103.877V143.836H2.43555Z" stroke="white" stroke-width="1.5"/>
<path fill-rule="evenodd" clip-rule="evenodd" d="M10.0069 61.6872C4.72395 54.8146 2.12695 45.4277 2.12695 33.6129C2.12695 23.1492 4.54747 12.4956 9.36945 1.65762L9.66209 0.999878L31.9154 9.82825L31.586 10.5466C27.3262 19.8367 25.2285 27.7917 25.2285 34.4332C25.2285 37.8867 25.8401 40.234 26.9181 41.6313C28.0236 43.0645 29.3405 43.732 30.9043 43.732C32.5653 43.732 34.1198 42.8968 35.5719 41.0189C36.3032 40.0502 37.3704 38.2127 38.7817 35.4584C40.1871 32.7157 41.9134 29.1045 43.9615 24.6215C47.8543 15.9661 52.0878 9.86136 56.7029 6.42214C61.2796 2.93201 67.0309 1.21249 73.9023 1.21249C80.2341 1.21249 85.8928 2.82093 90.8545 6.05073L90.8572 6.05251C95.7764 9.28512 99.6 13.9373 102.339 19.9728L102.341 19.9772C105.036 26.0173 106.371 33.0754 106.371 41.1324C106.371 47.816 105.914 53.4521 104.989 58.029L104.988 58.0361C104.016 62.6144 102.354 67.3644 100.009 72.2852L99.8054 72.7125H74.0415L74.6023 71.62C77.2213 66.5175 79.2756 61.2125 80.7657 55.7044C82.2108 50.1939 82.9277 45.1558 82.9277 40.5855C82.9277 36.6341 82.2492 33.8911 81.0252 32.2148C79.7431 30.5216 78.1586 29.7144 76.2266 29.7144C75.0114 29.7144 73.9911 30.055 73.1305 30.72L73.1156 30.7315L73.1002 30.7422C72.1692 31.3899 71.1853 32.503 70.1643 34.1456L70.1594 34.1534C69.1476 35.7372 67.03 40.0989 63.7857 47.3187L63.7843 47.3217C60.8098 53.8658 57.905 58.836 55.0605 62.1934L55.0572 62.1973C52.2107 65.5104 48.9322 67.9965 45.2218 69.6404L45.2145 69.6436C41.4999 71.2423 37.1334 72.0289 32.1348 72.0289C22.7201 72.0289 15.3127 68.5893 10.0069 61.6872Z" stroke="white" stroke-width="1.5"/>
<path fill-rule="evenodd" clip-rule="evenodd" d="M10.0069 610.687C4.72395 603.815 2.12695 594.428 2.12695 582.613C2.12695 572.149 4.54747 561.496 9.36945 550.658L9.66209 550L31.9154 558.828L31.586 559.547C27.3262 568.837 25.2285 576.792 25.2285 583.433C25.2285 586.887 25.8401 589.234 26.9181 590.632C28.0236 592.065 29.3405 592.732 30.9043 592.732C32.5653 592.732 34.1198 591.897 35.5719 590.019C36.3032 589.05 37.3704 587.213 38.7817 584.459C40.1871 581.716 41.9134 578.105 43.9615 573.622C47.8543 564.966 52.0878 558.862 56.7029 555.422C61.2796 551.932 67.0309 550.213 73.9023 550.213C80.2341 550.213 85.8928 551.821 90.8545 555.051L90.8572 555.053C95.7764 558.285 99.6 562.938 102.339 568.973L102.341 568.977C105.036 575.018 106.371 582.076 106.371 590.133C106.371 596.816 105.914 602.452 104.989 607.029L104.988 607.036C104.016 611.615 102.354 616.365 100.009 621.285L99.8054 621.713H74.0415L74.6023 620.62C77.2213 615.518 79.2756 610.213 80.7657 604.705C82.2108 599.194 82.9277 594.156 82.9277 589.586C82.9277 585.634 82.2492 582.891 81.0252 581.215C79.7431 579.522 78.1586 578.715 76.2266 578.715C75.0114 578.715 73.9911 579.055 73.1305 579.72L73.1156 579.732L73.1002 579.742C72.1692 580.39 71.1853 581.503 70.1643 583.146L70.1594 583.154C69.1476 584.737 67.03 589.099 63.7857 596.319L63.7843 596.322C60.8098 602.866 57.905 607.836 55.0605 611.194L55.0572 611.198C52.2107 614.511 48.9322 616.997 45.2218 618.641L45.2145 618.644C41.4999 620.243 37.1334 621.029 32.1348 621.029C22.7201 621.029 15.3127 617.59 10.0069 610.687Z" stroke="white" stroke-width="1.5"/>
<path d="M103.627 348.5V317L4.12695 284V314L72.627 332.5L4.12695 351V381L103.627 348.5Z" stroke="white" stroke-width="1.5" stroke-linecap="round"/>
</svg>
