<svg width="222" height="206" viewBox="0 0 222 206" fill="none" xmlns="http://www.w3.org/2000/svg">
<path fill-rule="evenodd" clip-rule="evenodd" d="M176.83 78.2144V128.181H189.926V111.379L194.543 108.631L204.717 128.181H219.401L203.787 100.538L219.595 78.2144H205.452L194.849 93.5934L194.844 93.5988C192.725 96.5595 190.637 98.5111 189.952 99.8483L189.926 99.8668V78.2144H176.83Z" stroke="white" stroke-width="1.5"/>
<path fill-rule="evenodd" clip-rule="evenodd" d="M130.637 77.9934V128.16H143.683V109.627H147.784L158.625 128.16H173.353L158.624 106.22L158.986 106.018C164.665 102.848 167.463 98.4024 167.463 92.6606C167.463 87.7424 165.767 84.1062 162.411 81.683C159.032 79.2433 153.917 77.9934 147.004 77.9934H130.637ZM144.45 88.4095V99.2805H146.654C149.019 99.2805 150.721 98.7589 151.83 97.7826C152.929 96.8143 153.51 95.3407 153.51 93.2877C153.51 91.6286 152.956 90.4393 151.89 89.6491C150.802 88.8431 149.124 88.4095 146.794 88.4095H144.45Z" stroke="white" stroke-width="1.5"/>
<path fill-rule="evenodd" clip-rule="evenodd" d="M92.3952 92.0556C90.7317 94.4378 89.8711 98.0586 89.8711 102.977C89.8711 107.848 90.7261 111.434 92.3773 113.793C94.0117 116.127 96.4592 117.308 99.7877 117.308C103.182 117.308 105.635 116.157 107.225 113.896L107.226 113.894C108.857 111.608 109.704 107.991 109.704 102.977C109.704 97.9392 108.845 94.2995 107.192 91.9899L107.189 91.9865C105.573 89.6757 103.151 88.5066 99.8577 88.5066C96.5062 88.5066 94.0413 89.6986 92.3952 92.0556Z" stroke="white" stroke-width="1.5"/>
<path fill-rule="evenodd" clip-rule="evenodd" d="M1 1.98676L13.4495 51.9537H29.1478C32.0856 38.8357 33.7501 31.351 34.1424 29.4943L34.1434 29.4899C34.5612 27.6209 34.9795 25.578 35.3978 23.3608C35.8156 21.1216 36.117 19.2564 36.3018 17.7634L37.0623 17.7627C37.2937 19.6044 37.6533 21.8988 38.1415 24.6475C38.6538 27.4008 39.0241 29.2276 39.2534 30.1393L39.2544 30.1447L44.0775 51.9537H59.7742L72.1547 1.98676H59.6491L54.06 27.1877V27.1888C52.7096 33.5269 51.8873 37.9638 51.587 40.5118L50.8265 40.5158C50.5721 38.5384 50.0619 35.5405 49.2937 31.5171C48.5266 27.4965 47.7712 23.9521 47.028 20.883L47.027 20.8779L42.7301 1.98676H30.5615L26.1252 20.887C25.4525 23.5377 24.7211 26.884 23.9305 30.9277C23.1628 34.9724 22.6291 38.1674 22.3283 40.5157L21.5688 40.5199C21.1051 37.2037 20.2465 32.7391 18.9906 27.1221L18.9901 27.1202L13.5041 1.98676H1Z" stroke="white" stroke-width="1.5"/>
<path fill-rule="evenodd" clip-rule="evenodd" d="M1 78.9868L13.4495 128.954H29.1478C32.0856 115.836 33.7501 108.351 34.1424 106.494L34.1434 106.49C34.5612 104.621 34.9795 102.578 35.3978 100.361C35.8156 98.1216 36.117 96.2564 36.3018 94.7635L37.0623 94.7628C37.2937 96.6044 37.6533 98.8989 38.1415 101.648C38.6538 104.401 39.0241 106.228 39.2534 107.139L39.2544 107.145L44.0775 128.954H59.7742L72.1547 78.9868H59.6491L54.06 104.188V104.189C52.7096 110.527 51.8873 114.964 51.587 117.512L50.8265 117.516C50.5721 115.538 50.0619 112.541 49.2937 108.517C48.5266 104.497 47.7712 100.952 47.028 97.883L47.027 97.8779L42.7301 78.9868H30.5615L26.1252 97.8871C25.4525 100.538 24.7211 103.884 23.9305 107.928C23.1628 111.972 22.6291 115.167 22.3283 117.516L21.5688 117.52C21.1051 114.204 20.2465 109.739 18.9906 104.122L18.9901 104.12L13.5041 78.9868H1Z" stroke="white" stroke-width="1.5"/>
<path fill-rule="evenodd" clip-rule="evenodd" d="M1 154L13.4495 203.967H29.1478C32.0856 190.849 33.7501 183.364 34.1424 181.508L34.1434 181.503C34.5612 179.634 34.9795 177.591 35.3978 175.374C35.8156 173.135 36.117 171.27 36.3018 169.777L37.0623 169.776C37.2937 171.618 37.6533 173.912 38.1415 176.661C38.6538 179.414 39.0241 181.241 39.2534 182.153L39.2544 182.158L44.0775 203.967H59.7742L72.1547 154H59.6491L54.06 179.201V179.202C52.7096 185.54 51.8873 189.977 51.587 192.525L50.8265 192.529C50.5721 190.552 50.0619 187.554 49.2937 183.53C48.5266 179.51 47.7712 175.965 47.028 172.896L47.027 172.891L42.7301 154H30.5615L26.1252 172.9C25.4525 175.551 24.7211 178.897 23.9305 182.941C23.1628 186.986 22.6291 190.181 22.3283 192.529L21.5688 192.533C21.1051 189.217 20.2465 184.752 18.9906 179.135L18.9901 179.133L13.5041 154H1Z" stroke="white" stroke-width="1.5"/>
<path d="M81.1745 83.8613C80.7055 84.3657 80.2635 84.895 79.8483 85.449C76.607 89.7746 75.0059 95.6082 75.0059 102.909C75.0059 111.343 77.1082 117.827 81.372 122.3C85.6604 126.775 91.7957 128.988 99.716 128.988C107.748 128.988 113.908 126.789 118.13 122.334C122.347 117.883 124.427 111.41 124.427 102.977C124.427 94.5226 122.359 88.049 118.164 83.6203C113.965 79.1877 107.816 77 99.7847 77C91.8784 77 85.7656 79.1543 81.5055 83.5141" stroke="white" stroke-width="1.5" stroke-linecap="round" stroke-linejoin="round"/>
<path fill-rule="evenodd" clip-rule="evenodd" d="M91.1718 13.0221C91.1691 13.0221 91.1669 13.0243 91.1669 13.027V20.5434C91.1669 20.5461 91.1691 20.5483 91.1718 20.5483H106.019C106.021 20.5483 106.024 20.5505 106.024 20.5533V31.5788C106.024 31.5815 106.021 31.5838 106.019 31.5838H91.1718C91.1691 31.5838 91.1669 31.586 91.1669 31.5887V40.666C91.1669 40.6687 91.1691 40.671 91.1718 40.671H107.206C107.209 40.671 107.211 40.6732 107.211 40.6759V51.8711C107.211 51.8738 107.209 51.876 107.206 51.876H77.4952C77.4925 51.876 77.4902 51.8738 77.4902 51.8711V1.99161C77.4902 1.98887 77.4925 1.98664 77.4952 1.98664H107.206C107.209 1.98664 107.211 1.98887 107.211 1.99161V13.0171C107.211 13.0198 107.209 13.0221 107.206 13.0221H91.1718Z" stroke="white" stroke-width="1.5" stroke-linecap="round" stroke-linejoin="round"/>
<path fill-rule="evenodd" clip-rule="evenodd" d="M139.59 154H153.815V172.403H168.655V154H182.88V204.386H168.655V184.149H153.815V204.386H139.59V154Z" stroke="white" stroke-width="1.5"/>
<path fill-rule="evenodd" clip-rule="evenodd" d="M96.2637 154H134.63V165.712H122.542V204.386H108.385V165.712H96.2637V154Z" stroke="white" stroke-width="1.5"/>
<path fill-rule="evenodd" clip-rule="evenodd" d="M77.043 154H91.2678V204.386H77.043V154Z" stroke="white" stroke-width="1.5"/>
</svg>
