<svg width="1074" height="287" viewBox="0 0 1074 287" fill="none" xmlns="http://www.w3.org/2000/svg">
<path fill-rule="evenodd" clip-rule="evenodd" d="M916 159L949.29 221.371V260H975.718V220.527L1009 159H980.706L962.501 198.075L944.441 159H916Z" stroke="white" stroke-width="1.5"/>
<path fill-rule="evenodd" clip-rule="evenodd" d="M513.837 160H542.476V219.402C542.476 226.404 543.791 231.316 546.268 234.305C548.735 237.282 552.394 238.818 557.38 238.818C562.757 238.818 566.482 237.29 568.752 234.389L568.753 234.388C571.102 231.399 572.353 226.414 572.353 219.266V160H600.854V220.906C600.854 234.132 597.094 244.488 589.484 251.865C581.917 259.198 571.039 262.809 556.97 262.809C543.219 262.809 532.527 259.289 525.008 252.143L525.006 252.142C517.526 244.989 513.837 234.742 513.837 221.521V160Z" stroke="white" stroke-width="1.5"/>
<path d="M414.578 172.427C423.099 163.44 435.422 159 451.421 159C467.461 159 479.742 163.393 488.129 172.292C496.509 181.184 500.638 194.182 500.638 211.156C500.638 233.54 493.642 248.972 479.456 257.16L504.335 285.803H468.695L450.895 263.38C435.264 263.308 423.142 258.865 414.648 249.955L414.646 249.954C406.13 240.972 401.931 227.953 401.931 211.02C401.931 194.267 406.108 181.362 414.578 172.427ZM414.578 172.427L415.122 172.943M451.421 181.148C444.447 181.148 439.123 183.676 435.578 188.785C432.067 193.845 430.368 201.34 430.368 211.156C430.368 220.882 432.056 228.309 435.544 233.323C439.067 238.386 444.357 240.891 451.284 240.891C458.31 240.891 463.623 238.466 467.073 233.532C470.533 228.649 472.2 221.145 472.2 211.156C472.2 201.122 470.511 193.574 467.005 188.645C463.517 183.629 458.278 181.148 451.421 181.148Z" stroke="white" stroke-width="1.5"/>
<path fill-rule="evenodd" clip-rule="evenodd" d="M357.49 206V225.828H394.613V206H357.49Z" stroke="white" stroke-width="1.5"/>
<path fill-rule="evenodd" clip-rule="evenodd" d="M8 159H36.6387V196.051H66.5156V159H95.1543V260.441H66.5156V219.699H36.6387L36.6387 260.441H8L8 159Z" stroke="white" stroke-width="1.5"/>
<path fill-rule="evenodd" clip-rule="evenodd" d="M259 159H287.639V196.051H317.516V159H346.154V260.441H317.516V219.699H287.639V260.441H259V159Z" stroke="white" stroke-width="1.5"/>
<path fill-rule="evenodd" clip-rule="evenodd" d="M208.053 159C191.601 159 181.028 161.717 172 170.522C162.974 179.325 156.303 193.398 156.303 209.383C156.303 225.803 160.463 238.332 168.678 247.082C176.933 255.827 188.631 260.244 203.883 260.244C217.645 260.244 230.267 258.307 241.756 254.441V201.861H200.121V221.211H217.963V238.212L217.381 238.346C213.945 239.135 210.197 239.527 206.139 239.527C198.618 239.527 192.756 237.018 188.669 231.933L188.665 231.927C184.647 226.822 182.693 219.498 182.693 210.066C182.693 200.44 184.857 192.928 189.295 187.641C193.792 182.292 200.126 179.648 208.189 179.648C216.621 179.648 224.4 181.332 231.515 184.706L239.486 164.938C235.542 163.268 230.939 161.875 225.671 160.761L225.67 160.761C220.166 159.588 214.295 159 208.053 159Z" stroke="white" stroke-width="1.5"/>
<path fill-rule="evenodd" clip-rule="evenodd" d="M719.756 4.57227L755.096 4.57227C771.262 4.57227 783.844 8.70735 792.729 17.0811C801.671 25.4644 806.09 37.5364 806.09 53.1738C806.09 69.993 801.445 83.0614 792.056 92.2641C782.718 101.462 769.61 106.014 752.84 106.014H719.756V4.57227ZM748.258 27.8789V82.3652H753.523C761.583 82.3652 767.345 80.0421 770.986 75.536C774.66 70.9428 776.562 63.853 776.562 54.1309C776.562 45.0472 774.751 38.4634 771.265 34.237L771.262 34.2334C767.844 30.0367 762.598 27.8789 755.369 27.8789L748.258 27.8789Z" stroke="white" stroke-width="1.5"/>
<path fill-rule="evenodd" clip-rule="evenodd" d="M152.56 4.57227L181.198 4.57227V41.623H211.075V4.57227L239.714 4.57227V106.014H211.075V65.2715H181.198V106.014H152.56V4.57227Z" stroke="white" stroke-width="1.5"/>
<path fill-rule="evenodd" clip-rule="evenodd" d="M717 159H745.502V237.135H783.988V260.441H717V159Z" stroke="white" stroke-width="1.5"/>
<path fill-rule="evenodd" clip-rule="evenodd" d="M1013.76 12.6348C1020.47 7.51618 1029.63 5 1041.17 5C1051.38 5 1061.78 7.34519 1072.36 12.0171L1073 12.3006L1064.38 33.8614L1063.68 33.5423C1054.61 29.415 1046.85 27.3826 1040.37 27.3826C1036.99 27.3826 1034.7 27.9752 1033.34 29.0196C1031.94 30.0908 1031.29 31.3667 1031.29 32.8818C1031.29 34.4911 1032.1 35.9972 1033.94 37.4042C1034.88 38.1127 1036.68 39.1467 1039.36 40.5141C1042.04 41.8757 1045.57 43.5482 1049.94 45.5326C1058.39 49.3043 1064.35 53.406 1067.71 57.8775C1071.11 62.3117 1072.79 67.8841 1072.79 74.5417C1072.79 80.6764 1071.22 86.159 1068.07 90.9663L1068.07 90.9689C1064.91 95.735 1060.37 99.4396 1054.48 102.094L1054.48 102.095C1048.58 104.706 1041.69 106 1033.83 106C1027.3 106 1021.8 105.557 1017.33 104.661L1017.33 104.66C1012.86 103.719 1008.22 102.108 1003.42 99.836L1003 99.6386V74.6766L1004.07 75.2199C1009.05 77.7574 1014.23 79.7477 1019.6 81.1914C1024.98 82.5916 1029.9 83.2862 1034.36 83.2862C1038.22 83.2862 1040.89 82.6288 1042.53 81.4429C1044.18 80.2007 1044.97 78.6655 1044.97 76.7936C1044.97 75.6162 1044.64 74.6277 1043.99 73.7938L1043.98 73.7794L1043.97 73.7645C1043.34 72.8625 1042.25 71.9093 1040.65 70.92L1040.64 70.9153C1039.09 69.9349 1034.83 67.8832 1027.79 64.7399L1027.78 64.7386C1021.4 61.8566 1016.55 59.0422 1013.27 56.2862L1013.26 56.283C1010.03 53.5251 1007.6 50.3487 1006 46.7537L1006 46.7466C1004.43 43.1476 1003.67 38.917 1003.67 34.074C1003.67 24.9523 1007.02 17.7754 1013.76 12.6348Z" stroke="white" stroke-width="1.5"/>
<path fill-rule="evenodd" clip-rule="evenodd" d="M835 159H911V182.477H887.055V260H859.012V182.477H835V159Z" stroke="white" stroke-width="1.5"/>
<path fill-rule="evenodd" clip-rule="evenodd" d="M962 5H990.639V106.441H962V5Z" stroke="white" stroke-width="1.5"/>
<path fill-rule="evenodd" clip-rule="evenodd" d="M113 159H141.639V260.441H113V159Z" stroke="white" stroke-width="1.5"/>
<path fill-rule="evenodd" clip-rule="evenodd" d="M795 159H823.639V260.441H795V159Z" stroke="white" stroke-width="1.5"/>
<path fill-rule="evenodd" clip-rule="evenodd" d="M350 6H427.242V29.5801H402.906V107.441H374.404V29.5801H350V6Z" stroke="white" stroke-width="1.5"/>
<path fill-rule="evenodd" clip-rule="evenodd" d="M851.007 31.3112C847.658 36.1073 845.926 43.3969 845.926 53.2981C845.926 63.1058 847.647 70.3253 850.972 75.0747C854.262 79.7736 859.189 82.1508 865.891 82.1508C872.724 82.1508 877.664 79.8331 880.864 75.2829L880.867 75.2788C884.15 70.6758 885.856 63.3945 885.856 53.2981C885.856 43.1566 884.126 35.8288 880.798 31.1789L880.793 31.172C877.538 26.5198 872.662 24.166 866.032 24.166C859.284 24.166 854.322 26.5658 851.007 31.3112Z" stroke="white" stroke-width="1.5"/>
<path d="M828.419 14.8137C827.475 15.8293 826.585 16.8948 825.749 18.0102C819.224 26.7188 816 38.4635 816 53.1619C816 70.1415 820.233 83.1967 828.817 92.2025C837.451 101.211 849.803 105.667 865.749 105.667C881.919 105.667 894.321 101.239 902.82 92.2695C911.312 83.3086 915.498 70.2763 915.498 53.299C915.498 36.278 911.336 23.2448 902.889 14.3286C894.435 5.40455 882.056 1 865.887 1C849.969 1 837.662 5.33719 829.086 14.1147" stroke="white" stroke-width="1.5" stroke-linecap="round" stroke-linejoin="round"/>
<path fill-rule="evenodd" clip-rule="evenodd" d="M1 6L26.0643 106.597H57.6694C63.5841 80.1874 66.9352 65.1185 67.725 61.3804L67.727 61.3715C68.5682 57.6088 69.4103 53.4958 70.2525 49.032C71.0936 44.5237 71.7003 40.7686 72.0725 37.7629L73.6036 37.7614C74.0694 41.4692 74.7933 46.0886 75.7764 51.6224C76.8077 57.1656 77.5532 60.8436 78.0149 62.6791L78.017 62.6898L87.727 106.597H119.329L144.255 6H119.077L107.825 56.7367V56.7389C105.106 69.4991 103.45 78.4318 102.846 83.5618L101.315 83.5698C100.803 79.5887 99.7753 73.5531 98.2288 65.4528C96.6843 57.3584 95.1635 50.2224 93.6674 44.0434L93.6653 44.0331L85.0144 6H60.5157L51.5841 44.0515C50.2298 49.3881 48.7573 56.1252 47.1655 64.2663C45.62 72.4094 44.5455 78.8417 43.9399 83.5695L42.4108 83.578C41.4772 76.9016 39.7486 67.913 37.2201 56.6045L37.219 56.6007L26.1743 6H1Z" stroke="white" stroke-width="1.5"/>
<path fill-rule="evenodd" clip-rule="evenodd" d="M640.545 25.2172C640.539 25.2172 640.535 25.2217 640.535 25.2272V40.3597C640.535 40.3652 640.539 40.3697 640.545 40.3697H670.436C670.441 40.3697 670.446 40.3741 670.446 40.3797V62.5771C670.446 62.5826 670.441 62.5871 670.436 62.5871H640.545C640.539 62.5871 640.535 62.5916 640.535 62.5971V80.8722C640.535 80.8777 640.539 80.8822 640.545 80.8822H672.826C672.831 80.8822 672.836 80.8867 672.836 80.8922V103.431C672.836 103.437 672.831 103.441 672.826 103.441H613.01C613.004 103.441 613 103.437 613 103.431V3.00977C613 3.00425 613.004 2.99977 613.01 2.99977H672.826C672.831 2.99977 672.836 3.00425 672.836 3.00977V25.2072C672.836 25.2127 672.831 25.2172 672.826 25.2172H640.545Z" stroke="white" stroke-width="1.5" stroke-linecap="round" stroke-linejoin="round"/>
<path fill-rule="evenodd" clip-rule="evenodd" d="M459 3L484.064 103.597H515.669C521.584 77.1874 524.935 62.1185 525.725 58.3804L525.727 58.3715C526.568 54.6088 527.41 50.4958 528.252 46.032C529.094 41.5237 529.7 37.7686 530.073 34.7629L531.604 34.7614C532.069 38.4692 532.793 43.0886 533.776 48.6224C534.808 54.1656 535.553 57.8436 536.015 59.6791L536.017 59.6898L545.727 103.597H577.329L602.255 3H577.077L565.825 53.7367V53.7389C563.106 66.4991 561.45 75.4318 560.846 80.5618L559.315 80.5698C558.803 76.5887 557.775 70.5531 556.229 62.4528C554.684 54.3584 553.164 47.2224 551.667 41.0434L551.665 41.0331L543.014 3H518.516L509.584 41.0515C508.23 46.3881 506.757 53.1252 505.166 61.2663C503.62 69.4094 502.546 75.8417 501.94 80.5695L500.411 80.578C499.477 73.9016 497.749 64.913 495.22 53.6045L495.219 53.6007L484.174 3H459Z" stroke="white" stroke-width="1.5"/>
<path fill-rule="evenodd" clip-rule="evenodd" d="M283.636 88.4889H314.335C314.34 88.4889 314.344 88.492 314.345 88.4963L319.168 106.844C319.169 106.848 319.173 106.852 319.178 106.852H349.701C349.708 106.852 349.713 106.845 349.711 106.838L316.853 7.00687C316.851 7.00277 316.847 7 316.843 7H280.46C280.456 7 280.452 7.00279 280.451 7.00691L248 106.838C247.998 106.845 248.003 106.852 248.01 106.852H278.66C278.665 106.852 278.669 106.849 278.67 106.844L283.627 88.4963C283.628 88.4919 283.632 88.4889 283.636 88.4889ZM298.836 27.6313C298.537 29.0639 298.19 30.6395 297.795 32.3578C297.079 35.6234 296.318 38.8667 295.512 42.0878C294.752 45.3069 294.08 47.9943 293.497 50.1482L289.52 65.2923C289.518 65.2986 289.523 65.3048 289.529 65.3048H308.446C308.453 65.3048 308.458 65.2986 308.456 65.2923L304.478 50.1427C304.031 48.4028 303.383 45.921 302.534 42.7047C301.684 39.4401 300.833 36.0838 299.983 32.6407C299.559 30.8017 299.181 29.1248 298.855 27.6312C298.853 27.6207 298.838 27.6208 298.836 27.6313Z" stroke="white" stroke-width="1.5" stroke-linecap="round" stroke-linejoin="round"/>
<path fill-rule="evenodd" clip-rule="evenodd" d="M643.636 241.489H674.335C674.34 241.489 674.344 241.492 674.345 241.496L679.168 259.844C679.169 259.848 679.173 259.852 679.178 259.852H709.701C709.708 259.852 709.713 259.845 709.711 259.838L676.853 160.007C676.851 160.003 676.847 160 676.843 160H640.46C640.456 160 640.452 160.003 640.451 160.007L608 259.838C607.998 259.845 608.003 259.852 608.01 259.852H638.66C638.665 259.852 638.669 259.849 638.67 259.844L643.627 241.496C643.628 241.492 643.632 241.489 643.636 241.489ZM658.836 180.631C658.537 182.064 658.19 183.639 657.795 185.358C657.079 188.623 656.318 191.867 655.512 195.088C654.752 198.307 654.08 200.994 653.497 203.148L649.52 218.292C649.518 218.299 649.523 218.305 649.529 218.305H668.446C668.453 218.305 668.458 218.299 668.456 218.292L664.478 203.143C664.031 201.403 663.383 198.921 662.534 195.705C661.684 192.44 660.833 189.084 659.983 185.641C659.559 183.802 659.181 182.125 658.855 180.631C658.853 180.621 658.838 180.621 658.836 180.631Z" stroke="white" stroke-width="1.5" stroke-linecap="round" stroke-linejoin="round"/>
</svg>
