<svg width="1089" height="108" viewBox="0 0 1089 108" fill="none" xmlns="http://www.w3.org/2000/svg">
<path fill-rule="evenodd" clip-rule="evenodd" d="M608 3.44482V104.042H634.365V70.214L643.661 64.6823L664.144 104.042H693.707L662.272 48.3881L694.098 3.44482H665.625L644.278 34.4072L644.267 34.4181C640 40.3787 635.797 44.3078 634.419 47L634.365 47.0372V3.44482H608Z" stroke="white" stroke-width="1.5"/>
<path fill-rule="evenodd" clip-rule="evenodd" d="M515 3V104H541.266V66.6873H549.522L571.348 104H601L571.347 59.8283L572.075 59.4213C583.508 53.0384 589.141 44.089 589.141 32.5292C589.141 22.6275 585.727 15.3069 578.971 10.4282C572.168 5.51631 561.869 3 547.952 3H515ZM542.81 23.9706V45.8569H547.247C552.009 45.8569 555.435 44.8067 557.667 42.8413C559.881 40.8918 561.05 37.925 561.05 33.7916C561.05 30.4515 559.935 28.057 557.788 26.4662C555.598 24.8435 552.22 23.9706 547.53 23.9706H542.81Z" stroke="white" stroke-width="1.5"/>
<path fill-rule="evenodd" clip-rule="evenodd" d="M438.007 31.3112C434.658 36.1073 432.926 43.3969 432.926 53.2981C432.926 63.1058 434.647 70.3253 437.972 75.0747C441.262 79.7736 446.189 82.1508 452.891 82.1508C459.724 82.1508 464.664 79.8331 467.864 75.2829L467.867 75.2788C471.15 70.6758 472.856 63.3945 472.856 53.2981C472.856 43.1566 471.126 35.8288 467.798 31.1789L467.793 31.172C464.538 26.5198 459.662 24.166 453.032 24.166C446.284 24.166 441.322 26.5658 438.007 31.3112Z" stroke="white" stroke-width="1.5"/>
<path fill-rule="evenodd" clip-rule="evenodd" d="M1 5L26.0643 105.597H57.6694C63.5841 79.1874 66.9352 64.1185 67.725 60.3804L67.727 60.3715C68.5682 56.6088 69.4103 52.4958 70.2525 48.032C71.0936 43.5237 71.7003 39.7686 72.0725 36.7629L73.6036 36.7614C74.0694 40.4692 74.7933 45.0886 75.7764 50.6224C76.8077 56.1656 77.5532 59.8436 78.0149 61.6791L78.017 61.6898L87.727 105.597H119.329L144.255 5H119.077L107.825 55.7367V55.7389C105.106 68.4991 103.45 77.4318 102.846 82.5618L101.315 82.5698C100.803 78.5887 99.7753 72.5531 98.2288 64.4528C96.6843 56.3584 95.1635 49.2224 93.6674 43.0434L93.6653 43.0331L85.0144 5H60.5157L51.5841 43.0515C50.2298 48.3881 48.7573 55.1252 47.1655 63.2663C45.62 71.4094 44.5455 77.8417 43.9399 82.5695L42.4108 82.578C41.4772 75.9016 39.7486 66.913 37.2201 55.6045L37.219 55.6007L26.1743 5H1Z" stroke="white" stroke-width="1.5"/>
<path fill-rule="evenodd" clip-rule="evenodd" d="M254 5L279.064 105.597H310.669C316.584 79.1874 319.935 64.1185 320.725 60.3804L320.727 60.3715C321.568 56.6088 322.41 52.4958 323.252 48.032C324.094 43.5237 324.7 39.7686 325.073 36.7629L326.604 36.7614C327.069 40.4692 327.793 45.0886 328.776 50.6224C329.808 56.1656 330.553 59.8436 331.015 61.6791L331.017 61.6898L340.727 105.597H372.329L397.255 5H372.077L360.825 55.7367V55.7389C358.106 68.4991 356.45 77.4318 355.846 82.5618L354.315 82.5698C353.803 78.5887 352.775 72.5531 351.229 64.4528C349.684 56.3584 348.164 49.2224 346.667 43.0434L346.665 43.0331L338.014 5H313.516L304.584 43.0515C303.23 48.3881 301.757 55.1252 300.166 63.2663C298.62 71.4094 297.546 77.8417 296.94 82.5695L295.411 82.578C294.477 75.9016 292.749 66.913 290.22 55.6045L290.219 55.6007L279.174 5H254Z" stroke="white" stroke-width="1.5"/>
<path fill-rule="evenodd" clip-rule="evenodd" d="M722 5L747.064 105.597H778.669C784.584 79.1874 787.935 64.1185 788.725 60.3804L788.727 60.3715C789.568 56.6088 790.41 52.4958 791.252 48.032C792.094 43.5237 792.7 39.7686 793.073 36.7629L794.604 36.7614C795.069 40.4692 795.793 45.0886 796.776 50.6224C797.808 56.1656 798.553 59.8436 799.015 61.6791L799.017 61.6898L808.727 105.597H840.329L865.255 5H840.077L828.825 55.7367V55.7389C826.106 68.4991 824.45 77.4318 823.846 82.5618L822.315 82.5698C821.803 78.5887 820.775 72.5531 819.229 64.4528C817.684 56.3584 816.164 49.2224 814.667 43.0434L814.665 43.0331L806.014 5H781.516L772.584 43.0515C771.23 48.3881 769.757 55.1252 768.166 63.2663C766.62 71.4094 765.546 77.8417 764.94 82.5695L763.411 82.578C762.477 75.9016 760.749 66.913 758.22 55.6045L758.219 55.6007L747.174 5H722Z" stroke="white" stroke-width="1.5"/>
<path d="M415.419 14.8137C414.475 15.8293 413.585 16.8948 412.749 18.0102C406.224 26.7188 403 38.4635 403 53.1619C403 70.1415 407.233 83.1967 415.817 92.2025C424.451 101.211 436.803 105.667 452.749 105.667C468.919 105.667 481.321 101.239 489.82 92.2695C498.312 83.3086 502.498 70.2763 502.498 53.299C502.498 36.278 498.336 23.2448 489.889 14.3286C481.435 5.40455 469.056 1 452.887 1C436.969 1 424.662 5.33719 416.086 14.1147" stroke="white" stroke-width="2" stroke-linecap="round" stroke-linejoin="round"/>
<path fill-rule="evenodd" clip-rule="evenodd" d="M182.545 27.2172C182.539 27.2172 182.535 27.2217 182.535 27.2272V42.3597C182.535 42.3652 182.539 42.3697 182.545 42.3697H212.436C212.441 42.3697 212.446 42.3741 212.446 42.3797V64.5771C212.446 64.5826 212.441 64.5871 212.436 64.5871H182.545C182.539 64.5871 182.535 64.5916 182.535 64.5971V82.8722C182.535 82.8777 182.539 82.8822 182.545 82.8822H214.826C214.831 82.8822 214.836 82.8867 214.836 82.8922V105.431C214.836 105.437 214.831 105.441 214.826 105.441H155.01C155.004 105.441 155 105.437 155 105.431V5.00977C155 5.00425 155.004 4.99977 155.01 4.99977H214.826C214.831 4.99977 214.836 5.00425 214.836 5.00977V27.2072C214.836 27.2127 214.831 27.2172 214.826 27.2172H182.545Z" stroke="white" stroke-width="1.5" stroke-linecap="round" stroke-linejoin="round"/>
<path fill-rule="evenodd" clip-rule="evenodd" d="M1001.02 5H1029.66V42.0508H1059.53V5H1088.17V106.441H1059.53V65.6992H1029.66V106.441H1001.02V5Z" stroke="white" stroke-width="1.5"/>
<path fill-rule="evenodd" clip-rule="evenodd" d="M913.789 5H991.031V28.5801H966.695V106.441H938.193V28.5801H913.789V5Z" stroke="white" stroke-width="1.5"/>
<path fill-rule="evenodd" clip-rule="evenodd" d="M875.095 5H903.733V106.441H875.095V5Z" stroke="white" stroke-width="1.5"/>
</svg>
