<svg width="316" height="306" viewBox="0 0 316 306" fill="none" xmlns="http://www.w3.org/2000/svg">
<path fill-rule="evenodd" clip-rule="evenodd" d="M267.293 239L283.89 270.096V289.354H297.066V269.675L313.659 239H299.552L290.476 258.481L281.473 239H267.293Z" stroke="white" stroke-width="1.5"/>
<path fill-rule="evenodd" clip-rule="evenodd" d="M66.791 239.499H81.069V269.114C81.069 272.605 81.725 275.054 82.9597 276.544C84.1896 278.028 86.014 278.794 88.4996 278.794C91.1804 278.794 93.0377 278.032 94.1694 276.586L94.1698 276.586C95.3407 275.095 95.9644 272.61 95.9644 269.046V239.499H110.174V269.864C110.174 276.458 108.3 281.621 104.505 285.299C100.733 288.955 95.3095 290.755 88.2952 290.755C81.4397 290.755 76.109 289 72.3603 285.438L72.3595 285.437C68.6302 281.871 66.791 276.762 66.791 270.171V239.499Z" stroke="white" stroke-width="1.5"/>
<path d="M17.3053 245.694C21.5538 241.214 27.6975 239 35.6737 239C43.6707 239 49.7932 241.19 53.9746 245.627C58.1524 250.06 60.211 256.54 60.211 265.003C60.211 276.163 56.7233 283.856 49.6506 287.938L62.0545 302.218H44.286L35.4116 291.039C27.6184 291.003 21.5752 288.788 17.3401 284.346L17.3394 284.345C13.0937 279.868 11 273.377 11 264.935C11 256.583 13.0828 250.149 17.3053 245.694ZM17.3053 245.694L17.5767 245.952M35.6737 250.042C32.197 250.042 29.5425 251.303 27.7749 253.85C26.0246 256.372 25.1777 260.109 25.1777 265.003C25.1777 269.851 26.019 273.554 27.7582 276.054C29.5145 278.578 32.152 279.827 35.6055 279.827C39.1081 279.827 41.7569 278.618 43.477 276.158C45.2023 273.724 46.0333 269.983 46.0333 265.003C46.0333 260 45.191 256.237 43.4433 253.78C41.7041 251.279 39.0925 250.042 35.6737 250.042Z" stroke="white" stroke-width="1.5"/>
<path fill-rule="evenodd" clip-rule="evenodd" d="M185.689 183.434V193.319H204.197V183.434H185.689Z" stroke="white" stroke-width="1.5"/>
<path fill-rule="evenodd" clip-rule="evenodd" d="M11.4492 160H25.7272V178.472H40.6226V160H54.9006V210.574H40.6226V190.262H25.7272L25.7272 210.574H11.4492L11.4492 160Z" stroke="white" stroke-width="1.5"/>
<path fill-rule="evenodd" clip-rule="evenodd" d="M136.588 160H150.866V178.472H165.761V160H180.039V210.574H165.761V190.262H150.866V210.574H136.588V160Z" stroke="white" stroke-width="1.5"/>
<path fill-rule="evenodd" clip-rule="evenodd" d="M111.187 160C102.985 160 97.7138 161.355 93.2127 165.744C88.7126 170.133 85.3867 177.149 85.3867 185.119C85.3867 193.305 87.4608 199.551 91.5563 203.914C95.6719 208.274 101.504 210.476 109.108 210.476C115.969 210.476 122.262 209.51 127.99 207.583V181.369H107.233V191.016H116.128V199.492L115.838 199.559C114.125 199.952 112.256 200.147 110.233 200.147C106.483 200.147 103.561 198.896 101.523 196.361L101.521 196.358C99.5177 193.813 98.5439 190.162 98.5439 185.459C98.5439 180.66 99.6228 176.915 101.835 174.279C104.077 171.612 107.235 170.294 111.255 170.294C115.459 170.294 119.337 171.134 122.884 172.816L126.858 162.96C124.892 162.128 122.597 161.433 119.971 160.878L119.97 160.878C117.226 160.293 114.299 160 111.187 160Z" stroke="white" stroke-width="1.5"/>
<path fill-rule="evenodd" clip-rule="evenodd" d="M138 85.7812H155.619C163.679 85.7812 169.951 87.8428 174.381 92.0176C178.839 96.1972 181.042 102.216 181.042 110.012C181.042 118.397 178.727 124.913 174.046 129.501C169.39 134.086 162.855 136.356 154.494 136.356H138V85.7812ZM152.21 97.4009V124.565H154.835C158.853 124.565 161.726 123.407 163.541 121.161C165.373 118.871 166.321 115.336 166.321 110.489C166.321 105.96 165.418 102.678 163.68 100.571L163.679 100.569C161.975 98.4767 159.359 97.4009 155.755 97.4009H152.21Z" stroke="white" stroke-width="1.5"/>
<path fill-rule="evenodd" clip-rule="evenodd" d="M83.5605 7.78125L97.8385 7.78125V26.2532H112.734V7.78125L127.012 7.78125V58.3555H112.734V38.0432H97.8385V58.3555H83.5605V7.78125Z" stroke="white" stroke-width="1.5"/>
<path fill-rule="evenodd" clip-rule="evenodd" d="M168.082 239H182.292V277.955H201.479V289.574H168.082V239Z" stroke="white" stroke-width="1.5"/>
<path fill-rule="evenodd" clip-rule="evenodd" d="M284.578 89.8015C287.923 87.2496 292.491 85.9951 298.241 85.9951C303.333 85.9951 308.517 87.1643 313.792 89.4935L314.112 89.6349L309.815 100.384L309.466 100.225C304.945 98.1674 301.074 97.1541 297.841 97.1541C296.161 97.1541 295.019 97.4495 294.338 97.9702C293.641 98.5043 293.316 99.1404 293.316 99.8958C293.316 100.698 293.723 101.449 294.637 102.15C295.108 102.504 296.002 103.019 297.343 103.701C298.677 104.38 300.435 105.214 302.616 106.203C306.828 108.083 309.799 110.128 311.473 112.358C313.172 114.568 314.008 117.346 314.008 120.666C314.008 123.724 313.226 126.457 311.654 128.854L311.653 128.855C310.08 131.232 307.816 133.079 304.879 134.402L304.876 134.403C301.937 135.704 298.502 136.349 294.581 136.349C291.329 136.349 288.586 136.128 286.359 135.682L286.355 135.681C284.127 135.212 281.815 134.409 279.421 133.276L279.213 133.178V120.733L279.745 121.004C282.228 122.269 284.809 123.261 287.49 123.981C290.172 124.679 292.623 125.025 294.847 125.025C296.77 125.025 298.105 124.697 298.921 124.106C299.745 123.487 300.138 122.722 300.138 121.788C300.138 121.201 299.972 120.708 299.648 120.293L299.643 120.286L299.638 120.278C299.323 119.828 298.781 119.353 297.981 118.86L297.978 118.858C297.207 118.369 295.084 117.346 291.571 115.779L291.569 115.778C288.385 114.341 285.966 112.938 284.332 111.564L284.33 111.563C282.718 110.188 281.508 108.604 280.708 106.812L280.706 106.808C279.928 105.014 279.546 102.905 279.546 100.49C279.546 95.9425 281.219 92.3644 284.578 89.8015Z" stroke="white" stroke-width="1.5"/>
<path fill-rule="evenodd" clip-rule="evenodd" d="M226.91 239H264.8V250.705H252.863V289.354H238.881V250.705H226.91V239Z" stroke="white" stroke-width="1.5"/>
<path fill-rule="evenodd" clip-rule="evenodd" d="M258.773 85.9951H273.051V136.569H258.773V85.9951Z" stroke="white" stroke-width="1.5"/>
<path fill-rule="evenodd" clip-rule="evenodd" d="M63.7988 160H78.0768V210.574H63.7988V160Z" stroke="white" stroke-width="1.5"/>
<path fill-rule="evenodd" clip-rule="evenodd" d="M206.969 239H221.247V289.574H206.969V239Z" stroke="white" stroke-width="1.5"/>
<path fill-rule="evenodd" clip-rule="evenodd" d="M181.996 8.49219H220.506V20.2482H208.373V59.0665H194.163V20.2482H181.996V8.49219Z" stroke="white" stroke-width="1.5"/>
<path fill-rule="evenodd" clip-rule="evenodd" d="M203.436 99.1121C201.766 101.503 200.902 105.137 200.902 110.074C200.902 114.964 201.761 118.563 203.418 120.931C205.058 123.273 207.515 124.458 210.856 124.458C214.263 124.458 216.725 123.303 218.321 121.034L218.322 121.032C219.959 118.738 220.81 115.107 220.81 110.074C220.81 105.018 219.947 101.364 218.288 99.0461L218.285 99.0427C216.663 96.7233 214.232 95.5498 210.926 95.5498C207.562 95.5498 205.088 96.7463 203.436 99.1121Z" stroke="white" stroke-width="1.5"/>
<path d="M192.174 90.8869C191.703 91.3932 191.26 91.9245 190.843 92.4805C187.59 96.8223 185.982 102.678 185.982 110.006C185.982 118.471 188.093 124.98 192.372 129.47C196.677 133.961 202.835 136.182 210.785 136.182C218.847 136.182 225.03 133.975 229.267 129.503C233.501 125.035 235.588 118.538 235.588 110.074C235.588 101.588 233.513 95.0903 229.301 90.6451C225.087 86.1959 218.915 84 210.854 84C202.918 84 196.782 86.1623 192.506 90.5384" stroke="white" stroke-width="1.5" stroke-linecap="round" stroke-linejoin="round"/>
<path fill-rule="evenodd" clip-rule="evenodd" d="M8 8.49219L20.496 58.6457H36.2529C39.2017 45.4788 40.8724 37.9661 41.2662 36.1024L41.2672 36.098C41.6865 34.2221 42.1064 32.1715 42.5263 29.946C42.9456 27.6984 43.2481 25.8263 43.4337 24.3278L44.197 24.3271C44.4292 26.1756 44.7902 28.4786 45.2802 31.2375C45.7944 34.0011 46.1661 35.8348 46.3963 36.7499L46.3973 36.7553L51.2383 58.6457H66.9937L79.4205 8.49219H66.8681L61.2581 33.7873V33.7884C59.9027 40.1501 59.0773 44.6035 58.7759 47.1611L58.0125 47.1651C57.7572 45.1803 57.2451 42.1712 56.474 38.1328C55.704 34.0972 54.9458 30.5395 54.1999 27.4589L54.1989 27.4539L49.8859 8.49219H37.6719L33.219 27.463C32.5438 30.1236 31.8097 33.4824 31.0161 37.5412C30.2456 41.601 29.7099 44.8079 29.408 47.165L28.6456 47.1692C28.1801 43.8406 27.3184 39.3593 26.0577 33.7214L26.0572 33.7195L20.5508 8.49219H8Z" stroke="white" stroke-width="1.5"/>
<path fill-rule="evenodd" clip-rule="evenodd" d="M98.5081 96.0736C98.5053 96.0736 98.5031 96.0758 98.5031 96.0786V103.623C98.5031 103.626 98.5053 103.628 98.5081 103.628H113.41C113.413 103.628 113.415 103.63 113.415 103.633V114.7C113.415 114.702 113.413 114.705 113.41 114.705H98.5081C98.5053 114.705 98.5031 114.707 98.5031 114.71V123.821C98.5031 123.823 98.5053 123.826 98.5081 123.826H114.602C114.605 123.826 114.607 123.828 114.607 123.831V135.068C114.607 135.07 114.605 135.073 114.602 135.073H84.7804C84.7776 135.073 84.7754 135.07 84.7754 135.068V85.0019C84.7754 84.9992 84.7776 84.997 84.7804 84.997H114.602C114.605 84.997 114.607 84.9992 114.607 85.0019V96.0686C114.607 96.0714 114.605 96.0736 114.602 96.0736H98.5081Z" stroke="white" stroke-width="1.5" stroke-linecap="round" stroke-linejoin="round"/>
<path fill-rule="evenodd" clip-rule="evenodd" d="M8 84.9971L20.496 135.151H36.2529C39.2017 121.984 40.8724 114.471 41.2662 112.607L41.2672 112.603C41.6865 110.727 42.1064 108.676 42.5263 106.451C42.9456 104.203 43.2481 102.331 43.4337 100.833L44.197 100.832C44.4292 102.68 44.7902 104.983 45.2802 107.742C45.7944 110.506 46.1661 112.34 46.3963 113.255L46.3973 113.26L51.2383 135.151H66.9937L79.4205 84.9971H66.8681L61.2581 110.292V110.293C59.9027 116.655 59.0773 121.108 58.7759 123.666L58.0125 123.67C57.7572 121.685 57.2451 118.676 56.474 114.638C55.704 110.602 54.9458 107.044 54.1999 103.964L54.1989 103.959L49.8859 84.9971H37.6719L33.219 103.968C32.5438 106.628 31.8097 109.987 31.0161 114.046C30.2456 118.106 29.7099 121.313 29.408 123.67L28.6456 123.674C28.1801 120.345 27.3184 115.864 26.0577 110.226L26.0572 110.224L20.5508 84.9971H8Z" stroke="white" stroke-width="1.5"/>
<path fill-rule="evenodd" clip-rule="evenodd" d="M148.909 49.618H164.214C164.217 49.618 164.219 49.6195 164.219 49.6217L166.624 58.7691C166.624 58.7713 166.626 58.7728 166.629 58.7728H181.846C181.85 58.7728 181.852 58.7695 181.851 58.7663L165.469 8.99464C165.469 8.99259 165.467 8.99121 165.465 8.99121H147.326C147.324 8.99121 147.322 8.9926 147.321 8.99466L131.143 58.7663C131.142 58.7695 131.144 58.7728 131.148 58.7728H146.428C146.431 58.7728 146.433 58.7713 146.433 58.7692L148.905 49.6217C148.905 49.6195 148.907 49.618 148.909 49.618ZM156.487 19.2771C156.338 19.9913 156.165 20.7768 155.968 21.6335C155.611 23.2616 155.232 24.8786 154.83 26.4845C154.451 28.0894 154.116 29.4292 153.825 30.503L151.843 38.0532C151.842 38.0564 151.844 38.0595 151.847 38.0595H161.278C161.282 38.0595 161.284 38.0564 161.283 38.0532L159.3 30.5003C159.077 29.6328 158.754 28.3955 158.331 26.792C157.907 25.1644 157.483 23.4911 157.059 21.7745C156.848 20.8577 156.659 20.0217 156.497 19.277C156.496 19.2718 156.488 19.2718 156.487 19.2771Z" stroke="white" stroke-width="1.5" stroke-linecap="round" stroke-linejoin="round"/>
<path fill-rule="evenodd" clip-rule="evenodd" d="M131.505 280.126H146.81C146.812 280.126 146.814 280.127 146.815 280.13L149.22 289.277C149.22 289.279 149.222 289.281 149.224 289.281H164.442C164.446 289.281 164.448 289.277 164.447 289.274L148.065 239.502C148.065 239.5 148.063 239.499 148.06 239.499H129.921C129.919 239.499 129.917 239.5 129.917 239.502L113.739 289.274C113.737 289.277 113.74 289.281 113.743 289.281H129.024C129.026 289.281 129.028 289.279 129.029 289.277L131.5 280.13C131.501 280.127 131.503 280.126 131.505 280.126ZM139.083 249.785C138.934 250.499 138.761 251.285 138.564 252.141C138.207 253.769 137.828 255.386 137.426 256.992C137.047 258.597 136.712 259.937 136.421 261.011L134.438 268.561C134.437 268.564 134.44 268.567 134.443 268.567H143.874C143.877 268.567 143.88 268.564 143.879 268.561L141.896 261.008C141.673 260.141 141.35 258.903 140.926 257.3C140.503 255.672 140.079 253.999 139.655 252.282C139.443 251.366 139.255 250.529 139.093 249.785C139.091 249.78 139.084 249.78 139.083 249.785Z" stroke="white" stroke-width="1.5" stroke-linecap="round" stroke-linejoin="round"/>
</svg>
