<svg width="180" height="48" viewBox="0 0 180 48" fill="none" xmlns="http://www.w3.org/2000/svg">
<path d="M16.2679 20.7381C16.1181 20.6417 15.0337 20.2824 14.863 20.2299C13.8834 19.9203 10.2708 18.7724 11.3731 17.4347C13.6588 14.6863 22.6305 15.0689 24.8532 12.005C26.9441 9.13389 28.5497 2.95064 30.4459 3.0003C32.0965 3.04411 33.2588 5.60561 33.5493 6.3066C33.5855 6.39506 33.6156 6.48581 33.6392 6.57823C33.8069 7.24416 35.1639 10.9798 44.2375 8.86226C48.3594 7.89841 51.1273 7.46906 52.9486 7.29381C53.3861 7.25101 53.8263 7.34496 54.2054 7.56209C54.5846 7.77921 54.8831 8.10827 55.0578 8.50168C55.2325 8.8951 55.2744 9.3325 55.1775 9.75067C55.0805 10.1688 54.8496 10.5461 54.5183 10.8279L54.4434 10.8922C52.0739 12.8549 46.9785 16.6198 46.1487 17.2302C46.0839 17.2793 46.0158 17.3242 45.945 17.3646C45.3459 17.7005 41.9609 19.821 44.0907 23.8282C46.4213 28.2094 51.7714 38.0348 51.7714 38.0348C51.7714 38.0348 55.0485 43.5054 54.036 44.811C53.0235 46.1166 45.7593 40.2312 45.7593 40.2312C45.7593 40.2312 35.6912 32.7599 30.7065 32.313C25.7219 31.8662 20.0603 37.1907 20.0603 37.1907C20.0603 37.1907 12.1819 43.8909 11.1575 43.7916C9.86636 43.6602 10.2977 41.8201 10.2977 41.8201C10.3575 41.5062 10.4655 41.2029 10.6183 40.9205C11.6697 38.8117 17.6548 26.7198 17.7477 24.3218C17.8286 22.2277 16.885 21.1353 16.2679 20.7381Z" fill="white"/>
<path d="M128.575 22.4957C128.413 23.014 128.095 23.4696 127.666 23.8008C127.59 23.8697 127.497 23.9178 127.398 23.9405L122.484 24.181C122.283 24.1889 122.084 24.2209 121.89 24.2764C121.002 24.5358 118.874 25.5485 118.529 29.3419C118.003 35.1427 124.277 34.5378 124.277 34.5378L124.872 34.5081L126.735 34.4235C126.82 34.4252 126.903 34.4451 126.98 34.4818C127.056 34.5185 127.124 34.5711 127.179 34.6362C127.233 34.7013 127.273 34.7773 127.296 34.8592C127.319 34.941 127.324 35.0268 127.312 35.1109L126.787 37.0388C126.751 37.3202 126.501 37.6417 126.233 37.6679L121.723 37.8109C121.723 37.8109 115.282 38.2369 114.608 33.06C113.843 27.2161 115.66 24.0472 115.66 24.0472C116.119 23.122 116.819 22.338 117.686 21.778C118.552 21.218 119.553 20.9026 120.584 20.865C124.402 20.6909 127.713 20.5986 127.713 20.5986C127.713 20.5986 128.544 20.5822 128.676 20.7886C129.002 21.3256 128.794 21.8165 128.575 22.4957Z" fill="white"/>
<path d="M96.8356 25.9443C96.6367 24.8464 96.1328 23.8331 95.386 23.0291C94.6393 22.2252 93.6823 21.6658 92.6331 21.42C91.125 21.0675 88.7582 20.6844 86.2526 21.42C80.7221 23.0231 80.1938 30.3091 81.7786 34.3215C83.2542 38.1009 89.4517 37.9997 89.4517 37.9997L94.8463 37.9136C94.9813 37.9111 95.1119 37.8632 95.2183 37.7769C95.3248 37.6907 95.4014 37.5708 95.4366 37.4354C95.6272 36.776 95.8123 36.1778 95.8174 35.4893C95.8174 34.8763 95.3275 34.5514 94.7462 34.5483H92.4914C90.4463 34.5483 86.7632 35.0234 86.0844 33.3222C85.9014 32.7725 85.8018 32.1965 85.7893 31.6149C85.7835 31.5055 85.7997 31.3961 85.8366 31.2935C85.8736 31.1909 85.9306 31.0974 86.004 31.0188C86.0775 30.9402 86.1658 30.8782 86.2634 30.8368C86.3611 30.7954 86.4659 30.7754 86.5713 30.7781L93.4476 30.9467C93.4476 30.9467 95.602 31.0141 96.0152 30.9007C96.1559 30.8596 96.2841 30.7817 96.3874 30.6743C96.4908 30.567 96.5658 30.4338 96.6054 30.2877C96.8064 29.8179 96.9301 29.3164 96.9714 28.8041C97.0363 27.8486 96.9907 26.8885 96.8356 25.9443ZM91.125 28.2616L86.347 28.1543C85.5856 28.1543 85.6889 26.6217 86.6215 25.2607C87.439 24.0806 89.5019 24.0684 89.9091 24.0867H90.0478C93.3119 24.4576 93.1997 26.1588 93.1997 26.6646C93.1997 27.8723 92.9695 28.2677 91.125 28.2616Z" fill="white"/>
<path d="M104.455 15.0102C106.511 14.8857 106.214 15.9438 106.214 15.9438C106.214 15.9438 103.853 33.7743 103.6 35.9111C103.426 37.4641 102.388 37.9378 99.9539 38C99.8463 37.994 99.7412 37.9641 99.6453 37.9123C99.5495 37.8604 99.4651 37.7878 99.3976 37.6992C99.3301 37.6105 99.2811 37.5078 99.2537 37.3977C99.2263 37.2877 99.2212 37.1728 99.2387 37.0605L101.702 15.9478C101.759 15.4552 102.169 15.0791 102.665 15.0642L104.455 15.0102Z" fill="white"/>
<path d="M109.474 15.0731C109.286 15.0784 109.106 15.1522 108.968 15.281C108.83 15.4098 108.742 15.5849 108.72 15.7742L106.241 36.9215C106.22 37.0475 106.225 37.1766 106.256 37.3006C106.287 37.4245 106.342 37.5406 106.42 37.6416C106.497 37.7426 106.594 37.8262 106.705 37.8872C106.815 37.9481 106.937 37.9852 107.063 37.9959C109.255 38.0561 110.539 37.4625 110.708 35.9337C110.951 33.7519 113.214 15.9608 113.214 15.9608C113.214 15.9608 113.51 14.8865 111.434 15.0099L109.474 15.0731Z" fill="white"/>
<path d="M140.595 21.3325C136.589 20.1191 131.171 22.2463 129.55 27.391C127.93 32.5357 130.027 36.3818 134.03 37.5952C138.032 38.8087 143.509 37.4425 145.386 31.4633C147.264 25.4842 144.597 22.5342 140.595 21.3325ZM141.561 30.1735C140.803 33.0058 138.289 35.1683 136.039 34.6013C133.788 34.0342 132.675 31.7366 133.44 28.9042C134.204 26.0718 136.984 23.9093 139.249 24.4587C141.515 25.0082 142.401 27.0369 141.561 30.1735Z" fill="white"/>
<path d="M170.067 36.8093C170.067 36.8093 170.575 31.7618 170.976 26.3732C171.378 20.9845 166.522 21.6348 166.522 21.6348L150.061 21.5002C149.812 21.4979 149.571 21.592 149.383 21.7649C149.195 21.9378 149.073 22.1775 149.04 22.439L147 37.7763L151.706 37.8295L153.353 24.6489C153.365 24.5469 153.413 24.4536 153.488 24.3875C153.562 24.3214 153.657 24.2874 153.754 24.2922C154.049 24.3078 154.599 24.3329 155.599 24.3704H157.875L156.036 37.8263H160.739L162.548 24.3704L165.545 24.3892C165.545 24.3892 166.823 24.5457 166.725 25.788C166.628 27.0303 165.376 37.8326 165.376 37.8326L168.06 37.9859C168.06 37.9859 169.784 38.2175 170.067 36.8093Z" fill="white"/>
<path d="M80.6277 18.2168C80.5832 18.5197 80.4389 18.7959 80.2205 18.996C80.0022 19.1961 79.724 19.3072 79.4357 19.3092L73.4248 19.1614C72.17 19.1172 70.9306 19.4655 69.8602 20.1633C68.4412 21.1079 66.9484 22.9186 66.6135 26.3892C65.8245 34.5707 73.5581 34.1391 74.1768 34.0697H74.2733L77.4292 34.0033C78.6439 33.943 78.9476 34.5073 78.8142 35.3372L78.3815 36.9319C78.3962 36.8776 78.2132 37.2975 78 37.5C77.5742 37.9044 76.9087 37.8201 76.623 37.8326H69.9479C69.9479 37.8326 62.0854 38 61.1845 31.0287C60.2394 23.7163 63.2334 19.4722 63.2334 19.4722C63.2334 19.4722 64.8852 15.4494 70.2093 15.1596C75.5334 14.8699 79.7025 15.0631 79.7025 15.0631C79.7025 15.0631 80.9115 15.0631 80.9909 15.4162C81.0505 15.6304 80.8036 17.1394 80.6277 18.2168Z" fill="white"/>
</svg>
