<svg width="183" height="48" viewBox="0 0 183 48" fill="none" xmlns="http://www.w3.org/2000/svg">
<g clip-path="url(#clip0_1724_2728)">
<path d="M6.94399 20.2718C6.77553 20.1617 5.55588 19.7511 5.36384 19.691C4.26212 19.3372 0.198887 18.0254 1.43874 16.4966C4.00943 13.3556 14.1001 13.7928 16.6001 10.2913C18.9517 7.01008 20.7576 -0.0564058 22.8903 0.00033973C24.7467 0.0504093 26.054 2.97781 26.3808 3.77892C26.4215 3.88001 26.4553 3.98373 26.4819 4.08935C26.6705 4.85041 28.1968 9.11967 38.402 6.69964C43.038 5.59811 46.1511 5.10743 48.1996 4.90715C48.6917 4.85824 49.1867 4.96561 49.6131 5.21375C50.0396 5.46189 50.3753 5.83794 50.5718 6.28756C50.7684 6.73717 50.8155 7.23705 50.7064 7.71495C50.5973 8.19285 50.3377 8.624 49.965 8.9461L49.8808 9.01953C47.2158 11.2626 41.4848 15.5653 40.5516 16.2629C40.4787 16.319 40.4021 16.3703 40.3225 16.4165C39.6486 16.8003 35.8414 19.2237 38.2369 23.8034C40.8582 28.8104 46.8755 40.0393 46.8755 40.0393C46.8755 40.0393 50.5614 46.2913 49.4226 47.7834C48.2838 49.2754 40.1136 42.5494 40.1136 42.5494C40.1136 42.5494 28.7897 34.0109 23.1834 33.5002C17.5771 32.9895 11.2094 39.0746 11.2094 39.0746C11.2094 39.0746 2.34842 46.7319 1.19616 46.6184C-0.255953 46.4682 0.229209 44.3653 0.229209 44.3653C0.29642 44.0066 0.417959 43.66 0.589711 43.3372C1.77229 40.9272 8.50392 27.108 8.60836 24.3675C8.69933 21.9742 7.63804 20.7258 6.94399 20.2718Z" fill="white"/>
<path d="M134.031 22.273C133.847 22.8524 133.488 23.3619 133.002 23.7323C132.916 23.8094 132.811 23.8632 132.698 23.8885L127.14 24.1587C126.912 24.1676 126.687 24.2034 126.468 24.2655C125.463 24.5558 123.056 25.6884 122.664 29.9296C122.068 36.4149 129.165 35.7371 129.165 35.7371L129.838 35.7037L131.946 35.6086C132.042 35.6105 132.136 35.6328 132.223 35.6737C132.309 35.7147 132.386 35.7736 132.448 35.8463C132.51 35.919 132.555 36.004 132.581 36.0955C132.607 36.187 132.613 36.283 132.598 36.3769L132.004 38.5325C131.963 38.8471 131.68 39.2066 131.378 39.236L126.275 39.397C126.275 39.397 118.989 39.8749 118.228 34.0875C117.364 27.5542 119.42 24.0109 119.42 24.0109C119.94 22.9764 120.732 22.0997 121.712 21.4734C122.693 20.8471 123.825 20.4942 124.991 20.4519C129.31 20.2563 133.056 20.1522 133.056 20.1522C133.056 20.1522 133.995 20.1336 134.145 20.3644C134.514 20.9647 134.279 21.5135 134.031 22.273Z" fill="white"/>
<path d="M98.1624 26.5373C97.9353 25.3418 97.3601 24.2382 96.5075 23.3628C95.655 22.4873 94.5625 21.8781 93.3647 21.6105C91.643 21.2266 88.941 20.8094 86.0805 21.6105C79.7667 23.3562 79.1636 31.2906 80.9728 35.66C82.6574 39.7757 89.7327 39.6655 89.7327 39.6655L95.8914 39.5718C96.0455 39.5691 96.1945 39.5168 96.3161 39.4229C96.4376 39.329 96.5251 39.1985 96.5652 39.051C96.7828 38.3329 96.9942 37.6815 97 36.9317C97 36.2642 96.4408 35.9103 95.777 35.907H93.203C90.8681 35.907 86.6634 36.4244 85.8885 34.5718C85.6795 33.9731 85.5659 33.3459 85.5516 32.7126C85.545 32.5934 85.5634 32.4743 85.6056 32.3626C85.6478 32.2508 85.7129 32.149 85.7968 32.0634C85.8806 31.9778 85.9814 31.9103 86.0929 31.8652C86.2044 31.8201 86.324 31.7983 86.4444 31.8013L94.2946 31.9849C94.2946 31.9849 96.7541 32.0583 97.2258 31.9348C97.3864 31.8901 97.5328 31.8052 97.6508 31.6883C97.7688 31.5714 97.8544 31.4264 97.8996 31.2672C98.129 30.7556 98.2703 30.2095 98.3174 29.6516C98.3915 28.6111 98.3395 27.5655 98.1624 26.5373ZM91.643 29.0608L86.1883 28.944C85.3191 28.944 85.437 27.275 86.5017 25.7929C87.4349 24.5078 89.79 24.4945 90.2549 24.5145H90.4133C94.1396 24.9184 94.0116 26.771 94.0116 27.3217C94.0116 28.6369 93.7488 29.0675 91.643 29.0608Z" fill="white"/>
<path d="M106.839 13.8418C109.259 13.7009 108.91 14.8986 108.91 14.8986C108.91 14.8986 106.13 35.0811 105.833 37.4998C105.628 39.2577 104.406 39.7938 101.54 39.8642C101.414 39.8574 101.29 39.8236 101.177 39.7649C101.064 39.7063 100.965 39.6241 100.886 39.5237C100.806 39.4233 100.748 39.3071 100.716 39.1825C100.684 39.0579 100.678 38.9279 100.699 38.8008L103.716 13.9324L106.839 13.8418Z" fill="white"/>
<path d="M112.749 13.9129C112.528 13.9189 112.317 14.0024 112.154 14.148C111.991 14.2937 111.887 14.4917 111.862 14.7058L108.944 38.6167C108.919 38.7592 108.925 38.9052 108.961 39.0453C108.997 39.1854 109.063 39.3167 109.154 39.4309C109.245 39.5451 109.359 39.6396 109.489 39.7086C109.619 39.7775 109.763 39.8194 109.911 39.8315C112.491 39.8995 114.003 39.2284 114.202 37.4998C114.488 35.0329 117.152 14.9167 117.152 14.9167C117.152 14.9167 117.501 13.702 115.057 13.8415L112.749 13.9129Z" fill="white"/>
<path d="M147.557 20.7408C143.19 19.3588 137.284 21.7814 135.518 27.6404C133.751 33.4994 136.038 37.8794 140.401 39.2613C144.764 40.6433 150.733 39.0873 152.779 32.2781C154.826 25.4688 151.92 22.1093 147.557 20.7408ZM148.61 30.8091C147.783 34.0347 145.044 36.4975 142.59 35.8517C140.137 35.2059 138.924 32.5892 139.757 29.3636C140.591 26.138 143.62 23.6753 146.09 24.301C148.56 24.9267 149.525 27.2371 148.61 30.8091Z" fill="white"/>
<path d="M181.351 37.7453C181.351 37.7453 181.936 32.1952 182.398 26.2701C182.86 20.3449 177.27 20.5101 177.27 20.5101L158.322 20.3621C158.035 20.3595 157.758 20.463 157.541 20.6531C157.325 20.8432 157.184 21.1068 157.146 21.3944L154.798 38.8086L160.215 38.8671L162.111 24.3741C162.125 24.262 162.181 24.1594 162.266 24.0867C162.352 24.0141 162.461 23.9766 162.573 23.9819C162.913 23.9991 163.545 24.0266 164.697 24.0679H167.317L165.2 38.8636H170.613L172.696 24.0679L176.145 24.0886C176.145 24.0886 177.617 24.2606 177.505 25.6266C177.392 26.9926 175.952 38.8705 175.952 38.8705L179.041 39.0391C179.041 39.0391 181.025 39.2937 181.351 37.7453Z" fill="white"/>
<path d="M79.4554 17.1307C79.4027 17.4657 79.2313 17.7712 78.9721 17.9926C78.7129 18.2139 78.3826 18.3368 78.0404 18.339L70.9045 18.1755C69.4148 18.1266 67.9434 18.5119 66.6728 19.2837C64.9882 20.3285 63.216 22.3312 62.8184 26.1699C61.8818 35.2191 71.0628 34.7418 71.7973 34.665H71.9118L75.6584 34.5916C77.1004 34.5248 77.4609 35.149 77.3025 36.067L76.7888 37.8307C76.8063 37.7707 76.63 38.4203 76.3768 38.6443C75.8713 39.0916 75.0812 38.9983 74.742 39.0122H66.8177C66.8177 39.0122 57.4429 39.0122 56.3733 31.3015C55.2513 23.2136 58.8057 18.5193 58.8057 18.5193C58.8057 18.5193 60.7666 14.0698 67.0872 13.7493C73.4078 13.4289 78.3571 13.6425 78.3571 13.6425C78.3571 13.6425 79.7924 13.6425 79.8867 14.0331C79.9574 14.27 79.6643 15.939 79.4554 17.1307Z" fill="white"/>
</g>
<defs>
<clipPath id="clip0_1724_2728">
<rect width="182.118" height="48" fill="white" transform="translate(0.15332)"/>
</clipPath>
</defs>
</svg>
