<svg width="91" height="25" viewBox="0 0 91 25" fill="none" xmlns="http://www.w3.org/2000/svg">
<g clip-path="url(#clip0_1177_12826)">
<path d="M3.86963 10.3859C3.78647 10.3308 3.18442 10.1256 3.08962 10.0955C2.54578 9.9186 0.540058 9.26269 1.15209 8.49829C2.42105 6.92778 7.40209 7.14641 8.63613 5.39565C9.79699 3.75504 10.6884 0.221797 11.7412 0.25017C12.6576 0.275205 13.3028 1.7389 13.4642 2.13946C13.4843 2.19001 13.5009 2.24186 13.5141 2.29468C13.6072 2.6752 14.3606 4.80984 19.3982 3.59982C21.6866 3.04906 23.2234 2.80372 24.2345 2.70358C24.4774 2.67912 24.7218 2.73281 24.9323 2.85688C25.1428 2.98095 25.3085 3.16897 25.4055 3.39378C25.5025 3.61859 25.5258 3.86853 25.472 4.10747C25.4181 4.34642 25.29 4.562 25.106 4.72305L25.0644 4.75977C23.7489 5.88132 20.9199 8.03265 20.4593 8.38146C20.4233 8.40952 20.3855 8.43517 20.3462 8.45824C20.0135 8.65017 18.1342 9.86185 19.3167 12.1517C20.6106 14.6552 23.5809 20.2696 23.5809 20.2696C23.5809 20.2696 25.4004 23.3957 24.8382 24.1417C24.2761 24.8877 20.243 21.5247 20.243 21.5247C20.243 21.5247 14.6533 17.2555 11.8859 17.0001C9.11843 16.7447 5.97514 19.7873 5.97514 19.7873C5.97514 19.7873 1.60113 23.616 1.03234 23.5592C0.315537 23.4841 0.555027 22.4326 0.555027 22.4326C0.588204 22.2533 0.648199 22.08 0.73298 21.9186C1.31674 20.7136 4.63965 13.804 4.69121 12.4338C4.73611 11.2371 4.21223 10.6129 3.86963 10.3859Z" fill="white"/>
<path d="M66.6765 11.4641C66.58 11.752 66.3977 12.0031 66.1542 12.1834C66.1111 12.2211 66.0589 12.247 66.0029 12.2585L63.2571 12.3387C63.1447 12.3408 63.0331 12.3565 62.9245 12.3854C62.4255 12.5206 61.2264 13.063 60.9919 15.1793C60.6343 18.4154 64.1435 18.1467 64.1435 18.1467L64.4761 18.1367L65.5173 18.11C65.5646 18.1119 65.611 18.124 65.6533 18.1453C65.6956 18.1666 65.7329 18.1968 65.7626 18.2338C65.7924 18.2708 65.8139 18.3137 65.8258 18.3597C65.8377 18.4057 65.8397 18.4537 65.8316 18.5005L65.5173 19.5722C65.4941 19.7291 65.351 19.906 65.2014 19.9177L62.6817 19.9478C62.6817 19.9478 59.0811 20.1146 58.7617 17.214C58.3992 13.9394 59.4485 12.1884 59.4485 12.1884C59.7152 11.6764 60.1146 11.246 60.6046 10.9426C61.0945 10.6392 61.6569 10.474 62.2326 10.4644C64.3664 10.4093 66.2158 10.3943 66.2158 10.3943C66.2158 10.3943 66.6798 10.3943 66.7513 10.5111C66.9276 10.8149 66.8062 11.0869 66.6765 11.4641Z" fill="white"/>
<path d="M48.8976 13.5187C48.7856 12.9209 48.5016 12.3691 48.0808 11.9314C47.6599 11.4936 47.1206 11.1891 46.5294 11.0552C45.6795 10.8633 44.3457 10.6547 42.9337 11.0552C39.817 11.9281 39.5193 15.8953 40.4124 18.08C41.244 20.1378 44.7365 20.0828 44.7365 20.0828L47.7766 20.0359C47.8527 20.0345 47.9263 20.0084 47.9862 19.9615C48.0462 19.9145 48.0894 19.8492 48.1092 19.7755C48.2166 19.4164 48.321 19.0908 48.3239 18.7159C48.3239 18.3821 48.0478 18.2052 47.7202 18.2035H46.4495C45.297 18.2035 43.2214 18.4622 42.8389 17.5359C42.7358 17.2366 42.6797 16.9229 42.6726 16.6063C42.6694 16.5467 42.6784 16.4871 42.6993 16.4313C42.7201 16.3754 42.7522 16.3245 42.7936 16.2817C42.835 16.2389 42.8848 16.2052 42.9398 16.1826C42.9948 16.1601 43.0539 16.1492 43.1133 16.1506L46.9884 16.2424C46.9884 16.2424 48.2025 16.2792 48.4353 16.2174C48.5146 16.195 48.5868 16.1526 48.6451 16.0941C48.7033 16.0357 48.7456 15.9632 48.7679 15.8836C48.8812 15.6278 48.9509 15.3548 48.9741 15.0758C49.0107 14.5556 48.9851 14.0328 48.8976 13.5187ZM45.6795 14.7804L42.9869 14.722C42.5578 14.722 42.616 13.8875 43.1416 13.1465C43.6023 12.5039 44.7648 12.4972 44.9943 12.5072H45.0725C46.9119 12.7092 46.8487 13.6355 46.8487 13.9109C46.8487 14.5684 46.719 14.7837 45.6795 14.7804Z" fill="white"/>
<path d="M53.1808 7.17092C54.3754 7.10047 54.2027 7.69929 54.2027 7.69929C54.2027 7.69929 52.8306 17.7905 52.684 18.9999C52.5829 19.8788 51.9797 20.1469 50.5651 20.1821C50.5026 20.1787 50.4415 20.1618 50.3858 20.1325C50.3301 20.1031 50.281 20.062 50.2418 20.0118C50.2026 19.9617 50.1741 19.9035 50.1582 19.8413C50.1423 19.779 50.1393 19.7139 50.1495 19.6504L51.6391 7.21621L53.1808 7.17092Z" fill="white"/>
<path d="M56.0978 7.20647C55.9887 7.20946 55.8843 7.25119 55.8039 7.32401C55.7235 7.39684 55.6724 7.49585 55.66 7.60288L54.2193 19.5584C54.2071 19.6296 54.21 19.7026 54.2279 19.7726C54.2457 19.8427 54.2781 19.9084 54.323 19.9655C54.3679 20.0225 54.4242 20.0698 54.4886 20.1043C54.5529 20.1388 54.6238 20.1597 54.6967 20.1657C55.9704 20.1998 56.7168 19.8642 56.815 18.9999C56.9563 17.7664 58.2712 7.70836 58.2712 7.70836C58.2712 7.70836 58.4436 7.10099 57.2371 7.17074L56.0978 7.20647Z" fill="white"/>
<path d="M73.2798 10.6204C71.1245 9.92942 68.2091 11.1407 67.3371 14.0702C66.4651 16.9997 67.5937 19.1897 69.7474 19.8807C71.9011 20.5716 74.8477 19.7937 75.8579 16.389C76.8681 12.9844 75.4335 11.3047 73.2798 10.6204ZM73.7997 15.6546C73.3917 17.2674 72.0393 18.4987 70.8283 18.1758C69.6174 17.8529 69.0185 16.5446 69.4299 14.9318C69.8412 13.319 71.3367 12.0876 72.5559 12.4005C73.775 12.7134 74.2094 14.0367 73.7997 15.6546Z" fill="white"/>
<path d="M89.962 19.1227C89.962 19.1227 90.2505 16.3476 90.4787 13.385C90.7068 10.4225 87.9474 10.505 87.9474 10.505L78.594 10.4311C78.4525 10.4298 78.3155 10.4815 78.2086 10.5765C78.1018 10.6716 78.0324 10.8034 78.0136 10.9472L76.8545 19.6543L79.5283 19.6835L80.4643 12.4371C80.4714 12.381 80.4988 12.3297 80.5411 12.2934C80.5834 12.257 80.6374 12.2383 80.6925 12.2409C80.8602 12.2495 81.1722 12.2633 81.7409 12.284H83.0342L81.9891 19.6818H84.6613L85.6896 12.284L87.3922 12.2943C87.3922 12.2943 88.1185 12.3803 88.0632 13.0633C88.0078 13.7463 87.2966 19.6852 87.2966 19.6852L88.8214 19.7695C88.8214 19.7695 89.801 19.8969 89.962 19.1227Z" fill="white"/>
<path d="M39.6632 8.81534C39.6372 8.98285 39.5526 9.1356 39.4246 9.24629C39.2967 9.35697 39.1336 9.41838 38.9647 9.41952L35.4422 9.33774C34.7069 9.31329 33.9806 9.50596 33.3533 9.89184C32.5218 10.4142 31.647 11.4156 31.4507 13.335C30.9884 17.8596 35.5204 17.6209 35.8829 17.5825H35.9395L37.7889 17.5458C38.5007 17.5124 38.6787 17.8245 38.6005 18.2835L38.3469 19.1654C38.3555 19.1354 38.2685 19.4601 38.1435 19.5721C38.0186 19.6842 37.504 19.7492 37.3366 19.7561H33.4249C33.4249 19.7561 28.823 19.9447 28.2692 15.9007C27.7154 11.8568 29.47 9.50964 29.47 9.50964C29.47 9.50964 30.4379 7.28489 33.5579 7.12466C36.6779 6.96444 39.121 7.07126 39.121 7.07126C39.121 7.07126 39.8295 7.07126 39.8761 7.26653C39.911 7.38502 39.7663 8.21952 39.6632 8.81534Z" fill="white"/>
</g>
<defs>
<clipPath id="clip0_1177_12826">
<rect width="89.8983" height="24" fill="white" transform="translate(0.517578 0.25)"/>
</clipPath>
</defs>
</svg>
