<svg width="360" height="48" viewBox="0 0 360 48" fill="none" xmlns="http://www.w3.org/2000/svg">
<path fill-rule="evenodd" clip-rule="evenodd" d="M64.2959 14.1118H68.0183V34.5453H64.2959V14.1118Z" fill="white"/>
<path fill-rule="evenodd" clip-rule="evenodd" d="M75.7801 14.1118V34.5453H71.9785V14.1118H75.7801Z" fill="white"/>
<path fill-rule="evenodd" clip-rule="evenodd" d="M185.076 14.0329C187.937 14.6768 187.265 18.8482 184.047 18.3888C181.276 17.5493 182.223 13.6012 185.076 14.0329Z" fill="white"/>
<path fill-rule="evenodd" clip-rule="evenodd" d="M300.075 14.1118C301.408 14.324 301.652 15.8011 301.408 16.94C301.366 17.1478 301.283 17.345 301.163 17.5198C300.578 18.3442 299.401 18.4195 298.44 18.1985C298.261 18.1595 298.09 18.0881 297.936 17.9878C297.091 17.4184 297.047 16.1338 297.391 15.1897C297.468 14.975 297.588 14.7787 297.745 14.6137C297.903 14.4487 298.093 14.3187 298.304 14.2322C298.87 14.0213 299.485 13.9795 300.075 14.1118Z" fill="white"/>
<path fill-rule="evenodd" clip-rule="evenodd" d="M278.929 23.2197C278.546 24.1859 278.022 25.2092 277.939 26.3084C277.406 30.2581 280.029 34.5135 284.077 34.862C286.164 34.9919 288.293 34.4866 289.7 32.9612C289.779 33.4853 289.805 34.0159 289.779 34.5452H293.58V14.1909H289.779C289.805 16.7126 289.778 19.2206 289.7 21.7149C289.668 21.6824 289.636 21.6499 289.602 21.6183C288.91 20.9643 288.053 20.5102 287.123 20.3043C286.496 20.1566 285.857 20.0702 285.215 20.0461C285.215 20.0461 281.148 19.6398 278.929 23.2197ZM285.752 32.0037C280.482 31.9807 280.482 23.7226 285.752 23.7004C291.022 23.7218 291.022 31.9815 285.752 32.0037Z" fill="white"/>
<path fill-rule="evenodd" clip-rule="evenodd" d="M30.5007 15.1418C32.434 14.543 34.5019 14.4733 36.451 15.0206C37.3085 15.2529 38.1256 15.6142 38.8745 16.0922C39.6841 16.6704 40.4045 17.3641 41.0129 18.1513L41.4881 18.7849L41.7257 19.2601C41.9474 19.7781 42.3783 20.4766 42.3593 21.2401H38.2409C37.2976 19.7171 36.3346 18.4919 34.4393 18.1513C32.0926 17.5882 29.4719 18.8641 28.341 20.9233C27.1712 22.6269 27.2021 24.85 27.549 26.8633C27.7319 28.0877 28.9009 29.4848 29.8457 30.3085C31.0282 31.1543 32.7761 31.8133 34.1938 31.4513C34.3601 31.4093 34.5272 31.3721 34.6951 31.3325C34.9444 31.2796 35.1876 31.2018 35.4214 31.1005C36.0627 30.8235 36.6375 30.4129 37.1075 29.8961C37.5774 29.3793 37.9317 28.7682 38.1466 28.1036C38.2472 27.7986 38.3201 27.5389 38.3201 27.4177C36.4858 27.3385 34.6378 27.3121 32.7761 27.3385C32.7494 26.3082 32.7759 25.2773 32.8553 24.2497H42.6761C42.9652 28.6928 41.1293 32.9529 36.6569 34.4664C32.2003 35.6814 27.4816 34.3469 24.9473 30.4851C24.7935 30.2432 24.6557 29.9916 24.5346 29.7319C24.5109 29.6828 24.4847 29.6337 24.4554 29.5854C24.3132 29.3494 24.1934 29.1007 24.0974 28.8425C23.9478 28.4251 23.7482 27.9713 23.7482 27.9713L23.3522 26.2289C23.0916 24.618 23.4258 23.0783 23.7482 21.5561L23.9858 20.8433C23.9858 20.8433 24.461 19.6743 24.857 19.1801L25.253 18.6257C25.7226 17.9019 26.3895 17.2485 27.0746 16.725C27.0738 16.7257 28.2507 15.8387 30.5007 15.1418Z" fill="white"/>
<path fill-rule="evenodd" clip-rule="evenodd" d="M248.052 27.4873C248.544 29.2297 248.127 31.1772 247.014 32.6455C245.098 34.7839 242 35.1292 239.188 34.7047C239.178 34.7028 239.168 34.7002 239.158 34.6968C237.394 34.4291 235.436 33.0249 234.142 31.0425C236.657 28.1652 235.677 29.7809 238.453 30.9768L238.467 30.9839C238.467 30.9839 242.725 32.1941 244.084 29.8751C244.692 28.8915 244.583 27.2014 242.354 26.7072C237.523 25.6435 235.773 24.0144 235.773 24.0144C235.77 24.0129 235.766 24.0108 235.764 24.008C233.863 22.2585 233.845 19.1428 235.209 17.1177C236.735 15.011 239.547 14.3116 242.1 14.6625C244.099 14.9001 245.97 15.9835 246.931 17.7513L246.935 17.7592C246.935 17.7592 247.72 19.4073 247.674 20.4892C246.398 20.5272 245.122 20.5399 243.844 20.5272C243.759 19.0636 241.74 17.421 240.032 17.9469C238.828 18.3175 238.008 19.3004 238.38 20.6064C238.604 21.3984 239.637 22.0898 240.28 22.3488C242.157 23.0275 244.125 23.2382 245.809 24.3977C245.808 24.3985 247.449 25.5136 248.052 27.4873Z" fill="white"/>
<path fill-rule="evenodd" clip-rule="evenodd" d="M142.863 15.4585C140.343 14.6379 134.151 14.9833 132.25 14.9833V34.5455C135.872 34.3967 139.739 34.9891 143.18 33.9119C148.137 32.0112 149.531 27.5863 148.803 22.5864C148.665 20.5763 147.676 18.6605 146.189 17.3592C144.703 16.058 142.863 15.4585 142.863 15.4585ZM142.052 30.5333C141.997 30.9491 135.909 31.033 136.21 30.9808V18.5464C137.727 18.6914 139.982 18.0815 142.353 19.1888C146.031 20.844 145.532 29.6423 142.052 30.5333Z" fill="white"/>
<path fill-rule="evenodd" clip-rule="evenodd" d="M255.366 15.8491L255.484 15.9339V20.0522C256.606 20.1314 257.741 20.1578 258.89 20.1314V23.3786C257.741 23.3528 256.606 23.3792 255.484 23.4578C255.529 25.9985 255.358 30.9026 256.614 31.4142C256.747 31.4704 256.884 31.5155 257.025 31.5488C257.497 31.6637 257.984 31.7017 258.469 31.6613L259.048 31.6154C258.987 32.5539 259.175 33.5645 258.969 34.4666C257.122 35.0344 254.613 35.2055 253.108 33.833C252.167 32.9665 251.703 31.6946 251.762 30.4274L251.604 23.3786H249.228V20.1314C252.237 20.1433 251.832 20.0206 251.841 16.6467C252.962 16.2198 254.208 16.2324 255.366 15.8491Z" fill="white"/>
<path fill-rule="evenodd" clip-rule="evenodd" d="M104.58 19.6831C105.214 19.6974 105.305 19.6831 105.878 19.9722C105.878 19.9722 105.516 22.1058 105.561 23.2194C103.863 22.9097 101.467 23.3176 101.047 25.2786C100.526 28.2501 100.805 31.491 100.651 34.5449H96.9287V20.1306H100.572V22.3585L100.685 22.2001C100.817 22.0052 100.934 21.8011 101.036 21.5894C101.218 21.2251 101.722 20.7784 102.181 20.4917C102.578 20.2413 102.998 20.0292 103.435 19.8581C103.604 19.7924 104.379 19.6831 104.58 19.6831Z" fill="white"/>
<path fill-rule="evenodd" clip-rule="evenodd" d="M212.638 26.071C212.26 28.7171 212.579 31.7679 212.479 34.5454H208.757V20.1311H212.558V21.5567C212.714 21.5736 212.823 21.5358 212.888 21.4434C212.999 21.2747 213.141 21.1277 213.304 21.0094C213.304 21.0094 217.902 18.3515 220.922 21.5693C221.81 22.5314 222.336 23.7727 222.409 25.0803C222.606 28.215 222.37 31.398 222.458 34.5454H218.736C218.748 31.8114 218.738 29.0777 218.708 26.3443C218.706 25.4886 218.388 24.6637 217.816 24.0277C217.453 23.62 216.972 23.3373 216.439 23.2199C215.244 22.9474 213.826 23.5113 213.271 24.5662C213.271 24.5662 212.922 24.948 212.638 26.071Z" fill="white"/>
<path fill-rule="evenodd" clip-rule="evenodd" d="M93.2821 32.1672C93.3551 32.1081 93.4016 32.0225 93.4116 31.9291C93.4215 31.8357 93.394 31.7422 93.3352 31.6691C93.321 31.6514 93.305 31.6353 93.2876 31.6208C92.7261 31.1139 92.0688 30.0756 91.4748 30.1556C91.4302 30.1621 91.3886 30.1816 91.3552 30.2118C91.0297 30.4977 88.8643 32.229 84.8838 31.4624C83.8486 31.2636 82.8317 30.1429 82.587 29.0349C82.5733 28.9747 82.5716 28.9123 82.582 28.8515C82.5925 28.7906 82.6148 28.7324 82.6478 28.6801C82.6807 28.6279 82.7237 28.5827 82.7741 28.5471C82.8246 28.5115 82.8816 28.4861 82.9418 28.4726C82.9758 28.4647 83.0106 28.4607 83.0456 28.4607H93.7074C93.7704 28.4607 93.8308 28.4357 93.8754 28.3911C93.92 28.3466 93.945 28.2861 93.945 28.2231V28.2176L93.9751 26.8276V26.811C93.9545 26.2883 93.9371 26.2811 93.922 25.7545C93.922 25.7283 93.827 25.0789 93.789 24.9031C93.735 24.6495 93.6529 24.4027 93.5442 24.1673C93.4991 24.0707 93.4484 23.9535 93.3969 23.8212C93.3889 23.7987 93.3788 23.777 93.3668 23.7563C92.4252 22.0804 91.0408 20.5233 88.9824 20.079C88.9583 20.0712 88.9337 20.0653 88.9087 20.0616C87.1663 19.7955 85.2726 19.6656 83.5833 20.22C83.5833 20.22 79.7089 21.2852 78.8686 25.3806C78.2239 28.5249 79.1062 31.5289 81.5804 33.3624C82.2485 33.852 83.0134 34.1933 83.8241 34.3634C85.7407 34.7682 89.8116 35.1428 93.2821 32.1672ZM88.1119 23.0363C89.2999 23.3531 89.6492 24.3788 89.9399 25.5382C89.9438 25.5536 89.9446 25.5697 89.9423 25.5854C89.94 25.6011 89.9346 25.6162 89.9264 25.6298C89.9183 25.6434 89.9075 25.6553 89.8947 25.6647C89.8819 25.6742 89.8674 25.681 89.852 25.6848C89.8424 25.6872 89.8326 25.6886 89.8227 25.6887H82.8681C82.8434 25.6887 82.8196 25.6789 82.8021 25.6613C82.7845 25.6438 82.7747 25.62 82.7747 25.5953C82.7743 25.59 82.7743 25.5847 82.7747 25.5794C82.9434 24.6655 83.116 24.3162 83.5437 23.8925C83.5849 23.8513 83.6229 23.8093 83.6657 23.7673C83.9358 23.4901 85.2972 22.2831 88.1119 23.0363Z" fill="white"/>
<path fill-rule="evenodd" clip-rule="evenodd" d="M158.089 31.8194C156.624 31.6095 155.339 30.3645 155.032 28.8644C155.023 28.8235 155.024 28.7812 155.034 28.7406C155.044 28.7 155.063 28.6621 155.09 28.6298C155.116 28.5974 155.149 28.5713 155.187 28.5534C155.225 28.5355 155.266 28.5262 155.308 28.5263H166.138C166.208 28.5261 166.275 28.5006 166.326 28.4544C166.378 28.4083 166.411 28.3448 166.419 28.276C166.553 27.1387 166.424 25.9697 166.231 24.834C166.228 24.814 166.223 24.7943 166.215 24.7754L165.916 24.0269C165.912 24.0168 165.907 24.007 165.902 23.9976C163.93 20.2697 161.051 19.4706 156.89 19.9719H156.872C156.706 20.002 154.227 20.4938 152.408 23.1019C151.531 24.3644 151.051 25.8599 151.03 27.3969C151.02 27.6921 151.043 27.9874 151.098 28.2776V28.295C151.125 28.5707 151.17 28.8443 151.234 29.1139C151.567 30.5324 152.377 31.7885 153.484 32.7365C154.275 33.425 155.17 33.9844 156.135 34.3942C157.129 34.8028 158.337 34.9232 159.28 34.8876C162.936 34.627 165.176 32.7025 165.826 32.0625C165.852 32.0364 165.873 32.0052 165.888 31.9708C165.902 31.9364 165.91 31.8994 165.91 31.8621C165.91 31.8248 165.902 31.7879 165.888 31.7535C165.873 31.7191 165.852 31.6879 165.826 31.6618L164.356 30.2164C164.306 30.1672 164.24 30.1384 164.17 30.1355C164.1 30.1325 164.032 30.1557 163.978 30.2005C163.163 30.865 162.218 31.3522 161.204 31.6309C160.19 31.9097 159.129 31.9738 158.089 31.8194ZM157.435 23.0615C159.277 22.4279 160.994 22.9823 162.003 24.5259C162.02 24.5529 162.032 24.5822 162.041 24.613C162.129 24.9298 162.316 25.0399 162.353 25.3638C162.357 25.4031 162.353 25.4429 162.341 25.4805C162.329 25.5181 162.309 25.5527 162.282 25.5821C162.256 25.6115 162.223 25.6349 162.187 25.6509C162.151 25.667 162.112 25.6752 162.072 25.6751H155.527C155.481 25.675 155.436 25.6637 155.395 25.6423C155.355 25.6209 155.32 25.5899 155.294 25.5521C155.268 25.5142 155.252 25.4707 155.247 25.4252C155.242 25.3797 155.248 25.3336 155.264 25.291C155.938 23.5098 157.435 23.0615 157.435 23.0615Z" fill="white"/>
<path fill-rule="evenodd" clip-rule="evenodd" d="M46.0018 22.9034C44.8692 24.7249 44.6895 26.9037 44.893 29.0017C45.7753 33.0536 48.9322 35.4414 53.209 34.7833C54.3296 34.6605 55.1945 34.0095 56.0601 33.4369C56.2771 33.2524 56.3912 32.8302 56.6937 32.8825V34.5457H60.3369V20.1314H56.6145C56.6409 20.6607 56.6143 21.1913 56.5353 21.7154C55.1295 20.1401 53.1844 19.7393 51.1997 19.8605C50.3458 19.9153 49.5085 20.1218 48.7271 20.4703C48.6534 20.5028 48.5821 20.5337 48.5148 20.5606C46.694 21.4556 46.0018 22.9034 46.0018 22.9034ZM52.63 31.4173C47.4329 31.3951 47.4329 23.1465 52.63 23.1251C57.8287 23.1473 57.8279 31.3959 52.63 31.4173Z" fill="white"/>
<path fill-rule="evenodd" clip-rule="evenodd" d="M173.474 19.916C174.276 19.8611 175.082 19.8797 175.881 19.9715L175.9 19.9754C177.085 20.2332 178.126 20.9352 178.81 21.9372C178.817 21.9479 178.823 21.9593 178.828 21.9713C179.111 22.6666 179.692 23.2606 179.633 24.0835C179.629 24.1291 179.608 24.1715 179.574 24.2023C179.54 24.2331 179.496 24.25 179.45 24.2498H176.203C176.177 24.2498 176.151 24.244 176.126 24.2329C176.102 24.2219 176.081 24.2058 176.064 24.1857C175.972 24.0826 175.901 23.9633 175.853 23.8341C175.745 23.5661 175.569 23.3305 175.344 23.1498L175.333 23.1411C174.911 22.8132 174.117 22.6223 173.605 22.8718C172.185 23.5632 172.569 24.8866 173.749 25.4378C174.236 25.6651 174.683 25.7388 175.166 25.8338L175.182 25.8378C176.798 26.2837 178.498 26.9371 179.404 28.5147C179.409 28.5236 179.413 28.5329 179.417 28.5425C179.782 29.4327 179.751 30.4631 179.65 31.4206C179.621 31.7084 179.539 31.9883 179.408 32.2458V32.2506C179.167 32.7078 178.838 33.1125 178.439 33.4408C178.04 33.7691 177.58 34.0144 177.085 34.1625C175.955 34.5122 174.775 34.6728 173.594 34.6377C172.677 34.6098 171.777 34.3793 170.96 33.9627C170.143 33.5462 169.428 32.9539 168.867 32.2284L168.828 32.1769C168.808 32.1504 168.795 32.1188 168.791 32.0856C168.788 32.0524 168.793 32.0188 168.807 31.9884C169.109 31.335 169.55 30.7556 170.1 30.2912C170.134 30.2618 170.177 30.2457 170.222 30.2457C170.267 30.2457 170.31 30.2618 170.344 30.2912C171.453 31.278 172.77 31.9718 174.304 31.8483C175.227 31.8316 176.556 30.7973 175.888 29.8683C175.151 28.5496 173.426 28.6985 172.175 28.2843L172.156 28.2771C170.611 27.5992 169.556 27.2373 169.077 25.5883C168.56 23.8103 168.76 23.0159 169.394 21.8659C169.519 21.6371 170.084 21.0359 170.386 20.8039C171.369 20.0602 172.242 19.9802 173.474 19.916Z" fill="white"/>
<path fill-rule="evenodd" clip-rule="evenodd" d="M200.913 33.1468C200.992 33.0335 201.083 32.9345 201.23 32.9583C201.248 33.2639 201.239 33.5705 201.204 33.8746C201.174 34.136 201.162 34.3989 201.155 34.6619C201.143 35.1117 201.069 35.5846 200.812 35.9291C198.113 39.5651 193.547 36.7591 193.547 36.7591C193.161 36.5943 192.835 36.1912 192.439 35.9671L190.696 37.9471C191.297 39.0717 192.582 39.76 193.706 40.3231C195.592 41.2141 197.656 41.0565 199.725 40.7983C201.877 40.3753 203.653 38.785 204.477 36.8383C205.458 31.4052 204.745 25.6711 204.952 20.1272V20.048H201.23V21.7112L200.913 21.4736C200.715 21.2027 200.31 20.84 199.914 20.5937C199.826 20.5407 199.734 20.4936 199.639 20.4527L199.097 20.2238C198.969 20.1699 198.837 20.1288 198.701 20.101C198.451 20.0472 198.139 19.9688 198.139 19.9688C196.456 19.9284 195.013 19.6797 193.07 20.6024C193.07 20.6024 190.852 21.5274 190.06 23.7704C189.203 26.1978 189.308 28.9183 190.219 31.2151C190.791 32.1291 191.466 33.1832 192.516 33.7495C195.136 35.1632 197.591 34.7704 198.947 34.3467C199.539 34.159 200.093 33.8675 200.582 33.4858C200.708 33.3896 200.82 33.2754 200.913 33.1468ZM201.071 28.1271C201.016 28.8201 200.655 29.3682 200.359 29.9487C199.101 31.5113 197.016 31.9374 195.211 30.9783C193.559 29.978 192.879 27.8895 193.389 25.9887L193.398 25.9666C193.766 25.0392 194.409 24.247 195.242 23.6967C195.483 23.5359 195.749 23.4148 196.029 23.3379L196.254 23.2754C196.611 23.2278 196.973 23.2121 197.333 23.2286C198.036 23.2509 198.72 23.4565 199.318 23.825C199.685 24.0523 200.001 24.3523 200.248 24.7065C200.726 25.3815 201.006 26.1773 201.054 27.0033C201.084 27.3782 201.091 27.7545 201.075 28.1303L201.071 28.1271Z" fill="white"/>
<path fill-rule="evenodd" clip-rule="evenodd" d="M111.896 35.0209C112.221 34.2638 111.617 33.0995 111.421 32.5657C111.254 32.2125 110.946 31.3778 110.946 31.3778C110.197 29.2481 109.449 27.1136 108.57 25.0418C107.956 23.4214 107.544 21.6909 106.827 20.171C108.174 20.1314 109.52 20.1182 110.866 20.1314L111.025 20.6066L114.034 29.5562L117.361 20.1314L121.241 20.1267C119.474 24.9745 117.677 29.9363 115.935 34.7833C115.178 36.8425 114.365 38.8772 113.678 40.9609L109.689 40.9973L111.896 35.0209Z" fill="white"/>
<path fill-rule="evenodd" clip-rule="evenodd" d="M186.503 20.0518V34.5453H182.701V20.0518H186.503Z" fill="white"/>
<path fill-rule="evenodd" clip-rule="evenodd" d="M269.503 31.1396C272.336 29.9904 271.15 22.8973 271.404 20.1309H275.047V34.5452H271.325C271.351 34.0685 271.325 33.5904 271.246 33.1196C269.653 34.9 267.159 35.2144 264.91 34.5452C262.96 33.8688 261.691 32.0433 261.504 30.0308C261.427 26.7329 261.4 23.433 261.425 20.1309H265.147C265.147 20.1309 264.782 26.6466 265.385 29.318C265.385 29.318 266.396 32.3997 269.503 31.1396Z" fill="white"/>
<path fill-rule="evenodd" clip-rule="evenodd" d="M297.461 20.1309H301.183V34.5452H297.461V20.1309Z" fill="white"/>
<path fill-rule="evenodd" clip-rule="evenodd" d="M312.061 19.6309C301.475 19.6808 301.476 34.9956 312.061 35.0463C322.646 34.9964 322.645 19.6831 312.061 19.6309ZM312.061 31.4569C306.405 31.43 306.405 23.2463 312.061 23.2202C317.718 23.2471 317.717 31.4308 312.061 31.4569Z" fill="white"/>
</svg>
