<svg width="107" height="48" viewBox="0 0 107 48" fill="none" xmlns="http://www.w3.org/2000/svg">
<g clip-path="url(#clip0_1730_2917)">
<path d="M35.8242 3.47729V8.72729H30.097H19.1026C16.8943 8.72729 14.5711 8.8003 12.7457 10.0432C8.86413 12.6862 8.01206 17.922 8.1424 20.6591V27.3409C8.1424 34.2137 11.4833 38.7955 19.1197 38.7955H29.6197V25.9091H17.6879V21.1364H35.8242V44.0455H22.4606C18.2862 44.0455 13.2275 44.6197 9.47145 42.7982C9.34894 42.7387 9.22412 42.6772 9.09695 42.6137C3.36968 39.75 0.98331 33.0682 0.824219 28.1364C0.824219 27.9773 0.983308 25.3364 0.983308 19.2273C0.983308 7.00911 11.4833 3.63639 16.7333 3.47729H35.8242Z" fill="white"/>
<path d="M71.0802 8.25V3H54.3756C47.1211 3 42.4438 9.04545 41.012 12.0682C39.7393 14.4545 37.7665 21.7091 40.0574 31.6364C42.3483 41.5636 50.2393 43.7273 53.8983 43.5682H66.3074L71.0802 38.3182C69.6483 38.4773 64.6847 38.7 56.2847 38.3182C47.8847 37.9364 46.262 29.4091 46.262 25.9091V19.2273C46.262 11.5909 51.6711 8.40909 54.3756 8.25H56.2847H71.0802Z" fill="white"/>
<path d="M72.417 8.25V3H106.781L101.531 8.25H92.9397V43.5682H86.2579V8.25H72.417Z" fill="white"/>
</g>
<defs>
<clipPath id="clip0_1730_2917">
<rect width="106" height="48" fill="white" transform="translate(0.558594)"/>
</clipPath>
</defs>
</svg>
