<svg width="180" height="48" viewBox="0 0 180 48" fill="none" xmlns="http://www.w3.org/2000/svg">
<path d="M164.54 25.8364V31.8341L167.289 25.8364H171L167.578 32.968L171 41.5492H166.938L164.54 34.7624V41.5492H160.96V25.8364H164.54Z" fill="white"/>
<path d="M157.448 25.8364H153.432V41.5492H157.448V25.8364Z" fill="white"/>
<path d="M151.422 25.8364V29.1219H147.888V41.5492H144.082V29.1675H140.88V25.8364H151.422Z" fill="white"/>
<path d="M132.508 25.8364C127.841 25.8364 127.328 29.6667 127.328 29.6667V41.5492H131.109V36.2141H134.819V41.5492H138.372V29.0977C138.372 29.0977 137.179 25.8364 132.508 25.8364ZM134.819 33.3156H131.126V30.5367C131.126 30.5367 131.101 29.0977 132.97 29.0977C134.839 29.0977 134.819 30.5573 134.819 30.5573V33.3156Z" fill="white"/>
<path d="M52.4097 5.05469C47.5331 5.05469 47 9.13028 47 9.13028V21.7812H50.9564V16.1021H54.832V21.7812H58.5464V8.53654C58.5464 8.53654 57.2949 5.05469 52.4097 5.05469ZM54.832 13.0161H50.9644V10.0593C50.9644 10.0593 50.9363 8.53654 52.8902 8.53654C54.8445 8.53654 54.832 10.0795 54.832 10.0795V13.0161Z" fill="white"/>
<path d="M101.885 5.05469C97.2117 5.05469 96.7012 9.13028 96.7012 9.13028V21.7812H100.492V16.1021H104.187V21.7812H107.746V8.53654C107.746 8.53654 106.558 5.05469 101.885 5.05469ZM104.187 13.0161H100.492V10.0593C100.492 10.0593 100.465 8.52438 102.337 8.52438C104.21 8.52438 104.187 10.0795 104.187 10.0795V13.0161Z" fill="white"/>
<path d="M60.5576 5.05469H64.6721V18.3362H70.598V21.7812H60.5576V5.05469Z" fill="white"/>
<path d="M72.1025 5.05469H76.2191V18.3362H82.1429V21.7812H72.1025V5.05469Z" fill="white"/>
<path d="M52.022 25.8364H48.0059V41.5492H52.022V25.8364Z" fill="white"/>
<path d="M54.5332 41.5492H58.4394V33.2765L62.6418 41.5492H66.5816V25.8364H62.6629V33.8843L58.5729 25.8364H54.5332V41.5492Z" fill="white"/>
<path d="M69.0918 25.8364V41.5492H73.4598V35.3332H78.6301V32.3397H73.3655V29.0714H78.6301V25.8364H69.0918Z" fill="white"/>
<path d="M105.235 30.3663V28.6922C105.235 28.6922 105.167 25.8841 101.536 25.8511C97.9053 25.8181 94.6924 25.8511 94.6924 25.8511V41.5492H98.817V35.2568H100.881C101.122 35.3242 101.333 35.4773 101.477 35.6896C101.621 35.9019 101.689 36.1601 101.67 36.4196V41.5492H105.223V36.1475C105.223 36.1475 104.765 34.061 103.62 34.028C103.632 34.028 105.235 33.0342 105.235 30.3663ZM101.682 31.224C101.589 31.5847 101.383 31.9024 101.097 32.1266C100.811 32.3507 100.461 32.4685 100.104 32.4611H98.6433V29.2448C98.6433 29.2448 99.3616 29.2118 100.411 29.2448C101.462 29.2777 101.686 29.9292 101.718 30.8529C101.728 30.9772 101.72 31.1022 101.695 31.224H101.682Z" fill="white"/>
<path d="M110.256 5.05469V17.8557C110.955 23.0823 120.582 23.0823 121.3 17.9003V5.05469H117.816V16.0959C117.816 16.0959 117.977 18.2814 116.034 18.2814C115.504 18.2908 114.99 18.0936 114.591 17.7277C114.191 17.3617 113.933 16.8528 113.867 16.2986V5.05469H110.256Z" fill="white"/>
<path d="M101.219 1H98.207V3.53432H101.219V1Z" fill="white"/>
<path d="M106.242 1H103.229V3.53432H106.242V1Z" fill="white"/>
<path d="M88.859 12.2381V15.4221H90.7456V16.6479C90.7255 17.6907 90.1371 18.6618 88.8756 18.6379C88.5648 18.6283 88.2596 18.5576 87.9769 18.4299C87.6948 18.3022 87.4408 18.1202 87.2309 17.8944C87.0206 17.6687 86.8579 17.4038 86.753 17.1153C86.6476 16.8267 86.6019 16.5204 86.618 16.2141C86.618 15.3863 86.618 10.2442 86.618 10.2442C86.618 10.2442 86.6501 8.14671 88.7385 8.14671C90.8264 8.14671 90.7536 9.99742 90.7536 9.99742H94.6839C94.6839 9.99742 95.22 4.54883 89.1657 4.54883C84.9412 4.60453 82.7444 6.67411 82.6475 9.87005V15.6131C82.6435 16.4254 82.8027 17.2305 83.1154 17.9817C83.4287 18.7328 83.89 19.4151 84.4724 19.9889C85.0547 20.5628 85.7465 21.0168 86.508 21.3245C87.2691 21.6324 88.0849 21.7879 88.9077 21.7821C94.591 21.7821 94.5509 18.6578 94.5509 18.6578V12.2222L88.859 12.2381Z" fill="white"/>
<path d="M86.9963 25.8364C83.437 25.8819 81.2292 27.5478 81.1428 30.3834V36.9559C81.1363 37.5678 81.2678 38.174 81.5274 38.7326C81.7874 39.2912 82.1704 39.7889 82.6494 40.1924C84.7754 42.0733 89.7162 42.0652 91.3518 39.7504C91.9076 39.0235 92.2007 38.1426 92.1867 37.2409V29.4616C92.1867 29.4616 92.0918 25.8364 86.9963 25.8364ZM88.7177 37.4107C88.7177 37.7077 88.5947 37.9926 88.3764 38.2029C88.1575 38.4128 87.8608 38.5309 87.5516 38.5309H85.7398C85.5862 38.5314 85.434 38.503 85.292 38.4467C85.1499 38.3905 85.0209 38.3083 84.9119 38.2039C84.8035 38.1 84.7172 37.9763 84.6579 37.84C84.5992 37.7042 84.5691 37.5582 84.5691 37.4107V29.5567C84.5691 29.2585 84.6921 28.9725 84.9119 28.7616C85.1313 28.5508 85.429 28.4323 85.7398 28.4323H87.5516C87.7052 28.4323 87.8568 28.4614 87.9989 28.518C88.1404 28.5746 88.2694 28.6574 88.3779 28.7619C88.4863 28.8664 88.5716 28.9903 88.6304 29.1267C88.6886 29.2631 88.7182 29.4092 88.7177 29.5567V37.4107Z" fill="white"/>
<path d="M108.747 25.8529V41.5492H112.186V31.4726L115.542 41.4134H118.056L120.969 31.654V41.4134H124.812V25.8364H119.561L116.552 34.2639L113.611 25.8447L108.747 25.8529Z" fill="white"/>
<path fill-rule="evenodd" clip-rule="evenodd" d="M17.784 4.82124C15.4014 5.2542 13.007 6.2497 10.9736 7.5643C9.01821 8.82842 7.20139 10.6292 5.8978 12.5692C-3.22673 26.1485 8.49959 44.798 24.5945 41.9255C27.2797 41.4462 29.8457 40.4791 32.0861 38.8913C34.1289 37.4435 35.8152 35.664 37.1633 33.5416C42.3672 25.3479 40.1933 13.795 32.4267 8.07472C28.316 5.04723 22.7833 3.91282 17.784 4.82124ZM12.3357 9.94233C14.5234 8.45075 16.8883 7.62876 19.4867 7.21915C21.1052 6.96404 22.654 7.15675 24.254 7.44094C38.0821 9.89712 42.3062 29.4687 30.0429 37.0048C28.2771 38.0903 26.3054 38.9615 24.254 39.2847C19.1974 40.0813 14.1223 38.7352 10.2976 35.2009C4.728 30.0543 3.66816 21.0059 7.75497 14.632C8.94769 12.7719 10.5198 11.1804 12.3357 9.94233ZM7.56857 24.69C7.33746 24.7817 7.10996 24.8718 6.88749 24.9464C6.88749 21.1841 7.29963 17.7888 9.53969 14.632C14.3786 7.81284 24.7982 6.74307 31.0341 12.1593C33.9788 14.7169 35.4038 18.048 35.9238 21.8521C36.1223 23.3049 36.3376 25.2905 35.1508 26.3216C35.9184 30.3522 31.9898 34.6281 28.6809 36.2921C27.8789 35.1297 26.9689 34.0163 25.8989 33.0877C25.656 32.8769 25.3814 32.6826 25.1037 32.4861C24.4316 32.0105 23.7415 31.5222 23.4383 30.7553C23.1429 30.0081 23.4266 29.2024 23.6985 28.4303C24.0045 27.5614 24.2955 26.735 23.7289 26.0826C22.9271 25.1594 21.7716 24.9428 20.617 24.7264C19.7476 24.5634 18.8787 24.4006 18.1618 23.9362C16.8386 23.0791 16.6293 21.4257 16.445 19.9691C16.4373 19.9088 16.4297 19.8488 16.4221 19.7892C15.7537 20.347 15.2445 21.1855 14.7365 22.022C14.1095 23.0543 13.4844 24.0835 12.5644 24.5779C11.9211 24.9235 11.3034 24.7028 10.6796 24.4799C10.3275 24.354 9.97341 24.2274 9.61167 24.2017C8.92395 24.1528 8.23147 24.4273 7.56857 24.69ZM18.0595 19.0159C17.529 19.2339 16.9988 19.4517 16.4221 19.4454C16.5802 19.3522 16.7452 19.2504 16.9158 19.1453C17.8021 18.5984 18.8375 17.9597 19.8273 17.9646C20.6907 17.9688 21.5301 18.4678 22.3544 18.9578C22.8794 19.27 23.3984 19.5785 23.9136 19.7531C24.4015 19.9186 24.9112 19.977 25.4191 20.0352C25.9499 20.096 26.4787 20.1566 26.9783 20.3389C27.6613 20.5881 28.2432 21.0467 28.8209 21.5021C29.1117 21.7313 29.4015 21.9597 29.7025 22.1601C30.2133 22.5001 30.7233 22.805 31.2236 23.1041C32.6882 23.9798 34.0707 24.8061 35.1508 26.3216C34.1218 25.6804 33.0965 24.9562 32.0643 24.227C30.2956 22.9776 28.5056 21.7131 26.6378 20.8249C26.0622 20.5512 25.4385 20.4912 24.8123 20.431C24.278 20.3796 23.742 20.328 23.2326 20.1434C22.7844 19.9809 22.3536 19.7197 21.9207 19.4573C21.2517 19.0517 20.5778 18.6432 19.8273 18.5912C19.1993 18.5477 18.6293 18.7818 18.0595 19.0159Z" fill="white"/>
</svg>
