<svg width="180" height="48" viewBox="0 0 180 48" fill="none" xmlns="http://www.w3.org/2000/svg">
<path d="M173.309 28.9753V35.1876L176.156 28.9753H180L176.455 36.3621L180 45.2504H175.792L173.309 38.2206V45.2504H169.601V28.9753H173.309Z" fill="white"/>
<path d="M165.964 28.9753H161.804V45.2504H165.964V28.9753Z" fill="white"/>
<path d="M159.722 28.9753V32.3783H156.062V45.2504H152.12V32.4256H148.803V28.9753H159.722Z" fill="white"/>
<path d="M140.131 28.9753C135.297 28.9753 134.766 32.9427 134.766 32.9427V45.2504H138.682V39.7243H142.524V45.2504H146.205V32.3534C146.205 32.3534 144.969 28.9753 140.131 28.9753ZM142.524 36.7221H138.699V33.8438C138.699 33.8438 138.673 32.3534 140.61 32.3534C142.546 32.3534 142.524 33.8651 142.524 33.8651V36.7221Z" fill="white"/>
<path d="M57.1668 7.45044C52.1157 7.45044 51.5635 11.6719 51.5635 11.6719V24.7754H55.6614V18.8931H59.6757V24.7754H63.523V11.0569C63.523 11.0569 62.2267 7.45044 57.1668 7.45044ZM59.6757 15.6967H55.6698V12.6341C55.6698 12.6341 55.6406 11.0569 57.6644 11.0569C59.6887 11.0569 59.6757 12.655 59.6757 12.655V15.6967Z" fill="white"/>
<path d="M108.412 7.45044C103.572 7.45044 103.043 11.6719 103.043 11.6719V24.7754H106.97V18.8931H110.796V24.7754H114.482V11.0569C114.482 11.0569 113.252 7.45044 108.412 7.45044ZM110.796 15.6967H106.97V12.6341C106.97 12.6341 106.942 11.0443 108.881 11.0443C110.82 11.0443 110.796 12.655 110.796 12.655V15.6967Z" fill="white"/>
<path d="M65.6064 7.45044H69.8682V21.2072H76.006V24.7754H65.6064V7.45044Z" fill="white"/>
<path d="M77.5645 7.45044H81.8283V21.2072H87.964V24.7754H77.5645V7.45044Z" fill="white"/>
<path d="M56.7653 28.9753H52.6055V45.2504H56.7653V28.9753Z" fill="white"/>
<path d="M59.3662 45.2504H63.4122V36.6816L67.7649 45.2504H71.8457V28.9753H67.7867V37.3112L63.5505 28.9753H59.3662V45.2504Z" fill="white"/>
<path d="M74.4453 28.9753V45.2504H78.9696V38.8119H84.3249V35.7113H78.8719V32.3261H84.3249V28.9753H74.4453Z" fill="white"/>
<path d="M111.881 33.6673V31.9333C111.881 31.9333 111.812 29.0247 108.051 28.9905C104.29 28.9564 100.962 28.9905 100.962 28.9905V45.2504H105.234V38.7328H107.372C107.621 38.8026 107.84 38.9612 107.989 39.1811C108.138 39.401 108.209 39.6684 108.19 39.9372V45.2504H111.869V39.6553C111.869 39.6553 111.395 37.4942 110.209 37.46C110.222 37.46 111.881 36.4307 111.881 33.6673ZM108.202 34.5557C108.105 34.9293 107.892 35.2584 107.596 35.4906C107.299 35.7227 106.937 35.8447 106.567 35.837H105.054V32.5056C105.054 32.5056 105.798 32.4714 106.886 32.5056C107.973 32.5398 108.206 33.2146 108.239 34.1713C108.249 34.3 108.241 34.4295 108.215 34.5557H108.202Z" fill="white"/>
<path d="M117.083 7.45044V20.7094C117.807 26.1231 127.778 26.1231 128.523 20.7556V7.45044H124.913V18.8867C124.913 18.8867 125.081 21.1504 123.067 21.1504C122.519 21.1601 121.987 20.9559 121.573 20.5769C121.159 20.1978 120.892 19.6707 120.823 19.0967V7.45044H117.083Z" fill="white"/>
<path d="M107.722 3.25049H104.603V5.87549H107.722V3.25049Z" fill="white"/>
<path d="M112.925 3.25049H109.805V5.87549H112.925V3.25049Z" fill="white"/>
<path d="M94.9201 14.8904V18.1883H96.8742V19.458C96.8534 20.5381 96.244 21.5439 94.9373 21.5192C94.6154 21.5092 94.2992 21.436 94.0065 21.3037C93.7143 21.1715 93.4512 20.983 93.2338 20.7491C93.0159 20.5153 92.8475 20.2409 92.7388 19.9421C92.6296 19.6432 92.5823 19.3259 92.5989 19.0087C92.5989 18.1512 92.5989 12.8251 92.5989 12.8251C92.5989 12.8251 92.6322 10.6526 94.7953 10.6526C96.9579 10.6526 96.8825 12.5696 96.8825 12.5696H100.953C100.953 12.5696 101.509 6.92603 95.2378 6.92603C90.8622 6.98372 88.5868 9.12735 88.4864 12.4376V18.3862C88.4822 19.2276 88.6471 20.0614 88.971 20.8395C89.2955 21.6175 89.7733 22.3242 90.3765 22.9185C90.9797 23.5129 91.6962 23.9832 92.485 24.302C93.2733 24.6208 94.1183 24.7819 94.9705 24.7759C100.857 24.7759 100.816 21.5398 100.816 21.5398V14.874L94.9201 14.8904Z" fill="white"/>
<path d="M92.9909 28.9753C89.3043 29.0224 87.0174 30.7479 86.928 33.685V40.4926C86.9212 41.1265 87.0575 41.7544 87.3263 42.3329C87.5956 42.9115 87.9924 43.427 88.4884 43.8449C90.6905 45.7932 95.8082 45.7848 97.5023 43.3871C98.0779 42.6343 98.3815 41.7218 98.367 40.7878V32.7302C98.367 32.7302 98.2687 28.9753 92.9909 28.9753ZM94.7739 40.9637C94.7739 41.2714 94.6465 41.5664 94.4203 41.7843C94.1936 42.0016 93.8863 42.124 93.566 42.124H91.6894C91.5303 42.1245 91.3728 42.0951 91.2256 42.0368C91.0784 41.9785 90.9448 41.8935 90.832 41.7853C90.7197 41.6777 90.6302 41.5496 90.5689 41.4084C90.508 41.2677 90.4768 41.1165 90.4768 40.9637V32.8287C90.4768 32.5198 90.6042 32.2236 90.832 32.0052C91.0592 31.7868 91.3676 31.6641 91.6894 31.6641H93.566C93.7251 31.6641 93.8822 31.6943 94.0293 31.7529C94.176 31.8114 94.3096 31.8973 94.4219 32.0055C94.5342 32.1137 94.6226 32.2421 94.6835 32.3834C94.7438 32.5247 94.7745 32.676 94.7739 32.8287V40.9637Z" fill="white"/>
<path d="M115.52 28.9924V45.2504H119.082V34.8132L122.558 45.1097H125.161L128.179 35.0011V45.1097H132.159V28.9753H126.72L123.604 37.7043L120.558 28.9839L115.52 28.9924Z" fill="white"/>
<path fill-rule="evenodd" clip-rule="evenodd" d="M17.3078 2.3453C14.6071 2.83606 11.8932 3.96444 9.5883 5.45451C7.37191 6.88738 5.31257 8.92849 3.83498 11.1275C-6.50752 26.5194 6.78407 47.6583 25.0274 44.4023C28.071 43.8591 30.9795 42.7628 33.519 40.9632C35.8345 39.3221 37.7459 37.305 39.2739 34.8994C45.1724 25.612 42.7084 12.5169 33.905 6.03307C29.2457 2.60145 22.9744 1.31563 17.3078 2.3453ZM11.1323 8.14998C13.612 6.45929 16.2925 5.52758 19.2378 5.06329C21.0723 4.77413 22.8279 4.99256 24.6415 5.31469C40.3153 8.09873 45.1033 30.2828 31.2031 38.8249C29.2015 40.0552 26.9667 41.0427 24.6415 41.409C18.9099 42.312 13.1573 40.7863 8.8221 36.7801C2.50903 30.9466 1.30772 20.6904 5.94006 13.4657C7.29198 11.3572 9.07395 9.55334 11.1323 8.14998ZM5.72877 24.8662C5.46681 24.9701 5.20894 25.0723 4.95678 25.1568C4.95678 20.8923 5.42393 17.0438 7.963 13.4657C13.4478 5.73623 25.2582 4.52367 32.3266 10.6629C35.6643 13.5619 37.2796 17.3376 37.869 21.6495C38.094 23.2962 38.3379 25.5468 36.9928 26.7156C37.8628 31.2842 33.4098 36.1309 29.6593 38.017C28.7502 36.6994 27.7188 35.4375 26.5059 34.3849C26.2305 34.1459 25.9193 33.9257 25.6045 33.703C24.8427 33.1639 24.0605 32.6104 23.7169 31.7412C23.382 30.8942 23.7036 29.981 24.0118 29.1058C24.3587 28.1209 24.6885 27.1842 24.0462 26.4447C23.1374 25.3982 21.8277 25.1527 20.519 24.9074C19.5335 24.7227 18.5487 24.5382 17.736 24.0117C16.2362 23.0402 15.999 21.1662 15.79 19.5151C15.7814 19.4468 15.7728 19.3787 15.7641 19.3112C15.0065 19.9435 14.4293 20.8939 13.8535 21.842C13.1428 23.0122 12.4343 24.1788 11.3915 24.7391C10.6623 25.1309 9.96216 24.8807 9.25509 24.628C8.85595 24.4853 8.45461 24.3419 8.04459 24.3127C7.26507 24.2573 6.48015 24.5684 5.72877 24.8662ZM17.62 18.4348C17.0188 18.6818 16.4177 18.9287 15.7641 18.9215C15.9433 18.8159 16.1304 18.7005 16.3237 18.5813C17.3283 17.9615 18.5019 17.2375 19.6239 17.2431C20.6025 17.2479 21.5539 17.8135 22.4882 18.3689C23.0834 18.7227 23.6717 19.0724 24.2556 19.2704C24.8086 19.4579 25.3864 19.5241 25.962 19.59C26.5637 19.659 27.163 19.7277 27.7294 19.9343C28.5036 20.2167 29.1632 20.7366 29.8179 21.2528C30.1476 21.5126 30.476 21.7714 30.8172 21.9986C31.3962 22.384 31.9742 22.7296 32.5414 23.0686C34.2014 24.0612 35.7685 24.9978 36.9928 26.7156C35.8264 25.9888 34.6642 25.168 33.4943 24.3414C31.4894 22.9252 29.4606 21.492 27.3434 20.4852C26.691 20.1749 25.984 20.1069 25.2743 20.0387C24.6687 19.9804 24.0611 19.922 23.4836 19.7127C22.9757 19.5285 22.4874 19.2325 21.9967 18.935C21.2384 18.4753 20.4745 18.0122 19.6239 17.9533C18.9121 17.904 18.2659 18.1694 17.62 18.4348Z" fill="white"/>
</svg>
