<svg width="180" height="48" viewBox="0 0 180 48" fill="none" xmlns="http://www.w3.org/2000/svg">
<path fill-rule="evenodd" clip-rule="evenodd" d="M10.5986 9.90146C10.5986 9.4036 11.0042 9 11.5045 9H15.5844C16.0847 9 16.4903 9.4036 16.4903 9.90146V36.1974C16.4903 36.6952 16.0847 37.0988 15.5844 37.0988H11.5045C11.0042 37.0988 10.5986 36.6953 10.5986 36.1974V9.90146ZM54.7682 16.7498C57.1248 16.7498 59.8441 16.8858 60.7957 17.0671C62.382 17.339 62.4726 17.5203 62.4726 18.9706C62.4726 19.3521 62.4551 19.6886 62.4296 19.9764C62.3637 20.721 61.7771 21.2426 61.0298 21.2611C59.6058 21.2962 57.3996 21.2365 55.9919 21.2365C52.7288 21.2365 52.0234 21.3888 51.117 22.5218C50.3012 23.6095 50.0752 24.2489 50.2112 27.512C50.3472 30.9112 51.0519 31.3884 52.049 32.1589C52.9517 32.8896 53.8136 33.0496 61.2084 33.0254C61.9432 33.0231 62.5859 33.5297 62.7446 34.2436C62.7446 34.2436 62.9711 36.5826 62.7446 36.9451C62.382 37.489 61.7292 37.4832 56.5627 37.5738C50.3538 37.7098 49.0125 37.368 47.5169 36.3257C47.1821 36.1142 46.7619 35.5675 46.3732 34.9782C45.5425 33.7186 45.1 32.2733 45.0346 30.7681C44.9715 29.3186 44.9299 26.9822 44.9824 23.2605C45.0038 21.7388 45.498 20.2562 46.3839 19.0159C47.1544 18.2454 48.3327 17.4296 49.1032 17.203C49.8736 16.9764 52.4115 16.7952 54.7682 16.7498ZM75.8287 17.0922C79.273 17.0922 82.1282 17.2735 83.0799 17.6361C83.9863 17.9533 85.1193 18.8597 85.7085 19.7661C86.6333 21.1752 86.7451 21.7287 86.709 35.2709C86.7071 36.0054 86.2575 36.6687 85.5725 36.9427C84.9381 37.1692 81.2672 37.3959 77.4149 37.3959C72.0671 37.3959 70.0731 37.2146 69.0307 36.7161C68.2602 36.3535 67.4898 35.6284 67.2178 35.1299C66.9913 34.6313 66.7646 32.9997 66.7646 31.5042C66.7646 30.2489 66.8161 29.5079 67.234 28.6717C68.2505 26.638 70.692 25.8122 72.9739 25.7651L80.3608 25.6125V24.2529C80.3608 23.3465 80.0133 22.6666 79.3184 22.2135C78.616 21.7306 75.9726 21.3832 68.1047 21.3619C67.6684 21.3607 67.3091 21.0176 67.2893 20.5817L67.234 19.3667C67.1434 17.6899 67.234 17.3273 68.0045 17.146C68.503 17.0101 72.7017 17.0922 75.8287 17.0922ZM73.0189 31.3682L73.1095 32.8638H80.3608V29.2381C75.1943 29.2381 73.5627 29.3741 73.3361 29.5554C73.1095 29.6914 72.9736 30.5071 73.0189 31.3682ZM93.3077 16.8865C95.9816 17.0225 96.0662 16.8437 96.5647 18.3845C96.8819 19.2457 97.8337 22.1915 100.281 29.9414L99.1933 33.431C98.6041 35.3799 97.5305 37.7131 97.5305 37.7131C97.5305 37.7131 96.5797 37.5797 96.1718 37.2624C95.4141 36.673 94.8879 32.7059 93.5736 28.5817C92.3046 24.5935 90.9903 20.424 90.6278 19.2909C90.397 18.5698 90.2605 17.9578 90.2385 17.5614C90.2213 17.2518 90.4459 17.0186 90.7513 16.9651C91.2942 16.87 92.2681 16.8235 93.3077 16.8865ZM30.7895 16.7498C34.6269 16.7498 36.371 17.3209 37.8665 18.318C38.7276 18.8618 40.1311 20.1209 40.584 21.3272C41.037 22.3745 41.0387 23.2307 40.948 26.9923C40.8574 30.7086 41.0372 32.0737 40.584 33.0254C40.0422 34.2408 38.6834 35.593 38.6834 35.593C37.2331 36.59 36.4199 37.619 30.9814 37.5738C25.7244 37.5284 24.7857 36.9628 23.2449 36.0564C20.5636 34.4477 20.0647 30.7749 19.9288 27.651C19.9218 27.4896 19.918 27.3429 19.918 27.2155C19.918 25.9567 19.9672 25.0463 20.0447 24.356C20.2613 22.4253 21.2525 20.647 22.5262 19.18C22.8209 18.8407 23.1121 18.5377 23.373 18.318C25.0556 16.9009 26.4743 16.7498 30.7895 16.7498ZM26.8033 23.7051C26.4861 24.3396 26.5327 25.9258 26.5327 27.6481C26.5327 29.5968 26.7593 31.0471 27.2125 31.6815C27.8017 32.588 29.0242 32.8405 30.6218 32.8405C32.3919 32.8405 33.5223 32.2707 34.1115 31.6815C34.746 31.0471 34.6071 30.322 34.6071 27.512C34.6524 24.6569 34.4711 23.6598 33.8366 22.844C33.2928 22.1642 32.3864 21.7563 30.9814 21.6204C29.8484 21.4844 28.7504 21.8923 28.2066 22.1189C27.7081 22.3455 27.0753 23.0706 26.8033 23.7051ZM108.886 17.1131C109.792 17.1131 111.195 20.4427 113.869 29.7335L112.645 33.2685C112.011 35.172 111.015 37.3959 110.698 37.3959C110.427 37.3959 109.882 36.9427 109.52 36.3989C109.157 35.8097 108.521 33.0419 106.708 27.2409L108.113 22.4822C108.929 19.8536 108.66 17.1131 108.886 17.1131Z" fill="white"/>
<path fill-rule="evenodd" clip-rule="evenodd" d="M150.077 10.7284C150.072 10.2739 150.439 9.90137 150.893 9.90137H155.298C155.741 9.90137 156.103 10.2549 156.114 10.6979L156.276 17.3793L160.899 17.5152C161.529 17.5257 162.115 17.5412 162.642 17.5586C164.541 17.6216 166.561 17.7723 168.105 18.8748C168.785 19.2827 169.645 20.2798 170.054 21.005C170.597 22.0473 170.779 23.7242 170.779 27.803C170.779 32.471 170.643 33.4681 169.873 34.8277C169.328 35.6888 168.24 36.7765 167.38 37.1844C166.111 37.8642 164.615 38.0002 159.676 38.0002C156.959 38.0002 154.155 37.911 151.886 37.6604C151.014 37.5642 150.377 36.8178 150.367 35.9449C150.257 26.3757 150.189 20.4751 150.077 10.7284ZM156.73 33.2415C161.307 33.4681 162.485 33.2868 163.21 32.7883C164.117 32.1992 164.208 31.7459 164.208 28.2563C164.208 26.1261 164.026 23.9961 163.754 23.4976C163.391 22.7271 162.848 22.5912 159.902 22.5912H156.503L156.73 33.2415Z" fill="#F8F8F8"/>
<path d="M100.735 25.8822C102.004 21.894 103.137 18.359 103.228 18.0871L103.45 17.5634C103.576 17.2273 104.368 17.047 108.705 17.0224C109.25 17.0194 109.644 17.5433 109.491 18.0662L108.031 23.027C107.08 26.1089 105.811 30.233 105.267 32.2271C104.723 34.2212 103.998 36.306 103.635 36.8499C103.092 37.7563 102.639 37.8923 100.055 37.8923C98.4237 37.8923 97.1094 37.7563 97.1094 37.575C97.1094 37.3484 97.3813 36.306 97.7438 35.173C98.1064 34.04 99.466 29.8705 100.735 25.8822Z" fill="white"/>
<path d="M113.405 27.9903C114.946 23.141 116.396 18.6995 116.624 18.1103C117.031 17.2039 117.348 17.1133 120.249 17.1133C123.059 17.1133 123.376 17.2039 123.149 17.8837C123.013 18.3369 121.699 22.5518 120.203 27.3105C118.663 32.0238 117.269 36.5374 117.042 36.9453C116.725 37.6251 116.908 37.8468 114.325 37.8468C112.603 37.8468 110.61 37.6234 110.7 37.4421C110.791 37.2155 111.864 32.8395 113.405 27.9903Z" fill="white"/>
<path fill-rule="evenodd" clip-rule="evenodd" d="M143.667 33.7902V36.0439C143.667 37.0396 142.856 37.8468 141.855 37.8468H137.85H132.796C128.744 37.4913 125.097 35.5931 125.097 29.2829V25.2264C125.097 22.5452 127.361 17.1133 134.608 17.1133C136.474 17.1133 137.961 17.2265 139.146 17.4012C142.442 17.8874 145.478 20.542 145.478 23.8742V28.3815C145.478 28.6819 145.297 29.2829 144.572 29.2829H133.249C131.891 29.2829 131.933 29.4025 131.891 30.1844C131.848 30.9663 131.695 33.3395 134.608 33.3395H143.214C143.464 33.3395 143.667 33.5413 143.667 33.7902ZM132.343 26.1278C131.843 26.1278 131.441 25.7243 131.501 25.23C131.647 24.0351 133.775 22.0781 135.35 22.0781H135.75H136.284C136.98 22.0739 138.561 22.0584 139.59 23.4235C140.677 24.8658 140.496 26.1278 140.496 26.1278H132.343Z" fill="#F8F8F8"/>
</svg>
