<svg width="205" height="48" viewBox="0 0 205 48" fill="none" xmlns="http://www.w3.org/2000/svg">
<path fill-rule="evenodd" clip-rule="evenodd" d="M0.570312 6.15152C0.570312 5.51555 1.08586 5 1.72183 5H6.90825C7.54421 5 8.05977 5.51555 8.05977 6.15152V39.7418C8.05977 40.3777 7.54421 40.8933 6.90825 40.8933H1.72183C1.08586 40.8933 0.570312 40.3778 0.570312 39.7418V6.15152ZM56.7188 14.8996C59.7146 14.8996 63.1713 15.0733 64.3811 15.3048C66.3975 15.6522 66.5127 15.8838 66.5127 17.7363C66.5127 18.1315 66.4981 18.4889 66.4753 18.8059C66.3973 19.8909 65.5437 20.6466 64.4561 20.667C62.645 20.7012 59.992 20.6309 58.2744 20.6309C54.1264 20.6309 53.2297 20.8254 52.0775 22.2727C51.0404 23.6621 50.7531 24.4789 50.926 28.6472C51.0988 32.9892 51.9947 33.5988 53.2621 34.583C54.4096 35.5164 55.5053 35.7208 64.9057 35.69C65.8397 35.687 66.6567 36.3341 66.8584 37.246C66.8584 37.246 67.1464 40.2338 66.8584 40.697C66.3975 41.3917 65.5677 41.3843 59 41.5C51.1073 41.6738 49.4022 41.2371 47.501 39.9057C47.0754 39.6355 46.5412 38.9372 46.0471 38.1844C44.991 36.5754 44.4285 34.7292 44.3454 32.8064C44.2652 30.9548 44.2124 27.9703 44.2791 23.2163C44.3062 21.2725 44.9345 19.3786 46.0607 17.7943C47.0402 16.8101 48.5381 15.768 49.5174 15.4785C50.4968 15.1891 53.723 14.9575 56.7188 14.8996ZM83.4911 15.337C87.8695 15.337 91.499 15.5685 92.7088 16.0317C93.861 16.4369 95.3013 17.5947 96.0503 18.7525C97.2259 20.5526 97.368 21.2595 97.3221 38.5583C97.3197 39.4965 96.7481 40.3438 95.8774 40.6939C95.0709 40.9832 90.4044 41.2727 85.5075 41.2727C78.7093 41.2727 76.1744 41.0412 74.8494 40.4044C73.8699 39.9412 72.8905 39.015 72.5448 38.3782C72.2569 37.7413 71.9688 35.6571 71.9688 33.7468C71.9688 32.1432 72.0342 31.1966 72.5655 30.1285C73.8576 27.5307 76.9613 26.4759 79.862 26.4156L89.2522 26.2207V24.484C89.2522 23.3261 88.8105 22.4577 87.9271 21.8788C87.0386 21.265 83.7067 20.8226 73.8184 20.7914C73.1834 20.7894 72.6581 20.2902 72.6294 19.6559L72.5655 18.2424C72.4502 16.1004 72.5655 15.6372 73.5448 15.4057C74.1786 15.232 79.5159 15.337 83.4911 15.337ZM79.9192 33.573L80.0343 35.4835H89.2522V30.8521C82.6845 30.8521 80.6104 31.0257 80.3224 31.2573C80.0343 31.4311 79.8616 32.4731 79.9192 33.573ZM105.71 15.0742C109.109 15.2479 109.217 15.0194 109.851 16.9877C110.254 18.0878 111.464 21.8507 114.575 31.7504L113.192 36.208C112.443 38.6975 111.078 41.6779 111.078 41.6779C111.078 41.6779 109.87 41.5075 109.351 41.1022C108.2 40.5264 107.719 35.2817 106.048 30.0136C104.435 24.919 102.765 19.5929 102.304 18.1456C102.026 17.2729 101.855 16.5253 101.814 16.0185C101.778 15.5692 102.099 15.2314 102.544 15.1606C103.248 15.0487 104.441 14.9968 105.71 15.0742ZM26.3249 15.4785C31.203 15.4785 33.3322 15.6291 35.2333 16.9028C36.328 17.5975 38.1121 19.2058 38.6879 20.7467C39.2636 22.0846 39.2658 23.1782 39.1506 27.9833C39.0354 32.7304 39.264 34.4742 38.6879 35.69C37.9991 37.2424 36.2718 38.9697 36.2718 38.9697C34.4282 40.2433 33.3944 41.5578 26.481 41.5C19.7982 41.4421 18.605 40.7195 16.6463 39.5617C14.8276 38.4652 13.1147 36.1206 13 34C12.9279 32.6659 12.5473 29.4998 12.5 28C12.3272 23.9476 13.0967 22.5051 13.5 21C13.9033 19.4947 15.7146 17.829 16.8091 16.9028C18.4798 15.5133 20.8394 15.4785 26.3249 15.4785ZM21.1698 23.7842C20.7665 24.5948 20.8258 26.621 20.8258 28.8209C20.8258 31.3103 21.1138 33.1628 21.6899 33.9733C22.4389 35.1311 23.9929 35.4537 26.0239 35.4537C28.274 35.4537 29.711 34.7259 30.46 33.9733C31.2665 33.1628 31.09 32.2366 31.09 28.6472C31.1475 25 30.9171 23.7264 30.1105 22.6843C29.4192 21.8159 28.267 21.2949 26.481 21.1212C25.0407 20.9476 23.645 21.4685 22.9536 21.758C22.3199 22.0475 21.5155 22.9738 21.1698 23.7842ZM125.514 15.3636C126.666 15.3636 128.448 19.6169 131.848 31.4848L130.292 36.0004C129.486 38.4319 128.22 41.2727 127.817 41.2727C127.472 41.2727 126.78 40.6939 126.319 39.9992C125.859 39.2465 125.049 35.711 122.745 28.3008L124.531 22.2221C125.568 18.8644 125.226 15.3636 125.514 15.3636Z" fill="white"/>
<path fill-rule="evenodd" clip-rule="evenodd" d="M177.877 7.35283C177.869 6.69172 178.403 6.15161 179.064 6.15161H184.366C185.011 6.15161 185.538 6.66599 185.553 7.31049L185.756 15.7039L191.632 15.8775C192.433 15.8909 193.178 15.9106 193.849 15.933C196.262 16.0134 198.83 16.206 200.792 17.6143C201.657 18.1353 202.751 19.409 203.27 20.3353C203.961 21.6668 204.192 23.8088 204.192 29.0191C204.192 34.982 204.019 36.2557 203.04 37.9924C202.348 39.0923 200.965 40.4817 199.871 41.0028C198.258 41.8711 196.357 42.0449 190.077 42.0449C186.624 42.0449 183.059 41.931 180.176 41.6109C179.067 41.4879 178.257 40.5345 178.244 39.4195C178.105 27.2432 178.018 19.7171 177.877 7.35283ZM186.333 35.9662C192.151 36.2557 193.648 36.0241 194.571 35.3872C195.723 34.6347 195.838 34.0557 195.838 29.5981C195.838 26.877 195.608 24.1561 195.262 23.5193C194.801 22.5351 194.11 22.3615 190.365 22.3615H186.044L186.333 35.9662Z" fill="#F8F8F8"/>
<path d="M115.152 26.5656C116.766 21.471 118.206 16.9555 118.321 16.6081L118.605 15.9392C118.763 15.515 119.747 15.2851 125.086 15.2493C125.878 15.244 126.452 16.0053 126.229 16.7656L124.428 22.9184C123.219 26.8551 121.606 32.1232 120.913 34.6705C120.223 37.2178 119.301 39.8809 118.84 40.5756C118.149 41.7334 117.573 41.9071 114.289 41.9071C112.215 41.9071 110.544 41.7334 110.544 41.5019C110.544 41.2124 110.89 39.8809 111.35 38.4335C111.811 36.9862 113.54 31.6601 115.152 26.5656Z" fill="white"/>
<path d="M131.258 29.258C133.216 23.0635 135.06 17.39 135.349 16.6373C135.867 15.4796 136.27 15.3638 139.957 15.3638C143.529 15.3638 143.932 15.4796 143.644 16.3479C143.472 16.9268 141.801 22.3109 139.9 28.3896C137.941 34.4104 136.169 40.176 135.881 40.6971C135.478 41.5655 135.711 41.8486 132.426 41.8486C130.237 41.8486 127.704 41.5633 127.819 41.3317C127.934 41.0422 129.299 35.4524 131.258 29.258Z" fill="white"/>
<path fill-rule="evenodd" clip-rule="evenodd" d="M169.606 36.6668V39.5456C169.606 40.8176 168.575 41.8486 167.303 41.8486H155.788C152.526 41.4648 146 38.9698 146 30.9092V25.7274C146 22.8486 148.879 15.3638 158.091 15.3638C162.355 15.3638 165.157 15.8511 166.978 16.4247C169.353 17.1726 171.086 19.2317 171.643 21.6583C171.803 22.3563 171.909 23.1427 171.909 24.0001V29.7577C171.909 30.1415 171.679 30.9092 170.758 30.9092H156.364C154.636 30.9092 154.69 31.0619 154.636 32.0607C154.582 33.0596 154.388 36.091 158.091 36.091H169.03C169.348 36.091 169.606 36.3489 169.606 36.6668ZM155.212 26.8789C154.576 26.8789 154.065 26.3634 154.141 25.732C154.327 24.2057 156.266 21.6971 158.269 21.6971H159.818C158.667 21.6971 159.073 21.7017 159.818 21.6971C160.797 21.6911 163.116 21.6806 164.424 23.4244C165.806 25.2668 165.576 26.8789 165.576 26.8789H155.212Z" fill="#F8F8F8"/>
</svg>
