<svg width="181" height="48" viewBox="0 0 181 48" fill="none" xmlns="http://www.w3.org/2000/svg">
<g clip-path="url(#clip0_1724_2753)">
<path d="M5.50413 9.83279C5.67128 9.44178 6.06157 9.19629 6.48785 9.19629C6.58425 9.19629 6.6809 9.19629 6.77782 9.19629C7.18058 9.19629 7.55173 9.41625 7.73777 9.77242C9.3098 12.7821 10.5505 15.9407 11.8466 19.0768C12.2146 19.9644 12.5829 20.8518 12.9514 21.7394C13.1792 22.2879 13.4067 22.8367 13.6334 23.3858C14.2804 24.947 14.9487 26.4962 15.6455 28.0356C16.3415 26.357 17.0372 24.6784 17.7327 22.9995C17.9681 22.4316 18.2036 21.8634 18.4391 21.2952C18.7827 20.4668 19.1257 19.6384 19.4691 18.81C19.5827 18.5362 19.6961 18.2623 19.8132 17.98C20.3994 16.5646 20.9823 15.1481 21.5601 13.7293C21.6737 13.451 21.787 13.1727 21.9039 12.886C22.1205 12.3545 22.3365 11.8227 22.5517 11.2906C22.6478 11.0548 22.7439 10.819 22.8428 10.576C22.9271 10.3681 23.0114 10.1603 23.0982 9.9461C23.3351 9.41717 23.9103 9.18845 24.491 9.18777C24.5466 9.18772 24.6025 9.18774 24.658 9.18785C25.1731 9.18886 25.6429 9.49387 25.814 9.97837C26.122 10.8509 26.312 11.7361 26.4845 12.6652C26.5242 12.8728 26.5639 13.0803 26.6047 13.2941C26.7353 13.9785 26.8637 14.6633 26.9919 15.3481C27.0825 15.8274 27.1731 16.3066 27.264 16.7858C27.4538 17.7911 27.6427 18.7964 27.8308 19.8017C28.0704 21.0814 28.3127 22.3606 28.5561 23.6395C28.7442 24.6303 28.9306 25.6212 29.1163 26.6123C29.205 27.0835 29.2942 27.5545 29.3838 28.0255C29.8539 30.4956 30.2487 32.9175 30.4017 35.4215C30.4214 35.7447 30.2459 36.0587 29.9335 36.1486C29.3917 36.3045 28.8813 36.2741 28.2401 36.278C27.9466 36.2818 27.6528 36.2856 27.3503 36.2897C26.8169 36.2452 26.6614 36.2321 26.4216 36.0344C26.162 35.8204 25.998 35.5113 25.9205 35.1847C25.8715 34.9778 25.8411 34.8017 25.7614 34.3413C25.7122 34.0623 25.6629 33.7835 25.6119 33.496C25.561 33.1935 25.5098 32.891 25.4573 32.5792C25.3765 32.1134 25.3765 32.1134 25.2938 31.6383C25.1802 30.9803 25.0674 30.322 24.9557 29.6634C24.7848 28.6576 24.6101 27.6523 24.4349 26.6469C24.3248 26.0078 24.215 25.3686 24.1053 24.7294C24.0532 24.4291 24.0009 24.1285 23.9473 23.8191C23.8996 23.5368 23.852 23.2545 23.803 22.9634C23.7611 22.7166 23.7189 22.4695 23.6754 22.215C23.5777 21.4186 23.5705 20.6465 23.5856 19.8446C23.4049 19.8446 23.2242 19.8446 23.038 19.8446C23.0062 20.0338 22.9745 20.2227 22.9416 20.4177C22.7423 21.308 22.4455 22.1135 22.115 22.9643C22.0499 23.1327 21.9847 23.3012 21.9174 23.4746C21.7046 24.0228 21.4902 24.5702 21.2753 25.1177C21.2027 25.3042 21.1299 25.4906 21.0549 25.6829C20.0383 28.2876 18.9973 30.8812 17.9213 33.4622C17.806 33.7393 17.6908 34.0164 17.5717 34.302C17.1377 35.333 16.9406 35.8013 16.8007 36.0642C16.6345 36.3768 16.2687 36.504 15.9138 36.5068C15.6934 36.5084 15.4728 36.5087 15.2524 36.5076C14.8244 36.5057 14.4403 36.2493 14.2697 35.858C12.5604 31.9364 10.9427 27.9802 9.33909 24.0141C9.20734 23.6886 9.20734 23.6886 9.07296 23.3563C8.90625 22.9441 8.73973 22.5318 8.57348 22.1192C8.16638 21.1065 8.16637 21.1065 7.70547 20.1176C7.67642 20.2994 7.64737 20.481 7.61744 20.6683C7.31441 22.5602 7.00726 24.4512 6.69779 26.342C6.58283 27.0475 6.46893 27.7533 6.35607 28.4593C6.19363 29.4742 6.02746 30.4888 5.86055 31.5029C5.81089 31.8185 5.76125 32.1338 5.71008 32.459C5.66079 32.7539 5.61154 33.0491 5.56075 33.3532C5.5188 33.6121 5.47686 33.8709 5.43363 34.1377C5.27378 34.7394 5.07284 35.2153 4.77854 35.6964C4.5637 36.0475 4.19763 36.2867 3.78858 36.3397C3.51873 36.3746 3.31319 36.367 2.76004 36.3462C2.46886 36.3402 2.17768 36.3342 1.87768 36.3279C1.4818 36.2741 1.29677 36.2488 1.12754 36.1546C0.725908 35.9307 0.595089 35.4195 0.629204 34.9619C0.804433 32.6117 1.32245 30.2862 1.75683 27.9728C1.84661 27.4914 1.9363 27.0104 2.026 26.529C2.21344 25.5248 2.40184 24.5208 2.59078 23.5171C2.83213 22.2342 3.07036 20.9506 3.3078 19.6668C3.49184 18.6746 3.67791 17.6827 3.86456 16.691C3.95324 16.2178 4.04121 15.7447 4.12844 15.2713C4.25072 14.6092 4.37582 13.9477 4.5016 13.2863C4.53662 13.0932 4.57164 12.9001 4.60772 12.7012C4.80778 11.6668 5.10674 10.7624 5.50413 9.83279Z" fill="white"/>
<path d="M117.016 9C117.814 9.013 118.085 9.16516 118.699 9.69113C119.353 10.4139 119.968 11.1561 120.575 11.9181C120.997 12.436 121.419 12.9536 121.842 13.4709C122.046 13.7226 122.25 13.9743 122.46 14.2335C122.951 14.8161 123.45 15.3493 123.998 15.8771C124.755 16.6061 125.411 17.3777 126.068 18.1979C127.418 19.8713 128.885 21.421 130.361 22.9833C132.809 25.5755 132.809 25.5755 133.718 26.935C133.72 26.7316 133.723 26.5281 133.726 26.3185C133.753 24.4023 133.781 22.4859 133.81 20.5694C133.826 19.5843 133.84 18.5992 133.854 17.6138C133.867 16.6631 133.881 15.7124 133.896 14.7619C133.905 14.2224 133.911 13.6829 133.919 13.1434C133.924 12.8155 133.93 12.4876 133.935 12.1497C133.939 11.8605 133.944 11.5713 133.948 11.2733C133.976 10.8171 133.985 10.6498 134.059 10.3805C134.173 9.96111 134.478 9.59893 134.903 9.50296C135.347 9.40273 135.773 9.4252 136.319 9.42662C136.587 9.42591 136.855 9.4252 137.131 9.42449C137.667 9.45247 137.788 9.45886 138.068 9.58601C138.257 9.67161 138.372 9.8641 138.373 10.0706C138.379 13.4067 138.383 16.7429 138.386 20.0791C138.388 21.6801 138.39 23.2812 138.393 24.8823C138.396 26.426 138.397 27.9698 138.398 29.5132C138.398 30.1038 138.4 30.6941 138.401 31.2844C138.403 32.1084 138.403 32.9322 138.403 33.7559C138.404 34.0027 138.405 34.2493 138.406 34.5035C138.403 36.187 138.403 36.187 138.098 36.4912C137.388 36.5701 137.238 36.587 136.708 36.5414C136.366 36.5119 136.039 36.3735 135.787 36.1398C135.503 35.8766 135.395 35.727 134.984 35.1601C134.186 34.1049 133.385 33.0944 132.486 32.1226C131.638 31.1954 130.829 30.2491 130.038 29.2727C129.196 28.2343 128.327 27.235 127.42 26.2524C126.296 25.0346 125.242 23.7765 124.201 22.4886C123.376 21.492 122.507 20.5394 121.629 19.5887C121.123 19.017 121.123 19.017 120.575 18.1979C120.574 18.4116 120.572 18.6252 120.571 18.8455C120.555 20.8583 120.535 22.8708 120.511 24.8837C120.499 25.9185 120.488 26.9533 120.48 27.9881C120.473 28.9865 120.462 29.985 120.448 30.9835C120.444 31.3647 120.441 31.7458 120.439 32.1267C120.436 32.6602 120.428 33.1937 120.42 33.727C120.417 34.0309 120.414 34.3345 120.411 34.6476C120.317 35.2956 120.304 35.3848 120.063 35.7226C119.975 35.8452 119.867 35.9541 119.736 36.0289C119.164 36.3544 118.67 36.3159 117.957 36.3033C117.692 36.3025 117.426 36.3014 117.152 36.3003C116.619 36.2362 116.502 36.2222 116.216 35.9604C116.02 35.7805 115.911 35.526 115.897 35.2606C115.862 34.5745 115.85 33.9001 115.854 33.2082C115.854 32.9529 115.853 32.6976 115.853 32.4347C115.852 31.588 115.855 30.7413 115.858 29.8947C115.858 29.3085 115.858 28.7222 115.858 28.136C115.859 26.9063 115.861 25.6768 115.865 24.4471C115.869 22.8673 115.87 21.2875 115.87 19.7075C115.87 18.4968 115.872 17.2862 115.874 16.0753C115.874 15.4926 115.875 14.9099 115.875 14.3272C115.876 13.5145 115.878 12.7019 115.881 11.8892C115.881 11.646 115.881 11.4027 115.881 11.1521C115.891 9.25717 115.891 9.25717 117.016 9Z" fill="white"/>
<path d="M161.92 9.41714C162.26 9.4132 162.26 9.4132 162.607 9.40919C162.853 9.40802 163.099 9.40687 163.353 9.40567C163.607 9.40411 163.861 9.40256 164.123 9.40095C164.662 9.39835 165.202 9.39658 165.741 9.39554C166.559 9.39289 167.377 9.38443 168.194 9.3758C168.72 9.37402 169.245 9.37258 169.77 9.37154C170.011 9.36815 170.253 9.3648 170.502 9.36133C173.227 9.37088 175.73 10.0952 177.795 11.9184C179.48 13.9579 180.419 16.1518 180.211 18.8169C179.749 21.4817 178.021 23.4629 175.879 25.0241C175.516 25.21 175.151 25.3924 174.784 25.5702C174.913 25.8044 175.043 26.0384 175.177 26.2798C175.66 27.1508 176.143 28.022 176.625 28.893C176.834 29.2698 177.043 29.6463 177.251 30.0228C177.552 30.5651 177.852 31.1073 178.153 31.6496C178.245 31.8169 178.339 31.9846 178.434 32.1571C178.679 32.6 178.922 33.0439 179.164 33.4882C179.277 33.691 179.39 33.8942 179.507 34.1033C179.75 34.6685 179.737 34.9882 179.607 35.4761C179.549 35.6957 179.443 35.9122 179.258 36.0446C179.092 36.1634 178.865 36.2278 178.299 36.2453C177.947 36.242 177.594 36.2387 177.231 36.2354C176.701 36.2319 176.701 36.2319 176.16 36.2281C176.092 36.2273 176.023 36.2264 175.955 36.2256C175.568 36.2213 175.212 36.014 175.02 35.6798C173.735 33.4439 172.505 31.1857 171.344 28.8807C171.223 28.6421 171.102 28.4037 170.978 28.158C170.867 27.9355 170.756 27.7129 170.641 27.4836C170.543 27.2854 170.443 27.0874 170.341 26.8832C170.129 26.3893 170.129 25.8432 170.129 25.8432C168.322 25.8432 166.515 25.8432 164.653 25.8432C164.659 26.5465 164.666 27.2496 164.672 27.9742C164.677 28.6535 164.68 29.3331 164.683 30.0127C164.686 30.4856 164.69 30.9588 164.695 31.4317C164.701 32.1107 164.704 32.7897 164.707 33.4691C164.71 33.6812 164.712 33.8934 164.715 34.1121C164.715 34.461 164.702 34.8099 164.684 35.1586C164.666 35.4898 164.536 35.8163 164.28 36.0279C164.041 36.2248 163.885 36.2398 163.353 36.2911C163.059 36.2895 162.765 36.2881 162.463 36.2868C162.022 36.289 162.022 36.289 161.573 36.2911C160.986 36.2346 160.857 36.2221 160.569 35.9608C160.372 35.7817 160.263 35.5258 160.249 35.2602C160.216 34.5814 160.205 33.9141 160.21 33.2293C160.21 32.9762 160.21 32.7231 160.21 32.4627C160.211 31.6233 160.215 30.7843 160.219 29.945C160.22 29.3643 160.221 28.7835 160.221 28.2028C160.223 26.6721 160.229 25.1415 160.235 23.6109C160.24 22.0499 160.243 20.4887 160.246 18.9278C160.252 15.8632 160.261 12.7987 160.272 9.73416C160.89 9.42601 161.234 9.42353 161.92 9.41714ZM164.653 13.5566C164.653 16.4399 164.653 19.3231 164.653 22.2938C166.28 22.3191 166.28 22.3191 167.939 22.3451C168.445 22.356 168.445 22.356 168.961 22.3675C171.12 22.3839 172.772 22.2498 174.476 20.809C175.428 19.6639 175.736 18.939 175.691 17.4037C175.481 16.0063 174.786 15.1443 173.706 14.2734C172.426 13.5964 171.301 13.5226 169.867 13.53C169.455 13.531 169.455 13.531 169.035 13.532C168.69 13.5345 168.345 13.537 167.99 13.5396C166.338 13.548 166.338 13.548 164.653 13.5566Z" fill="white"/>
<path d="M91.2488 10.5476C91.4345 9.8017 92.1934 9.36184 92.9641 9.35954C93.0592 9.35927 93.1684 9.35933 93.2968 9.35941C93.6185 9.35772 93.9402 9.356 94.2715 9.35425C94.6203 9.35676 94.9692 9.35927 95.3284 9.36187C95.6849 9.36173 96.0413 9.36159 96.4088 9.36146C97.1636 9.36148 97.9185 9.36435 98.6736 9.36927C99.642 9.37546 100.611 9.37563 101.579 9.37377C102.502 9.37265 103.424 9.3759 104.347 9.37893C104.695 9.37868 105.044 9.37844 105.403 9.37819C105.725 9.38079 106.047 9.38338 106.378 9.38608C106.662 9.38734 106.946 9.3886 107.239 9.38988C107.813 9.45036 107.899 9.45945 108.248 9.79564C108.388 9.93038 108.471 10.1133 108.487 10.3066C108.525 10.7882 108.523 10.9034 108.514 11.6624C108.512 11.9584 108.51 12.2544 108.508 12.5594C108.472 13.1273 108.464 13.2498 108.331 13.4079C108.245 13.5092 108.115 13.5618 107.983 13.5684C107.664 13.5841 107.345 13.5885 107.026 13.5876C106.78 13.5876 106.533 13.5875 106.279 13.5875C106.011 13.5861 105.742 13.5847 105.466 13.5833C105.193 13.5829 104.92 13.5825 104.639 13.5821C103.763 13.5806 102.887 13.5771 102.011 13.5736C101.418 13.5723 100.826 13.571 100.234 13.5699C98.7785 13.5671 97.323 13.5618 95.8675 13.5566C95.8675 15.8992 95.8675 18.2419 95.8675 20.6555C96.6155 20.6522 97.3632 20.6492 98.1337 20.6459C98.8551 20.6437 99.5763 20.6421 100.297 20.6405C100.8 20.6391 101.303 20.6372 101.806 20.635C102.527 20.6315 103.248 20.6301 103.969 20.6287C104.195 20.6274 104.421 20.626 104.654 20.6246C105.121 20.6246 105.588 20.635 106.055 20.6489C106.194 20.653 106.333 20.7046 106.42 20.8127C106.547 20.97 106.554 21.1101 106.582 21.722C106.581 22.0458 106.581 22.3696 106.58 22.7032C106.581 23.189 106.581 23.189 106.582 23.6845C106.559 24.1817 106.551 24.3674 106.48 24.5039C106.384 24.689 106.156 24.7548 105.947 24.7603C105.287 24.7769 104.63 24.7819 103.969 24.7778C103.739 24.7772 103.508 24.7769 103.27 24.7764C102.531 24.775 101.792 24.7715 101.053 24.7682C100.552 24.7668 100.052 24.7655 99.5525 24.7644C98.3242 24.7616 97.0957 24.7562 95.8675 24.751C95.8675 27.1837 95.8675 29.6165 95.8675 32.1229C96.7537 32.1197 97.64 32.1167 98.5531 32.1134C99.4076 32.1112 100.262 32.1096 101.116 32.1079C101.712 32.1066 102.308 32.1046 102.904 32.1025C103.758 32.0992 104.612 32.0975 105.466 32.0962C105.868 32.0943 105.868 32.0943 106.279 32.0921C106.649 32.0921 106.649 32.0921 107.026 32.0918C107.244 32.0913 107.463 32.0907 107.687 32.0902C108.003 32.1109 108.12 32.1186 108.232 32.1898C108.4 32.2971 108.47 32.5057 108.48 32.7048C108.501 33.1419 108.511 33.5796 108.514 34.0172C108.517 34.3124 108.521 34.6078 108.525 34.912C108.487 35.2899 108.472 35.5891 108.344 35.8269C108.16 36.1712 107.716 36.2493 107.326 36.2755C107.107 36.2903 106.903 36.2911 106.407 36.2935C106.092 36.296 105.777 36.2987 105.452 36.3015C105.11 36.3012 104.769 36.3009 104.416 36.3006C103.892 36.3023 103.892 36.3023 103.356 36.3042C102.615 36.3058 101.875 36.3061 101.134 36.3047C100.184 36.3031 99.2346 36.3077 98.2851 36.314C97.3796 36.3189 96.4745 36.3181 95.569 36.3176C95.2276 36.3203 94.8862 36.3228 94.5346 36.3252C94.2184 36.3236 93.9024 36.3219 93.5766 36.32C93.2979 36.3203 93.0195 36.3206 92.7322 36.3206C91.9076 36.1999 91.7225 36.0385 91.213 35.3993C91.1333 34.5852 91.1037 33.828 91.1111 33.0136C91.11 32.7698 91.1089 32.5259 91.1081 32.2747C91.1059 31.4676 91.1095 30.6606 91.1136 29.8535C91.1136 29.2932 91.1136 28.7332 91.113 28.1732C91.113 26.9989 91.116 25.8248 91.121 24.6505C91.1273 23.1436 91.1273 21.637 91.1253 20.1304C91.1245 18.9739 91.1264 17.8173 91.1289 16.6607C91.13 16.1051 91.1303 15.5495 91.13 14.9937C91.13 14.2178 91.1333 13.4419 91.1377 12.666C91.1368 12.32 91.1368 12.32 91.1357 11.9671C91.1409 11.3837 91.1461 10.9602 91.2488 10.5476Z" fill="white"/>
<path d="M61.933 9.25724C61.933 9.25724 63.6174 9.20463 64.1168 9.81464C64.1215 9.82032 64.1264 9.82608 64.1313 9.83195C64.9045 11.1332 65.5923 12.4475 66.2152 13.8263C66.3102 14.0329 66.4049 14.2396 66.5027 14.4525C66.8063 15.1148 67.1077 15.7782 67.4089 16.4414C67.617 16.8973 67.8251 17.353 68.0334 17.8087C68.4409 18.7007 68.8474 19.5933 69.2532 20.4861C69.7176 21.5078 70.1863 22.5278 70.657 23.5468C70.8806 24.0339 71.1041 24.5207 71.3275 25.0078C71.4269 25.2222 71.5265 25.4365 71.6289 25.6571C72.0021 26.4778 72.4561 27.9771 72.4561 27.9771C72.6368 27.9771 72.6302 27.9771 72.8164 27.9771C72.8637 27.8261 72.9114 27.6748 72.9604 27.5189C73.4349 26.0505 73.9931 24.6581 74.6494 23.262C74.745 23.0556 74.8405 22.8495 74.9391 22.6371C75.2458 21.9763 75.5541 21.3164 75.8624 20.6565C76.2832 19.7516 76.7032 18.8462 77.1232 17.9411C77.2256 17.7211 77.3277 17.501 77.4331 17.2744C78.3328 15.3369 79.2117 13.3905 80.0684 11.4337C80.5481 10.3524 80.6623 10.0955 80.958 9.76648C81.1721 9.52818 81.479 9.39302 81.799 9.36818C82.1804 9.33858 82.3647 9.3394 83.0837 9.34257C83.4027 9.34115 83.7216 9.33975 84.0505 9.33831C84.6424 9.39111 84.8031 9.40547 85.0586 9.62024C85.2957 9.81999 85.4069 10.1344 85.365 10.4413C85.196 11.6802 84.6561 12.7361 84.0976 13.8754C83.9922 14.0948 83.8867 14.3142 83.778 14.5402C83.4342 15.2545 83.0878 15.9674 82.7415 16.6803C82.3828 17.4246 82.0247 18.1688 81.6668 18.9134C81.4278 19.4106 81.1885 19.9078 80.9489 20.405C79.9537 22.4713 78.9809 24.5472 78.0185 26.6291C76.6134 29.6628 75.1776 32.6812 73.7254 35.6928C73.5044 36.1504 73.0464 36.4411 72.5368 36.4411C72.0399 36.4411 71.5777 36.1643 71.3529 35.7222C69.7534 32.5772 68.2645 29.3829 66.783 26.1802C66.0654 24.6294 65.3451 23.0802 64.6239 21.531C64.2712 20.7733 63.9186 20.0157 63.5662 19.258C63.3349 18.7608 63.1035 18.2636 62.8721 17.7667C62.5441 17.0622 62.2167 16.3578 61.8892 15.6534C61.7923 15.4454 61.6954 15.2374 61.5957 15.0232C61.4112 14.6263 61.228 14.2288 61.0457 13.8307C60.851 13.4099 60.6508 12.9915 60.4466 12.575C60.3436 12.3594 60.2407 12.1438 60.1347 11.9217C59.9926 11.6313 59.9926 11.6313 59.8475 11.3351C59.7262 10.9438 59.6994 10.6649 59.7465 10.3699C59.8212 9.90412 60.1115 9.46043 60.5701 9.34491C60.9969 9.23739 61.4837 9.28086 61.933 9.25724Z" fill="white"/>
<path d="M47.1287 9.11436C47.3612 9.02939 47.6204 9.02341 47.8493 9.11788C48.5445 9.40479 48.7583 9.91009 49.1969 10.6436C50.0422 12.1928 50.7707 13.7989 51.5111 15.3996C51.6926 15.7895 51.8744 16.1794 52.0562 16.5693C52.4272 17.3647 52.7971 18.1603 53.1662 18.9562C53.6579 20.0161 54.1515 21.0752 54.6457 22.1338C55.2303 23.3856 55.8127 24.6386 56.3934 25.8924C56.9163 27.0195 57.4448 28.1435 57.9808 29.2646C58.2185 29.7621 58.4548 30.2601 58.6905 30.7584C58.9857 31.3812 59.283 32.0026 59.5834 32.6227C59.7142 32.8998 59.8448 33.1769 59.9795 33.4625C60.0959 33.7055 60.2123 33.9485 60.3322 34.1992C60.436 34.5164 60.4954 34.7575 60.5039 34.9866C60.5274 35.6288 59.9623 36.1546 59.3227 36.2336C58.9892 36.2751 58.647 36.2671 58.236 36.2699C57.971 36.2737 57.706 36.2775 57.433 36.2813C56.9352 36.2379 56.7816 36.2245 56.4629 36.04C56.0769 35.8164 55.7754 35.4704 55.5717 35.0745C55.4304 34.8004 55.3313 34.5784 55.0575 33.9649C54.9787 33.7899 54.8996 33.6149 54.8182 33.4347C54.5579 32.8561 54.3008 32.2762 54.0437 31.6965C53.8635 31.2946 53.6831 30.8933 53.5024 30.4919C53.1237 29.6499 52.7462 28.8073 52.3691 27.9647C51.5061 26.0376 50.6275 24.1176 49.75 22.1971C49.31 21.2339 48.8711 20.27 48.432 19.3065C48.286 18.9862 48.1401 18.6662 47.9898 18.3364C47.8868 18.1106 47.7839 17.8848 47.6779 17.6522C46.0864 20.7689 44.5934 23.9216 43.1433 27.106C40.6236 32.6363 39.7483 34.5577 39.2664 35.4027C38.937 35.9802 38.2758 36.2464 37.6097 36.2614C37.4123 36.266 37.2146 36.2685 37.0169 36.2699C36.7209 36.2737 36.4247 36.2775 36.1197 36.2813C36.0299 36.274 35.9505 36.2674 35.8796 36.2609C35.0801 36.1855 34.818 35.2048 35.0165 34.4291C35.183 33.7782 35.4324 33.1663 35.7443 32.5091C35.9521 32.0673 35.9521 32.0673 36.164 31.6165C36.3157 31.2993 36.4674 30.9823 36.6235 30.6555C36.7831 30.3174 36.9427 29.9794 37.102 29.6411C37.4399 28.9247 37.7789 28.2088 38.1189 27.4934C38.8973 25.8541 39.6675 24.2113 40.4388 22.5687C40.6959 22.021 40.9535 21.4738 41.2114 20.9264C42.0733 19.096 42.9314 17.2642 43.7818 15.4285C43.8642 15.2505 43.9467 15.0726 44.0315 14.8893C44.4233 14.0443 44.8143 13.199 45.2042 12.3531C45.3419 12.0558 45.4794 11.7586 45.6212 11.4524C45.8013 11.0618 45.8013 11.0618 45.9853 10.6633C46.563 9.49238 46.666 9.28334 47.1287 9.11436Z" fill="white"/>
<path d="M1.78124 41.9543C2.03173 41.9535 2.28223 41.953 2.54031 41.9524C2.81731 41.953 3.09428 41.9532 3.37966 41.9538C3.66963 41.9532 3.95963 41.953 4.2584 41.9527C5.22219 41.9516 6.18597 41.9521 7.14976 41.953C7.81621 41.953 8.48268 41.9527 9.14915 41.9524C10.548 41.9521 11.9468 41.9524 13.3457 41.9535C15.1434 41.9546 16.9409 41.9541 18.7386 41.9527C20.1155 41.9519 21.4922 41.9521 22.8691 41.9527C23.5319 41.953 24.1951 41.9527 24.8582 41.9521C25.7831 41.9516 26.708 41.9524 27.6326 41.9538C27.9097 41.9532 28.1867 41.953 28.472 41.9524C28.8477 41.9532 28.8477 41.9532 29.231 41.9543C29.45 41.9543 29.6691 41.9543 29.8947 41.9546C30.0466 41.9628 30.1523 41.9685 30.2336 41.9786C30.5447 42.0171 30.6774 42.3745 30.6876 42.6869C30.6972 42.988 30.7004 43.2892 30.6996 43.5901C30.7007 43.9718 30.7007 43.9718 30.7018 44.3611C30.6826 44.6915 30.6736 44.8466 30.6287 44.9517C30.54 45.1584 30.2717 45.2064 30.0464 45.2138C29.7747 45.2231 29.5029 45.2261 29.231 45.2261C28.9807 45.2267 28.7302 45.2272 28.472 45.228C28.1949 45.2275 27.9181 45.2272 27.6326 45.2267C27.3426 45.2269 27.0527 45.2275 26.754 45.2277C25.7902 45.2288 24.8264 45.228 23.8627 45.2275C23.1963 45.2275 22.5296 45.2277 21.8632 45.228C20.4643 45.2283 19.0655 45.2277 17.6667 45.2269C15.869 45.2256 14.0715 45.2264 12.2738 45.2277C10.8969 45.2283 9.52014 45.228 8.14331 45.2275C7.48029 45.2275 6.81726 45.2277 6.15424 45.228C5.22936 45.2286 4.30451 45.2277 3.37966 45.2267C3.10268 45.2272 2.82568 45.2275 2.54031 45.228C2.16458 45.2269 2.16458 45.2269 1.78124 45.2261C1.56231 45.2261 1.34336 45.2258 1.11778 45.2258C0.965657 45.2176 0.860026 45.2119 0.778873 45.2018C0.467842 45.163 0.334888 44.8059 0.324812 44.4933C0.315092 44.1924 0.311834 43.8912 0.312683 43.5901C0.311971 43.3359 0.311259 43.0814 0.310547 42.8193C0.366346 41.8604 0.671682 41.9546 1.78124 41.9543Z" fill="white"/>
<path d="M148.442 9.38818C148.736 9.38958 149.029 9.391 149.332 9.39244C149.772 9.39034 149.772 9.39034 150.222 9.38818C150.974 9.4607 150.974 9.4607 151.522 10.0068C151.577 10.8183 151.597 11.6043 151.593 12.4161C151.594 12.6656 151.595 12.9151 151.596 13.1723C151.598 13.9999 151.597 14.8275 151.595 15.6553C151.595 16.2284 151.596 16.8018 151.597 17.3752C151.597 18.5779 151.596 19.7806 151.594 20.9833C151.59 22.5279 151.592 24.0722 151.595 25.6164C151.597 26.8006 151.597 27.985 151.595 29.1692C151.595 29.7387 151.595 30.3083 151.597 30.8778C151.598 31.6729 151.596 32.4677 151.593 33.2628C151.594 33.4998 151.595 33.737 151.596 33.9814C151.591 34.7421 151.588 35.1473 151.524 35.4252C151.383 36.0428 150.63 36.2779 149.995 36.2866C149.834 36.2888 149.634 36.2877 149.332 36.2864C148.891 36.2885 148.891 36.2885 148.442 36.2907C148.04 36.252 147.853 36.2339 147.682 36.1425C147.273 35.9235 147.122 35.4176 147.102 34.9553C147.077 34.392 147.068 33.8337 147.07 33.2628C147.07 33.0132 147.068 32.7637 147.068 32.5065C147.065 31.6789 147.067 30.8513 147.069 30.0235C147.068 29.4504 147.068 28.877 147.067 28.3036C147.066 27.1009 147.067 25.8982 147.07 24.6955C147.073 23.1509 147.071 21.6066 147.068 20.0624C147.066 18.8782 147.067 17.6938 147.068 16.5096C147.069 15.9401 147.068 15.3705 147.067 14.8009C147.065 14.0059 147.067 13.2111 147.07 12.4161C147.069 12.1789 147.068 11.9417 147.067 11.6974C147.083 9.5191 147.083 9.5191 148.442 9.38818Z" fill="white"/>
</g>
<defs>
<clipPath id="clip0_1724_2753">
<rect width="180" height="48" fill="white" transform="translate(0.576172)"/>
</clipPath>
</defs>
</svg>
