<svg width="180" height="48" viewBox="0 0 180 48" fill="none" xmlns="http://www.w3.org/2000/svg">
<path d="M14.9783 10.7341C15.1256 10.3894 15.4696 10.1731 15.8454 10.1731C15.9304 10.1731 16.0155 10.1731 16.101 10.1731C16.456 10.1731 16.7831 10.3669 16.9471 10.6809C18.3328 13.3337 19.4264 16.1179 20.5688 18.8821C20.8932 19.6645 21.2178 20.4467 21.5426 21.2291C21.7434 21.7126 21.944 22.1963 22.1438 22.6803C22.7141 24.0564 23.3031 25.422 23.9173 26.7788C24.5308 25.2992 25.144 23.8196 25.757 22.3398C25.9646 21.8392 26.1721 21.3384 26.3797 20.8375C26.6826 20.1074 26.9849 19.3772 27.2876 18.647C27.3877 18.4056 27.4876 18.1642 27.5909 17.9154C28.1076 16.6678 28.6214 15.4192 29.1307 14.1687C29.2308 13.9234 29.3307 13.6781 29.4338 13.4253C29.6247 12.9568 29.8151 12.4881 30.0048 12.0191C30.0895 11.8112 30.1742 11.6034 30.2613 11.3892C30.3356 11.206 30.41 11.0227 30.4865 10.834C30.6952 10.3678 31.2023 10.1662 31.7141 10.1656C31.7631 10.1655 31.8124 10.1655 31.8614 10.1656C32.3153 10.1665 32.7294 10.4354 32.8803 10.8624C33.1518 11.6315 33.3193 12.4118 33.4713 13.2307C33.5063 13.4137 33.5413 13.5966 33.5772 13.7851C33.6924 14.3883 33.8055 14.9919 33.9185 15.5955C33.9984 16.018 34.0783 16.4404 34.1584 16.8627C34.3256 17.7489 34.4921 18.635 34.6579 19.5211C34.8691 20.6491 35.0827 21.7766 35.2972 22.9039C35.463 23.7773 35.6274 24.6506 35.791 25.5242C35.8692 25.9396 35.9479 26.3548 36.0268 26.7699C36.4412 28.9472 36.7892 31.0819 36.9241 33.289C36.9415 33.574 36.7868 33.8507 36.5114 33.9299C36.0338 34.0673 35.5839 34.0406 35.0187 34.044C34.76 34.0474 34.5011 34.0507 34.2344 34.0543C33.7643 34.0151 33.6272 34.0036 33.4158 33.8293C33.187 33.6406 33.0424 33.3682 32.9742 33.0804C32.931 32.8979 32.9042 32.7427 32.8339 32.337C32.7905 32.091 32.7471 31.8453 32.7022 31.5919C32.6573 31.3252 32.6121 31.0586 32.5658 30.7837C32.4946 30.3731 32.4946 30.3731 32.4217 29.9544C32.3216 29.3744 32.2222 28.7941 32.1237 28.2137C31.9731 27.3271 31.8191 26.4409 31.6647 25.5548C31.5677 24.9914 31.4709 24.428 31.3741 23.8646C31.3282 23.5999 31.2822 23.3349 31.2349 23.0622C31.1929 22.8134 31.1509 22.5645 31.1077 22.308C31.0707 22.0904 31.0336 21.8726 30.9952 21.6483C30.9091 20.9463 30.9028 20.2657 30.916 19.5589C30.7568 19.5589 30.5975 19.5589 30.4334 19.5589C30.4054 19.7257 30.3774 19.8922 30.3484 20.064C30.1727 20.8489 29.9111 21.5588 29.6198 22.3087C29.5624 22.4572 29.505 22.6057 29.4456 22.7585C29.2581 23.2418 29.0691 23.7243 28.8797 24.2068C28.8157 24.3712 28.7515 24.5356 28.6854 24.705C27.7893 27.001 26.8718 29.287 25.9233 31.562C25.8217 31.8063 25.7201 32.0506 25.6151 32.3023C25.2326 33.2111 25.0589 33.6238 24.9355 33.8556C24.789 34.1311 24.4666 34.2433 24.1539 34.2457C23.9596 34.2471 23.7651 34.2474 23.5708 34.2464C23.1936 34.2447 22.855 34.0187 22.7046 33.6739C21.198 30.2172 19.7721 26.73 18.3586 23.2341C18.2425 22.9472 18.2425 22.9472 18.124 22.6543C17.9771 22.2909 17.8303 21.9275 17.6837 21.5639C17.3249 20.6712 17.3249 20.6712 16.9186 19.7996C16.893 19.9598 16.8674 20.1199 16.8411 20.285C16.5739 21.9525 16.3032 23.6194 16.0304 25.286C15.9291 25.9079 15.8287 26.53 15.7292 27.1523C15.586 28.0469 15.4396 28.9412 15.2925 29.835C15.2487 30.1132 15.2049 30.3912 15.1598 30.6778C15.1164 30.9377 15.073 31.1979 15.0282 31.466C14.9912 31.6941 14.9543 31.9223 14.9161 32.1574C14.7753 32.6879 14.5981 33.1073 14.3387 33.5314C14.1494 33.8409 13.8267 34.0517 13.4661 34.0984C13.2283 34.1292 13.0471 34.1224 12.5595 34.1042C12.3029 34.0989 12.0462 34.0936 11.7818 34.088C11.4328 34.0406 11.2697 34.0182 11.1206 33.9352C10.7666 33.7379 10.6513 33.2873 10.6813 32.884C10.8358 30.8124 11.2924 28.7626 11.6753 26.7235C11.7544 26.2992 11.8335 25.8751 11.9125 25.4508C12.0777 24.5657 12.2438 23.6807 12.4103 22.7961C12.6231 21.6652 12.8331 20.5338 13.0423 19.4022C13.2046 18.5276 13.3686 17.6533 13.5331 16.7792C13.6113 16.3622 13.6888 15.9451 13.7657 15.5279C13.8735 14.9443 13.9837 14.3612 14.0946 13.7781C14.1255 13.6079 14.1563 13.4377 14.1882 13.2624C14.3645 12.3507 14.628 11.5535 14.9783 10.7341Z" fill="white"/>
<path d="M113.27 10C113.973 10.0115 114.212 10.1456 114.754 10.6092C115.33 11.2462 115.872 11.9005 116.407 12.5721C116.779 13.0286 117.151 13.4849 117.523 13.9409C117.703 14.1627 117.883 14.3845 118.068 14.6131C118.501 15.1265 118.941 15.5966 119.424 16.0617C120.091 16.7043 120.67 17.3844 121.249 18.1074C122.438 19.5824 123.732 20.9484 125.033 22.3255C127.19 24.6104 127.19 24.6104 127.991 25.8086C127.994 25.6293 127.996 25.45 127.999 25.2652C128.022 23.5762 128.047 21.887 128.073 20.1978C128.086 19.3295 128.099 18.4612 128.111 17.5926C128.123 16.7546 128.135 15.9166 128.149 15.0788C128.156 14.6032 128.162 14.1277 128.168 13.6522C128.173 13.3631 128.178 13.0741 128.183 12.7763C128.187 12.5214 128.19 12.2664 128.194 12.0038C128.219 11.6017 128.227 11.4542 128.292 11.2168C128.392 10.8472 128.662 10.5279 129.036 10.4433C129.427 10.355 129.803 10.3748 130.284 10.376C130.52 10.3754 130.757 10.3748 131 10.3742C131.472 10.3988 131.579 10.4045 131.826 10.5165C131.992 10.592 132.094 10.7617 132.094 10.9436C132.1 13.8843 132.104 16.8249 132.106 19.7656C132.108 21.1768 132.109 22.5881 132.112 23.9993C132.115 25.36 132.116 26.7207 132.117 28.0812C132.117 28.6018 132.118 29.1221 132.119 29.6424C132.121 30.3687 132.121 31.0948 132.121 31.8209C132.122 32.0385 132.123 32.2558 132.124 32.4798C132.121 33.9638 132.121 33.9638 131.853 34.2319C131.227 34.3014 131.094 34.3164 130.627 34.2762C130.325 34.2502 130.037 34.1282 129.815 33.9221C129.565 33.6901 129.47 33.5583 129.107 33.0586C128.404 32.1285 127.698 31.2378 126.905 30.3813C126.158 29.564 125.445 28.7298 124.748 27.8692C124.006 26.954 123.24 26.0731 122.44 25.207C121.45 24.1336 120.521 23.0246 119.603 21.8894C118.875 21.011 118.109 20.1713 117.336 19.3333C116.89 18.8294 116.89 18.8294 116.407 18.1074C116.406 18.2958 116.404 18.484 116.403 18.6782C116.389 20.4524 116.371 22.2263 116.35 24.0005C116.339 24.9126 116.33 25.8248 116.323 26.7369C116.317 27.617 116.307 28.4971 116.295 29.3772C116.291 29.7132 116.288 30.0491 116.287 30.3849C116.285 30.8551 116.278 31.3254 116.27 31.7954C116.267 32.0633 116.265 32.3309 116.262 32.6069C116.179 33.178 116.167 33.2567 115.955 33.5544C115.878 33.6625 115.783 33.7585 115.667 33.8244C115.163 34.1113 114.727 34.0774 114.099 34.0663C113.865 34.0656 113.631 34.0646 113.389 34.0637C112.92 34.0071 112.816 33.9948 112.565 33.764C112.392 33.6054 112.296 33.3811 112.283 33.1472C112.253 32.5424 112.242 31.948 112.246 31.3381C112.245 31.1131 112.245 30.8881 112.244 30.6563C112.243 29.91 112.246 29.1637 112.249 28.4174C112.249 27.9007 112.249 27.384 112.249 26.8673C112.249 25.7834 112.251 24.6997 112.255 23.6157C112.259 22.2232 112.26 20.8307 112.26 19.438C112.26 18.3709 112.261 17.3038 112.263 16.2365C112.263 15.7229 112.264 15.2093 112.264 14.6956C112.265 13.9793 112.267 13.263 112.269 12.5467C112.269 12.3323 112.269 12.1178 112.269 11.8969C112.278 10.2267 112.278 10.2267 113.27 10Z" fill="white"/>
<path d="M152.85 10.3676C153.149 10.3641 153.149 10.3641 153.455 10.3605C153.672 10.3595 153.889 10.3585 154.113 10.3574C154.337 10.3561 154.561 10.3547 154.791 10.3533C155.267 10.351 155.743 10.3494 156.218 10.3485C156.939 10.3462 157.66 10.3387 158.381 10.3311C158.843 10.3296 159.306 10.3283 159.769 10.3274C159.982 10.3244 160.195 10.3214 160.415 10.3184C162.817 10.3268 165.023 10.9653 166.843 12.5723C168.328 14.3699 169.156 16.3038 168.973 18.6529C168.565 21.0018 167.042 22.7481 165.154 24.1242C164.834 24.2881 164.512 24.4488 164.188 24.6055C164.303 24.812 164.418 25.0183 164.535 25.231C164.961 25.9987 165.386 26.7667 165.812 27.5344C165.996 27.8665 166.18 28.1984 166.364 28.5303C166.629 29.0082 166.893 29.4862 167.158 29.9641C167.24 30.1117 167.322 30.2594 167.406 30.4115C167.622 30.8019 167.836 31.1932 168.05 31.5848C168.15 31.7636 168.249 31.9426 168.352 32.127C168.566 32.6252 168.554 32.907 168.44 33.3371C168.389 33.5306 168.296 33.7214 168.132 33.8381C167.986 33.9428 167.786 33.9996 167.287 34.015C166.976 34.0121 166.666 34.0092 166.346 34.0063C165.878 34.0032 165.878 34.0032 165.402 33.9998C165.341 33.9991 165.281 33.9984 165.221 33.9977C164.88 33.9938 164.566 33.8112 164.397 33.5166C163.264 31.5458 162.18 29.5553 161.157 27.5236C161.05 27.3132 160.944 27.1031 160.834 26.8865C160.736 26.6904 160.638 26.4942 160.537 26.2921C160.45 26.1174 160.363 25.9429 160.273 25.7629C160.086 25.3275 160.086 24.8462 160.086 24.8462C158.493 24.8462 156.9 24.8462 155.259 24.8462C155.265 25.4661 155.27 26.0858 155.276 26.7246C155.28 27.3233 155.283 27.9223 155.286 28.5214C155.288 28.9382 155.291 29.3553 155.296 29.7721C155.301 30.3706 155.304 30.9692 155.306 31.5679C155.309 31.7549 155.311 31.9419 155.314 32.1347C155.314 32.4423 155.303 32.7498 155.286 33.0572C155.271 33.3491 155.156 33.6369 154.93 33.8234C154.719 33.997 154.582 34.0102 154.113 34.0554C153.854 34.054 153.595 34.0528 153.328 34.0516C152.94 34.0535 152.94 34.0535 152.544 34.0554C152.027 34.0056 151.913 33.9946 151.659 33.7642C151.485 33.6064 151.389 33.3809 151.377 33.1467C151.348 32.5484 151.338 31.9602 151.343 31.3566C151.343 31.1335 151.343 30.9104 151.343 30.6808C151.343 29.941 151.347 29.2015 151.351 28.4617C151.352 27.9498 151.352 27.4379 151.353 26.926C151.355 25.5768 151.359 24.2277 151.365 22.8785C151.37 21.5026 151.372 20.1265 151.374 18.7506C151.379 16.0494 151.388 13.3482 151.398 10.647C151.942 10.3754 152.245 10.3732 152.85 10.3676ZM155.259 14.0163C155.259 16.5577 155.259 19.0991 155.259 21.7175C156.693 21.7399 156.693 21.7399 158.155 21.7628C158.601 21.7724 158.601 21.7724 159.056 21.7825C160.959 21.797 162.415 21.6788 163.917 20.4088C164.756 19.3995 165.028 18.7605 164.988 17.4072C164.803 16.1755 164.19 15.4157 163.238 14.648C162.111 14.0514 161.119 13.9863 159.855 13.9928C159.492 13.9937 159.492 13.9937 159.122 13.9946C158.818 13.9968 158.514 13.999 158.2 14.0012C156.745 14.0087 156.745 14.0087 155.259 14.0163Z" fill="white"/>
<path d="M90.5573 11.3644C90.7209 10.7069 91.3899 10.3192 92.0692 10.3172C92.153 10.3169 92.2492 10.317 92.3624 10.317C92.646 10.3156 92.9296 10.314 93.2216 10.3125C93.529 10.3147 93.8365 10.3169 94.1531 10.3192C94.4674 10.3191 94.7816 10.319 95.1054 10.3189C95.7708 10.3189 96.4362 10.3214 97.1018 10.3257C97.9554 10.3312 98.8092 10.3313 99.6628 10.3297C100.476 10.3287 101.289 10.3316 102.102 10.3343C102.41 10.334 102.717 10.3338 103.034 10.3336C103.317 10.3359 103.601 10.3382 103.893 10.3406C104.143 10.3417 104.394 10.3428 104.652 10.3439C105.158 10.3972 105.234 10.4052 105.541 10.7016C105.664 10.8203 105.738 10.9816 105.751 11.152C105.785 11.5764 105.784 11.678 105.775 12.347C105.773 12.6079 105.772 12.8688 105.77 13.1376C105.738 13.6382 105.732 13.7462 105.614 13.8856C105.538 13.9748 105.424 14.0212 105.307 14.027C105.026 14.0408 104.745 14.0447 104.464 14.0439C104.247 14.0439 104.029 14.0439 103.805 14.0439C103.569 14.0426 103.333 14.0414 103.089 14.0401C102.848 14.0398 102.608 14.0394 102.36 14.0391C101.588 14.0377 100.815 14.0347 100.043 14.0317C99.5211 14.0304 98.9991 14.0293 98.4769 14.0284C97.1942 14.0259 95.9113 14.0212 94.6283 14.0166C94.6283 16.0815 94.6283 18.1464 94.6283 20.2739C95.2877 20.271 95.9467 20.2683 96.6259 20.2655C97.2618 20.2635 97.8974 20.2621 98.5331 20.2606C98.9764 20.2594 99.4195 20.2578 99.8626 20.2558C100.498 20.2527 101.134 20.2515 101.769 20.2503C101.969 20.2491 102.168 20.2479 102.373 20.2467C102.785 20.2467 103.197 20.2558 103.608 20.2681C103.731 20.2717 103.853 20.3172 103.93 20.4125C104.042 20.5511 104.048 20.6746 104.072 21.2139C104.072 21.4993 104.071 21.7848 104.071 22.0789C104.072 22.507 104.072 22.507 104.072 22.9438C104.052 23.3821 104.045 23.5457 103.983 23.666C103.898 23.8292 103.697 23.8872 103.513 23.892C102.931 23.9067 102.352 23.911 101.769 23.9074C101.566 23.9069 101.363 23.9067 101.154 23.9062C100.502 23.905 99.8503 23.9019 99.1987 23.899C98.7578 23.8978 98.3171 23.8966 97.8765 23.8956C96.7938 23.8932 95.711 23.8884 94.6283 23.8838C94.6283 26.0282 94.6283 28.1725 94.6283 30.3818C95.4095 30.3789 96.1907 30.3762 96.9956 30.3734C97.7488 30.3714 98.5017 30.37 99.2549 30.3685C99.7801 30.3673 100.305 30.3657 100.83 30.3637C101.583 30.3608 102.336 30.3594 103.089 30.3582C103.444 30.3565 103.444 30.3565 103.805 30.3546C104.131 30.3546 104.131 30.3546 104.464 30.3543C104.657 30.3539 104.849 30.3534 105.047 30.3529C105.325 30.3712 105.428 30.3779 105.527 30.4407C105.675 30.5353 105.736 30.7192 105.745 30.8946C105.764 31.2799 105.773 31.6657 105.775 32.0515C105.778 32.3117 105.782 32.5721 105.785 32.8402C105.752 33.1732 105.738 33.437 105.626 33.6466C105.463 33.9501 105.072 34.0189 104.728 34.042C104.535 34.055 104.355 34.0558 103.919 34.0579C103.641 34.0601 103.363 34.0625 103.077 34.0649C102.775 34.0647 102.474 34.0644 102.164 34.0642C101.701 34.0656 101.701 34.0656 101.229 34.0673C100.576 34.0688 99.9232 34.069 99.2702 34.0678C98.433 34.0663 97.5963 34.0704 96.7593 34.076C95.9612 34.0803 95.1634 34.0796 94.3653 34.0791C94.0643 34.0815 93.7634 34.0837 93.4535 34.0858C93.1748 34.0844 92.8963 34.083 92.6091 34.0813C92.3634 34.0815 92.118 34.0817 91.8648 34.0817C91.1379 33.9754 90.9748 33.8331 90.5256 33.2697C90.4554 32.5521 90.4293 31.8847 90.4359 31.1668C90.4349 30.9519 90.4339 30.737 90.4332 30.5156C90.4313 29.8042 90.4344 29.0928 90.438 28.3814C90.438 27.8875 90.438 27.3939 90.4376 26.9003C90.4376 25.8652 90.4402 24.8304 90.4445 23.7953C90.4501 22.4671 90.4501 21.1391 90.4484 19.8111C90.4477 18.7916 90.4494 17.7722 90.4515 16.7527C90.4525 16.263 90.4528 15.7732 90.4525 15.2833C90.4525 14.5994 90.4554 13.9156 90.4593 13.2316C90.4585 12.9267 90.4585 12.9267 90.4576 12.6156C90.4622 12.1013 90.4668 11.728 90.5573 11.3644Z" fill="white"/>
<path d="M64.7171 10.2266C64.7171 10.2266 66.2018 10.1802 66.642 10.7179C66.6461 10.7229 66.6504 10.728 66.6548 10.7332C67.3363 11.8801 67.9425 13.0386 68.4916 14.254C68.5753 14.4361 68.6588 14.6182 68.745 14.8059C69.0126 15.3897 69.2783 15.9744 69.5438 16.559C69.7272 16.9609 69.9106 17.3625 70.0943 17.7642C70.4534 18.5505 70.8118 19.3372 71.1694 20.1242C71.5787 21.0247 71.9919 21.9239 72.4067 22.822C72.6039 23.2514 72.8008 23.6805 72.9978 24.1098C73.0854 24.2987 73.1732 24.4877 73.2635 24.6821C73.5924 25.4056 73.9925 26.727 73.9925 26.727C74.1518 26.727 74.146 26.727 74.3101 26.727C74.3519 26.594 74.3939 26.4606 74.4371 26.3232C74.8553 25.0289 75.3474 23.8015 75.9259 22.571C76.0101 22.3891 76.0943 22.2074 76.1812 22.0201C76.4515 21.4377 76.7233 20.856 76.995 20.2743C77.3659 19.4768 77.7361 18.6787 78.1063 17.8809C78.1966 17.687 78.2866 17.493 78.3795 17.2932C79.1726 15.5855 79.9472 13.8698 80.7024 12.145C81.1252 11.1919 81.2258 10.9654 81.4865 10.6755C81.6752 10.4654 81.9457 10.3463 82.2278 10.3244C82.564 10.2983 82.7264 10.299 83.3602 10.3018C83.6413 10.3005 83.9225 10.2993 84.2123 10.298C84.7341 10.3446 84.8758 10.3572 85.1009 10.5466C85.3099 10.7226 85.4079 10.9998 85.371 11.2703C85.2221 12.3622 84.7462 13.293 84.2539 14.2972C84.1609 14.4906 84.068 14.684 83.9722 14.8832C83.6691 15.5128 83.3638 16.1412 83.0585 16.7696C82.7424 17.4256 82.4267 18.0817 82.1113 18.7379C81.9006 19.1762 81.6897 19.6144 81.4785 20.0527C80.6013 21.874 79.7438 23.7038 78.8955 25.5389C77.657 28.2129 76.3914 30.8734 75.1114 33.528C74.9166 33.9313 74.5129 34.1876 74.0637 34.1876C73.6257 34.1876 73.2183 33.9436 73.0202 33.554C71.6103 30.7817 70.298 27.9662 68.9921 25.1432C68.3596 23.7763 67.7246 22.4107 67.0889 21.0452C66.7781 20.3774 66.4673 19.7095 66.1567 19.0417C65.9527 18.6034 65.7488 18.1652 65.5449 17.7272C65.2558 17.1062 64.9671 16.4853 64.6785 15.8644C64.593 15.6811 64.5076 15.4978 64.4198 15.309C64.2571 14.9591 64.0957 14.6087 63.9349 14.2579C63.7633 13.8869 63.5869 13.5181 63.4069 13.151C63.3161 12.961 63.2254 12.7709 63.132 12.5751C63.0067 12.3192 63.0068 12.3192 62.8788 12.0581C62.7719 11.7132 62.7483 11.4673 62.7898 11.2073C62.8557 10.7968 63.1115 10.4057 63.5157 10.3039C63.892 10.2091 64.3211 10.2474 64.7171 10.2266Z" fill="white"/>
<path d="M51.6676 10.1007C51.8725 10.0258 52.101 10.0206 52.3028 10.1038C52.9156 10.3567 53.104 10.8021 53.4907 11.4487C54.2357 12.8142 54.8778 14.2299 55.5304 15.6408C55.6904 15.9845 55.8507 16.3282 56.0109 16.6719C56.3379 17.3729 56.664 18.0742 56.9893 18.7757C57.4227 19.71 57.8578 20.6435 58.2935 21.5766C58.8087 22.68 59.322 23.7844 59.8339 24.8896C60.2948 25.883 60.7606 26.8739 61.2332 27.862C61.4426 28.3005 61.6509 28.7395 61.8587 29.1787C62.1188 29.7276 62.3809 30.2754 62.6457 30.8219C62.761 31.0662 62.8762 31.3105 62.9949 31.5622C63.0975 31.7764 63.2 31.9906 63.3057 32.2115C63.3972 32.4912 63.4496 32.7037 63.457 32.9056C63.4778 33.4717 62.9797 33.9352 62.4159 34.0047C62.122 34.0413 61.8203 34.0343 61.4581 34.0367C61.2245 34.0401 60.9909 34.0435 60.7502 34.0468C60.3115 34.0086 60.1761 33.9968 59.8952 33.8341C59.5549 33.637 59.2892 33.3321 59.1096 32.9831C58.9851 32.7415 58.8978 32.5458 58.6564 32.0051C58.5869 31.8508 58.5172 31.6965 58.4455 31.5377C58.216 31.0277 57.9894 30.5165 57.7628 30.0056C57.604 29.6514 57.4449 29.2976 57.2856 28.9438C56.9519 28.2016 56.6191 27.4589 56.2868 26.7162C55.5261 25.0176 54.7516 23.3253 53.9781 21.6324C53.5903 20.7834 53.2035 19.9338 52.8164 19.0845C52.6877 18.8022 52.5591 18.5202 52.4266 18.2294C52.3359 18.0304 52.2451 17.8314 52.1517 17.6263C50.7488 20.3735 49.4329 23.1525 48.1547 25.9593C45.9337 30.834 45.1622 32.5275 44.7374 33.2724C44.4471 33.7814 43.8643 34.016 43.2771 34.0293C43.1031 34.0334 42.9289 34.0355 42.7546 34.0367C42.4938 34.0401 42.2326 34.0435 41.9638 34.0468C41.8846 34.0404 41.8146 34.0346 41.7521 34.0288C41.0474 33.9624 40.8165 33.0979 40.9914 32.4142C41.1382 31.8404 41.358 31.3011 41.6329 30.7218C41.8161 30.3324 41.8161 30.3324 42.0029 29.9351C42.1366 29.6555 42.2703 29.376 42.4078 29.088C42.5485 28.79 42.6892 28.4921 42.8297 28.1939C43.1275 27.5624 43.4263 26.9314 43.726 26.3008C44.4121 24.8559 45.091 23.4078 45.7708 21.96C45.9975 21.4772 46.2246 20.9949 46.4519 20.5124C47.2116 18.899 47.968 17.2843 48.7175 15.6662C48.7902 15.5094 48.8628 15.3526 48.9376 15.191C49.283 14.4462 49.6276 13.7011 49.9713 12.9555C50.0927 12.6935 50.2138 12.4315 50.3388 12.1616C50.4976 11.8173 50.4976 11.8173 50.6598 11.4661C51.169 10.4339 51.2598 10.2497 51.6676 10.1007Z" fill="white"/>
<path d="M11.6967 39.0475C11.9175 39.0468 12.1383 39.0463 12.3658 39.0459C12.61 39.0463 12.8541 39.0466 13.1056 39.0471C13.3612 39.0466 13.6168 39.0463 13.8802 39.0461C14.7297 39.0451 15.5792 39.0456 16.4288 39.0463C17.0162 39.0463 17.6036 39.0461 18.1911 39.0459C19.4241 39.0456 20.6571 39.0459 21.8901 39.0468C23.4747 39.0478 25.0591 39.0473 26.6437 39.0461C27.8573 39.0454 29.0708 39.0456 30.2844 39.0461C30.8687 39.0463 31.4532 39.0461 32.0377 39.0456C32.853 39.0451 33.6682 39.0459 34.4832 39.0471C34.7274 39.0466 34.9716 39.0463 35.2231 39.0459C35.5542 39.0466 35.5542 39.0466 35.8921 39.0475C36.0852 39.0475 36.2782 39.0475 36.4771 39.0478C36.611 39.055 36.7042 39.0601 36.7758 39.069C37.05 39.1029 37.1671 39.4179 37.176 39.6933C37.1844 39.9587 37.1873 40.2242 37.1866 40.4894C37.1876 40.8258 37.1876 40.8258 37.1885 41.169C37.1716 41.4602 37.1637 41.5969 37.1241 41.6896C37.0459 41.8717 36.8094 41.9141 36.6108 41.9206C36.3714 41.9288 36.1317 41.9314 35.8921 41.9314C35.6715 41.9319 35.4507 41.9324 35.2231 41.9331C34.9789 41.9326 34.7349 41.9324 34.4832 41.9319C34.2276 41.9322 33.972 41.9326 33.7087 41.9329C32.8592 41.9338 32.0097 41.9331 31.1602 41.9326C30.5728 41.9326 29.9852 41.9329 29.3978 41.9331C28.1648 41.9334 26.9318 41.9329 25.6988 41.9321C24.1142 41.9309 22.5299 41.9317 20.9453 41.9329C19.7317 41.9334 18.5181 41.9331 17.3045 41.9326C16.7201 41.9326 16.1357 41.9329 15.5513 41.9331C14.736 41.9336 13.9208 41.9329 13.1056 41.9319C12.8615 41.9324 12.6173 41.9326 12.3658 41.9331C12.0346 41.9321 12.0346 41.9322 11.6967 41.9314C11.5037 41.9314 11.3108 41.9312 11.1119 41.9312C10.9778 41.924 10.8847 41.9189 10.8132 41.91C10.539 41.8758 10.4218 41.561 10.413 41.2855C10.4044 41.0203 10.4015 40.7548 10.4023 40.4894C10.4016 40.2653 10.401 40.041 10.4004 39.81C10.4496 38.9648 10.7187 39.0478 11.6967 39.0475Z" fill="white"/>
<path d="M140.969 10.3423C141.228 10.3435 141.487 10.3448 141.754 10.346C142.142 10.3442 142.142 10.3442 142.538 10.3423C143.202 10.4062 143.202 10.4062 143.684 10.8875C143.732 11.6028 143.75 12.2957 143.747 13.0112C143.747 13.2311 143.748 13.4511 143.749 13.6777C143.751 14.4072 143.75 15.1367 143.748 15.8664C143.749 16.3716 143.749 16.8769 143.75 17.3823C143.751 18.4425 143.749 19.5026 143.747 20.5627C143.745 21.9242 143.746 23.2854 143.749 24.6466C143.751 25.6903 143.75 26.7343 143.749 27.7781C143.748 28.2801 143.749 28.7821 143.75 29.2841C143.751 29.985 143.749 30.6855 143.747 31.3864C143.748 31.5952 143.749 31.8044 143.75 32.0198C143.745 32.6903 143.742 33.0474 143.686 33.2924C143.561 33.8368 142.898 34.044 142.338 34.0517C142.196 34.0536 142.02 34.0527 141.754 34.0515C141.365 34.0534 141.365 34.0534 140.969 34.0553C140.615 34.0211 140.45 34.0053 140.3 33.9246C139.939 33.7316 139.806 33.2857 139.788 32.8782C139.766 32.3817 139.758 31.8896 139.76 31.3864C139.76 31.1664 139.759 30.9464 139.758 30.7197C139.756 29.9903 139.757 29.2608 139.759 28.5311C139.758 28.026 139.758 27.5206 139.757 27.0152C139.757 25.955 139.758 24.8949 139.76 23.8348C139.763 22.4734 139.761 21.1122 139.758 19.751C139.757 18.7072 139.757 17.6632 139.758 16.6194C139.759 16.1174 139.758 15.6153 139.757 15.1133C139.756 14.4126 139.758 13.7119 139.76 13.0112C139.759 12.8022 139.758 12.5931 139.757 12.3777C139.771 10.4577 139.771 10.4577 140.969 10.3423Z" fill="white"/>
</svg>
