<svg width="180" height="48" viewBox="0 0 180 48" fill="none" xmlns="http://www.w3.org/2000/svg">
<path fill-rule="evenodd" clip-rule="evenodd" d="M172.704 17.4393C174.306 17.4393 175.606 16.1363 175.606 14.5289C175.606 12.9215 174.306 11.6184 172.704 11.6184C171.101 11.6184 169.802 12.9215 169.802 14.5289C169.802 16.1363 171.101 17.4393 172.704 17.4393ZM172.704 17.8346C174.524 17.8346 176 16.3546 176 14.5289C176 12.7032 174.524 11.2231 172.704 11.2231C170.883 11.2231 169.407 12.7032 169.407 14.5289C169.407 16.3546 170.883 17.8346 172.704 17.8346Z" fill="white"/>
<path fill-rule="evenodd" clip-rule="evenodd" d="M172.202 16.2715H171.629V12.876H173.062C173.281 12.8917 173.716 13.0197 173.909 13.3963C173.967 13.5105 173.98 13.6411 173.988 13.7691C174.004 14.0237 174.019 14.2912 173.893 14.5127C173.791 14.6909 173.616 14.8685 173.331 14.942L174.137 16.2715H173.439L172.758 15.0678H172.202V16.2715ZM172.184 13.397V14.5648H172.973C173.134 14.5468 173.456 14.4318 173.456 14.1156C173.456 13.9126 173.453 13.6916 173.314 13.544C173.237 13.4617 173.125 13.397 172.973 13.397H172.184Z" fill="white"/>
<path d="M5.00227 7.91797C6.09007 7.91797 7.17788 7.91797 8.29865 7.91797C8.29865 12.0088 8.29865 16.0996 8.29865 20.3144C6.95455 19.4719 6.16479 18.9387 5.70079 18.6025C5.23109 18.2622 5.0461 17.7501 5.03735 17.1691C5.03431 16.9669 5.033 16.7689 5.04009 16.5955C5.05071 16.1361 5.06134 15.6766 5.07228 15.2033C5.07228 15.2033 5.01163 14.1928 5.04009 13.703C5.05496 13.2196 4.98694 12.5482 5.00226 12.0501C5.04107 10.8583 5.00227 7.91797 5.00227 7.91797Z" fill="white"/>
<path d="M9.5733 12.4629C10.5251 12.4629 12.0549 12.4629 13.0356 12.4629C13.0356 16.281 13.0356 20.0991 13.0356 24.0329C11.3728 23.1991 10.6491 23.0089 10.0697 22.5121C9.70182 22.1967 9.52913 21.7158 9.4777 21.2332C9.43497 20.8321 9.43926 20.5737 9.45257 19.7668C9.45854 19.1296 9.45854 19.1296 9.46464 18.4795C9.47502 18.0366 9.48537 17.5937 9.49604 17.1374C9.5044 16.4658 9.5044 16.4658 9.51293 15.7807C9.52752 14.6746 9.54787 13.5688 9.5733 12.4629Z" fill="white"/>
<path d="M5.03906 21.1401C6.89462 22.3807 7.3575 22.6901 7.82139 23.1167C8.16409 23.4319 8.3776 23.8705 8.40897 24.3357C8.42679 24.6 8.42363 24.8381 8.41592 25.4176C8.41194 25.9449 8.41194 25.9449 8.40788 26.4829C8.40097 26.8504 8.39406 27.2179 8.38695 27.5966C8.38323 27.9673 8.37952 28.3381 8.37568 28.7201C8.36596 29.637 8.35239 30.5537 8.33545 31.4705C7.24764 31.4705 6.15983 31.4705 5.03906 31.4705C5.03906 28.0615 5.03906 24.6525 5.03906 21.1401Z" fill="white"/>
<path d="M9.57227 25.2725C10.8188 25.8975 11.4644 26.1576 11.9349 26.464C12.6262 26.9141 12.9513 27.7633 12.9581 28.5898C12.9598 28.7798 12.9555 29.0143 12.9493 29.3578C12.9453 29.7453 12.9413 30.1328 12.9372 30.5321C12.9268 30.9356 12.9165 31.339 12.9058 31.7548C12.9003 32.1631 12.8946 32.5713 12.8889 32.992C12.8743 34.0002 12.854 35.008 12.8286 36.016C11.8767 36.016 10.5529 36.016 9.57227 36.016C9.57227 32.4707 9.57227 28.9253 9.57227 25.2725Z" fill="white"/>
<path d="M108.837 35.6029H116.799V21.7189C116.799 20.5969 117.804 18.3531 121.827 18.3531C125.85 18.3531 126.576 21.4384 126.436 22.9811H133.56V18.3531C133.56 16.3336 132.303 14.5665 130.626 13.7251C128.951 12.8836 128.28 12.4629 123.922 12.4629C119.564 12.4629 117.078 15.2677 116.379 16.6702V13.3044H108.837V35.6029Z" fill="white"/>
<path d="M16.126 13.2968V35.6028H24.483V23.3977C24.483 20.0307 27.2687 19.189 28.6615 19.189H34.0936C37.1021 19.189 37.8543 21.4336 37.8543 22.5559V35.1819H45.7934V19.189C45.7934 14.812 41.1971 12.876 38.2721 12.876H29.4972C27.1572 12.876 24.9009 15.4012 24.0652 16.6638V13.2968H16.126Z" fill="white"/>
<path fill-rule="evenodd" clip-rule="evenodd" d="M57.1596 19.4129H49.0934C49.2351 17.1423 50.9616 12.6011 56.7352 12.6011H69.0464C71.7354 12.6011 77.1126 13.3674 77.1126 16.4327V22.8187V35.1651H69.8956V32.185C69.3294 33.3202 67.603 35.5908 65.2259 35.5908H54.6123H52.9143C51.4993 35.4489 48.6689 34.0582 48.6689 29.6305C48.6689 25.2029 50.367 23.2445 51.2162 22.8187C51.782 22.393 53.4236 21.5415 55.4616 21.5415H63.9522C65.3672 21.5415 68.5371 21.9673 69.8956 23.6702V19.4129C69.8915 19.4002 69.8869 19.3869 69.8824 19.3728C69.7341 18.9126 69.3455 17.7099 65.2259 17.7099H59.7069C59.7069 17.7099 58.3686 17.7099 57.1596 19.4129ZM58.4332 26.2246C57.7258 26.3666 56.3104 26.991 56.3104 28.3533C56.3104 29.7157 57.7258 30.3401 58.4332 30.482H66.4995C67.4901 30.3401 69.4712 29.7157 69.4712 28.3533C69.4712 26.6504 67.7731 26.2246 65.6503 26.2246H58.4332Z" fill="white"/>
<path d="M79.168 13.0268H83.8443V7.91797H92.3469V13.0268H104.676V18.9871H92.3469V25.7989V27.9275C92.3469 29.2899 93.4805 29.9143 94.0474 30.0563H97.0232C98.3838 30.0563 98.7238 28.921 98.7238 28.3533V25.7989H105.951V29.2048C105.951 33.973 100.566 35.7327 97.8737 36.0165H89.3711C84.9498 36.0165 83.8443 32.043 83.8443 30.0563V18.9871H79.168V13.0268Z" fill="white"/>
<path fill-rule="evenodd" clip-rule="evenodd" d="M144.614 12.6011C141.642 12.6011 135.699 13.8783 135.699 18.9871V28.3533C135.558 30.7658 136.803 35.5908 142.916 35.5908H161.171C164.257 35.5908 167.142 33.9442 167.142 27.1325C167.142 20.3207 167.114 20.2643 167.114 20.2643C167.397 17.7099 166.265 12.6011 159.473 12.6011H144.614ZM147.453 18.5614H156.671C157.746 18.5614 159.897 19.1354 159.897 21.4312V27.1707C159.897 27.9907 159.344 29.6305 157.132 29.6305H146.991C145.916 29.6305 143.765 29.0565 143.765 26.7607V20.6112C143.765 19.9279 144.503 18.5614 147.453 18.5614Z" fill="white"/>
</svg>
