<svg width="147" height="25" viewBox="0 0 147 25" fill="none" xmlns="http://www.w3.org/2000/svg">
<g clip-path="url(#clip0_1195_2453)">
<path fill-rule="evenodd" clip-rule="evenodd" d="M143.241 8.38296C144.61 8.38296 145.72 7.26996 145.72 5.89702C145.72 4.52407 144.61 3.41108 143.241 3.41108C141.872 3.41108 140.763 4.52407 140.763 5.89702C140.763 7.26996 141.872 8.38296 143.241 8.38296ZM143.241 8.72055C144.796 8.72055 146.057 7.45642 146.057 5.89702C146.057 4.33762 144.796 3.07349 143.241 3.07349C141.686 3.07349 140.426 4.33762 140.426 5.89702C140.426 7.45642 141.686 8.72055 143.241 8.72055Z" fill="white"/>
<path fill-rule="evenodd" clip-rule="evenodd" d="M142.814 7.38549H142.324V4.48523H143.549C143.736 4.49864 144.107 4.60798 144.272 4.92969C144.322 5.02721 144.332 5.13874 144.339 5.24808C144.353 5.46556 144.366 5.69398 144.258 5.88323C144.171 6.03538 144.022 6.18711 143.778 6.24994L144.467 7.38549H143.87L143.288 6.35734H142.814V7.38549ZM142.799 4.93025V5.9277H143.472C143.61 5.91235 143.885 5.81412 143.885 5.54405C143.885 5.37065 143.882 5.1819 143.764 5.05579C143.698 4.98549 143.602 4.93025 143.472 4.93025H142.799Z" fill="white"/>
<path d="M0.00193481 0.25C0.93107 0.25 1.8602 0.25 2.8175 0.25C2.8175 3.74412 2.8175 7.23824 2.8175 10.8382C1.66945 10.1187 0.994892 9.66319 0.598567 9.37604C0.197386 9.08535 0.0393767 8.64799 0.0319037 8.15172C0.0293031 7.97902 0.0281829 7.80989 0.0342423 7.66177C0.043316 7.26936 0.0523895 6.87696 0.0617378 6.47267C0.0617378 6.47267 0.00993702 5.60955 0.0342432 5.19118C0.0469463 4.77831 -0.0111543 4.20481 0.00193368 3.77941C0.0350791 2.76146 0.00193481 0.25 0.00193481 0.25Z" fill="white"/>
<path d="M3.90591 4.13232C4.7189 4.13232 6.02557 4.13232 6.86319 4.13232C6.86319 7.3935 6.86319 10.6547 6.86319 14.0147C5.44289 13.3025 4.8248 13.1401 4.32986 12.7157C4.01568 12.4463 3.86818 12.0355 3.82426 11.6233C3.78776 11.2807 3.79142 11.0601 3.80279 10.3708C3.80789 9.82657 3.80789 9.82657 3.8131 9.27132C3.82197 8.89304 3.8308 8.51472 3.83992 8.12497C3.84706 7.55137 3.84706 7.55137 3.85435 6.9662C3.86681 6.02141 3.88419 5.07694 3.90591 4.13232Z" fill="white"/>
<path d="M0.0332031 11.5442C1.6181 12.6038 2.01346 12.8681 2.40969 13.2325C2.7024 13.5017 2.88477 13.8762 2.91156 14.2736C2.92679 14.4994 2.92408 14.7028 2.9175 15.1977C2.9141 15.6481 2.9141 15.6481 2.91063 16.1076C2.90473 16.4215 2.89883 16.7355 2.89276 17.0589C2.88958 17.3756 2.8864 17.6922 2.88313 18.0185C2.87482 18.8016 2.86323 19.5846 2.84876 20.3677C1.91963 20.3677 0.990494 20.3677 0.0332031 20.3677C0.0332031 17.456 0.0332031 14.5442 0.0332031 11.5442Z" fill="white"/>
<path d="M3.90527 15.0735C4.97001 15.6073 5.5214 15.8295 5.92329 16.0912C6.51375 16.4757 6.7914 17.201 6.79728 17.907C6.79865 18.0693 6.79502 18.2695 6.78971 18.5629C6.78629 18.8939 6.78288 19.2249 6.7794 19.5659C6.77053 19.9105 6.76169 20.2552 6.75258 20.6103C6.74783 20.959 6.74304 21.3077 6.73815 21.667C6.72569 22.5282 6.70834 23.389 6.68659 24.25C5.8736 24.25 4.7429 24.25 3.90527 24.25C3.90527 21.2217 3.90527 18.1935 3.90527 15.0735Z" fill="white"/>
<path d="M88.6904 23.897H95.4907V12.0382C95.4907 11.0799 96.3498 9.16332 99.7855 9.16332C103.222 9.16332 103.842 11.7986 103.723 13.1163H109.807V9.16332C109.807 7.43843 108.733 5.92911 107.302 5.21038C105.87 4.49169 105.297 4.13232 101.575 4.13232C97.853 4.13232 95.7293 6.52805 95.1328 7.7259V4.85105H88.6904V23.897Z" fill="white"/>
<path d="M9.50195 4.8447V23.897H16.64V13.4722C16.64 10.5963 19.0194 9.87739 20.209 9.87739H24.8487C27.4184 9.87739 28.0609 11.7946 28.0609 12.7532V23.5375H34.842V9.87739C34.842 6.13883 30.9161 4.48523 28.4178 4.48523H20.9228C18.9242 4.48523 16.9969 6.64209 16.2831 7.72054V4.8447H9.50195Z" fill="white"/>
<path fill-rule="evenodd" clip-rule="evenodd" d="M44.551 10.0683H37.6613C37.7824 8.12891 39.2571 4.25012 44.1885 4.25012H54.7039C57.0007 4.25012 61.5936 4.90469 61.5936 7.52288V12.9774V23.5229H55.4293V20.9774C54.9457 21.9471 53.471 23.8865 51.4407 23.8865H42.3753H40.9249C39.7163 23.7653 37.2988 22.5774 37.2988 18.7956C37.2988 15.0138 38.7492 13.341 39.4746 12.9774C39.9578 12.6138 41.3599 11.8865 43.1006 11.8865H50.3528C51.5614 11.8865 54.2689 12.2501 55.4293 13.7047V10.0683C55.4258 10.0575 55.4219 10.0461 55.418 10.0341C55.2913 9.64098 54.9594 8.61378 51.4407 8.61378H46.7267C46.7267 8.61378 45.5836 8.61378 44.551 10.0683ZM45.6389 15.8865C45.0346 16.0077 43.8256 16.5411 43.8256 17.7047C43.8256 18.8683 45.0346 19.4016 45.6389 19.5229H52.5285C53.3746 19.4016 55.0668 18.8683 55.0668 17.7047C55.0668 16.2501 53.6164 15.8865 51.8032 15.8865H45.6389Z" fill="white"/>
<path d="M63.3496 4.61362H67.3438V0.25H74.6062V4.61362H85.1368V9.70455H74.6062V15.5227V17.3409C74.6062 18.5045 75.5744 19.0379 76.0587 19.1591H78.6004C79.7626 19.1591 80.0529 18.1894 80.0529 17.7045V15.5227H86.226V18.4318C86.226 22.5045 81.6265 24.0076 79.3269 24.25H72.0645C68.2881 24.25 67.3438 20.856 67.3438 19.1591V9.70455H63.3496V4.61362Z" fill="white"/>
<path fill-rule="evenodd" clip-rule="evenodd" d="M119.249 4.25012C116.71 4.25012 111.634 5.34103 111.634 9.70469V17.7047C111.513 19.7653 112.577 23.8865 117.798 23.8865H133.39C136.027 23.8865 138.49 22.4801 138.49 16.6619C138.49 10.8437 138.467 10.7956 138.467 10.7956C138.709 8.61378 137.742 4.25012 131.94 4.25012H119.249ZM121.673 9.34105H129.547C130.465 9.34105 132.303 9.83129 132.303 11.7922V16.6946C132.303 17.3949 131.83 18.7956 129.941 18.7956H121.279C120.361 18.7956 118.524 18.3053 118.524 16.3444V11.0919C118.524 10.5083 119.154 9.34105 121.673 9.34105Z" fill="white"/>
</g>
<defs>
<clipPath id="clip0_1195_2453">
<rect width="146.057" height="24" fill="white" transform="translate(0 0.25)"/>
</clipPath>
</defs>
</svg>
