<svg width="200" height="48" viewBox="0 0 200 48" fill="none" xmlns="http://www.w3.org/2000/svg">
<path fill-rule="evenodd" clip-rule="evenodd" d="M196.144 19.1366C198.019 19.1366 199.539 17.6126 199.539 15.7325C199.539 13.8525 198.019 12.3285 196.144 12.3285C194.27 12.3285 192.75 13.8525 192.75 15.7325C192.75 17.6126 194.27 19.1366 196.144 19.1366ZM196.144 19.5989C198.274 19.5989 200 17.8679 200 15.7325C200 13.5972 198.274 11.8662 196.144 11.8662C194.015 11.8662 192.289 13.5972 192.289 15.7325C192.289 17.8679 194.015 19.5989 196.144 19.5989Z" fill="white"/>
<path fill-rule="evenodd" clip-rule="evenodd" d="M195.56 17.7707H194.889V13.7993H196.565C196.821 13.8177 197.33 13.9674 197.555 14.4079C197.624 14.5415 197.639 14.6942 197.648 14.8439C197.667 15.1417 197.684 15.4545 197.536 15.7136C197.418 15.922 197.213 16.1298 196.88 16.2158L197.822 17.7707H197.005L196.209 16.3628H195.56V17.7707ZM195.538 14.4087V15.7745H196.46C196.649 15.7535 197.026 15.619 197.026 15.2492C197.026 15.0118 197.022 14.7533 196.86 14.5806C196.769 14.4843 196.639 14.4087 196.46 14.4087H195.538Z" fill="white"/>
<path d="M0.00264939 8C1.27494 8 2.54723 8 3.85807 8C3.85807 12.7846 3.85807 17.5692 3.85807 22.4988C2.28602 21.5134 1.36233 20.8897 0.819634 20.4965C0.270285 20.0985 0.0539195 19.4996 0.0436866 18.82C0.0401255 18.5836 0.0385917 18.352 0.0468889 18.1491C0.0593137 17.6118 0.0717383 17.0745 0.0845393 16.5209C0.0845393 16.5209 0.013607 15.339 0.0468902 14.7661C0.0642848 14.2007 -0.0152738 13.4154 0.00264785 12.8329C0.0480347 11.439 0.00264939 8 0.00264939 8Z" fill="white"/>
<path d="M5.34826 13.3162C6.46152 13.3162 8.25077 13.3162 9.39776 13.3162C9.39776 17.7818 9.39776 22.2474 9.39776 26.8483C7.45289 25.8731 6.60653 25.6507 5.92879 25.0696C5.49858 24.7007 5.2966 24.1382 5.23646 23.5738C5.18648 23.1047 5.19149 22.8025 5.20706 21.8587C5.21405 21.1134 5.21405 21.1134 5.22118 20.3531C5.23332 19.8351 5.24542 19.3171 5.2579 18.7834C5.26768 17.998 5.26769 17.998 5.27766 17.1967C5.29472 15.9029 5.31853 14.6096 5.34826 13.3162Z" fill="white"/>
<path d="M0.0458984 23.4653C2.21614 24.9163 2.75752 25.2782 3.30008 25.7772C3.7009 26.1458 3.95062 26.6587 3.98731 27.2028C4.00816 27.512 4.00446 27.7905 3.99545 28.4682C3.99079 29.0849 3.99079 29.0849 3.98603 29.7142C3.97796 30.144 3.96988 30.5739 3.96156 31.0168C3.95721 31.4504 3.95286 31.884 3.94838 32.3307C3.93701 33.4032 3.92114 34.4754 3.90132 35.5476C2.62903 35.5476 1.35674 35.5476 0.0458984 35.5476C0.0458984 31.5605 0.0458984 27.5733 0.0458984 23.4653Z" fill="white"/>
<path d="M5.34766 28.2981C6.80563 29.0291 7.56067 29.3334 8.11098 29.6917C8.91951 30.2182 9.29971 31.2113 9.30775 32.1781C9.30963 32.4003 9.30467 32.6745 9.29739 33.0763C9.29272 33.5295 9.28804 33.9827 9.28327 34.4497C9.27113 34.9216 9.25903 35.3935 9.24655 35.8797C9.24004 36.3573 9.23349 36.8348 9.22679 37.3268C9.20973 38.506 9.18597 39.6847 9.15619 40.8637C8.04293 40.8637 6.49464 40.8637 5.34766 40.8637C5.34766 36.717 5.34766 32.5704 5.34766 28.2981Z" fill="white"/>
<path d="M121.446 40.3805H130.758V24.1419C130.758 22.8297 131.934 20.2052 136.639 20.2052C141.344 20.2052 142.194 23.8138 142.03 25.6181H150.362V20.2052C150.362 17.8433 148.892 15.7766 146.931 14.7924C144.971 13.8082 144.187 13.3162 139.09 13.3162C133.993 13.3162 131.085 16.5967 130.268 18.2369V14.3003H121.446V40.3805Z" fill="white"/>
<path d="M13.0117 14.2915V40.3804H22.786V26.1054C22.786 22.1674 26.0442 21.183 27.6732 21.183H34.0265C37.5452 21.183 38.4249 23.8082 38.4249 25.1209V39.8881H47.7105V21.183C47.7105 16.0636 42.3347 13.7993 38.9136 13.7993H28.6506C25.9138 13.7993 23.2748 16.7528 22.2973 18.2295V14.2915H13.0117Z" fill="white"/>
<path fill-rule="evenodd" clip-rule="evenodd" d="M61.0048 21.4446H51.5706C51.7364 18.7889 53.7557 13.4775 60.5084 13.4775H74.9075C78.0525 13.4775 84.3417 14.3739 84.3417 17.959V25.428V39.8682H75.9007V36.3827C75.2386 37.7105 73.2193 40.3662 70.439 40.3662H58.0255H56.0395C54.3846 40.2002 51.0742 38.5736 51.0742 33.3951C51.0742 28.2165 53.0602 25.926 54.0535 25.428C54.7152 24.9301 56.6352 23.9342 59.0188 23.9342H68.9494C70.6043 23.9342 74.3118 24.4322 75.9007 26.4239V21.4446C75.8959 21.4298 75.8906 21.4142 75.8853 21.3977C75.7118 20.8594 75.2574 19.4528 70.439 19.4528H63.9841C63.9841 19.4528 62.4188 19.4528 61.0048 21.4446ZM62.4945 29.4115C61.667 29.5775 60.0116 30.3078 60.0116 31.9012C60.0116 33.4946 61.667 34.2249 62.4945 34.3909H71.9287C73.0872 34.2249 75.4043 33.4946 75.4043 31.9012C75.4043 29.9095 73.4183 29.4115 70.9354 29.4115H62.4945Z" fill="white"/>
<path d="M86.7461 13.9752H92.2155V8H102.16V13.9752H116.58V20.9464H102.16V28.9133V31.403C102.16 32.9964 103.486 33.7267 104.149 33.8928H107.629C109.221 33.8928 109.618 32.5649 109.618 31.901V28.9133H118.071V32.8969C118.071 38.4737 111.773 40.5319 108.624 40.8638H98.6796C93.5085 40.8638 92.2155 36.2164 92.2155 33.8928V20.9464H86.7461V13.9752Z" fill="white"/>
<path fill-rule="evenodd" clip-rule="evenodd" d="M163.291 13.4775C159.815 13.4775 152.864 14.9713 152.864 20.9466V31.9012C152.698 34.7229 154.155 40.3662 161.305 40.3662H182.656C186.266 40.3662 189.639 38.4403 189.639 30.4733C189.639 22.5064 189.607 22.4404 189.607 22.4404C189.938 19.4528 188.614 13.4775 180.669 13.4775H163.291ZM166.611 20.4487H177.392C178.65 20.4487 181.166 21.12 181.166 23.8051V30.5181C181.166 31.4771 180.519 33.395 177.932 33.395H166.071C164.814 33.395 162.298 32.7237 162.298 30.0385V22.8462C162.298 22.047 163.161 20.4487 166.611 20.4487Z" fill="white"/>
</svg>
