<svg width="130" height="25" viewBox="0 0 130 25" fill="none" xmlns="http://www.w3.org/2000/svg">
<g clip-path="url(#clip0_1163_8118)">
<path d="M21.1211 0.780973L19.4432 4.98628L21.0786 8.36327L22.8627 4.00929H26.7494V18.8978C26.7494 19.4712 26.5158 20.0022 26.1123 20.4058C25.7087 20.8093 25.1565 21.0429 24.5831 21.0429C24.137 21.0429 23.3512 20.7881 23.0326 20.1721L20.6538 14.9473L20.6326 14.9686L16.7246 6.40929L16.7459 6.38805L15.0892 2.81991C14.1547 0.950885 12.2645 0.25 10.714 0.25C9.29102 0.25 7.91049 0.823451 6.91226 1.82168C5.89279 2.81991 5.31934 4.20044 5.31934 5.62345L5.38305 23.719H13.5388L15.6415 19.1739L14.0061 15.7969L11.7972 20.4907H8.54765V5.62345C8.54765 5.05 8.78128 4.51903 9.18482 4.11549C9.58836 3.71195 10.1406 3.47832 10.714 3.47832C10.9901 3.47832 11.9671 3.54204 12.3282 4.47655L14.1547 8.46947L14.7494 9.80752L18.6574 18.3668C19.337 19.8323 20.1016 21.4465 20.4202 22.1473C21.0999 23.5491 22.8627 24.2712 24.5831 24.2712C25.2839 24.2712 25.9848 24.1226 26.6432 23.8677C27.3016 23.5916 27.8963 23.2093 28.3848 22.6996C28.8946 22.2111 29.2769 21.6164 29.553 20.958C29.8291 20.2996 29.9565 19.5987 29.9565 18.8978V0.780973H21.1211Z" fill="white"/>
<path d="M35.4141 20.0871V4.90129C35.4141 4.85881 35.4141 4.83757 35.4141 4.79509C35.4353 4.75262 35.4353 4.73138 35.4778 4.71014C35.499 4.6889 35.5415 4.66766 35.5627 4.64642C35.6052 4.62518 35.6265 4.62518 35.6689 4.64642H38.876C38.9397 4.64642 39.0034 4.66766 39.0672 4.6889C39.1309 4.73138 39.1734 4.77386 39.1946 4.81633L46.1185 15.5845H46.2459V4.90129C46.2459 4.85881 46.2459 4.83757 46.2459 4.79509C46.2672 4.75262 46.2672 4.73138 46.3096 4.71014C46.3309 4.6889 46.3734 4.66766 46.3946 4.64642C46.4371 4.62518 46.4583 4.62518 46.5008 4.64642H49.1769C49.2194 4.64642 49.2406 4.64642 49.2831 4.64642C49.3256 4.66766 49.3468 4.66766 49.368 4.71014C49.3893 4.73138 49.4105 4.77386 49.4318 4.79509C49.453 4.83757 49.453 4.85881 49.4318 4.90129V20.1508C49.4318 20.1933 49.4318 20.2146 49.4318 20.257C49.4105 20.2995 49.4105 20.3208 49.368 20.342C49.3468 20.3632 49.3043 20.3845 49.2831 20.4057C49.2406 20.427 49.2194 20.427 49.1769 20.4057H45.9698C45.9061 20.3845 45.8636 20.3632 45.8211 20.3208C45.7787 20.2783 45.7574 20.2146 45.7362 20.1721L38.7061 9.36147H38.6211V20.1084C38.6211 20.1508 38.6211 20.1721 38.6211 20.2146C38.5999 20.257 38.5999 20.2783 38.5574 20.2995C38.5149 20.3208 38.4937 20.342 38.4725 20.3632C38.43 20.3845 38.4088 20.3845 38.3663 20.3632H35.6902C35.6477 20.3632 35.6265 20.3632 35.584 20.3632C35.5415 20.342 35.5203 20.342 35.499 20.2995C35.4778 20.257 35.4565 20.2358 35.4353 20.2146C35.4141 20.1721 35.4141 20.1296 35.4141 20.0871Z" fill="white"/>
<path d="M67.0405 16.7101V10.6357H65.4476C65.4051 10.6357 65.3838 10.6357 65.3414 10.6357C65.2989 10.6145 65.2776 10.6145 65.2564 10.5933C65.2352 10.572 65.2139 10.5296 65.1927 10.5083C65.1714 10.4658 65.1714 10.4446 65.1927 10.4021V8.57557C65.1927 8.40566 65.2776 8.3207 65.4476 8.3207H67.0405V5.02867C67.0405 4.98619 67.0405 4.96495 67.0617 4.92247C67.083 4.90123 67.083 4.85876 67.1254 4.83752C67.1467 4.81628 67.1679 4.79504 67.2104 4.7738C67.2316 4.75256 67.2741 4.75256 67.3166 4.75256L70.0776 4.73132C70.1201 4.73132 70.1414 4.73132 70.1838 4.73132C70.2263 4.75256 70.2476 4.75256 70.2688 4.79504C70.29 4.81628 70.3113 4.85876 70.3325 4.88C70.3538 4.92247 70.3538 4.94371 70.3325 4.98619V8.00212C70.3325 8.12955 70.4387 8.21451 70.5449 8.21451H73.5184C73.5608 8.21451 73.5821 8.21451 73.6245 8.21451C73.667 8.23575 73.6883 8.23575 73.7095 8.27823C73.7307 8.29946 73.752 8.34194 73.7732 8.36318C73.7945 8.40566 73.7945 8.4269 73.7732 8.46938V10.3596C73.7732 10.4021 73.7732 10.4234 73.752 10.4658C73.7307 10.5083 73.7095 10.5296 73.6883 10.5508C73.667 10.572 73.6245 10.5933 73.6033 10.5933C73.5608 10.6145 73.5396 10.6145 73.4971 10.5933H70.3113V17.6658C70.3113 17.7933 70.4175 17.8782 70.5237 17.8782H73.4971C73.5396 17.8782 73.5608 17.8782 73.6033 17.8782C73.6458 17.8995 73.667 17.8995 73.6883 17.9207C73.7095 17.9419 73.7307 17.9632 73.752 18.0057C73.7732 18.0481 73.7732 18.0694 73.7732 18.1119V20.0021C73.7732 20.0446 73.7732 20.0658 73.7732 20.1083C73.752 20.1508 73.752 20.172 73.7095 20.1933C73.667 20.2145 73.6458 20.2357 73.6245 20.257C73.5821 20.2782 73.5608 20.2782 73.5184 20.257H70.6936C70.2051 20.3207 69.7166 20.257 69.2493 20.1083C68.7821 19.9596 68.3573 19.6835 68.0175 19.3437C67.6564 19.0039 67.4015 18.5791 67.2316 18.1331C67.0405 17.6871 66.9768 17.1986 67.0405 16.7101Z" fill="white"/>
<path d="M103.593 20.0871V11.8889C103.529 11.4004 103.572 10.8906 103.721 10.4234C103.89 9.95612 104.145 9.5101 104.506 9.17028C104.867 8.80922 105.292 8.55435 105.781 8.38444C106.269 8.21453 106.779 8.17205 107.267 8.23577H110.942C110.984 8.23577 111.006 8.23577 111.048 8.23577C111.09 8.257 111.112 8.257 111.133 8.29948C111.154 8.32072 111.175 8.3632 111.197 8.38444C111.218 8.42692 111.218 8.44815 111.197 8.49063V10.6145C111.197 10.657 111.197 10.6782 111.175 10.7207C111.154 10.7632 111.154 10.7844 111.112 10.8057C111.09 10.8269 111.048 10.8482 111.027 10.8694C110.984 10.8906 110.963 10.8906 110.921 10.8906H107.034C106.906 10.8906 106.821 10.9968 106.821 11.103V20.0659C106.821 20.2358 106.736 20.3207 106.588 20.3207H103.827C103.784 20.3207 103.763 20.3207 103.721 20.3207C103.678 20.2995 103.657 20.2995 103.636 20.257C103.614 20.2358 103.593 20.1933 103.572 20.1721C103.593 20.1508 103.593 20.1083 103.593 20.0871Z" fill="white"/>
<path d="M88.8107 14.4588C88.8107 14.3738 88.8107 14.2889 88.8107 14.2039C88.7683 13.4181 88.8957 12.611 89.1718 11.8676C89.4691 11.0818 89.9364 10.3809 90.5311 9.78621C91.1258 9.19152 91.8479 8.7455 92.6337 8.44816C93.7382 8.00214 96.3506 7.95966 97.6037 8.44816C98.3895 8.7455 99.1329 9.19152 99.7276 9.78621C100.322 10.3809 100.789 11.0818 101.087 11.8676C101.363 12.611 101.49 13.3968 101.448 14.2039C101.448 14.2889 101.448 14.3738 101.448 14.4588C101.469 15.2446 101.342 16.0305 101.066 16.7738C100.768 17.5597 100.301 18.2605 99.6851 18.834C99.0904 19.4075 98.3683 19.8747 97.5824 20.1508C96.0532 20.6818 94.0355 20.7243 92.6337 20.1508C91.8479 19.8535 91.1258 19.4075 90.5311 18.834C89.9364 18.2605 89.4691 17.5384 89.1718 16.7738C88.9169 16.0305 88.7683 15.2446 88.8107 14.4588ZM95.1187 18.0906C97.0939 18.0906 98.1983 16.7313 98.1983 14.3526C98.1983 11.9738 97.0514 10.5721 95.1187 10.5721C93.186 10.5721 92.0391 11.9313 92.0391 14.3526C92.0391 16.7738 93.1222 18.0906 95.1187 18.0906Z" fill="white"/>
<path d="M75.2169 14.3314C75.1745 13.5031 75.3019 12.6536 75.5992 11.889C75.8966 11.1031 76.3638 10.4022 76.9798 9.80755C77.5745 9.21286 78.2966 8.76684 79.1037 8.4695C79.8895 8.17215 80.7391 8.04472 81.5886 8.10844C84.7108 8.0872 86.9408 9.65888 87.3231 12.3562C87.3231 12.3987 87.3231 12.4199 87.3019 12.4624C87.2807 12.5049 87.2807 12.5261 87.2382 12.5474C87.217 12.5686 87.1745 12.5899 87.1532 12.6111C87.1108 12.6323 87.0895 12.6323 87.047 12.6323L84.3922 12.7598C84.2223 12.7598 84.1585 12.6748 84.1161 12.5049C84.0736 12.2076 83.9886 11.9314 83.84 11.6766C83.6913 11.4217 83.5001 11.2093 83.2665 11.0182C83.0329 10.8483 82.7568 10.6996 82.4807 10.6359C82.1833 10.5509 81.886 10.5509 81.6099 10.5722C79.6771 10.5722 78.5939 12.0376 78.5939 14.3527C78.5939 16.6677 79.7196 18.0907 81.6099 18.0907C82.2258 18.1757 82.8417 18.027 83.3302 17.666C83.8187 17.3049 84.1373 16.8376 84.2223 16.243C84.2223 16.2005 84.2223 16.1792 84.2435 16.1368C84.2647 16.0943 84.286 16.073 84.3072 16.0518C84.3285 16.0306 84.3709 16.0093 84.3922 15.9881C84.4346 15.9668 84.4559 15.9668 84.4984 15.9668L87.1745 16.0306C87.3444 16.0306 87.4506 16.1155 87.4293 16.2642C87.0258 18.9403 84.732 20.512 81.5462 20.4907C80.6966 20.5545 79.8683 20.427 79.0612 20.1509C78.2754 19.8536 77.5532 19.4076 76.9585 18.8129C76.3638 18.2182 75.8966 17.5173 75.5992 16.7314C75.3019 16.0093 75.1745 15.1598 75.2169 14.3314Z" fill="white"/>
<path d="M51.6645 14.3314C51.6007 13.503 51.7282 12.6535 52.0255 11.8677C52.3229 11.0818 52.7901 10.3597 53.4061 9.78624C54.022 9.21278 54.7441 8.74553 55.53 8.44818C56.337 8.15084 57.1866 8.04464 58.0361 8.10836C61.7317 8.10836 63.9406 10.4446 63.9406 14.2889V14.9473C63.9406 15.011 63.9193 15.0747 63.8556 15.1384C63.8131 15.1809 63.7282 15.2234 63.6645 15.2234H55.0202C54.999 15.6269 55.0839 16.0092 55.2326 16.3703C55.3813 16.7314 55.6149 17.0712 55.891 17.3473C56.1884 17.6234 56.5282 17.8358 56.8892 17.9632C57.2715 18.0907 57.6751 18.1544 58.0574 18.1331C58.5884 18.1969 59.1406 18.1119 59.6078 17.8358C60.0751 17.5809 60.3937 17.2623 60.6061 16.7738C60.6273 16.7101 60.6485 16.6464 60.7123 16.6039C60.776 16.5615 60.8397 16.5402 60.9034 16.5615L63.5583 16.6889C63.7494 16.6889 63.8344 16.6889 63.8131 16.88C63.3884 19.1738 60.8397 20.5119 57.9724 20.4907C57.1441 20.5544 56.2946 20.4269 55.5087 20.1508C54.7229 19.8747 54.0007 19.4287 53.4061 18.834C52.8114 18.2606 52.3441 17.5597 52.0468 16.7738C51.7494 15.988 51.622 15.1597 51.6645 14.3314ZM60.776 13.2694C60.7972 12.9084 60.7547 12.5473 60.6273 12.2075C60.4999 11.8677 60.3087 11.5491 60.0539 11.2942C59.799 11.0393 59.4804 10.8269 59.1406 10.6995C58.8007 10.5721 58.4397 10.5084 58.0574 10.5084C57.6751 10.4659 57.2715 10.5296 56.9105 10.657C56.5494 10.7845 56.2096 10.9756 55.9123 11.2305C55.6361 11.4854 55.4025 11.8039 55.2538 12.165C55.1052 12.5261 55.0202 12.8871 55.0202 13.2907H60.776V13.2694Z" fill="white"/>
<path d="M112.407 14.3314C112.343 13.503 112.47 12.6535 112.768 11.8677C113.065 11.0818 113.532 10.3597 114.148 9.78624C114.764 9.21278 115.486 8.74553 116.272 8.44818C117.079 8.15084 117.929 8.04464 118.778 8.10836C122.474 8.10836 124.683 10.4446 124.683 14.2889V14.9473C124.683 15.011 124.662 15.0747 124.598 15.1384C124.555 15.1809 124.47 15.2234 124.407 15.2234H115.762C115.741 15.6269 115.826 16.0092 115.975 16.3703C116.123 16.7314 116.357 17.0712 116.633 17.3473C116.931 17.6234 117.27 17.8358 117.631 17.9632C118.014 18.0907 118.417 18.1544 118.8 18.1331C119.331 18.1969 119.883 18.1119 120.35 17.8358C120.817 17.5809 121.136 17.2623 121.348 16.7738C121.369 16.7101 121.391 16.6464 121.454 16.6039C121.518 16.5615 121.582 16.5402 121.646 16.5615L124.3 16.6889C124.492 16.6889 124.577 16.6889 124.555 16.88C124.131 19.1738 121.582 20.5119 118.715 20.4907C117.886 20.5544 117.037 20.4269 116.251 20.1508C115.465 19.8747 114.743 19.4287 114.148 18.834C113.554 18.2606 113.086 17.5597 112.789 16.7738C112.492 15.988 112.343 15.1597 112.407 14.3314ZM121.497 13.2694C121.518 12.9084 121.476 12.5473 121.348 12.2075C121.221 11.8677 121.03 11.5491 120.775 11.2942C120.52 11.0393 120.201 10.8269 119.862 10.6995C119.522 10.5721 119.161 10.5084 118.778 10.5084C118.396 10.4659 117.992 10.5296 117.631 10.657C117.27 10.7845 116.931 10.9756 116.633 11.2305C116.357 11.4854 116.123 11.8039 115.975 12.165C115.826 12.5261 115.741 12.8871 115.741 13.2907H121.497V13.2694Z" fill="white"/>
</g>
<defs>
<clipPath id="clip0_1163_8118">
<rect width="129" height="24" fill="white" transform="translate(0.491211 0.25)"/>
</clipPath>
</defs>
</svg>
