<svg width="183" height="48" viewBox="0 0 183 48" fill="none" xmlns="http://www.w3.org/2000/svg">
<g clip-path="url(#clip0_1730_2889)">
<path d="M30.7835 7.84334L28.4505 13.8709L30.7244 18.7113L33.2052 12.4706H38.6096V33.8108C38.6096 34.6327 38.2847 35.3938 37.7236 35.9722C37.1625 36.5506 36.3946 36.8855 35.5973 36.8855C34.9771 36.8855 33.8844 36.5202 33.4414 35.6373L30.1338 28.1485L30.1043 28.1789L24.6703 15.9106L24.6999 15.8802L22.3964 10.7658C21.0969 8.08688 18.4686 7.08228 16.3127 7.08228C14.3341 7.08228 12.4145 7.90422 11.0264 9.33502C9.60889 10.7658 8.81152 12.7446 8.81152 14.7842L8.90012 40.7212H20.2405L23.1642 34.2065L20.8902 29.3662L17.8189 36.094H13.3004V14.7842C13.3004 13.9623 13.6253 13.2012 14.1864 12.6228C14.7475 12.0444 15.5153 11.7095 16.3127 11.7095C16.6966 11.7095 18.0551 11.8009 18.5572 13.1403L21.0969 18.8635L21.9238 20.7814L27.3578 33.0497C28.3028 35.1502 29.366 37.4639 29.8089 38.4685C30.754 40.4777 33.2052 41.5127 35.5973 41.5127C36.5718 41.5127 37.5464 41.2996 38.4619 40.9343C39.3774 40.5386 40.2043 39.9906 40.8835 39.26C41.5923 38.5598 42.1239 37.7074 42.5078 36.7637C42.8917 35.82 43.0689 34.8154 43.0689 33.8108V7.84334H30.7835Z" fill="white"/>
<path d="M50.6572 35.5156V13.7492C50.6572 13.6883 50.6572 13.6579 50.6572 13.597C50.6868 13.5361 50.6868 13.5057 50.7458 13.4752C50.7754 13.4448 50.8344 13.4144 50.864 13.3839C50.923 13.3535 50.9525 13.3535 51.0116 13.3839H55.471C55.5596 13.3839 55.6482 13.4144 55.7368 13.4448C55.8254 13.5057 55.8844 13.5666 55.914 13.6275L65.5415 29.0618H65.7187V13.7492C65.7187 13.6883 65.7187 13.6579 65.7187 13.597C65.7482 13.5361 65.7482 13.5057 65.8073 13.4752C65.8368 13.4448 65.8959 13.4144 65.9254 13.3839C65.9845 13.3535 66.014 13.3535 66.0731 13.3839H69.7941C69.8532 13.3839 69.8827 13.3839 69.9418 13.3839C70.0008 13.4144 70.0304 13.4144 70.0599 13.4752C70.0894 13.5057 70.119 13.5666 70.1485 13.597C70.178 13.6579 70.178 13.6883 70.1485 13.7492V35.6069C70.1485 35.6678 70.1485 35.6983 70.1485 35.7591C70.119 35.82 70.119 35.8505 70.0599 35.8809C70.0304 35.9114 69.9713 35.9418 69.9418 35.9722C69.8827 36.0027 69.8532 36.0027 69.7941 35.9722H65.3347C65.2462 35.9418 65.1871 35.9114 65.128 35.8505C65.069 35.7896 65.0394 35.6983 65.0099 35.6374L55.2347 20.1421H55.1166V35.546C55.1166 35.6069 55.1166 35.6374 55.1166 35.6983C55.0871 35.7591 55.0871 35.7896 55.028 35.82C54.9689 35.8505 54.9394 35.8809 54.9099 35.9114C54.8508 35.9418 54.8213 35.9418 54.7622 35.9114H51.0411C50.9821 35.9114 50.9525 35.9114 50.8935 35.9114C50.8344 35.8809 50.8049 35.8809 50.7754 35.82C50.7458 35.7591 50.7163 35.7287 50.6868 35.6983C50.6572 35.6374 50.6572 35.5765 50.6572 35.5156Z" fill="white"/>
<path d="M94.6334 30.6752V21.9686H92.4185C92.3595 21.9686 92.3299 21.9686 92.2709 21.9686C92.2118 21.9382 92.1823 21.9382 92.1527 21.9077C92.1232 21.8773 92.0937 21.8164 92.0641 21.786C92.0346 21.7251 92.0346 21.6946 92.0641 21.6338V19.0157C92.0641 18.7722 92.1823 18.6504 92.4185 18.6504H94.6334V13.9318C94.6334 13.8709 94.6335 13.8405 94.663 13.7796C94.6925 13.7492 94.6925 13.6883 94.7516 13.6578C94.7811 13.6274 94.8106 13.5969 94.8697 13.5665C94.8992 13.5361 94.9583 13.5361 95.0174 13.5361L98.8566 13.5056C98.9156 13.5056 98.9452 13.5056 99.0042 13.5056C99.0633 13.5361 99.0928 13.5361 99.1223 13.5969C99.1519 13.6274 99.1814 13.6883 99.2109 13.7187C99.2405 13.7796 99.2405 13.81 99.2109 13.8709V18.1938C99.2109 18.3764 99.3586 18.4982 99.5063 18.4982H103.641C103.7 18.4982 103.729 18.4982 103.788 18.4982C103.848 18.5286 103.877 18.5286 103.907 18.5895C103.936 18.62 103.966 18.6808 103.995 18.7113C104.025 18.7722 104.025 18.8026 103.995 18.8635V21.5729C103.995 21.6338 103.995 21.6642 103.966 21.7251C103.936 21.786 103.907 21.8164 103.877 21.8469C103.848 21.8773 103.788 21.9077 103.759 21.9077C103.7 21.9382 103.67 21.9382 103.611 21.9077H99.1814V32.0451C99.1814 32.2277 99.3291 32.3495 99.4767 32.3495H103.611C103.67 32.3495 103.7 32.3495 103.759 32.3495C103.818 32.38 103.848 32.38 103.877 32.4104C103.907 32.4408 103.936 32.4713 103.966 32.5322C103.995 32.5931 103.995 32.6235 103.995 32.6844V35.3938C103.995 35.4546 103.995 35.4851 103.995 35.546C103.966 35.6069 103.966 35.6373 103.907 35.6677C103.848 35.6982 103.818 35.7286 103.788 35.7591C103.729 35.7895 103.7 35.7895 103.641 35.7591H99.713C99.0337 35.8504 98.3545 35.7591 97.7048 35.546C97.0551 35.3329 96.4644 34.9371 95.9919 34.45C95.4899 33.963 95.1355 33.3541 94.8992 32.7148C94.6334 32.0755 94.5449 31.3754 94.6334 30.6752Z" fill="white"/>
<path d="M145.459 35.5155V23.7647C145.37 23.0645 145.429 22.3339 145.636 21.6642C145.872 20.9944 146.227 20.3551 146.729 19.8681C147.231 19.3505 147.821 18.9852 148.501 18.7417C149.18 18.4981 149.889 18.4373 150.568 18.5286H155.677C155.736 18.5286 155.766 18.5286 155.825 18.5286C155.884 18.559 155.913 18.559 155.943 18.6199C155.972 18.6504 156.002 18.7112 156.031 18.7417C156.061 18.8026 156.061 18.833 156.031 18.8939V21.9381C156.031 21.999 156.031 22.0295 156.002 22.0904C155.972 22.1512 155.972 22.1817 155.913 22.2121C155.884 22.2426 155.825 22.273 155.795 22.3035C155.736 22.3339 155.707 22.3339 155.647 22.3339H150.243C150.066 22.3339 149.948 22.4861 149.948 22.6383V35.4851C149.948 35.7286 149.83 35.8504 149.623 35.8504H145.784C145.725 35.8504 145.695 35.8504 145.636 35.8504C145.577 35.8199 145.547 35.8199 145.518 35.759C145.488 35.7286 145.459 35.6677 145.429 35.6373C145.459 35.6068 145.459 35.5459 145.459 35.5155Z" fill="white"/>
<path d="M124.905 27.4481C124.905 27.3263 124.905 27.2046 124.905 27.0828C124.846 25.9564 125.023 24.7996 125.407 23.7341C125.82 22.6078 126.47 21.6031 127.297 20.7508C128.124 19.8984 129.128 19.2591 130.22 18.8329C131.756 18.1936 135.389 18.1327 137.131 18.8329C138.224 19.2591 139.257 19.8984 140.084 20.7508C140.911 21.6031 141.561 22.6078 141.974 23.7341C142.358 24.7996 142.535 25.926 142.476 27.0828C142.476 27.2046 142.476 27.3263 142.476 27.4481C142.506 28.5745 142.329 29.7008 141.945 30.7663C141.531 31.8927 140.882 32.8973 140.025 33.7193C139.198 34.5412 138.194 35.2109 137.101 35.6067C134.975 36.3678 132.17 36.4286 130.22 35.6067C129.128 35.1805 128.124 34.5412 127.297 33.7193C126.47 32.8973 125.82 31.8623 125.407 30.7663C125.052 29.7008 124.846 28.5745 124.905 27.4481ZM133.676 32.6538C136.422 32.6538 137.958 30.7055 137.958 27.2959C137.958 23.8863 136.363 21.8771 133.676 21.8771C130.988 21.8771 129.394 23.8255 129.394 27.2959C129.394 30.7663 130.9 32.6538 133.676 32.6538Z" fill="white"/>
<path d="M106.002 27.2656C105.943 26.0784 106.12 24.8607 106.534 23.7647C106.947 22.6384 107.597 21.6338 108.453 20.7814C109.28 19.929 110.284 19.2897 111.407 18.8635C112.499 18.4373 113.681 18.2546 114.862 18.346C119.203 18.3155 122.304 20.5683 122.836 24.4345C122.836 24.4954 122.836 24.5258 122.806 24.5867C122.777 24.6476 122.777 24.678 122.718 24.7085C122.688 24.7389 122.629 24.7693 122.599 24.7998C122.54 24.8302 122.511 24.8302 122.452 24.8302L118.76 25.0129C118.524 25.0129 118.435 24.8911 118.376 24.6476C118.317 24.2214 118.199 23.8256 117.992 23.4603C117.786 23.095 117.52 22.7906 117.195 22.5166C116.87 22.2731 116.486 22.06 116.102 21.9686C115.689 21.8469 115.275 21.8469 114.891 21.8773C112.204 21.8773 110.698 23.9778 110.698 27.2961C110.698 30.6143 112.263 32.6539 114.891 32.6539C115.748 32.7757 116.604 32.5626 117.284 32.0451C117.963 31.5276 118.406 30.8578 118.524 30.0054C118.524 29.9446 118.524 29.9141 118.553 29.8532C118.583 29.7923 118.613 29.7619 118.642 29.7315C118.672 29.701 118.731 29.6706 118.76 29.6401C118.819 29.6097 118.849 29.6097 118.908 29.6097L122.629 29.701C122.865 29.701 123.013 29.8228 122.983 30.0359C122.422 33.8716 119.233 36.1244 114.803 36.0939C113.622 36.1853 112.47 36.0026 111.348 35.6069C110.255 35.1807 109.251 34.5414 108.424 33.689C107.597 32.8366 106.947 31.832 106.534 30.7056C106.12 29.6706 105.943 28.4529 106.002 27.2656Z" fill="white"/>
<path d="M73.2537 27.2657C73.1651 26.0784 73.3423 24.8607 73.7558 23.7344C74.1692 22.608 74.8189 21.5729 75.6754 20.751C76.5318 19.9291 77.5359 19.2593 78.6286 18.8331C79.7508 18.4069 80.9321 18.2547 82.1134 18.346C87.252 18.346 90.3234 21.6947 90.3234 27.2048V28.1485C90.3234 28.2399 90.2938 28.3312 90.2052 28.4225C90.1462 28.4834 90.028 28.5443 89.9395 28.5443H77.9198C77.8903 29.1227 78.0084 29.6706 78.2152 30.1882C78.4219 30.7057 78.7467 31.1928 79.1307 31.5885C79.5441 31.9843 80.0166 32.2887 80.5187 32.4714C81.0502 32.654 81.6114 32.7453 82.1429 32.7149C82.8812 32.8062 83.6491 32.6845 84.2988 32.2887C84.9485 31.9234 85.3915 31.4668 85.6868 30.7666C85.7163 30.6753 85.7459 30.5839 85.8345 30.523C85.9231 30.4622 86.0117 30.4317 86.1003 30.4622L89.7918 30.6448C90.0576 30.6448 90.1757 30.6448 90.1462 30.9188C89.5555 34.2066 86.0117 36.1245 82.0248 36.094C80.873 36.1853 79.6918 36.0027 78.5991 35.6069C77.5064 35.2112 76.5023 34.5719 75.6754 33.7195C74.8485 32.8976 74.1988 31.8929 73.7853 30.7666C73.3719 29.6402 73.1947 28.4529 73.2537 27.2657ZM85.9231 25.7436C85.9526 25.226 85.8935 24.7085 85.7163 24.2214C85.5391 23.7344 85.2734 23.2777 84.919 22.9124C84.5646 22.5471 84.1216 22.2427 83.6491 22.06C83.1766 21.8774 82.6745 21.786 82.1429 21.786C81.6114 21.7252 81.0502 21.8165 80.5482 21.9991C80.0461 22.1818 79.5736 22.4558 79.1602 22.8211C78.7763 23.1864 78.4514 23.643 78.2447 24.1606C78.038 24.6781 77.9198 25.1956 77.9198 25.774H85.9231V25.7436Z" fill="white"/>
<path d="M157.714 27.2657C157.625 26.0784 157.802 24.8607 158.216 23.7344C158.629 22.608 159.279 21.5729 160.135 20.751C160.992 19.9291 161.996 19.2593 163.089 18.8331C164.211 18.4069 165.392 18.2547 166.573 18.346C171.712 18.346 174.783 21.6947 174.783 27.2048V28.1485C174.783 28.2399 174.754 28.3312 174.665 28.4225C174.606 28.4834 174.488 28.5443 174.399 28.5443H162.38C162.35 29.1227 162.468 29.6706 162.675 30.1882C162.882 30.7057 163.207 31.1928 163.591 31.5885C164.004 31.9843 164.477 32.2887 164.979 32.4714C165.51 32.654 166.071 32.7453 166.603 32.7149C167.341 32.8062 168.109 32.6845 168.759 32.2887C169.408 31.9234 169.851 31.4668 170.147 30.7666C170.176 30.6753 170.206 30.5839 170.294 30.523C170.383 30.4622 170.472 30.4317 170.56 30.4622L174.252 30.6448C174.518 30.6448 174.636 30.6448 174.606 30.9188C174.015 34.2066 170.472 36.1245 166.485 36.094C165.333 36.1853 164.152 36.0027 163.059 35.6069C161.966 35.2112 160.962 34.5719 160.135 33.7195C159.308 32.8976 158.659 31.8929 158.245 30.7666C157.832 29.6402 157.625 28.4529 157.714 27.2657ZM170.353 25.7436C170.383 25.226 170.324 24.7085 170.147 24.2214C169.97 23.7344 169.704 23.2777 169.349 22.9124C168.995 22.5471 168.552 22.2427 168.08 22.06C167.607 21.8774 167.105 21.786 166.573 21.786C166.042 21.7252 165.481 21.8165 164.979 21.9991C164.477 22.1818 164.004 22.4558 163.591 22.8211C163.207 23.1864 162.882 23.643 162.675 24.1606C162.468 24.6781 162.35 25.1956 162.35 25.774H170.353V25.7436Z" fill="white"/>
</g>
<defs>
<clipPath id="clip0_1730_2889">
<rect width="179.371" height="34.4" fill="white" transform="translate(2.09766 7.08228)"/>
</clipPath>
</defs>
</svg>
