<svg width="180" height="48" viewBox="0 0 180 48" fill="none" xmlns="http://www.w3.org/2000/svg">
<path d="M31.1753 7.75166L28.8711 13.7048L31.117 18.4854L33.567 12.3218H38.9047V33.3985C38.9047 34.2103 38.5839 34.9619 38.0297 35.5332C37.4755 36.1045 36.7171 36.4352 35.9296 36.4352C35.3171 36.4352 34.2379 36.0744 33.8004 35.2025L30.5336 27.8061L30.5044 27.8361L25.1376 15.7193L25.1668 15.6892L22.8917 10.6381C21.6083 7.9922 19.0124 7 16.8832 7C14.9289 7 13.0331 7.8118 11.6622 9.22493C10.2621 10.6381 9.47461 12.5924 9.47461 14.6068L9.56211 40.2236H20.7625L23.6501 33.7893L21.4042 29.0087L18.3707 35.6535H13.9081V14.6068C13.9081 13.795 14.2289 13.0434 14.7831 12.4721C15.3373 11.9009 16.0957 11.5701 16.8832 11.5701C17.2624 11.5701 18.6041 11.6603 19.0999 12.9833L21.6083 18.6358L22.425 20.53L27.7919 32.6468C28.7252 34.7214 29.7753 37.0065 30.2128 37.9986C31.1461 39.983 33.567 41.0053 35.9296 41.0053C36.8921 41.0053 37.8547 40.7948 38.7589 40.434C39.6631 40.0432 40.4798 39.502 41.1506 38.7804C41.8506 38.0888 42.3756 37.247 42.7548 36.3149C43.134 35.3829 43.309 34.3907 43.309 33.3985V7.75166H31.1753Z" fill="white"/>
<path d="M50.8037 35.0821V13.5845C50.8037 13.5244 50.8037 13.4943 50.8037 13.4342C50.8329 13.3741 50.8329 13.344 50.8912 13.3139C50.9204 13.2839 50.9787 13.2538 51.0079 13.2237C51.0662 13.1937 51.0954 13.1937 51.1537 13.2237H55.558C55.6455 13.2237 55.733 13.2538 55.8205 13.2839C55.908 13.344 55.9664 13.4041 55.9955 13.4643L65.5042 28.708H65.6792V13.5845C65.6792 13.5244 65.6792 13.4943 65.6792 13.4342C65.7083 13.3741 65.7083 13.344 65.7667 13.3139C65.7959 13.2839 65.8542 13.2538 65.8834 13.2237C65.9417 13.1937 65.9709 13.1937 66.0292 13.2237H69.7043C69.7626 13.2237 69.7918 13.2237 69.8501 13.2237C69.9085 13.2538 69.9376 13.2538 69.9668 13.3139C69.996 13.344 70.0252 13.4041 70.0543 13.4342C70.0835 13.4943 70.0835 13.5244 70.0543 13.5845V35.1723C70.0543 35.2325 70.0543 35.2625 70.0543 35.3227C70.0252 35.3828 70.0252 35.4129 69.9668 35.4429C69.9376 35.473 69.8793 35.5031 69.8501 35.5331C69.7918 35.5632 69.7626 35.5632 69.7043 35.5331H65.3C65.2125 35.5031 65.1542 35.473 65.0958 35.4129C65.0375 35.3527 65.0083 35.2625 64.9792 35.2024L55.3247 19.8985H55.208V35.1122C55.208 35.1723 55.208 35.2024 55.208 35.2625C55.1789 35.3227 55.1788 35.3527 55.1205 35.3828C55.0622 35.4129 55.033 35.4429 55.0038 35.473C54.9455 35.5031 54.9163 35.5031 54.858 35.473H51.1829C51.1246 35.473 51.0954 35.473 51.0371 35.473C50.9787 35.4429 50.9496 35.4429 50.9204 35.3828C50.8912 35.3227 50.862 35.2926 50.8329 35.2625C50.8037 35.2024 50.8037 35.1423 50.8037 35.0821Z" fill="white"/>
<path d="M94.2362 30.3013V21.7023H92.0486C91.9903 21.7023 91.9611 21.7023 91.9028 21.7023C91.8445 21.6722 91.8153 21.6722 91.7861 21.6421C91.757 21.6121 91.7278 21.5519 91.6986 21.5219C91.6695 21.4617 91.6695 21.4317 91.6986 21.3715V18.7858C91.6986 18.5453 91.8153 18.425 92.0486 18.425H94.2362V13.7647C94.2362 13.7045 94.2362 13.6745 94.2654 13.6143C94.2946 13.5843 94.2946 13.5241 94.3529 13.4941C94.3821 13.464 94.4112 13.4339 94.4696 13.4039C94.4987 13.3738 94.5571 13.3738 94.6154 13.3738L98.4072 13.3438C98.4655 13.3438 98.4947 13.3438 98.553 13.3438C98.6114 13.3738 98.6405 13.3738 98.6697 13.4339C98.6989 13.464 98.728 13.5241 98.7572 13.5542C98.7864 13.6143 98.7864 13.6444 98.7572 13.7045V17.974C98.7572 18.1544 98.903 18.2747 99.0489 18.2747H103.132C103.191 18.2747 103.22 18.2747 103.278 18.2747C103.337 18.3047 103.366 18.3047 103.395 18.3649C103.424 18.3949 103.453 18.4551 103.482 18.4851C103.512 18.5453 103.512 18.5753 103.482 18.6355V21.3114C103.482 21.3715 103.482 21.4016 103.453 21.4617C103.424 21.5219 103.395 21.5519 103.366 21.582C103.336 21.6121 103.278 21.6421 103.249 21.6421C103.191 21.6722 103.161 21.6722 103.103 21.6421H98.728V31.6543C98.728 31.8347 98.8739 31.955 99.0197 31.955H103.103C103.161 31.955 103.191 31.955 103.249 31.955C103.307 31.985 103.336 31.985 103.366 32.0151C103.395 32.0452 103.424 32.0752 103.453 32.1354C103.482 32.1955 103.482 32.2256 103.482 32.2857V34.9616C103.482 35.0218 103.482 35.0518 103.482 35.112C103.453 35.1721 103.453 35.2022 103.395 35.2322C103.337 35.2623 103.307 35.2924 103.278 35.3224C103.22 35.3525 103.191 35.3525 103.132 35.3224H99.253C98.5822 35.4126 97.9113 35.3224 97.2696 35.112C96.628 34.9015 96.0446 34.5106 95.5779 34.0296C95.0821 33.5485 94.7321 32.9472 94.4987 32.3158C94.2362 31.6844 94.1487 30.9928 94.2362 30.3013Z" fill="white"/>
<path d="M144.435 35.0821V23.4764C144.347 22.7849 144.406 22.0633 144.61 21.4018C144.843 20.7403 145.193 20.1089 145.689 19.6279C146.185 19.1167 146.768 18.7559 147.439 18.5154C148.11 18.2749 148.81 18.2147 149.481 18.3049H154.527C154.585 18.3049 154.614 18.3049 154.673 18.3049C154.731 18.335 154.76 18.335 154.789 18.3951C154.819 18.4252 154.848 18.4853 154.877 18.5154C154.906 18.5755 154.906 18.6056 154.877 18.6657V21.6724C154.877 21.7325 154.877 21.7626 154.848 21.8227C154.819 21.8829 154.819 21.9129 154.76 21.943C154.731 21.9731 154.673 22.0031 154.644 22.0332C154.585 22.0633 154.556 22.0633 154.498 22.0633H149.16C148.985 22.0633 148.868 22.2136 148.868 22.3639V35.052C148.868 35.2926 148.752 35.4128 148.548 35.4128H144.756C144.697 35.4128 144.668 35.4128 144.61 35.4128C144.552 35.3828 144.522 35.3828 144.493 35.3226C144.464 35.2926 144.435 35.2324 144.406 35.2024C144.435 35.1723 144.435 35.1122 144.435 35.0821Z" fill="white"/>
<path d="M124.134 27.1146C124.134 26.9943 124.134 26.874 124.134 26.7538C124.076 25.6413 124.251 24.4988 124.63 23.4465C125.038 22.334 125.68 21.3418 126.497 20.4999C127.313 19.6581 128.305 19.0267 129.384 18.6057C130.901 17.9743 134.489 17.9142 136.209 18.6057C137.289 19.0267 138.309 19.6581 139.126 20.4999C139.943 21.3418 140.585 22.334 140.993 23.4465C141.372 24.4988 141.547 25.6112 141.489 26.7538C141.489 26.874 141.489 26.9943 141.489 27.1146C141.518 28.227 141.343 29.3395 140.964 30.3918C140.555 31.5043 139.914 32.4965 139.068 33.3083C138.251 34.1201 137.259 34.7816 136.18 35.1724C134.08 35.9241 131.309 35.9842 129.384 35.1724C128.305 34.7515 127.313 34.1201 126.497 33.3083C125.68 32.4965 125.038 31.4742 124.63 30.3918C124.28 29.3395 124.076 28.227 124.134 27.1146ZM132.797 32.256C135.509 32.256 137.026 30.3317 137.026 26.9642C137.026 23.5968 135.451 21.6124 132.797 21.6124C130.143 21.6124 128.568 23.5367 128.568 26.9642C128.568 30.3918 130.055 32.256 132.797 32.256Z" fill="white"/>
<path d="M105.465 26.9343C105.407 25.7617 105.582 24.559 105.99 23.4766C106.398 22.3641 107.04 21.3719 107.886 20.5301C108.703 19.6882 109.694 19.0568 110.803 18.6359C111.882 18.2149 113.049 18.0345 114.215 18.1247C118.503 18.0947 121.566 20.3196 122.091 24.1381C122.091 24.1982 122.091 24.2283 122.061 24.2884C122.032 24.3485 122.032 24.3786 121.974 24.4087C121.945 24.4387 121.886 24.4688 121.857 24.4989C121.799 24.5289 121.77 24.5289 121.711 24.5289L118.065 24.7093C117.832 24.7093 117.745 24.5891 117.686 24.3485C117.628 23.9276 117.511 23.5367 117.307 23.1759C117.103 22.8151 116.84 22.5145 116.52 22.2439C116.199 22.0033 115.82 21.7929 115.44 21.7027C115.032 21.5824 114.624 21.5824 114.244 21.6125C111.59 21.6125 110.103 23.6871 110.103 26.9643C110.103 30.2416 111.649 32.256 114.244 32.256C115.09 32.3763 115.936 32.1658 116.607 31.6547C117.278 31.1436 117.715 30.4821 117.832 29.6402C117.832 29.5801 117.832 29.55 117.861 29.4899C117.89 29.4298 117.92 29.3997 117.949 29.3696C117.978 29.3396 118.036 29.3095 118.065 29.2794C118.124 29.2494 118.153 29.2494 118.211 29.2494L121.886 29.3396C122.12 29.3396 122.266 29.4598 122.236 29.6703C121.682 33.4587 118.532 35.6836 114.157 35.6536C112.99 35.7438 111.853 35.5634 110.744 35.1725C109.665 34.7516 108.673 34.1202 107.857 33.2783C107.04 32.4364 106.398 31.4442 105.99 30.3318C105.582 29.3095 105.407 28.1069 105.465 26.9343Z" fill="white"/>
<path d="M73.1206 26.9343C73.0331 25.7617 73.2081 24.559 73.6165 23.4466C74.0248 22.3341 74.6665 21.3118 75.5124 20.5C76.3582 19.6882 77.3499 19.0268 78.4291 18.6058C79.5375 18.1849 80.7042 18.0346 81.8709 18.1248C86.9461 18.1248 89.9795 21.4321 89.9795 26.8742V27.8062C89.9795 27.8964 89.9503 27.9866 89.8628 28.0768C89.8045 28.137 89.6878 28.1971 89.6003 28.1971H77.7291C77.7 28.7684 77.8166 29.3096 78.0208 29.8207C78.225 30.3318 78.5458 30.8129 78.925 31.2037C79.3333 31.5946 79.8 31.8953 80.2959 32.0757C80.8209 32.2561 81.3751 32.3463 81.9001 32.3162C82.6293 32.4064 83.3876 32.2861 84.0293 31.8953C84.671 31.5345 85.1085 31.0835 85.4002 30.392C85.4294 30.3018 85.4585 30.2116 85.546 30.1514C85.6335 30.0913 85.721 30.0612 85.8085 30.0913L89.4545 30.2717C89.717 30.2717 89.8337 30.2717 89.8045 30.5423C89.2212 33.7895 85.721 35.6837 81.7834 35.6536C80.6459 35.7438 79.4792 35.5634 78.4 35.1725C77.3208 34.7817 76.3291 34.1503 75.5124 33.3084C74.6957 32.4966 74.054 31.5044 73.6457 30.392C73.2373 29.2795 73.0623 28.1069 73.1206 26.9343ZM85.6335 25.431C85.6627 24.9198 85.6044 24.4087 85.4294 23.9276C85.2544 23.4466 84.9919 22.9956 84.6418 22.6348C84.2918 22.274 83.8543 21.9733 83.3876 21.7929C82.921 21.6125 82.4251 21.5223 81.9001 21.5223C81.3751 21.4622 80.8209 21.5524 80.325 21.7328C79.8292 21.9132 79.3625 22.1838 78.9542 22.5446C78.575 22.9054 78.2541 23.3564 78.05 23.8675C77.8458 24.3786 77.7291 24.8898 77.7291 25.461H85.6335V25.431Z" fill="white"/>
<path d="M156.539 26.9343C156.451 25.7617 156.626 24.559 157.034 23.4466C157.443 22.3341 158.084 21.3118 158.93 20.5C159.776 19.6882 160.768 19.0268 161.847 18.6058C162.955 18.1849 164.122 18.0346 165.289 18.1248C170.364 18.1248 173.397 21.4321 173.397 26.8742V27.8062C173.397 27.8964 173.368 27.9866 173.281 28.0768C173.222 28.137 173.106 28.1971 173.018 28.1971H161.147C161.118 28.7684 161.235 29.3096 161.439 29.8207C161.643 30.3318 161.964 30.8129 162.343 31.2037C162.751 31.5946 163.218 31.8953 163.714 32.0757C164.239 32.2561 164.793 32.3463 165.318 32.3162C166.047 32.4064 166.806 32.2861 167.447 31.8953C168.089 31.5345 168.526 31.0835 168.818 30.392C168.847 30.3018 168.876 30.2116 168.964 30.1514C169.051 30.0913 169.139 30.0612 169.227 30.0913L172.872 30.2717C173.135 30.2717 173.252 30.2717 173.222 30.5423C172.639 33.7895 169.139 35.6837 165.201 35.6536C164.064 35.7438 162.897 35.5634 161.818 35.1725C160.739 34.7817 159.747 34.1503 158.93 33.3084C158.114 32.4966 157.472 31.5044 157.064 30.392C156.655 29.2795 156.451 28.1069 156.539 26.9343ZM169.022 25.431C169.052 24.9198 168.993 24.4087 168.818 23.9276C168.643 23.4466 168.381 22.9956 168.031 22.6348C167.681 22.274 167.243 21.9733 166.776 21.7929C166.31 21.6125 165.814 21.5223 165.289 21.5223C164.764 21.4622 164.21 21.5524 163.714 21.7328C163.218 21.9132 162.751 22.1838 162.343 22.5446C161.964 22.9054 161.643 23.3564 161.439 23.8675C161.235 24.3786 161.118 24.8898 161.118 25.461H169.022V25.431Z" fill="white"/>
</svg>
