<svg width="92" height="25" viewBox="0 0 92 25" fill="none" xmlns="http://www.w3.org/2000/svg">
<g clip-path="url(#clip0_1199_2503)">
<mask id="mask0_1199_2503" style="mask-type:luminance" maskUnits="userSpaceOnUse" x="0" y="0" width="92" height="25">
<path d="M91.9441 0.25H0.693359V24.1307H91.9441V0.25Z" fill="white"/>
</mask>
<g mask="url(#mask0_1199_2503)">
<path fill-rule="evenodd" clip-rule="evenodd" d="M9.04154 6.83245C8.26223 6.83908 7.48934 6.97621 6.75388 7.23835C4.86109 7.93225 1.78582 9.59939 1.01111 13.2305C-0.126288 18.592 1.97552 21.8323 4.37264 23.0631C4.91559 23.3401 6.26543 23.6391 7.67966 23.8071C9.59421 24.0317 14.8934 24.0647 16.8204 24.0319C20.4986 23.9773 24.6548 23.8683 29.6228 23.8683C31.0241 23.8683 32.1659 23.8443 33.0973 23.8071C36.4902 23.6696 39.7284 22.0985 41.1105 18.9453C41.7607 17.4615 42.0269 16.0519 42.0269 13.8327C42.0269 9.29165 38.8635 7.34347 36.357 6.38333C34.7603 5.77016 33.0352 5.59296 31.3377 5.76316C31.1158 5.78451 30.8928 5.79107 30.6703 5.78281C29.7798 5.74352 28.5948 4.9776 28.1378 4.19859C25.5045 -0.272576 20.176 0.270772 20.176 0.270772C20.176 0.270772 14.6735 -0.104564 13.0555 4.13312C12.2293 6.30213 10.2197 6.815 9.04154 6.83245ZM20.8408 3.17979C21.1328 2.67884 21.7784 2.50779 22.2829 2.79772C25.8046 4.82185 28.1917 8.468 28.1917 12.6652C28.1917 16.8624 25.8046 20.5085 22.2829 22.5327C21.7784 22.8225 21.1328 22.6515 20.8408 22.1505C20.5488 21.6496 20.7211 21.0085 21.2256 20.7185C24.1647 19.0293 26.0811 16.038 26.0811 12.6652C26.0811 9.29233 24.1647 6.30108 21.2256 4.6118C20.7211 4.32187 20.5488 3.68073 20.8408 3.17979ZM20.4155 6.81544C19.9141 6.52032 19.2668 6.68469 18.9695 7.1826C18.6724 7.68049 18.8379 8.32337 19.3393 8.61851C20.7872 9.4708 21.7242 10.9748 21.7242 12.6652C21.7242 14.3555 20.7872 15.8596 19.3393 16.7119C18.8379 17.0071 18.6724 17.6499 18.9695 18.1477C19.2668 18.6456 19.9141 18.81 20.4155 18.5149C22.4514 17.3165 23.8349 15.1552 23.8349 12.6652C23.8349 10.1751 22.4514 8.0138 20.4155 6.81544ZM18.1923 14.3597C18.9501 14.3597 19.5643 13.7499 19.5643 12.9974C19.5643 12.245 18.9501 11.635 18.1923 11.635C17.4345 11.635 16.8204 12.245 16.8204 12.9974C16.8204 13.7499 17.4345 14.3597 18.1923 14.3597Z" fill="white"/>
<path d="M53.1981 3.66777C52.4676 2.88346 51.8996 2.74902 49.3144 2.74902H47.1094L47.1582 7.26569L47.1929 12.0051H48.5841L48.6188 10.627L48.6535 9.26006H50.0101C51.6446 9.26006 52.3401 9.09198 53.0125 8.53178C53.3348 8.23622 53.605 7.89184 53.8124 7.51218C54.0791 6.97438 54.1 6.95064 54.1 6.12152C54.1023 5.00109 53.882 4.39605 53.1981 3.66777ZM51.9135 7.5458C51.6585 7.70266 51.299 7.74748 50.1282 7.78109L48.6444 7.8259L48.6188 4.20558H49.9867C51.088 4.20558 51.4243 4.2504 51.7489 4.40726C52.2937 4.69857 52.5836 5.2812 52.5836 6.0991C52.5836 6.861 52.3518 7.25449 51.9135 7.5458Z" fill="white"/>
<path d="M62.1499 3.79323C61.5711 4.27593 61.9214 5.20301 62.683 5.20301C63.2313 5.20301 63.635 4.62071 63.4446 4.11503C63.239 3.57104 62.5977 3.41013 62.1499 3.79323Z" fill="white"/>
<path d="M81.2246 3.58277H80.4554L80.421 4.58174L80.3866 5.59218H78.8945L78.9289 6.30408L78.9633 7.02748L79.6865 7.06192L80.398 7.09637V8.23312C80.398 10.1621 80.6736 10.9315 81.6148 11.5975C82.2001 12.0108 84.1858 11.8484 84.1858 11.8484V10.5988C84.1858 10.5988 83.8756 10.5988 83.5083 10.5988C82.9344 10.5988 82.6478 10.4837 82.3264 10.1966C82.207 10.0916 82.1106 9.96302 82.0433 9.819C81.976 9.67488 81.9389 9.51854 81.9351 9.35953L81.9132 8.47425L81.8672 7.08488H84.1858V5.60365L83.0724 5.56921L81.9475 5.53476L81.9132 4.23726C81.9017 3.53685 81.9132 3.58277 81.9132 3.58277H81.2246Z" fill="white"/>
<path d="M55.5391 5.68505C55.5044 5.76521 55.4927 7.2193 55.5044 8.91386L55.5391 12.0053H56.93L56.9879 10.0588C57.0458 7.95209 57.1249 7.58403 57.7623 7.17183C58.168 6.90849 58.9678 6.93138 59.4546 7.21762L59.8603 7.44662L60.3562 6.98336C60.6228 6.76581 60.8129 6.61248 60.8129 6.61248C60.8129 6.61248 59.9088 5.7881 59.2481 5.6507C58.633 5.52352 58.0928 5.58672 57.504 5.80368C56.9647 6.03509 56.9647 5.73085 56.9647 5.73085C56.8372 5.49041 55.6202 5.44462 55.5391 5.68505Z" fill="white"/>
<path d="M64.8215 5.62726C64.7645 5.7313 66.7575 11.7423 66.9511 12.0429C67.0762 12.2394 68.442 12.2394 68.5899 12.0429C68.6583 11.9734 68.9086 11.2799 69.1705 10.517C69.4322 9.75404 69.8875 8.37845 70.2061 7.46525C70.5363 6.52891 70.7504 5.67621 70.6935 5.61841H70.0878H69.2489L68.5445 7.73112C68.1461 8.86396 67.816 9.82345 67.7933 9.8465C67.7705 9.86964 67.4177 8.93332 67.0194 7.77736L66.2662 5.61841L65.5853 5.62726H64.8215Z" fill="white"/>
<path d="M76.9692 5.53923C76.3125 5.50454 76.2435 5.52767 76.2435 5.73583C76.2435 5.94398 76.2203 5.95555 75.8632 5.80522C75.4255 5.62018 74.4576 5.50454 74.1121 5.58548C73.0752 5.85146 72.3723 6.36028 71.9807 7.14666C71.5084 8.06023 71.5084 9.5636 71.9692 10.4656C72.2957 11.0643 72.8042 11.5425 73.4208 11.8301C74.0084 12.073 75.2411 12.0846 75.8056 11.8417C76.1973 11.6798 76.2203 11.6798 76.2779 11.888C76.3356 12.0962 76.4277 12.1193 77.0153 12.0846L77.6836 12.0499V5.57392L76.9692 5.53923ZM75.4347 10.6506C74.3286 11.0901 73.2688 10.6391 72.9116 9.57516C72.5775 8.54594 72.9116 7.52828 73.7642 7.0079C74.2134 6.73035 75.0314 6.73035 75.5499 7.0079C76.854 7.69018 76.7733 10.1071 75.4347 10.6506Z" fill="white"/>
<path d="M61.9121 5.9834V12.0909H62.6944H63.3502L63.3731 9.21554L63.3951 5.9834H62.7053C62.3222 5.9834 61.9121 5.9834 61.9121 5.9834Z" fill="white"/>
<path d="M51.8915 19.0921C52.0638 19.0492 52.2219 18.9621 52.3503 18.8396C52.7133 18.5088 53.2008 17.9137 53.3316 17.5196C53.5742 16.8116 53.5742 15.649 53.3316 14.941C53.1799 14.4849 52.8779 14.0404 52.499 13.7094C52.0119 13.2841 51.3286 13.2289 50.6803 13.2289H47.082C47.082 13.2289 47.0756 15.279 47.0861 17.657L47.1178 21.99H48.3838L48.4154 20.69L48.447 19.4008H50.2406L50.578 20.1616C50.7574 20.5844 51.0317 21.1656 51.1795 21.4616L51.4432 21.99L52.0656 22.0216C52.4032 22.0428 52.7302 22.011 52.7724 21.9688C52.8146 21.9265 52.6036 21.2924 52.2871 20.5737C51.9706 19.8552 51.728 19.2316 51.7702 19.1788C51.7821 19.1558 51.7994 19.136 51.8205 19.1209C51.8415 19.1058 51.8659 19.096 51.8915 19.0921ZM51.2828 17.8472C50.9769 17.9952 50.692 18.0269 49.7004 18.0057L48.4871 17.974L48.4555 16.336C48.4449 15.4377 48.4555 14.645 48.4871 14.5605C48.5294 14.4442 48.8247 14.423 49.9008 14.4549C51.1878 14.4865 51.2828 14.497 51.557 14.7508C51.958 15.1206 52.1268 15.5962 52.1268 16.3148C52.1268 17.0546 51.8547 17.5513 51.2828 17.8472Z" fill="white"/>
<path d="M70.5319 13.579H69.9207V15.9827H68.5488V17.3474H69.8976L69.9397 18.7328C69.9818 20.297 70.1188 20.7168 70.8037 21.3047C71.2673 21.7246 71.7626 21.882 72.6371 21.903L73.0828 21.9092C73.1167 21.9099 73.1505 21.9036 73.182 21.8911C73.2135 21.8784 73.2424 21.8598 73.2665 21.836C73.2908 21.8123 73.3101 21.7839 73.3231 21.7527C73.3362 21.7216 73.343 21.688 73.343 21.6542V20.8144C73.3422 20.7423 73.315 20.673 73.2665 20.6195C73.218 20.5659 73.1514 20.5319 73.0796 20.5236L72.6582 20.4848C72.363 20.4668 72.0701 20.4212 71.7836 20.3483C71.4148 20.1804 71.2884 19.7186 71.2884 18.501V17.3463H73.3957V15.9816H71.2884V14.7756C71.2884 14.1143 71.2567 13.5685 71.2146 13.579H70.5319Z" fill="white"/>
<path d="M60.6168 17.5645C59.9187 16.2574 58.3047 15.5641 56.8968 15.962C56.1508 16.158 55.5031 16.619 55.0767 17.2577C54.6549 17.8656 54.468 18.604 54.5502 19.3377C54.603 20.1254 54.9597 20.8628 55.546 21.3962C56.1321 21.9297 56.9029 22.2182 57.698 22.2018C58.9457 22.2018 59.93 21.645 60.5597 20.588C60.8342 20.1218 60.919 19.9356 60.919 19.0264C60.919 18.1966 60.8228 17.9282 60.6168 17.5645ZM56.8028 20.7697C56.0703 20.4174 55.7727 19.9173 55.7727 19.0762C55.7727 18.1329 56.0588 17.6441 56.86 17.2349C57.2836 17.0189 58.062 16.9962 58.5542 17.2122C59.115 17.4396 59.6417 18.0988 59.7217 18.6784C59.9873 20.372 58.3504 21.554 56.8028 20.7697Z" fill="white"/>
<path d="M62.0024 15.9854C62.0024 15.9854 61.9335 19.189 62.0811 19.8106C62.2077 20.369 62.5874 21.0115 62.9882 21.3487C63.1855 21.491 63.3977 21.6111 63.6212 21.7068C64.1485 21.9598 65.256 22.0019 65.7728 21.8018C66.0367 21.6963 66.1 21.7068 66.1737 21.8439C66.2476 21.9598 66.4374 22.0019 66.891 22.0019H67.5238V15.9854H66.8504H66.1527V17.8923C66.121 19.1036 66.0577 19.82 65.9627 19.9675C65.7728 20.3047 65.2877 20.5259 64.7603 20.5259C64.1696 20.5259 63.8427 20.3468 63.579 19.8939C63.3891 19.5672 63.3573 19.3144 63.3152 17.7552V15.9854H62.6278C62.2902 15.9864 62.0024 15.9854 62.0024 15.9854Z" fill="white"/>
<path d="M79.7899 20.4427C79.7668 20.4427 79.4449 20.5456 79.0771 20.6713C78.0886 21.0257 77.4366 20.9115 76.8735 20.6713C76.563 20.5341 76.471 20.4541 76.5861 20.4084C76.678 20.3741 77.6436 20.0769 78.7126 19.7569C80.9313 19.0939 80.9197 19.0939 80.552 17.9965C80.0692 16.5333 78.2873 15.5616 76.7814 15.9275C75.1606 16.3391 74.1951 17.6651 74.31 19.3453C74.4019 20.5913 75.0228 21.4829 76.1837 22.0088C76.9998 22.3747 78.284 22.5461 79.3531 22.1803C80.4911 21.7916 80.468 21.8259 80.1232 21.0829C79.9623 20.7285 79.8105 20.4427 79.7899 20.4427ZM75.6435 19.3568C75.494 19.3568 75.4365 19.2653 75.4365 19.0253C75.4365 18.3051 75.9538 17.5507 76.6434 17.2307C77.2068 16.9676 78.2069 17.082 78.7012 17.4479C79.092 17.7564 79.4138 18.1793 79.3104 18.2823C79.2277 18.3623 75.8503 19.3568 75.6435 19.3568Z" fill="white"/>
<path d="M89.8785 10.5839C89.8785 10.5839 89.4446 10.963 89.0401 10.9758C87.9481 11.0262 87.4127 10.486 87.4127 10.486C87.1459 10.2563 86.8325 9.61493 86.9609 9.60455C87.0628 9.59854 88.3223 9.59678 89.4839 9.60455C90.389 9.61113 91.3497 9.60455 91.3497 9.60455C91.8519 9.60455 91.9247 9.35619 91.9093 8.61783C91.8759 7.02501 90.3998 5.52418 88.7895 5.4291C87.0511 5.34438 85.6851 6.36235 85.2862 8.05831C84.997 9.3179 85.3422 10.3875 86.3369 11.2594C87.0373 11.8685 87.9173 11.974 89.0928 11.9366C89.9943 11.9079 90.807 11.0537 90.9965 10.7111C91.029 10.6523 90.9858 10.5839 90.9182 10.5839C90.7317 10.5839 90.3705 10.5839 89.8785 10.5839ZM86.8115 8.52383C86.663 8.47851 86.6336 8.37069 86.707 8.13338C86.927 7.42149 87.4701 6.78271 88.2542 6.67547C88.8951 6.58639 89.8553 7.00267 90.2354 7.51418C90.53 7.93781 90.721 8.45351 90.5867 8.52383C90.4798 8.57783 87.0175 8.58658 86.8115 8.52383Z" fill="white"/>
<path d="M81.697 18.942L81.7287 21.9092H82.9924L83.0451 20.0744C83.0872 18.5436 83.1692 18.0514 83.3271 17.8207C83.7168 17.2442 84.7384 17.0868 85.3177 17.5167L85.6336 17.7474L86.0969 17.2964C86.3498 17.045 86.5206 16.9499 86.5206 16.908C86.5206 16.7298 85.52 16.1951 84.962 16.0798C84.4879 15.9854 84.2562 15.9959 83.7402 16.1218C83.1926 16.258 83.0872 16.258 83.0135 16.1322C82.9608 16.0274 82.7291 15.9854 82.2973 15.9854H81.6738L81.697 18.942Z" fill="white"/>
</g>
</g>
<defs>
<clipPath id="clip0_1199_2503">
<rect width="91.3043" height="24" fill="white" transform="translate(0.695312 0.25)"/>
</clipPath>
</defs>
</svg>
