<svg width="180" height="48" viewBox="0 0 180 48" fill="none" xmlns="http://www.w3.org/2000/svg">
<g clip-path="url(#clip0_1952_6969)">
<mask id="mask0_1952_6969" style="mask-type:luminance" maskUnits="userSpaceOnUse" x="-1" y="0" width="181" height="46">
<path d="M179.89 0H-0.00390625V45.7713H179.89V0Z" fill="white"/>
</mask>
<g mask="url(#mask0_1952_6969)">
<path fill-rule="evenodd" clip-rule="evenodd" d="M24.5797 13.2208C23.2133 13.2321 21.8581 13.4658 20.5686 13.9127C17.2499 15.0955 11.8579 17.9374 10.4995 24.1271C8.50525 33.2666 12.1905 38.7902 16.3935 40.8882C17.3454 41.3605 19.7122 41.8701 22.1918 42.1565C25.5487 42.5395 34.84 42.5956 38.2188 42.5397C44.668 42.4467 51.9552 42.2608 60.6658 42.2608C63.1228 42.2608 65.1248 42.2199 66.7579 42.1565C72.7068 41.9222 78.3846 39.244 80.8078 33.8689C81.9479 31.3395 82.4146 28.9366 82.4146 25.1537C82.4146 17.4128 76.8681 14.0919 72.4733 12.4552C69.6738 11.4099 66.649 11.1079 63.6727 11.398C63.2836 11.4344 62.8927 11.4456 62.5025 11.4315C60.9411 11.3645 58.8634 10.0589 58.0621 8.73095C53.4451 1.10919 44.1024 2.03541 44.1024 2.03541C44.1024 2.03541 34.4545 1.39559 31.6175 8.61935C30.1689 12.3168 26.6454 13.191 24.5797 13.2208ZM45.2679 6.99425C45.7799 6.14032 46.9118 5.84873 47.7964 6.34296C53.9712 9.7934 58.1566 16.0088 58.1566 23.1635C58.1566 30.3183 53.9712 36.5336 47.7964 39.9841C46.9118 40.4782 45.7799 40.1866 45.2679 39.3327C44.7559 38.4788 45.058 37.386 45.9426 36.8916C51.096 34.0121 54.456 28.913 54.456 23.1635C54.456 17.414 51.096 12.315 45.9426 9.43533C45.058 8.9411 44.7559 7.84819 45.2679 6.99425ZM44.5222 13.1918C43.643 12.6887 42.5081 12.9689 41.9869 13.8176C41.466 14.6664 41.7561 15.7623 42.6353 16.2654C45.1739 17.7182 46.8168 20.2821 46.8168 23.1635C46.8168 26.0448 45.1739 28.6089 42.6353 30.0617C41.7561 30.5649 41.466 31.6606 41.9869 32.5093C42.5081 33.358 43.643 33.6383 44.5222 33.1353C48.0919 31.0924 50.5177 27.4081 50.5177 23.1635C50.5177 18.9188 48.0919 15.2345 44.5222 13.1918ZM40.6242 26.0521C41.9528 26.0521 43.0297 25.0125 43.0297 23.7298C43.0297 22.4472 41.9528 21.4074 40.6242 21.4074C39.2955 21.4074 38.2188 22.4472 38.2188 23.7298C38.2188 25.0125 39.2955 26.0521 40.6242 26.0521Z" fill="white"/>
<path d="M102.002 7.8259C100.721 6.48894 99.7251 6.25977 95.1923 6.25977H91.3262L91.4117 13.9591L91.4726 22.0381H93.9118L93.9727 19.6889L94.0336 17.3588H96.4121C99.2779 17.3588 100.498 17.0723 101.676 16.1173C102.242 15.6135 102.715 15.0264 103.079 14.3793C103.547 13.4625 103.583 13.422 103.583 12.0087C103.587 10.0987 103.201 9.06736 102.002 7.8259ZM99.7495 14.4366C99.3024 14.704 98.6721 14.7804 96.6192 14.8377L94.0176 14.9141L93.9727 8.74269H96.3712C98.3021 8.74269 98.8917 8.81908 99.4608 9.08648C100.416 9.58306 100.924 10.5762 100.924 11.9705C100.924 13.2692 100.518 13.94 99.7495 14.4366Z" fill="white"/>
<path d="M117.697 8.04006C116.683 8.86291 117.297 10.4432 118.632 10.4432C119.593 10.4432 120.301 9.45062 119.967 8.58862C119.607 7.66131 118.483 7.38702 117.697 8.04006Z" fill="white"/>
<path d="M151.142 7.68123H149.793L149.733 9.38412L149.673 11.1066H147.057L147.117 12.3201L147.177 13.5532L148.445 13.6119L149.693 13.6707V15.6084C149.693 18.8967 150.176 20.2082 151.826 21.3435C152.853 22.0481 156.334 21.7712 156.334 21.7712V19.6411C156.334 19.6411 155.79 19.6411 155.146 19.6411C154.14 19.6411 153.637 19.4448 153.074 18.9554C152.864 18.7765 152.695 18.5573 152.577 18.3118C152.459 18.0661 152.395 17.7996 152.388 17.5286L152.349 16.0195L152.269 13.6511H156.334V11.1261L154.382 11.0674L152.41 11.0087L152.349 8.79691C152.329 7.60295 152.349 7.68123 152.349 7.68123H151.142Z" fill="white"/>
<path d="M106.106 11.2648C106.045 11.4014 106.024 13.8801 106.045 16.7688L106.106 22.0385H108.544L108.646 18.7205C108.747 15.1293 108.886 14.5019 110.004 13.7992C110.715 13.3503 112.117 13.3893 112.971 13.8773L113.682 14.2676L114.552 13.4779C115.019 13.1071 115.352 12.8457 115.352 12.8457C115.352 12.8457 113.767 11.4404 112.609 11.2062C111.53 10.9894 110.583 11.0972 109.551 11.467C108.605 11.8615 108.605 11.3429 108.605 11.3429C108.382 10.933 106.248 10.8549 106.106 11.2648Z" fill="white"/>
<path d="M122.382 11.1665C122.282 11.3438 125.777 21.5905 126.116 22.1028C126.335 22.4378 128.73 22.4378 128.989 22.1028C129.109 21.9845 129.548 20.8022 130.007 19.5018C130.466 18.2012 131.264 15.8563 131.823 14.2996C132.402 12.7035 132.777 11.2499 132.678 11.1514H131.616H130.145L128.91 14.7528C128.211 16.6839 127.632 18.3195 127.592 18.3588C127.553 18.3982 126.934 16.8021 126.236 14.8316L124.915 11.1514L123.721 11.1665H122.382Z" fill="white"/>
<path d="M143.68 11.0162C142.528 10.9571 142.407 10.9965 142.407 11.3513C142.407 11.7062 142.367 11.7259 141.741 11.4696C140.973 11.1542 139.276 10.9571 138.67 11.095C136.852 11.5484 135.62 12.4158 134.933 13.7563C134.105 15.3136 134.105 17.8763 134.913 19.4139C135.485 20.4345 136.377 21.2496 137.458 21.74C138.489 22.154 140.65 22.1737 141.64 21.7597C142.326 21.4837 142.367 21.4837 142.468 21.8386C142.569 22.1934 142.73 22.2329 143.761 22.1737L144.932 22.1145V11.0753L143.68 11.0162ZM140.989 19.7293C139.05 20.4785 137.192 19.7096 136.565 17.896C135.98 16.1416 136.565 14.4068 138.06 13.5198C138.848 13.0466 140.282 13.0466 141.191 13.5198C143.478 14.6828 143.336 18.8028 140.989 19.7293Z" fill="white"/>
<path d="M117.28 11.7734V22.1846H118.652H119.802L119.842 17.2831L119.88 11.7734H118.671C117.999 11.7734 117.28 11.7734 117.28 11.7734Z" fill="white"/>
<path d="M99.7096 34.1192C100.012 34.0461 100.289 33.8976 100.514 33.6888C101.15 33.1249 102.005 32.1105 102.235 31.4386C102.66 30.2317 102.66 28.25 102.235 27.0431C101.968 26.2656 101.439 25.5078 100.775 24.9437C99.9207 24.2186 98.7225 24.1245 97.5859 24.1245H91.2769C91.2769 24.1245 91.2656 27.6193 91.2839 31.673L91.3396 39.0591H93.5593L93.6147 36.843L93.6702 34.6454H96.8149L97.4066 35.9423C97.7211 36.663 98.2021 37.6538 98.4611 38.1584L98.9235 39.0591L100.015 39.113C100.607 39.1491 101.18 39.095 101.254 39.023C101.328 38.9509 100.958 37.8699 100.403 36.6449C99.8483 35.42 99.4228 34.357 99.4969 34.267C99.5178 34.2279 99.5481 34.194 99.585 34.1683C99.6219 34.1427 99.6647 34.1258 99.7096 34.1192ZM98.6424 31.9971C98.1059 32.2494 97.6064 32.3035 95.8677 32.2673L93.7405 32.2132L93.685 29.421C93.6665 27.8898 93.685 26.5386 93.7405 26.3945C93.8146 26.1963 94.3324 26.1601 96.2192 26.2145C98.4757 26.2683 98.6424 26.2863 99.1231 26.7188C99.8262 27.3493 100.122 28.16 100.122 29.3849C100.122 30.6461 99.645 31.4927 98.6424 31.9971Z" fill="white"/>
<path d="M132.393 24.721H131.321V28.8184H128.916V31.1447H131.281L131.355 33.5064C131.429 36.1727 131.669 36.8885 132.87 37.8906C133.682 38.6063 134.551 38.8747 136.084 38.9104L136.866 38.9211C136.925 38.9222 136.984 38.9115 137.04 38.8902C137.095 38.8686 137.145 38.8368 137.188 38.7963C137.23 38.7558 137.264 38.7074 137.287 38.6542C137.31 38.6013 137.322 38.544 137.322 38.4863V37.0548C137.321 36.9319 137.273 36.8137 137.188 36.7225C137.103 36.6312 136.986 36.5732 136.86 36.5591L136.121 36.493C135.604 36.4623 135.09 36.3846 134.588 36.2602C133.941 35.9741 133.719 35.1868 133.719 33.1112V31.1429H137.414V28.8166H133.719V26.7608C133.719 25.6335 133.664 24.703 133.59 24.721H132.393Z" fill="white"/>
<path d="M115.008 31.5152C113.784 29.2872 110.954 28.1053 108.485 28.7835C107.177 29.1176 106.042 29.9036 105.294 30.9923C104.555 32.0285 104.227 33.2872 104.371 34.5379C104.464 35.8807 105.089 37.1376 106.117 38.047C107.145 38.9564 108.496 39.4482 109.89 39.4203C112.078 39.4203 113.804 38.4711 114.908 36.6692C115.389 35.8746 115.538 35.5571 115.538 34.0072C115.538 32.5928 115.369 32.1353 115.008 31.5152ZM108.321 36.979C107.036 36.3785 106.515 35.5259 106.515 34.0922C106.515 32.4842 107.016 31.6509 108.421 30.9534C109.164 30.5852 110.529 30.5466 111.392 30.9148C112.375 31.3023 113.298 32.426 113.439 33.414C113.904 36.301 111.034 38.3159 108.321 36.979Z" fill="white"/>
<path d="M117.438 28.8232C117.438 28.8232 117.317 34.2842 117.576 35.3439C117.798 36.2957 118.464 37.391 119.167 37.9658C119.513 38.2084 119.885 38.4131 120.277 38.5763C121.201 39.0075 123.143 39.0793 124.049 38.7382C124.512 38.5584 124.623 38.5763 124.752 38.81C124.882 39.0075 125.214 39.0793 126.01 39.0793H127.119V28.8232H125.939H124.715V32.0739C124.66 34.1388 124.549 35.36 124.382 35.6114C124.049 36.1862 123.199 36.5633 122.274 36.5633C121.238 36.5633 120.665 36.258 120.203 35.4859C119.87 34.9291 119.814 34.4981 119.74 31.8402V28.8232H118.535C117.943 28.8251 117.438 28.8232 117.438 28.8232Z" fill="white"/>
<path d="M148.627 36.4215C148.587 36.4215 148.022 36.597 147.378 36.8113C145.644 37.4154 144.501 37.2206 143.514 36.8113C142.969 36.5774 142.808 36.441 143.01 36.3631C143.171 36.3047 144.864 35.798 146.738 35.2526C150.628 34.1223 150.608 34.1223 149.963 32.2517C149.117 29.7575 145.993 28.101 143.352 28.7247C140.51 29.4263 138.818 31.6867 139.019 34.5509C139.18 36.6749 140.269 38.1948 142.304 39.0912C143.735 39.7149 145.987 40.0072 147.861 39.3835C149.857 38.7209 149.816 38.7794 149.212 37.5129C148.93 36.9088 148.663 36.4215 148.627 36.4215ZM141.357 34.5705C141.095 34.5705 140.994 34.4146 140.994 34.0054C140.994 32.7776 141.901 31.4917 143.11 30.9462C144.098 30.4977 145.852 30.6927 146.718 31.3164C147.404 31.8424 147.968 32.5633 147.787 32.7388C147.642 32.8751 141.72 34.5705 141.357 34.5705Z" fill="white"/>
<path d="M166.316 19.6159C166.316 19.6159 165.555 20.262 164.846 20.2838C162.931 20.3697 161.992 19.4489 161.992 19.4489C161.525 19.0573 160.975 17.964 161.2 17.9464C161.379 17.9361 163.587 17.9331 165.624 17.9464C167.211 17.9576 168.895 17.9464 168.895 17.9464C169.776 17.9464 169.904 17.523 169.877 16.2643C169.818 13.5491 167.23 10.9908 164.406 10.8287C161.358 10.6843 158.963 12.4195 158.264 15.3106C157.757 17.4577 158.362 19.281 160.106 20.7674C161.334 21.8056 162.877 21.9854 164.938 21.9217C166.519 21.8728 167.944 20.4166 168.276 19.8326C168.333 19.7325 168.257 19.6159 168.139 19.6159C167.812 19.6159 167.179 19.6159 166.316 19.6159ZM160.938 16.1041C160.678 16.0269 160.626 15.843 160.755 15.4385C161.141 14.225 162.093 13.1361 163.468 12.9533C164.591 12.8015 166.275 13.5111 166.942 14.383C167.458 15.1051 167.793 15.9842 167.557 16.1041C167.37 16.1962 161.299 16.2111 160.938 16.1041Z" fill="white"/>
<path d="M151.97 33.8633L152.026 38.9213H154.242L154.334 35.7937C154.408 33.1842 154.552 32.345 154.828 31.9518C155.512 30.9691 157.303 30.7009 158.319 31.4336L158.873 31.8268L159.685 31.0581C160.128 30.6295 160.428 30.4674 160.428 30.3961C160.428 30.0922 158.673 29.1808 157.695 28.9842C156.864 28.8232 156.458 28.8412 155.553 29.0558C154.593 29.288 154.408 29.288 154.279 29.0735C154.186 28.8948 153.78 28.8232 153.023 28.8232H151.93L151.97 33.8633Z" fill="white"/>
</g>
</g>
<defs>
<clipPath id="clip0_1952_6969">
<rect width="180" height="48" fill="white"/>
</clipPath>
</defs>
</svg>
