<svg width="183" height="48" viewBox="0 0 183 48" fill="none" xmlns="http://www.w3.org/2000/svg">
<g clip-path="url(#clip0_1724_2773)">
<mask id="mask0_1724_2773" style="mask-type:luminance" maskUnits="userSpaceOnUse" x="0" y="0" width="183" height="48">
<path d="M182.89 0H0.878906V47.7613H182.89V0Z" fill="white"/>
</mask>
<g mask="url(#mask0_1724_2773)">
<path fill-rule="evenodd" clip-rule="evenodd" d="M17.5304 13.1649C15.9759 13.1782 14.4343 13.4524 12.9673 13.9767C9.19195 15.3645 3.05796 18.6988 1.51269 25.9609C-0.755981 36.684 3.43633 43.1645 8.21768 45.6261C9.30066 46.1803 11.9931 46.7781 14.8139 47.1141C18.6327 47.5635 29.2026 47.6293 33.0463 47.5637C40.3829 47.4547 48.6729 47.2365 58.5821 47.2365C61.3773 47.2365 63.6547 47.1885 65.5125 47.1141C72.28 46.8392 78.7391 43.6971 81.4958 37.3907C82.7928 34.4229 83.3236 31.6037 83.3236 27.1653C83.3236 18.0833 77.014 14.1869 72.0144 12.2667C68.8296 11.0403 65.3887 10.6859 62.0028 11.0263C61.5602 11.069 61.1154 11.0821 60.6715 11.0656C58.8953 10.987 56.5318 9.4552 55.6201 7.89717C50.3678 -1.04515 39.7395 0.041544 39.7395 0.041544C39.7395 0.041544 28.764 -0.709128 25.5366 7.76624C23.8887 12.1043 19.8803 13.13 17.5304 13.1649ZM41.0654 5.85957C41.6478 4.85768 42.9355 4.51557 43.9418 5.09544C50.9663 9.14371 55.7276 16.436 55.7276 24.8304C55.7276 33.2248 50.9663 40.5171 43.9418 44.5653C42.9355 45.1451 41.6478 44.8029 41.0654 43.8011C40.4829 42.7992 40.8266 41.5171 41.8329 40.9371C47.6954 37.5587 51.5178 31.576 51.5178 24.8304C51.5178 18.0847 47.6954 12.1022 41.8329 8.7236C40.8266 8.14373 40.4829 6.86147 41.0654 5.85957ZM40.2171 13.1309C39.2169 12.5406 37.9258 12.8694 37.3329 13.8652C36.7403 14.861 37.0703 16.1467 38.0705 16.737C40.9584 18.4416 42.8275 21.4497 42.8275 24.8304C42.8275 28.2109 40.9584 31.2192 38.0705 32.9237C37.0703 33.5141 36.7403 34.7997 37.3329 35.7955C37.9258 36.7912 39.2169 37.12 40.2171 36.5299C44.278 34.1331 47.0376 29.8104 47.0376 24.8304C47.0376 19.8502 44.278 15.5276 40.2171 13.1309ZM35.7826 28.2195C37.2941 28.2195 38.5192 26.9997 38.5192 25.4948C38.5192 23.9899 37.2941 22.77 35.7826 22.77C34.2711 22.77 33.0463 23.9899 33.0463 25.4948C33.0463 26.9997 34.2711 28.2195 35.7826 28.2195Z" fill="white"/>
<path d="M105.606 6.83554C104.149 5.26693 103.016 4.99805 97.859 4.99805H93.4609L93.5583 14.0314L93.6275 23.5102H96.4024L96.4716 20.7539L96.5409 18.0201H99.2467C102.507 18.0201 103.894 17.684 105.235 16.5636C105.878 15.9724 106.417 15.2837 106.831 14.5244C107.363 13.4488 107.405 13.4013 107.405 11.743C107.409 9.50218 106.97 8.2921 105.606 6.83554ZM103.043 14.5916C102.535 14.9053 101.818 14.995 99.4823 15.0622L96.5227 15.1518L96.4716 7.91117H99.2002C101.397 7.91117 102.068 8.00079 102.715 8.31453C103.802 8.89714 104.38 10.0624 104.38 11.6982C104.38 13.222 103.918 14.009 103.043 14.5916Z" fill="white"/>
<path d="M123.461 7.08645C122.307 8.05187 123.006 9.90603 124.525 9.90603C125.618 9.90603 126.424 8.74141 126.044 7.73005C125.634 6.64208 124.355 6.32027 123.461 7.08645Z" fill="white"/>
<path d="M161.508 6.66554H159.974L159.905 8.66349L159.837 10.6844H156.86L156.929 12.1082L156.998 13.555L158.44 13.6238L159.859 13.6927V15.9662C159.859 19.8242 160.409 21.363 162.286 22.6949C163.454 23.5217 167.414 23.1968 167.414 23.1968V20.6976C167.414 20.6976 166.796 20.6976 166.063 20.6976C164.918 20.6976 164.347 20.4674 163.706 19.8931C163.467 19.6832 163.275 19.426 163.141 19.138C163.007 18.8498 162.933 18.5371 162.925 18.2191L162.881 16.4485L162.79 13.6698H167.414V10.7073L165.194 10.6384L162.95 10.5695L162.881 7.97453C162.858 6.5737 162.881 6.66554 162.881 6.66554H161.508Z" fill="white"/>
<path d="M110.275 10.8701C110.206 11.0304 110.183 13.9386 110.206 17.3277L110.275 23.5105H113.05L113.165 19.6176C113.281 15.4042 113.438 14.668 114.71 13.8436C115.519 13.317 117.114 13.3628 118.085 13.9352L118.894 14.3932L119.884 13.4667C120.415 13.0316 120.794 12.725 120.794 12.725C120.794 12.725 118.991 11.0762 117.673 10.8014C116.446 10.547 115.369 10.6734 114.194 11.1074C113.119 11.5702 113.119 10.9617 113.119 10.9617C112.864 10.4808 110.437 10.3892 110.275 10.8701Z" fill="white"/>
<path d="M128.79 10.7545C128.677 10.9626 132.652 22.9847 133.038 23.5858C133.288 23.9788 136.012 23.9788 136.307 23.5858C136.443 23.4469 136.943 22.0598 137.465 20.534C137.987 19.0081 138.895 16.2569 139.531 14.4305C140.189 12.5578 140.616 10.8524 140.503 10.7368H139.295H137.621L136.216 14.9622C135.422 17.2279 134.763 19.1469 134.718 19.193C134.673 19.2393 133.969 17.3666 133.174 15.0547L131.672 10.7368L130.314 10.7545H128.79Z" fill="white"/>
<path d="M153.02 10.5785C151.71 10.5091 151.572 10.5553 151.572 10.9717C151.572 11.388 151.526 11.4111 150.814 11.1104C149.941 10.7404 148.01 10.5091 147.321 10.671C145.253 11.2029 143.851 12.2206 143.07 13.7933C142.128 15.6205 142.128 18.6272 143.047 20.4312C143.698 21.6286 144.712 22.5849 145.942 23.1603C147.114 23.646 149.573 23.6692 150.699 23.1834C151.48 22.8596 151.526 22.8596 151.641 23.276C151.756 23.6923 151.94 23.7386 153.112 23.6692L154.445 23.5997V10.6478L153.02 10.5785ZM149.959 20.8013C147.753 21.6802 145.639 20.7781 144.927 18.6503C144.26 16.5919 144.927 14.5566 146.627 13.5158C147.523 12.9607 149.155 12.9607 150.189 13.5158C152.79 14.8804 152.629 19.7142 149.959 20.8013Z" fill="white"/>
<path d="M122.987 11.4668V23.6818H124.548H125.856L125.901 17.9311L125.945 11.4668H124.569C123.805 11.4668 122.987 11.4668 122.987 11.4668Z" fill="white"/>
<path d="M102.999 37.6842C103.343 37.5984 103.658 37.4242 103.915 37.1792C104.638 36.5176 105.611 35.3274 105.872 34.5392C106.356 33.1232 106.356 30.7981 105.872 29.3821C105.569 28.4698 104.967 27.5808 104.211 26.9189C103.24 26.0681 101.876 25.9578 100.583 25.9578H93.4063C93.4063 25.9578 93.3934 30.0581 93.4143 34.8141L93.4777 43.48H96.0027L96.0658 40.88L96.1289 38.3016H99.7063L100.379 39.8232C100.737 40.6688 101.284 41.8312 101.579 42.4232L102.105 43.48L103.347 43.5432C104.02 43.5856 104.672 43.5221 104.756 43.4376C104.841 43.353 104.42 42.0848 103.788 40.6474C103.157 39.2104 102.673 37.9632 102.757 37.8576C102.781 37.8117 102.816 37.772 102.858 37.7418C102.9 37.7117 102.948 37.6919 102.999 37.6842ZM101.785 35.1944C101.175 35.4904 100.607 35.5538 98.6288 35.5114L96.2089 35.4479L96.1458 32.172C96.1246 30.3754 96.1458 28.7901 96.2089 28.621C96.2931 28.3885 96.8823 28.3461 99.0286 28.4098C101.596 28.473 101.785 28.4941 102.332 29.0016C103.132 29.7413 103.469 30.6925 103.469 32.1296C103.469 33.6093 102.926 34.6026 101.785 35.1944Z" fill="white"/>
<path d="M140.18 26.658H138.961V31.4654H136.225V34.1948H138.915L138.999 36.9657C139.083 40.094 139.356 40.9337 140.722 42.1094C141.647 42.9492 142.635 43.2641 144.379 43.306L145.268 43.3185C145.336 43.3198 145.403 43.3073 145.466 43.2822C145.529 43.2569 145.586 43.2196 145.635 43.1721C145.683 43.1246 145.721 43.0678 145.747 43.0054C145.774 42.9433 145.787 42.8761 145.787 42.8084V41.1289C145.786 40.9846 145.731 40.846 145.635 40.739C145.538 40.6318 145.405 40.5638 145.262 40.5473L144.421 40.4697C143.832 40.4337 143.248 40.3425 142.677 40.1966C141.941 39.8609 141.689 38.9372 141.689 36.502V34.1926H145.892V31.4633H141.689V29.0513C141.689 27.7286 141.626 26.6369 141.542 26.658H140.18Z" fill="white"/>
<path d="M120.403 34.629C119.01 32.0149 115.791 30.6282 112.983 31.424C111.495 31.816 110.203 32.7381 109.353 34.0154C108.511 35.2312 108.139 36.708 108.302 38.1754C108.408 39.7509 109.119 41.2256 110.289 42.2925C111.458 43.3594 112.995 43.9365 114.581 43.9037C117.07 43.9037 119.033 42.7901 120.289 40.676C120.837 39.7437 121.006 39.3712 121.006 37.5528C121.006 35.8933 120.814 35.3565 120.403 34.629ZM112.795 41.0394C111.335 40.3349 110.741 39.3346 110.741 37.6525C110.741 35.7658 111.312 34.7882 112.91 33.9698C113.754 33.5378 115.307 33.4925 116.289 33.9245C117.408 34.3792 118.458 35.6976 118.618 36.8568C119.147 40.244 115.882 42.608 112.795 41.0394Z" fill="white"/>
<path d="M123.167 31.4707C123.167 31.4707 123.029 37.8779 123.324 39.1211C123.576 40.2379 124.334 41.523 125.133 42.1974C125.527 42.4819 125.95 42.7222 126.396 42.9136C127.448 43.4195 129.656 43.5038 130.687 43.1035C131.214 42.8926 131.34 42.9136 131.487 43.1878C131.634 43.4195 132.013 43.5038 132.918 43.5038H134.18V31.4707H132.837H131.445V35.2846C131.382 37.7072 131.256 39.14 131.066 39.435C130.687 40.1094 129.72 40.5518 128.668 40.5518C127.489 40.5518 126.838 40.1936 126.311 39.2878C125.933 38.6344 125.869 38.1288 125.785 35.0104V31.4707H124.414C123.741 31.4728 123.167 31.4707 123.167 31.4707Z" fill="white"/>
<path d="M158.647 40.3853C158.601 40.3853 157.959 40.5912 157.225 40.8427C155.254 41.5515 153.953 41.3229 152.83 40.8427C152.211 40.5683 152.027 40.4083 152.256 40.3168C152.44 40.2483 154.366 39.6539 156.498 39.0139C160.924 37.6877 160.901 37.6877 160.167 35.4931C159.204 32.5667 155.65 30.6232 152.646 31.3549C149.413 32.1781 147.487 34.8301 147.717 38.1907C147.9 40.6827 149.138 42.4659 151.454 43.5176C153.082 44.2493 155.643 44.5923 157.776 43.8605C160.046 43.0832 160 43.1517 159.312 41.6659C158.991 40.9571 158.688 40.3853 158.647 40.3853ZM150.376 38.2136C150.078 38.2136 149.964 38.0307 149.964 37.5507C149.964 36.1101 150.995 34.6013 152.371 33.9613C153.495 33.4352 155.489 33.664 156.475 34.3957C157.255 35.0128 157.897 35.8587 157.691 36.0645C157.526 36.2245 150.789 38.2136 150.376 38.2136Z" fill="white"/>
<path d="M178.77 20.6679C178.77 20.6679 177.904 21.426 177.098 21.4515C174.919 21.5524 173.852 20.472 173.852 20.472C173.319 20.0125 172.694 18.7299 172.95 18.7091C173.154 18.6971 175.666 18.6936 177.983 18.7091C179.788 18.7223 181.704 18.7091 181.704 18.7091C182.706 18.7091 182.851 18.2124 182.821 16.7357C182.754 13.55 179.81 10.5484 176.598 10.3582C173.13 10.1888 170.406 12.2247 169.61 15.6166C169.033 18.1358 169.722 20.2751 171.706 22.0189C173.103 23.237 174.858 23.448 177.203 23.3732C179.001 23.3159 180.622 21.6074 181 20.9222C181.065 20.8047 180.979 20.6679 180.844 20.6679C180.472 20.6679 179.751 20.6679 178.77 20.6679ZM172.652 16.5477C172.356 16.457 172.298 16.2414 172.444 15.7668C172.883 14.343 173.966 13.0654 175.53 12.8509C176.808 12.6728 178.724 13.5053 179.482 14.5284C180.069 15.3756 180.45 16.407 180.182 16.5477C179.969 16.6557 173.063 16.6732 172.652 16.5477Z" fill="white"/>
<path d="M162.451 37.384L162.514 43.3184H165.034L165.14 39.6488C165.224 36.5872 165.387 35.6027 165.702 35.1414C166.479 33.9883 168.517 33.6736 169.672 34.5334L170.302 34.9947L171.227 34.0928C171.731 33.5899 172.072 33.3998 172.072 33.316C172.072 32.9595 170.076 31.8902 168.963 31.6595C168.017 31.4707 167.555 31.4918 166.526 31.7435C165.434 32.016 165.224 32.016 165.076 31.7643C164.971 31.5547 164.509 31.4707 163.648 31.4707H162.404L162.451 37.384Z" fill="white"/>
</g>
</g>
<defs>
<clipPath id="clip0_1724_2773">
<rect width="182.118" height="48" fill="white" transform="translate(0.882812)"/>
</clipPath>
</defs>
</svg>
