<svg width="180" height="48" viewBox="0 0 180 48" fill="none" xmlns="http://www.w3.org/2000/svg">
<g clip-path="url(#clip0_1952_6930)">
<path d="M97.597 24.1284C98.6316 21.1753 100.424 19.0305 103.25 17.7506C106.244 16.3949 110.687 16.9086 112.846 19.3677C113.041 19.5904 113.314 19.7478 113.776 20.1139C113.776 16.3316 113.776 12.7958 113.776 9.15723C116.212 9.15723 118.478 9.15723 120.89 9.15723C120.917 9.70857 120.965 10.2331 120.965 10.7577C120.97 17.6696 120.973 24.5815 120.963 31.4935C120.962 32.327 120.916 33.1342 121.899 33.5342C122.076 33.6062 122.286 33.8666 122.289 34.0434C122.32 35.7131 122.351 37.3855 122.266 39.0515C122.254 39.2865 121.635 39.6502 121.274 39.6795C120.225 39.7644 119.162 39.7523 118.108 39.6997C116.492 39.6191 115.6 38.7694 115.046 37.0185C113.466 37.8552 111.943 38.96 110.236 39.5107C104.435 41.3828 98.4228 37.3646 97.2328 31.1535C96.7817 28.7991 97.0348 26.5197 97.597 24.1284ZM105.512 24.9307C104.216 26.4096 104.157 28.1479 104.428 29.9531C104.714 31.8524 106.431 33.5296 108.536 33.974C110.18 34.3212 112.197 33.3605 113.318 32.0205C114.403 30.7229 114.019 29.2888 114.054 27.8938C114.103 25.9882 112.513 23.9447 110.545 23.2059C108.717 22.5199 107.246 22.9932 105.512 24.9307Z" fill="white"/>
<path d="M25.5783 38.8833C23.7903 38.1696 22.1158 37.4683 20.4336 36.7854C19.5826 36.4399 19.3768 35.9667 19.844 35.1191C20.7548 33.4669 21.5789 31.7685 22.4749 30.0189C23.801 30.6865 24.9848 31.4847 26.2943 31.8956C28.3981 32.5558 29.91 32.8896 32.0674 33.3777C33.1247 33.6169 34.2771 33.3441 35.1974 32.7714C35.6271 32.504 35.9463 32.1111 36.001 31.4281C36.113 30.0293 34.9623 29.5424 33.9989 29.1832C31.4954 28.25 28.9003 27.5566 26.3853 26.6505C23.7092 25.6863 21.3458 24.1339 20.917 21.1757C20.1009 15.5449 22.5386 11.3683 28.3876 9.92219C32.3705 8.93743 36.2706 9.71651 40.0018 11.2889C40.9632 11.6941 41.8719 12.2205 42.9588 12.7689C41.9465 14.7079 40.9584 16.6005 39.9786 18.477C38.0178 17.7014 36.271 16.8491 34.4266 16.3366C33.1606 15.9847 31.7543 15.9936 30.4194 16.048C29.2603 16.0952 28.3347 16.6252 28.2802 18.0118C28.2248 19.4235 29.1721 20.0462 30.2788 20.4112C32.9511 21.2926 35.6794 22.0107 38.3449 22.9102C40.4977 23.6367 42.2872 24.9836 43.087 27.1104C44.882 31.8838 43.5057 37.5233 37.3104 39.1618C33.4337 40.187 29.5408 39.9465 25.5783 38.8833Z" fill="white"/>
<path d="M65.2972 19.2895C68.5542 22.0243 70.004 25.4296 69.6492 29.5114C69.1579 35.1658 65.8096 38.6498 60.274 39.7102C56.2385 40.4832 52.5823 39.6827 49.3875 37.0632C47.5684 35.5716 46.5051 33.6292 46.019 31.3963C45.0503 26.9463 46.0354 23.0228 49.4683 19.8327C51.0036 18.406 52.8899 17.5965 54.9225 17.2321C58.5963 16.5736 62.0821 17.098 65.2972 19.2895ZM58.9955 33.8117C62.1921 32.7314 63.1639 28.7437 62.0231 26.0714C61.1719 24.0777 58.9463 22.591 57.2583 22.9229C54.5284 23.4597 52.4447 26.3525 52.8601 29.0183C53.4104 32.5493 55.5326 34.4915 58.9955 33.8117Z" fill="white"/>
<path d="M153.273 20.7202C152.887 22.4455 152.5 24.1708 152.068 26.0964C153.951 26.0964 155.702 26.0964 157.546 26.0964C157.546 28.0517 157.546 29.8287 157.546 31.8433C155.289 31.8433 153.024 31.8433 150.519 31.8444C150.056 31.839 149.832 31.8327 149.528 31.7466C147.486 31.7369 145.524 31.8069 143.563 31.8769C142.328 31.8651 141.092 31.8694 139.858 31.8353C139.123 31.815 138.743 31.9931 138.563 32.8272C138.075 35.0842 137.428 37.308 136.822 39.6284C134.629 39.6284 132.406 39.6284 130.003 39.6284C130.589 37.4041 131.152 35.2709 131.846 33.0291C133.086 32.7564 135.365 32.2929 135.365 32.2929C135.365 32.2929 136.737 32.0018 136.711 32.0172C136.711 32.0172 138.653 31.5945 138.818 31.5225L137.167 31.451C135.457 31.5782 133.703 31.7087 131.948 31.8391C130.827 31.735 129.678 31.7384 128.598 31.4723C128.181 31.3694 127.68 30.6791 127.632 30.215C127.5 28.9321 127.586 27.6274 127.586 26.1408C129.253 26.1408 130.792 26.1182 132.33 26.1502C133.123 26.1667 133.572 26.0044 133.706 25.0872C133.865 23.9987 134.28 22.9462 134.77 21.785C136.716 21.3589 138.474 21.0259 140.335 20.6898C140.836 20.6053 141.234 20.5238 141.638 20.4453C141.645 20.4483 141.657 20.4543 141.652 20.5629C141.206 22.4546 140.765 24.2379 140.312 26.0734C142.022 26.0734 143.567 26.0734 145.103 26.0734C145.541 24.6082 145.959 23.2079 146.484 21.7933C148.42 21.4135 150.25 21.0482 152.199 20.6884C152.637 20.7027 152.955 20.7114 153.273 20.7202Z" fill="white"/>
<path d="M134.622 20.2209C132.934 20.2209 131.246 20.2209 129.472 20.2209C129.472 18.2411 129.472 16.4581 129.472 14.5302C131.696 14.5302 133.882 14.5302 136.192 14.5302C136.699 12.4887 137.147 10.5429 137.689 8.6229C137.791 8.26227 138.259 7.75459 138.577 7.74091C140.498 7.6584 142.424 7.69988 144.673 7.69988C144.14 9.9899 143.645 12.1188 143.098 14.4674C144.612 14.4674 145.974 14.5175 147.327 14.4275C147.617 14.4082 148.02 13.9222 148.118 13.5808C148.671 11.6597 149.147 9.71707 149.654 7.76233C151.913 7.76233 154.105 7.76233 156.441 7.76233C155.886 10.0072 155.354 12.1566 154.787 14.4508C156.6 14.4508 158.325 14.4508 160.162 14.4508C160.162 16.3625 160.162 18.1465 160.162 20.1855C158.014 20.1855 155.831 20.1855 153.437 20.1594C152.817 20.1491 152.408 20.165 151.871 20.168C149.988 20.1752 148.233 20.1952 146.35 20.2012C144.658 20.1873 143.094 20.1875 141.531 20.1877C141.531 20.1877 141.518 20.1817 141.43 20.1429C140.943 20.1245 140.544 20.1448 140.015 20.1546C138.131 20.1697 136.376 20.1953 134.622 20.2209Z" fill="white"/>
<path d="M79.5927 17.1911C79.593 21.8931 79.5843 26.4595 79.5982 31.0259C79.6035 32.727 80.2196 33.7529 81.4127 33.9204C81.97 33.9986 82.5974 33.8803 83.1407 33.6991C83.9276 33.4366 84.2244 33.6353 84.2926 34.4383C84.3567 35.1924 84.5158 35.9426 84.6827 36.6836C85.0818 38.4544 84.8943 38.9292 83.1487 39.2979C80.6295 39.8299 78.1079 40.4212 75.5483 39.2283C73.6456 38.3415 72.7594 36.8088 72.741 34.9502C72.6576 26.5418 72.7096 18.1321 72.7187 9.72289C72.7189 9.55338 72.7899 9.38395 72.8443 9.1416C75.0603 9.1416 77.2358 9.1416 79.5927 9.1416C79.5927 11.8382 79.5927 14.4468 79.5927 17.1911Z" fill="white"/>
<path d="M93.0196 17.4685C93.927 17.4698 93.8934 18.0331 93.8945 18.3152C93.9205 25.219 93.8954 32.123 93.8739 39.027C93.8736 39.1048 93.7987 39.1824 93.7119 39.3506C91.4908 39.3506 89.2263 39.3506 86.8623 39.3506C86.8623 32.0812 86.8623 24.8856 86.8623 17.4653C88.892 17.4653 90.891 17.4653 93.0196 17.4685Z" fill="white"/>
<path d="M152.55 33.8615C152.054 35.7858 151.583 37.7158 151.032 39.6274C150.959 39.8811 150.483 40.2083 150.184 40.2167C148.271 40.2702 146.356 40.244 144.107 40.244C144.679 38.1146 145.207 36.1466 145.932 34.1294C147.708 33.8543 150.393 33.2338 152.016 33.0689C152.016 33.0689 152.938 32.3564 152.55 33.8615Z" fill="white"/>
<path d="M93.9359 10.7222C93.936 12.2443 93.936 13.6364 93.936 15.1596C91.5473 15.1596 89.2545 15.1596 86.8623 15.1596C86.8623 13.1706 86.8623 11.2175 86.8623 9.07129C89.0418 9.07129 91.1736 9.17188 93.3021 9.1381C93.927 9.12819 93.9359 10.7222 93.9359 10.7222Z" fill="white"/>
</g>
<defs>
<clipPath id="clip0_1952_6930">
<rect width="180" height="48" fill="white"/>
</clipPath>
</defs>
</svg>
