<svg width="181" height="48" viewBox="0 0 181 48" fill="none" xmlns="http://www.w3.org/2000/svg">
<g clip-path="url(#clip0_1724_2739)">
<path d="M100.32 24.534C101.636 20.7175 103.914 17.9456 107.508 16.2915C111.315 14.5393 116.964 15.2032 119.709 18.3813L120.891 19.3458C120.891 14.4576 120.891 9.88793 120.891 5.18555C123.988 5.18555 126.869 5.18555 129.937 5.18555C129.971 5.89809 130.031 6.57599 130.031 7.25394C130.038 16.1868 130.041 25.1196 130.029 34.0525C130.028 35.1297 129.969 36.173 131.219 36.6899C131.444 36.7829 131.711 37.1194 131.715 37.348C131.755 39.5058 131.793 41.6672 131.685 43.8203C131.67 44.124 130.883 44.5941 130.424 44.6319C129.09 44.7417 127.739 44.726 126.4 44.6581C124.344 44.5539 123.21 43.4557 122.506 41.1929C120.497 42.2743 118.561 43.702 116.391 44.4138C109.014 46.8332 101.37 41.6402 99.8573 33.6132C99.2838 30.5703 99.6056 27.6245 100.32 24.534ZM110.153 25.5C108.506 27.4112 108.661 29.7287 109.006 32.0617C109.369 34.5163 111.552 36.684 114.228 37.2583C116.319 37.707 118.883 36.4654 120.308 34.7336C121.688 33.0566 121.2 31.2032 121.245 29.4003C121.306 26.9376 119.286 24.2966 116.783 23.3418C114.459 22.4552 112.357 22.996 110.153 25.5Z" fill="white"/>
<path d="M8.75495 43.6033C6.48153 42.681 4.35251 41.7746 2.21366 40.892C1.13173 40.4455 0.870078 39.8339 1.46411 38.7385C2.62206 36.6033 3.51408 34.7612 4.65332 32.5C6.33938 33.3628 8.00036 34.0415 9.66523 34.5725C12.3402 35.4257 15.1173 35.9626 17.8604 36.5934C18.5295 36.7473 19.7869 36.6385 20.1533 36.5C21.1533 36 21.8657 35.7594 22.0068 33.9683C22.1493 32.1605 20.6862 31.5313 19.4613 31.0671C16.2782 29.861 12.9787 28.965 9.78103 27.7939C6.37851 26.5477 3.37355 24.5415 2.82837 20.7184C1.79064 13.4412 4.8901 8.04351 12.3268 6.17453C17.3909 4.90184 22.3496 5.9087 27.0936 7.9409C28.316 8.46454 29.4714 9.14481 30.8534 9.85357C29.5662 12.3595 28.3099 14.8054 27.0642 17.2306C24.5712 16.2282 22.3501 15.1267 20.0051 14.4643C18.4588 14.0276 15.8955 14.0506 14.9101 14.0914C13.4363 14.1524 12.2595 14.8374 12.1903 16.6293C12.1198 18.4538 13.3243 19.2586 14.7314 19.7303C18.1291 20.8694 21.598 21.7975 24.987 22.9599C27.7241 23.8989 29.9995 25.6396 31.0164 28.3882C33.2986 34.5572 31.5488 41.8457 23.6717 43.9632C18.7426 45.2882 13.7931 44.9773 8.75495 43.6033Z" fill="white"/>
<path d="M59.2531 18.2806C63.3941 21.815 65.2374 26.2159 64.7864 31.4912C64.1617 38.7988 59.9045 43.3015 52.8663 44.6719C47.7353 45.6709 43.0866 44.6364 39.0247 41.251C36.7117 39.3233 35.3599 36.813 34.7418 33.9272C33.5102 28.1762 34.7626 23.1055 39.1274 18.9826C41.0794 17.1388 43.4777 16.0926 46.0621 15.6217C50.7332 14.7706 55.1652 15.4484 59.2531 18.2806ZM51.2408 37.0489C55.3051 35.6527 56.1039 30.9536 54.6533 27.5C53.5711 24.9234 51.5228 22.5451 48.1533 23C44.2746 23.5236 43.1251 27.5548 43.6533 31C44.353 35.5633 46.8378 37.9274 51.2408 37.0489Z" fill="white"/>
<path d="M171.11 20.1297C170.618 22.3594 170.127 24.5892 169.578 27.0778C171.971 27.0778 174.198 27.0778 176.543 27.0778C176.543 29.6048 176.543 31.9013 176.543 34.505C173.673 34.505 170.793 34.505 167.609 34.5063C167.019 34.4994 166.734 34.4912 166.348 34.38C163.752 34.3674 161.258 34.4579 158.764 34.5483C157.193 34.5331 155.622 34.5387 154.053 34.4946C153.119 34.4684 152.635 34.6986 152.406 35.7765C151.786 38.6935 150.963 41.5675 150.193 44.5663C147.405 44.5663 144.578 44.5663 141.523 44.5663C142.268 41.6916 142.983 38.9347 143.866 36.0374C145.443 35.6851 148.341 35.086 148.341 35.086C148.341 35.086 150.085 34.7098 150.052 34.7296C150.052 34.7296 152.521 34.1834 152.731 34.0903L150.631 33.998C148.457 34.1623 146.227 34.3309 143.996 34.4996C142.571 34.3649 141.11 34.3694 139.737 34.0255C139.206 33.8925 138.569 33.0004 138.509 32.4006C138.34 30.7426 138.45 29.0565 138.45 27.1352C140.569 27.1352 142.526 27.106 144.482 27.1473C145.49 27.1686 146.061 26.9589 146.231 25.7735C146.433 24.3667 146.961 23.0065 147.585 21.5059C150.058 20.9551 152.294 20.5247 154.66 20.0904C155.297 19.9812 155.803 19.8759 156.317 19.7744C156.325 19.7783 156.341 19.7861 156.334 19.9263C155.766 22.3712 155.207 24.6758 154.631 27.048C156.804 27.048 158.769 27.048 160.722 27.048C161.279 25.1544 161.811 23.3448 162.478 21.5165C164.939 21.0257 167.266 20.5535 169.744 20.0885C170.301 20.107 170.705 20.1184 171.11 20.1297Z" fill="white"/>
<path d="M147.398 19.4842C145.251 19.4842 143.105 19.4842 140.85 19.4842C140.85 16.9256 140.85 14.6212 140.85 12.1297C143.678 12.1297 146.457 12.1297 149.395 12.1297C150.039 9.49123 150.608 6.9765 151.297 4.49519C151.427 4.02911 152.023 3.373 152.427 3.35532C154.869 3.24868 157.317 3.30229 160.178 3.30229C159.5 6.26187 158.87 9.01322 158.175 12.0485C160.1 12.0485 161.832 12.1133 163.552 11.9969C163.921 11.972 164.433 11.3438 164.558 10.9027C165.261 8.41987 165.865 5.90927 166.51 3.383C169.383 3.383 172.17 3.383 175.14 3.383C174.434 6.28423 173.758 9.0621 173.036 12.027C175.342 12.027 177.536 12.027 179.871 12.027C179.871 14.4977 179.871 16.8032 179.871 19.4385C177.14 19.4385 174.364 19.4385 171.32 19.4047C170.532 19.3914 170.013 19.4119 169.329 19.4158C166.935 19.4251 164.703 19.4511 162.309 19.4587C160.158 19.4408 158.17 19.4411 156.182 19.4414C156.182 19.4414 156.166 19.4336 156.055 19.3835C155.435 19.3596 154.927 19.3859 154.255 19.3986C151.86 19.418 149.629 19.4511 147.398 19.4842Z" fill="white"/>
<path d="M77.4311 15.5693C77.4315 21.6461 77.4204 27.5476 77.4381 33.4491C77.4447 35.6476 78.2282 36.9735 79.7451 37.1898C80.4537 37.2909 81.2514 37.1381 81.9421 36.9039C82.9426 36.5647 83.32 36.8214 83.4068 37.8593C83.4882 38.8338 83.6905 39.8033 83.9028 40.761C84.4101 43.0495 84.1718 43.6631 81.9524 44.1396C78.7493 44.8273 75.5432 45.5913 72.2889 44.0497C69.8696 42.9036 68.7429 40.9228 68.7194 38.5208C68.6134 27.6539 68.6796 16.7854 68.6911 5.9175C68.6914 5.69844 68.7817 5.47947 68.8508 5.16626C71.6684 5.16626 74.4343 5.16626 77.4311 5.16626C77.4311 8.65124 77.4311 12.0226 77.4311 15.5693Z" fill="white"/>
<path d="M94.5025 15.9269C95.7448 15.9288 95.6135 16.6566 95.6149 17.0211C95.6479 25.9435 95.6161 34.8662 95.5887 43.7887C95.5884 43.8893 95.4931 43.9895 95.3827 44.207C92.5587 44.207 89.6795 44.207 86.6738 44.207C86.6738 34.8121 86.6738 25.5127 86.6738 15.9229C89.2545 15.9229 91.796 15.9229 94.5025 15.9269Z" fill="white"/>
<path d="M166.932 36.5831C166.327 38.9682 165.753 41.3605 165.08 43.7298C164.991 44.0442 164.411 44.4499 164.046 44.4602C161.714 44.5265 159.379 44.494 156.637 44.494C157.334 41.8547 157.978 39.4154 158.862 36.9152C161.027 36.5742 164.301 35.8051 166.28 35.6007C166.28 35.6007 167.405 34.7176 166.932 36.5831Z" fill="white"/>
<path d="M95.6676 7.20841C95.6677 9.17551 95.6677 10.9746 95.6677 12.9431C92.6306 12.9431 89.7154 12.9431 86.6738 12.9431C86.6738 10.3726 86.6738 7.84846 86.6738 5.07477C89.4449 5.07477 92.1591 5.01305 94.8617 5.16112C95.7946 5.16112 95.6676 7.20841 95.6676 7.20841Z" fill="white"/>
</g>
<defs>
<clipPath id="clip0_1724_2739">
<rect width="180" height="48" fill="white" transform="translate(0.423828)"/>
</clipPath>
</defs>
</svg>
