<svg width="103" height="25" viewBox="0 0 103 25" fill="none" xmlns="http://www.w3.org/2000/svg">
<g clip-path="url(#clip0_1163_9971)">
<path d="M57.2121 12.7429C57.9702 10.5436 59.2831 8.94615 61.3543 7.99291C63.5482 6.9832 66.8035 7.36577 68.3852 9.19726C68.5285 9.36315 68.7281 9.48035 69.0665 9.75306C69.0665 6.9361 69.0665 4.30267 69.0665 1.59277C70.8513 1.59277 72.5119 1.59277 74.2796 1.59277C74.2992 2.0034 74.3338 2.39406 74.3341 2.78475C74.3378 7.93258 74.3397 13.0804 74.3328 18.2283C74.3319 18.8491 74.2983 19.4503 75.0185 19.7482C75.1482 19.8018 75.3019 19.9957 75.3044 20.1274C75.3273 21.3709 75.3494 22.6165 75.2872 23.8573C75.2785 24.0323 74.825 24.3032 74.5605 24.325C73.7918 24.3882 73.013 24.3792 72.2411 24.3401C71.0564 24.28 70.4031 23.6472 69.9972 22.3432C68.8393 22.9663 67.7239 23.7891 66.4732 24.1993C62.2223 25.5936 57.8172 22.6009 56.9453 17.9751C56.6148 16.2215 56.8002 14.5239 57.2121 12.7429ZM63.0117 13.3405C62.0623 14.4419 62.0184 15.7365 62.2173 17.081C62.4266 18.4955 63.6847 19.7447 65.2272 20.0757C66.4321 20.3343 67.9097 19.6188 68.7309 18.6208C69.5261 17.6543 69.2449 16.5863 69.2707 15.5473C69.306 14.1281 68.1416 12.6061 66.6993 12.0559C65.3599 11.5449 64.2819 11.8975 63.0117 13.3405Z" fill="white"/>
<path d="M4.44417 23.732C3.13403 23.2005 1.90711 22.6782 0.674533 22.1695C0.0510323 21.9123 -0.0997511 21.5598 0.242578 20.9285C0.909884 19.698 1.51371 18.4331 2.17023 17.13C3.14188 17.6272 4.00931 18.2217 4.96875 18.5277C6.51025 19.0194 8.11067 19.3288 9.69146 19.6923C9.90885 19.7423 10.1754 19.7114 10.3866 19.6316C11.1205 19.3541 11.9997 19.2117 12.081 18.1796C12.1631 17.1378 11.3199 16.7751 10.614 16.5077C8.77969 15.8126 6.87823 15.2962 5.03548 14.6213C3.07467 13.9032 1.34296 12.7471 1.02878 10.5439C0.430755 6.35016 2.21692 3.23957 6.50256 2.16251C9.42089 1.42908 12.2785 2.00932 15.0124 3.18043C15.7169 3.4822 16.3827 3.87423 17.1791 4.28267C16.4373 5.72679 15.7133 7.13632 14.9955 8.53391C13.5588 7.95626 12.2788 7.3215 10.9274 6.93978C9.99978 6.67775 8.96938 6.68434 7.99129 6.72484C7.14197 6.76 6.46378 7.15475 6.4239 8.18741C6.3833 9.23884 7.0774 9.7026 7.88831 9.97446C9.8463 10.6309 11.8454 11.1657 13.7984 11.8356C15.3758 12.3767 16.687 13.3799 17.273 14.9639C18.5883 18.5189 17.5798 22.7192 13.0404 23.9394C10.1999 24.703 7.34756 24.5238 4.44417 23.732Z" fill="white"/>
<path d="M33.5462 9.13905C35.9326 11.1759 36.9949 13.712 36.735 16.7521C36.3749 20.9633 33.9216 23.5582 29.8656 24.3479C26.9087 24.9236 24.2297 24.3274 21.8889 22.3765C20.556 21.2656 19.7769 19.819 19.4208 18.1559C18.711 14.8417 19.4327 11.9195 21.9481 9.54362C23.073 8.48108 24.4551 7.87815 25.9445 7.60678C28.6363 7.11631 31.1904 7.50689 33.5462 9.13905ZM28.9288 19.9549C31.271 19.1503 31.9831 16.1803 31.1471 14.1901C30.5235 12.7052 28.8928 11.5979 27.656 11.8451C25.6557 12.2449 24.1289 14.3994 24.4333 16.3849C24.8365 19.0146 26.3915 20.4612 28.9288 19.9549Z" fill="white"/>
<path d="M98.0076 10.2047C97.7242 11.4897 97.4408 12.7747 97.1245 14.2088C98.5038 14.2088 99.7872 14.2088 101.138 14.2088C101.138 15.6651 101.138 16.9885 101.138 18.489C99.4847 18.489 97.8249 18.489 95.9898 18.4897C95.6502 18.4857 95.486 18.481 95.263 18.4169C93.767 18.4097 92.3298 18.4618 90.8926 18.5139C89.9876 18.5051 89.0822 18.5084 88.1776 18.483C87.6397 18.4679 87.361 18.6005 87.2289 19.2217C86.8713 20.9027 86.3973 22.5589 85.9536 24.2871C84.3469 24.2871 82.7178 24.2871 80.9569 24.2871C81.3866 22.6305 81.7987 21.0417 82.3075 19.3721C83.2162 19.169 84.8862 18.8238 84.8862 18.8238C84.8862 18.8238 85.891 18.607 85.8723 18.6184C85.8723 18.6184 87.2949 18.3036 87.416 18.25L86.2061 18.1968C84.9533 18.2915 83.6678 18.3887 82.3822 18.4858C81.5608 18.4082 80.7192 18.4108 79.9279 18.2126C79.622 18.136 79.255 17.6219 79.2199 17.2762C79.123 16.3208 79.1864 15.3491 79.1864 14.2419C80.4072 14.2419 81.5353 14.225 82.6624 14.2488C83.2433 14.2611 83.5725 14.1403 83.6705 13.4572C83.7867 12.6464 84.0906 11.8626 84.4503 10.9978C85.8757 10.6804 87.164 10.4324 88.5276 10.1821C88.8946 10.1192 89.1862 10.0585 89.4825 10C89.4872 10.0022 89.4965 10.0067 89.4922 10.0875C89.1653 11.4965 88.8428 12.8246 88.5108 14.1916C89.7632 14.1916 90.8955 14.1916 92.0213 14.1916C92.3421 13.1004 92.6486 12.0575 93.0328 11.0039C94.4513 10.7211 95.7922 10.449 97.2204 10.181C97.5411 10.1917 97.7743 10.1982 98.0076 10.2047Z" fill="white"/>
<path d="M84.3418 9.83259C83.1051 9.83259 81.8683 9.83259 80.5684 9.83259C80.5684 8.35815 80.5684 7.03017 80.5684 5.59436C82.1983 5.59436 83.7998 5.59436 85.4928 5.59436C85.8638 4.07385 86.1919 2.62466 86.5892 1.19472C86.6638 0.926129 87.0071 0.548022 87.2403 0.537837C88.6473 0.476383 90.0584 0.507277 91.7068 0.507277C91.3163 2.21283 90.9533 3.79838 90.5527 5.54757C91.6618 5.54757 92.6602 5.5849 93.6515 5.51781C93.8638 5.50345 94.159 5.14147 94.231 4.88724C94.636 3.45644 94.9846 2.00963 95.3561 0.553788C97.0115 0.553788 98.6177 0.553788 100.329 0.553788C99.9225 2.22571 99.5329 3.82655 99.117 5.53518C100.446 5.53518 101.71 5.53518 103.056 5.53518C103.056 6.95901 103.056 8.28763 103.056 9.80629C101.482 9.80629 99.8823 9.80629 98.1281 9.7868C97.674 9.77913 97.3744 9.79096 96.9807 9.79321C95.6007 9.79858 94.3149 9.81352 92.9353 9.81793C91.6957 9.80758 90.5499 9.80775 89.4041 9.80792C89.4041 9.80792 89.3948 9.80343 89.3307 9.77456C88.9739 9.76082 88.6811 9.77595 88.2937 9.78326C86.9133 9.79449 85.6276 9.81354 84.3418 9.83259Z" fill="white"/>
<path d="M44.0213 7.57635C44.0215 11.0783 44.0152 14.4793 44.0254 17.8802C44.0292 19.1471 44.4807 19.9112 45.3549 20.0359C45.7632 20.0942 46.2229 20.0061 46.621 19.8711C47.1975 19.6756 47.415 19.8236 47.465 20.4217C47.5119 20.9833 47.6285 21.542 47.7509 22.0939C48.0432 23.4127 47.9059 23.7664 46.6269 24.0409C44.781 24.4372 42.9334 24.8775 41.058 23.9891C39.6638 23.3287 39.0145 22.1871 39.001 20.8029C38.9399 14.5405 38.978 8.27721 38.9847 2.01423C38.9848 1.88798 39.0368 1.7618 39.0767 1.5813C40.7004 1.5813 42.2944 1.5813 44.0213 1.5813C44.0213 3.58963 44.0213 5.53246 44.0213 7.57635Z" fill="white"/>
<path d="M53.8592 7.78273C54.1443 7.99446 54.4994 8.20323 54.5002 8.41332C54.5193 13.5551 54.5009 18.6971 54.4851 23.839C54.485 23.8969 54.43 23.9547 54.3664 24.08C52.739 24.08 51.0798 24.08 49.3477 24.08C49.3477 18.6659 49.3477 13.3068 49.3477 7.7804C50.8349 7.7804 52.2995 7.7804 53.8592 7.78273Z" fill="white"/>
<path d="M95.5991 19.6865C95.2504 21.061 94.9194 22.4396 94.5319 23.805C94.4805 23.9862 94.1462 24.22 93.9359 24.2259C92.5922 24.2641 91.2464 24.2454 89.666 24.2454C90.0676 22.7244 90.4387 21.3187 90.9483 19.8779C92.1961 19.6814 94.0828 19.2382 95.2232 19.1204C95.2232 19.1204 95.8718 18.6114 95.5991 19.6865Z" fill="white"/>
<path d="M54.5306 2.75841C54.5307 3.89202 54.5307 4.92882 54.5307 6.06323C52.7804 6.06323 51.1004 6.06323 49.3477 6.06323C49.3477 4.58188 49.3477 3.12727 49.3477 1.52883C50.9446 1.52883 52.5087 1.49327 54.0662 1.5786C54.2402 1.58813 54.3767 2.28402 54.5306 2.75841Z" fill="white"/>
</g>
<defs>
<clipPath id="clip0_1163_9971">
<rect width="102.316" height="24" fill="white" transform="translate(0.418945 0.25)"/>
</clipPath>
</defs>
</svg>
