<svg width="181" height="48" viewBox="0 0 181 48" fill="none" xmlns="http://www.w3.org/2000/svg">
<g clip-path="url(#clip0_1724_2762)">
<path d="M15.7358 9.33974C17.0437 10.2516 18.2515 11.4235 18.8804 12.9105C19.0572 13.443 18.8804 13.5952 18.8804 13.5952C18.5912 13.7491 18.301 13.9008 18.0102 14.0517C17.8487 14.1365 17.6872 14.2212 17.5208 14.3085C17.2203 14.3972 16.8935 14.3483 16.659 14.1406C16.4566 13.9612 16.2152 13.7168 16.0403 13.443C16.0403 13.443 15.8604 13.279 15.7358 13.088C15.7358 13.088 15.6789 13.0456 15.5435 12.8613C15.1493 12.3249 14.6833 11.8375 14.0873 11.541C13.9275 11.4604 13.7678 11.3798 13.6032 11.2967C11.6271 10.397 9.62501 10.271 7.56809 11.0132C7.05226 11.2485 6.65177 11.5113 6.31645 11.8393C5.56518 12.5741 5.29563 13.6833 5.35604 14.7324C5.42217 15.8807 6.11558 16.8963 7.11311 17.4689C8.68246 18.3698 10.5701 18.7098 12.3251 19.1252C14.8421 19.7563 17.1972 20.694 18.6522 22.9532C19.4542 24.5429 19.6071 26.2236 19.1711 27.9443C18.469 30.0506 17.4476 31.3049 15.4568 32.3112C13.9092 32.9089 12.4578 33.1152 10.8063 33.0958C10.5969 33.0939 10.3874 33.092 10.1717 33.09C7.53456 33.0246 5.33658 32.281 3.35986 30.4852C2.33445 29.3019 1.60741 28.1474 1.30566 26.6051C2.13419 26.2285 2.96271 25.8519 3.81634 25.4639C4.00935 25.8499 4.20236 26.2359 4.40122 26.6336C5.0466 27.8083 5.65823 28.6165 6.78351 29.344C6.99226 29.4848 6.99226 29.4848 7.20522 29.6284C9.02946 30.6442 11.4447 30.5385 13.4356 30.0983C14.6892 29.651 15.4108 29.0824 16.1415 27.9746C16.5521 26.7427 16.5283 25.6692 15.9988 24.4939C14.958 22.6625 13.0227 22.3384 11.1201 21.812C10.7782 21.7213 10.4361 21.631 10.0939 21.541C6.70772 20.9851 4.69367 20.1118 3.13161 17.7036C2.24122 15.9133 2.20578 14.1973 2.80351 12.3114C3.5854 10.3607 4.84911 9.44533 6.70772 8.56139C9.47065 7.44141 13.2351 7.81472 15.7358 9.33974Z" fill="white"/>
<path d="M122.939 8.57373C123.768 8.57373 124.596 8.57373 125.45 8.57373C125.45 16.4824 125.45 24.391 125.45 32.5393C124.622 32.5393 123.793 32.5393 122.939 32.5393C122.826 31.6355 122.826 31.6355 122.711 30.7134C122.598 30.8207 122.485 30.9281 122.368 31.0388C120.498 32.7528 119.243 33.1344 116.699 33.0742C114.781 32.8941 113.224 31.9525 111.984 30.4851C110.7 28.356 110.341 26.7348 110.329 24.294C110.324 24.0669 110.32 23.8397 110.315 23.6057C110.301 20.9565 110.982 18.7819 112.828 16.8386C114.51 15.3041 116.15 15.0243 118.383 15.0974C120.334 15.3032 121.345 16.1092 122.711 17.4752C122.786 14.5377 122.862 11.6002 122.939 8.57373ZM114.181 18.9588C112.773 21.0702 112.624 23.7458 113.012 26.1886C113.359 27.7813 113.794 29.0766 115.106 30.0991C116.416 30.8844 117.802 30.9036 119.287 30.7134C120.718 30.3521 121.423 29.5324 122.203 28.3195C123.282 26.1092 123.294 23.127 122.697 20.7562C122.16 19.296 121.213 18.2613 119.887 17.4752C117.747 16.885 115.671 17.1927 114.181 18.9588Z" fill="white"/>
<path d="M34.3567 15.9668C36.3177 17.4602 37.3214 19.4587 37.734 21.8601C38.1008 25.0927 37.7891 28.3021 35.7521 30.9417C34.5717 32.2495 33.2806 32.9 31.5313 33.0761C29.6505 33.148 28.1631 32.9892 26.6223 31.8547C26.2457 31.4781 25.8691 31.1015 25.4811 30.7134C25.4058 33.5756 25.3305 36.4378 25.2529 39.3867C24.4243 39.3867 23.5958 39.3867 22.7422 39.3867C22.7422 31.5534 22.7422 23.7201 22.7422 15.6494C23.4954 15.6494 24.2486 15.6494 25.0246 15.6494C25.0999 16.4026 25.1753 17.1558 25.2529 17.9318C25.4741 17.6494 25.6954 17.3669 25.9233 17.0759C28.002 14.7498 31.6719 14.3604 34.3567 15.9668ZM26.0464 19.4564C24.7339 21.5189 24.7631 24.2248 25.1815 26.5623C25.5836 28.1026 26.4216 29.3847 27.7635 30.257C28.923 30.806 30.1945 30.9232 31.436 30.7091C32.0932 30.5957 32.7041 30.2855 33.1864 29.8249C34.3241 28.7383 34.8978 27.4679 35.2243 25.8062C35.4503 23.275 35.2994 20.7044 33.6979 18.6165C32.479 17.4742 31.2997 17.1562 29.6733 17.1856C28.1186 17.3626 27.0072 18.2675 26.0464 19.4564Z" fill="white"/>
<path d="M155.363 15.0787C155.554 15.0745 155.746 15.0703 155.943 15.0659C156.747 15.0739 157.455 15.1995 158.13 15.4239C159.677 15.9384 161.065 17.0368 161.621 18.5691C161.873 19.2626 161.998 20.0061 162.011 20.7796C162.015 20.9799 162.019 21.1802 162.023 21.3865C162.026 21.6007 162.029 21.815 162.032 22.0357C162.038 22.3673 162.038 22.3673 162.045 22.7056C162.063 23.6513 162.078 24.597 162.094 25.5427C162.106 26.2329 162.119 26.9232 162.132 27.6134C162.135 27.829 162.138 28.0447 162.141 28.2668C162.145 28.4649 162.149 28.663 162.153 28.8671C162.156 29.0423 162.158 29.2174 162.161 29.3979C162.153 29.8064 163.034 30.1428 163.034 30.1428C163.906 30.4348 164.526 30.4023 164.791 30.3652C164.864 30.355 164.935 30.4113 164.935 30.4852C164.951 30.8319 164.954 31.1794 164.949 31.5265C164.947 31.7151 164.945 31.9037 164.943 32.098C164.94 32.2437 164.938 32.3893 164.935 32.5394C164.35 32.5579 163.765 32.5715 163.18 32.5822C163.016 32.5879 162.851 32.5936 162.681 32.5995C162.432 32.603 162.206 32.6115 161.997 32.6134C160.712 32.625 159.891 31.4661 159.457 30.2569C159.366 30.3781 159.274 30.4994 159.18 30.6243C158.208 31.8315 157.342 32.6509 155.805 32.9958C153.842 33.1887 151.765 33.3022 150.099 32.0829C149.165 31.2081 148.557 30.462 148.447 29.1487C148.406 27.3112 148.512 26.037 149.742 24.6329C152.235 22.2604 156.138 21.5173 159.457 21.5837C159.366 21.1453 159.27 20.7081 159.172 20.2713C159.092 19.9059 159.092 19.9059 159.011 19.533C158.574 18.2745 157.259 17.533 155.932 17.4155C155.023 17.3349 154.092 17.4572 153.223 17.7463C151.944 18.2956 151.209 19.2393 150.556 20.4425C150.179 20.34 149.804 20.2349 149.429 20.1286C149.115 20.0412 149.115 20.0412 148.795 19.9521C148.76 19.9391 148.727 19.927 148.697 19.9156C148.141 19.7065 148.166 18.9772 148.474 18.4692C149.245 17.1963 150.389 16.2439 151.74 15.5638C152.931 15.1277 154.108 15.096 155.363 15.0787ZM151.783 26.0362C151.197 26.6703 151.016 27.1524 151.007 28.0137C151.096 29.4567 152.191 30.6477 153.621 30.8609C154.292 30.9609 154.982 30.9428 155.648 30.799C157.01 30.2912 157.962 29.647 158.772 28.431C159.219 27.3293 159.321 26.3214 159.372 25.15C159.38 24.982 159.389 24.814 159.398 24.6409C159.42 24.2306 159.439 23.8201 159.457 23.4096C156.751 23.3079 153.782 24.1717 151.783 26.0362Z" fill="white"/>
<path d="M51.7208 15.8036C53.0942 16.7385 53.7773 17.938 54.219 19.5295C54.3163 20.3358 54.325 21.1351 54.3278 21.9466C54.3314 22.1714 54.3349 22.3963 54.3386 22.6279C54.3494 23.3402 54.3557 24.0525 54.3617 24.7649C54.37 25.4829 54.3793 26.2009 54.3897 26.9189C54.3959 27.3644 54.4008 27.8099 54.4042 28.2555C54.4065 28.4552 54.4089 28.6549 54.4113 28.8607C54.4128 29.0371 54.4142 29.2136 54.4158 29.3954C54.4036 29.8062 54.4036 29.8062 54.6755 30.0287C55.0549 30.0761 55.4356 30.1125 55.8167 30.1428C56.9326 30.2316 56.9326 30.2316 57.1862 30.4852C57.2026 30.832 57.2053 31.1794 57.2005 31.5266C57.1984 31.7152 57.1963 31.9038 57.1942 32.0981C57.1916 32.2437 57.1889 32.3893 57.1862 32.5394C56.6011 32.5641 56.017 32.5822 55.4316 32.5965C55.267 32.6041 55.1023 32.6118 54.9327 32.6196C54.0496 32.6358 53.6325 32.601 52.8638 32.1186C52.3628 31.5948 52.1471 31.174 51.9366 30.4852C51.8398 30.5735 51.743 30.6617 51.6433 30.7527C49.532 32.6273 47.6534 33.2013 44.855 33.0466C43.6088 32.9063 42.5988 32.3513 41.7387 31.4552C40.799 30.2235 40.6056 29.0388 40.7527 27.518C41.0696 26.0175 41.8779 24.8554 43.0351 23.8661C44.6694 22.8333 46.4048 22.2236 48.2847 21.812C48.6378 21.7343 48.6378 21.7343 48.998 21.655C49.9027 21.5567 50.7992 21.5655 51.7083 21.5837C51.6478 20.2206 51.5333 19.2006 50.5671 18.1601C49.1661 17.3058 47.5322 17.2641 45.9559 17.5743C44.7202 17.954 43.9668 18.6867 43.2633 19.7578C43.188 19.9837 43.1127 20.2097 43.0351 20.4425C42.7021 20.3719 42.3693 20.3004 42.0365 20.2285C41.7585 20.1689 41.7585 20.1689 41.4748 20.1082C40.9809 19.986 40.9809 19.986 40.5244 19.7578C40.6016 18.5221 41.3048 17.6646 42.1221 16.7906C44.5719 14.8169 48.8785 14.3924 51.7208 15.8036ZM43.9053 26.12C43.3639 27.0534 43.2633 27.5759 43.2633 28.6593C43.5369 29.4648 43.7877 29.8919 44.4331 30.4424C45.9949 31.0875 47.3313 31.0195 48.9177 30.4718C50.284 29.8941 50.841 29.0246 51.4801 27.7463C51.7853 26.8721 51.7338 25.9784 51.7226 25.0644C51.7216 24.9053 51.7206 24.7461 51.7195 24.5821C51.7168 24.1913 51.7127 23.8005 51.7083 23.4097C49.0744 23.321 45.7767 24.1577 43.9053 26.12Z" fill="white"/>
<path d="M73.71 8.91772C74.5385 8.91772 75.367 8.91772 76.2206 8.91772C76.2206 14.0395 76.2206 19.1613 76.2206 24.4383C77.5995 23.2394 77.5995 23.2394 78.9435 22.0078C79.0908 21.869 79.2381 21.7301 79.3898 21.587C79.5397 21.4452 79.6896 21.3034 79.844 21.1573C82.3185 18.8275 82.3185 18.8275 83.5084 17.7907C83.9812 17.3794 83.9812 17.3794 84.3536 16.9348C85.0329 16.1974 85.4139 16.0092 86.4381 15.9104C87.2963 15.8943 88.1463 15.9338 89.0023 15.9933C88.0496 16.9589 87.0677 17.8904 86.0779 18.8178C85.9242 18.9625 85.7704 19.1073 85.6121 19.2564C84.6861 20.1248 83.7456 20.972 82.7838 21.8007C82.4071 22.1347 82.0503 22.4807 81.6985 22.8406C81.9897 23.4687 82.3021 23.9693 82.7604 24.4873C82.8799 24.6236 82.9994 24.7599 83.1226 24.9003C83.2505 25.0444 83.3784 25.1885 83.5102 25.337C83.7799 25.6445 84.0494 25.9521 84.3188 26.2598C84.454 26.4138 84.5891 26.5677 84.7284 26.7264C89.687 32.4036 89.7998 32.5729 89.7998 33.0526C87.0283 33.4902 85.8842 32.6289 85.8842 32.6289C85.1571 31.9379 84.5849 31.1289 84.0204 30.3034C83.6492 29.7665 83.2388 29.2654 82.8254 28.7606C82.6839 28.5821 82.5424 28.4035 82.3966 28.2195C81.4963 27.0971 80.5687 25.9972 79.6443 24.8948C78.9239 25.2114 78.4577 25.5804 77.9182 26.1501C77.8014 26.2729 77.6993 26.3843 77.6033 26.4882C77.0278 27.1109 76.3327 27.8003 76.3321 28.6483C76.324 28.894 76.3159 29.1397 76.3076 29.3928C76.2998 29.7789 76.2998 29.7789 76.292 30.1729C76.2842 30.4321 76.2764 30.6913 76.2683 30.9584C76.2495 31.5999 76.2824 32.4109 76.2683 33.0526C75.4398 33.0526 74.5636 33.0526 73.71 33.0526C73.71 25.1439 73.71 17.066 73.71 8.91772Z" fill="white"/>
<path d="M141.925 16.105C142.947 16.8399 143.654 17.7242 144.167 18.7453C144.904 20.215 144.996 21.9044 144.996 23.5488C144.996 23.8626 144.996 24.1783 144.996 24.4966C140.929 24.4966 136.862 24.4966 132.671 24.4966C132.934 26.6429 133.01 27.2664 133.96 28.4051C134.994 29.6456 136.444 30.5841 138.059 30.5633C138.76 30.5543 139.456 30.4509 140.086 30.2481C141.589 29.5329 142.092 28.5273 142.714 27.2355L145.109 28.0244C144.879 29.507 144.047 30.5603 142.907 31.5364C141.086 33.0964 138.572 33.2113 135.866 32.9416C134.55 32.8103 132.563 31.4944 131.487 29.8317C129.882 26.9582 129.653 23.5197 130.531 20.3596C131.303 18.2033 132.669 16.6352 134.682 15.5237C137.022 14.5632 139.778 14.8482 141.925 16.105ZM137.247 17.1145C134.751 17.4626 132.899 19.9222 132.899 22.4424C136.063 22.4424 139.226 22.4424 142.486 22.4424C142.285 20.6406 142.13 19.2562 140.76 18.0103C139.616 17.2199 138.405 16.9531 137.247 17.1145Z" fill="white"/>
<path d="M177.09 15.833C177.222 15.9231 177.354 16.0131 177.49 16.1059C177.62 16.1912 177.75 16.2765 177.883 16.3644C178.629 16.918 179.082 17.5306 179.487 18.2803C179.684 18.6469 179.802 19.0602 179.802 19.4767C178.673 19.8156 178.643 19.8685 177.49 20.2142C177.292 19.8894 177.095 19.5646 176.891 19.2299C176.864 19.1912 176.839 19.1531 176.813 19.1156C175.8 17.6338 173.852 17.149 172.085 17.4622C171.499 17.5661 170.937 17.7753 170.414 18.1601C170.397 18.1766 170.381 18.1929 170.364 18.209C169.541 19.0216 169.497 20.4178 170.297 21.2528C170.49 21.4536 170.768 21.6496 171.025 21.7557C171.836 22.0904 172.697 22.2685 173.555 22.4646C175.285 22.8615 176.93 23.283 178.361 24.243C179.131 24.759 179.73 25.5108 180.022 26.3901C180.308 27.2516 180.379 28.1329 180.229 29.1157C179.757 30.5914 179.114 31.5663 177.755 32.3254C175.466 33.3188 172.549 33.42 170.158 32.6535C168.741 32.0245 167.402 31.1037 166.712 29.6819C166.559 29.3675 166.39 28.9473 166.297 28.5524C166.221 28.2274 166.388 27.9026 166.688 27.7575C167.211 27.5052 167.725 27.419 168.317 27.3475C168.612 27.312 168.893 27.4814 169.002 27.757C169.549 29.0022 169.979 29.8317 171.274 30.3452C172.905 30.7928 174.524 30.8823 176.121 30.257C176.829 29.7799 177.184 29.4705 177.37 28.6245C177.431 27.6741 177.402 27.2485 176.812 26.4633C175.923 25.7654 175.126 25.5758 174.038 25.3355C173.648 25.2402 173.258 25.1442 172.869 25.0475C172.588 24.9789 172.588 24.9789 172.302 24.909C171.536 24.717 170.809 24.5005 170.135 24.2131C167.722 23.1848 166.148 20.1534 167.447 17.8748C169.496 15.0079 173.992 14.0995 177.09 15.833Z" fill="white"/>
<path d="M102.628 8.57373C103.532 8.57373 104.436 8.57373 105.367 8.57373C105.367 16.4824 105.367 24.391 105.367 32.5393C104.463 32.5393 103.559 32.5393 102.628 32.5393C102.628 24.6307 102.628 16.722 102.628 8.57373Z" fill="white"/>
<path d="M68.8764 15.3926C69.0456 15.3917 69.2148 15.3908 69.3891 15.3899C70.6449 15.3922 70.6449 15.3922 70.9021 15.6493C70.9186 16.0722 70.9212 16.4957 70.9164 16.9189C70.9143 17.1499 70.9122 17.3809 70.9101 17.6188C70.9075 17.7974 70.9048 17.976 70.9021 18.16C70.6432 18.1494 70.3843 18.1388 70.1175 18.1279C69.7937 18.1066 69.5095 18.0879 69.256 18.0736C66.4505 17.915 63.9376 20.168 63.6088 22.9587C63.5374 23.5642 63.512 24.1929 63.5038 24.8495C63.4994 25.0702 63.4949 25.2908 63.4904 25.5181C63.4768 26.218 63.4662 26.9179 63.4556 27.6179C63.4469 28.0944 63.438 28.571 63.4289 29.0475C63.4071 30.2114 63.3879 31.3754 63.3701 32.5394C62.5415 32.5394 61.713 32.5394 60.8594 32.5394C60.8594 26.9657 60.8594 21.3919 60.8594 15.6493C61.6126 15.6493 62.3658 15.6493 63.1418 15.6493C63.2171 16.5532 63.2925 17.457 63.3701 18.3883C63.6054 18.1058 63.8408 17.8234 64.0833 17.5324C65.5044 15.907 66.7071 15.3811 68.8764 15.3926Z" fill="white"/>
</g>
<defs>
<clipPath id="clip0_1724_2762">
<rect width="180" height="48" fill="white" transform="translate(0.729492)"/>
</clipPath>
</defs>
</svg>
