<svg width="360" height="48" viewBox="0 0 360 48" fill="none" xmlns="http://www.w3.org/2000/svg">
<path d="M24.5559 8.32529C25.7701 9.17177 26.8913 10.2597 27.4751 11.6401C27.6392 12.1344 27.4751 12.2757 27.4751 12.2757C27.2067 12.4186 26.9372 12.5595 26.6673 12.6995C26.5174 12.7782 26.3674 12.8568 26.2129 12.9379C25.934 13.0202 25.6306 12.9749 25.413 12.782C25.225 12.6155 25.001 12.3886 24.8386 12.1344C24.8386 12.1344 24.6716 11.9821 24.5559 11.8049C24.5559 11.8049 24.5031 11.7655 24.3774 11.5945C24.0115 11.0965 23.5789 10.644 23.0256 10.3688C22.8773 10.294 22.729 10.2191 22.5762 10.142C20.7418 9.3068 18.8832 9.18984 16.9737 9.87882C16.4948 10.0973 16.123 10.3412 15.8118 10.6457C15.1143 11.3278 14.8641 12.3575 14.9202 13.3314C14.9816 14.3974 15.6253 15.3402 16.5513 15.8717C18.0082 16.708 19.7605 17.0237 21.3897 17.4094C23.7263 17.9952 25.9125 18.8657 27.2632 20.9629C28.0078 22.4387 28.1497 23.9989 27.7449 25.5962C27.0932 27.5516 26.145 28.716 24.2969 29.6501C22.8602 30.205 21.5129 30.3965 19.9798 30.3785C19.7854 30.3767 19.5909 30.375 19.3906 30.3731C16.9426 30.3124 14.9021 29.6221 13.0671 27.9551C12.1152 26.8566 11.4403 25.7848 11.1602 24.3531C11.9293 24.0035 12.6984 23.6539 13.4909 23.2936C13.67 23.652 13.8492 24.0103 14.0338 24.3795C14.6329 25.47 15.2007 26.2202 16.2453 26.8957C16.4391 27.0263 16.4391 27.0263 16.6368 27.1597C18.3303 28.1027 20.5724 28.0045 22.4206 27.5959C23.5843 27.1806 24.2542 26.6528 24.9325 25.6244C25.3137 24.4808 25.2916 23.4842 24.8001 22.3931C23.8339 20.6931 22.0373 20.3922 20.2711 19.9035C19.9536 19.8193 19.6361 19.7355 19.3185 19.6519C16.175 19.1359 14.3053 18.3252 12.8552 16.0896C12.0287 14.4276 11.9958 12.8347 12.5506 11.0839C13.2765 9.2731 14.4496 8.42332 16.175 7.60274C18.7399 6.56304 22.2345 6.90959 24.5559 8.32529Z" fill="white"/>
<path d="M124.074 7.61426C124.844 7.61426 125.613 7.61426 126.405 7.61426C126.405 14.956 126.405 22.2977 126.405 29.8619C125.636 29.8619 124.867 29.8619 124.074 29.8619C123.97 29.0229 123.97 29.0229 123.863 28.1669C123.757 28.2666 123.652 28.3663 123.544 28.469C121.808 30.0601 120.643 30.4144 118.282 30.3585C116.501 30.1913 115.056 29.3172 113.904 27.955C112.712 25.9785 112.379 24.4735 112.368 22.2077C112.364 21.9968 112.359 21.786 112.355 21.5687C112.342 19.1095 112.974 17.0907 114.688 15.2867C116.249 13.8621 117.772 13.6025 119.845 13.6703C121.656 13.8614 122.594 14.6095 123.863 15.8777C123.932 13.1508 124.002 10.4238 124.074 7.61426ZM115.943 17.2549C114.637 19.2149 114.499 21.6987 114.858 23.9665C115.181 25.445 115.584 26.6474 116.803 27.5966C118.018 28.3256 119.305 28.3435 120.684 28.1669C122.013 27.8315 122.667 27.0706 123.391 25.9446C124.393 23.8927 124.404 21.1243 123.849 18.9235C123.351 17.5679 122.472 16.6074 121.241 15.8777C119.254 15.3298 117.327 15.6154 115.943 17.2549Z" fill="white"/>
<path d="M41.8416 14.4771C43.662 15.8634 44.5937 17.7187 44.9768 19.9479C45.3172 22.9489 45.0279 25.9282 43.1369 28.3786C42.0412 29.5926 40.8425 30.1965 39.2187 30.36C37.4727 30.4267 36.0919 30.2793 34.6616 29.2261C34.312 28.8765 33.9624 28.5269 33.6022 28.1667C33.5322 30.8237 33.4623 33.4807 33.3903 36.2182C32.6211 36.2182 31.852 36.2182 31.0596 36.2182C31.0596 28.9464 31.0596 21.6746 31.0596 14.1824C31.7588 14.1824 32.458 14.1824 33.1784 14.1824C33.2483 14.8816 33.3182 15.5808 33.3903 16.3012C33.5957 16.039 33.8011 15.7768 34.0127 15.5067C35.9423 13.3473 39.3492 12.9858 41.8416 14.4771ZM34.1269 17.7165C32.9085 19.6312 32.9356 22.1431 33.3241 24.3131C33.6973 25.7429 34.4753 26.9332 35.721 27.7429C36.7955 28.2517 37.9737 28.361 39.1242 28.1637C39.7384 28.0583 40.3093 27.7684 40.7595 27.3377C41.8128 26.3299 42.3443 25.1517 42.6469 23.6112C42.8567 21.2614 42.7167 18.8751 41.2299 16.9369C40.0984 15.8764 39.0036 15.5813 37.4939 15.6085C36.0506 15.7728 35.0188 16.6128 34.1269 17.7165Z" fill="white"/>
<path d="M154.174 13.6525C154.352 13.6486 154.53 13.6447 154.713 13.6406C155.453 13.648 156.107 13.7629 156.729 13.9684C158.176 14.4459 159.473 15.4735 159.989 16.9065C160.22 17.5464 160.334 18.2318 160.346 18.9448C160.349 19.1307 160.353 19.3166 160.357 19.5081C160.359 19.707 160.362 19.9059 160.365 20.1108C160.371 20.4187 160.371 20.4187 160.377 20.7327C160.394 21.6106 160.408 22.4885 160.423 23.3664C160.434 24.0072 160.446 24.6479 160.458 25.2887C160.461 25.4889 160.464 25.689 160.467 25.8953C160.47 26.0792 160.474 26.2631 160.477 26.4525C160.48 26.6151 160.483 26.7777 160.485 26.9453C160.478 27.3245 161.296 27.6368 161.296 27.6368C162.105 27.9078 162.68 27.8777 162.927 27.8433C162.994 27.8338 163.06 27.8861 163.06 27.9546C163.075 28.2765 163.078 28.5991 163.073 28.9213C163.072 29.0964 163.07 29.2715 163.068 29.4519C163.065 29.5871 163.063 29.7223 163.06 29.8616C162.517 29.8788 161.975 29.8914 161.431 29.9013C161.279 29.9066 161.126 29.9119 160.968 29.9174C160.737 29.9206 160.527 29.9285 160.332 29.9303C159.14 29.941 158.377 28.8652 157.975 27.7427C157.89 27.8553 157.805 27.9678 157.718 28.0837C156.816 29.2044 156.012 29.9651 154.585 30.2853C152.763 30.4644 150.834 30.5697 149.288 29.4378C148.42 28.6257 147.856 27.9331 147.754 26.7139C147.716 25.0082 147.815 23.8253 148.957 22.5218C151.27 20.3194 154.893 19.6295 157.975 19.6912C157.891 19.2843 157.801 18.8783 157.71 18.4729C157.636 18.1336 157.636 18.1336 157.561 17.7875C157.156 16.6192 155.935 15.9309 154.703 15.8217C153.859 15.747 152.995 15.8605 152.188 16.1289C151.001 16.6388 150.318 17.5148 149.712 18.6318C149.362 18.5367 149.014 18.4391 148.665 18.3404C148.374 18.2593 148.374 18.2593 148.077 18.1766C148.047 18.1653 148.018 18.1547 147.992 18.1447C147.472 17.9495 147.494 17.2695 147.782 16.7951C148.497 15.6159 149.558 14.7333 150.811 14.1028C151.916 13.698 153.009 13.6686 154.174 13.6525ZM150.851 23.8245C150.307 24.4132 150.139 24.8607 150.13 25.6603C150.214 26.9999 151.23 28.1055 152.557 28.3034C153.18 28.3963 153.821 28.3795 154.439 28.2459C155.703 27.7746 156.587 27.1765 157.339 26.0477C157.754 25.0249 157.848 24.0893 157.896 23.0018C157.904 22.8459 157.912 22.6899 157.92 22.5293C157.94 22.1483 157.958 21.7673 157.975 21.3862C155.463 21.2918 152.707 22.0937 150.851 23.8245Z" fill="white"/>
<path d="M57.9602 14.3254C59.2352 15.1932 59.8693 16.3067 60.2794 17.7842C60.3697 18.5327 60.3777 19.2747 60.3803 20.028C60.3836 20.2367 60.3869 20.4455 60.3903 20.6605C60.4004 21.3218 60.4063 21.983 60.4118 22.6443C60.4195 23.3108 60.4281 23.9773 60.4378 24.6439C60.4436 25.0575 60.4481 25.4711 60.4512 25.8847C60.4534 26.0701 60.4556 26.2555 60.4578 26.4465C60.4592 26.6103 60.4606 26.7741 60.462 26.9429C60.4507 27.3243 60.4507 27.3243 60.7031 27.5308C61.0553 27.5748 61.4088 27.6086 61.7625 27.6367C62.7984 27.7191 62.7984 27.7191 63.0338 27.9546C63.0491 28.2765 63.0516 28.599 63.0471 28.9213C63.0452 29.0964 63.0433 29.2714 63.0413 29.4518C63.0388 29.587 63.0364 29.7222 63.0338 29.8615C62.4907 29.8845 61.9484 29.9012 61.405 29.9145C61.2522 29.9216 61.0994 29.9287 60.9419 29.936C60.1221 29.951 59.7349 29.9187 59.0213 29.4708C58.5562 28.9846 58.3559 28.594 58.1605 27.9546C58.0707 28.0365 57.9808 28.1184 57.8882 28.2029C55.9283 29.9431 54.1844 30.476 51.5866 30.3323C50.4297 30.2021 49.4921 29.6869 48.6937 28.8551C47.8213 27.7116 47.6418 26.6118 47.7783 25.2001C48.0725 23.8071 48.8229 22.7283 49.8971 21.81C51.4143 20.8512 53.0253 20.2851 54.7704 19.903C55.0982 19.8309 55.0982 19.8309 55.4326 19.7574C56.2725 19.6661 57.1047 19.6743 57.9487 19.6911C57.8924 18.4257 57.7862 17.4788 56.8892 16.5129C55.5886 15.7199 54.0719 15.6811 52.6086 15.9691C51.4614 16.3216 50.762 17.0018 50.109 17.9961C50.0391 18.2058 49.9692 18.4156 49.8971 18.6317C49.588 18.5662 49.279 18.4998 48.9701 18.4331C48.712 18.3778 48.712 18.3778 48.4487 18.3213C47.9902 18.208 47.9902 18.208 47.5664 17.9961C47.6381 16.849 48.2908 16.0529 49.0496 15.2416C51.3237 13.4094 55.3217 13.0153 57.9602 14.3254ZM50.7049 23.9023C50.2024 24.7688 50.109 25.2538 50.109 26.2595C50.363 27.0073 50.5958 27.4038 51.1949 27.9148C52.6448 28.5137 53.8853 28.4505 55.3581 27.9421C56.6264 27.4059 57.1434 26.5986 57.7368 25.412C58.0201 24.6004 57.9723 23.7708 57.9619 22.9223C57.9609 22.7746 57.96 22.6268 57.959 22.4746C57.9565 22.1118 57.9527 21.749 57.9487 21.3862C55.5036 21.3039 52.4422 22.0806 50.7049 23.9023Z" fill="white"/>
<path d="M78.374 7.93359C79.1432 7.93359 79.9123 7.93359 80.7047 7.93359C80.7047 12.6882 80.7047 17.4429 80.7047 22.3416C81.9847 21.2287 81.9847 21.2287 83.2324 20.0854C83.3691 19.9565 83.5059 19.8275 83.6467 19.6947C83.7859 19.5631 83.925 19.4314 84.0684 19.2958C86.3655 17.133 86.3655 17.133 87.4701 16.1705C87.909 15.7887 87.909 15.7887 88.2547 15.376C88.8853 14.6915 89.239 14.5167 90.1898 14.425C90.9865 14.41 91.7755 14.4467 92.5702 14.502C91.6858 15.3983 90.7742 16.2631 89.8554 17.124C89.7127 17.2584 89.57 17.3928 89.423 17.5312C88.5633 18.3374 87.6903 19.1238 86.7974 19.8931C86.4477 20.2031 86.1166 20.5243 85.7899 20.8584C86.0603 21.4415 86.3503 21.9062 86.7757 22.3871C86.8866 22.5137 86.9976 22.6402 87.1119 22.7706C87.2307 22.9043 87.3494 23.0381 87.4717 23.1759C87.7221 23.4613 87.9723 23.7469 88.2224 24.0325C88.3479 24.1755 88.4734 24.3184 88.6026 24.4657C93.2058 29.736 93.3106 29.8931 93.3106 30.3384C90.7377 30.7447 89.6756 29.9451 89.6756 29.9451C89.0006 29.3037 88.4694 28.5526 87.9454 27.7863C87.6008 27.2879 87.2198 26.8228 86.8361 26.3541C86.7047 26.1884 86.5733 26.0226 86.438 25.8518C85.6023 24.8099 84.7411 23.7888 83.883 22.7654C83.2142 23.0593 82.7815 23.4019 82.2806 23.9307C82.1722 24.0447 82.0774 24.1481 81.9883 24.2446C81.4541 24.8227 80.8088 25.4627 80.8082 26.2499C80.8007 26.4779 80.7932 26.706 80.7854 26.941C80.7783 27.2994 80.7783 27.2994 80.7709 27.6652C80.7637 27.9058 80.7565 28.1464 80.749 28.3943C80.7315 28.9899 80.762 29.7427 80.749 30.3384C79.9799 30.3384 79.1665 30.3384 78.374 30.3384C78.374 22.9967 78.374 15.4978 78.374 7.93359Z" fill="white"/>
<path d="M141.7 14.6051C142.645 15.2842 143.299 16.1006 143.774 17.0429C144.466 18.4146 144.551 19.9937 144.551 21.5301C144.551 21.8166 144.551 22.1047 144.551 22.3951C140.775 22.3951 136.999 22.3951 133.109 22.3951C133.352 24.3805 133.423 24.9622 134.296 26.0121C135.261 27.1727 136.617 28.0493 138.126 28.0268C138.771 28.0172 139.412 27.9212 139.993 27.7344C141.388 27.0704 141.855 26.1369 142.432 24.9377L144.655 25.6701C144.443 27.0464 143.67 28.0242 142.612 28.9304C140.921 30.3785 138.587 30.4852 136.076 30.2348C134.853 30.1129 133.009 28.8914 132.01 27.3479C130.52 24.6803 130.308 21.4883 131.123 18.5547C131.839 16.553 133.107 15.0973 134.976 14.0655C137.149 13.1738 139.707 13.4384 141.7 14.6051ZM137.358 15.5423C135.04 15.8654 133.321 18.1486 133.321 20.4882C136.258 20.4882 139.195 20.4882 142.22 20.4882C142.034 18.8156 141.89 17.5304 140.619 16.3738C139.556 15.6401 138.432 15.3924 137.358 15.5423Z" fill="white"/>
<path d="M174.343 14.353C174.466 14.4366 174.589 14.5202 174.715 14.6063C174.835 14.6855 174.956 14.7647 175.08 14.8463C175.772 15.3602 176.193 15.9289 176.568 16.6249C176.752 16.9652 176.861 17.3489 176.861 17.7355C175.813 18.0502 175.785 18.0992 174.715 18.4202C174.531 18.1187 174.348 17.8171 174.159 17.5065C174.137 17.4751 174.116 17.4442 174.096 17.4137C173.15 16.0289 171.331 15.5698 169.681 15.8683C169.143 15.9656 168.627 16.1596 168.147 16.5133C168.131 16.5286 168.115 16.5438 168.1 16.5587C167.336 17.3131 167.295 18.6092 168.038 19.3843C168.216 19.5707 168.475 19.7526 168.713 19.8511C169.466 20.1618 170.265 20.3272 171.062 20.5092C172.665 20.877 174.19 21.2676 175.517 22.1556C176.236 22.6368 176.797 23.3393 177.068 24.1613C177.331 24.9585 177.396 25.7743 177.257 26.6836C176.819 28.0535 176.222 28.9586 174.961 29.6632C172.836 30.5854 170.128 30.6794 167.908 29.9678C166.593 29.3839 165.35 28.5291 164.709 27.2092C164.568 26.9182 164.411 26.5294 164.325 26.1638C164.253 25.8602 164.409 25.5567 164.69 25.4214C165.175 25.1882 165.651 25.1084 166.2 25.0422C166.473 25.0092 166.734 25.1664 166.835 25.4223C167.343 26.5782 167.742 27.3482 168.944 27.825C170.458 28.2405 171.962 28.3236 173.444 27.743C174.101 27.3002 174.431 27.013 174.603 26.2276C174.66 25.3454 174.633 24.9502 174.086 24.2213C173.26 23.5734 172.521 23.3975 171.51 23.1743C171.148 23.0859 170.787 22.9968 170.425 22.907C170.165 22.8433 170.165 22.8433 169.899 22.7784C169.188 22.6002 168.513 22.3992 167.887 22.1324C165.647 21.1778 164.186 18.3637 165.392 16.2484C167.294 13.587 171.468 12.7438 174.343 14.353Z" fill="white"/>
<path d="M105.219 7.61426C106.058 7.61426 106.897 7.61426 107.761 7.61426C107.761 14.956 107.761 22.2977 107.761 29.8619C106.922 29.8619 106.083 29.8619 105.219 29.8619C105.219 22.5202 105.219 15.1785 105.219 7.61426Z" fill="white"/>
<path d="M73.8867 13.9439C74.0438 13.9431 74.2008 13.9423 74.3626 13.9414C75.5285 13.9435 75.5285 13.9435 75.7672 14.1823C75.7825 14.5748 75.7849 14.968 75.7804 15.3609C75.7785 15.5753 75.7766 15.7897 75.7746 16.0106C75.7722 16.1764 75.7697 16.3422 75.7672 16.513C75.5268 16.5031 75.2865 16.4933 75.0388 16.4832C74.7488 16.4641 74.493 16.4473 74.264 16.4342C71.6429 16.2842 69.2948 18.3849 68.9937 20.993C68.9297 21.5473 68.9067 22.1226 68.8992 22.723C68.8951 22.9278 68.891 23.1326 68.8868 23.3437C68.8742 23.9934 68.8643 24.6431 68.8545 25.2929C68.8464 25.7352 68.8381 26.1776 68.8297 26.62C68.8094 27.7005 68.7916 28.781 68.775 29.8616C68.0059 29.8616 67.2368 29.8616 66.4443 29.8616C66.4443 24.6874 66.4443 19.5132 66.4443 14.1823C67.1435 14.1823 67.8428 14.1823 68.5632 14.1823C68.6331 15.0213 68.703 15.8604 68.775 16.7248C68.9935 16.4626 69.2121 16.2004 69.4372 15.9303C70.7564 14.4214 71.8729 13.9333 73.8867 13.9439Z" fill="white"/>
<g clip-path="url(#clip0_1952_6876)">
<path d="M295.326 2.44287V7.31337H290.087H280.028C278.008 7.31337 275.882 7.38109 274.212 8.53413C270.661 10.9861 269.882 15.8434 270.001 18.3827V24.5815C270.001 30.9574 273.057 35.208 280.044 35.208H289.65V23.2532H278.734V18.8254H295.326V40.0785H283.1C279.281 40.0785 274.653 40.6113 271.217 38.9214C271.105 38.8662 270.991 38.8092 270.874 38.7502C265.634 36.0936 263.451 29.8948 263.306 25.3194C263.306 25.1719 263.451 22.7218 263.451 17.0544C263.451 5.71939 273.057 2.59046 277.861 2.44287H295.326Z" fill="white"/>
<path d="M327.582 6.8705V2H312.3C305.663 2 301.383 7.60845 300.073 10.4127C298.909 12.6265 297.104 19.3567 299.2 28.5663C301.296 37.776 308.515 39.7833 311.863 39.6356H323.216L327.582 34.7652C326.272 34.9128 321.731 35.1194 314.046 34.7652C306.361 34.4109 304.877 26.5001 304.877 23.2531V17.0543C304.877 9.9699 309.825 7.01809 312.3 6.8705H314.046H327.582Z" fill="white"/>
<path d="M328.805 6.8705V2H360.243L355.44 6.8705H347.58V39.6356H341.467V6.8705H328.805Z" fill="white"/>
</g>
<defs>
<clipPath id="clip0_1952_6876">
<rect width="97" height="48" fill="white" transform="translate(263)"/>
</clipPath>
</defs>
</svg>
