<svg width="1920" height="1522" viewBox="0 0 1920 1522" fill="none" xmlns="http://www.w3.org/2000/svg">
<g style="mix-blend-mode:color-dodge">
<g style="mix-blend-mode:hard-light" filter="url(#filter0_f_1229_6995)">
<path d="M755.283 199.219C676.628 184.209 578.41 250.004 539.133 284.778C494.102 336.564 485.846 409.366 533.879 470.158C572.306 518.792 608.931 416.871 622.441 359.831C623.942 331.061 639.703 272.321 690.738 267.517C754.532 261.513 670.474 333.563 764.289 352.326C839.341 367.336 859.605 316.551 860.356 289.282C858.104 265.516 833.937 214.23 755.283 199.219Z" fill="#BD00FF"/>
</g>
<g filter="url(#filter1_f_1229_6995)">
<path d="M346.068 540.221C350.87 473.257 440.335 564.978 466.117 623.927C586.913 814.918 662.692 643.149 712.961 599.169C781.237 539.436 925.592 470.427 956.804 672.265C995.819 924.563 816.502 1076.65 736.969 1076.65C364.077 1076.65 340.066 623.928 346.068 540.221Z" fill="#002545"/>
</g>
<g style="mix-blend-mode:hard-light" filter="url(#filter2_f_1229_6995)">
<path d="M1019.81 1174.12C1085.03 1270.11 1253.11 1303.33 1328.99 1307.95C1428.2 1301.02 1511.27 1234.88 1524.34 1123.36C1534.8 1034.14 1392.83 1101.06 1320.53 1145.66C1289.51 1173.61 1213.17 1217.65 1155.94 1170.28C1084.42 1111.06 1244.39 1123.36 1167.48 1008C1105.95 915.703 1033.14 946.98 1004.43 974.155C982.383 1000.82 954.593 1078.14 1019.81 1174.12Z" fill="#BD00FF"/>
</g>
<g filter="url(#filter3_f_1229_6995)">
<path d="M1788.6 1244.02C1715.06 1307.72 1717.37 1122.05 1751.36 1035.22C1823.29 715.715 1569.62 814.081 1473.03 807.636C1341.85 798.883 1123.21 721.671 1298.06 482.851C1516.62 184.327 1856.23 212.234 1937.73 293.735C2319.85 675.859 1880.53 1164.39 1788.6 1244.02Z" fill="#002545"/>
</g>
<g style="mix-blend-mode:hard-light" filter="url(#filter4_f_1229_6995)">
<path d="M802.975 800.899C748.565 720.824 608.347 693.105 545.039 689.255C462.269 695.029 392.972 750.211 382.064 843.247C373.338 917.677 491.783 861.855 552.097 824.64C577.976 801.327 641.668 764.583 689.406 804.108C749.078 853.514 615.618 843.247 679.781 939.492C731.112 1016.49 791.853 990.395 815.807 967.724C834.201 945.481 857.386 880.975 802.975 800.899Z" fill="#BD00FF"/>
</g>
<g filter="url(#filter5_f_1229_6995)">
<path d="M161.602 742.586C222.956 689.442 221.027 844.341 192.672 916.779C132.661 1183.33 344.294 1101.27 424.869 1106.64C534.306 1113.95 716.714 1178.36 570.843 1377.6C388.505 1626.65 105.184 1603.37 37.1903 1535.37C-281.601 1216.58 84.9086 809.016 161.602 742.586Z" fill="#002545"/>
</g>
<g style="mix-blend-mode:color-dodge" opacity="0.8" filter="url(#filter6_f_1229_6995)">
<g style="mix-blend-mode:hard-light" opacity="0.6">
<path d="M1914.44 1251.22C2053.15 1105.24 1956.56 846.412 1890.93 735.248C1777.65 597.011 1554.84 514.357 1305.37 556.773C1105.79 590.705 1388.78 757.275 1555.22 836.318C1645.31 865.407 1814.58 950.558 1770.99 1058.45C1716.5 1193.3 1583.6 957.546 1415.41 1130.89C1280.86 1269.56 1419.54 1356.65 1505.7 1382.86C1584.15 1399.8 1775.73 1397.2 1914.44 1251.22Z" fill="#DB00FF"/>
</g>
<path opacity="0.5" d="M1342.78 129.537C1862.48 467.787 2033.48 1382.1 1925.35 1382.1C1495.76 1541.84 816.181 723.55 823.492 844.451C833.422 1008.66 768.074 1330.59 427.242 1304.64C1.20259 1272.21 -17.645 843.055 75.6634 682.448C513.144 -70.567 1239.3 62.1834 1342.78 129.537Z" fill="#118FFF"/>
<g style="mix-blend-mode:darken" opacity="0.6">
<path d="M1667.76 1236.41C1826.91 1037.15 1598.64 1003.34 1464.62 1011.34C1207.82 1051.64 745.6 1068.65 951.104 814.306C1156.61 559.966 936.096 462.249 800.152 445.183C572.384 409.732 195.152 440.367 508.366 846.514C821.581 1252.66 764.277 1355.18 653.024 1442.49C590.478 1491.57 168.021 1628.54 591.87 1648.39C1121.68 1673.2 1468.83 1485.48 1667.76 1236.41Z" fill="#B81919"/>
</g>
</g>
</g>
<defs>
<filter id="filter0_f_1229_6995" x="298.783" y="-5.6123" width="764.213" height="691.183" filterUnits="userSpaceOnUse" color-interpolation-filters="sRGB">
<feFlood flood-opacity="0" result="BackgroundImageFix"/>
<feBlend mode="normal" in="SourceGraphic" in2="BackgroundImageFix" result="shape"/>
<feGaussianBlur stdDeviation="101.32" result="effect1_foregroundBlur_1229_6995"/>
</filter>
<filter id="filter1_f_1229_6995" x="142.717" y="314.118" width="1022.21" height="965.17" filterUnits="userSpaceOnUse" color-interpolation-filters="sRGB">
<feFlood flood-opacity="0" result="BackgroundImageFix"/>
<feBlend mode="normal" in="SourceGraphic" in2="BackgroundImageFix" result="shape"/>
<feGaussianBlur stdDeviation="101.32" result="effect1_foregroundBlur_1229_6995"/>
</filter>
<filter id="filter2_f_1229_6995" x="776.594" y="743.629" width="950.938" height="766.957" filterUnits="userSpaceOnUse" color-interpolation-filters="sRGB">
<feFlood flood-opacity="0" result="BackgroundImageFix"/>
<feBlend mode="normal" in="SourceGraphic" in2="BackgroundImageFix" result="shape"/>
<feGaussianBlur stdDeviation="101.32" result="effect1_foregroundBlur_1229_6995"/>
</filter>
<filter id="filter3_f_1229_6995" x="1030.36" y="36.3625" width="1263.74" height="1423.35" filterUnits="userSpaceOnUse" color-interpolation-filters="sRGB">
<feFlood flood-opacity="0" result="BackgroundImageFix"/>
<feBlend mode="normal" in="SourceGraphic" in2="BackgroundImageFix" result="shape"/>
<feGaussianBlur stdDeviation="101.32" result="effect1_foregroundBlur_1229_6995"/>
</filter>
<filter id="filter4_f_1229_6995" x="178.967" y="486.615" width="860.502" height="707.013" filterUnits="userSpaceOnUse" color-interpolation-filters="sRGB">
<feFlood flood-opacity="0" result="BackgroundImageFix"/>
<feBlend mode="normal" in="SourceGraphic" in2="BackgroundImageFix" result="shape"/>
<feGaussianBlur stdDeviation="101.32" result="effect1_foregroundBlur_1229_6995"/>
</filter>
<filter id="filter5_f_1229_6995" x="-293.699" y="529.059" width="1121.46" height="1254.61" filterUnits="userSpaceOnUse" color-interpolation-filters="sRGB">
<feFlood flood-opacity="0" result="BackgroundImageFix"/>
<feBlend mode="normal" in="SourceGraphic" in2="BackgroundImageFix" result="shape"/>
<feGaussianBlur stdDeviation="101.32" result="effect1_foregroundBlur_1229_6995"/>
</filter>
<filter id="filter6_f_1229_6995" x="-135" y="-135" width="2255.27" height="1920.59" filterUnits="userSpaceOnUse" color-interpolation-filters="sRGB">
<feFlood flood-opacity="0" result="BackgroundImageFix"/>
<feBlend mode="normal" in="SourceGraphic" in2="BackgroundImageFix" result="shape"/>
<feGaussianBlur stdDeviation="67.5" result="effect1_foregroundBlur_1229_6995"/>
</filter>
</defs>
</svg>
