<svg width="148" height="43" viewBox="0 0 148 43" fill="none" xmlns="http://www.w3.org/2000/svg">
<path d="M12.9538 10.3733H10.6111L2.73926 29.5753H5.72904L8.09862 23.698H15.3502L17.7442 29.5753H20.8012L12.9538 10.3733ZM11.7702 14.2587C11.9588 14.8494 12.1477 15.3777 12.331 15.8337L14.3959 21.1231H9.13638L11.2393 15.813C11.4422 15.2776 11.6194 14.7594 11.7702 14.2587Z" fill="white"/>
<path d="M31.3394 9.70495L30.5878 12.0042L30.2689 11.9008C28.4974 11.3376 27.3476 11.3969 26.795 12.1797C26.4552 12.6473 26.2824 13.4351 26.2824 14.5226V15.0883H29.828V17.3719H26.2824V29.5748H23.5072V17.3797H21.0186V15.8633L23.5072 15.1064V14.5718C23.5072 10.9785 25.13 9.14709 28.3276 9.14709C29.2421 9.17257 30.1482 9.32565 31.0181 9.6018L31.3394 9.70495Z" fill="white"/>
<path d="M40.367 27.0078V29.2752L40.1705 29.3643C39.7985 29.5193 39.4047 29.6217 39.0017 29.6685C38.5624 29.739 38.1178 29.7758 37.6723 29.7786C34.6257 29.7786 33.0276 28.1821 33.0276 25.1646V17.161H30.9062V15.588L33.086 14.681L34.0718 11.598H35.9496V14.8488H40.2478V17.161H35.9359V25.0886C35.9359 25.8488 36.1213 26.4283 36.4897 26.8188C36.6765 27.0126 36.9068 27.164 37.1639 27.262C37.4207 27.3601 37.6977 27.4021 37.9742 27.3852C38.3402 27.3852 38.706 27.3588 39.0682 27.3066C39.3482 27.2679 39.6256 27.2136 39.8988 27.144L40.367 27.0078Z" fill="white"/>
<path d="M54.3463 21.3701C54.3463 19.4378 53.787 17.8559 52.6794 16.6672C51.5715 15.4787 50.0315 14.8663 48.1267 14.8663C46.0977 14.8663 44.4523 15.5634 43.2447 16.9399C42.0369 18.3164 41.4453 20.1506 41.4453 22.4352C41.4453 24.7196 42.0992 26.5229 43.388 27.8196C44.6768 29.1162 46.4678 29.7774 48.6941 29.7774C49.5552 29.7887 50.415 29.7172 51.2608 29.564C52.0376 29.4023 52.795 29.1672 53.5223 28.8616L53.7249 28.7767V26.204L53.2575 26.3971C51.84 26.9865 50.311 27.2936 48.7645 27.2999C47.3731 27.2999 46.3329 26.9243 45.5763 26.1499C44.8764 25.4295 44.4956 24.3748 44.3929 23.0087H54.3383L54.3463 21.3701ZM48.0998 17.2538C49.148 17.2538 49.9261 17.5574 50.4801 18.185C50.9907 18.7665 51.2716 19.6026 51.3176 20.6806H44.4822C44.5719 19.7768 44.949 18.9207 45.5629 18.2261C45.8843 17.8958 46.2784 17.6365 46.7167 17.4671C47.1551 17.2978 47.6273 17.2222 48.0998 17.246V17.2538Z" fill="white"/>
<path d="M66.172 15.0719L65.7862 17.6557L65.452 17.5809C64.9805 17.4703 64.4989 17.4097 64.0147 17.3998C63.5133 17.398 63.018 17.5093 62.5655 17.7259C62.113 17.9422 61.7145 18.2584 61.3999 18.6505C60.6539 19.5347 60.26 20.665 60.2942 21.8236V29.5752H57.5713V15.1054H59.9059L60.091 17.1726C60.5044 16.5789 61.0209 16.0649 61.6159 15.6556C62.3677 15.1393 63.2581 14.8644 64.169 14.8677C64.7427 14.8619 65.3157 14.9147 65.8788 15.0252L66.172 15.0719Z" fill="white"/>
<path d="M70.679 9.14771H67.8838V29.5754H70.679V9.14771Z" fill="white"/>
<path d="M85.1875 16.8981C83.9538 15.55 82.2699 14.868 80.1864 14.868C78.031 14.868 76.3206 15.5371 75.0975 16.8519C73.8746 18.1667 73.2699 20.0014 73.2699 22.317C73.2387 23.6713 73.5226 25.0149 74.1011 26.2488C74.6211 27.3338 75.4619 28.2462 76.5178 28.8708C77.597 29.4867 78.832 29.8011 80.0853 29.7792C82.2408 29.7792 83.9538 29.1076 85.1875 27.7824C86.421 26.4573 87.0286 24.633 87.0286 22.317C87.0365 20.0554 86.4131 18.2362 85.1875 16.8981ZM80.1465 27.3912C78.8304 27.3912 77.8658 26.9822 77.1998 26.1381C76.5337 25.2941 76.174 23.9922 76.174 22.3145C76.174 20.637 76.5122 19.3349 77.1839 18.5013C77.8553 17.6675 78.8037 17.2841 80.1145 17.2841C81.4255 17.2841 82.4324 17.6857 83.0985 18.5218C83.7646 19.3581 84.1271 20.6446 84.1271 22.3145C84.1271 23.9844 83.7807 25.2891 83.0985 26.1434C82.4165 26.9977 81.4628 27.3912 80.1465 27.3912Z" fill="white"/>
<path d="M102.291 15.1231H97.1366C96.4726 14.9486 95.7867 14.8628 95.0985 14.8683C93.3267 14.8683 91.9346 15.3038 90.9408 16.1649C89.9466 17.0257 89.4406 18.2713 89.4406 19.8505C89.4279 20.7509 89.6853 21.6353 90.1813 22.3977C90.5347 22.9481 91.017 23.4107 91.5892 23.7475C91.239 23.9839 90.9302 24.2727 90.6744 24.6033C90.3577 25.0403 90.1926 25.5628 90.2024 26.096C90.1895 26.576 90.3342 27.0478 90.6164 27.4433C90.7345 27.6012 90.8698 27.7463 91.0199 27.8764C90.3316 28.1008 89.7148 28.4928 89.2296 29.0151C88.6331 29.6654 88.3096 30.5073 88.3225 31.3761C88.3009 31.9816 88.4406 32.5822 88.7289 33.1203C89.0171 33.6583 89.4437 34.1157 89.9677 34.448C91.0225 35.146 92.5148 35.5 94.4211 35.5C96.8782 35.5 98.7818 35.0824 100.084 34.2596C101.429 33.4114 102.114 32.1606 102.114 30.5433C102.114 29.2696 101.656 28.251 100.757 27.581C99.8575 26.9111 98.6342 26.585 97.0391 26.585H94.5397C93.6563 26.585 93.2555 26.4602 93.0712 26.3583C92.9694 26.3061 92.8855 26.226 92.8302 26.1284C92.775 26.0304 92.7505 25.9193 92.76 25.8082C92.76 25.2504 93.116 24.7893 93.8515 24.3868C94.2235 24.4455 94.6004 24.4736 94.9772 24.4708C96.7015 24.4708 98.0833 24.043 99.0851 23.1974C99.5877 22.7696 99.9856 22.2389 100.25 21.6443C100.515 21.0497 100.639 20.4056 100.614 19.7588C100.617 19.1846 100.511 18.6146 100.3 18.0777C100.195 17.8142 100.069 17.5589 99.9234 17.3135L102.296 17.0436L102.291 15.1231ZM94.4448 33.2993C93.3109 33.2993 92.4357 33.1236 91.8476 32.7746C91.5905 32.6359 91.3782 32.4305 91.2353 32.1817C91.0921 31.9329 91.0241 31.6503 91.0383 31.3659C91.0383 30.6172 91.2677 30.0671 91.7342 29.6798C92.201 29.2927 92.9024 29.0864 93.7882 29.0864H96.3458C97.8855 29.0864 98.5498 29.2928 98.8372 29.4658C99.209 29.6925 99.391 30.1051 99.391 30.7395C99.391 31.5036 99.0192 32.1149 98.2492 32.5785C97.4794 33.042 96.1665 33.2993 94.4448 33.2993ZM95.0273 22.3925C94.1231 22.3925 93.4111 22.171 92.9182 21.7429C92.4251 21.3151 92.1983 20.6808 92.1983 19.8122C92.1983 18.8773 92.4409 18.1694 92.9156 17.7108C93.39 17.2524 94.0888 17.0232 94.9957 17.0232C96.9309 17.0232 97.8354 17.8967 97.8354 19.774C97.8354 21.5595 96.9441 22.3925 95.0273 22.3925Z" fill="white"/>
<path d="M107.871 33.8737C107.891 34.0967 107.859 34.3207 107.779 34.5317C107.698 34.7426 107.57 34.9355 107.402 35.0976C107.093 35.3561 106.691 35.4994 106.273 35.4994C105.855 35.4994 105.452 35.3561 105.143 35.0976C104.972 34.9367 104.841 34.7446 104.757 34.5337C104.673 34.3228 104.638 34.098 104.656 33.8737C104.64 33.6502 104.675 33.4257 104.758 33.215C104.841 33.0046 104.971 32.812 105.14 32.6501C105.44 32.3803 105.844 32.23 106.263 32.2315C106.475 32.2262 106.685 32.2604 106.882 32.3321C107.078 32.4035 107.257 32.5108 107.408 32.6476C107.572 32.8118 107.698 33.0053 107.778 33.2163C107.858 33.4272 107.89 33.6512 107.871 33.8737Z" fill="white"/>
<path d="M107.877 15.072H104.651V30.3928H107.877V15.072Z" fill="white"/>
<path d="M120.241 26.6021L120.701 26.4221V28.9435L120.517 29.0335C119.503 29.5223 118.233 29.7796 116.719 29.7796C114.544 29.7796 112.825 29.126 111.621 27.8345C110.417 26.5429 109.818 24.7267 109.818 22.411C109.818 20.0389 110.435 18.1709 111.648 16.8614C112.86 15.5519 114.611 14.8674 116.865 14.8674C117.589 14.8677 118.311 14.9417 119.019 15.0886C119.612 15.196 120.187 15.3777 120.73 15.629L120.999 15.7576L120.113 18.1067L119.791 17.9805C119.293 17.7963 118.779 17.6484 118.26 17.538C117.789 17.4298 117.304 17.3712 116.82 17.3631C114.091 17.3631 112.763 19.0097 112.763 22.393C112.763 24.0089 113.1 25.2539 113.768 26.0953C114.436 26.9367 115.385 27.3227 116.679 27.3227C117.903 27.3062 119.112 27.0616 120.241 26.6021Z" fill="white"/>
</svg>
