<svg width="0" height="0" class="hidden">

  <symbol id="arrow-top-right" viewBox="0 0 24 25" fill="none" xmlns="http://www.w3.org/2000/svg">
    <path fill-rule="evenodd" clip-rule="evenodd"
      d="M21.8906 17.6819V4.14193L1.4921 24.4812L0 22.9935L20.0972 2.95459H7.1172V0.850661H21.8906L24.0009 0.850464V17.6819H21.8906Z"
      fill="currentColor" />
  </symbol>

  <symbol id="map-pin" viewBox="0 0 12 16" fill="none" xmlns="http://www.w3.org/2000/svg">
    <path fill-rule="evenodd" clip-rule="evenodd"
      d="M6 15.5C6 15.5 12 12.2136 12 6.5C12 4.9087 11.3679 3.38258 10.2426 2.25736C9.11742 1.13214 7.5913 0.5 6 0.5C4.4087 0.5 2.88258 1.13214 1.75736 2.25736C0.632141 3.38258 0 4.9087 0 6.5C0 12.2136 6 15.5 6 15.5ZM7.69706 8.19706C8.14714 7.74697 8.4 7.13652 8.4 6.5C8.4 5.86348 8.14714 5.25303 7.69706 4.80294C7.24697 4.35286 6.63652 4.1 6 4.1C5.36348 4.1 4.75303 4.35286 4.30294 4.80294C3.85286 5.25303 3.6 5.86348 3.6 6.5C3.6 7.13652 3.85286 7.74697 4.30294 8.19706C4.75303 8.64714 5.36348 8.9 6 8.9C6.63652 8.9 7.24697 8.64714 7.69706 8.19706Z"
      fill="white" />
  </symbol>

  <symbol id="facebook" viewBox="0 0 48 48" fill="none" xmlns="http://www.w3.org/2000/svg">
    <path fill-rule="evenodd" clip-rule="evenodd"
      d="M23.7239 9C31.8221 9 38.4479 15.6258 38.4479 23.7239C38.4479 31.0859 33.1104 37.3436 25.7485 38.4479V27.9571H29.2454L29.9816 23.7239H25.9325V20.9632C25.9325 19.8589 26.4847 18.7546 28.3252 18.7546H30.1656V15.0736C30.1656 15.0736 28.5092 14.7055 26.8528 14.7055C23.5399 14.7055 21.3313 16.7301 21.3313 20.411V23.7239H17.6503V27.9571H21.3313V38.2638C14.3374 37.1595 9 31.0859 9 23.7239C9 15.6258 15.6258 9 23.7239 9Z"
      fill="currentColor" />
  </symbol>


  <symbol id="linkedin" width="48" height="48" viewBox="0 0 48 48" fill="none"
    xmlns="http://www.w3.org/2000/svg">
    <path fill-rule="evenodd" clip-rule="evenodd"
      d="M11.6631 20.1414V37.5911H17.2079V20.1414H11.6631ZM11.3369 14.5966C11.3369 16.3905 12.6416 17.6951 14.4355 17.6951C16.2294 17.6951 17.534 16.3905 17.534 14.5966C17.534 12.8027 16.2294 11.498 14.4355 11.498C12.8046 11.498 11.3369 12.8027 11.3369 14.5966ZM31.8852 37.5911H37.1038V26.8277C37.1038 21.446 33.8421 19.6521 30.7436 19.6521C27.9712 19.6521 26.0142 21.446 25.525 22.5876V20.1414H20.3064V37.5911H25.8511V28.2954C25.8511 25.8492 27.482 24.5446 29.1128 24.5446C30.7436 24.5446 31.8852 25.36 31.8852 28.1323V37.5911Z"
      fill="currentColor" />
  </symbol>


  <symbol id="twitter" viewBox="0 0 49 49" fill="none" xmlns="http://www.w3.org/2000/svg">
    <path fill-rule="evenodd" clip-rule="evenodd"
      d="M35.654 17.0189C36.9424 16.8348 38.0467 16.6508 39.151 16.0986C38.4148 17.387 37.3105 18.4913 36.0221 19.2275C36.3902 27.8778 30.1326 37.2643 18.9056 37.2643C15.5927 37.2643 12.4639 36.16 9.70312 34.5035C12.832 34.8716 16.1448 33.9514 18.3534 32.2949C15.5927 32.2949 13.3841 30.4545 12.6479 28.0618C13.5682 28.2459 14.4884 28.0618 15.4086 27.8778C12.6479 27.1416 10.6234 24.5649 10.6234 21.8041C11.5436 22.1722 12.4639 22.5403 13.3841 22.5403C10.8074 20.6999 9.88717 17.2029 11.5436 14.4422C14.6725 18.1232 19.0896 20.5158 24.059 20.6999C23.1387 17.0189 26.0835 13.3379 29.9485 13.3379C31.605 13.3379 33.2614 14.0741 34.3657 15.1784C35.8381 14.8103 37.1264 14.4422 38.2307 13.706C37.8626 15.1784 36.9424 16.2827 35.654 17.0189Z"
      fill="currentColor" />
  </symbol>

  <symbol id="youtube" viewBox="0 0 49 49" fill="none" xmlns="http://www.w3.org/2000/svg">
    <path fill-rule="evenodd" clip-rule="evenodd"
      d="M36.9308 20.1484C36.5555 18.86 35.6172 17.9398 34.3036 17.5717C32.0517 17.0195 22.4812 17.0195 22.4812 17.0195C22.4812 17.0195 13.0983 17.0195 10.6588 17.5717C9.34518 17.9398 8.40687 18.86 8.03156 20.1484C7.65624 22.541 7.65625 27.3263 7.65625 27.3263C7.65625 27.3263 7.65625 32.1115 8.21923 34.5041C8.59454 35.7925 9.53282 36.7127 10.8464 37.0808C13.0983 37.633 22.6688 37.633 22.6688 37.633C22.6688 37.633 32.0517 37.633 34.4912 37.0808C35.8048 36.7127 36.7432 35.7925 37.1185 34.5041C37.6814 32.1115 37.6814 27.3263 37.6814 27.3263C37.6814 27.3263 37.6814 22.541 36.9308 20.1484ZM17.9766 22.5L28.2977 28.061L17.9766 32.6622V22.5Z"
      fill="currentColor" />
  </symbol>

  <symbol id="medium" viewBox="0 0 48 48" fill="none" xmlns="http://www.w3.org/2000/svg">
    <path
      d="M14.48 12C11.1701 12 7.99576 13.3149 5.65531 15.6553C3.31485 17.9958 2 21.1701 2 24.48C2 27.7899 3.31485 30.9642 5.65531 33.3047C7.99576 35.6451 11.1701 36.96 14.48 36.96C17.7899 36.96 20.9642 35.6451 23.3047 33.3047C25.6451 30.9642 26.96 27.7899 26.96 24.48C26.96 21.1701 25.6451 17.9958 23.3047 15.6553C20.9642 13.3149 17.7899 12 14.48 12ZM34.16 12.96C30.7136 12.96 27.92 18.1181 27.92 24.48C27.92 25.6733 28.0179 26.8234 28.2003 27.9053C28.4432 29.3482 28.8358 30.6691 29.3446 31.8077C29.599 32.377 29.8822 32.9002 30.1904 33.3696C30.8067 34.3085 31.5229 35.0333 32.3043 35.4826C32.8909 35.8186 33.5139 36 34.16 36C34.8061 36 35.4291 35.8186 36.0157 35.4826C36.7971 35.0333 37.5133 34.3085 38.1296 33.3696C38.4378 32.9002 38.721 32.377 38.9754 31.8077C39.4842 30.6701 39.8768 29.3482 40.1197 27.9053C40.3021 26.8234 40.4 25.6733 40.4 24.48C40.4 18.1181 37.6064 12.96 34.16 12.96ZM43.76 13.92C43.5114 13.92 43.2714 14.0861 43.0467 14.3952C42.896 14.6006 42.752 14.8694 42.6166 15.1949C42.5485 15.3571 42.4822 15.5338 42.4189 15.7238C42.2912 16.103 42.1722 16.536 42.0637 17.0131C41.8467 17.9683 41.671 19.1069 41.5491 20.3702C41.4886 21.0019 41.4416 21.6653 41.409 22.3526C41.3763 23.039 41.36 23.7514 41.36 24.48C41.36 25.2086 41.3763 25.921 41.409 26.6083C41.4406 27.2957 41.4877 27.959 41.5491 28.5907C41.671 29.8541 41.8467 30.9917 42.0637 31.9478C42.1722 32.4259 42.2912 32.8579 42.4189 33.2371C42.4822 33.4272 42.5485 33.6038 42.6166 33.7661C42.753 34.0915 42.897 34.3603 43.0467 34.5658C43.2714 34.8739 43.5114 35.04 43.76 35.04C45.0858 35.04 46.16 30.312 46.16 24.48C46.16 18.648 45.0858 13.92 43.76 13.92Z"
      fill="currentColor" />
  </symbol>


</svg>