<svg width="148" height="42" viewBox="0 0 148 42" fill="none" xmlns="http://www.w3.org/2000/svg">
<g clip-path="url(#clip0_393_2994)">
<path d="M140.182 0H7.78094C3.48365 0 0 3.47152 0 7.75385V34.2462C0 38.5285 3.48365 42 7.78094 42H140.182C144.479 42 147.963 38.5285 147.963 34.2462V7.75385C147.963 3.47152 144.479 0 140.182 0Z" fill="#A9E0FF" fill-opacity="0.02"/>
<path d="M31.9212 8.40002H19.3044C15.8053 8.40002 12.9688 11.2267 12.9688 14.7136V27.2865C12.9688 30.7733 15.8053 33.6 19.3044 33.6H31.9212C35.4203 33.6 38.2568 30.7733 38.2568 27.2865V14.7136C38.2568 11.2267 35.4203 8.40002 31.9212 8.40002Z" fill="url(#paint0_linear_393_2994)"/>
<g filter="url(#filter0_d_393_2994)">
<mask id="mask0_393_2994" style="mask-type:alpha" maskUnits="userSpaceOnUse" x="19" y="12" width="13" height="13">
<path d="M24.6996 12.9686H26.379C26.4541 12.9686 26.5225 13.0108 26.556 13.0776L31.3545 22.626L30.6506 24.1891C30.6187 24.2598 30.548 24.3055 30.47 24.3055H28.8286C28.7542 24.3055 28.6861 24.2639 28.6522 24.1978L27.943 22.8116C27.9093 22.7455 27.841 22.7039 27.7666 22.7039H23.4788C23.4006 22.7039 23.3296 22.7499 23.2978 22.8213L22.6773 24.2194C22.6456 24.2908 22.5746 24.3369 22.4962 24.3369H20.8844C20.8114 24.3369 20.7443 24.297 20.7098 24.2328L19.8691 22.6688C19.8387 22.6121 19.8379 22.5441 19.867 22.4866L24.6996 12.9686Z" fill="#DA9292"/>
</mask>
<g mask="url(#mask0_393_2994)">
<path d="M26.5012 12.9686H24.6995L27.971 19.3162H25.0071L24.1543 21.0911H28.7681L29.5929 22.626H31.3544L26.5012 12.9686Z" fill="url(#paint1_linear_393_2994)"/>
<path d="M27.4676 19.3163H25.0151L24.168 21.0911H26.6986L27.4676 19.3163Z" fill="url(#paint2_linear_393_2994)"/>
<path d="M25.5812 18.1331L24.7005 16.4382L20.7578 24.3368H22.6312L23.4137 22.8295L27.9518 23.2377L28.7689 21.091H24.5797C24.5797 21.091 24.4411 21.091 24.3591 20.9767C24.2771 20.8621 24.3586 20.694 24.3586 20.694L25.5812 18.1331Z" fill="#B2CBE6"/>
<path d="M19.8203 22.5784L24.6996 12.9686L27.9851 19.3162H26.1816L24.6996 16.4383L20.7569 24.3369L19.8203 22.5784Z" fill="#D9E0EC"/>
<path d="M28.7677 21.0911L27.793 22.8609L28.6978 24.3049L29.5926 22.626L28.7677 21.0911Z" fill="#D9E0EC"/>
<path d="M24.6996 16.4383L20.7569 24.3369L19.8203 22.5784L24.6996 12.9686V16.4383Z" fill="url(#paint3_linear_393_2994)"/>
<path d="M30.6127 24.3048L31.3535 22.626H29.5919L28.6973 24.3048H30.6127Z" fill="#B5CDE6"/>
<path d="M27.9844 19.3164H26.1809L25.5098 18.0214H27.3133L27.9844 19.3164Z" fill="url(#paint4_linear_393_2994)"/>
</g>
</g>
<path d="M21.1732 25.5442H20.9628L20.2559 27.3641H20.5243L20.7371 26.8069H21.3883L21.6034 27.3641H21.8779L21.1732 25.5442ZM21.0669 25.9123C21.0839 25.9684 21.1007 26.0185 21.1173 26.0616L21.3027 26.563H20.8304L21.0192 26.0597C21.0374 26.0089 21.0534 25.9598 21.0669 25.9123Z" fill="white"/>
<path d="M22.8489 25.4777L22.7805 25.6961L22.7515 25.6864C22.5898 25.6327 22.4851 25.6384 22.4347 25.7129C22.4038 25.7573 22.388 25.8321 22.388 25.9355V25.9893H22.7113V26.2062H22.388V27.3661H22.135V26.207H21.9082V26.0629L22.135 25.991V25.9402C22.135 25.5987 22.283 25.4247 22.5744 25.4247C22.6578 25.4271 22.7404 25.4416 22.8197 25.4678L22.8489 25.4777Z" fill="white"/>
<path d="M23.6395 27.1291V27.3413L23.6224 27.3497C23.5898 27.3643 23.5554 27.3738 23.5202 27.3781C23.4818 27.3848 23.4429 27.3882 23.404 27.3885C23.1377 27.3885 22.9979 27.2391 22.9979 26.9564V26.207H22.8125V26.0597L23.0031 25.9747L23.0892 25.686H23.2534V25.9904H23.6292V26.207H23.2521V26.9493C23.2521 27.0205 23.2683 27.0748 23.3006 27.1113C23.317 27.1295 23.3371 27.1436 23.3596 27.1528C23.382 27.162 23.4061 27.1659 23.4304 27.1644C23.4624 27.1644 23.4943 27.1619 23.5259 27.157C23.5506 27.1535 23.5747 27.1483 23.5987 27.1418L23.6395 27.1291Z" fill="white"/>
<path d="M24.9198 26.5874C24.9198 26.4031 24.8695 26.2521 24.7703 26.1387C24.6711 26.0253 24.5332 25.9668 24.3625 25.9668C24.1806 25.9668 24.0332 26.0334 23.925 26.1647C23.8168 26.296 23.7637 26.4711 23.7637 26.689C23.7637 26.9071 23.8224 27.0792 23.9378 27.2029C24.0533 27.3266 24.2138 27.3896 24.4132 27.3896C24.4904 27.3908 24.5675 27.384 24.6432 27.3693C24.7128 27.3539 24.7807 27.3315 24.8459 27.3022L24.864 27.2942V27.0486L24.8222 27.067C24.6951 27.1234 24.5581 27.1527 24.4195 27.1533C24.2949 27.1533 24.2017 27.1174 24.1339 27.0436C24.0712 26.9748 24.0371 26.8742 24.0279 26.7438H24.919L24.9198 26.5874ZM24.36 26.1946C24.4539 26.1946 24.5236 26.2236 24.5734 26.2836C24.6191 26.339 24.6442 26.4188 24.6483 26.5217H24.0358C24.0439 26.4354 24.0777 26.3537 24.1326 26.2875C24.1615 26.256 24.1968 26.2311 24.236 26.2149C24.2754 26.1988 24.3177 26.1917 24.36 26.1939V26.1946Z" fill="white"/>
<path d="M26.0052 25.9861L25.9689 26.2316L25.9374 26.2245C25.893 26.214 25.8476 26.2082 25.8021 26.2074C25.7549 26.2072 25.7082 26.2177 25.6656 26.2383C25.6229 26.2589 25.5855 26.289 25.5558 26.3261C25.4856 26.4101 25.4485 26.5176 25.4518 26.6276V27.3642H25.1953V25.9893H25.4153L25.4326 26.1858C25.4715 26.1294 25.5202 26.0806 25.5763 26.0417C25.6469 25.9926 25.7309 25.9664 25.8167 25.9667C25.8706 25.9662 25.9246 25.9712 25.9776 25.9817L26.0052 25.9861Z" fill="white"/>
<path d="M26.4283 25.4402H26.1777V27.3757H26.4283V25.4402Z" fill="white"/>
<path d="M27.7198 26.1595C27.6078 26.0309 27.4547 25.9658 27.2654 25.9658C27.0696 25.9658 26.9141 26.0296 26.8031 26.1551C26.6919 26.2805 26.6369 26.4556 26.6369 26.6766C26.634 26.8058 26.66 26.9339 26.7125 27.0517C26.7597 27.1552 26.8362 27.2423 26.9321 27.3019C27.03 27.3605 27.1424 27.3906 27.2562 27.3885C27.452 27.3885 27.6078 27.3244 27.7198 27.198C27.832 27.0716 27.8871 26.8976 27.8871 26.6766C27.8879 26.4608 27.8312 26.2873 27.7198 26.1595ZM27.2618 27.1607C27.1422 27.1607 27.0545 27.1216 26.9941 27.0412C26.9334 26.9606 26.9008 26.8364 26.9008 26.6763C26.9008 26.5162 26.9316 26.392 26.9926 26.3125C27.0535 26.233 27.1398 26.1963 27.2589 26.1963C27.3779 26.1963 27.4695 26.2346 27.53 26.3144C27.5906 26.3942 27.6235 26.517 27.6235 26.6763C27.6235 26.8357 27.5921 26.9601 27.53 27.0417C27.468 27.1231 27.3813 27.1607 27.2618 27.1607Z" fill="white"/>
<path d="M29.2925 25.9893H28.8192C28.7582 25.9724 28.6953 25.9641 28.6321 25.9648C28.4694 25.9648 28.3416 26.0066 28.2504 26.0896C28.1591 26.1727 28.1126 26.2927 28.1126 26.4448C28.1114 26.5316 28.1351 26.6169 28.1807 26.6904C28.2131 26.7434 28.2573 26.788 28.3098 26.8204C28.2778 26.8432 28.2494 26.8712 28.2259 26.903C28.1969 26.9451 28.1816 26.9954 28.1826 27.0467C28.1813 27.0931 28.1946 27.1385 28.2205 27.1766C28.2314 27.192 28.2439 27.2059 28.2577 27.2185C28.1944 27.2401 28.1379 27.2779 28.0933 27.3281C28.0385 27.3908 28.0088 27.4719 28.01 27.5557C28.008 27.6141 28.0208 27.6719 28.0472 27.7238C28.0737 27.7756 28.1129 27.8197 28.161 27.8519C28.2578 27.9191 28.395 27.9531 28.5699 27.9531C28.7955 27.9531 28.9703 27.9129 29.0899 27.8336C29.2134 27.7519 29.2763 27.6313 29.2763 27.4755C29.2763 27.3527 29.2342 27.2545 29.1516 27.1899C29.0691 27.1254 28.9568 27.0939 28.8103 27.0939H28.5807C28.4997 27.0939 28.4629 27.082 28.446 27.0721C28.4366 27.0671 28.429 27.0593 28.4238 27.05C28.4188 27.0404 28.4165 27.0298 28.4173 27.0191C28.4173 26.9653 28.4501 26.9209 28.5177 26.8821C28.5517 26.8878 28.5864 26.8904 28.6209 26.8902C28.7793 26.8902 28.9062 26.849 28.9981 26.7674C29.0443 26.7263 29.0808 26.675 29.1051 26.6177C29.1294 26.5605 29.1408 26.4983 29.1385 26.436C29.1388 26.3807 29.1291 26.3258 29.1098 26.2739C29.1001 26.2486 29.0884 26.224 29.0751 26.2003L29.293 26.1743L29.2925 25.9893ZM28.5721 27.741C28.4681 27.741 28.3877 27.7241 28.3337 27.6905C28.31 27.6771 28.2906 27.6574 28.2774 27.6333C28.2643 27.6094 28.258 27.5821 28.2593 27.5548C28.2593 27.4826 28.2803 27.4296 28.3231 27.3923C28.3661 27.355 28.4305 27.3351 28.5118 27.3351H28.7466C28.8881 27.3351 28.949 27.355 28.9754 27.3716C29.0095 27.3934 29.0262 27.4333 29.0262 27.4944C29.0262 27.568 28.9921 27.627 28.9215 27.6716C28.8508 27.7163 28.7302 27.741 28.5721 27.741ZM28.6256 26.6899C28.5426 26.6899 28.4771 26.6686 28.4319 26.6272C28.3867 26.586 28.3658 26.525 28.3658 26.4411C28.3658 26.3512 28.3881 26.2828 28.4318 26.2387C28.4752 26.1945 28.5394 26.1723 28.6227 26.1723C28.8004 26.1723 28.8834 26.2565 28.8834 26.4376C28.8834 26.6096 28.8015 26.6899 28.6256 26.6899Z" fill="white"/>
<path d="M30.9013 27.0855L30.9426 27.0682V27.3089L30.9261 27.3175C30.8352 27.3641 30.7209 27.3887 30.5849 27.3887C30.3896 27.3887 30.2351 27.3263 30.1268 27.2031C30.0187 27.0798 29.9648 26.9065 29.9648 26.6855C29.9648 26.4592 30.0203 26.281 30.1292 26.156C30.2382 26.031 30.3956 25.9657 30.5979 25.9657C30.663 25.9657 30.728 25.9728 30.7916 25.9869C30.8449 25.997 30.8966 26.0145 30.9452 26.0384L30.9696 26.0507L30.8898 26.2749L30.8608 26.2628C30.816 26.2452 30.7702 26.2311 30.7233 26.2206C30.681 26.2103 30.6376 26.2046 30.594 26.2038C30.3489 26.2038 30.2294 26.361 30.2294 26.6837C30.2294 26.838 30.2597 26.9567 30.3197 27.037C30.3798 27.1173 30.4649 27.1541 30.5812 27.1541C30.6912 27.1527 30.8 27.1293 30.9013 27.0855Z" fill="white"/>
<path d="M29.7776 27.7289C29.7794 27.7502 29.7765 27.7716 29.7685 27.7918C29.7608 27.812 29.7483 27.8304 29.7321 27.8459C29.7021 27.8704 29.6629 27.8842 29.6223 27.8842C29.5818 27.8842 29.5426 27.8704 29.5126 27.8459C29.496 27.8304 29.4832 27.8121 29.4751 27.7919C29.4669 27.7717 29.4636 27.7502 29.4652 27.7289C29.4638 27.7076 29.467 27.6861 29.4751 27.6659C29.4832 27.6459 29.4959 27.6275 29.5123 27.612C29.5414 27.5863 29.5807 27.5719 29.6214 27.5721C29.6419 27.5716 29.6624 27.5748 29.6815 27.5816C29.7006 27.5885 29.718 27.5987 29.7326 27.6118C29.7486 27.6275 29.7608 27.6459 29.7685 27.6661C29.7763 27.6863 29.7794 27.7076 29.7776 27.7289Z" fill="white"/>
<path d="M29.7566 25.9707H29.5V27.4265H29.7566V25.9707Z" fill="white"/>
<path d="M134.994 24.1582C134.994 25.1594 134.739 26.0501 134.229 26.8305C133.719 27.6035 132.984 28.2071 132.024 28.6415C131.063 29.0685 129.937 29.282 128.644 29.282C127.565 29.282 126.66 29.2084 125.929 29.061C125.198 28.9064 124.437 28.6415 123.646 28.2659V24.379C124.481 24.806 125.349 25.141 126.251 25.3839C127.152 25.6195 127.979 25.7372 128.733 25.7372C129.383 25.7372 129.859 25.6269 130.162 25.4059C130.465 25.1778 130.617 24.8869 130.617 24.5336C130.617 24.3128 130.554 24.1214 130.428 23.9593C130.31 23.79 130.114 23.6207 129.841 23.4514C129.575 23.2822 128.858 22.9361 127.691 22.4134C126.635 21.9349 125.841 21.4711 125.309 21.0221C124.784 20.573 124.392 20.0577 124.134 19.476C123.883 18.8945 123.757 18.2061 123.757 17.411C123.757 15.924 124.3 14.7645 125.386 13.9326C126.472 13.1008 127.964 12.6848 129.863 12.6848C131.54 12.6848 133.25 13.0713 134.994 13.8443L133.653 17.2124C132.138 16.5203 130.831 16.1743 129.73 16.1743C129.161 16.1743 128.748 16.2737 128.489 16.4725C128.23 16.6712 128.101 16.9179 128.101 17.2124C128.101 17.5288 128.264 17.8123 128.589 18.0625C128.921 18.3129 129.815 18.7693 131.27 19.4319C132.667 20.0577 133.634 20.7313 134.174 21.4527C134.72 22.1667 134.994 23.0686 134.994 24.1582Z" fill="white"/>
<path d="M122.866 29.0611H117.924L114.721 22.8882L113.425 23.6613V29.0611H109.025V12.9167H113.425V19.9288C113.646 19.4944 114.093 18.8061 114.765 17.8639L118.167 12.9167H122.955L117.846 20.1496L122.866 29.0611Z" fill="white"/>
<path d="M98.2716 23.1864V29.0611H93.8945V12.9167H99.2024C103.605 12.9167 105.807 14.5069 105.807 17.6872C105.807 19.5571 104.891 21.0037 103.059 22.0269L107.779 29.0611H102.815L99.3798 23.1864H98.2716ZM98.2716 19.9067H99.0916C100.621 19.9067 101.385 19.2331 101.385 17.886C101.385 16.7743 100.636 16.2184 99.136 16.2184H98.2716V19.9067Z" fill="white"/>
<path d="M91.195 20.9669C91.195 23.6834 90.5265 25.7485 89.1893 27.1619C87.8522 28.5754 85.8944 29.2821 83.3162 29.2821C80.7749 29.2821 78.8246 28.5717 77.4654 27.1508C76.1135 25.7301 75.4375 23.6614 75.4375 20.9448C75.4375 18.2578 76.1097 16.2075 77.4542 14.7941C78.8062 13.3733 80.7676 12.6628 83.3384 12.6628C85.9166 12.6628 87.8706 13.3659 89.2004 14.772C90.5301 16.1781 91.195 18.2431 91.195 20.9669ZM80.0472 20.9669C80.0472 24.0883 81.1369 25.649 83.3162 25.649C84.4243 25.649 85.2444 25.2698 85.7763 24.5116C86.3156 23.7533 86.5853 22.5718 86.5853 20.9669C86.5853 19.3546 86.3118 18.1657 85.7652 17.4002C85.2259 16.6272 84.417 16.2406 83.3384 16.2406C81.1443 16.2406 80.0472 17.8161 80.0472 20.9669Z" fill="white"/>
<path d="M70.18 29.0611H65.005L63.4537 22.0269C63.3798 21.7326 63.2616 21.1471 63.099 20.2711C62.9439 19.3951 62.8294 18.6627 62.7555 18.0737C62.6965 18.5522 62.6004 19.1484 62.4675 19.8626C62.3345 20.5693 62.2015 21.2208 62.0685 21.8172C61.9429 22.4134 61.4073 24.8281 60.4618 29.0611H55.2868L51.2754 12.9167H55.4974L57.2593 21.011C57.6582 22.8 57.9315 24.2245 58.0793 25.2845C58.1753 24.5336 58.3452 23.514 58.589 22.2257C58.8403 20.9375 59.0729 19.87 59.2872 19.0234L60.7166 12.9167H64.7724L66.1576 19.0234C66.3939 20.0025 66.634 21.1324 66.8778 22.4134C67.1216 23.6944 67.284 24.6514 67.3654 25.2845C67.4614 24.4674 67.7237 23.0502 68.1521 21.0331L69.9474 12.9167H74.1692L70.18 29.0611Z" fill="white"/>
<path d="M45.5508 27.2281C45.5508 26.5508 45.7502 26.028 46.1491 25.6601C46.5555 25.2919 47.1428 25.1079 47.9112 25.1079C48.6424 25.1079 49.2039 25.2919 49.5954 25.6601C49.9871 26.028 50.1827 26.5508 50.1827 27.2281C50.1827 27.8906 49.9796 28.4096 49.5732 28.785C49.1744 29.1532 48.6204 29.3371 47.9112 29.3371C47.1798 29.3371 46.6035 29.1532 46.1823 28.785C45.7614 28.417 45.5508 27.898 45.5508 27.2281Z" fill="white"/>
</g>
<defs>
<filter id="filter0_d_393_2994" x="12.7617" y="7.10603" width="28.6071" height="28.4675" filterUnits="userSpaceOnUse" color-interpolation-filters="sRGB">
<feFlood flood-opacity="0" result="BackgroundImageFix"/>
<feColorMatrix in="SourceAlpha" type="matrix" values="0 0 0 0 0 0 0 0 0 0 0 0 0 0 0 0 0 0 127 0" result="hardAlpha"/>
<feOffset dx="1.46565" dy="2.68702"/>
<feGaussianBlur stdDeviation="4.27481"/>
<feComposite in2="hardAlpha" operator="out"/>
<feColorMatrix type="matrix" values="0 0 0 0 0.0195833 0 0 0 0 0.213067 0 0 0 0 0.391667 0 0 0 0.5 0"/>
<feBlend mode="normal" in2="BackgroundImageFix" result="effect1_dropShadow_393_2994"/>
<feBlend mode="normal" in="SourceGraphic" in2="effect1_dropShadow_393_2994" result="shape"/>
</filter>
<linearGradient id="paint0_linear_393_2994" x1="35.5429" y1="9.48185" x2="15.1878" y2="32.525" gradientUnits="userSpaceOnUse">
<stop stop-color="#42C3FC"/>
<stop offset="1" stop-color="#1881DD"/>
</linearGradient>
<linearGradient id="paint1_linear_393_2994" x1="27.7754" y1="12.9686" x2="27.7754" y2="22.626" gradientUnits="userSpaceOnUse">
<stop stop-color="#E6EEF6"/>
<stop offset="1" stop-color="#E6E9F1"/>
</linearGradient>
<linearGradient id="paint2_linear_393_2994" x1="26.8524" y1="20.7073" x2="24.7962" y2="19.8785" gradientUnits="userSpaceOnUse">
<stop stop-color="#E6EBF3"/>
<stop offset="1" stop-color="#C8D7EB"/>
</linearGradient>
<linearGradient id="paint3_linear_393_2994" x1="22.5936" y1="16.4544" x2="20.3857" y2="24.4901" gradientUnits="userSpaceOnUse">
<stop stop-color="#D9E0EC"/>
<stop offset="1" stop-color="#B5CDE6" stop-opacity="0.51"/>
</linearGradient>
<linearGradient id="paint4_linear_393_2994" x1="26.6004" y1="18.0214" x2="27.0113" y2="19.2711" gradientUnits="userSpaceOnUse">
<stop stop-color="#D9E0EC"/>
<stop offset="1" stop-color="#BFD3EA" stop-opacity="0.79"/>
</linearGradient>
<clipPath id="clip0_393_2994">
<rect width="148" height="42" fill="white"/>
</clipPath>
</defs>
</svg>
