<svg width="120" height="29" viewBox="0 0 120 29" fill="none" xmlns="http://www.w3.org/2000/svg">
<path d="M11.9538 3.37329H9.61108L1.73926 22.5753H4.72904L7.09862 16.698H14.3502L16.7442 22.5753H19.8012L11.9538 3.37329ZM10.7702 7.25867C10.9588 7.84938 11.1477 8.37769 11.331 8.83374L13.3959 14.1231H8.13638L10.2393 8.81302C10.4422 8.27763 10.6194 7.75943 10.7702 7.25867Z" fill="white"/>
<path d="M30.3394 2.70495L29.5878 5.00419L29.2689 4.9008C27.4974 4.33765 26.3476 4.39691 25.795 5.17972C25.4552 5.64729 25.2824 6.43514 25.2824 7.5226V8.08827H28.828V10.3719H25.2824V22.5748H22.5072V10.3797H20.0186V8.86326L22.5072 8.10643V7.57177C22.5072 3.97852 24.13 2.14709 27.3276 2.14709C28.2421 2.17257 29.1482 2.32565 30.0181 2.6018L30.3394 2.70495Z" fill="white"/>
<path d="M39.367 20.0078V22.2752L39.1705 22.3643C38.7985 22.5193 38.4047 22.6217 38.0017 22.6685C37.5624 22.739 37.1178 22.7758 36.6723 22.7786C33.6257 22.7786 32.0276 21.1821 32.0276 18.1646V10.161H29.9062V8.58803L32.086 7.68104L33.0718 4.59802H34.9496V7.84877H39.2478V10.161H34.9359V18.0886C34.9359 18.8488 35.1213 19.4283 35.4897 19.8188C35.6765 20.0126 35.9068 20.164 36.1639 20.262C36.4207 20.3601 36.6977 20.4021 36.9742 20.3852C37.3402 20.3852 37.706 20.3588 38.0682 20.3066C38.3482 20.2679 38.6256 20.2136 38.8988 20.144L39.367 20.0078Z" fill="white"/>
<path d="M53.3463 14.3701C53.3463 12.4378 52.787 10.8559 51.6794 9.66718C50.5715 8.47875 49.0315 7.86633 47.1267 7.86633C45.0977 7.86633 43.4523 8.56342 42.2447 9.9399C41.0369 11.3164 40.4453 13.1506 40.4453 15.4352C40.4453 17.7196 41.0992 19.5229 42.388 20.8196C43.6768 22.1162 45.4678 22.7774 47.6941 22.7774C48.5552 22.7887 49.415 22.7172 50.2608 22.564C51.0376 22.4023 51.795 22.1672 52.5223 21.8616L52.7249 21.7767V19.204L52.2575 19.3971C50.84 19.9865 49.311 20.2936 47.7645 20.2999C46.3731 20.2999 45.3329 19.9243 44.5763 19.1499C43.8764 18.4295 43.4956 17.3748 43.3929 16.0087H53.3383L53.3463 14.3701ZM47.0998 10.2538C48.148 10.2538 48.9261 10.5574 49.4801 11.185C49.9907 11.7665 50.2716 12.6026 50.3176 13.6806H43.4822C43.5719 12.7768 43.949 11.9207 44.5629 11.2261C44.8843 10.8958 45.2784 10.6365 45.7167 10.4671C46.1551 10.2978 46.6273 10.2222 47.0998 10.246V10.2538Z" fill="white"/>
<path d="M65.172 8.07188L64.7862 10.6557L64.452 10.5809C63.9805 10.4703 63.4989 10.4097 63.0147 10.3998C62.5133 10.398 62.018 10.5093 61.5655 10.7259C61.113 10.9422 60.7145 11.2584 60.3999 11.6505C59.6539 12.5347 59.26 13.665 59.2942 14.8236V22.5752H56.5713V8.10535H58.9059L59.091 10.1726C59.5044 9.57894 60.0209 9.06492 60.6159 8.65564C61.3677 8.13933 62.2581 7.86445 63.169 7.86775C63.7427 7.86191 64.3157 7.91466 64.8788 8.02522L65.172 8.07188Z" fill="white"/>
<path d="M69.679 2.14771H66.8838V22.5754H69.679V2.14771Z" fill="white"/>
<path d="M84.1875 9.89811C82.9538 8.54996 81.2699 7.86804 79.1864 7.86804C77.031 7.86804 75.3206 8.53707 74.0975 9.85186C72.8746 11.1667 72.2699 13.0014 72.2699 15.317C72.2387 16.6713 72.5226 18.0149 73.1011 19.2488C73.6211 20.3338 74.4619 21.2462 75.5178 21.8708C76.597 22.4867 77.832 22.8011 79.0853 22.7792C81.2408 22.7792 82.9538 22.1076 84.1875 20.7824C85.421 19.4573 86.0286 17.633 86.0286 15.317C86.0365 13.0554 85.4131 11.2362 84.1875 9.89811ZM79.1465 20.3912C77.8304 20.3912 76.8658 19.9822 76.1998 19.1381C75.5337 18.2941 75.174 16.9922 75.174 15.3145C75.174 13.637 75.5122 12.3349 76.1839 11.5013C76.8553 10.6675 77.8037 10.2841 79.1145 10.2841C80.4255 10.2841 81.4324 10.6857 82.0985 11.5218C82.7646 12.3581 83.1271 13.6446 83.1271 15.3145C83.1271 16.9844 82.7807 18.2891 82.0985 19.1434C81.4165 19.9977 80.4628 20.3912 79.1465 20.3912Z" fill="white"/>
<path d="M101.291 8.12308H96.1366C95.4726 7.94858 94.7867 7.86282 94.0985 7.86829C92.3267 7.86829 90.9346 8.30379 89.9408 9.16487C88.9466 10.0257 88.4406 11.2713 88.4406 12.8505C88.4279 13.7509 88.6853 14.6353 89.1813 15.3977C89.5347 15.9481 90.017 16.4107 90.5892 16.7475C90.239 16.9839 89.9302 17.2727 89.6744 17.6033C89.3577 18.0403 89.1926 18.5628 89.2024 19.096C89.1895 19.576 89.3342 20.0478 89.6164 20.4433C89.7345 20.6012 89.8698 20.7463 90.0199 20.8764C89.3316 21.1008 88.7148 21.4928 88.2296 22.0151C87.6331 22.6654 87.3096 23.5073 87.3225 24.3761C87.3009 24.9816 87.4406 25.5822 87.7289 26.1203C88.0171 26.6583 88.4437 27.1157 88.9677 27.448C90.0225 28.146 91.5148 28.5 93.4211 28.5C95.8782 28.5 97.7818 28.0824 99.0843 27.2596C100.429 26.4114 101.114 25.1606 101.114 23.5433C101.114 22.2696 100.656 21.251 99.7567 20.581C98.8575 19.9111 97.6342 19.585 96.0391 19.585H93.5397C92.6563 19.585 92.2555 19.4602 92.0712 19.3583C91.9694 19.3061 91.8855 19.226 91.8302 19.1284C91.775 19.0304 91.7505 18.9193 91.76 18.8082C91.76 18.2504 92.116 17.7893 92.8515 17.3868C93.2235 17.4455 93.6004 17.4736 93.9772 17.4708C95.7015 17.4708 97.0833 17.043 98.0851 16.1974C98.5877 15.7696 98.9856 15.2389 99.2501 14.6443C99.5146 14.0497 99.6391 13.4056 99.6143 12.7588C99.6172 12.1846 99.5109 11.6146 99.3005 11.0777C99.1947 10.8142 99.0687 10.5589 98.9234 10.3135L101.296 10.0436L101.291 8.12308ZM93.4448 26.2993C92.3109 26.2993 91.4357 26.1236 90.8476 25.7746C90.5905 25.6359 90.3782 25.4305 90.2353 25.1817C90.0921 24.9329 90.0241 24.6503 90.0383 24.3659C90.0383 23.6172 90.2677 23.0671 90.7342 22.6798C91.201 22.2927 91.9024 22.0864 92.7882 22.0864H95.3458C96.8855 22.0864 97.5498 22.2928 97.8372 22.4658C98.209 22.6925 98.391 23.1051 98.391 23.7395C98.391 24.5036 98.0192 25.1149 97.2492 25.5785C96.4794 26.042 95.1665 26.2993 93.4448 26.2993ZM94.0273 15.3925C93.1231 15.3925 92.4111 15.171 91.9182 14.7429C91.4251 14.3151 91.1983 13.6808 91.1983 12.8122C91.1983 11.8773 91.4409 11.1694 91.9156 10.7108C92.39 10.2524 93.0888 10.0232 93.9957 10.0232C95.9309 10.0232 96.8354 10.8967 96.8354 12.774C96.8354 14.5595 95.9441 15.3925 94.0273 15.3925Z" fill="white"/>
<path d="M106.871 26.8737C106.891 27.0967 106.859 27.3207 106.779 27.5317C106.698 27.7426 106.57 27.9355 106.402 28.0976C106.093 28.3561 105.691 28.4994 105.273 28.4994C104.855 28.4994 104.452 28.3561 104.143 28.0976C103.972 27.9367 103.841 27.7446 103.757 27.5337C103.673 27.3228 103.638 27.098 103.656 26.8737C103.64 26.6502 103.675 26.4257 103.758 26.215C103.841 26.0046 103.971 25.812 104.14 25.6501C104.44 25.3803 104.844 25.23 105.263 25.2315C105.475 25.2262 105.685 25.2604 105.882 25.3321C106.078 25.4035 106.257 25.5108 106.408 25.6476C106.572 25.8118 106.698 26.0053 106.778 26.2163C106.858 26.4272 106.89 26.6512 106.871 26.8737Z" fill="white"/>
<path d="M106.877 8.07202H103.651V23.3928H106.877V8.07202Z" fill="white"/>
<path d="M119.241 19.6021L119.701 19.4221V21.9435L119.517 22.0335C118.503 22.5223 117.233 22.7796 115.719 22.7796C113.544 22.7796 111.825 22.126 110.621 20.8345C109.417 19.5429 108.818 17.7267 108.818 15.411C108.818 13.0389 109.435 11.1709 110.648 9.86137C111.86 8.55188 113.611 7.86743 115.865 7.86743C116.589 7.86768 117.311 7.94174 118.019 8.08859C118.612 8.19601 119.187 8.37773 119.73 8.62896L119.999 8.75761L119.113 11.1067L118.791 10.9805C118.293 10.7963 117.779 10.6484 117.26 10.538C116.789 10.4298 116.304 10.3712 115.82 10.3631C113.091 10.3631 111.763 12.0097 111.763 15.393C111.763 17.0089 112.1 18.2539 112.768 19.0953C113.436 19.9367 114.385 20.3227 115.679 20.3227C116.903 20.3062 118.112 20.0616 119.241 19.6021Z" fill="white"/>
</svg>
