<svg viewBox="0 0 1200 140" fill="none" xmlns="http://www.w3.org/2000/svg">
  <g clip-path="url(#clip0_1024_12767)">
    <path
      d="M630.271 106.181C630.271 107.532 629.943 108.487 629.287 109.046C628.679 109.558 626.5 110.117 622.751 110.723C619.049 111.375 614.362 111.701 608.692 111.701C598.664 111.701 590.673 108.65 584.723 102.549C578.817 96.4482 575.865 87.9258 575.865 76.9816V63.6391C575.865 52.695 578.817 44.1725 584.723 38.0717C590.673 31.9709 598.664 28.9205 608.692 28.9205C614.503 28.9205 619.236 29.2465 622.891 29.8985C626.593 30.5505 628.749 31.1326 629.358 31.6449C629.967 32.1572 630.271 33.0886 630.271 34.4392V43.7999C630.271 45.197 629.405 45.8956 627.671 45.8956H627.249C621.907 45.2436 615.721 44.9176 608.692 44.9176C599.46 44.9176 594.844 51.158 594.844 63.6391V76.9816C594.844 89.4627 599.46 95.7031 608.692 95.7031C613.144 95.7031 616.682 95.61 619.306 95.4237L627.249 94.7251H627.671C629.405 94.7251 630.271 95.4237 630.271 96.8208V106.181Z"
      fill="white" />
    <path
      d="M541.525 124.158C541.525 123.367 541.806 122.691 542.369 122.133C542.931 121.574 543.611 121.294 544.408 121.294H558.395C559.192 121.294 559.895 121.574 560.504 122.133C561.113 122.691 561.417 123.367 561.417 124.158V136.733C561.417 137.524 561.113 138.199 560.504 138.758C559.895 139.317 559.192 139.596 558.395 139.596H544.408C543.611 139.596 542.931 139.317 542.369 138.758C541.806 138.199 541.525 137.524 541.525 136.733V124.158ZM541.947 32.8563C541.947 32.0646 542.251 31.3661 542.861 30.7607C543.424 30.1552 544.08 29.8525 544.829 29.8525H558.115C558.864 29.8525 559.544 30.1552 560.153 30.7607C560.715 31.3661 560.996 32.0646 560.996 32.8563V107.672C560.996 108.464 560.715 109.14 560.153 109.699C559.59 110.258 558.911 110.537 558.115 110.537H544.829C544.08 110.537 543.423 110.258 542.861 109.699C542.251 109.14 541.947 108.464 541.947 107.672V32.8563Z"
      fill="white" />
    <path
      d="M529.61 39.7482C529.61 41.0521 529.352 41.8672 528.837 42.1932C528.368 42.4726 526.259 43.3341 522.511 44.7779C524.947 48.0843 526.165 51.9032 526.165 56.2343V57.2122C526.165 74.5832 514.778 83.2687 492.004 83.2687C485.724 83.2687 480.498 82.4536 476.328 80.8237C474.688 81.8948 473.868 83.129 473.868 84.526C473.868 86.9012 475.11 88.3915 477.593 88.9968L495.729 93.2582C503.93 95.1676 510.092 96.8674 514.216 98.3576C518.386 99.8014 521.714 101.92 524.197 104.715C526.728 107.509 527.993 111.328 527.993 116.171V117.149C527.993 132.145 516.231 139.642 492.706 139.642C481.225 139.642 472.391 137.57 466.206 133.425C460.067 129.327 456.998 123.483 456.998 115.891V114.564C456.998 108.603 459.458 103.364 464.378 98.8466C460.067 95.4935 457.911 91.1158 457.911 85.7137V85.5739C457.911 80.5908 459.833 76.7255 463.676 73.9778C459.739 70.0193 457.771 64.4307 457.771 57.2122V56.2343C457.771 47.9912 460.7 41.5411 466.558 36.8841C472.415 32.227 480.897 29.8984 492.004 29.8984H525.674C526.751 29.8984 527.665 30.271 528.415 31.0162C529.212 31.7613 529.61 32.6694 529.61 33.7406V39.7482ZM507.397 57.6314V56.5137C507.397 52.1827 506.132 49.0857 503.602 47.2228C501.071 45.3134 497.205 44.3587 492.004 44.3587C481.647 44.3587 476.468 48.4103 476.468 56.5137V57.6314C476.468 65.1759 481.647 68.9481 492.004 68.9481C497.346 68.9481 501.235 68.1099 503.672 66.4333C506.156 64.7102 507.397 61.7762 507.397 57.6314ZM509.014 117.149V116.171C509.014 114.075 507.562 112.446 504.656 111.281C501.751 110.117 493.268 107.882 479.21 104.575C476.82 107.602 475.625 110.932 475.625 114.564V115.891C475.625 119.384 477.007 121.83 479.772 123.227C482.537 124.623 486.849 125.322 492.706 125.322C498.189 125.322 502.266 124.809 504.937 123.786C507.655 122.761 509.014 120.548 509.014 117.149Z"
      fill="white" />
    <path
      d="M446.558 76.0736C446.558 86.9245 443.488 95.5867 437.349 102.06C431.258 108.487 422.869 111.701 412.185 111.701C401.453 111.701 393.018 108.487 386.879 102.06C380.788 95.5867 377.742 86.9245 377.742 76.0736V64.5473C377.742 53.6962 380.788 45.0573 386.879 38.6305C393.018 32.1572 401.453 28.9205 412.185 28.9205C422.869 28.9205 431.258 32.1572 437.349 38.6305C443.488 45.0573 446.558 53.6962 446.558 64.5473V76.0736ZM427.579 76.0736V64.5473C427.579 58.4464 426.22 53.6962 423.502 50.2966C420.831 46.8968 417.058 45.197 412.185 45.197C407.311 45.197 403.516 46.8968 400.797 50.2966C398.127 53.6962 396.791 58.4464 396.791 64.5473V76.0736C396.791 82.0812 398.103 86.8081 400.727 90.2543C403.399 93.7006 407.218 95.4237 412.185 95.4237C417.058 95.4237 420.831 93.7239 423.502 90.3242C426.22 86.9245 427.579 82.1743 427.579 76.0736Z"
      fill="white" />
    <path
      d="M362.17 107.578C362.17 108.37 361.889 109.069 361.327 109.674C360.811 110.28 360.178 110.583 359.429 110.583H346.002C345.253 110.583 344.573 110.28 343.964 109.674C343.402 109.069 343.121 108.37 343.121 107.578V4.54063C343.121 3.79549 343.402 3.1435 343.964 2.58465C344.527 1.97923 345.206 1.67651 346.002 1.67651H359.429C360.178 1.67651 360.811 1.95594 361.327 2.5148C361.889 3.07364 362.17 3.74892 362.17 4.54063V107.578Z"
      fill="white" />
    <path
      d="M331.627 42.0535C331.627 42.8452 331.346 43.5205 330.784 44.0794C330.222 44.6381 329.542 44.9176 328.745 44.9176C321.997 44.9176 315.366 46.6407 308.852 50.087V107.578C308.852 108.37 308.571 109.069 308.009 109.674C307.446 110.28 306.767 110.583 305.971 110.583H292.755C292.006 110.583 291.326 110.28 290.717 109.674C290.155 109.069 289.873 108.37 289.873 107.578V32.7626C289.873 31.9709 290.155 31.2956 290.717 30.7368C291.28 30.1779 291.958 29.8985 292.755 29.8985H305.267C306.064 29.8985 306.744 30.1779 307.305 30.7368C307.868 31.2956 308.15 31.9709 308.15 32.7626V35.7664C314.148 31.2025 321.013 28.9205 328.745 28.9205C329.542 28.9205 330.222 29.1999 330.784 29.7588C331.346 30.3177 331.627 30.9929 331.627 31.7846V42.0535Z"
      fill="white" />
    <path
      d="M275.005 73.2094C275.005 75.6311 274.044 76.8419 272.124 76.8419H225.238V77.2611C225.238 82.2907 226.55 86.5753 229.175 90.1146C231.799 93.654 236.228 95.4237 242.46 95.4237C247.099 95.4237 251.715 95.2607 256.308 94.9347L268.96 93.9568H269.382C271.116 93.9568 271.983 94.6785 271.983 96.1223V105.553C271.983 107.416 271.514 108.534 270.577 108.906C269.639 109.232 266.594 109.791 261.439 110.583C256.331 111.328 249.537 111.701 241.054 111.701C231.073 111.701 222.755 108.627 216.1 102.479C209.492 96.3319 206.189 87.4369 206.189 75.7941V65.2458C206.189 53.929 209.235 45.0573 215.327 38.6305C221.466 32.1572 229.948 28.9205 240.772 28.9205C251.41 28.9205 259.775 32.2038 265.868 38.7703C271.959 45.3367 275.005 54.1619 275.005 65.2458V73.2094ZM255.886 63.3597V62.8008C255.886 57.352 254.503 53.0675 251.738 49.9473C248.974 46.7804 245.319 45.197 240.772 45.197C236.134 45.197 232.408 46.7804 229.596 49.9473C226.785 53.0675 225.379 57.352 225.379 62.8008V63.3597H255.886Z"
      fill="white" />
    <path
      d="M199.757 108.137C199.757 108.836 199.522 109.441 199.053 109.954C198.632 110.419 196.992 110.816 194.133 111.142C191.275 111.514 188.978 111.701 187.245 111.701C177.544 111.701 171.288 109.977 168.477 106.531C165.712 103.038 164.33 97.1935 164.33 88.9969V44.0794C155.285 42.7289 150.552 42.007 150.13 41.9138C149.709 41.8207 149.24 41.5412 148.724 41.0756C148.208 40.5633 147.951 39.9346 147.951 39.1894V32.7626C147.951 31.971 148.232 31.2957 148.794 30.7368C149.357 30.1779 150.037 29.8985 150.833 29.8985H164.33V18.1627C164.33 17.371 164.61 16.7423 165.173 16.2765C165.735 15.7643 167.399 15.2753 170.163 14.8096C172.928 14.3439 176.419 13.7385 180.637 12.9933H181.2C182.746 12.9933 183.519 13.7152 183.519 15.1589V29.8985H196.453C197.25 29.8985 197.929 30.1779 198.491 30.7368C199.053 31.2957 199.335 31.971 199.335 32.7626V41.2152C199.335 42.007 199.053 42.6823 198.491 43.2412C197.929 43.7999 197.25 44.0794 196.453 44.0794H183.519V88.9969C183.519 92.1638 183.706 94.2828 184.082 95.3539C184.503 96.425 186.19 96.9606 189.142 96.9606H196.734C198.749 96.9606 199.757 97.6825 199.757 99.1262V108.137Z"
      fill="white" />
    <path
      d="M143.555 11.8756C143.555 13.5055 142.829 14.3206 141.376 14.3206H134.909C131.395 14.3206 129.098 14.8793 128.021 15.9971C126.943 17.0682 126.404 19.3734 126.404 22.9129V29.8985H140.252C141.048 29.8985 141.728 30.1779 142.29 30.7367C142.853 31.2956 143.133 31.9709 143.133 32.7626V41.355C143.133 42.1 142.853 42.752 142.29 43.3109C141.728 43.8232 141.048 44.0794 140.252 44.0794H126.404V107.578C126.404 108.37 126.123 109.069 125.56 109.674C124.999 110.28 124.319 110.583 123.522 110.583H110.448C109.651 110.583 108.948 110.28 108.339 109.674C107.73 109.069 107.425 108.37 107.425 107.578V44.0794C98.8495 42.7288 94.3274 42.0069 93.8587 41.9137C93.437 41.8207 92.9684 41.5645 92.4529 41.1454C91.9842 40.6796 91.75 40.0742 91.75 39.3291V32.7626C91.75 31.9709 92.0311 31.2956 92.5935 30.7367C93.1559 30.1779 93.8353 29.8985 94.6319 29.8985H107.425V22.9129C107.425 15.0424 109.3 9.2676 113.048 5.5885C116.797 1.86284 123.218 0 132.309 0C133.668 0 135.87 0.232855 138.916 0.698563C142.01 1.16427 143.555 2.0724 143.555 3.42296V11.8756Z"
      fill="white" />
    <path
      d="M27.8887 80.9634L23.6009 98.4276C22.0076 105.041 21.1406 108.534 21.0001 108.906C20.9063 109.232 20.6017 109.605 20.0863 110.024C19.6177 110.397 19.1022 110.583 18.5398 110.583H3.28636C1.55248 110.583 0.685547 109.767 0.685547 108.137C0.685547 108.044 0.732409 107.811 0.826131 107.439L24.4444 17.7435C26.9749 8.01021 33.6527 3.14355 44.4777 3.14355C55.2559 3.14355 61.9102 8.01021 64.4408 17.7435L88.1996 108.137C88.1996 109.767 87.3326 110.583 85.5987 110.583H70.3454C68.8926 110.583 67.9788 109.791 67.6039 108.208L60.9965 80.9634H27.8887ZM57.1304 64.687L49.7497 34.4392C47.5471 25.4976 46.3053 20.8405 46.0241 20.4679C45.743 20.0953 45.2275 19.909 44.4777 19.909C43.3531 19.909 42.6735 20.3049 42.4393 21.0966L31.7548 64.687H57.1304Z"
      fill="white" />
    <path fill-rule="evenodd" clip-rule="evenodd"
      d="M1166.43 5.97767C1154.49 5.97767 1145.21 8.58631 1138.5 13.7126C1131.81 18.8158 1128.46 25.9159 1128.46 35.1097C1128.46 40.0587 1129.25 44.3037 1130.79 47.865C1132.38 51.4297 1134.79 54.5979 1138.04 57.3698C1141.34 60.1442 1146.29 63.0431 1152.97 66.0569C1160.35 69.352 1164.95 71.5647 1166.69 72.6735C1168.46 73.7665 1169.8 74.8971 1170.63 76.0812C1171.54 77.2476 1171.98 78.6213 1171.98 80.167C1171.98 82.6617 1170.89 84.7204 1168.79 86.2971L1168.78 86.3042C1166.66 87.8455 1163.43 88.5478 1159.26 88.5478C1154.4 88.5478 1149.08 87.7905 1143.31 86.2873V86.2859C1137.94 84.8432 1132.76 82.8924 1127.76 80.4337V103.293C1132.58 105.536 1137.19 107.122 1141.62 108.057C1146.2 108.975 1151.89 109.439 1158.69 109.439C1166.81 109.439 1173.85 108.102 1179.81 105.454C1185.8 102.758 1190.33 99.028 1193.48 94.2763C1196.62 89.4742 1198.2 83.9877 1198.2 77.7919C1198.2 71.0307 1196.5 65.4993 1193.16 61.1421L1193.15 61.135C1189.85 56.725 1183.85 52.5301 1175.03 48.5924V48.5906C1170.42 46.4925 1166.67 44.7175 1163.82 43.2665C1160.99 41.8229 1158.99 40.6789 1157.88 39.8427L1157.87 39.8377C1155.68 38.1556 1154.48 36.159 1154.48 33.8524C1154.48 31.7247 1155.43 29.9502 1157.23 28.5651C1159.08 27.1519 1161.91 26.5194 1165.58 26.5194C1172.53 26.5194 1180.7 28.6405 1190.05 32.8217L1197.98 12.9499C1187.24 8.29564 1176.73 5.97767 1166.43 5.97767ZM1137.56 12.4974C1144.63 7.09869 1154.27 4.44482 1166.43 4.44482C1177.18 4.44482 1188.14 6.91835 1199.28 11.8459L1199.96 12.1449L1190.88 34.8856L1190.15 34.549C1180.6 30.1959 1172.41 28.0523 1165.58 28.0523C1162.04 28.0523 1159.62 28.6773 1158.18 29.7788C1156.71 30.9086 1156.02 32.2543 1156.02 33.8524C1156.02 35.5497 1156.88 37.1383 1158.81 38.6222C1159.8 39.3695 1161.7 40.4601 1164.52 41.9023C1167.35 43.3384 1171.06 45.1026 1175.67 47.1956C1184.57 51.1728 1190.85 55.4979 1194.39 60.2128C1197.97 64.8903 1199.74 70.7685 1199.74 77.7919C1199.74 84.2623 1198.09 90.0449 1194.77 95.1153V95.118C1191.44 100.145 1186.66 104.053 1180.45 106.852V106.854C1174.24 109.608 1166.98 110.972 1158.69 110.972C1151.82 110.972 1146.03 110.504 1141.32 109.56V109.558C1136.61 108.565 1131.72 106.867 1126.66 104.471L1126.22 104.262V77.9342L1127.34 78.5073C1132.6 81.1836 1138.05 83.2829 1143.71 84.8056C1149.38 86.2823 1154.56 87.015 1159.26 87.015C1163.32 87.015 1166.14 86.3215 1167.87 85.0709C1169.6 83.7607 1170.44 82.1414 1170.44 80.167C1170.44 78.9252 1170.09 77.8827 1169.4 77.0031L1169.39 76.9879L1169.38 76.9722C1168.71 76.0209 1167.57 75.0154 1165.88 73.9721L1165.87 73.967C1164.25 72.933 1159.75 70.7691 1152.33 67.4537V67.4524C1145.6 64.4126 1140.49 61.4442 1137.04 58.5375V58.5341C1133.62 55.6253 1131.07 52.275 1129.38 48.4833V48.4758C1127.73 44.6799 1126.92 40.2179 1126.92 35.1097C1126.92 25.489 1130.46 17.9193 1137.56 12.4974Z"
      fill="white" />
    <path fill-rule="evenodd" clip-rule="evenodd"
      d="M1034.91 5.91187H1064.36V48.0971C1065.96 45.4226 1068.34 41.8988 1071.46 37.5356L1071.47 37.5298L1093.26 5.91187H1125.52L1092.55 52.4802L1124.79 109.575H1091.65L1071.51 70.8349L1064.36 75.083V109.575H1034.91V5.91187ZM1036.45 7.44471V108.042H1062.82V74.2139L1072.11 68.6822L1092.6 108.042H1122.16L1090.73 52.388L1122.55 7.44471H1094.08L1072.73 38.4071L1072.72 38.418C1068.45 44.3786 1065.66 48.6922 1064.28 51.3844L1062.82 51.0371V7.44471H1036.45Z"
      fill="white" />
    <path fill-rule="evenodd" clip-rule="evenodd"
      d="M940.361 5.91187H974.802C988.837 5.91187 999.503 8.43523 1006.68 13.6022C1013.89 18.8023 1017.47 26.5999 1017.47 36.8562C1017.47 48.7502 1011.72 58.0008 1000.37 64.5673L1030.65 109.575H997.274L975.484 72.4111H969.669V109.575H940.361V5.91187ZM941.904 7.44471V108.042H968.127V70.8782H976.371L998.161 108.042H1027.76L998.16 64.0465L998.887 63.6412C1010.3 57.2837 1015.93 48.3699 1015.93 36.8562C1015.93 26.994 1012.52 19.7025 1005.77 14.8433C998.979 9.951 988.698 7.44471 974.802 7.44471H941.904ZM968.127 26.7989H974.381C979.211 26.7989 982.973 27.6875 985.543 29.5874C988.156 31.519 989.421 34.4081 989.421 38.1136C989.421 42.5191 988.164 45.9561 985.523 48.2756C982.901 50.5792 979.047 51.6637 974.099 51.6637H968.127V26.7989ZM969.669 28.3317V50.1309H974.099C978.853 50.1309 982.274 49.0848 984.502 47.1272C986.712 45.1855 987.879 42.2306 987.879 38.1136C987.879 34.7869 986.766 32.4018 984.623 30.8174C982.436 29.2012 979.064 28.3317 974.381 28.3317H969.669Z"
      fill="white" />
    <path fill-rule="evenodd" clip-rule="evenodd"
      d="M875.618 5.83802C859.453 5.83802 847.242 10.2889 838.852 19.0812C830.504 27.8338 826.271 40.5862 826.271 57.4638C826.271 74.5282 830.528 87.3959 838.922 96.1943C847.359 104.99 859.504 109.439 875.477 109.439C891.691 109.439 903.878 105.01 912.171 96.2672C920.472 87.5161 924.684 74.6711 924.684 57.6035C924.684 40.4874 920.495 27.6433 912.241 18.9398C903.995 10.2444 891.834 5.83802 875.618 5.83802ZM837.733 18.0265C846.496 8.84251 859.167 4.30518 875.618 4.30518C892.113 4.30518 904.74 8.79389 913.364 17.8885C921.981 26.9751 926.227 40.2573 926.227 57.6035C926.227 74.9052 921.956 88.1865 913.294 97.3186C904.624 106.459 891.973 110.972 875.477 110.972C859.211 110.972 846.612 106.433 837.805 97.2519L837.803 97.2504C829.046 88.0725 824.729 74.7679 824.729 57.4638C824.729 40.3447 829.024 27.1571 837.733 18.0265ZM859.327 34.7427C862.972 29.5218 868.448 26.9386 875.618 26.9386C882.669 26.9386 888.055 29.4735 891.643 34.5986C895.248 39.6355 896.985 47.3492 896.985 57.6035C896.985 67.8114 895.27 75.4792 891.713 80.4698C888.165 85.511 882.702 87.989 875.477 87.989C868.354 87.989 862.915 85.4298 859.292 80.2556C855.705 75.1319 853.97 67.5419 853.97 57.6035C853.97 47.5723 855.717 39.9128 859.327 34.7427ZM860.594 35.6166C857.245 40.4127 855.512 47.7023 855.512 57.6035C855.512 67.4113 857.233 74.6308 860.558 79.3801C863.848 84.079 868.776 86.4562 875.477 86.4562C882.31 86.4562 887.25 84.1385 890.45 79.5883L890.453 79.5842C893.736 74.9812 895.442 67.6999 895.442 57.6035C895.442 47.462 893.713 40.1343 890.384 35.4843L890.379 35.4775C887.124 30.8252 882.248 28.4714 875.618 28.4714C868.87 28.4714 863.908 30.8713 860.594 35.6166Z"
      fill="white" />
    <path fill-rule="evenodd" clip-rule="evenodd"
      d="M672.68 5.91187H701.068L712.375 57.7167C714.315 66.3863 715.788 73.7135 716.795 79.6949C717.414 75.7172 718.25 70.9601 719.3 65.4251L719.301 65.421C720.895 57.2668 722.373 50.5013 723.737 45.1282L732.942 5.91187H759.897L768.817 45.1295C768.817 45.1315 768.818 45.1355 768.818 45.1355C770.322 51.343 771.847 58.5022 773.394 66.6119C774.377 71.7625 775.154 76.0923 775.721 79.5984C776.588 74.3194 778.004 67.0714 779.966 57.864L779.967 57.8577L791.488 5.91187H819.874L794.188 109.575H760.137L750.166 64.4847C749.689 62.5917 748.937 58.8697 747.908 53.3419L747.907 53.3357C747.347 50.1797 746.87 47.3152 746.475 44.743C746.177 46.5774 745.824 48.5824 745.418 50.7577V50.7591C744.574 55.2353 743.728 59.364 742.883 63.1448C742.083 66.9313 738.685 82.2113 732.69 108.975L732.555 109.575H698.507L672.68 5.91187ZM674.65 7.44471L699.714 108.042H731.319C737.234 81.6321 740.585 66.5632 741.375 62.8251L741.377 62.8162C742.218 59.0536 743.06 54.9405 743.902 50.4767C744.743 45.9685 745.35 42.2133 745.722 39.2076L747.253 39.2062C747.719 42.9139 748.443 47.5333 749.426 53.0671C750.458 58.6104 751.203 62.2883 751.665 64.1238L751.667 64.1345L761.377 108.042H792.979L817.904 7.44471H792.727L781.475 58.1814V58.1836C778.756 70.9438 777.1 79.8766 776.496 85.0065L774.965 85.0146C774.452 81.0334 773.425 74.9978 771.879 66.8975C770.334 58.8031 768.813 51.6671 767.317 45.4881L767.315 45.4778L758.664 7.44471H734.166L725.234 45.4962C723.88 50.8328 722.407 57.5699 720.815 65.711C719.27 73.8541 718.195 80.2864 717.59 85.0143L716.061 85.0227C715.127 78.3463 713.398 69.3578 710.87 58.0492L710.869 58.0455L699.824 7.44471H674.65Z"
      fill="white" />
    <path fill-rule="evenodd" clip-rule="evenodd"
      d="M664.529 84.3242C660.1 84.3242 656.831 85.4729 654.608 87.6529C652.436 89.8263 651.308 92.9414 651.308 97.1156C651.308 101.228 652.492 104.317 654.792 106.496C657.113 108.693 660.33 109.837 664.529 109.837C668.593 109.837 671.671 108.696 673.857 106.51C676.081 104.284 677.226 101.186 677.226 97.1156C677.226 92.9356 676.117 89.8182 673.983 87.6458C671.846 85.4687 668.732 84.3242 664.529 84.3242ZM653.64 86.5083C656.217 83.9793 659.884 82.7737 664.529 82.7737C668.964 82.7737 672.482 83.9844 674.969 86.518C677.461 89.0562 678.663 92.6279 678.663 97.1156C678.663 101.524 677.408 105.068 674.834 107.647C672.308 110.172 668.842 111.387 664.529 111.387C660.089 111.387 656.499 110.175 653.846 107.661C651.173 105.13 649.871 101.577 649.871 97.1156C649.871 92.6235 651.098 89.0502 653.636 86.5131L653.64 86.5083Z"
      fill="white" />
  </g>
  <defs>
    <clipPath id="clip0_1024_12767">
      <rect width="1200" height="140" fill="white" />
    </clipPath>
  </defs>
</svg>
  