<svg viewBox="0 0 320 134" fill="none" xmlns="http://www.w3.org/2000/svg">
  <path
    d="M320.139 53.9332C320.139 54.6194 319.972 55.1045 319.639 55.3884C319.33 55.6485 318.223 55.9324 316.319 56.2402C314.439 56.5709 312.058 56.7365 309.178 56.7365C304.084 56.7365 300.025 55.1873 297.003 52.0883C294.003 48.9895 292.504 44.6606 292.504 39.1017V32.3245C292.504 26.7656 294.003 22.4367 297.003 19.3379C300.025 16.2391 304.084 14.6897 309.178 14.6897C312.13 14.6897 314.534 14.8553 316.39 15.1865C318.271 15.5176 319.366 15.8133 319.675 16.0735C319.984 16.3337 320.139 16.8068 320.139 17.4928V22.2475C320.139 22.9571 319.699 23.312 318.818 23.312H318.604C315.89 22.9808 312.748 22.8152 309.178 22.8152C304.489 22.8152 302.144 25.9849 302.144 32.3245V39.1017C302.144 45.4412 304.489 48.611 309.178 48.611C311.439 48.611 313.236 48.5637 314.569 48.4691L318.604 48.1143H318.818C319.699 48.1143 320.139 48.4691 320.139 49.1787V53.9332Z"
    fill="white" />
  <path
    d="M275.061 63.0644C275.061 62.6626 275.203 62.3193 275.489 62.0358C275.775 61.7519 276.12 61.6097 276.525 61.6097H283.629C284.034 61.6097 284.391 61.7519 284.701 62.0358C285.01 62.3193 285.164 62.6626 285.164 63.0644V69.4517C285.164 69.8535 285.01 70.1963 284.701 70.4803C284.391 70.7642 284.034 70.9059 283.629 70.9059H276.525C276.12 70.9059 275.775 70.7642 275.489 70.4803C275.203 70.1963 275.061 69.8535 275.061 69.4517V63.0644ZM275.275 16.6889C275.275 16.2868 275.429 15.932 275.739 15.6245C276.025 15.317 276.358 15.1632 276.739 15.1632H283.487C283.868 15.1632 284.213 15.317 284.522 15.6245C284.808 15.932 284.951 16.2868 284.951 16.6889V54.6906C284.951 55.0929 284.808 55.4362 284.522 55.7202C284.236 56.0041 283.892 56.1458 283.487 56.1458H276.739C276.358 56.1458 276.025 56.0041 275.739 55.7202C275.429 55.4362 275.275 55.0929 275.275 54.6906V16.6889Z"
    fill="white" />
  <path
    d="M269.009 20.1896C269.009 20.8519 268.878 21.2659 268.617 21.4315C268.378 21.5734 267.307 22.011 265.403 22.7444C266.641 24.4238 267.259 26.3636 267.259 28.5635V29.0602C267.259 37.8836 261.476 42.2952 249.908 42.2952C246.718 42.2952 244.063 41.8812 241.945 41.0533C241.112 41.5974 240.696 42.2243 240.696 42.9339C240.696 44.1403 241.327 44.8973 242.588 45.2048L251.8 47.3693C255.965 48.3391 259.095 49.2025 261.19 49.9594C263.308 50.6928 264.999 51.7689 266.26 53.1886C267.545 54.6078 268.188 56.5476 268.188 59.0075V59.5043C268.188 67.1213 262.214 70.9293 250.264 70.9293C244.433 70.9293 239.946 69.8769 236.804 67.7715C233.686 65.6899 232.127 62.7216 232.127 58.8653V58.1913C232.127 55.1635 233.376 52.5024 235.876 50.2078C233.686 48.5047 232.591 46.2811 232.591 43.5371V43.4661C232.591 40.935 233.567 38.9717 235.519 37.5761C233.519 35.5654 232.52 32.7267 232.52 29.0602V28.5635C232.52 24.3765 234.007 21.1003 236.983 18.7348C239.958 16.3693 244.266 15.1865 249.908 15.1865H267.01C267.557 15.1865 268.021 15.3758 268.402 15.7543C268.807 16.1328 269.009 16.594 269.009 17.1381V20.1896ZM257.726 29.2731V28.7054C257.726 26.5055 257.084 24.9325 255.799 23.9862C254.513 23.0164 252.55 22.5314 249.908 22.5314C244.647 22.5314 242.016 24.5894 242.016 28.7054V29.2731C242.016 33.1053 244.647 35.0213 249.908 35.0213C252.621 35.0213 254.597 34.5955 255.834 33.7439C257.096 32.8687 257.726 31.3784 257.726 29.2731ZM258.548 59.5043V59.0075C258.548 57.9429 257.81 57.1155 256.334 56.5237C254.859 55.9325 250.55 54.7972 243.409 53.1175C242.195 54.655 241.588 56.3464 241.588 58.1913V58.8653C241.588 60.6395 242.29 61.8819 243.695 62.5915C245.099 63.3006 247.289 63.6557 250.264 63.6557C253.049 63.6557 255.12 63.3951 256.477 62.8755C257.858 62.3548 258.548 61.2308 258.548 59.5043Z"
    fill="white" />
  <path
    d="M226.823 38.6404C226.823 44.152 225.264 48.5519 222.146 51.84C219.052 55.1045 214.791 56.7365 209.364 56.7365C203.913 56.7365 199.628 55.1045 196.51 51.84C193.416 48.5519 191.869 44.152 191.869 38.6404V32.7858C191.869 27.2742 193.416 22.8862 196.51 19.6218C199.628 16.3337 203.913 14.6897 209.364 14.6897C214.791 14.6897 219.052 16.3337 222.146 19.6218C225.264 22.8862 226.823 27.2742 226.823 32.7858V38.6404ZM217.183 38.6404V32.7858C217.183 29.687 216.493 27.2742 215.112 25.5474C213.756 23.8205 211.839 22.9571 209.364 22.9571C206.888 22.9571 204.961 23.8205 203.58 25.5474C202.223 27.2742 201.545 29.687 201.545 32.7858V38.6404C201.545 41.692 202.211 44.0929 203.544 45.8434C204.901 47.5938 206.841 48.4691 209.364 48.4691C211.839 48.4691 213.756 47.6057 215.112 45.8789C216.493 44.152 217.183 41.7392 217.183 38.6404Z"
    fill="white" />
  <path
    d="M183.959 54.6428C183.959 55.0451 183.816 55.4001 183.531 55.7074C183.269 56.0152 182.947 56.1691 182.567 56.1691H175.747C175.366 56.1691 175.021 56.0152 174.711 55.7074C174.426 55.4001 174.283 55.0451 174.283 54.6428V2.30635C174.283 1.92787 174.426 1.5967 174.711 1.31284C174.997 1.00533 175.342 0.851562 175.747 0.851562H182.567C182.947 0.851562 183.269 0.993495 183.531 1.27736C183.816 1.56122 183.959 1.90422 183.959 2.30635V54.6428Z"
    fill="white" />
  <path
    d="M168.445 21.3604C168.445 21.7626 168.302 22.1056 168.017 22.3894C167.731 22.6732 167.386 22.8152 166.981 22.8152C163.553 22.8152 160.185 23.6904 156.876 25.4409V54.6428C156.876 55.045 156.734 55.4001 156.448 55.7074C156.162 56.0152 155.817 56.1691 155.413 56.1691H148.7C148.32 56.1691 147.974 56.0152 147.665 55.7074C147.38 55.4001 147.236 55.045 147.236 54.6428V16.6412C147.236 16.2391 147.38 15.8961 147.665 15.6122C147.951 15.3284 148.295 15.1865 148.7 15.1865H155.056C155.46 15.1865 155.806 15.3284 156.091 15.6122C156.377 15.8961 156.52 16.2391 156.52 16.6412V18.167C159.566 15.8488 163.053 14.6897 166.981 14.6897C167.386 14.6897 167.731 14.8316 168.017 15.1155C168.302 15.3993 168.445 15.7423 168.445 16.1445V21.3604Z"
    fill="white" />
  <path
    d="M139.685 37.1856C139.685 38.4157 139.196 39.0307 138.221 39.0307H114.406V39.2437C114.406 41.7984 115.073 43.9747 116.406 45.7724C117.739 47.5702 119.988 48.4691 123.154 48.4691C125.51 48.4691 127.855 48.3863 130.188 48.2207L136.614 47.724H136.828C137.709 47.724 138.15 48.0906 138.15 48.8239V53.6142C138.15 54.5605 137.911 55.1283 137.435 55.3173C136.959 55.4829 135.412 55.7668 132.794 56.1691C130.199 56.547 126.749 56.7365 122.44 56.7365C117.37 56.7365 113.145 55.1756 109.765 52.0528C106.408 48.9304 104.73 44.4123 104.73 38.4985V33.1406C104.73 27.3924 106.278 22.8862 109.372 19.6218C112.49 16.3337 116.799 14.6897 122.296 14.6897C127.7 14.6897 131.949 16.3574 135.044 19.6928C138.137 23.0281 139.685 27.5107 139.685 33.1406V37.1856ZM129.973 32.1826V31.8987C129.973 29.1311 129.271 26.9548 127.866 25.37C126.463 23.7614 124.606 22.9571 122.296 22.9571C119.941 22.9571 118.048 23.7614 116.62 25.37C115.192 26.9548 114.478 29.1311 114.478 31.8987V32.1826H129.973Z"
    fill="white" />
  <path
    d="M101.465 54.9267C101.465 55.2818 101.345 55.5891 101.107 55.8497C100.893 56.0858 100.06 56.2875 98.6079 56.4531C97.1562 56.642 95.9895 56.737 95.1092 56.737C90.1818 56.737 87.0041 55.8613 85.5763 54.111C84.1719 52.3368 83.4699 49.3681 83.4699 45.2047V22.3895C78.8756 21.7035 76.4715 21.3368 76.2572 21.2895C76.0433 21.2422 75.8051 21.1003 75.543 20.8637C75.2809 20.6035 75.1504 20.2842 75.1504 19.9057V16.6413C75.1504 16.2391 75.2931 15.8962 75.5786 15.6123C75.8646 15.3284 76.2099 15.1865 76.6143 15.1865H83.4699V9.22541C83.4699 8.82332 83.6121 8.50398 83.8981 8.26739C84.1835 8.00717 85.0287 7.75884 86.4327 7.5223C87.8371 7.28575 89.6103 6.97819 91.7528 6.59973H92.0388C92.824 6.59973 93.2167 6.96636 93.2167 7.69972V15.1865H99.7863C100.191 15.1865 100.536 15.3284 100.821 15.6123C101.107 15.8962 101.25 16.2391 101.25 16.6413V20.9347C101.25 21.3368 101.107 21.6799 100.821 21.9637C100.536 22.2475 100.191 22.3895 99.7863 22.3895H93.2167V45.2047C93.2167 46.8133 93.3117 47.8896 93.5026 48.4336C93.7165 48.9777 94.5734 49.2498 96.0728 49.2498H99.9291C100.953 49.2498 101.465 49.6164 101.465 50.3498V54.9267Z"
    fill="white" />
  <path
    d="M72.9172 6.03205C72.9172 6.85994 72.5484 7.27395 71.8104 7.27395H68.5255C66.7407 7.27395 65.5739 7.55774 65.0269 8.12551C64.4793 8.66956 64.2055 9.84046 64.2055 11.6383V15.1865H71.2395C71.6438 15.1865 71.9892 15.3285 72.2746 15.6123C72.5606 15.8962 72.7028 16.2392 72.7028 16.6413V21.0057C72.7028 21.3841 72.5606 21.7153 72.2746 21.9992C71.9892 22.2594 71.6438 22.3895 71.2395 22.3895H64.2055V54.6428C64.2055 55.0451 64.0628 55.4001 63.7768 55.7074C63.4919 56.0152 63.1465 56.1691 62.7417 56.1691H56.1009C55.6961 56.1691 55.339 56.0152 55.0297 55.7074C54.7203 55.4001 54.5654 55.0451 54.5654 54.6428V22.3895C50.2096 21.7035 47.9127 21.3368 47.6746 21.2895C47.4604 21.2423 47.2224 21.1121 46.9605 20.8993C46.7225 20.6627 46.6035 20.3551 46.6035 19.9767V16.6413C46.6035 16.2392 46.7463 15.8962 47.032 15.6123C47.3176 15.3285 47.6627 15.1865 48.0673 15.1865H54.5654V11.6383C54.5654 7.64058 55.5178 4.70735 57.4215 2.8386C59.3258 0.946204 62.5873 0 67.2049 0C67.8952 0 69.0137 0.118276 70.5608 0.354826C72.1324 0.591375 72.9172 1.05265 72.9172 1.73865V6.03205Z"
    fill="white" />
  <path
    d="M14.1651 41.1243L11.9872 49.9949C11.1779 53.3541 10.7375 55.1283 10.6662 55.3173C10.6185 55.4829 10.4638 55.6723 10.202 55.8852C9.96399 56.0746 9.70215 56.1691 9.41648 56.1691H1.6687C0.788003 56.1691 0.347656 55.7546 0.347656 54.9267C0.347656 54.8794 0.371459 54.7611 0.419064 54.5721L12.4156 9.01253C13.701 4.06863 17.0929 1.59668 22.5913 1.59668C28.0659 1.59668 31.4459 4.06863 32.7313 9.01253L44.7992 54.9267C44.7992 55.7546 44.3589 56.1691 43.4781 56.1691H35.7304C34.9925 56.1691 34.5284 55.7668 34.3379 54.9627L30.9818 41.1243H14.1651ZM29.0181 32.8568L25.2691 17.4929C24.1503 12.9511 23.5196 10.5856 23.3768 10.3963C23.234 10.2071 22.9721 10.1125 22.5913 10.1125C22.0201 10.1125 21.6749 10.3136 21.5559 10.7157L16.1289 32.8568H29.0181Z"
    fill="white" />
  <path fill-rule="evenodd" clip-rule="evenodd"
    d="M245.829 84.7132C240.276 84.7132 235.967 85.9343 232.855 88.3267C229.759 90.7064 228.205 94.0166 228.205 98.3097C228.205 100.623 228.569 102.604 229.283 104.265C230.02 105.927 231.137 107.405 232.642 108.698C234.172 109.994 236.478 111.35 239.584 112.762C243.018 114.305 245.166 115.344 245.986 115.866C246.814 116.381 247.442 116.916 247.837 117.48C248.265 118.038 248.475 118.695 248.475 119.431C248.475 120.62 247.957 121.603 246.966 122.352L246.96 122.356C245.958 123.089 244.441 123.419 242.489 123.419C240.219 123.419 237.738 123.063 235.047 122.357L235.044 122.357C232.572 121.688 230.183 120.786 227.878 119.652V130.233C230.102 131.275 232.239 132.011 234.289 132.446C236.414 132.875 239.057 133.092 242.227 133.092C246.001 133.092 249.269 132.467 252.042 131.23C254.817 129.971 256.922 128.23 258.38 126.013C259.838 123.773 260.571 121.211 260.571 118.317C260.571 115.158 259.783 112.579 258.234 110.549L258.231 110.545C256.7 108.49 253.917 106.529 249.816 104.684L249.813 104.683C247.66 103.699 245.919 102.867 244.59 102.186C243.269 101.51 242.334 100.971 241.81 100.576L241.807 100.573C240.776 99.7771 240.203 98.8252 240.203 97.7199C240.203 96.702 240.658 95.8533 241.512 95.194C242.387 94.5194 243.724 94.2228 245.436 94.2228C248.672 94.2228 252.464 95.2118 256.801 97.1566L260.452 87.9533C255.474 85.79 250.601 84.7132 245.829 84.7132ZM232.344 87.6623C235.65 85.1211 240.161 83.8751 245.829 83.8751C250.851 83.8751 255.962 85.0368 261.161 87.3494L261.528 87.513L257.255 98.2853L256.853 98.1009C252.407 96.0626 248.606 95.0609 245.436 95.0609C243.786 95.0609 242.678 95.354 242.024 95.8579C241.351 96.3775 241.041 96.9916 241.041 97.7199C241.041 98.492 241.428 99.2209 242.318 99.9086C242.777 100.256 243.653 100.765 244.972 101.44C246.285 102.113 248.014 102.94 250.161 103.92C254.311 105.786 257.246 107.82 258.902 110.042C260.583 112.247 261.41 115.016 261.41 118.317C261.41 121.361 260.636 124.083 259.082 126.471L259.081 126.472C257.525 128.839 255.287 130.678 252.388 131.994L252.385 131.995C249.483 133.29 246.093 133.931 242.227 133.931C239.023 133.931 236.319 133.711 234.121 133.267L234.117 133.266C231.919 132.8 229.639 132.003 227.278 130.877L227.039 130.763V118.286L227.65 118.599C230.09 119.852 232.627 120.835 235.262 121.547C237.898 122.239 240.306 122.581 242.489 122.581C244.377 122.581 245.675 122.256 246.463 121.681C247.26 121.078 247.636 120.336 247.636 119.431C247.636 118.861 247.477 118.385 247.167 117.984L247.161 117.976L247.155 117.967C246.851 117.53 246.325 117.065 245.542 116.578L245.538 116.575C244.784 116.093 242.699 115.081 239.239 113.526L239.237 113.525C236.1 112.099 233.714 110.705 232.1 109.337L232.097 109.335C230.504 107.967 229.308 106.389 228.516 104.603L228.514 104.599C227.745 102.81 227.367 100.71 227.367 98.3097C227.367 93.7829 229.022 90.2162 232.344 87.6623Z"
    fill="white" />
  <path fill-rule="evenodd" clip-rule="evenodd"
    d="M184.502 84.5629H198.341V104.182C199.088 102.95 200.157 101.358 201.54 99.4124C201.541 99.4114 201.541 99.4104 201.542 99.4093L211.716 84.5629H226.891L211.482 106.455L226.537 133.275H210.961L201.585 115.14L198.341 117.081V133.275H184.502V84.5629ZM185.341 85.401V132.437H197.502V116.606L201.92 113.963L211.471 132.437H225.105L210.492 106.405L225.276 85.401H212.158L202.229 99.8888L202.225 99.8949C200.239 102.689 198.934 104.708 198.295 105.965L197.502 105.775V85.401H185.341Z"
    fill="white" />
  <path fill-rule="evenodd" clip-rule="evenodd"
    d="M140.457 84.5629H156.562C163.105 84.5629 168.089 85.7464 171.445 88.1789C174.827 90.6302 176.498 94.3051 176.498 99.1279C176.498 104.708 173.822 109.052 168.556 112.138L182.691 133.275H166.996L156.845 115.855H154.23V133.275H140.457V84.5629ZM141.296 85.401V132.437H153.392V115.017H157.327L167.478 132.437H181.122L167.357 111.853L167.753 111.632C173.053 108.66 175.659 104.501 175.659 99.1279C175.659 94.5205 174.077 91.1224 170.953 88.858C167.804 86.5753 163.029 85.401 156.562 85.401H141.296ZM153.392 94.3539H156.365C158.621 94.3539 160.389 94.7709 161.601 95.673C162.837 96.5918 163.432 97.9658 163.432 99.7177C163.432 101.794 162.842 103.424 161.596 104.526C160.359 105.619 158.547 106.129 156.234 106.129H153.392V94.3539ZM154.23 95.1919V105.291H156.234C158.441 105.291 160.018 104.802 161.041 103.898C162.053 103.002 162.593 101.636 162.593 99.7177C162.593 98.173 162.081 97.0744 161.101 96.3455C160.097 95.5988 158.541 95.1919 156.365 95.1919H154.23Z"
    fill="white" />
  <path fill-rule="evenodd" clip-rule="evenodd"
    d="M110.355 84.6477C102.836 84.6477 97.1642 86.7307 93.2708 90.8369C89.3958 94.9253 87.426 100.886 87.426 108.788C87.426 116.778 89.4069 122.793 93.3028 126.902C97.2195 131.01 102.859 133.092 110.289 133.092C117.832 133.092 123.491 131.02 127.34 126.937C131.193 122.85 133.152 116.845 133.152 108.854C133.152 100.839 131.203 94.8353 127.373 90.7708C123.546 86.7104 117.898 84.6477 110.355 84.6477ZM92.6623 90.2604C96.7593 85.9399 102.68 83.8096 110.355 83.8096C118.049 83.8096 123.95 85.917 127.983 90.1959C132.011 94.4701 133.991 100.713 133.991 108.854C133.991 116.973 131.999 123.216 127.95 127.512C123.896 131.812 117.985 133.931 110.289 133.931C102.7 133.931 96.8132 131.799 92.6958 127.481L92.6953 127.48C88.6019 123.163 86.5879 116.909 86.5879 108.788C86.5879 100.754 88.5912 94.555 92.6623 90.2604ZM102.716 98.1034C104.428 95.6374 106.998 94.4193 110.355 94.4193C113.656 94.4193 116.185 95.6145 117.869 98.0353C119.559 100.411 120.369 104.043 120.369 108.854C120.369 113.643 119.57 117.253 117.901 119.607C116.235 121.989 113.67 123.157 110.289 123.157C106.955 123.157 104.401 121.951 102.7 119.506C101.019 117.09 100.21 113.517 100.21 108.854C100.21 104.146 101.024 100.542 102.716 98.1034ZM103.405 98.5814C101.855 100.815 101.048 104.217 101.048 108.854C101.048 113.446 101.849 116.816 103.388 119.027C104.908 121.211 107.184 122.319 110.289 122.319C113.457 122.319 115.738 121.239 117.215 119.125L117.217 119.123C118.736 116.98 119.53 113.582 119.53 108.854C119.53 104.104 118.725 100.684 117.184 98.5199L117.182 98.5159C115.679 96.3536 113.427 95.2574 110.355 95.2574C107.228 95.2574 104.936 96.3754 103.405 98.5814Z"
    fill="white" />
  <path fill-rule="evenodd" clip-rule="evenodd"
    d="M15.7383 84.5629H29.0881L34.3659 108.894L34.3662 108.895C35.2307 112.785 35.8968 116.1 36.3638 118.836C36.6462 117.046 37.0165 114.937 37.4744 112.509L37.4748 112.507C38.2175 108.684 38.9065 105.512 39.5419 102.992L43.8408 84.5629H56.4934L60.6595 102.992C60.6595 102.993 60.6595 102.994 60.66 102.995C61.3605 105.906 62.0711 109.263 62.7918 113.065C63.217 115.306 63.5593 117.216 63.8179 118.794C64.2263 116.352 64.8657 113.073 65.7358 108.963L65.7369 108.96L71.1139 84.5629H84.4619L72.467 133.275H56.5092L51.8534 112.093C51.6315 111.204 51.2805 109.457 50.8015 106.867L50.801 106.863C50.5666 105.535 50.3632 104.315 50.1911 103.207C50.0657 103.965 49.9218 104.781 49.7595 105.655L49.7593 105.656C49.3658 107.755 48.9722 109.69 48.5782 111.464C48.2055 113.239 46.6221 120.402 43.8295 132.947L43.7564 133.275H27.7999L15.7383 84.5629ZM16.8095 85.401L28.4559 132.437H43.0842C45.8335 120.086 47.3911 113.039 47.7583 111.289L47.7593 111.284C48.151 109.521 48.5431 107.594 48.9352 105.503C49.3273 103.39 49.6095 101.631 49.7827 100.223L50.6146 100.222C50.832 101.959 51.1687 104.123 51.6264 106.716C52.1069 109.315 52.4538 111.037 52.6682 111.895L52.6697 111.902L57.1832 132.437H71.8103L83.3922 85.401H71.7879L66.5562 109.137L66.5557 109.139C65.2899 115.12 64.5188 119.305 64.2374 121.706L63.4054 121.71C63.1667 119.846 62.6887 117.018 61.9685 113.222C61.2487 109.428 60.5407 106.084 59.8443 103.188L59.8428 103.183L55.8235 85.401H44.5061L40.3557 103.193C39.7252 105.693 39.0392 108.85 38.2978 112.666C37.5782 116.483 37.0779 119.496 36.7957 121.71L35.9648 121.715C35.5304 118.588 34.7254 114.376 33.5476 109.075L33.5471 109.073L28.4121 85.401H16.8095Z"
    fill="white" />
  <path fill-rule="evenodd" clip-rule="evenodd"
    d="M6.82733 121.402C4.78971 121.402 3.29483 121.933 2.28153 122.932C1.29184 123.928 0.774045 125.358 0.774045 127.284C0.774045 129.181 1.31724 130.599 2.3657 131.597C3.42478 132.605 4.89635 133.134 6.82733 133.134C8.69547 133.134 10.1025 132.607 11.0998 131.604C12.1137 130.584 12.6387 129.162 12.6387 127.284C12.6387 125.354 12.1292 123.924 11.1576 122.929C10.1836 121.931 8.76018 121.402 6.82733 121.402ZM1.75944 122.312C2.96343 121.124 4.67314 120.561 6.82733 120.561C8.88564 120.561 10.5261 121.127 11.6888 122.317C12.8539 123.511 13.4128 125.188 13.4128 127.284C13.4128 129.346 12.8292 131.01 11.6259 132.221C10.4462 133.407 8.82941 133.974 6.82733 133.974C4.76713 133.974 3.09413 133.409 1.85527 132.229C0.60578 131.038 0 129.37 0 127.284C0 125.185 0.570291 123.507 1.75683 122.315L1.75944 122.312Z"
    fill="white" />
</svg>
  