<svg width="249" height="385" viewBox="0 0 249 385" fill="none" xmlns="http://www.w3.org/2000/svg">
  <path
    d="M221.483 77.9915L202.956 85.5237L203.136 85.9659L203.336 86.399L221.483 77.9915ZM168.716 230.833L155.141 216.146L168.716 230.833ZM14 365L0.327872 350.403L14 385V365ZM46.8076 89.7863C46.8076 67.4193 67.6661 40 123.121 40V0C55.6225 0 6.80761 36.4696 6.80761 89.7863H46.8076ZM123.121 40C174.424 40 198.513 74.5964 202.956 85.5237L240.011 70.4592C231.133 48.6229 194.771 0 123.121 0V40ZM203.336 86.399C211.664 104.375 219.528 156.634 155.141 216.146L182.291 245.521C258.275 175.289 255.893 104.685 239.63 69.5839L203.336 86.399ZM155.141 216.146C121.557 247.187 88.5712 275.422 61.1647 298.517C34.1691 321.267 11.6817 339.769 0.327872 350.403L27.6721 379.597C38.0058 369.918 58.9591 352.685 86.941 329.105C114.512 305.87 148.04 277.178 182.291 245.521L155.141 216.146ZM14 385H144.125V345H14V385ZM144.125 385H243V345H144.125V385Z"
    fill="white" />
</svg>