<svg width="48" height="49" viewBox="0 0 48 49" fill="none" xmlns="http://www.w3.org/2000/svg">
<g clip-path="url(#clip0_1229_3848)">
<path d="M38.4753 23.3559C37.8648 23.3504 37.256 23.2888 36.6568 23.1717C36.0807 23.0507 35.5179 22.8734 34.9765 22.6423L34.5851 22.5502H34.3089C34.0787 22.5502 33.9636 22.7113 33.9636 23.0336V23.7932C33.931 23.9372 33.931 24.0866 33.9636 24.2306C34.0793 24.4199 34.2471 24.5718 34.447 24.6679C35.0007 24.9449 35.5891 25.1462 36.1964 25.2664C36.9506 25.4467 37.723 25.5394 38.4983 25.5426C39.2783 25.566 40.0566 25.4571 40.8002 25.2204C41.4145 25.0592 41.9874 24.7688 42.4805 24.3687C42.9467 24.0084 43.3311 23.5534 43.6085 23.0336C43.8724 22.4722 44.0062 21.8584 43.9998 21.2381C44.0081 20.4685 43.7657 19.7171 43.3092 19.0974C42.6954 18.4 41.8977 17.8895 41.0074 17.6242L38.8206 16.9336C38.2096 16.7755 37.6376 16.4935 37.1402 16.105C36.9944 15.9651 36.8784 15.7971 36.7993 15.6111C36.7202 15.4252 36.6795 15.2252 36.6798 15.0231C36.6634 14.75 36.721 14.4774 36.8466 14.2343C36.9722 13.9912 37.1611 13.7866 37.3934 13.642C38.0303 13.333 38.7352 13.1904 39.4421 13.2276C40.4493 13.2032 41.4489 13.4078 42.3655 13.8261C42.5528 13.9216 42.7553 13.984 42.9639 14.0103C43.1941 14.0103 43.3092 13.8261 43.3092 13.5039V12.6752C43.3161 12.4962 43.2679 12.3195 43.1711 12.1688C43.0482 12.0121 42.8906 11.886 42.7107 11.8005C42.5055 11.6875 42.2896 11.5949 42.0662 11.5243C41.7797 11.4231 41.4877 11.3386 41.1915 11.271L40.1787 11.0409C39.8032 11.0137 39.4262 11.0137 39.0508 11.0409C38.4049 11.0297 37.7609 11.1151 37.1402 11.2941C36.5591 11.4637 36.0133 11.7366 35.5289 12.0997C35.0796 12.4276 34.7098 12.8525 34.447 13.3427C34.1647 13.8654 34.022 14.4521 34.0327 15.0461C34.0189 15.8771 34.2866 16.6884 34.7923 17.348C35.4243 18.1093 36.2768 18.6562 37.2323 18.9132L39.5342 19.6038C40.1037 19.7369 40.6327 20.0054 41.0764 20.3864C41.352 20.6782 41.5009 21.0671 41.4907 21.4683C41.4957 21.7595 41.4239 22.0469 41.2824 22.3015C41.141 22.5561 40.935 22.7689 40.6851 22.9185C40.0019 23.2622 39.2379 23.4134 38.4753 23.3559ZM25.1014 12.1918C25.066 11.9662 24.9614 11.7571 24.8022 11.5933C24.63 11.4663 24.4164 11.4088 24.2037 11.4322H22.9377C22.7261 11.4204 22.5163 11.4769 22.3392 11.5933C22.1714 11.7508 22.0653 11.963 22.04 12.1918L19.7381 22.32L17.114 12.1918C17.0721 11.9634 16.9593 11.754 16.7917 11.5933C16.7917 11.5933 16.4925 11.4322 16.1932 11.4322H14.697C14.4438 11.4322 14.3287 11.5703 14.3287 11.8235C14.351 12.0352 14.3974 12.2437 14.4668 12.445L18.0577 24.2766C18.1044 24.4871 18.1989 24.684 18.334 24.8521C18.5149 24.9576 18.7236 25.0057 18.9324 24.9902H20.2445C20.4606 25.0048 20.6764 24.9568 20.866 24.8521C21.0111 24.6728 21.1064 24.4584 21.1422 24.2306L23.4441 14.3786L25.746 24.2536C25.7651 24.4793 25.8629 24.6911 26.0222 24.8521C26.2033 24.9786 26.4239 25.0358 26.6437 25.0132H27.9558C28.16 25.0232 28.3619 24.9667 28.5312 24.8521C28.7044 24.6957 28.8182 24.4842 28.8535 24.2536L32.5595 12.422C32.573 12.2996 32.573 12.1761 32.5595 12.0537C32.5685 11.9695 32.5685 11.8846 32.5595 11.8005C32.5672 11.7473 32.5624 11.693 32.5455 11.642C32.5286 11.591 32.5 11.5447 32.462 11.5067C32.424 11.4687 32.3776 11.4401 32.3266 11.4232C32.2756 11.4062 32.2214 11.4014 32.1682 11.4092H30.741C30.5298 11.4005 30.3209 11.4568 30.1425 11.5703C30.0008 11.7459 29.8987 11.95 29.8433 12.1688L27.5414 22.5502L25.1014 12.1918ZM8.59706 17.0948C8.05508 17.0237 7.50932 16.9852 6.96273 16.9797C5.60803 16.9085 4.2739 17.3341 3.21069 18.1767C2.75792 18.5644 2.39856 19.0494 2.15942 19.5955C1.92027 20.1415 1.80752 20.7345 1.82957 21.3302C1.80279 21.8727 1.88925 22.4148 2.08344 22.9221C2.27763 23.4294 2.57529 23.8907 2.95748 24.2766C3.36826 24.6557 3.85076 24.9488 4.37654 25.1385C4.90232 25.3283 5.46076 25.4109 6.01897 25.3815C6.89758 25.4068 7.77015 25.2288 8.56869 24.8615C9.36723 24.4941 10.0702 23.9474 10.6227 23.2638C10.7573 23.5723 10.911 23.8722 11.0831 24.1615C11.2469 24.4144 11.4317 24.6531 11.6355 24.8751C11.6912 24.9315 11.7575 24.9762 11.8306 25.0068C11.9037 25.0373 11.9821 25.053 12.0614 25.053C12.1406 25.053 12.219 25.0373 12.2921 25.0068C12.3652 24.9762 12.4315 24.9315 12.4872 24.8751L13.454 24.2306C13.5347 24.1806 13.6034 24.1134 13.6551 24.0338C13.7068 23.9543 13.7403 23.8642 13.7532 23.7702C13.7905 23.6502 13.7905 23.5218 13.7532 23.4019C13.5667 23.0532 13.4052 22.6916 13.2698 22.32C13.1465 21.8705 13.0922 21.4048 13.1087 20.9389V16.0819C13.1637 15.3998 13.0799 14.7136 12.8623 14.0648C12.6447 13.4159 12.2978 12.8179 11.8427 12.3069C11.2577 11.815 10.5777 11.4488 9.84514 11.231C9.11253 11.0132 8.34293 10.9485 7.58424 11.0409C6.80723 11.0406 6.03347 11.1412 5.28237 11.3401C4.61356 11.4956 3.96479 11.7273 3.3488 12.0307C3.18633 12.1024 3.04403 12.2131 2.93446 12.3529C2.87822 12.5249 2.87822 12.7104 2.93446 12.8824V13.642C2.93446 13.9642 2.93446 14.1023 3.25673 14.1023C3.34016 14.1204 3.4265 14.1204 3.50993 14.1023L4.03936 13.9182C4.50694 13.6887 4.99182 13.4963 5.48954 13.3427C6.03157 13.2069 6.58809 13.1373 7.14688 13.1356C8.03671 13.0423 8.92798 13.2982 9.6329 13.8491C10.1811 14.5377 10.4373 15.4137 10.3465 16.2891V17.417L8.59706 17.0948ZM10.3925 19.1665V19.788C10.3943 20.2379 10.3402 20.6864 10.2314 21.123C10.1342 21.4896 9.95296 21.8285 9.70195 22.1128C9.31815 22.564 8.81585 22.8989 8.25178 23.0796C7.74862 23.2566 7.21985 23.3499 6.68651 23.3559C6.39453 23.3776 6.10117 23.3398 5.8242 23.2449C5.54724 23.1499 5.29243 22.9997 5.0752 22.8034C4.87358 22.585 4.72019 22.3266 4.62501 22.045C4.52983 21.7635 4.49499 21.465 4.52275 21.1691C4.50373 20.8384 4.56255 20.5078 4.69448 20.204C4.8264 19.9002 5.02776 19.6315 5.28237 19.4197C5.95323 18.9494 6.76785 18.7294 7.58424 18.7982H9.01139C9.47815 18.8956 9.93922 19.0185 10.3925 19.1665ZM40.8002 31.7577C35.2973 34.0729 29.3911 35.2776 23.4211 35.3025C15.4303 35.304 7.57663 33.2256 0.632597 29.2717C0.0801485 28.9264 -0.357206 29.5018 0.126186 29.9392C6.37646 35.5895 14.5121 38.7009 22.9377 38.6633C29.5821 38.6797 36.0781 36.6988 41.5828 32.9777C42.3655 32.2641 41.6519 31.3203 40.8002 31.7577Z" fill="white"/>
<path d="M37.3081 29.8182C36.8453 30.1595 36.9184 30.6227 37.4299 30.5496C39.1593 30.3302 42.9833 29.8913 43.6653 30.769C44.3473 31.6466 42.9103 35.2303 42.2526 36.8393C42.0578 37.3269 42.4962 37.5219 42.9346 37.1562C44.0437 36.1343 44.8938 34.8629 45.4148 33.447C45.9357 32.0311 46.1125 30.5115 45.9305 29.0137C44.5309 28.462 43.0213 28.2474 41.5235 28.3872C40.0257 28.5269 38.5818 29.0171 37.3081 29.8182Z" fill="white"/>
</g>
<defs>
<clipPath id="clip0_1229_3848">
<rect width="48" height="48" fill="white" transform="translate(0 0.5)"/>
</clipPath>
</defs>
</svg>
