<svg width="47" height="49" viewBox="0 0 47 49" fill="none" xmlns="http://www.w3.org/2000/svg">
<g clip-path="url(#clip0_1229_4078)">
<mask id="mask0_1229_4078" style="mask-type:luminance" maskUnits="userSpaceOnUse" x="1" y="6" width="46" height="37">
<path d="M46.3964 6.5H1.7373V42.5H46.3964V6.5Z" fill="white"/>
</mask>
<g mask="url(#mask0_1229_4078)">
<path fill-rule="evenodd" clip-rule="evenodd" d="M2.27706 12.8937C3.69203 10.7818 5.30734 11.3683 6.35999 12.3104C6.46136 12.4011 6.56161 12.4943 6.66201 12.5877C7.11765 13.0116 7.57656 13.4385 8.15811 13.6455C8.99042 13.9418 9.71287 13.9338 10.9702 13.7119C12.7088 13.4051 13.1861 12.7574 13.5952 10.5415C14.3111 6.45055 19.3225 6.31418 19.6634 6.58691C20.0043 6.85964 20.7884 7.371 21.4702 7.47327C21.6251 7.4965 21.9188 7.43005 22.316 7.3402C23.6675 7.03448 26.2161 6.45794 28.5611 8.22327C30.9884 10.0505 28.5498 14.0983 27.027 15.8937H29.652C29.9793 15.8937 29.9021 15.5982 29.8225 15.4506C32.0043 9.80511 38.5725 8.80283 41.5839 9.00738C43.6748 9.48465 47.502 11.6665 46.0839 16.5756C44.3111 22.7119 36.0611 19.6778 34.4248 19.0301C33.1763 18.5359 32.9862 20.0489 33.0501 20.9786C33.2185 20.962 33.6164 20.9884 34.4248 21.1097C36.0611 21.3551 36.4475 23.621 36.4361 24.7233C36.4361 25.8369 35.9452 28.1256 33.9816 28.371C31.527 28.6778 29.4816 26.1551 29.1066 25.6778C28.8066 25.296 28.6862 25.5187 28.6634 25.6778C28.4179 27.4506 26.5157 27.8256 25.5952 27.7915C25.0043 27.5983 23.5088 27.3278 22.2543 27.7915C19.4179 28.4733 17.2316 26.0301 16.4929 24.7233C16.4021 24.4619 16.0634 24.0006 15.4361 24.246C14.0179 24.7642 14.5725 26.8255 15.027 27.7915C15.5157 28.5074 15.9475 29.9938 13.7657 30.2119C11.0384 30.4847 7.11797 29.1551 5.54978 26.4619C4.63517 24.8912 4.9575 23.7081 5.46793 23.0106C5.78943 22.5713 6.34383 22.4041 6.88823 22.4026C8.52235 22.3981 10.9733 22.7563 11.9588 24.246C13.0225 21.8733 15.4248 21.5301 16.4929 21.6551V19.6778C16.1975 19.2006 15.2861 18.4506 14.0043 19.2687C12.2321 21.0185 8.95455 20.9815 6.77835 20.6224C5.9579 20.487 5.19343 20.1218 4.57755 19.5631C2.78628 17.938 0.742857 15.1836 2.27706 12.8937ZM35.2309 26.457C35.5506 25.8215 35.3949 25.1689 35.1532 24.708C35.0142 24.4429 34.6866 24.3715 34.4143 24.4957C33.1879 25.0551 31.4025 25.9553 31.4986 26.2678C31.5498 26.4341 31.7833 26.587 32.0636 26.713C32.6606 26.9813 33.3289 27.0178 33.9835 27.0178H34.0984C34.5525 27.0178 35.0269 26.8626 35.2309 26.457ZM8.56994 23.4196C9.13762 24.0327 9.95839 24.919 10.5668 26.6768C11.1351 28.3183 13.26 29.3586 13.9418 29.404C13.726 29.1881 13.2464 28.5722 13.0555 27.8359C12.8168 26.9154 12.0668 24.0518 9.33958 23.4722C8.98503 23.4177 8.66914 23.404 8.55547 23.404L8.56994 23.4196ZM20.351 9.2563C20.0783 8.0563 18.2828 8.64267 17.4192 9.08585C15.1692 10.0063 15.2032 11.9545 15.7146 12.5631C15.8017 12.6668 15.9126 12.6337 16.0709 12.5866C16.342 12.5059 16.752 12.3839 17.4192 12.8358C18.476 13.5518 19.1578 12.7677 19.1578 12.4608C19.1578 12.2384 19.337 11.7829 19.5006 11.3673V11.3673C19.5626 11.2097 19.6223 11.0579 19.6692 10.9268C19.7252 10.7698 19.8439 10.6277 19.9695 10.4772C20.226 10.17 20.5112 9.82836 20.351 9.2563ZM24.6803 17.745H26.9644C27.1349 17.745 27.5508 17.9632 27.8508 18.8359C28.2258 19.9268 28.9417 23.1314 27.2713 25.4496C26.5349 25.7496 25.919 25.5745 25.7031 25.4496C26.1803 24.0632 26.5622 20.7587 24.2713 18.6314C23.644 17.9223 24.2826 17.745 24.6803 17.745ZM12.5441 14.2677C12.6191 13.9676 12.9589 13.6882 13.3308 13.4691C13.8646 13.1547 14.5293 13.0098 15.0965 13.2592C15.8861 13.6062 15.7298 14.3548 15.6126 14.9166L15.6125 14.9167C15.6003 14.9753 15.5885 15.0319 15.5782 15.0859C15.4418 15.8018 14.5896 15.904 13.4646 15.9381C12.3396 15.9722 12.3737 14.9495 12.5441 14.2677ZM21.0667 15.9382C20.4304 15.6996 19.3008 14.8337 19.8735 13.2791C20.5894 11.3359 22.5668 7.79046 26.3168 9.32455C29.3168 10.5518 27.1804 13.745 25.7372 15.1882C25.2599 15.6882 23.6576 16.5381 21.0667 15.9382Z" fill="white"/>
<path d="M38.5303 42.3714L40.8557 38.8332L38.6004 35.2849H39.8934L41.5273 37.9912L43.161 35.2849H44.424L42.1788 38.8031L44.5042 42.3714H43.2212L41.5072 39.6551L39.7631 42.3714H38.5303Z" fill="white"/>
<path d="M36.4209 42.3714V35.2849H37.4834V42.3714H36.4209Z" fill="white"/>
<path d="M30.3008 42.3714V35.2849H35.1621V36.2572H31.3633V38.6327H34.6409V39.615H31.3633V42.3714H30.3008Z" fill="white"/>
<path d="M25.9396 42.3714V36.2572H23.6943V35.2849H29.2373V36.2572H27.002V42.3714H25.9396Z" fill="white"/>
<path d="M20.431 42.4515C19.9699 42.4515 19.5355 42.3847 19.1279 42.251C18.7203 42.1174 18.3762 41.9002 18.0955 41.5995C17.8149 41.2988 17.6277 40.9012 17.5342 40.4067H18.6267C18.7137 40.6874 18.854 40.9079 19.0477 41.0683C19.2415 41.222 19.4654 41.3289 19.7193 41.389C19.9799 41.4492 20.2405 41.4792 20.5011 41.4792C20.7483 41.4792 20.9789 41.4458 21.1927 41.379C21.4132 41.3122 21.5937 41.2019 21.734 41.0482C21.8744 40.8945 21.9445 40.694 21.9445 40.4468C21.9445 40.2597 21.9078 40.106 21.8342 39.9858C21.7607 39.8654 21.6571 39.7685 21.5235 39.695C21.3965 39.6149 21.2429 39.5514 21.0625 39.5046C20.8553 39.4378 20.6314 39.381 20.3909 39.3342C20.157 39.2875 19.9231 39.234 19.6892 39.1739C19.462 39.1137 19.2482 39.0369 19.0477 38.9433C18.8807 38.8765 18.717 38.7963 18.5566 38.7027C18.4029 38.6025 18.2692 38.4856 18.1557 38.3519C18.0421 38.2116 17.9485 38.0479 17.875 37.8608C17.8082 37.6737 17.7748 37.4598 17.7748 37.2193C17.7748 36.8986 17.8249 36.6245 17.9251 36.3974C18.032 36.1702 18.169 35.9797 18.3361 35.8261C18.5098 35.6723 18.7069 35.552 18.9275 35.4652C19.1547 35.3716 19.3919 35.3048 19.6391 35.2647C19.8864 35.2246 20.1269 35.2046 20.3608 35.2046C20.7884 35.2046 21.1827 35.2714 21.5435 35.405C21.9044 35.5387 22.2018 35.7526 22.4356 36.0466C22.6762 36.3339 22.8065 36.7147 22.8265 37.1892H21.7941C21.7674 36.9353 21.6805 36.7348 21.5335 36.5878C21.3932 36.4341 21.2161 36.3272 21.0023 36.2671C20.7884 36.2002 20.5612 36.1668 20.3207 36.1668C20.147 36.1668 19.9732 36.1835 19.7995 36.217C19.6257 36.2437 19.4654 36.2971 19.3184 36.3773C19.178 36.4508 19.0645 36.551 18.9776 36.678C18.8974 36.805 18.8573 36.962 18.8573 37.1491C18.8573 37.3095 18.8907 37.4532 18.9575 37.5801C19.0244 37.7004 19.1179 37.804 19.2382 37.8909C19.3651 37.9711 19.5055 38.0412 19.6591 38.1014C19.9398 38.2083 20.2472 38.2918 20.5813 38.3519C20.9155 38.4054 21.2295 38.4822 21.5235 38.5825C21.7373 38.6493 21.9378 38.7328 22.1249 38.833C22.312 38.9266 22.4724 39.0436 22.606 39.1839C22.7397 39.3175 22.8432 39.4779 22.9167 39.665C22.9903 39.8454 23.027 40.0559 23.027 40.2965C23.027 40.6907 22.9569 41.0282 22.8165 41.3088C22.6762 41.5828 22.4857 41.8033 22.2452 41.9703C22.0047 42.1375 21.7273 42.2611 21.4132 42.3412C21.0992 42.4147 20.7717 42.4515 20.431 42.4515Z" fill="white"/>
<path d="M12.9993 42.4515C12.2709 42.4515 11.6528 42.2978 11.1449 41.9904C10.6437 41.6763 10.2629 41.2454 10.0023 40.6974C9.74169 40.1495 9.61133 39.528 9.61133 38.833C9.61133 38.1314 9.74169 37.5066 10.0023 36.9587C10.2629 36.4107 10.6471 35.9831 11.155 35.6757C11.6628 35.3616 12.2809 35.2046 13.0093 35.2046C13.7443 35.2046 14.3624 35.3583 14.8636 35.6656C15.3648 35.9731 15.7456 36.4007 16.0062 36.9487C16.2669 37.4966 16.3972 38.1214 16.3972 38.823C16.3972 39.518 16.2669 40.1395 16.0062 40.6874C15.7456 41.2353 15.3614 41.6663 14.8536 41.9804C14.3524 42.2945 13.7343 42.4515 12.9993 42.4515ZM13.0093 41.4792C13.5439 41.4792 13.9816 41.3556 14.3224 41.1084C14.6631 40.8611 14.9137 40.537 15.0741 40.1361C15.2345 39.7351 15.3147 39.3008 15.3147 38.833C15.3147 38.4789 15.2679 38.1415 15.1744 37.8207C15.0875 37.4999 14.9504 37.216 14.7634 36.9687C14.5763 36.7214 14.3357 36.5277 14.0417 36.3873C13.7476 36.247 13.4035 36.1769 13.0093 36.1769C12.4814 36.1769 12.0437 36.3005 11.6962 36.5477C11.3554 36.795 11.1015 37.1191 10.9345 37.52C10.7674 37.921 10.6838 38.3586 10.6838 38.833C10.6838 39.3008 10.764 39.7351 10.9244 40.1361C11.0915 40.537 11.3454 40.8611 11.6862 41.1084C12.0337 41.3556 12.4747 41.4792 13.0093 41.4792Z" fill="white"/>
<path d="M3.50977 42.3714V35.2849H6.06572C6.59362 35.2849 7.04802 35.3684 7.4289 35.5355C7.81648 35.7025 8.11384 35.9631 8.32099 36.3173C8.52814 36.6648 8.63172 37.1158 8.63172 37.6705C8.63172 38.2051 8.51143 38.6528 8.27087 39.0136C8.03699 39.3745 7.71624 39.6484 7.30862 39.8355C6.90101 40.0159 6.43659 40.1061 5.91538 40.1061H4.57224V42.3714H3.50977ZM4.57224 39.1439H5.87529C6.38313 39.1439 6.79075 39.0269 7.09813 38.7931C7.40552 38.5525 7.55921 38.1683 7.55921 37.6404C7.55921 37.1793 7.43225 36.8352 7.17832 36.608C6.9244 36.3741 6.54017 36.2572 6.02563 36.2572H4.57224V39.1439Z" fill="white"/>
</g>
</g>
<defs>
<clipPath id="clip0_1229_4078">
<rect width="46" height="48" fill="white" transform="translate(0.737305 0.5)"/>
</clipPath>
</defs>
</svg>
