<svg width="48" height="49" viewBox="0 0 48 49" fill="none" xmlns="http://www.w3.org/2000/svg">
  <path
    d="M3 3.5V45.5H45V3.5H3ZM25.857 36.2555C25.857 40.343 23.457 42.209 19.9605 42.209C16.8015 42.209 14.973 40.5785 14.0355 38.6L17.2515 36.659C17.871 37.7555 18.4335 38.684 19.7925 38.684C21.0855 38.684 21.9105 38.177 21.9105 36.2V22.784H25.857V36.2555ZM35.193 42.209C31.527 42.209 29.1555 40.466 28.002 38.177L31.218 36.3215C32.0625 37.7 33.168 38.7215 35.109 38.7215C36.7395 38.7215 37.791 37.9055 37.791 36.7715C37.791 35.4215 36.7215 34.943 34.9125 34.1465L33.9285 33.725C31.0785 32.516 29.1945 30.9875 29.1945 27.7715C29.1945 24.809 31.4535 22.559 34.9695 22.559C37.482 22.559 39.282 23.4305 40.5765 25.718L37.5015 27.6875C36.8265 26.4785 36.0945 26 34.9605 26C33.8085 26 33.0765 26.732 33.0765 27.6875C33.0765 28.8695 33.8085 29.3465 35.505 30.0875L36.489 30.509C39.846 31.943 41.73 33.416 41.73 36.7145C41.73 40.259 38.9355 42.2075 35.1945 42.2075L35.193 42.209Z"
    fill="white" />
</svg>