<svg width="40" height="49" viewBox="0 0 40 49" fill="none" xmlns="http://www.w3.org/2000/svg">
<g clip-path="url(#clip0_1229_3851)">
<path d="M30.502 41.9335V32.4221H33.9325C34.6411 32.4221 35.251 32.5342 35.7622 32.7585C36.2824 32.9826 36.6816 33.3325 36.9595 33.8078C37.2376 34.2741 37.3766 34.8795 37.3766 35.624C37.3766 36.3415 37.2151 36.9424 36.8923 37.4268C36.5784 37.9111 36.1478 38.2787 35.6007 38.5299C35.0536 38.7722 34.4302 38.8932 33.7307 38.8932H31.9281V41.9335H30.502ZM31.9281 37.6017H33.6769C34.3586 37.6017 34.9057 37.4448 35.3182 37.1309C35.7309 36.8078 35.9371 36.2921 35.9371 35.5837C35.9371 34.9647 35.7667 34.5029 35.4259 34.198C35.085 33.8841 34.5693 33.727 33.8787 33.727H31.9281V37.6017Z" fill="white"/>
<path d="M20.1484 41.9335L23.7405 32.4221H25.5836L29.1621 41.9335H27.6285L26.9288 40.0232H22.3816L21.6821 41.9335H20.1484ZM22.8526 38.7452H26.458L24.6552 33.7809L22.8526 38.7452Z" fill="white"/>
<path d="M11.5635 41.9335V32.4221H15.0075C16.0031 32.4221 16.8372 32.6195 17.5099 33.0141C18.1915 33.3997 18.7026 33.9513 19.0435 34.6688C19.3932 35.3774 19.5683 36.216 19.5683 37.1845C19.5683 38.1532 19.3979 38.9918 19.057 39.7004C18.7162 40.409 18.2049 40.9606 17.5232 41.3551C16.8506 41.7408 16.0165 41.9335 15.021 41.9335H11.5635ZM12.9895 40.6286H14.9537C15.6892 40.6286 16.2901 40.4851 16.7565 40.1981C17.2228 39.9022 17.5681 39.4986 17.7924 38.9873C18.0167 38.4671 18.1288 37.8662 18.1288 37.1845C18.1288 36.5208 18.0167 35.929 17.7924 35.4088C17.5771 34.8886 17.2362 34.4806 16.7699 34.1845C16.3125 33.8796 15.7206 33.727 14.9941 33.727H12.9895V40.6286Z" fill="white"/>
<path d="M3.6123 41.9335V32.4221H5.03837V40.6286H10.1237V41.9335H3.6123Z" fill="white"/>
<path d="M27.5576 15.578L30.7778 9.63306L39.8604 24.9909H33.0897L27.5576 15.578Z" fill="white"/>
<path d="M14.0986 27.3853L23.1812 12.1926L31.7684 27.1376L14.0986 27.3853Z" fill="white"/>
<path d="M0.474609 24.8256L9.47461 9.46777L16.0801 20.3669L13.4379 24.8256H0.474609Z" fill="white"/>
<path d="M13.0254 11.6147L16.4107 6L20.5392 12.6881L16.9887 18.633L13.0254 11.6147Z" fill="white"/>
</g>
<defs>
<clipPath id="clip0_1229_3851">
<rect width="39" height="48" fill="white" transform="translate(0.737305 0.5)"/>
</clipPath>
</defs>
</svg>
