<svg width="91" height="49" viewBox="0 0 91 49" fill="none" xmlns="http://www.w3.org/2000/svg">
<path d="M59.9053 16.0071H75.6026V18.8773H69.3756V33.9769H66.2619V18.8773H59.9053V16.0071Z" fill="white"/>
<path d="M34.0957 16.0071V18.8773H21.5132V23.4945H31.632V26.3647H21.5132V31.1067H34.0957V33.9769H18.3997V18.8773H18.3984V16.0071H34.0957Z" fill="white"/>
<path d="M41.9281 16.0142H37.8535L52.4479 33.984H56.5344L49.2363 25.0053L56.5227 16.0279L52.4479 16.0341L47.1962 22.4954L41.9281 16.0142Z" fill="white"/>
<path d="M46.1112 28.8519L44.0707 26.3386L37.8438 33.9995H41.93L46.1112 28.8519Z" fill="white"/>
<path fill-rule="evenodd" clip-rule="evenodd" d="M18.5059 33.9773L3.89187 16H0L0 33.9698H3.1135V19.841L14.5945 33.9773H18.5059Z" fill="white"/>
<path d="M76.3036 33.8675C76.0755 33.8675 75.8816 33.7893 75.7192 33.6328C75.5568 33.4763 75.4765 33.2868 75.4786 33.0624C75.4765 32.8441 75.5568 32.6567 75.7192 32.5001C75.8816 32.3436 76.0755 32.2654 76.3036 32.2654C76.5229 32.2654 76.7148 32.3436 76.8772 32.5001C77.0419 32.6567 77.124 32.8441 77.1263 33.0624C77.124 33.2106 77.0861 33.3465 77.0101 33.468C76.9321 33.5916 76.8331 33.6884 76.7084 33.7584C76.5861 33.8305 76.4511 33.8675 76.3036 33.8675Z" fill="white"/>
<path d="M81.6172 26.2957H82.9969V31.5614C82.9949 32.0454 82.8892 32.4593 82.6826 32.8073C82.4738 33.1554 82.1847 33.421 81.8135 33.6084C81.4443 33.7937 81.0118 33.8885 80.5202 33.8885C80.0708 33.8885 79.668 33.8082 79.3093 33.6517C78.9507 33.4951 78.6659 33.2604 78.4571 32.9515C78.246 32.6426 78.1426 32.2575 78.1426 31.7962H79.5246C79.5266 31.998 79.5731 32.173 79.6616 32.3192C79.7501 32.4655 79.8725 32.5766 80.0287 32.6549C80.1867 32.7332 80.3684 32.7723 80.5728 32.7723C80.7945 32.7723 80.9843 32.727 81.1383 32.6343C81.2922 32.5437 81.4105 32.4078 81.4928 32.2266C81.5728 32.0474 81.6152 31.825 81.6172 31.5614V26.2957Z" fill="white"/>
<path d="M88.6754 28.3561C88.6418 28.0369 88.494 27.7877 88.2367 27.6106C87.9771 27.4314 87.6418 27.3429 87.2303 27.3429C86.9414 27.3429 86.6925 27.3861 86.4858 27.4705C86.279 27.557 86.1186 27.6723 86.0088 27.8186C85.8993 27.9648 85.8444 28.1316 85.84 28.319C85.84 28.4755 85.878 28.6114 85.9519 28.7247C86.0258 28.84 86.1248 28.9368 86.2536 29.0151C86.3801 29.0954 86.5214 29.1613 86.6756 29.2148C86.8316 29.2683 86.9878 29.3137 87.1438 29.3507L87.8632 29.5258C88.1523 29.5917 88.4329 29.6802 88.7008 29.7935C88.9686 29.9047 89.2113 30.0468 89.4243 30.2177C89.6374 30.3886 89.8062 30.5946 89.9307 30.8355C90.0551 31.0765 90.1184 31.3586 90.1184 31.684C90.1184 32.1226 90.0045 32.5077 89.7744 32.8413C89.5446 33.1729 89.2134 33.4323 88.7788 33.6198C88.3462 33.8051 87.8231 33.8998 87.2072 33.8998C86.6122 33.8998 86.0933 33.8092 85.6566 33.628C85.2179 33.4488 84.8759 33.1852 84.6291 32.8392C84.3823 32.4933 84.2495 32.0711 84.2305 31.5748H85.5976C85.6166 31.8343 85.701 32.0505 85.8444 32.2256C85.9899 32.3986 86.1797 32.5262 86.4119 32.6127C86.6461 32.6972 86.9075 32.7404 87.1966 32.7404C87.4983 32.7404 87.7641 32.6951 87.994 32.6065C88.2218 32.518 88.4011 32.3945 88.5299 32.2338C88.6607 32.0752 88.7262 31.8878 88.7282 31.6737C88.7262 31.478 88.6669 31.3153 88.553 31.1876C88.4371 31.06 88.2767 30.9529 88.072 30.8664C87.8655 30.7799 87.6248 30.7017 87.3506 30.6337L86.4773 30.4154C85.8464 30.2568 85.3464 30.0159 84.9814 29.6926C84.6145 29.3693 84.4329 28.9409 84.4329 28.4034C84.4329 27.9627 84.5553 27.5756 84.8023 27.244C85.0468 26.9125 85.3824 26.6551 85.8064 26.4718C86.2325 26.2864 86.7136 26.1958 87.2493 26.1958C87.7936 26.1958 88.2703 26.2864 88.6818 26.4718C89.093 26.6551 89.416 26.9104 89.65 27.2358C89.8842 27.5612 90.0066 27.9339 90.013 28.3561H88.6754Z" fill="white"/>
</svg>
