<svg width="60" height="49" viewBox="0 0 60 49" fill="none" xmlns="http://www.w3.org/2000/svg">
<path d="M29.6531 42.875C29.4562 42.875 29.2594 42.8187 29.0813 42.725L27.2812 41.6562C27.0094 41.5062 27.1406 41.45 27.2344 41.4219C27.5906 41.3 27.6656 41.2719 28.05 41.0469C28.0875 41.0281 28.1438 41.0375 28.1813 41.0562L29.5687 41.8812C29.6156 41.9094 29.6906 41.9094 29.7375 41.8812L35.1562 38.75C35.2031 38.7219 35.2406 38.6656 35.2406 38.6V32.3469C35.2406 32.2812 35.2125 32.225 35.1562 32.1969L29.7375 29.075C29.6906 29.0469 29.625 29.0469 29.5687 29.075L24.15 32.1969C24.0938 32.225 24.0656 32.2906 24.0656 32.3469V38.6C24.0656 38.6562 24.1031 38.7125 24.15 38.7406L25.6312 39.5937C26.4375 39.9969 26.9344 39.5187 26.9344 39.05V32.8719C26.9344 32.7875 27 32.7125 27.0938 32.7125H27.7781C27.8625 32.7125 27.9375 32.7781 27.9375 32.8719V39.05C27.9375 40.1281 27.3562 40.7375 26.3344 40.7375C26.025 40.7375 25.7719 40.7375 25.0875 40.4L23.6625 39.5844C23.3156 39.3781 23.0906 39.0031 23.0906 38.6V32.3469C23.0906 31.9437 23.3062 31.5594 23.6625 31.3625L29.0813 28.2312C29.4281 28.0344 29.8781 28.0344 30.2156 28.2312L35.6344 31.3625C35.9813 31.5687 36.2063 31.9437 36.2063 32.3469V38.6C36.2063 39.0031 35.9906 39.3875 35.6344 39.5844L30.2156 42.7156C30.0562 42.8187 29.8594 42.875 29.6531 42.875ZM34.0312 36.7062C34.0312 35.5344 33.2437 35.225 31.575 35C29.8875 34.775 29.7188 34.6625 29.7188 34.2687C29.7188 33.9406 29.8594 33.5094 31.1062 33.5094C32.2219 33.5094 32.6344 33.7531 32.8031 34.5031C32.8219 34.5781 32.8781 34.625 32.9531 34.625H33.6562C33.7031 34.625 33.7406 34.6062 33.7688 34.5781C33.7969 34.5406 33.8156 34.5031 33.8063 34.4562C33.6938 33.1625 32.8406 32.5625 31.1062 32.5625C29.5594 32.5625 28.6406 33.2187 28.6406 34.3062C28.6406 35.4969 29.5594 35.8156 31.0406 35.9656C32.8125 36.1437 32.9531 36.3969 32.9531 36.7437C32.9531 37.3531 32.4656 37.6062 31.3219 37.6062C29.8875 37.6062 29.5687 37.25 29.4656 36.5375C29.4562 36.4625 29.3906 36.4062 29.3063 36.4062H28.6031C28.5188 36.4062 28.4437 36.4719 28.4437 36.5656C28.4437 37.475 28.9406 38.5625 31.3125 38.5625C33.0469 38.5625 34.0312 37.8875 34.0312 36.7062ZM39.1406 32.0094C39.1406 32.5812 38.6719 33.05 38.1 33.05C37.5281 33.05 37.0594 32.5812 37.0594 32.0094C37.0594 31.4187 37.5469 30.9687 38.1 30.9687C38.6625 30.9594 39.1406 31.4187 39.1406 32.0094ZM38.9719 32.0094C38.9719 31.5219 38.5781 31.1375 38.0906 31.1375C37.6125 31.1375 37.2188 31.5219 37.2188 32.0094C37.2188 32.4969 37.6125 32.8906 38.0906 32.8906C38.5781 32.8812 38.9719 32.4875 38.9719 32.0094ZM38.55 32.5906H38.3063C38.2969 32.5344 38.2594 32.2344 38.2594 32.225C38.2406 32.1594 38.2219 32.1219 38.1375 32.1219H37.9313V32.5906H37.7063V31.4187H38.1094C38.25 31.4187 38.5219 31.4187 38.5219 31.7281C38.5219 31.9437 38.3812 31.9906 38.2969 32.0187C38.4562 32.0281 38.4656 32.1312 38.4938 32.2812C38.5031 32.375 38.5219 32.5344 38.55 32.5906ZM38.2875 31.7656C38.2875 31.6062 38.175 31.6062 38.1188 31.6062H37.9313V31.9344H38.1094C38.2594 31.9344 38.2875 31.8312 38.2875 31.7656ZM12.8719 18.4062C12.8719 18.1531 12.7406 17.9281 12.525 17.8062L6.77813 14.4969C6.68438 14.4406 6.57188 14.4125 6.45938 14.4031H6.40313C6.29063 14.4031 6.1875 14.4406 6.08438 14.4969L0.346875 17.8062C0.13125 17.9281 0 18.1625 0 18.4062L0.009375 27.3125C0.009375 27.4344 0.075 27.5469 0.178125 27.6125C0.28125 27.6781 0.4125 27.6781 0.525 27.6125L3.9375 25.6531C4.15312 25.5219 4.28438 25.2969 4.28438 25.0531V20.8906C4.28438 20.6469 4.41563 20.4125 4.63125 20.2906L6.08438 19.4562C6.19688 19.3906 6.30937 19.3625 6.43125 19.3625C6.55312 19.3625 6.675 19.3906 6.77813 19.4562L8.23125 20.2906C8.44688 20.4125 8.57812 20.6469 8.57812 20.8906V25.0531C8.57812 25.2969 8.70937 25.5312 8.925 25.6531L12.3375 27.6125C12.4406 27.6781 12.5813 27.6781 12.6844 27.6125C12.7875 27.5562 12.8531 27.4344 12.8531 27.3125L12.8719 18.4062ZM44.2969 8.68436V25.2219C44.2969 25.4656 44.1656 25.7 43.95 25.8219L38.2031 29.1406C37.9875 29.2625 37.725 29.2625 37.5094 29.1406L31.7625 25.8219C31.5469 25.7 31.4156 25.4656 31.4156 25.2219V18.5844C31.4156 18.3406 31.5469 18.1062 31.7625 17.9844L37.5094 14.6656C37.725 14.5437 37.9875 14.5437 38.2031 14.6656L39.6375 15.4906C39.7969 15.5844 40.0031 15.4625 40.0031 15.2844V6.47186C40.0031 6.20936 40.2844 6.04061 40.5188 6.17186L43.9406 8.08436C44.1562 8.19686 44.2969 8.43123 44.2969 8.68436ZM39.9844 20.7687C39.9844 20.7031 39.9469 20.6469 39.9 20.6187L37.9313 19.475C37.875 19.4469 37.8094 19.4469 37.7531 19.475L35.7844 20.6187C35.7281 20.6469 35.7 20.7031 35.7 20.7687V23.0469C35.7 23.1125 35.7375 23.1687 35.7844 23.1969L37.7531 24.3312C37.8094 24.3594 37.875 24.3594 37.9219 24.3312L39.8906 23.1969C39.9469 23.1687 39.975 23.1125 39.975 23.0469V20.7687H39.9844ZM59.6531 20.7031C59.8687 20.5812 60 20.3469 60 20.1031V18.5C60 18.2562 59.8687 18.0219 59.6531 17.9L53.9438 14.5812C53.7281 14.4594 53.4656 14.4594 53.25 14.5812L47.5031 17.9C47.2875 18.0219 47.1562 18.2562 47.1562 18.5V25.1375C47.1562 25.3906 47.2875 25.6156 47.5031 25.7375L53.2125 28.9906C53.4187 29.1125 53.6813 29.1125 53.8969 28.9906L57.3469 27.0687C57.5813 26.9375 57.5813 26.6 57.3469 26.4687L51.5625 23.15C51.45 23.0844 51.3844 22.9719 51.3844 22.85V20.7687C51.3844 20.6469 51.45 20.5344 51.5625 20.4687L53.3625 19.4281C53.4656 19.3625 53.6063 19.3625 53.7094 19.4281L55.5094 20.4687C55.6125 20.5344 55.6875 20.6469 55.6875 20.7687V22.4C55.6875 22.6625 55.9781 22.8312 56.2125 22.7L59.6531 20.7031ZM52.4062 21.0312C52.3688 21.0594 52.3406 21.0969 52.3406 21.1437V22.4187C52.3406 22.4656 52.3688 22.5125 52.4062 22.5312L53.5125 23.1687C53.55 23.1969 53.6063 23.1969 53.6438 23.1687L54.75 22.5312C54.7875 22.5031 54.8156 22.4656 54.8156 22.4187V21.1437C54.8156 21.0969 54.7875 21.05 54.75 21.0312L53.6438 20.3937C53.6063 20.3656 53.55 20.3656 53.5125 20.3937L52.4062 21.0312ZM28.575 25.1094V18.5094C28.575 18.2656 28.425 18.0312 28.2094 17.9094L22.4813 14.6094C22.2844 14.4969 22.0125 14.4781 21.7875 14.6094L16.0594 17.9094C15.8438 18.0312 15.6937 18.2562 15.6937 18.5094V25.1094C15.6937 25.3719 15.8719 25.5969 16.0687 25.7094L21.8063 29.0094C22.0312 29.1406 22.2938 29.1312 22.5 29.0094L28.2188 25.7094C28.3875 25.6156 28.5094 25.4562 28.5563 25.2687C28.5656 25.2219 28.575 25.1656 28.575 25.1094ZM21.6094 13.4L21.5344 13.4469H21.6375L21.6094 13.4ZM28.7531 25.6062L28.7156 25.5406V25.625L28.7531 25.6062Z" fill="white"/>
</svg>
