<svg width="137" height="49" viewBox="0 0 137 49" fill="none" xmlns="http://www.w3.org/2000/svg">
<g clip-path="url(#clip0_1229_3836)">
<path d="M18.5134 36H30.7809C31.1705 36.0002 31.5533 35.8985 31.8908 35.7053C32.2277 35.5129 32.5078 35.2351 32.7031 34.8999C32.8977 34.566 33.0002 34.1864 33 33.7999C32.9998 33.4134 32.897 33.0339 32.7021 32.7002L24.4636 18.5574C24.2683 18.2224 23.9882 17.9447 23.6515 17.7522C23.3136 17.5589 22.931 17.4573 22.5418 17.4573C22.1525 17.4573 21.77 17.5589 21.4321 17.7522C21.0954 17.9447 20.8153 18.2224 20.6199 18.5574L18.5134 22.1761L14.3947 15.0999C14.1992 14.7649 13.919 14.4872 13.5821 14.2949C13.2442 14.1016 12.8616 14 12.4723 14C12.083 14 11.7004 14.1016 11.3624 14.2949C11.0256 14.4873 10.7454 14.7649 10.5499 15.0999L0.297893 32.7002C0.103056 33.034 0.000261515 33.4134 0 33.7999C0 34.1861 0.102211 34.5655 0.297001 34.8999C0.492303 35.2351 0.772492 35.5129 1.10934 35.7053C1.44727 35.8987 1.82989 36.0002 2.21922 36H9.91984C12.9708 36 15.2209 34.6718 16.7691 32.0805L20.5279 25.6288L22.5412 22.1761L28.5835 32.5473H20.5279L18.5134 36ZM9.79427 32.5438L4.42024 32.5425L12.4758 18.7151L16.4953 25.6288L13.8041 30.2498C12.7759 31.9312 11.608 32.5438 9.79427 32.5438Z" fill="white"/>
<path fill-rule="evenodd" clip-rule="evenodd" d="M58.5978 18.6095C58.6845 18.7004 58.7522 18.8077 58.7968 18.9252C58.8415 19.0427 58.8622 19.1679 58.8578 19.2935V32.5815C58.8578 32.8585 58.7608 33.1355 58.5648 33.3475C58.468 33.4482 58.3514 33.5277 58.2223 33.5811C58.0932 33.6345 57.9544 33.6605 57.8148 33.6575C57.6518 33.6575 57.4888 33.6255 57.3258 33.5765C57.1941 33.5306 57.0763 33.4518 56.9838 33.3475L48.3758 22.1474V32.6795C48.3804 32.8084 48.3581 32.9369 48.3104 33.0568C48.2627 33.1766 48.1905 33.2853 48.0985 33.3757C48.0066 33.4662 47.8967 33.5366 47.7761 33.5823C47.6555 33.6281 47.5266 33.6482 47.3978 33.6415C47.2759 33.6426 47.1551 33.6185 47.0429 33.5709C46.9307 33.5232 46.8296 33.4529 46.7458 33.3645C46.6578 33.2767 46.5879 33.1724 46.5402 33.0576C46.4925 32.9428 46.4679 32.8198 46.4678 32.6955V19.3755C46.4678 19.0995 46.5828 18.8225 46.7938 18.6265C46.8853 18.5332 46.9945 18.4592 47.1151 18.4089C47.2357 18.3586 47.3651 18.3329 47.4958 18.3334C47.6588 18.3334 47.8378 18.3654 47.9848 18.4304C48.1385 18.4843 48.2737 18.5807 48.3748 18.7084L56.9348 29.9405V19.2935C56.9303 19.1646 56.9527 19.0362 57.0005 18.9165C57.0483 18.7967 57.1204 18.6882 57.2124 18.5978C57.3044 18.5075 57.4141 18.4372 57.5347 18.3915C57.6553 18.3458 57.784 18.3257 57.9128 18.3324C58.1578 18.3324 58.4028 18.4135 58.5648 18.6095H58.5978ZM76.3178 18.6415C76.4978 18.8535 76.6118 19.1315 76.5958 19.3915V27.8035C76.6135 28.8851 76.3495 29.9527 75.8298 30.9015C75.3435 31.8109 74.6081 32.563 73.7098 33.0695C72.7921 33.6102 71.7428 33.8871 70.6778 33.8695C69.6064 33.8712 68.552 33.6018 67.6128 33.0865C66.7205 32.5792 65.9866 31.8342 65.4928 30.9345C64.9732 29.9799 64.7096 28.9071 64.7278 27.8205V19.4084C64.7278 19.1304 64.8248 18.8534 65.0538 18.6584C65.2573 18.4622 65.529 18.3525 65.8118 18.3525C66.0945 18.3525 66.3662 18.4622 66.5698 18.6584C66.7648 18.8534 66.8798 19.1144 66.8798 19.4084V27.7885C66.8646 28.5073 67.0447 29.2168 67.4008 29.8415C67.7307 30.4198 68.2075 30.9008 68.7829 31.2358C69.3583 31.5709 70.0119 31.748 70.6778 31.7495C71.1972 31.7518 71.7119 31.6506 72.1919 31.4519C72.6718 31.2532 73.1074 30.961 73.4732 30.5922C73.839 30.2234 74.1277 29.7854 74.3225 29.3039C74.5173 28.8224 74.6143 28.3069 74.6078 27.7875V19.4075C74.6078 19.1305 74.6878 18.8535 74.8678 18.6415C74.959 18.538 75.0724 18.4564 75.1994 18.4028C75.3265 18.3491 75.464 18.3247 75.6018 18.3315C75.8788 18.3315 76.1388 18.4465 76.3178 18.6415ZM93.2578 31.9775C93.3825 32.1595 93.4453 32.3769 93.4368 32.5975C93.4436 32.7376 93.4193 32.8775 93.3657 33.0071C93.3121 33.1368 93.2305 33.253 93.1268 33.3475C92.9358 33.5239 92.6858 33.6227 92.4258 33.6245C92.2565 33.6288 92.0888 33.5909 91.938 33.514C91.7871 33.4372 91.6578 33.3239 91.5618 33.1845L87.3228 27.5105L83.1498 33.1835C83.0577 33.3242 82.9319 33.4398 82.7838 33.5196C82.6357 33.5994 82.47 33.6409 82.3018 33.6405C82.1775 33.6416 82.0543 33.6177 81.9395 33.5701C81.8247 33.5225 81.7207 33.4522 81.6338 33.3635C81.4644 33.2006 81.3647 32.9783 81.3558 32.7435C81.3558 32.4835 81.4538 32.2225 81.6168 32.0265L86.1168 25.9125L81.6008 19.8485C81.4392 19.6519 81.3578 19.4016 81.3728 19.1476C81.3879 18.8936 81.4982 18.6546 81.6818 18.4784C81.8355 18.3209 82.0358 18.2169 82.2531 18.1818C82.4704 18.1467 82.6933 18.1823 82.8888 18.2834C83.0456 18.3557 83.1805 18.4682 83.2798 18.6095L87.4858 24.2495L91.6268 18.6584C91.8068 18.3804 92.1168 18.2015 92.4588 18.1685C92.7188 18.1685 92.9798 18.2985 93.1588 18.4955C93.3388 18.6585 93.4528 18.9025 93.4688 19.1475C93.4688 19.3915 93.3878 19.6035 93.2408 19.7995L88.6758 25.8635L93.2408 31.9775H93.2578ZM108.99 18.6095C109.091 18.7019 109.172 18.8154 109.225 18.9419C109.279 19.0685 109.304 19.2051 109.3 19.3425C109.301 19.4788 109.273 19.6138 109.216 19.7378C109.16 19.8619 109.077 19.9721 108.973 20.0605C108.871 20.1513 108.753 20.221 108.624 20.2657C108.495 20.3103 108.359 20.3289 108.223 20.3205H104.343V32.6135C104.346 32.7506 104.319 32.8867 104.266 33.0131C104.213 33.1394 104.133 33.253 104.033 33.3465C103.812 33.5412 103.528 33.6487 103.234 33.6487C102.94 33.6487 102.656 33.5412 102.436 33.3465C102.334 33.253 102.253 33.1398 102.197 33.0137C102.141 32.8876 102.111 32.7514 102.11 32.6135V20.3205H98.2298C97.9528 20.3205 97.6918 20.2395 97.4798 20.0435C97.3788 19.9505 97.2989 19.8369 97.2454 19.7105C97.1919 19.5841 97.1662 19.4477 97.1698 19.3105C97.1698 19.0495 97.2678 18.7885 97.4638 18.6095C97.6758 18.4135 97.9528 18.3154 98.2138 18.3324H108.224C108.501 18.3324 108.778 18.4135 108.99 18.6095Z" fill="white"/>
<path fill-rule="evenodd" clip-rule="evenodd" d="M113.75 33.2655C113.04 32.8678 112.449 32.2878 112.038 31.5855C111.923 31.4106 111.855 31.2085 111.843 30.9995C111.841 30.8634 111.87 30.7287 111.926 30.6048C111.982 30.4809 112.065 30.3709 112.169 30.2825C112.349 30.0865 112.593 29.9885 112.853 29.9555C113.245 30.0055 113.603 30.2005 113.832 30.5105C114.067 30.9081 114.404 31.2356 114.808 31.4591C115.212 31.6826 115.668 31.7939 116.13 31.7815C116.505 31.7925 116.878 31.728 117.228 31.5921C117.578 31.4561 117.897 31.2513 118.166 30.9898C118.435 30.7283 118.649 30.4155 118.795 30.0698C118.941 29.7242 119.016 29.3527 119.016 28.9775V19.3915C119.013 19.2504 119.04 19.1102 119.097 18.9808C119.153 18.8513 119.237 18.7356 119.342 18.6415C119.551 18.4453 119.826 18.3347 120.113 18.3318C120.4 18.3288 120.678 18.4336 120.891 18.6255C120.988 18.7243 121.064 18.8417 121.114 18.9706C121.164 19.0995 121.188 19.2372 121.184 19.3755V28.9945C121.202 29.8567 120.983 30.7074 120.552 31.4543C120.121 32.2013 119.494 32.8162 118.739 33.2325C117.982 33.6632 117.127 33.8925 116.257 33.8983C115.386 33.904 114.528 33.6862 113.766 33.2655H113.75ZM128.83 33.3305C127.957 33.0039 127.159 32.505 126.483 31.8635C126.347 31.759 126.236 31.6261 126.157 31.4741C126.078 31.3221 126.033 31.1546 126.026 30.9835C126.027 30.8477 126.057 30.7138 126.113 30.5902C126.169 30.4666 126.251 30.356 126.352 30.2655C126.442 30.1693 126.55 30.0922 126.671 30.039C126.791 29.9857 126.921 29.9573 127.053 29.9555C127.298 29.9555 127.51 30.0375 127.689 30.2005C128.211 30.6905 128.83 31.0975 129.482 31.3905C130.167 31.6505 130.884 31.7815 131.602 31.7815C132.427 31.8031 133.239 31.5759 133.933 31.1295C134.503 30.8035 134.879 30.2005 134.879 29.5325C134.884 29.1827 134.8 28.8373 134.635 28.5291C134.469 28.2209 134.227 27.9601 133.933 27.7715C133.056 27.2623 132.095 26.9144 131.096 26.7445C129.596 26.4185 128.439 25.9295 127.624 25.2285C126.809 24.5275 126.417 23.5485 126.417 22.3095C126.395 21.4951 126.635 20.6951 127.102 20.0275C127.576 19.37 128.218 18.8519 128.961 18.5275C130.652 17.8532 132.532 17.8244 134.243 18.4465C134.97 18.6885 135.637 19.0829 136.199 19.6035C136.493 19.8315 136.689 20.1735 136.689 20.5335C136.689 20.6639 136.663 20.793 136.613 20.9132C136.562 21.0334 136.488 21.1423 136.395 21.2335C136.306 21.3371 136.196 21.42 136.072 21.4764C135.948 21.5327 135.813 21.5611 135.677 21.5595C135.498 21.5571 135.326 21.494 135.188 21.3805C134.229 20.5209 132.987 20.0449 131.7 20.0435C130.881 19.9987 130.068 20.2033 129.368 20.6305C129.102 20.8077 128.884 21.0477 128.734 21.3292C128.583 21.6108 128.504 21.9252 128.504 22.2445C128.504 22.5638 128.583 22.8782 128.734 23.1598C128.884 23.4413 129.102 23.6813 129.368 23.8585C130.165 24.3283 131.036 24.659 131.944 24.8365C132.906 25.0165 133.835 25.3265 134.732 25.7005C135.417 26.0105 136.003 26.4835 136.411 27.1025C136.835 27.8205 137.031 28.6195 136.998 29.4505C137.017 30.257 136.77 31.0473 136.297 31.7005C135.8 32.3835 135.123 32.9141 134.341 33.2325C132.567 33.9106 130.611 33.9453 128.814 33.3305H128.83Z" fill="white"/>
</g>
<defs>
<clipPath id="clip0_1229_3836">
<rect width="137" height="48" fill="white" transform="translate(0 0.5)"/>
</clipPath>
</defs>
</svg>
