<svg width="71" height="49" viewBox="0 0 71 49" fill="none" xmlns="http://www.w3.org/2000/svg">
<g clip-path="url(#clip0_1227_3326)">
<path d="M35.3684 5.66992C15.5356 5.66992 0 13.9922 0 24.6173C0 35.2424 15.5356 43.5647 35.3684 43.5647C55.2013 43.5647 70.7368 35.2424 70.7368 24.6173C70.7368 13.9922 55.2013 5.66992 35.3684 5.66992ZM31.696 11.4999H35.5571L34.3309 17.3298H37.7794C39.9663 17.3298 41.4341 17.633 42.2712 18.388C43.0876 19.1342 43.3352 20.3585 43.008 22.0259L41.4754 28.9898H37.5495L38.9613 22.5506C39.1322 21.6673 39.0644 21.0523 38.7638 20.7287C38.4661 20.4051 37.8088 20.2448 36.8244 20.2448H33.7326L31.8669 28.9898H28L31.696 11.4999ZM14.7368 17.3298H22.5945C26.3406 17.3298 28.6101 19.8134 27.7229 23.5183C26.6914 27.8238 23.9326 28.9898 18.8514 28.9898H16.4227L15.6535 33.3622H11.7482L14.7368 17.3298ZM45.6842 17.3298H53.5419C57.288 17.3298 59.5575 19.8134 58.6703 23.5183C57.6387 27.8238 54.8771 28.9898 49.7987 28.9898H47.3701L46.6008 33.3622H42.6956L45.6842 17.3298ZM18.0821 20.2448L16.9709 26.0748H19.4909C21.672 26.0748 23.6998 25.8299 24.0387 22.6147C24.1655 21.3671 23.6408 20.2448 21.1208 20.2448H18.0821ZM49.0295 20.2448L47.9183 26.0748H50.4383C52.6194 26.0748 54.6472 25.8299 54.9861 22.6147C55.1128 21.3671 54.5912 20.2448 52.0682 20.2448H49.0295Z" fill="white"/>
</g>
<defs>
<clipPath id="clip0_1227_3326">
<rect width="70.7368" height="48" fill="white" transform="translate(0 0.5)"/>
</clipPath>
</defs>
</svg>
