<svg width="111" height="49" viewBox="0 0 111 49" fill="none" xmlns="http://www.w3.org/2000/svg">
<path d="M60.8776 23.2111C62.2807 21.5138 62.3445 19.628 61.5791 17.742C60.8138 15.8562 59.2193 14.976 57.2422 14.9132C54.8823 14.8503 52.4587 14.9132 50.0988 14.9132H49.6523V31.1948H51.5657V25.0342H54.5634C54.9461 25.0342 55.2649 25.1599 55.4563 25.4742L59.2831 31.3205C59.3469 31.4462 59.5382 31.6348 59.6657 31.6348H62.1532C60.6224 29.3089 59.1556 27.1087 57.6249 24.8456C58.9642 24.657 60.1123 24.217 60.8776 23.2111ZM51.5657 23.0854V16.862H52.2673C53.7342 16.862 55.2649 16.7991 56.7319 16.9248C58.454 16.9877 59.6657 18.3078 59.6657 20.0052C59.6657 21.7025 58.2626 23.0226 56.5406 23.0854C55.0099 23.1483 53.4791 23.0854 51.5657 23.0854ZM76.2485 23.9026C75.2281 19.5022 71.1461 18.3707 68.0209 19.7537C65.5973 20.8224 64.5131 22.8969 64.4492 25.4742C64.3855 27.423 64.9595 29.1832 66.4902 30.5033C68.2123 32.012 70.317 32.2006 72.4855 31.8234C73.6974 31.572 74.7816 31.0061 75.6108 30.1261C75.2918 29.686 74.9729 29.246 74.6541 28.8688C72.8682 30.3776 70.891 30.8804 68.7225 29.8746C67.3193 29.1832 66.6178 27.4859 66.4902 26.2286H76.3761V25.4114C76.4399 24.8456 76.3761 24.3427 76.2485 23.9026ZM66.6178 24.9084C66.4265 23.0226 68.3399 21.0109 70.4446 21.0109C72.8682 20.9481 74.3989 22.3939 74.4627 24.9084H66.6178ZM86.1982 19.4393C85.2415 19.2508 84.221 19.1879 83.2643 19.2508C81.7336 19.3765 80.3943 20.068 79.31 21.1995C79.6289 21.6396 79.884 22.0796 80.2667 22.5825C80.3943 22.4568 80.5218 22.331 80.6493 22.2682C81.6698 21.3253 82.8817 20.8224 84.3485 20.9481C85.4966 21.0109 86.5809 21.3881 86.8998 22.5197C87.1549 23.3997 87.0911 24.3427 87.1549 25.2856C86.9635 25.2856 86.8998 25.2227 86.836 25.1599C85.3052 23.9026 83.5832 23.6511 81.7336 24.0912C80.0116 24.5312 78.9273 25.8514 78.7997 27.5487C78.6722 29.4974 79.5651 30.9433 81.2871 31.6348C82.3714 32.0749 83.5832 32.0749 84.7312 31.8234C85.6242 31.6348 86.0069 31.1318 87.2825 30.4404V31.2576H89.0683C89.0683 28.7431 89.132 25.6628 89.0683 22.7711C89.0683 20.9481 87.984 19.8165 86.1982 19.4393ZM87.0911 27.3601C87.0273 27.5487 87.0911 27.7373 87.0911 27.9259C87.0911 29.246 86.7722 29.686 85.4966 30.1889C84.6037 30.5033 83.647 30.629 82.6903 30.3146C81.606 30.0004 80.8407 29.0574 80.8407 27.9887C80.7769 26.92 81.4785 25.8514 82.5627 25.5371C84.0297 25.0342 85.3691 25.3484 86.5809 26.2286C86.9635 26.5428 87.2186 26.8572 87.0911 27.3601ZM97.0406 21.1366C98.6992 20.6337 100.23 20.9481 101.378 22.331L101.569 22.4567C102.015 22.0796 102.398 21.7025 102.909 21.2624C102.717 21.0738 102.653 20.9481 102.526 20.7594C100.677 18.8107 97.0406 18.5593 94.8085 20.1309C91.6831 22.3939 91.747 26.7943 93.2777 29.1203C94.7445 31.3205 96.8497 32.0749 99.3367 31.7605C100.803 31.572 102.015 30.8804 102.973 29.686C102.526 29.3089 102.079 28.9317 101.633 28.4916C101.505 28.6173 101.442 28.6803 101.378 28.806C99.6554 30.6918 96.7858 30.5033 95.2551 28.4916C94.3619 27.2972 94.171 25.9143 94.4258 24.5313C94.5536 22.9597 95.3829 21.7025 97.0406 21.1366ZM110.307 29.686C110.18 29.7489 110.116 29.8117 110.116 29.8117C109.605 30.1889 109.095 30.2518 108.521 30.0632C107.947 29.8117 107.883 29.3088 107.82 28.806V21.6396C107.82 21.5138 107.82 21.7653 107.883 21.1366H110.307V19.2508H107.756V16.1076H105.842V19.5022H104.184C104.057 19.5022 103.865 19.628 103.865 19.7537C103.801 20.1937 103.865 20.508 103.865 21.1366H105.906V29.1832C105.906 30.1889 106.161 31.069 107.054 31.572C108.01 32.1377 109.861 32.012 110.689 31.3205C110.817 31.2576 110.881 31.0061 110.881 30.9433C110.689 30.5661 110.498 30.1261 110.307 29.686Z" fill="white"/>
<path d="M21.3336 27.6915C23.4643 27.6915 25.1916 25.9643 25.1916 23.8335C25.1916 21.7029 23.4643 19.9756 21.3336 19.9756C19.2029 19.9756 17.4756 21.7029 17.4756 23.8335C17.4756 25.9643 19.2029 27.6915 21.3336 27.6915Z" fill="white"/>
<path d="M21.3338 38.0208C24.3621 40.9661 27.3489 42.7084 29.7549 42.7084C30.5431 42.7084 31.2898 42.5424 31.912 42.1691C34.0692 40.9247 34.8574 37.8133 34.1107 33.3746C33.9862 32.5865 33.8203 31.7983 33.6129 30.9686C34.4426 30.7197 35.1893 30.4708 35.9359 30.2219C40.1258 28.604 42.4489 26.3639 42.4489 23.9164C42.4489 21.4274 40.1258 19.1873 35.9359 17.611C35.1893 17.3206 34.4426 17.0717 33.6129 16.8642C33.8203 16.0346 33.9862 15.2464 34.1107 14.4582C34.8159 9.93653 34.0278 6.78378 31.8706 5.53928C31.2483 5.16593 30.5016 5 29.7135 5C27.3489 5 24.3206 6.7423 21.2923 9.68762C18.3055 6.7423 15.3187 5 12.9127 5C12.1245 5 11.3778 5.16593 10.7556 5.53928C8.59839 6.78378 7.81021 9.89505 8.55691 14.3338C8.68137 15.1219 8.8473 15.9101 9.05472 16.7398C8.22504 16.9887 7.47834 17.2376 6.73164 17.4865C2.54182 19.1044 0.21875 21.3445 0.21875 23.792C0.21875 26.281 2.54182 28.5211 6.73164 30.0975C7.47834 30.3878 8.22504 30.6367 9.05472 30.8442C8.8473 31.6738 8.68137 32.4621 8.55691 33.2502C7.85169 37.6889 8.63988 40.8416 10.7556 42.0447C11.3778 42.418 12.1245 42.584 12.9127 42.584C15.3187 42.667 18.3055 40.9247 21.3338 38.0208ZM19.0107 32.4205C19.7574 32.4621 20.5457 32.462 21.3338 32.462C22.122 32.462 22.9102 32.4621 23.6569 32.4205C22.9102 33.4161 22.122 34.3288 21.3338 35.2C20.5457 34.3288 19.7574 33.4161 19.0107 32.4205ZM13.8668 28.1478C14.2816 28.853 14.655 29.5167 15.1113 30.1804C13.8253 30.0145 12.6223 29.8071 11.4608 29.5582C11.8341 28.4382 12.2489 27.2766 12.7468 26.1151C13.0786 26.7788 13.452 27.484 13.8668 28.1478ZM11.4608 18.1502C12.6223 17.9013 13.8253 17.6939 15.1113 17.528C14.6964 18.1917 14.2816 18.8554 13.8668 19.5606C13.452 20.2659 13.0786 20.9296 12.7468 21.6348C12.2075 20.4318 11.7926 19.2702 11.4608 18.1502ZM13.7423 23.8335C14.2816 22.7134 14.8624 21.5933 15.5261 20.4733C16.1484 19.3948 16.8536 18.3162 17.5588 17.2376C18.8033 17.1546 20.0478 17.1131 21.3338 17.1131C22.6613 17.1131 23.9058 17.1546 25.1088 17.2376C25.8555 18.3162 26.5192 19.3948 27.1415 20.4733C27.8052 21.5933 28.386 22.7134 28.9252 23.8335C28.386 24.9535 27.8052 26.0736 27.1415 27.1936C26.5192 28.2722 25.814 29.3507 25.1088 30.4293C23.8643 30.5123 22.6198 30.5538 21.3338 30.5538C20.0063 30.5538 18.7618 30.5123 17.5588 30.4293C16.8122 29.3507 16.1484 28.2722 15.5261 27.1936C14.8624 26.0736 14.2816 24.9535 13.7423 23.8335ZM29.9624 21.5933L28.8423 19.5192C28.4275 18.814 28.0541 18.1502 27.5978 17.4865C28.8837 17.6525 30.0868 17.8598 31.2483 18.1088C30.875 19.2702 30.4602 20.4318 29.9624 21.5933ZM29.9624 26.0736C30.4602 27.2351 30.875 28.3966 31.2483 29.5167C30.0868 29.7656 28.8837 29.973 27.5978 30.139C28.0127 29.4752 28.4275 28.8115 28.8423 28.1063C29.2156 27.484 29.589 26.7788 29.9624 26.0736ZM30.9164 40.4683C30.5846 40.6757 30.1697 40.7587 29.7135 40.7587C27.6808 40.7587 25.1502 39.0993 22.6613 36.6104C23.8643 35.3244 25.0258 33.8725 26.1873 32.2546C28.1371 32.0886 30.0039 31.7983 31.7462 31.3834C31.9535 32.1302 32.078 32.8769 32.2024 33.6235C32.7832 37.1496 32.3269 39.6801 30.9164 40.4683ZM33.0736 18.6065C37.7197 19.934 40.4992 21.9667 40.4992 23.8335C40.4992 25.4513 38.5909 27.0692 35.2307 28.3551C34.567 28.604 33.8203 28.853 33.0736 29.0604C32.5343 27.3595 31.8706 25.6172 31.0409 23.8335C31.8706 22.0497 32.5758 20.3074 33.0736 18.6065ZM29.7549 6.90824C30.2112 6.90824 30.5846 6.99121 30.9579 7.19862C32.3269 7.9868 32.8247 10.4758 32.2439 14.0434C32.1195 14.7486 31.9535 15.4953 31.7876 16.2835C30.0453 15.9101 28.1785 15.6198 26.2288 15.4123C25.1088 13.7945 23.9058 12.3426 22.7028 11.0566C25.1917 8.60906 27.7223 6.90824 29.7549 6.90824ZM23.6569 15.2464C22.9102 15.2049 22.122 15.2049 21.3338 15.2049C20.5457 15.2049 19.7574 15.2049 19.0107 15.2464C19.7574 14.2508 20.5457 13.3382 21.3338 12.467C22.122 13.3382 22.9102 14.2923 23.6569 15.2464ZM11.7512 7.19862C12.083 6.99121 12.4979 6.90824 12.9541 6.90824C14.9868 6.90824 17.5174 8.56757 20.0063 11.0566C18.8033 12.3426 17.6418 13.7945 16.4803 15.4123C14.5305 15.5783 12.6637 15.8686 10.9215 16.2835C10.7141 15.5367 10.5896 14.7901 10.4652 14.0434C9.8844 10.5173 10.3407 8.02829 11.7512 7.19862ZM9.59402 29.0604C4.94786 27.7329 2.16847 25.7002 2.16847 23.8335C2.16847 22.2156 4.0767 20.5977 7.43686 19.3118C8.1006 19.0629 8.8473 18.814 9.59402 18.6065C10.1333 20.3074 10.797 22.0497 11.6267 23.8335C10.797 25.6172 10.0918 27.4011 9.59402 29.0604ZM10.4652 33.6235C10.5896 32.9183 10.7556 32.1717 10.9215 31.3834C12.6637 31.7568 14.5305 32.0471 16.4803 32.2546C17.6003 33.8725 18.8033 35.3244 20.0063 36.6104C17.5174 39.0579 14.9868 40.7587 12.9541 40.7587C12.4979 40.7587 12.1245 40.6757 11.7512 40.4683C10.3407 39.6801 9.8844 37.1496 10.4652 33.6235Z" fill="white"/>
</svg>
