<svg width="73" height="49" viewBox="0 0 73 49" fill="none" xmlns="http://www.w3.org/2000/svg">
<g clip-path="url(#clip0_1133_2329)">
<path d="M4.74277 18.3598C5.4101 17.6142 6.23048 17.029 7.14476 16.6464C8.0356 16.2553 8.99041 16.0398 9.95936 16.0109C10.3058 15.9786 10.6552 16.0182 10.9864 16.1275C11.3177 16.2366 11.6241 16.4132 11.8871 16.6464C12.0822 16.8396 12.2351 17.0727 12.3361 17.3305C12.437 17.5884 12.4838 17.8651 12.4731 18.1427C12.4771 18.7008 12.2666 19.2381 11.8871 19.6389C11.7038 19.8486 11.4783 20.0147 11.2259 20.1258C10.9734 20.237 10.7005 20.2904 10.4259 20.2824C8.01993 20.4995 4.68109 22.9551 4.68109 26.2911V33.863C4.66542 34.4252 4.44013 34.9597 4.05148 35.357C3.66283 35.7543 3.14025 35.9839 2.5913 35.9988C2.31045 36.009 2.03087 35.955 1.77283 35.8411C1.51479 35.727 1.28466 35.5557 1.09926 35.3396C0.903783 35.1447 0.748067 34.9122 0.640773 34.6553C0.533608 34.3986 0.477158 34.1226 0.474609 33.8432V18.0519C0.476903 17.7726 0.533354 17.4965 0.640519 17.2397C0.747813 16.9829 0.903655 16.7504 1.09926 16.5556C1.55684 16.2175 2.10427 16.0302 2.66839 16.0187C3.2176 16.0298 3.74132 16.2578 4.1301 16.6552C4.51875 17.0525 4.74251 17.5883 4.75436 18.1505L4.74277 18.3598Z" fill="white"/>
<path d="M29.4007 25.5085C29.4031 26.0239 29.2252 26.5218 28.9019 26.9048C28.5186 27.2845 28.0236 27.5104 27.5016 27.5438H15.6778C15.7894 28.5463 16.2465 29.4686 16.9599 30.1312C17.8739 31.1805 19.1244 31.824 20.4627 31.9339C21.1403 32.0568 21.8342 32.0351 22.5039 31.8698C23.1736 31.7046 23.806 31.3992 24.3645 30.9715C24.5607 30.7603 24.7954 30.5943 25.0541 30.4837C25.3127 30.3732 25.5898 30.3204 25.8684 30.3285C26.1076 30.3165 26.3466 30.358 26.5699 30.4504C26.7933 30.5428 26.9961 30.684 27.1652 30.8649C27.3233 31.0197 27.4511 31.2061 27.5414 31.4136C27.6317 31.6211 27.6829 31.8457 27.6918 32.0743C27.7007 32.3029 27.6673 32.5312 27.5934 32.7461C27.5195 32.9609 27.4067 33.1581 27.2614 33.3262C27.2318 33.3617 27.1986 33.3933 27.1652 33.4288C26.2928 34.291 25.2697 34.9613 24.1546 35.4012C23.0394 35.841 21.8539 36.0421 20.6659 35.9927C19.4462 36.021 18.235 35.7686 17.1148 35.2527C15.9945 34.7368 14.9916 33.9695 14.1739 33.0028C12.4793 31.0922 11.517 28.5731 11.4766 25.9423C11.451 24.6324 11.6771 23.3308 12.141 22.1178C12.6049 20.9049 13.2968 19.8061 14.1739 18.8897C14.9734 17.9599 15.9487 17.222 17.0355 16.725C18.1222 16.228 19.2954 15.9829 20.4775 16.0063C21.627 15.9595 22.7728 16.1737 23.839 16.6347C24.9053 17.0956 25.8677 17.793 26.6627 18.6807C28.3587 20.4151 29.3653 22.7791 29.4746 25.2836V25.4926L29.4007 25.5085ZM20.4959 19.8482C19.2524 19.8709 18.0569 20.3642 17.1224 21.2406C16.3266 21.9549 15.7658 22.9225 15.5226 24.0016H26.0272C25.7328 22.9172 25.0957 21.975 24.2242 21.3353C23.1722 20.43 21.8787 19.9038 20.5291 19.8324" fill="white"/>
<path d="M49.4746 33.8521C49.4599 34.4162 49.2346 34.953 48.8448 35.3524C48.4551 35.7517 47.9307 35.9833 47.3792 35.9992C46.8956 35.9795 46.4309 35.8019 46.0531 35.4926C45.6753 35.1832 45.4043 34.7583 45.2798 34.28C43.7192 35.4227 41.8423 36.0251 39.9231 35.9992C38.6698 36.0136 37.427 35.764 36.2722 35.2658C35.1174 34.7676 34.0753 34.0316 33.2107 33.1036C32.3055 32.177 31.5961 31.0703 31.1264 29.852C30.6567 28.6336 30.4367 27.3296 30.4799 26.0206C30.4633 23.3892 31.4417 20.8529 33.2107 18.9418C34.0691 17.9974 35.1076 17.2428 36.262 16.7244C37.4164 16.206 38.6623 15.9347 39.9231 15.9273C41.8063 15.9017 43.6462 16.5054 45.1636 17.6465V10.1477C45.1563 9.86564 45.209 9.5853 45.3179 9.32609C45.427 9.06688 45.5897 8.83496 45.7949 8.64637C45.9882 8.44272 46.2194 8.28067 46.4748 8.16979C46.7303 8.0589 47.0047 8.00139 47.2823 8.00068C47.5581 7.99321 47.8322 8.04709 48.0857 8.15857C48.3391 8.27005 48.5659 8.43648 48.7503 8.64637C48.9473 8.84156 49.1045 9.07474 49.2128 9.33243C49.3213 9.59012 49.3786 9.86722 49.3817 10.1477V33.8521H49.4746ZM40.0431 31.7052C40.741 31.7199 41.433 31.5737 42.068 31.2775C42.703 30.9812 43.2646 30.5424 43.7111 29.9939C44.7146 28.9305 45.2754 27.5103 45.2754 26.0325C45.2754 24.5547 44.7146 23.1346 43.7111 22.0713C43.25 21.5386 42.6861 21.1095 42.0548 20.8109C41.4236 20.5123 40.7386 20.3507 40.0431 20.3362C39.3426 20.3113 38.6461 20.4539 38.0087 20.7522C37.3713 21.0507 36.8106 21.4968 36.3713 22.0555C35.3678 23.1188 34.807 24.5389 34.807 26.0167C34.807 27.4945 35.3678 28.9146 36.3713 29.978C36.8268 30.5168 37.3907 30.9485 38.0245 31.244C38.6581 31.5393 39.3467 31.6911 40.0431 31.6893" fill="white"/>
<path d="M55.4737 10.1455V11.0052C55.4823 11.3069 55.4322 11.6073 55.3264 11.8871C55.2207 12.1668 55.0616 12.4199 54.8594 12.6299C54.6792 12.8252 54.4604 12.9744 54.2191 13.0665C53.9777 13.1587 53.7202 13.1914 53.4654 13.1623C53.2045 13.1718 52.9448 13.1198 52.7046 13.0101C52.4645 12.9004 52.2496 12.7357 52.0752 12.5274C51.8773 12.3196 51.7219 12.0699 51.6187 11.7943C51.5155 11.5187 51.4668 11.2232 51.4756 10.9263V10.1376C51.4769 9.85811 51.5306 9.58172 51.6335 9.32495C51.7366 9.06817 51.8867 8.83626 52.0752 8.64303C52.2555 8.44242 52.4714 8.28227 52.71 8.17192C52.9488 8.06156 53.2055 8.00321 53.4654 8.00024C53.7276 7.99587 53.9876 8.05167 54.2281 8.1639C54.4685 8.27613 54.6838 8.44218 54.8594 8.65092C55.0566 8.83722 55.2135 9.06754 55.319 9.32573C55.4244 9.58391 55.476 9.86372 55.4699 10.1455M52.1119 16.6642C52.2921 16.4622 52.5084 16.3012 52.748 16.1908C52.9874 16.0803 53.2451 16.0227 53.5059 16.0214C53.768 16.012 54.0288 16.0649 54.2698 16.1759C54.5107 16.287 54.7258 16.4538 54.8998 16.6642C55.0889 16.8725 55.2369 17.1195 55.3348 17.3906C55.4328 17.6617 55.4788 17.951 55.4699 18.2416V33.8619C55.4856 34.1451 55.4384 34.4281 55.3323 34.6878C55.2262 34.9477 55.0641 35.1768 54.8594 35.3565C54.6789 35.557 54.4631 35.7172 54.2244 35.8276C53.9858 35.9379 53.7291 35.9963 53.4691 35.9992C53.2071 36.0073 52.9467 35.9539 52.7059 35.8428C52.4652 35.7318 52.25 35.5659 52.0752 35.3565C51.8867 35.1632 51.7366 34.9313 51.6335 34.6746C51.5306 34.4178 51.4769 34.1414 51.4756 33.8619V18.2573C51.4687 17.9643 51.5184 17.6729 51.6216 17.4014C51.7247 17.13 51.8792 16.8844 52.0752 16.6799" fill="white"/>
<path d="M70.7198 18.291C71.1464 18.5939 71.4447 19.0532 71.554 19.5752C71.6381 20.1209 71.5659 20.6801 71.3464 21.1842C71.048 21.6202 70.6024 21.9255 70.097 22.0403C69.5548 22.1434 68.9948 22.0285 68.5322 21.7193C67.0752 20.7562 65.9372 20.2211 64.9953 20.2211C64.1633 20.1659 63.3412 20.4314 62.6885 20.9663C62.2734 21.2912 62.0658 21.5053 62.0658 21.7193C62.037 21.9059 62.0737 22.0971 62.1696 22.2583C62.2879 22.3904 62.4287 22.4991 62.5847 22.5793C63.4339 23.1293 64.3993 23.4597 65.399 23.5424C66.6935 23.7624 67.9532 24.1624 69.1435 24.7314C70.1932 25.1834 71.0706 25.9767 71.6424 26.9905C72.0138 27.5812 72.2681 28.2418 72.3906 28.9343C72.5132 29.6268 72.5015 30.3374 72.3565 31.0253C72.2114 31.7131 71.9357 32.3645 71.5452 32.942C71.1548 33.5195 70.6573 34.0116 70.0816 34.3899C68.6252 35.463 66.8737 36.027 65.0838 35.999C62.6885 35.999 60.401 35.036 58.2136 33.2248C57.8157 32.8634 57.5565 32.367 57.4831 31.8257C57.4471 31.4242 57.5262 31.0206 57.7104 30.6649C57.8948 30.3092 58.1762 30.0172 58.52 29.8248C58.8637 29.6324 59.2547 29.5482 59.6444 29.5827C60.0341 29.6171 60.4055 29.7685 60.7125 30.0184C61.8616 31.1452 63.3942 31.7614 64.98 31.7345C65.9022 31.7669 66.8114 31.5038 67.5827 30.9815C67.9979 30.5534 68.3131 30.2324 68.3131 29.9075C68.3131 29.5824 68.3132 29.4794 68.2093 29.3724C68.2093 29.2614 67.9978 29.0513 67.6865 28.9444C66.7361 28.3386 65.6698 27.9519 64.5609 27.8108C63.3243 27.6271 62.1278 27.2248 61.0239 26.6219C60.013 26.1135 59.1508 25.3381 58.525 24.3747C58.115 23.6207 57.9017 22.7699 57.9059 21.9055C57.9044 21.0338 58.1125 20.1753 58.5116 19.4069C58.9109 18.6384 59.4887 17.984 60.1934 17.5023C61.6036 16.5113 63.2734 15.9873 64.98 16.0002C66.733 16.1112 68.6245 16.8564 70.7044 18.2553" fill="white"/>
</g>
<defs>
<clipPath id="clip0_1133_2329">
<rect width="72" height="48" fill="white" transform="translate(0.737305 0.5)"/>
</clipPath>
</defs>
</svg>
