<svg width="48" height="49" viewBox="0 0 48 49" fill="none" xmlns="http://www.w3.org/2000/svg">
<g clip-path="url(#clip0_1229_3840)">
<path d="M12.072 37.2324C11.9313 37.2322 11.7937 37.2734 11.6763 37.3509C11.5567 37.43 11.4472 37.5665 11.4472 37.7413C11.4472 37.7645 11.4337 37.8163 11.4787 37.9063L11.4671 37.8778L13.8708 45.6767C13.914 45.8229 14.0171 45.9347 14.1333 45.9992C14.2496 46.0637 14.3763 46.0873 14.5001 46.0873C14.7626 46.0873 15.0513 45.962 15.1395 45.6793V45.6785L17.541 37.8504V37.8219C17.541 37.8617 17.5526 37.8388 17.5526 37.7533C17.5526 37.5752 17.439 37.4443 17.3175 37.3622C17.1959 37.2786 17.0521 37.2334 16.9046 37.2324C16.7208 37.2324 16.5101 37.3438 16.4396 37.556L16.4381 37.5583L14.4993 44.0285L12.5531 37.5699C12.5242 37.4544 12.4466 37.358 12.3562 37.304C12.2658 37.25 12.1672 37.2324 12.072 37.2324ZM31.2176 37.6344C30.8351 37.6344 30.5126 37.9277 30.5126 38.2944C30.5126 38.6612 30.8298 38.9645 31.2176 38.9645C31.5978 38.9645 31.9001 38.6555 31.9001 38.2944C31.9001 37.9333 31.5926 37.6344 31.2176 37.6344ZM25.5817 40.1312C24.2737 40.1312 23.1963 41.1782 23.1963 42.4363V43.7255C23.1963 44.4302 23.4768 45.0343 23.9538 45.4509C24.4301 45.8679 25.0953 46.0985 25.8577 46.0985C26.421 46.0985 26.8803 45.9722 27.2085 45.8012C27.3727 45.7153 27.5047 45.6193 27.6018 45.5147C27.6993 45.4097 27.7706 45.2953 27.7706 45.152C27.7706 45.0208 27.7203 44.9068 27.6382 44.8044C27.5565 44.702 27.4275 44.6079 27.261 44.6079C27.141 44.6079 27.0487 44.6585 26.9688 44.7077C26.889 44.7564 26.814 44.8108 26.7236 44.8629C26.5428 44.9668 26.3036 45.068 25.8806 45.068C25.4096 45.068 25.0173 44.9338 24.7466 44.708C24.4766 44.483 24.3191 44.1699 24.3191 43.7597V43.5212H26.7322C26.9898 43.5212 27.276 43.5212 27.5235 43.3637C27.771 43.2054 27.921 42.8912 27.921 42.4138C27.921 41.09 26.817 40.1312 25.5817 40.1312ZM34.6515 40.1312C33.9562 40.1312 33.4447 40.3562 33.1162 40.6944C32.7877 41.0327 32.646 41.4729 32.646 41.8839C32.646 42.4082 32.8578 42.7839 33.1608 43.0243C33.4642 43.2654 33.8415 43.3865 34.2003 43.4945C34.5592 43.6029 34.9027 43.6989 35.1333 43.841C35.364 43.9835 35.4877 44.1369 35.4877 44.4613C35.4877 44.6357 35.4352 44.7744 35.2938 44.8877C35.1521 45.0013 34.9001 45.0905 34.4902 45.0905C34.0053 45.0905 33.7342 44.9709 33.5366 44.849C33.438 44.7879 33.3585 44.7245 33.2767 44.6679C33.195 44.6113 33.102 44.5502 32.9718 44.5502C32.8155 44.5502 32.7 44.6465 32.6298 44.7463C32.5588 44.8441 32.5201 44.9618 32.5192 45.0827C32.5192 45.2345 32.5935 45.368 32.6981 45.4839C32.8031 45.5998 32.9445 45.7029 33.1185 45.7929C33.4661 45.9729 33.945 46.0985 34.5135 46.0985C35.1311 46.0985 35.6388 45.9478 35.9985 45.6553C36.3577 45.3628 36.5535 44.9282 36.5535 44.4272C36.5535 43.8609 36.3476 43.454 36.0446 43.1848C35.7412 42.9159 35.3583 42.7772 34.9942 42.6654C34.6301 42.554 34.2795 42.467 34.0451 42.3448C33.8103 42.2225 33.7001 42.1097 33.7001 41.8498C33.7001 41.7092 33.7563 41.5322 33.8992 41.3923C34.0421 41.2532 34.2753 41.1399 34.6631 41.1399C34.9728 41.1399 35.2031 41.2112 35.3876 41.2862C35.4798 41.324 35.5601 41.3634 35.6358 41.3964C35.712 41.429 35.7821 41.4613 35.8826 41.4613C36.0645 41.4613 36.1893 41.3413 36.2636 41.2299C36.3378 41.1185 36.3806 41.0087 36.3806 40.8827C36.3806 40.7252 36.2827 40.6134 36.1743 40.5302C36.066 40.4469 35.9295 40.3794 35.772 40.3217C35.457 40.2062 35.055 40.1312 34.6515 40.1312ZM18.2051 40.2009C17.901 40.2009 17.6381 40.3918 17.6381 40.6757V43.748C17.6381 44.9945 18.6978 46.0985 20.0118 46.0985C21.3041 46.0985 22.3856 45.0073 22.3856 43.748V40.6644C22.3856 40.5227 22.3076 40.3993 22.2048 40.3209C22.1021 40.2429 21.9716 40.2009 21.8298 40.2009C21.6881 40.2009 21.5568 40.2422 21.4518 40.319C21.3468 40.3955 21.2628 40.5178 21.2628 40.6644V43.748C21.2628 44.4013 20.6936 45.0335 20.0118 45.0335C19.3192 45.0335 18.7612 44.39 18.7612 43.748V40.6757C18.7612 40.5283 18.6806 40.415 18.5812 40.3344C18.4818 40.2538 18.3506 40.2009 18.2051 40.2009ZM31.218 40.2009C31.0755 40.2009 30.9442 40.2377 30.8392 40.3168C30.7342 40.3955 30.663 40.526 30.663 40.6644V46.3254C30.663 46.7503 30.633 47.1065 30.5396 47.3225C30.4466 47.5382 30.3363 47.6338 30.0221 47.6338C29.7442 47.6338 29.5121 47.8764 29.5121 48.167C29.5121 48.2874 29.5511 48.4202 29.6497 48.5233C29.7483 48.6264 29.9017 48.6875 30.0791 48.6875C30.6768 48.6875 31.1343 48.4224 31.4066 47.9919C31.6796 47.561 31.7853 46.985 31.7853 46.3254V40.6644C31.7853 40.517 31.7013 40.3888 31.5941 40.313C31.4834 40.2376 31.3519 40.1984 31.218 40.2009ZM25.5701 41.1283C26.3167 41.1283 26.8211 41.7534 26.8211 42.3902C26.8211 42.4595 26.8136 42.5049 26.8061 42.5255C26.7993 42.5462 26.8001 42.5435 26.7896 42.5507C26.769 42.5642 26.6535 42.5938 26.433 42.5938H24.3191V42.344C24.3191 41.6777 24.876 41.1283 25.5701 41.1283ZM29.1371 44.642C28.7291 44.642 28.4201 44.9795 28.4201 45.3703C28.4201 45.7453 28.7246 46.0873 29.1371 46.0873C29.5278 46.0873 29.8421 45.7558 29.8421 45.3703C29.8421 44.9702 29.5226 44.642 29.1371 44.642Z" fill="white"/>
<path d="M14.2627 5.59277L20.013 5.59448L23.7717 11.6764L27.5173 5.59533L33.2627 5.59391L23.7717 22.5928L14.2627 5.59277Z" fill="white" fill-opacity="0.6"/>
<path d="M8.2627 5.63529L14.4212 5.59277L23.7941 21.9934L33.0936 5.59365L39.2627 5.60035L23.7929 32.5928L8.2627 5.63529Z" fill="white"/>
</g>
<defs>
<clipPath id="clip0_1229_3840">
<rect width="48" height="48" fill="white" transform="translate(0 0.5)"/>
</clipPath>
</defs>
</svg>
