<svg width="813" height="609" viewBox="0 0 813 609" fill="none" xmlns="http://www.w3.org/2000/svg">
<path fill-rule="evenodd" clip-rule="evenodd" d="M472 368H547V391.477H523.37V469H495.696V391.477H472V368Z" stroke="white" stroke-width="1.5"/>
<path fill-rule="evenodd" clip-rule="evenodd" d="M485 89H560V112.477H536.37V190H508.696V112.477H485V89Z" stroke="white" stroke-width="1.5"/>
<path fill-rule="evenodd" clip-rule="evenodd" d="M281 367H356V390.477H332.37V468H304.696V390.477H281V367Z" stroke="white" stroke-width="1.5"/>
<path fill-rule="evenodd" clip-rule="evenodd" d="M140.62 388.12C140.615 388.12 140.61 388.124 140.61 388.13V403.196C140.61 403.201 140.615 403.206 140.62 403.206H170.593C170.599 403.206 170.603 403.21 170.603 403.216V425.315C170.603 425.321 170.599 425.325 170.593 425.325H140.62C140.615 425.325 140.61 425.33 140.61 425.335V443.53C140.61 443.536 140.615 443.54 140.62 443.54H172.99C172.996 443.54 173 443.545 173 443.55V465.99C173 465.996 172.996 466 172.99 466H113.01C113.004 466 113 465.996 113 465.99V366.01C113 366.004 113.004 366 113.01 366H172.99C172.996 366 173 366.004 173 366.01V388.11C173 388.115 172.996 388.12 172.99 388.12H140.62Z" stroke="white" stroke-width="1.5" stroke-linecap="round" stroke-linejoin="round"/>
<path fill-rule="evenodd" clip-rule="evenodd" d="M587.62 390.12C587.615 390.12 587.61 390.124 587.61 390.13V405.196C587.61 405.201 587.615 405.206 587.62 405.206H617.593C617.599 405.206 617.603 405.21 617.603 405.216V427.315C617.603 427.321 617.599 427.325 617.593 427.325H587.62C587.615 427.325 587.61 427.33 587.61 427.335V445.53C587.61 445.536 587.615 445.54 587.62 445.54H619.99C619.996 445.54 620 445.545 620 445.55V467.99C620 467.996 619.996 468 619.99 468H560.01C560.004 468 560 467.996 560 467.99V368.01C560 368.004 560.004 368 560.01 368H619.99C619.996 368 620 368.004 620 368.01V390.11C620 390.115 619.996 390.12 619.99 390.12H587.62Z" stroke="white" stroke-width="1.5" stroke-linecap="round" stroke-linejoin="round"/>
<path d="M774.318 404.037C769.618 406.985 766.273 410.069 764.365 413.311C762.458 416.507 761.525 420.407 761.525 424.975V431.604H784.011V427.367C784.011 425.573 784.549 424.061 785.612 422.792C786.758 421.434 789.667 419.212 794.467 416.104C800.174 412.468 804.369 408.593 806.998 404.461C809.684 400.268 811.013 395.338 811.013 389.701C811.013 381.781 808.023 375.472 802.04 370.855C796.078 366.255 787.921 364 777.656 364C765.168 364 753.192 367.273 741.738 373.806L741.115 374.16L751.289 394.07L751.962 393.714C761.111 388.868 769.03 386.486 775.742 386.486C778.424 386.486 780.523 387.036 782.097 388.072L782.109 388.079C783.641 389.047 784.357 390.321 784.357 391.957C784.357 394.184 783.607 396.152 782.083 397.888L782.076 397.896C780.554 399.678 777.986 401.727 774.318 404.037ZM774.318 404.037L774.716 404.672L774.317 404.037L774.318 404.037ZM763.469 445.622C765.743 443.517 769.131 442.404 773.759 442.404C778.194 442.404 781.467 443.534 783.698 445.681L783.704 445.686L783.709 445.691C785.982 447.795 787.16 450.788 787.16 454.779C787.16 458.762 785.942 461.752 783.582 463.859L783.577 463.863C781.245 465.983 778.004 467.086 773.759 467.086C769.37 467.086 766.035 466.001 763.66 463.924C761.305 461.819 760.086 458.809 760.086 454.779C760.086 450.738 761.244 447.724 763.469 445.622Z" stroke="white" stroke-width="1.5"/>
<path fill-rule="evenodd" clip-rule="evenodd" d="M634 367V468H659.491V433.984H667.826C679.823 433.984 688.955 430.907 695.333 424.86C701.749 418.774 705 410.14 705 398.844C705 388.588 701.894 380.778 695.759 375.297C689.618 369.81 680.352 367 667.826 367H634ZM659.491 387.834H667.211C671.044 387.834 674.059 388.72 676.118 390.628C678.192 392.549 679.167 395.384 679.167 398.984C679.167 403.261 677.906 406.707 675.313 409.219C672.774 411.725 669.36 412.939 665.161 412.939H659.491V387.834Z" stroke="white" stroke-width="1.5"/>
<path fill-rule="evenodd" clip-rule="evenodd" d="M182.956 367L213.418 415.334L181 466H209.54L229.082 433.906L248.833 466H278L244.748 417.485L275.71 367H246.888L229.234 398.837L210.884 367H182.956Z" stroke="white" stroke-width="1.5"/>
<path fill-rule="evenodd" clip-rule="evenodd" d="M2.5 366.936V465.377H24V422C24 416.196 23.5 397.225 23.5 396L23.5062 395.903C23.5398 395.377 23.9766 394.967 24.5042 394.967H25.4482L61.9521 465.377H96.1562V366.936H73.5V411.5C73.5 417.534 73.8452 425.281 73.8989 435.253C73.8998 435.415 73.8659 435.576 73.7995 435.724V435.724C73.6172 436.128 73.2145 436.389 72.7706 436.389H72.4149C72.0991 436.389 71.81 436.211 71.6668 435.93L36.5696 366.936H2.5Z" stroke="white" stroke-width="1.5"/>
<path fill-rule="evenodd" clip-rule="evenodd" d="M402.762 374.635C409.47 369.516 418.633 367 430.166 367C440.38 367 450.779 369.345 461.358 374.017L462 374.301L453.382 395.861L452.681 395.542C443.613 391.415 435.848 389.383 429.365 389.383C425.994 389.383 423.703 389.975 422.339 391.02C420.94 392.091 420.288 393.367 420.288 394.882C420.288 396.491 421.104 397.997 422.937 399.404C423.882 400.113 425.676 401.147 428.364 402.514C431.042 403.876 434.566 405.548 438.942 407.533C447.391 411.304 453.35 415.406 456.707 419.877C460.114 424.312 461.792 429.884 461.792 436.542C461.792 442.676 460.222 448.159 457.07 452.966L457.068 452.969C453.913 457.735 449.371 461.44 443.48 464.094L443.476 464.095C437.58 466.706 430.69 468 422.826 468C416.302 468 410.8 467.557 406.333 466.661L406.326 466.66C401.857 465.719 397.22 464.108 392.417 461.836L392 461.639V436.677L393.066 437.22C398.047 439.757 403.225 441.748 408.602 443.191C413.981 444.592 418.899 445.286 423.36 445.286C427.217 445.286 429.894 444.629 431.53 443.443C433.183 442.201 433.971 440.665 433.971 438.794C433.971 437.616 433.639 436.628 432.99 435.794L432.978 435.779L432.968 435.764C432.336 434.863 431.249 433.909 429.646 432.92L429.638 432.915C428.092 431.935 423.835 429.883 416.787 426.74L416.784 426.739C410.397 423.857 405.545 421.042 402.268 418.286L402.264 418.283C399.03 415.525 396.603 412.349 394.999 408.754L394.995 408.747C393.435 405.148 392.667 400.917 392.667 396.074C392.667 386.952 396.025 379.775 402.762 374.635Z" stroke="white" stroke-width="1.5"/>
<path fill-rule="evenodd" clip-rule="evenodd" d="M756.701 505.436H787.815L784.248 571.604H760.268L756.701 505.436ZM760.948 584.59C763.594 582.094 767.382 580.904 772.19 580.904C776.952 580.904 780.68 582.095 783.238 584.601C785.835 587.054 787.09 590.484 787.09 594.779C787.09 599.044 785.78 602.474 783.091 604.968C780.45 607.413 776.781 608.586 772.19 608.586C767.554 608.586 763.823 607.414 761.095 604.977L761.089 604.972C758.352 602.479 757.016 599.049 757.016 594.779C757.016 590.476 758.299 587.043 760.948 584.59Z" fill="white"/>
<path fill-rule="evenodd" clip-rule="evenodd" d="M634.922 505.436H663.561V546.717C665.125 544.099 667.432 540.651 670.468 536.38L670.471 536.376L691.673 505.436H723.045L690.971 551.006L722.334 606.877H690.108L670.509 568.967L663.561 573.125V606.877H634.922V505.436Z" fill="white"/>
<path fill-rule="evenodd" clip-rule="evenodd" d="M556.236 505.436H584.738V583.57H623.225V606.877H556.236V505.436Z" fill="white"/>
<path fill-rule="evenodd" clip-rule="evenodd" d="M479.329 505.025H516.442L549.953 606.877H518.807L513.886 588.146H482.568L477.509 606.877H446.234L479.329 505.025ZM497.319 522.12L498.796 522.116C499.247 524.598 500.176 528.725 501.588 534.511C503.046 540.295 504.275 545.005 505.275 548.643L505.277 548.651L509.831 565.998H486.624L486.874 565.056C491.021 549.377 493.684 538.887 494.865 533.572L494.866 533.566C496.096 528.234 496.913 524.423 497.319 522.12Z" fill="white"/>
<path fill-rule="evenodd" clip-rule="evenodd" d="M370.09 505.436H447.332V529.016H422.996V606.877H394.494V529.016H370.09V505.436Z" fill="white"/>
<path fill-rule="evenodd" clip-rule="evenodd" d="M272.213 511.88C279.085 506.597 288.472 504 300.287 504C310.751 504 321.404 506.421 332.242 511.242L332.9 511.535L324.072 533.788L323.353 533.459C314.063 529.199 306.108 527.102 299.467 527.102C296.013 527.102 293.666 527.713 292.269 528.791C290.835 529.897 290.168 531.214 290.168 532.777C290.168 534.439 291.004 535.994 292.883 537.446C293.852 538.177 295.689 539.244 298.442 540.655C301.184 542.06 304.795 543.786 309.278 545.834C317.934 549.727 324.039 553.961 327.478 558.577C330.968 563.153 332.688 568.904 332.688 575.775C332.688 582.107 331.079 587.766 327.849 592.728L327.847 592.73C324.615 597.649 319.963 601.473 313.927 604.212L313.923 604.214C307.883 606.909 300.825 608.244 292.768 608.244C286.084 608.244 280.448 607.787 275.871 606.862L275.864 606.861C271.286 605.889 266.536 604.228 261.615 601.882L261.188 601.678V575.915L262.28 576.475C267.382 579.094 272.686 581.148 278.193 582.638C283.704 584.084 288.744 584.801 293.314 584.801C297.266 584.801 300.009 584.122 301.686 582.898C303.379 581.616 304.186 580.031 304.186 578.1C304.186 576.884 303.845 575.864 303.18 575.004L303.168 574.989L303.158 574.973C302.51 574.042 301.397 573.058 299.754 572.037L299.747 572.032C298.163 571.021 293.801 568.903 286.581 565.659L286.578 565.657C280.034 562.683 275.064 559.778 271.707 556.934L271.703 556.93C268.39 554.084 265.903 550.805 264.26 547.095L264.256 547.087C262.658 543.373 261.871 539.006 261.871 534.008C261.871 524.593 265.311 517.186 272.213 511.88Z" fill="white"/>
<path fill-rule="evenodd" clip-rule="evenodd" d="M232.143 505.572H256.588L258.027 507.682L257.944 508.009C253.748 524.703 249.703 537.533 245.805 546.475L245.609 546.926H225.186L225.38 546.018C228.475 531.591 230.704 518.332 232.067 506.238L232.143 505.572Z" fill="white"/>
<path fill-rule="evenodd" clip-rule="evenodd" d="M146.406 505.436H223.648V529.016H199.312V606.877H170.811V529.016H146.406V505.436Z" fill="white"/>
<path fill-rule="evenodd" clip-rule="evenodd" d="M79.6836 505.436H140.52V528.605H108.186V542.828H138.127V565.998H108.186V583.365H140.52V606.877H79.6836V505.436Z" fill="white"/>
<path fill-rule="evenodd" clip-rule="evenodd" d="M1 505.436H29.502V583.57H67.9883V606.877H1V505.436Z" fill="white"/>
<path fill-rule="evenodd" clip-rule="evenodd" d="M600.007 117.311C596.658 122.107 594.926 129.397 594.926 139.298C594.926 149.106 596.647 156.325 599.972 161.075C603.262 165.774 608.189 168.151 614.891 168.151C621.724 168.151 626.664 165.833 629.864 161.283L629.867 161.279C633.15 156.676 634.856 149.395 634.856 139.298C634.856 129.157 633.126 121.829 629.798 117.179L629.793 117.172C626.538 112.52 621.662 110.166 615.032 110.166C608.284 110.166 603.322 112.566 600.007 117.311Z" stroke="white" stroke-width="1.5"/>
<path d="M577.419 100.814C576.475 101.829 575.585 102.895 574.749 104.01C568.224 112.719 565 124.464 565 139.162C565 156.142 569.233 169.197 577.817 178.202C586.451 187.211 598.803 191.667 614.749 191.667C630.919 191.667 643.321 187.239 651.82 178.269C660.312 169.309 664.498 156.276 664.498 139.299C664.498 122.278 660.336 109.245 651.889 100.329C643.435 91.4046 631.056 87 614.887 87C598.969 87 586.662 91.3372 578.086 100.115" stroke="white" stroke-width="1.5" stroke-linecap="round" stroke-linejoin="round"/>
<path fill-rule="evenodd" clip-rule="evenodd" d="M187 230V330.597H213.365V296.769L222.661 291.237L243.144 330.597H272.707L241.272 274.943L273.098 230H244.625L223.278 260.962L223.267 260.973C219 266.934 214.797 270.863 213.419 273.555L213.365 273.592V230H187Z" stroke="white" stroke-width="1.5"/>
<path fill-rule="evenodd" clip-rule="evenodd" d="M307.62 252.12C307.615 252.12 307.61 252.124 307.61 252.13V267.196C307.61 267.201 307.615 267.206 307.62 267.206H337.593C337.599 267.206 337.603 267.21 337.603 267.216V289.315C337.603 289.321 337.599 289.325 337.593 289.325H307.62C307.615 289.325 307.61 289.33 307.61 289.335V307.53C307.61 307.536 307.615 307.54 307.62 307.54H339.99C339.996 307.54 340 307.545 340 307.55V329.99C340 329.996 339.996 330 339.99 330H280.01C280.004 330 280 329.996 280 329.99V230.01C280 230.004 280.004 230 280.01 230H339.99C339.996 230 340 230.004 340 230.01V252.11C340 252.115 339.996 252.12 339.99 252.12H307.62Z" stroke="white" stroke-width="1.5" stroke-linecap="round" stroke-linejoin="round"/>
<path fill-rule="evenodd" clip-rule="evenodd" d="M380 230H455V253.477H431.37V331H403.696V253.477H380V230Z" stroke="white" stroke-width="1.5"/>
<path fill-rule="evenodd" clip-rule="evenodd" d="M467 230H495.639V267.051H525.516V230H554.154V331.441H525.516V290.699H495.639V331.441H467V230Z" stroke="white" stroke-width="1.5"/>
<path fill-rule="evenodd" clip-rule="evenodd" d="M599.62 252.12C599.615 252.12 599.61 252.124 599.61 252.13V267.196C599.61 267.201 599.615 267.206 599.62 267.206H629.593C629.599 267.206 629.603 267.21 629.603 267.216V289.315C629.603 289.321 629.599 289.325 629.593 289.325H599.62C599.615 289.325 599.61 289.33 599.61 289.335V307.53C599.61 307.536 599.615 307.54 599.62 307.54H631.99C631.996 307.54 632 307.545 632 307.55V329.99C632 329.996 631.996 330 631.99 330H572.01C572.004 330 572 329.996 572 329.99V230.01C572 230.004 572.004 230 572.01 230H631.99C631.996 230 632 230.004 632 230.01V252.11C632 252.115 631.996 252.12 631.99 252.12H599.62Z" stroke="white" stroke-width="1.5" stroke-linecap="round" stroke-linejoin="round"/>
<path fill-rule="evenodd" clip-rule="evenodd" d="M119.62 111.12C119.615 111.12 119.61 111.124 119.61 111.13V126.196C119.61 126.201 119.615 126.206 119.62 126.206H149.593C149.599 126.206 149.603 126.21 149.603 126.216V148.315C149.603 148.321 149.599 148.325 149.593 148.325H119.62C119.615 148.325 119.61 148.33 119.61 148.335V166.53C119.61 166.536 119.615 166.54 119.62 166.54H151.99C151.996 166.54 152 166.545 152 166.55V188.99C152 188.996 151.996 189 151.99 189H92.01C92.0045 189 92 188.996 92 188.99V89.01C92 89.0045 92.0045 89 92.01 89H151.99C151.996 89 152 89.0045 152 89.01V111.11C152 111.115 151.996 111.12 151.99 111.12H119.62Z" stroke="white" stroke-width="1.5" stroke-linecap="round" stroke-linejoin="round"/>
<path fill-rule="evenodd" clip-rule="evenodd" d="M3 89V189H29.2655V152.057H37.5221L59.348 189H89L59.347 145.266L60.0752 144.863C71.5075 138.543 77.1412 129.682 77.1412 118.237C77.1412 108.433 73.727 101.185 66.9706 96.3546C60.1678 91.4914 49.8694 89 35.9519 89H3ZM30.8105 109.763V131.433H35.2474C40.0088 131.433 43.4355 130.393 45.6673 128.447C47.8807 126.517 49.0496 123.579 49.0496 119.487C49.0496 116.18 47.9353 113.809 45.7878 112.234C43.5982 110.627 40.22 109.763 35.5296 109.763H30.8105Z" stroke="white" stroke-width="1.5"/>
<path fill-rule="evenodd" clip-rule="evenodd" d="M265 89H300.203C316.307 89 328.84 93.0763 337.691 101.331C346.598 109.595 351 121.496 351 136.911C351 153.491 346.373 166.374 337.021 175.446C327.719 184.513 314.661 189 297.956 189H265V89ZM293.392 111.975V165.688H298.637C306.665 165.688 312.405 163.397 316.032 158.955C319.691 154.428 321.587 147.438 321.587 137.854C321.587 128.9 319.782 122.41 316.31 118.243L316.307 118.24C312.902 114.103 307.677 111.975 300.476 111.975H293.392Z" stroke="white" stroke-width="1.5"/>
<path fill-rule="evenodd" clip-rule="evenodd" d="M354 89L387.29 151.371V190H413.718V150.527L447 89H418.706L400.501 128.075L382.441 89H354Z" stroke="white" stroke-width="1.5"/>
<path fill-rule="evenodd" clip-rule="evenodd" d="M1 229H76V252.477H52.3705V330H24.6959V252.477H1V229Z" stroke="white" stroke-width="1.5"/>
<path fill-rule="evenodd" clip-rule="evenodd" d="M193.636 170.489H224.335C224.34 170.489 224.344 170.492 224.345 170.496L229.168 188.844C229.169 188.848 229.173 188.852 229.178 188.852H259.701C259.708 188.852 259.713 188.845 259.711 188.838L226.853 89.0069C226.851 89.0028 226.847 89 226.843 89H190.46C190.456 89 190.452 89.0028 190.451 89.0069L158 188.838C157.998 188.845 158.003 188.852 158.01 188.852H188.66C188.665 188.852 188.669 188.849 188.67 188.844L193.627 170.496C193.628 170.492 193.632 170.489 193.636 170.489ZM208.836 109.631C208.537 111.064 208.19 112.639 207.795 114.358C207.079 117.623 206.318 120.867 205.512 124.088C204.752 127.307 204.08 129.994 203.497 132.148L199.52 147.292C199.518 147.299 199.523 147.305 199.529 147.305H218.446C218.453 147.305 218.458 147.299 218.456 147.292L214.478 132.143C214.031 130.403 213.383 127.921 212.534 124.705C211.684 121.44 210.833 118.084 209.983 114.641C209.559 112.802 209.181 111.125 208.855 109.631C208.853 109.621 208.838 109.621 208.836 109.631Z" stroke="white" stroke-width="1.5" stroke-linecap="round" stroke-linejoin="round"/>
<path fill-rule="evenodd" clip-rule="evenodd" d="M112.636 312.489H143.335C143.34 312.489 143.344 312.492 143.345 312.496L148.168 330.844C148.169 330.848 148.173 330.852 148.178 330.852H178.701C178.708 330.852 178.713 330.845 178.711 330.838L145.853 231.007C145.851 231.003 145.847 231 145.843 231H109.46C109.456 231 109.452 231.003 109.451 231.007L77.0005 330.838C76.9984 330.845 77.0032 330.852 77.01 330.852H107.66C107.665 330.852 107.669 330.849 107.67 330.844L112.627 312.496C112.628 312.492 112.632 312.489 112.636 312.489ZM127.836 251.631C127.537 253.064 127.19 254.639 126.795 256.358C126.079 259.623 125.318 262.867 124.512 266.088C123.752 269.307 123.08 271.994 122.497 274.148L118.52 289.292C118.518 289.299 118.523 289.305 118.529 289.305H137.446C137.453 289.305 137.458 289.299 137.456 289.292L133.478 274.143C133.031 272.403 132.383 269.921 131.534 266.705C130.684 263.44 129.833 260.084 128.983 256.641C128.559 254.802 128.181 253.125 127.855 251.631C127.853 251.621 127.838 251.621 127.836 251.631Z" stroke="white" stroke-width="1.5" stroke-linecap="round" stroke-linejoin="round"/>
</svg>
