<svg width="813" height="559" viewBox="0 0 813 559" fill="none" xmlns="http://www.w3.org/2000/svg">
<path fill-rule="evenodd" clip-rule="evenodd" d="M472 300H547V323.477H523.37V401H495.696V323.477H472V300Z" stroke="white" stroke-width="1.5"/>
<path fill-rule="evenodd" clip-rule="evenodd" d="M485 21H560V44.4775H536.37V122H508.696V44.4775H485V21Z" stroke="white" stroke-width="1.5"/>
<path fill-rule="evenodd" clip-rule="evenodd" d="M281 299H356V322.477H332.37V400H304.696V322.477H281V299Z" stroke="white" stroke-width="1.5"/>
<path fill-rule="evenodd" clip-rule="evenodd" d="M140.62 320.12C140.615 320.12 140.61 320.124 140.61 320.13V335.196C140.61 335.201 140.615 335.206 140.62 335.206H170.593C170.599 335.206 170.603 335.21 170.603 335.216V357.315C170.603 357.321 170.599 357.325 170.593 357.325H140.62C140.615 357.325 140.61 357.33 140.61 357.335V375.53C140.61 375.536 140.615 375.54 140.62 375.54H172.99C172.996 375.54 173 375.545 173 375.55V397.99C173 397.996 172.996 398 172.99 398H113.01C113.004 398 113 397.996 113 397.99V298.01C113 298.004 113.004 298 113.01 298H172.99C172.996 298 173 298.004 173 298.01V320.11C173 320.115 172.996 320.12 172.99 320.12H140.62Z" stroke="white" stroke-width="1.5" stroke-linecap="round" stroke-linejoin="round"/>
<path fill-rule="evenodd" clip-rule="evenodd" d="M587.62 322.12C587.615 322.12 587.61 322.124 587.61 322.13V337.196C587.61 337.201 587.615 337.206 587.62 337.206H617.593C617.599 337.206 617.603 337.21 617.603 337.216V359.315C617.603 359.321 617.599 359.325 617.593 359.325H587.62C587.615 359.325 587.61 359.33 587.61 359.335V377.53C587.61 377.536 587.615 377.54 587.62 377.54H619.99C619.996 377.54 620 377.545 620 377.55V399.99C620 399.996 619.996 400 619.99 400H560.01C560.004 400 560 399.996 560 399.99V300.01C560 300.004 560.004 300 560.01 300H619.99C619.996 300 620 300.004 620 300.01V322.11C620 322.115 619.996 322.12 619.99 322.12H587.62Z" stroke="white" stroke-width="1.5" stroke-linecap="round" stroke-linejoin="round"/>
<path d="M774.318 336.037C769.618 338.985 766.273 342.069 764.365 345.311C762.458 348.507 761.525 352.407 761.525 356.975V363.604H784.011V359.367C784.011 357.573 784.549 356.061 785.612 354.792C786.758 353.434 789.667 351.212 794.467 348.104C800.174 344.468 804.369 340.593 806.998 336.461C809.684 332.268 811.013 327.338 811.013 321.701C811.013 313.781 808.023 307.472 802.04 302.855C796.078 298.255 787.921 296 777.656 296C765.168 296 753.192 299.273 741.738 305.806L741.115 306.16L751.289 326.07L751.962 325.714C761.111 320.868 769.03 318.486 775.742 318.486C778.424 318.486 780.523 319.036 782.097 320.072L782.109 320.079C783.641 321.047 784.357 322.321 784.357 323.957C784.357 326.184 783.607 328.152 782.083 329.888L782.076 329.896C780.554 331.678 777.986 333.727 774.318 336.037ZM774.318 336.037L774.716 336.672L774.317 336.037L774.318 336.037ZM763.469 377.622C765.743 375.517 769.131 374.404 773.759 374.404C778.194 374.404 781.467 375.534 783.698 377.681L783.704 377.686L783.709 377.691C785.982 379.795 787.16 382.788 787.16 386.779C787.16 390.762 785.942 393.752 783.582 395.859L783.577 395.863C781.245 397.983 778.004 399.086 773.759 399.086C769.37 399.086 766.035 398.001 763.66 395.924C761.305 393.819 760.086 390.809 760.086 386.779C760.086 382.738 761.244 379.724 763.469 377.622Z" stroke="white" stroke-width="1.5"/>
<path fill-rule="evenodd" clip-rule="evenodd" d="M634 299V400H659.491V365.984H667.826C679.823 365.984 688.955 362.907 695.333 356.86C701.749 350.774 705 342.14 705 330.844C705 320.588 701.894 312.778 695.759 307.297C689.618 301.81 680.352 299 667.826 299H634ZM659.491 319.834H667.211C671.044 319.834 674.059 320.72 676.118 322.628C678.192 324.549 679.167 327.384 679.167 330.984C679.167 335.261 677.906 338.707 675.313 341.219C672.774 343.725 669.36 344.939 665.161 344.939H659.491V319.834Z" stroke="white" stroke-width="1.5"/>
<path fill-rule="evenodd" clip-rule="evenodd" d="M182.956 299L213.418 347.334L181 398H209.54L229.082 365.906L248.833 398H278L244.748 349.485L275.71 299H246.888L229.234 330.837L210.884 299H182.956Z" stroke="white" stroke-width="1.5"/>
<path fill-rule="evenodd" clip-rule="evenodd" d="M2.5 298.936V397.377H24V354C24 348.196 23.5 329.225 23.5 328L23.5062 327.903C23.5398 327.377 23.9766 326.967 24.5042 326.967H25.4482L61.9521 397.377H96.1562V298.936H73.5V343.5C73.5 349.534 73.8452 357.281 73.8989 367.253C73.8998 367.415 73.8659 367.576 73.7995 367.724V367.724C73.6172 368.128 73.2145 368.389 72.7706 368.389H72.4149C72.0991 368.389 71.81 368.211 71.6668 367.93L36.5696 298.936H2.5Z" stroke="white" stroke-width="1.5"/>
<path fill-rule="evenodd" clip-rule="evenodd" d="M402.762 306.635C409.47 301.516 418.633 299 430.166 299C440.38 299 450.779 301.345 461.358 306.017L462 306.301L453.382 327.861L452.681 327.542C443.613 323.415 435.848 321.383 429.365 321.383C425.994 321.383 423.703 321.975 422.339 323.02C420.94 324.091 420.288 325.367 420.288 326.882C420.288 328.491 421.104 329.997 422.937 331.404C423.882 332.113 425.676 333.147 428.364 334.514C431.042 335.876 434.566 337.548 438.942 339.533C447.391 343.304 453.35 347.406 456.707 351.877C460.114 356.312 461.792 361.884 461.792 368.542C461.792 374.676 460.222 380.159 457.07 384.966L457.068 384.969C453.913 389.735 449.371 393.44 443.48 396.094L443.476 396.095C437.58 398.706 430.69 400 422.826 400C416.302 400 410.8 399.557 406.333 398.661L406.326 398.66C401.857 397.719 397.22 396.108 392.417 393.836L392 393.639V368.677L393.066 369.22C398.047 371.757 403.225 373.748 408.602 375.191C413.981 376.592 418.899 377.286 423.36 377.286C427.217 377.286 429.894 376.629 431.53 375.443C433.183 374.201 433.971 372.665 433.971 370.794C433.971 369.616 433.639 368.628 432.99 367.794L432.978 367.779L432.968 367.764C432.336 366.863 431.249 365.909 429.646 364.92L429.638 364.915C428.092 363.935 423.835 361.883 416.787 358.74L416.784 358.739C410.397 355.857 405.545 353.042 402.268 350.286L402.264 350.283C399.03 347.525 396.603 344.349 394.999 340.754L394.995 340.747C393.435 337.148 392.667 332.917 392.667 328.074C392.667 318.952 396.025 311.775 402.762 306.635Z" stroke="white" stroke-width="1.5"/>
<path fill-rule="evenodd" clip-rule="evenodd" d="M756.701 437.436H787.815L784.248 503.604H760.268L756.701 437.436ZM760.948 516.59C763.594 514.094 767.382 512.904 772.19 512.904C776.952 512.904 780.68 514.095 783.238 516.601C785.835 519.054 787.09 522.484 787.09 526.779C787.09 531.044 785.78 534.474 783.091 536.968C780.45 539.413 776.781 540.586 772.19 540.586C767.554 540.586 763.823 539.414 761.095 536.977L761.089 536.972C758.352 534.479 757.016 531.049 757.016 526.779C757.016 522.476 758.299 519.043 760.948 516.59Z" fill="white"/>
<path fill-rule="evenodd" clip-rule="evenodd" d="M634.922 437.436H663.561V478.717C665.125 476.099 667.432 472.651 670.468 468.38L670.471 468.376L691.673 437.436H723.045L690.971 483.006L722.334 538.877H690.108L670.509 500.967L663.561 505.125V538.877H634.922V437.436Z" fill="white"/>
<path fill-rule="evenodd" clip-rule="evenodd" d="M556.236 437.436H584.738V515.57H623.225V538.877H556.236V437.436Z" fill="white"/>
<path fill-rule="evenodd" clip-rule="evenodd" d="M479.329 437.025H516.442L549.953 538.877H518.807L513.886 520.146H482.568L477.509 538.877H446.234L479.329 437.025ZM497.319 454.12L498.796 454.116C499.247 456.598 500.176 460.725 501.588 466.511C503.046 472.295 504.275 477.005 505.275 480.643L505.277 480.651L509.831 497.998H486.624L486.874 497.056C491.021 481.377 493.684 470.887 494.865 465.572L494.866 465.566C496.096 460.234 496.913 456.423 497.319 454.12Z" fill="white"/>
<path fill-rule="evenodd" clip-rule="evenodd" d="M370.09 437.436H447.332V461.016H422.996V538.877H394.494V461.016H370.09V437.436Z" fill="white"/>
<path fill-rule="evenodd" clip-rule="evenodd" d="M272.213 443.88C279.085 438.597 288.472 436 300.287 436C310.751 436 321.404 438.421 332.242 443.242L332.9 443.535L324.072 465.788L323.353 465.459C314.063 461.199 306.108 459.102 299.467 459.102C296.013 459.102 293.666 459.713 292.269 460.791C290.835 461.897 290.168 463.214 290.168 464.777C290.168 466.439 291.004 467.994 292.883 469.446C293.852 470.177 295.689 471.244 298.442 472.655C301.184 474.06 304.795 475.786 309.278 477.834C317.934 481.727 324.039 485.961 327.478 490.577C330.968 495.153 332.688 500.904 332.688 507.775C332.688 514.107 331.079 519.766 327.849 524.728L327.847 524.73C324.615 529.649 319.963 533.473 313.927 536.212L313.923 536.214C307.883 538.909 300.825 540.244 292.768 540.244C286.084 540.244 280.448 539.787 275.871 538.862L275.864 538.861C271.286 537.889 266.536 536.228 261.615 533.882L261.188 533.678V507.915L262.28 508.475C267.382 511.094 272.686 513.148 278.193 514.638C283.704 516.084 288.744 516.801 293.314 516.801C297.266 516.801 300.009 516.122 301.686 514.898C303.379 513.616 304.186 512.031 304.186 510.1C304.186 508.884 303.845 507.864 303.18 507.004L303.168 506.989L303.158 506.973C302.51 506.042 301.397 505.058 299.754 504.037L299.747 504.032C298.163 503.021 293.801 500.903 286.581 497.659L286.578 497.657C280.034 494.683 275.064 491.778 271.707 488.934L271.703 488.93C268.39 486.084 265.903 482.805 264.26 479.095L264.256 479.087C262.658 475.373 261.871 471.006 261.871 466.008C261.871 456.593 265.311 449.186 272.213 443.88Z" fill="white"/>
<path fill-rule="evenodd" clip-rule="evenodd" d="M232.143 437.572H256.588L258.027 439.682L257.944 440.009C253.748 456.703 249.703 469.533 245.805 478.475L245.609 478.926H225.186L225.38 478.018C228.475 463.591 230.704 450.332 232.067 438.238L232.143 437.572Z" fill="white"/>
<path fill-rule="evenodd" clip-rule="evenodd" d="M146.406 437.436H223.648V461.016H199.312V538.877H170.811V461.016H146.406V437.436Z" fill="white"/>
<path fill-rule="evenodd" clip-rule="evenodd" d="M79.6836 437.436H140.52V460.605H108.186V474.828H138.127V497.998H108.186V515.365H140.52V538.877H79.6836V437.436Z" fill="white"/>
<path fill-rule="evenodd" clip-rule="evenodd" d="M1 437.436H29.502V515.57H67.9883V538.877H1V437.436Z" fill="white"/>
<path fill-rule="evenodd" clip-rule="evenodd" d="M600.007 49.3112C596.658 54.1073 594.926 61.3969 594.926 71.2981C594.926 81.1058 596.647 88.3253 599.972 93.0747C603.262 97.7736 608.189 100.151 614.891 100.151C621.724 100.151 626.664 97.8331 629.864 93.2829L629.867 93.2788C633.15 88.6758 634.856 81.3945 634.856 71.2981C634.856 61.1566 633.126 53.8288 629.798 49.1789L629.793 49.172C626.538 44.5198 621.662 42.166 615.032 42.166C608.284 42.166 603.322 44.5658 600.007 49.3112Z" stroke="white" stroke-width="1.5"/>
<path d="M577.419 32.8137C576.475 33.8293 575.585 34.8948 574.749 36.0102C568.224 44.7188 565 56.4635 565 71.1619C565 88.1415 569.233 101.197 577.817 110.202C586.451 119.211 598.803 123.667 614.749 123.667C630.919 123.667 643.321 119.239 651.82 110.269C660.312 101.309 664.498 88.2763 664.498 71.299C664.498 54.278 660.336 41.2448 651.889 32.3286C643.435 23.4046 631.056 19 614.887 19C598.969 19 586.662 23.3372 578.086 32.1147" stroke="white" stroke-width="1.5" stroke-linecap="round" stroke-linejoin="round"/>
<path fill-rule="evenodd" clip-rule="evenodd" d="M187 162V262.597H213.365V228.769L222.661 223.237L243.144 262.597H272.707L241.272 206.943L273.098 162H244.625L223.278 192.962L223.267 192.973C219 198.934 214.797 202.863 213.419 205.555L213.365 205.592V162H187Z" stroke="white" stroke-width="1.5"/>
<path fill-rule="evenodd" clip-rule="evenodd" d="M307.62 184.12C307.615 184.12 307.61 184.124 307.61 184.13V199.196C307.61 199.201 307.615 199.206 307.62 199.206H337.593C337.599 199.206 337.603 199.21 337.603 199.216V221.315C337.603 221.321 337.599 221.325 337.593 221.325H307.62C307.615 221.325 307.61 221.33 307.61 221.335V239.53C307.61 239.536 307.615 239.54 307.62 239.54H339.99C339.996 239.54 340 239.545 340 239.55V261.99C340 261.996 339.996 262 339.99 262H280.01C280.004 262 280 261.996 280 261.99V162.01C280 162.004 280.004 162 280.01 162H339.99C339.996 162 340 162.004 340 162.01V184.11C340 184.115 339.996 184.12 339.99 184.12H307.62Z" stroke="white" stroke-width="1.5" stroke-linecap="round" stroke-linejoin="round"/>
<path fill-rule="evenodd" clip-rule="evenodd" d="M380 162H455V185.477H431.37V263H403.696V185.477H380V162Z" stroke="white" stroke-width="1.5"/>
<path fill-rule="evenodd" clip-rule="evenodd" d="M467 162H495.639V199.051H525.516V162H554.154V263.441H525.516V222.699H495.639V263.441H467V162Z" stroke="white" stroke-width="1.5"/>
<path fill-rule="evenodd" clip-rule="evenodd" d="M599.62 184.12C599.615 184.12 599.61 184.124 599.61 184.13V199.196C599.61 199.201 599.615 199.206 599.62 199.206H629.593C629.599 199.206 629.603 199.21 629.603 199.216V221.315C629.603 221.321 629.599 221.325 629.593 221.325H599.62C599.615 221.325 599.61 221.33 599.61 221.335V239.53C599.61 239.536 599.615 239.54 599.62 239.54H631.99C631.996 239.54 632 239.545 632 239.55V261.99C632 261.996 631.996 262 631.99 262H572.01C572.004 262 572 261.996 572 261.99V162.01C572 162.004 572.004 162 572.01 162H631.99C631.996 162 632 162.004 632 162.01V184.11C632 184.115 631.996 184.12 631.99 184.12H599.62Z" stroke="white" stroke-width="1.5" stroke-linecap="round" stroke-linejoin="round"/>
<path fill-rule="evenodd" clip-rule="evenodd" d="M119.62 43.1198C119.615 43.1198 119.61 43.1242 119.61 43.1297V58.1957C119.61 58.2012 119.615 58.2057 119.62 58.2057H149.593C149.599 58.2057 149.603 58.2101 149.603 58.2156V80.3155C149.603 80.321 149.599 80.3254 149.593 80.3254H119.62C119.615 80.3254 119.61 80.3299 119.61 80.3354V98.5302C119.61 98.5357 119.615 98.5401 119.62 98.5401H151.99C151.996 98.5401 152 98.5446 152 98.5501V120.99C152 120.996 151.996 121 151.99 121H92.01C92.0045 121 92 120.996 92 120.99V21.01C92 21.0045 92.0045 21 92.01 21H151.99C151.996 21 152 21.0045 152 21.01V43.1098C152 43.1153 151.996 43.1198 151.99 43.1198H119.62Z" stroke="white" stroke-width="1.5" stroke-linecap="round" stroke-linejoin="round"/>
<path fill-rule="evenodd" clip-rule="evenodd" d="M3 21V121H29.2655V84.0568H37.5221L59.348 121H89L59.347 77.2656L60.0752 76.8627C71.5075 70.543 77.1412 61.6821 77.1412 50.2368C77.1412 40.4331 73.727 33.185 66.9706 28.3546C60.1678 23.4914 49.8694 21 35.9519 21H3ZM30.8105 41.763V63.4326H35.2474C40.0088 63.4326 43.4355 62.3928 45.6673 60.4468C47.8807 58.5166 49.0496 55.5792 49.0496 51.4868C49.0496 48.1797 47.9353 45.8089 45.7878 44.2339C43.5982 42.6272 40.22 41.763 35.5296 41.763H30.8105Z" stroke="white" stroke-width="1.5"/>
<path fill-rule="evenodd" clip-rule="evenodd" d="M265 21L300.203 21C316.307 21 328.84 25.0763 337.691 33.3311C346.598 41.5953 351 53.4958 351 68.911C351 85.4911 346.373 98.3739 337.021 107.446C327.719 116.513 314.661 121 297.956 121H265V21ZM293.392 43.9755V97.6876H298.637C306.665 97.6876 312.405 95.3974 316.032 90.9554C319.691 86.4275 321.587 79.4384 321.587 69.8544C321.587 60.8998 319.782 54.4095 316.31 50.2432L316.307 50.2397C312.902 46.1026 307.677 43.9755 300.476 43.9755H293.392Z" stroke="white" stroke-width="1.5"/>
<path fill-rule="evenodd" clip-rule="evenodd" d="M354 21L387.29 83.3713V122H413.718V82.5273L447 21L418.706 21L400.501 60.0754L382.441 21H354Z" stroke="white" stroke-width="1.5"/>
<path fill-rule="evenodd" clip-rule="evenodd" d="M1 161H76V184.477H52.3705V262H24.6959V184.477H1V161Z" stroke="white" stroke-width="1.5"/>
<path fill-rule="evenodd" clip-rule="evenodd" d="M193.636 102.489H224.335C224.34 102.489 224.344 102.492 224.345 102.496L229.168 120.844C229.169 120.848 229.173 120.852 229.178 120.852H259.701C259.708 120.852 259.713 120.845 259.711 120.838L226.853 21.0069C226.851 21.0028 226.847 21 226.843 21H190.46C190.456 21 190.452 21.0028 190.451 21.0069L158 120.838C157.998 120.845 158.003 120.852 158.01 120.852H188.66C188.665 120.852 188.669 120.849 188.67 120.844L193.627 102.496C193.628 102.492 193.632 102.489 193.636 102.489ZM208.836 41.6313C208.537 43.0639 208.19 44.6395 207.795 46.3578C207.079 49.6234 206.318 52.8667 205.512 56.0878C204.752 59.3069 204.08 61.9943 203.497 64.1482L199.52 79.2923C199.518 79.2986 199.523 79.3048 199.529 79.3048H218.446C218.453 79.3048 218.458 79.2986 218.456 79.2923L214.478 64.1427C214.031 62.4028 213.383 59.921 212.534 56.7047C211.684 53.4401 210.833 50.0838 209.983 46.6407C209.559 44.8017 209.181 43.1248 208.855 41.6312C208.853 41.6207 208.838 41.6208 208.836 41.6313Z" stroke="white" stroke-width="1.5" stroke-linecap="round" stroke-linejoin="round"/>
<path fill-rule="evenodd" clip-rule="evenodd" d="M112.636 244.489H143.335C143.34 244.489 143.344 244.492 143.345 244.496L148.168 262.844C148.169 262.848 148.173 262.852 148.178 262.852H178.701C178.708 262.852 178.713 262.845 178.711 262.838L145.853 163.007C145.851 163.003 145.847 163 145.843 163H109.46C109.456 163 109.452 163.003 109.451 163.007L77.0005 262.838C76.9984 262.845 77.0032 262.852 77.01 262.852H107.66C107.665 262.852 107.669 262.849 107.67 262.844L112.627 244.496C112.628 244.492 112.632 244.489 112.636 244.489ZM127.836 183.631C127.537 185.064 127.19 186.639 126.795 188.358C126.079 191.623 125.318 194.867 124.512 198.088C123.752 201.307 123.08 203.994 122.497 206.148L118.52 221.292C118.518 221.299 118.523 221.305 118.529 221.305H137.446C137.453 221.305 137.458 221.299 137.456 221.292L133.478 206.143C133.031 204.403 132.383 201.921 131.534 198.705C130.684 195.44 129.833 192.084 128.983 188.641C128.559 186.802 128.181 185.125 127.855 183.631C127.853 183.621 127.838 183.621 127.836 183.631Z" stroke="white" stroke-width="1.5" stroke-linecap="round" stroke-linejoin="round"/>
</svg>
