<svg width="1344" height="420" viewBox="0 0 1344 420" fill="none" xmlns="http://www.w3.org/2000/svg">
<path fill-rule="evenodd" clip-rule="evenodd" d="M762.5 164.247H837.5V187.725H813.87V265.247H786.196V187.725H762.5V164.247Z" stroke="white" stroke-width="1.5"/>
<path fill-rule="evenodd" clip-rule="evenodd" d="M492 21.2471H567V44.7245H543.37V122.247H515.696V44.7245H492V21.2471Z" stroke="white" stroke-width="1.5"/>
<path fill-rule="evenodd" clip-rule="evenodd" d="M571.5 164.247H646.5V187.725H622.87V265.247H595.196V187.725H571.5V164.247Z" stroke="white" stroke-width="1.5"/>
<path fill-rule="evenodd" clip-rule="evenodd" d="M431.12 185.367C431.115 185.367 431.11 185.371 431.11 185.377V200.443C431.11 200.448 431.115 200.453 431.12 200.453H461.093C461.099 200.453 461.103 200.457 461.103 200.463V222.563C461.103 222.568 461.099 222.573 461.093 222.573H431.12C431.115 222.573 431.11 222.577 431.11 222.582V240.777C431.11 240.783 431.115 240.787 431.12 240.787H463.49C463.496 240.787 463.5 240.792 463.5 240.797V263.237C463.5 263.243 463.496 263.247 463.49 263.247H403.51C403.504 263.247 403.5 263.243 403.5 263.237V163.257C403.5 163.252 403.504 163.247 403.51 163.247H463.49C463.496 163.247 463.5 163.252 463.5 163.257V185.357C463.5 185.362 463.496 185.367 463.49 185.367H431.12Z" stroke="white" stroke-width="1.5" stroke-linecap="round" stroke-linejoin="round"/>
<path fill-rule="evenodd" clip-rule="evenodd" d="M878.12 187.367C878.115 187.367 878.11 187.371 878.11 187.377V202.443C878.11 202.448 878.115 202.453 878.12 202.453H908.093C908.099 202.453 908.103 202.457 908.103 202.463V224.563C908.103 224.568 908.099 224.573 908.093 224.573H878.12C878.115 224.573 878.11 224.577 878.11 224.582V242.777C878.11 242.783 878.115 242.787 878.12 242.787H910.49C910.496 242.787 910.5 242.792 910.5 242.797V265.237C910.5 265.243 910.496 265.247 910.49 265.247H850.51C850.504 265.247 850.5 265.243 850.5 265.237V165.257C850.5 165.252 850.504 165.247 850.51 165.247H910.49C910.496 165.247 910.5 165.252 910.5 165.257V187.357C910.5 187.362 910.496 187.367 910.49 187.367H878.12Z" stroke="white" stroke-width="1.5" stroke-linecap="round" stroke-linejoin="round"/>
<path d="M1064.82 201.284C1060.12 204.232 1056.77 207.316 1054.87 210.558C1052.96 213.754 1052.03 217.654 1052.03 222.222V228.851H1074.51V224.614C1074.51 222.82 1075.05 221.308 1076.11 220.039C1077.26 218.681 1080.17 216.46 1084.97 213.351C1090.67 209.715 1094.87 205.84 1097.5 201.708C1100.18 197.515 1101.51 192.585 1101.51 186.948C1101.51 179.028 1098.52 172.719 1092.54 168.103C1086.58 163.502 1078.42 161.247 1068.16 161.247C1055.67 161.247 1043.69 164.521 1032.24 171.053L1031.62 171.407L1041.79 191.317L1042.46 190.961C1051.61 186.115 1059.53 183.733 1066.24 183.733C1068.92 183.733 1071.02 184.283 1072.6 185.319L1072.61 185.326C1074.14 186.294 1074.86 187.568 1074.86 189.204C1074.86 191.432 1074.11 193.399 1072.58 195.135L1072.58 195.143C1071.05 196.926 1068.49 198.974 1064.82 201.284ZM1064.82 201.284L1065.22 201.919L1064.82 201.284L1064.82 201.284ZM1053.97 242.869C1056.24 240.764 1059.63 239.651 1064.26 239.651C1068.69 239.651 1071.97 240.781 1074.2 242.928L1074.2 242.933L1074.21 242.938C1076.48 245.042 1077.66 248.035 1077.66 252.026C1077.66 256.009 1076.44 258.999 1074.08 261.106L1074.08 261.11C1071.75 263.23 1068.5 264.333 1064.26 264.333C1059.87 264.333 1056.54 263.248 1054.16 261.171C1051.8 259.066 1050.59 256.056 1050.59 252.026C1050.59 247.985 1051.74 244.971 1053.97 242.869Z" stroke="white" stroke-width="1.5"/>
<path fill-rule="evenodd" clip-rule="evenodd" d="M924.5 164.247V265.247H949.991V231.231H958.326C970.323 231.231 979.455 228.154 985.833 222.107C992.249 216.021 995.5 207.387 995.5 196.091C995.5 185.835 992.394 178.025 986.259 172.544C980.118 167.057 970.852 164.247 958.326 164.247H924.5ZM949.991 185.082H957.711C961.544 185.082 964.559 185.967 966.618 187.875C968.692 189.796 969.667 192.631 969.667 196.231C969.667 200.508 968.406 203.954 965.813 206.466C963.274 208.972 959.86 210.186 955.661 210.186H949.991V185.082Z" stroke="white" stroke-width="1.5"/>
<path fill-rule="evenodd" clip-rule="evenodd" d="M473.456 164.247L503.918 212.581L471.5 263.247H500.04L519.582 231.153L539.333 263.247H568.5L535.248 214.733L566.21 164.247H537.388L519.734 196.084L501.384 164.247H473.456Z" stroke="white" stroke-width="1.5"/>
<path fill-rule="evenodd" clip-rule="evenodd" d="M293 164.183V262.624H314.5V219.247C314.5 213.444 314 194.472 314 193.247L314.006 193.15C314.04 192.624 314.477 192.214 315.004 192.214H315.948L352.452 262.624H386.656V164.183H364V208.747C364 214.782 364.345 222.528 364.399 232.501C364.4 232.662 364.366 232.823 364.3 232.971V232.971C364.117 233.375 363.715 233.636 363.271 233.636H362.915C362.599 233.636 362.31 233.458 362.167 233.177L327.07 164.183H293Z" stroke="white" stroke-width="1.5"/>
<path fill-rule="evenodd" clip-rule="evenodd" d="M693.262 171.882C699.97 166.763 709.133 164.247 720.666 164.247C730.88 164.247 741.279 166.592 751.858 171.264L752.5 171.548L743.882 193.109L743.181 192.789C734.113 188.662 726.348 186.63 719.865 186.63C716.494 186.63 714.203 187.222 712.839 188.267C711.44 189.338 710.788 190.614 710.788 192.129C710.788 193.738 711.604 195.244 713.437 196.651C714.382 197.36 716.176 198.394 718.864 199.761C721.542 201.123 725.066 202.795 729.442 204.78C737.891 208.551 743.85 212.653 747.207 217.125C750.614 221.559 752.292 227.131 752.292 233.789C752.292 239.923 750.722 245.406 747.57 250.213L747.568 250.216C744.413 254.982 739.871 258.687 733.98 261.341L733.976 261.343C728.08 263.953 721.19 265.247 713.326 265.247C706.802 265.247 701.3 264.804 696.833 263.908L696.826 263.907C692.357 262.966 687.72 261.355 682.917 259.083L682.5 258.886V233.924L683.566 234.467C688.547 237.004 693.725 238.995 699.102 240.439C704.481 241.839 709.399 242.533 713.86 242.533C717.717 242.533 720.394 241.876 722.03 240.69C723.683 239.448 724.471 237.913 724.471 236.041C724.471 234.863 724.139 233.875 723.49 233.041L723.478 233.027L723.468 233.012C722.836 232.11 721.749 231.156 720.146 230.167L720.138 230.162C718.592 229.182 714.335 227.13 707.287 223.987L707.284 223.986C700.897 221.104 696.045 218.289 692.768 215.533L692.764 215.53C689.53 212.772 687.103 209.596 685.499 206.001L685.495 205.994C683.935 202.395 683.167 198.164 683.167 193.321C683.167 184.199 686.525 177.022 693.262 171.882Z" stroke="white" stroke-width="1.5"/>
<path fill-rule="evenodd" clip-rule="evenodd" d="M763.701 297.683H794.815L791.248 363.851H767.268L763.701 297.683ZM767.948 376.837C770.594 374.341 774.382 373.151 779.19 373.151C783.952 373.151 787.68 374.342 790.238 376.848C792.835 379.302 794.09 382.731 794.09 387.026C794.09 391.291 792.78 394.721 790.091 397.215C787.45 399.66 783.781 400.833 779.19 400.833C774.554 400.833 770.823 399.661 768.095 397.224L768.089 397.22C765.352 394.726 764.016 391.296 764.016 387.026C764.016 382.723 765.299 379.29 767.948 376.837Z" fill="white"/>
<path fill-rule="evenodd" clip-rule="evenodd" d="M641.922 297.683H670.561V338.964C672.125 336.346 674.432 332.898 677.468 328.627L677.471 328.623L698.673 297.683H730.045L697.971 343.253L729.334 399.124H697.108L677.509 361.214L670.561 365.372V399.124H641.922V297.683Z" fill="white"/>
<path fill-rule="evenodd" clip-rule="evenodd" d="M563.236 297.683H591.738V375.817H630.225V399.124H563.236V297.683Z" fill="white"/>
<path fill-rule="evenodd" clip-rule="evenodd" d="M486.329 297.272H523.442L556.953 399.124H525.807L520.885 380.394H489.568L484.509 399.124H453.234L486.329 297.272ZM504.319 314.367L505.796 314.363C506.247 316.845 507.176 320.972 508.588 326.758C510.046 332.542 511.275 337.252 512.275 340.89L512.277 340.898L516.831 358.245H493.624L493.874 357.303C498.021 341.624 500.684 331.134 501.865 325.819L501.866 325.813C503.096 320.481 503.913 316.67 504.319 314.367Z" fill="white"/>
<path fill-rule="evenodd" clip-rule="evenodd" d="M377.09 297.683H454.332V321.263H429.996V399.124H401.494V321.263H377.09V297.683Z" fill="white"/>
<path fill-rule="evenodd" clip-rule="evenodd" d="M279.213 304.127C286.085 298.844 295.472 296.247 307.287 296.247C317.751 296.247 328.404 298.668 339.242 303.49L339.9 303.782L331.072 326.036L330.353 325.706C321.063 321.446 313.108 319.349 306.467 319.349C303.013 319.349 300.666 319.96 299.269 321.038C297.835 322.144 297.168 323.461 297.168 325.024C297.168 326.686 298.004 328.241 299.883 329.693C300.852 330.425 302.689 331.491 305.442 332.902C308.184 334.307 311.795 336.033 316.278 338.081C324.934 341.974 331.039 346.208 334.478 350.824C337.968 355.4 339.688 361.151 339.688 368.022C339.688 374.354 338.079 380.013 334.849 384.975L334.847 384.977C331.615 389.896 326.963 393.72 320.927 396.459L320.923 396.461C314.883 399.156 307.825 400.491 299.768 400.491C293.084 400.491 287.448 400.034 282.871 399.109L282.864 399.108C278.286 398.137 273.536 396.475 268.615 394.129L268.188 393.926V368.162L269.28 368.722C274.382 371.341 279.686 373.395 285.193 374.885C290.704 376.331 295.744 377.048 300.314 377.048C304.266 377.048 307.009 376.369 308.686 375.145C310.379 373.863 311.186 372.278 311.186 370.347C311.186 369.132 310.845 368.111 310.18 367.251L310.168 367.236L310.158 367.22C309.51 366.289 308.397 365.305 306.754 364.284L306.747 364.279C305.163 363.268 300.801 361.15 293.581 357.906L293.578 357.904C287.034 354.93 282.064 352.025 278.707 349.181L278.703 349.177C275.39 346.331 272.903 343.052 271.26 339.342L271.256 339.335C269.658 335.62 268.871 331.254 268.871 326.255C268.871 316.84 272.311 309.433 279.213 304.127Z" fill="white"/>
<path fill-rule="evenodd" clip-rule="evenodd" d="M239.143 297.819H263.588L265.027 299.929L264.944 300.256C260.748 316.95 256.703 329.78 252.805 338.723L252.609 339.173H232.186L232.38 338.266C235.475 323.838 237.704 310.579 239.067 298.485L239.143 297.819Z" fill="white"/>
<path fill-rule="evenodd" clip-rule="evenodd" d="M153.406 297.683H230.648V321.263H206.312V399.124H177.811V321.263H153.406V297.683Z" fill="white"/>
<path fill-rule="evenodd" clip-rule="evenodd" d="M86.6836 297.683H147.52V320.853H115.186V335.075H145.127V358.245H115.186V375.612H147.52V399.124H86.6836V297.683Z" fill="white"/>
<path fill-rule="evenodd" clip-rule="evenodd" d="M8 297.683H36.502V375.817H74.9883V399.124H8V297.683Z" fill="white"/>
<path fill-rule="evenodd" clip-rule="evenodd" d="M607.007 48.9547C603.658 53.6944 601.926 60.8982 601.926 70.6829C601.926 80.3753 603.647 87.5098 606.972 92.2033C610.262 96.8469 615.189 99.1961 621.891 99.1961C628.724 99.1961 633.664 96.9057 636.864 92.409L636.867 92.405C640.15 87.8561 641.856 80.6606 641.856 70.6829C641.856 60.6607 640.126 53.4192 636.798 48.8239L636.793 48.8172C633.538 44.2196 628.662 41.8936 622.032 41.8936C615.284 41.8936 610.322 44.2651 607.007 48.9547Z" stroke="white" stroke-width="1.5"/>
<path d="M584.419 32.6511C583.475 33.6548 582.585 34.7078 581.749 35.8101C575.224 44.4162 572 56.0228 572 70.5482C572 87.3281 576.233 100.23 584.817 109.13C593.451 118.032 605.803 122.435 621.749 122.435C637.919 122.435 650.321 118.059 658.82 109.196C667.312 100.34 671.498 87.4613 671.498 70.6837C671.498 53.863 667.336 40.9831 658.889 32.1718C650.435 23.3527 638.056 19 621.887 19C605.969 19 593.662 23.2862 585.086 31.9604" stroke="white" stroke-width="1.5" stroke-linecap="round" stroke-linejoin="round"/>
<path fill-rule="evenodd" clip-rule="evenodd" d="M899 20.9766V120.391H925.365V86.9603L934.661 81.4936L955.144 120.391H984.707L953.272 65.3911L985.098 20.9766H956.625L935.278 51.5747L935.267 51.5854C931 57.4759 926.797 61.3588 925.419 64.0193L925.365 64.0561V20.9766H899Z" stroke="white" stroke-width="1.5"/>
<path fill-rule="evenodd" clip-rule="evenodd" d="M1019.62 43.3669C1019.61 43.3669 1019.61 43.3713 1019.61 43.3768V58.4428C1019.61 58.4483 1019.61 58.4527 1019.62 58.4527H1049.59C1049.6 58.4527 1049.6 58.4572 1049.6 58.4627V80.5626C1049.6 80.5681 1049.6 80.5725 1049.59 80.5725H1019.62C1019.61 80.5725 1019.61 80.577 1019.61 80.5825V98.7772C1019.61 98.7827 1019.61 98.7872 1019.62 98.7872H1051.99C1052 98.7872 1052 98.7917 1052 98.7972V121.237C1052 121.243 1052 121.247 1051.99 121.247H992.01C992.004 121.247 992 121.243 992 121.237V21.257C992 21.2515 992.004 21.2471 992.01 21.2471H1051.99C1052 21.2471 1052 21.2515 1052 21.257V43.3569C1052 43.3624 1052 43.3669 1051.99 43.3669H1019.62Z" stroke="white" stroke-width="1.5" stroke-linecap="round" stroke-linejoin="round"/>
<path fill-rule="evenodd" clip-rule="evenodd" d="M1 163H76V186.477H52.3705V264H24.6959V186.477H1V163Z" stroke="white" stroke-width="1.5"/>
<path fill-rule="evenodd" clip-rule="evenodd" d="M88 163H116.639V200.051H146.516V163H175.154V264.441H146.516V223.699H116.639V264.441H88V163Z" stroke="white" stroke-width="1.5"/>
<path fill-rule="evenodd" clip-rule="evenodd" d="M220.62 185.12C220.615 185.12 220.61 185.124 220.61 185.13V200.196C220.61 200.201 220.615 200.206 220.62 200.206H250.593C250.599 200.206 250.603 200.21 250.603 200.216V222.315C250.603 222.321 250.599 222.325 250.593 222.325H220.62C220.615 222.325 220.61 222.33 220.61 222.335V240.53C220.61 240.536 220.615 240.54 220.62 240.54H252.99C252.996 240.54 253 240.545 253 240.55V262.99C253 262.996 252.996 263 252.99 263H193.01C193.004 263 193 262.996 193 262.99V163.01C193 163.004 193.004 163 193.01 163H252.99C252.996 163 253 163.004 253 163.01V185.11C253 185.115 252.996 185.12 252.99 185.12H220.62Z" stroke="white" stroke-width="1.5" stroke-linecap="round" stroke-linejoin="round"/>
<path fill-rule="evenodd" clip-rule="evenodd" d="M126.62 43.3669C126.615 43.3669 126.61 43.3713 126.61 43.3768V58.4428C126.61 58.4483 126.615 58.4527 126.62 58.4527H156.593C156.599 58.4527 156.603 58.4572 156.603 58.4627V80.5626C156.603 80.5681 156.599 80.5725 156.593 80.5725H126.62C126.615 80.5725 126.61 80.577 126.61 80.5825V98.7772C126.61 98.7827 126.615 98.7872 126.62 98.7872H158.99C158.996 98.7872 159 98.7917 159 98.7972V121.237C159 121.243 158.996 121.247 158.99 121.247H99.01C99.0045 121.247 99 121.243 99 121.237V21.257C99 21.2515 99.0045 21.2471 99.01 21.2471H158.99C158.996 21.2471 159 21.2515 159 21.257V43.3569C159 43.3624 158.996 43.3669 158.99 43.3669H126.62Z" stroke="white" stroke-width="1.5" stroke-linecap="round" stroke-linejoin="round"/>
<path fill-rule="evenodd" clip-rule="evenodd" d="M10 20.9766V119.8H36.2655V83.2915H44.5221L66.348 119.8H96L66.347 76.5803L67.0752 76.182C78.5075 69.9367 84.1412 61.1801 84.1412 49.8694C84.1412 40.1811 80.727 33.0182 73.9706 28.2447C67.1678 23.4387 56.8694 20.9766 42.9519 20.9766H10ZM37.8105 41.4953V62.91H42.2474C47.0088 62.91 50.4355 61.8824 52.6673 59.9593C54.8807 58.0518 56.0496 55.149 56.0496 51.1047C56.0496 47.8365 54.9353 45.4936 52.7878 43.9371C50.5982 42.3494 47.22 41.4953 42.5296 41.4953H37.8105Z" stroke="white" stroke-width="1.5"/>
<path fill-rule="evenodd" clip-rule="evenodd" d="M272 21.2471L307.203 21.2471C323.307 21.2471 335.84 25.3234 344.691 33.5782C353.598 41.8424 358 53.7428 358 69.158C358 85.7382 353.373 98.621 344.021 107.693C334.719 116.76 321.661 121.247 304.956 121.247H272V21.2471ZM300.392 44.2225V97.9347H305.637C313.665 97.9347 319.405 95.6445 323.032 91.2025C326.691 86.6746 328.587 79.6855 328.587 70.1015C328.587 61.1468 326.782 54.6566 323.31 50.4903L323.307 50.4867C319.902 46.3496 314.677 44.2225 307.476 44.2225H300.392Z" stroke="white" stroke-width="1.5"/>
<path fill-rule="evenodd" clip-rule="evenodd" d="M361 21.2471L394.29 83.6183V122.247H420.718V82.7744L454 21.2471L425.706 21.2471L407.501 60.3225L389.441 21.2471H361Z" stroke="white" stroke-width="1.5"/>
<path fill-rule="evenodd" clip-rule="evenodd" d="M713 20.2471H788V43.7245H764.37V121.247H736.696V43.7245H713V20.2471Z" stroke="white" stroke-width="1.5"/>
<path fill-rule="evenodd" clip-rule="evenodd" d="M200.636 102.736H231.335C231.34 102.736 231.344 102.739 231.345 102.743L236.168 121.091C236.169 121.096 236.173 121.099 236.178 121.099H266.701C266.708 121.099 266.713 121.092 266.711 121.086L233.853 21.2539C233.851 21.2498 233.847 21.2471 233.843 21.2471H197.46C197.456 21.2471 197.452 21.2499 197.451 21.254L165 121.086C164.998 121.092 165.003 121.099 165.01 121.099H195.66C195.665 121.099 195.669 121.096 195.67 121.091L200.627 102.743C200.628 102.739 200.632 102.736 200.636 102.736ZM215.836 41.8784C215.537 43.3109 215.19 44.8865 214.795 46.6049C214.079 49.8705 213.318 53.1138 212.512 56.3349C211.752 59.554 211.08 62.2414 210.497 64.3953L206.52 79.5394C206.518 79.5457 206.523 79.5519 206.529 79.5519H225.446C225.453 79.5519 225.458 79.5457 225.456 79.5394L221.478 64.3898C221.031 62.6498 220.383 60.1681 219.534 56.9518C218.684 53.6871 217.833 50.3309 216.983 46.8878C216.559 45.0488 216.181 43.3719 215.855 41.8783C215.853 41.8677 215.838 41.8678 215.836 41.8784Z" stroke="white" stroke-width="1.5" stroke-linecap="round" stroke-linejoin="round"/>
<path fill-rule="evenodd" clip-rule="evenodd" d="M824.636 103.736H855.335C855.34 103.736 855.344 103.739 855.345 103.743L860.168 122.091C860.169 122.096 860.173 122.099 860.178 122.099H890.701C890.708 122.099 890.713 122.092 890.711 122.086L857.853 22.2539C857.851 22.2498 857.847 22.2471 857.843 22.2471H821.46C821.456 22.2471 821.452 22.2499 821.451 22.254L789 122.086C788.998 122.092 789.003 122.099 789.01 122.099H819.66C819.665 122.099 819.669 122.096 819.67 122.091L824.627 103.743C824.628 103.739 824.632 103.736 824.636 103.736ZM839.836 42.8784C839.537 44.3109 839.19 45.8865 838.795 47.6049C838.079 50.8705 837.318 54.1138 836.512 57.3349C835.752 60.554 835.08 63.2414 834.497 65.3953L830.52 80.5394C830.518 80.5457 830.523 80.5519 830.529 80.5519H849.446C849.453 80.5519 849.458 80.5457 849.456 80.5394L845.478 65.3898C845.031 63.6498 844.383 61.1681 843.534 57.9518C842.684 54.6871 841.833 51.3309 840.983 47.8878C840.559 46.0488 840.181 44.3719 839.855 42.8783C839.853 42.8677 839.838 42.8678 839.836 42.8784Z" stroke="white" stroke-width="1.5" stroke-linecap="round" stroke-linejoin="round"/>
</svg>
