<svg width="457" height="1081" viewBox="0 0 457 1081" fill="none" xmlns="http://www.w3.org/2000/svg">
<path fill-rule="evenodd" clip-rule="evenodd" d="M87 699H162V722.477H138.37V800H110.696V722.477H87V699Z" stroke="white" stroke-width="1.5"/>
<path fill-rule="evenodd" clip-rule="evenodd" d="M9 138H84V161.477H60.3705V239H32.6959V161.477H9V138Z" stroke="white" stroke-width="1.5"/>
<path fill-rule="evenodd" clip-rule="evenodd" d="M289 560H364V583.477H340.37V661H312.696V583.477H289V560Z" stroke="white" stroke-width="1.5"/>
<path fill-rule="evenodd" clip-rule="evenodd" d="M148.62 581.12C148.615 581.12 148.61 581.124 148.61 581.13V596.196C148.61 596.201 148.615 596.206 148.62 596.206H178.593C178.599 596.206 178.603 596.21 178.603 596.216V618.315C178.603 618.321 178.599 618.325 178.593 618.325H148.62C148.615 618.325 148.61 618.33 148.61 618.335V636.53C148.61 636.536 148.615 636.54 148.62 636.54H180.99C180.996 636.54 181 636.545 181 636.55V658.99C181 658.996 180.996 659 180.99 659H121.01C121.004 659 121 658.996 121 658.99V559.01C121 559.004 121.004 559 121.01 559H180.99C180.996 559 181 559.004 181 559.01V581.11C181 581.115 180.996 581.12 180.99 581.12H148.62Z" stroke="white" stroke-width="1.5" stroke-linecap="round" stroke-linejoin="round"/>
<path fill-rule="evenodd" clip-rule="evenodd" d="M202.62 721.12C202.615 721.12 202.61 721.124 202.61 721.13V736.196C202.61 736.201 202.615 736.206 202.62 736.206H232.593C232.599 736.206 232.603 736.21 232.603 736.216V758.315C232.603 758.321 232.599 758.325 232.593 758.325H202.62C202.615 758.325 202.61 758.33 202.61 758.335V776.53C202.61 776.536 202.615 776.54 202.62 776.54H234.99C234.996 776.54 235 776.545 235 776.55V798.99C235 798.996 234.996 799 234.99 799H175.01C175.004 799 175 798.996 175 798.99V699.01C175 699.004 175.004 699 175.01 699H234.99C234.996 699 235 699.004 235 699.01V721.11C235 721.115 234.996 721.12 234.99 721.12H202.62Z" stroke="white" stroke-width="1.5" stroke-linecap="round" stroke-linejoin="round"/>
<path d="M389.318 735.037C384.618 737.985 381.273 741.069 379.365 744.311C377.458 747.507 376.525 751.407 376.525 755.975V762.604H399.011V758.367C399.011 756.573 399.549 755.061 400.612 753.792C401.758 752.434 404.667 750.212 409.467 747.104C415.174 743.468 419.369 739.593 421.998 735.461C424.684 731.268 426.013 726.338 426.013 720.701C426.013 712.781 423.023 706.472 417.04 701.855C411.078 697.255 402.921 695 392.656 695C380.168 695 368.192 698.273 356.738 704.806L356.115 705.16L366.289 725.07L366.962 724.714C376.111 719.868 384.03 717.486 390.742 717.486C393.424 717.486 395.523 718.036 397.097 719.072L397.109 719.079C398.641 720.047 399.357 721.321 399.357 722.957C399.357 725.184 398.607 727.152 397.083 728.888L397.076 728.896C395.554 730.678 392.986 732.727 389.318 735.037ZM389.318 735.037L389.716 735.672L389.317 735.037L389.318 735.037ZM378.469 776.622C380.743 774.517 384.131 773.404 388.759 773.404C393.194 773.404 396.467 774.534 398.698 776.681L398.704 776.686L398.709 776.691C400.982 778.795 402.16 781.788 402.16 785.779C402.16 789.762 400.942 792.752 398.582 794.859L398.577 794.863C396.245 796.983 393.004 798.086 388.759 798.086C384.37 798.086 381.035 797.001 378.66 794.924C376.305 792.819 375.086 789.809 375.086 785.779C375.086 781.738 376.244 778.724 378.469 776.622Z" stroke="white" stroke-width="1.5"/>
<path fill-rule="evenodd" clip-rule="evenodd" d="M249 698V799H274.491V764.984H282.826C294.823 764.984 303.955 761.907 310.333 755.86C316.749 749.774 320 741.14 320 729.844C320 719.588 316.894 711.778 310.759 706.297C304.618 700.81 295.352 698 282.826 698H249ZM274.491 718.834H282.211C286.044 718.834 289.059 719.72 291.118 721.628C293.192 723.549 294.167 726.384 294.167 729.984C294.167 734.261 292.906 737.707 290.313 740.219C287.774 742.725 284.36 743.939 280.161 743.939H274.491V718.834Z" stroke="white" stroke-width="1.5"/>
<path fill-rule="evenodd" clip-rule="evenodd" d="M190.956 560L221.418 608.334L189 659H217.54L237.082 626.906L256.833 659H286L252.748 610.485L283.71 560H254.888L237.234 591.837L218.884 560H190.956Z" stroke="white" stroke-width="1.5"/>
<path fill-rule="evenodd" clip-rule="evenodd" d="M10.5 559.936V658.377H32V615C32 609.196 31.5 590.225 31.5 589L31.5062 588.903C31.5398 588.377 31.9766 587.967 32.5042 587.967H33.4482L69.9521 658.377H104.156V559.936H81.5V604.5C81.5 610.534 81.8452 618.281 81.8989 628.253C81.8998 628.415 81.8659 628.576 81.7995 628.724V628.724C81.6172 629.128 81.2145 629.389 80.7706 629.389H80.4149C80.0991 629.389 79.81 629.211 79.6668 628.93L44.5696 559.936H10.5Z" stroke="white" stroke-width="1.5"/>
<path fill-rule="evenodd" clip-rule="evenodd" d="M17.7619 705.635C24.4704 700.516 33.633 698 45.1658 698C55.3795 698 65.7787 700.345 76.3579 705.017L76.9999 705.301L68.3824 726.861L67.6812 726.542C58.613 722.415 50.8479 720.383 44.365 720.383C40.994 720.383 38.7028 720.975 37.3388 722.02C35.9399 723.091 35.2883 724.367 35.2883 725.882C35.2883 727.491 36.1036 728.997 37.9366 730.404C38.8822 731.113 40.6758 732.147 43.3643 733.514C46.0415 734.876 49.5664 736.548 53.9424 738.533C62.3911 742.304 68.3501 746.406 71.7071 750.877C75.1139 755.312 76.7924 760.884 76.7924 767.542C76.7924 773.676 75.2223 779.159 72.0697 783.966L72.0679 783.969C68.9125 788.735 64.3714 792.44 58.48 795.094L58.4758 795.095C52.58 797.706 45.6904 799 37.8258 799C31.3019 799 25.8004 798.557 21.3328 797.661L21.3258 797.66C16.8569 796.719 12.2202 795.108 7.41701 792.836L6.99991 792.639L6.99991 767.677L8.0663 768.22C13.047 770.757 18.2253 772.748 23.6019 774.191C28.9807 775.592 33.8985 776.286 38.3596 776.286C42.2167 776.286 44.8942 775.629 46.5304 774.443C48.1832 773.201 48.9711 771.665 48.9711 769.794C48.9711 768.616 48.6387 767.628 47.9895 766.794L47.9783 766.779L47.9678 766.764C47.3357 765.863 46.2491 764.909 44.6458 763.92L44.6381 763.915C43.0922 762.935 38.8346 760.883 31.7872 757.74L31.7844 757.739C25.3966 754.857 20.545 752.042 17.2678 749.286L17.2639 749.283C14.03 746.525 11.6033 743.349 9.99864 739.754L9.99549 739.747C8.43499 736.148 7.66718 731.917 7.66718 727.074C7.66718 717.952 11.0246 710.775 17.7619 705.635Z" stroke="white" stroke-width="1.5"/>
<path fill-rule="evenodd" clip-rule="evenodd" d="M386.611 977.41H417.726L414.158 1043.58H390.179L386.611 977.41ZM390.858 1056.56C393.504 1054.07 397.292 1052.88 402.1 1052.88C406.863 1052.88 410.59 1054.07 413.148 1056.58C415.745 1059.03 417 1062.46 417 1066.75C417 1071.02 415.69 1074.45 413.001 1076.94C410.36 1079.39 406.691 1080.56 402.1 1080.56C397.464 1080.56 393.733 1079.39 391.005 1076.95L390.999 1076.95C388.262 1074.45 386.926 1071.02 386.926 1066.75C386.926 1062.45 388.209 1059.02 390.858 1056.56Z" fill="white"/>
<path fill-rule="evenodd" clip-rule="evenodd" d="M264.832 977.41H293.471V1018.69C295.036 1016.07 297.342 1012.63 300.378 1008.35L300.381 1008.35L321.583 977.41H352.955L320.881 1022.98L352.244 1078.85H320.018L300.419 1040.94L293.471 1045.1V1078.85H264.832V977.41Z" fill="white"/>
<path fill-rule="evenodd" clip-rule="evenodd" d="M186.146 977.41H214.648V1055.54H253.135V1078.85H186.146V977.41Z" fill="white"/>
<path fill-rule="evenodd" clip-rule="evenodd" d="M109.239 977H146.352L179.864 1078.85H148.718L143.796 1060.12H112.478L107.419 1078.85H76.1445L109.239 977ZM127.229 994.094L128.706 994.09C129.157 996.573 130.086 1000.7 131.499 1006.49C132.956 1012.27 134.185 1016.98 135.185 1020.62L135.187 1020.63L139.741 1037.97H116.535L116.784 1037.03C120.932 1021.35 123.594 1010.86 124.775 1005.55L124.776 1005.54C126.006 1000.21 126.823 996.397 127.229 994.094Z" fill="white"/>
<path fill-rule="evenodd" clip-rule="evenodd" d="M0 977.41H77.2422V1000.99H52.9062V1078.85H24.4043V1000.99H0V977.41Z" fill="white"/>
<path fill-rule="evenodd" clip-rule="evenodd" d="M280.213 842.88C287.085 837.597 296.472 835 308.287 835C318.751 835 329.404 837.421 340.242 842.242L340.9 842.535L332.072 864.788L331.353 864.459C322.063 860.199 314.108 858.102 307.467 858.102C304.013 858.102 301.666 858.713 300.269 859.791C298.835 860.897 298.168 862.214 298.168 863.777C298.168 865.439 299.004 866.994 300.883 868.446C301.852 869.177 303.689 870.244 306.442 871.655C309.184 873.06 312.795 874.786 317.278 876.834C325.934 880.727 332.039 884.961 335.478 889.577C338.968 894.153 340.688 899.904 340.688 906.775C340.688 913.107 339.079 918.766 335.849 923.728L335.847 923.73C332.615 928.649 327.963 932.473 321.927 935.212L321.923 935.214C315.883 937.909 308.825 939.244 300.768 939.244C294.084 939.244 288.448 938.787 283.871 937.862L283.864 937.861C279.286 936.889 274.536 935.228 269.615 932.882L269.188 932.678V906.915L270.28 907.475C275.382 910.094 280.686 912.148 286.193 913.638C291.704 915.084 296.744 915.801 301.314 915.801C305.266 915.801 308.009 915.122 309.686 913.898C311.379 912.616 312.186 911.031 312.186 909.1C312.186 907.884 311.845 906.864 311.18 906.004L311.168 905.989L311.158 905.973C310.51 905.042 309.397 904.058 307.754 903.037L307.747 903.032C306.163 902.021 301.801 899.903 294.581 896.659L294.578 896.657C288.034 893.683 283.064 890.778 279.707 887.934L279.703 887.93C276.39 885.084 273.903 881.805 272.26 878.095L272.256 878.087C270.658 874.373 269.871 870.006 269.871 865.008C269.871 855.593 273.311 848.186 280.213 842.88Z" fill="white"/>
<path fill-rule="evenodd" clip-rule="evenodd" d="M240.143 836.572H264.588L266.027 838.682L265.944 839.009C261.748 855.703 257.703 868.533 253.805 877.475L253.609 877.926H233.186L233.38 877.018C236.475 862.591 238.704 849.332 240.067 837.238L240.143 836.572Z" fill="white"/>
<path fill-rule="evenodd" clip-rule="evenodd" d="M154.406 836.436H231.648V860.016H207.312V937.877H178.811V860.016H154.406V836.436Z" fill="white"/>
<path fill-rule="evenodd" clip-rule="evenodd" d="M87.6836 836.436H148.52V859.605H116.186V873.828H146.127V896.998H116.186V914.365H148.52V937.877H87.6836V836.436Z" fill="white"/>
<path fill-rule="evenodd" clip-rule="evenodd" d="M9 836.436H37.502V914.57H75.9883V937.877H9V836.436Z" fill="white"/>
<path fill-rule="evenodd" clip-rule="evenodd" d="M124.007 166.311C120.658 171.107 118.926 178.397 118.926 188.298C118.926 198.106 120.647 205.325 123.972 210.075C127.262 214.774 132.189 217.151 138.891 217.151C145.724 217.151 150.664 214.833 153.864 210.283L153.867 210.279C157.15 205.676 158.856 198.395 158.856 188.298C158.856 178.157 157.126 170.829 153.798 166.179L153.793 166.172C150.538 161.52 145.662 159.166 139.032 159.166C132.284 159.166 127.322 161.566 124.007 166.311Z" stroke="white" stroke-width="1.5"/>
<path d="M101.419 149.814C100.475 150.829 99.585 151.895 98.7493 153.01C92.2236 161.719 89 173.464 89 188.162C89 205.142 93.2326 218.197 101.817 227.202C110.451 236.211 122.803 240.667 138.749 240.667C154.919 240.667 167.321 236.239 175.82 227.269C184.312 218.309 188.498 205.276 188.498 188.299C188.498 171.278 184.336 158.245 175.889 149.329C167.435 140.405 155.056 136 138.887 136C122.969 136 110.662 140.337 102.086 149.115" stroke="white" stroke-width="1.5" stroke-linecap="round" stroke-linejoin="round"/>
<path fill-rule="evenodd" clip-rule="evenodd" d="M195 280V380.597H221.365V346.769L230.661 341.237L251.144 380.597H280.707L249.272 324.943L281.098 280H252.625L231.278 310.962L231.267 310.973C227 316.934 222.797 320.863 221.419 323.555L221.365 323.592V280H195Z" stroke="white" stroke-width="1.5"/>
<path fill-rule="evenodd" clip-rule="evenodd" d="M315.62 302.12C315.615 302.12 315.61 302.124 315.61 302.13V317.196C315.61 317.201 315.615 317.206 315.62 317.206H345.593C345.599 317.206 345.603 317.21 345.603 317.216V339.315C345.603 339.321 345.599 339.325 345.593 339.325H315.62C315.615 339.325 315.61 339.33 315.61 339.335V357.53C315.61 357.536 315.615 357.54 315.62 357.54H347.99C347.996 357.54 348 357.545 348 357.55V379.99C348 379.996 347.996 380 347.99 380H288.01C288.004 380 288 379.996 288 379.99V280.01C288 280.004 288.004 280 288.01 280H347.99C347.996 280 348 280.004 348 280.01V302.11C348 302.115 347.996 302.12 347.99 302.12H315.62Z" stroke="white" stroke-width="1.5" stroke-linecap="round" stroke-linejoin="round"/>
<path fill-rule="evenodd" clip-rule="evenodd" d="M9 420H84V443.477H60.3705V521H32.6959V443.477H9V420Z" stroke="white" stroke-width="1.5"/>
<path fill-rule="evenodd" clip-rule="evenodd" d="M96 420H124.639V457.051H154.516V420H183.154V521.441H154.516V480.699H124.639V521.441H96V420Z" stroke="white" stroke-width="1.5"/>
<path fill-rule="evenodd" clip-rule="evenodd" d="M228.62 442.12C228.615 442.12 228.61 442.124 228.61 442.13V457.196C228.61 457.201 228.615 457.206 228.62 457.206H258.593C258.599 457.206 258.603 457.21 258.603 457.216V479.315C258.603 479.321 258.599 479.325 258.593 479.325H228.62C228.615 479.325 228.61 479.33 228.61 479.335V497.53C228.61 497.536 228.615 497.54 228.62 497.54H260.99C260.996 497.54 261 497.545 261 497.55V519.99C261 519.996 260.996 520 260.99 520H201.01C201.004 520 201 519.996 201 519.99V420.01C201 420.004 201.004 420 201.01 420H260.99C260.996 420 261 420.004 261 420.01V442.11C261 442.115 260.996 442.12 260.99 442.12H228.62Z" stroke="white" stroke-width="1.5" stroke-linecap="round" stroke-linejoin="round"/>
<path fill-rule="evenodd" clip-rule="evenodd" d="M132.62 23.1198C132.615 23.1198 132.61 23.1242 132.61 23.1297V38.1957C132.61 38.2012 132.615 38.2057 132.62 38.2057H162.593C162.599 38.2057 162.603 38.2101 162.603 38.2156V60.3155C162.603 60.321 162.599 60.3254 162.593 60.3254H132.62C132.615 60.3254 132.61 60.3299 132.61 60.3354V78.5302C132.61 78.5357 132.615 78.5401 132.62 78.5401H164.99C164.996 78.5401 165 78.5446 165 78.5501V100.99C165 100.996 164.996 101 164.99 101H105.01C105.004 101 105 100.996 105 100.99V1.00996C105 1.00446 105.004 1 105.01 1H164.99C164.996 1 165 1.00446 165 1.00996V23.1098C165 23.1153 164.996 23.1198 164.99 23.1198H132.62Z" stroke="white" stroke-width="1.5" stroke-linecap="round" stroke-linejoin="round"/>
<path fill-rule="evenodd" clip-rule="evenodd" d="M16 1V101H42.2655V64.0568H50.5221L72.348 101H102L72.347 57.2656L73.0752 56.8627C84.5075 50.543 90.1412 41.6821 90.1412 30.2368C90.1412 20.4331 86.727 13.185 79.9706 8.35464C73.1678 3.4914 62.8694 1 48.9519 1H16ZM43.8105 21.763V43.4326H48.2474C53.0088 43.4326 56.4355 42.3928 58.6673 40.4468C60.8807 38.5166 62.0496 35.5792 62.0496 31.4868C62.0496 28.1797 60.9353 25.8089 58.7878 24.2339C56.5982 22.6272 53.22 21.763 48.5296 21.763H43.8105Z" stroke="white" stroke-width="1.5"/>
<path fill-rule="evenodd" clip-rule="evenodd" d="M278 1L313.203 1C329.307 1 341.84 5.07633 350.691 13.3311C359.598 21.5953 364 33.4958 364 48.911C364 65.4911 359.373 78.3739 350.021 87.4458C340.719 96.5131 327.661 101 310.956 101H278V1ZM306.392 23.9755V77.6876H311.637C319.665 77.6876 325.405 75.3974 329.032 70.9554C332.691 66.4275 334.587 59.4384 334.587 49.8544C334.587 40.8998 332.782 34.4095 329.31 30.2432L329.307 30.2397C325.902 26.1026 320.677 23.9755 313.476 23.9755L306.392 23.9755Z" stroke="white" stroke-width="1.5"/>
<path fill-rule="evenodd" clip-rule="evenodd" d="M362 1L395.29 63.3713V102H421.718V62.5273L455 1L426.706 1L408.501 40.0754L390.441 1L362 1Z" stroke="white" stroke-width="1.5"/>
<path fill-rule="evenodd" clip-rule="evenodd" d="M9 279H84V302.477H60.3705V380H32.6959V302.477H9V279Z" stroke="white" stroke-width="1.5"/>
<path fill-rule="evenodd" clip-rule="evenodd" d="M206.636 82.4889H237.335C237.34 82.4889 237.344 82.492 237.345 82.4963L242.168 100.844C242.169 100.848 242.173 100.852 242.178 100.852H272.701C272.708 100.852 272.713 100.845 272.711 100.838L239.853 1.00687C239.851 1.00277 239.847 1 239.843 1H203.46C203.456 1 203.452 1.00279 203.451 1.00691L171 100.838C170.998 100.845 171.003 100.852 171.01 100.852H201.66C201.665 100.852 201.669 100.849 201.67 100.844L206.627 82.4963C206.628 82.4919 206.632 82.4889 206.636 82.4889ZM221.836 21.6313C221.537 23.0639 221.19 24.6395 220.795 26.3578C220.079 29.6234 219.318 32.8667 218.512 36.0878C217.752 39.3069 217.08 41.9943 216.497 44.1482L212.52 59.2923C212.518 59.2986 212.523 59.3048 212.529 59.3048H231.446C231.453 59.3048 231.458 59.2986 231.456 59.2923L227.478 44.1427C227.031 42.4028 226.383 39.921 225.534 36.7047C224.684 33.4401 223.833 30.0838 222.983 26.6407C222.559 24.8017 222.181 23.1248 221.855 21.6312C221.853 21.6207 221.838 21.6208 221.836 21.6313Z" stroke="white" stroke-width="1.5" stroke-linecap="round" stroke-linejoin="round"/>
<path fill-rule="evenodd" clip-rule="evenodd" d="M120.636 362.489H151.335C151.34 362.489 151.344 362.492 151.345 362.496L156.168 380.844C156.169 380.848 156.173 380.852 156.178 380.852H186.701C186.708 380.852 186.713 380.845 186.711 380.838L153.853 281.007C153.851 281.003 153.847 281 153.843 281H117.46C117.456 281 117.452 281.003 117.451 281.007L85.0005 380.838C84.9984 380.845 85.0032 380.852 85.01 380.852H115.66C115.665 380.852 115.669 380.849 115.67 380.844L120.627 362.496C120.628 362.492 120.632 362.489 120.636 362.489ZM135.836 301.631C135.537 303.064 135.19 304.639 134.795 306.358C134.079 309.623 133.318 312.867 132.512 316.088C131.752 319.307 131.08 321.994 130.497 324.148L126.52 339.292C126.518 339.299 126.523 339.305 126.529 339.305H145.446C145.453 339.305 145.458 339.299 145.456 339.292L141.478 324.143C141.031 322.403 140.383 319.921 139.534 316.705C138.684 313.44 137.833 310.084 136.983 306.641C136.559 304.802 136.181 303.125 135.855 301.631C135.853 301.621 135.838 301.621 135.836 301.631Z" stroke="white" stroke-width="1.5" stroke-linecap="round" stroke-linejoin="round"/>
</svg>
