<svg width="292" height="514" viewBox="0 0 292 514" fill="none" xmlns="http://www.w3.org/2000/svg">
<path fill-rule="evenodd" clip-rule="evenodd" d="M44.1641 309.031H82.2385V320.95H70.2427V360.305H56.1935V320.95H44.1641V309.031Z" stroke="white" stroke-width="1.5"/>
<path fill-rule="evenodd" clip-rule="evenodd" d="M4.56836 77.0156H42.6428V88.9342H30.647V128.289H16.5978V88.9342H4.56836V77.0156Z" stroke="white" stroke-width="1.5"/>
<path fill-rule="evenodd" clip-rule="evenodd" d="M146.713 231.507H184.787V243.425H172.792V282.78H158.742V243.425H146.713V231.507Z" stroke="white" stroke-width="1.5"/>
<path fill-rule="evenodd" clip-rule="evenodd" d="M75.4475 242.229C75.4447 242.229 75.4424 242.232 75.4424 242.234V249.883C75.4424 249.886 75.4447 249.888 75.4475 249.888H90.6635C90.6663 249.888 90.6686 249.89 90.6686 249.893V261.112C90.6686 261.115 90.6663 261.117 90.6635 261.117H75.4475C75.4447 261.117 75.4424 261.119 75.4424 261.122V270.359C75.4424 270.362 75.4447 270.364 75.4475 270.364H91.8802C91.883 270.364 91.8853 270.366 91.8853 270.369V281.761C91.8853 281.764 91.883 281.766 91.8802 281.766H61.4309C61.4281 281.766 61.4258 281.764 61.4258 281.761V231.005C61.4258 231.002 61.4281 231 61.4309 231H91.8802C91.883 231 91.8853 231.002 91.8853 231.005V242.224C91.8853 242.227 91.883 242.229 91.8802 242.229H75.4475Z" stroke="white" stroke-width="1.5" stroke-linecap="round" stroke-linejoin="round"/>
<path fill-rule="evenodd" clip-rule="evenodd" d="M102.862 320.261C102.859 320.261 102.856 320.263 102.856 320.266V327.914C102.856 327.917 102.859 327.919 102.862 327.919H118.078C118.08 327.919 118.083 327.921 118.083 327.924V339.143C118.083 339.146 118.08 339.148 118.078 339.148H102.862C102.859 339.148 102.856 339.151 102.856 339.153V348.39C102.856 348.393 102.859 348.395 102.862 348.395H119.294C119.297 348.395 119.299 348.397 119.299 348.4V359.792C119.299 359.795 119.297 359.797 119.294 359.797H88.8449C88.8421 359.797 88.8398 359.795 88.8398 359.792V309.036C88.8398 309.034 88.8421 309.031 88.8449 309.031H119.294C119.297 309.031 119.299 309.034 119.299 309.036V320.255C119.299 320.258 119.297 320.261 119.294 320.261H102.862Z" stroke="white" stroke-width="1.5" stroke-linecap="round" stroke-linejoin="round"/>
<path d="M197.641 327.325C195.255 328.822 193.557 330.388 192.588 332.033C191.62 333.656 191.146 335.636 191.146 337.954V341.32H202.562V339.169C202.562 338.258 202.835 337.49 203.374 336.846C203.956 336.157 205.433 335.029 207.87 333.451C210.767 331.605 212.896 329.638 214.231 327.54C215.595 325.412 216.27 322.909 216.27 320.047C216.27 316.027 214.751 312.824 211.714 310.48C208.688 308.145 204.547 307 199.335 307C192.996 307 186.916 308.662 181.101 311.978L180.785 312.158L185.95 322.265L186.292 322.084C190.936 319.624 194.956 318.415 198.364 318.415C199.725 318.415 200.791 318.695 201.59 319.22L201.596 319.224C202.374 319.715 202.737 320.362 202.737 321.193C202.737 322.323 202.356 323.322 201.583 324.204L201.579 324.208C200.807 325.112 199.503 326.152 197.641 327.325ZM197.641 327.325L197.843 327.647L197.64 327.325L197.641 327.325ZM192.133 348.436C193.288 347.367 195.008 346.803 197.357 346.803C199.608 346.803 201.27 347.376 202.403 348.466L202.406 348.469L202.408 348.471C203.562 349.539 204.16 351.059 204.16 353.085C204.16 355.107 203.542 356.625 202.344 357.694L202.341 357.696C201.158 358.773 199.512 359.332 197.357 359.332C195.129 359.332 193.436 358.782 192.23 357.727C191.034 356.659 190.416 355.13 190.416 353.085C190.416 351.033 191.004 349.503 192.133 348.436Z" stroke="white" stroke-width="1.5"/>
<path fill-rule="evenodd" clip-rule="evenodd" d="M126.406 308.524V359.798H139.347V342.529H143.578C149.669 342.529 154.305 340.967 157.542 337.898C160.8 334.808 162.45 330.425 162.45 324.69C162.45 319.484 160.873 315.519 157.759 312.737C154.641 309.951 149.937 308.524 143.578 308.524H126.406ZM139.347 319.101H143.266C145.212 319.101 146.742 319.551 147.788 320.519C148.841 321.494 149.336 322.934 149.336 324.761C149.336 326.933 148.696 328.682 147.379 329.957C146.09 331.229 144.357 331.846 142.225 331.846H139.347V319.101Z" stroke="white" stroke-width="1.5"/>
<path fill-rule="evenodd" clip-rule="evenodd" d="M96.9384 231.507L112.403 256.044L95.9453 281.765H110.434L120.355 265.472L130.381 281.765H145.188L128.308 257.136L144.026 231.507H129.394L120.432 247.669L111.116 231.507H96.9384Z" stroke="white" stroke-width="1.5"/>
<path fill-rule="evenodd" clip-rule="evenodd" d="M5.33203 231.476V281.45H16.2467V259.43C16.2467 256.483 15.9929 246.852 15.9929 246.23L15.996 246.181C16.0131 245.914 16.2348 245.706 16.5026 245.706H16.9819L35.5134 281.45H52.8774V231.476H41.3758V254.099C41.3758 257.163 41.5511 261.095 41.5783 266.158C41.5788 266.24 41.5615 266.322 41.5278 266.396V266.396C41.4353 266.602 41.2309 266.734 41.0055 266.734H40.825C40.6646 266.734 40.5179 266.644 40.4452 266.501L22.6277 231.476H5.33203Z" stroke="white" stroke-width="1.5"/>
<path fill-rule="evenodd" clip-rule="evenodd" d="M9.01613 312.4C12.4217 309.802 17.0732 308.524 22.9279 308.524C28.113 308.524 33.3923 309.715 38.7629 312.087L39.0888 312.231L34.714 323.176L34.3581 323.014C29.7545 320.919 25.8125 319.887 22.5214 319.887C20.8101 319.887 19.6469 320.188 18.9545 320.718C18.2443 321.262 17.9135 321.91 17.9135 322.679C17.9135 323.496 18.3274 324.26 19.258 324.975C19.738 325.334 20.6486 325.859 22.0134 326.553C23.3725 327.245 25.162 328.094 27.3834 329.101C31.6725 331.016 34.6976 333.098 36.4019 335.368C38.1314 337.619 38.9834 340.448 38.9834 343.828C38.9834 346.942 38.1864 349.725 36.5859 352.166L36.585 352.167C34.9832 354.587 32.6778 356.468 29.687 357.815L29.6849 357.816C26.6918 359.141 23.1943 359.798 19.2017 359.798C15.8898 359.798 13.0969 359.573 10.8289 359.118L10.8254 359.117C8.55666 358.64 6.20283 357.822 3.76443 356.669L3.55269 356.569L3.55269 343.896L4.09405 344.172C6.62254 345.46 9.25134 346.471 11.9808 347.204C14.7114 347.914 17.208 348.267 19.4727 348.267C21.4308 348.267 22.7901 347.933 23.6207 347.331C24.4598 346.701 24.8597 345.921 24.8597 344.971C24.8597 344.373 24.691 343.872 24.3614 343.448L24.3557 343.441L24.3504 343.433C24.0295 342.975 23.4779 342.491 22.664 341.989L22.6601 341.987C21.8753 341.489 19.7139 340.448 16.1362 338.852L16.1347 338.851C12.8919 337.388 10.429 335.959 8.76527 334.56L8.76332 334.559C7.12158 333.159 5.88961 331.546 5.07502 329.721L5.07342 329.717C4.28122 327.89 3.89143 325.743 3.89143 323.284C3.89143 318.653 5.59588 315.01 9.01613 312.4Z" stroke="white" stroke-width="1.5"/>
<path fill-rule="evenodd" clip-rule="evenodd" d="M196.268 461.21H212.063L210.252 494.801H198.078L196.268 461.21ZM198.423 501.394C199.767 500.126 201.69 499.522 204.131 499.522C206.548 499.522 208.441 500.127 209.739 501.399C211.058 502.645 211.695 504.385 211.695 506.566C211.695 508.731 211.03 510.472 209.664 511.738C208.324 512.98 206.461 513.575 204.131 513.575C201.777 513.575 199.883 512.98 198.498 511.743L198.495 511.741C197.106 510.475 196.427 508.733 196.427 506.566C196.427 504.382 197.079 502.639 198.423 501.394Z" fill="white"/>
<path fill-rule="evenodd" clip-rule="evenodd" d="M134.445 461.21H148.984V482.167C149.778 480.838 150.949 479.087 152.49 476.919L152.492 476.917L163.256 461.21H179.182L162.899 484.344L178.821 512.708H162.461L152.511 493.462L148.984 495.573V512.708H134.445V461.21Z" fill="white"/>
<path fill-rule="evenodd" clip-rule="evenodd" d="M94.5 461.21H108.969V500.876H128.507V512.708H94.5V461.21Z" fill="white"/>
<path fill-rule="evenodd" clip-rule="evenodd" d="M55.4552 461H74.296L91.3082 512.706H75.4966L72.998 503.197H57.0991L54.5311 512.706H38.6543L55.4552 461ZM64.5879 469.678L65.3375 469.676C65.5666 470.936 66.0383 473.031 66.7553 475.969C67.4951 478.905 68.1189 481.296 68.6268 483.143L68.628 483.147L70.9395 491.953H59.1587L59.2852 491.475C61.3908 483.515 62.7423 478.19 63.3418 475.492L63.3425 475.489C63.9671 472.782 64.3816 470.847 64.5879 469.678Z" fill="white"/>
<path fill-rule="evenodd" clip-rule="evenodd" d="M0 461.21H39.2127V473.181H26.8583V512.708H12.3891V473.181H0V461.21Z" fill="white"/>
<path fill-rule="evenodd" clip-rule="evenodd" d="M142.255 389C145.744 386.318 150.51 385 156.507 385C161.819 385 167.228 386.229 172.73 388.677L173.064 388.825L168.582 400.122L168.217 399.955C163.501 397.793 159.463 396.728 156.091 396.728C154.338 396.728 153.146 397.038 152.437 397.585C151.709 398.147 151.37 398.815 151.37 399.609C151.37 400.453 151.795 401.242 152.749 401.979C153.241 402.35 154.173 402.892 155.571 403.608C156.963 404.322 158.796 405.198 161.072 406.237C165.466 408.214 168.565 410.363 170.311 412.706C172.083 415.03 172.956 417.949 172.956 421.437C172.956 424.652 172.139 427.524 170.5 430.043L170.499 430.045C168.858 432.542 166.496 434.483 163.432 435.874L163.43 435.875C160.363 437.243 156.78 437.92 152.69 437.92C149.297 437.92 146.436 437.688 144.112 437.219L144.109 437.218C141.785 436.725 139.373 435.881 136.875 434.691L136.658 434.587V421.508L137.213 421.793C139.803 423.122 142.495 424.165 145.291 424.921C148.089 425.655 150.647 426.019 152.968 426.019C154.974 426.019 156.367 425.675 157.217 425.053C158.077 424.402 158.487 423.598 158.487 422.617C158.487 422 158.314 421.482 157.976 421.046L157.97 421.038L157.965 421.03C157.636 420.558 157.071 420.058 156.237 419.54L156.233 419.537C155.429 419.024 153.215 417.949 149.55 416.302L149.548 416.301C146.226 414.791 143.703 413.316 141.998 411.872L141.996 411.87C140.314 410.425 139.052 408.761 138.218 406.877L138.216 406.874C137.405 404.988 137.005 402.771 137.005 400.234C137.005 395.454 138.751 391.694 142.255 389Z" fill="white"/>
<path fill-rule="evenodd" clip-rule="evenodd" d="M121.911 385.797H134.321L135.051 386.868L135.009 387.034C132.879 395.509 130.825 402.022 128.847 406.562L128.747 406.79H118.379L118.478 406.33C120.049 399.006 121.18 392.274 121.873 386.135L121.911 385.797Z" fill="white"/>
<path fill-rule="evenodd" clip-rule="evenodd" d="M78.3867 385.729H117.599V397.699H105.245V437.226H90.7758V397.699H78.3867V385.729Z" fill="white"/>
<path fill-rule="evenodd" clip-rule="evenodd" d="M44.5156 385.729H75.3995V397.491H58.9849V404.711H74.1849V416.474H58.9849V425.29H75.3995V437.226H44.5156V385.729Z" fill="white"/>
<path fill-rule="evenodd" clip-rule="evenodd" d="M4.56836 385.729H19.0376V425.394H38.5755V437.226H4.56836V385.729Z" fill="white"/>
<path fill-rule="evenodd" clip-rule="evenodd" d="M62.9548 91.3881C61.2546 93.8228 60.375 97.5235 60.375 102.55C60.375 107.529 61.2488 111.194 62.9365 113.605C64.607 115.99 67.1084 117.197 70.5104 117.197C73.9792 117.197 76.487 116.021 78.1115 113.711L78.113 113.709C79.7798 111.372 80.6458 107.675 80.6458 102.55C80.6458 97.4015 79.7678 93.6815 78.078 91.3209L78.0754 91.3174C76.4233 88.9556 73.9479 87.7607 70.5819 87.7607C67.1565 87.7607 64.6372 88.979 62.9548 91.3881Z" stroke="white" stroke-width="1.5"/>
<path d="M51.4883 83.0126C51.009 83.5282 50.5572 84.0691 50.1329 84.6354C46.8201 89.0564 45.1836 95.0187 45.1836 102.48C45.1836 111.1 47.3323 117.728 51.6902 122.3C56.0731 126.873 62.3439 129.135 70.4389 129.135C78.648 129.135 84.9438 126.887 89.2587 122.334C93.5695 117.785 95.6947 111.169 95.6947 102.55C95.6947 93.9092 93.5818 87.2928 89.2935 82.7664C85.0017 78.236 78.7176 76 70.509 76C62.4284 76 56.1807 78.2018 51.8266 82.6578" stroke="white" stroke-width="1.5" stroke-linecap="round" stroke-linejoin="round"/>
<path fill-rule="evenodd" clip-rule="evenodd" d="M213.426 77.4668V128.536H226.81V111.363L231.529 108.555L241.928 128.536H256.936L240.978 100.283L257.134 77.4668H242.679L231.842 93.1851L231.837 93.1906C229.671 96.2166 227.537 98.2112 226.838 99.578L226.81 99.5968V77.4668H213.426Z" stroke="white" stroke-width="1.5"/>
<path fill-rule="evenodd" clip-rule="evenodd" d="M274.66 88.6961C274.658 88.6961 274.655 88.6984 274.655 88.7012V96.3495C274.655 96.3523 274.658 96.3546 274.66 96.3546H289.876C289.879 96.3546 289.881 96.3568 289.881 96.3596V107.579C289.881 107.582 289.879 107.584 289.876 107.584H274.66C274.658 107.584 274.655 107.586 274.655 107.589V116.826C274.655 116.828 274.658 116.831 274.66 116.831H291.093C291.096 116.831 291.098 116.833 291.098 116.836V128.228C291.098 128.23 291.096 128.233 291.093 128.233H260.644C260.641 128.233 260.639 128.23 260.639 128.228V77.4719C260.639 77.4691 260.641 77.4668 260.644 77.4668H291.093C291.096 77.4668 291.098 77.4691 291.098 77.4719V88.691C291.098 88.6938 291.096 88.6961 291.093 88.6961H274.66Z" stroke="white" stroke-width="1.5" stroke-linecap="round" stroke-linejoin="round"/>
<path fill-rule="evenodd" clip-rule="evenodd" d="M4.56836 153H42.6428V164.919H30.647V204.274H16.5978V164.919H4.56836V153Z" stroke="white" stroke-width="1.5"/>
<path fill-rule="evenodd" clip-rule="evenodd" d="M48.7363 153H63.275V171.809H78.4423V153H92.981V204.498H78.4423V183.814H63.275V204.498H48.7363V153Z" stroke="white" stroke-width="1.5"/>
<path fill-rule="evenodd" clip-rule="evenodd" d="M116.061 164.229C116.058 164.229 116.056 164.232 116.056 164.234V171.883C116.056 171.886 116.058 171.888 116.061 171.888H131.277C131.28 171.888 131.282 171.89 131.282 171.893V183.112C131.282 183.115 131.28 183.117 131.277 183.117H116.061C116.058 183.117 116.056 183.119 116.056 183.122V192.359C116.056 192.362 116.058 192.364 116.061 192.364H132.493C132.496 192.364 132.499 192.366 132.499 192.369V203.761C132.499 203.764 132.496 203.766 132.493 203.766H102.044C102.041 203.766 102.039 203.764 102.039 203.761V153.005C102.039 153.002 102.041 153 102.044 153H132.493C132.496 153 132.499 153.002 132.499 153.005V164.224C132.499 164.227 132.496 164.229 132.493 164.229H116.061Z" stroke="white" stroke-width="1.5" stroke-linecap="round" stroke-linejoin="round"/>
<path fill-rule="evenodd" clip-rule="evenodd" d="M67.3245 12.7371C67.3217 12.7371 67.3194 12.7394 67.3194 12.7422V20.3905C67.3194 20.3933 67.3217 20.3956 67.3245 20.3956H82.5405C82.5433 20.3956 82.5456 20.3979 82.5456 20.4006V31.6198C82.5456 31.6226 82.5433 31.6249 82.5405 31.6249H67.3245C67.3217 31.6249 67.3194 31.6272 67.3194 31.6299V40.8667C67.3194 40.8695 67.3217 40.8717 67.3245 40.8717H83.7572C83.76 40.8717 83.7623 40.874 83.7623 40.8768V52.2686C83.7623 52.2714 83.76 52.2737 83.7572 52.2737H53.3078C53.305 52.2737 53.3027 52.2714 53.3027 52.2686V1.51287C53.3027 1.51008 53.305 1.50781 53.3078 1.50781H83.7572C83.76 1.50781 83.7623 1.51008 83.7623 1.51287V12.7321C83.7623 12.7349 83.76 12.7371 83.7572 12.7371H67.3245Z" stroke="white" stroke-width="1.5" stroke-linecap="round" stroke-linejoin="round"/>
<path fill-rule="evenodd" clip-rule="evenodd" d="M8.12305 1.50781V52.2737H21.457V33.5191H25.6485L36.7286 52.2737H51.7817L36.7281 30.0716L37.0978 29.867C42.9015 26.6587 45.7615 22.1604 45.7615 16.3501C45.7615 11.3732 44.0282 7.69363 40.5983 5.24146C37.1448 2.77259 31.9167 1.50781 24.8513 1.50781H8.12305ZM22.2413 12.0483V23.0491H24.4937C26.9109 23.0491 28.6505 22.5212 29.7835 21.5333C30.9071 20.5534 31.5006 19.0623 31.5006 16.9847C31.5006 15.3058 30.9348 14.1023 29.8447 13.3027C28.7331 12.4871 27.0181 12.0483 24.637 12.0483H22.2413Z" stroke="white" stroke-width="1.5"/>
<path fill-rule="evenodd" clip-rule="evenodd" d="M141.129 1.50781L159 1.50781C167.175 1.50781 173.538 3.5772 178.031 7.76782C182.553 11.9632 184.788 18.0046 184.788 25.8302C184.788 34.2473 182.439 40.7873 177.691 45.3928C172.969 49.9959 166.34 52.2737 157.859 52.2737H141.129V1.50781ZM155.542 13.1715V40.4389H158.205C162.281 40.4389 165.195 39.2763 167.036 37.0213C168.893 34.7227 169.856 31.1746 169.856 26.3092C169.856 21.7633 168.94 18.4685 167.177 16.3534L167.175 16.3516C165.447 14.2514 162.794 13.1715 159.138 13.1715L155.542 13.1715Z" stroke="white" stroke-width="1.5"/>
<path fill-rule="evenodd" clip-rule="evenodd" d="M183.771 1.50781L200.671 33.1711V52.7813H214.088V32.7427L230.984 1.50781L216.62 1.50781L207.378 21.3448L198.21 1.50781L183.771 1.50781Z" stroke="white" stroke-width="1.5"/>
<path fill-rule="evenodd" clip-rule="evenodd" d="M119 76.959H157.074V88.8775H145.079V128.233H131.029V88.8775H119V76.959Z" stroke="white" stroke-width="1.5"/>
<path fill-rule="evenodd" clip-rule="evenodd" d="M104.898 42.8764H120.482C120.485 42.8764 120.487 42.8779 120.487 42.8801L122.936 52.1945C122.936 52.1968 122.938 52.1983 122.941 52.1983H138.436C138.44 52.1983 138.442 52.1949 138.441 52.1917L121.76 1.5113C121.76 1.50922 121.758 1.50781 121.755 1.50781H103.285C103.283 1.50781 103.281 1.50923 103.28 1.51132L86.8069 52.1917C86.8058 52.195 86.8083 52.1983 86.8117 52.1983H102.372C102.374 52.1983 102.376 52.1968 102.376 52.1946L104.893 42.8801C104.894 42.8779 104.896 42.8764 104.898 42.8764ZM112.614 11.9815C112.462 12.7087 112.286 13.5086 112.085 14.3809C111.722 16.0387 111.336 17.6852 110.927 19.3204C110.541 20.9546 110.2 22.3189 109.903 23.4124L107.885 31.1004C107.884 31.1036 107.886 31.1068 107.889 31.1068H117.493C117.496 31.1068 117.498 31.1036 117.498 31.1004L115.478 23.4096C115.251 22.5263 114.922 21.2664 114.491 19.6336C114.06 17.9763 113.628 16.2725 113.196 14.5245C112.981 13.591 112.789 12.7397 112.624 11.9814C112.623 11.9761 112.615 11.9761 112.614 11.9815Z" stroke="white" stroke-width="1.5" stroke-linecap="round" stroke-linejoin="round"/>
<path fill-rule="evenodd" clip-rule="evenodd" d="M175.671 119.342H191.256C191.258 119.342 191.26 119.344 191.261 119.346L193.709 128.66C193.71 128.663 193.712 128.664 193.714 128.664H209.21C209.213 128.664 209.216 128.661 209.215 128.657L192.534 77.9771C192.533 77.975 192.531 77.9736 192.529 77.9736H174.059C174.057 77.9736 174.055 77.975 174.054 77.9771L157.58 128.658C157.579 128.661 157.582 128.664 157.585 128.664H173.145C173.147 128.664 173.149 128.663 173.15 128.66L175.666 119.346C175.667 119.344 175.669 119.342 175.671 119.342ZM183.387 88.4473C183.236 89.1745 183.059 89.9744 182.859 90.8467C182.495 92.5046 182.109 94.1511 181.7 95.7863C181.314 97.4205 180.973 98.7847 180.677 99.8782L178.658 107.566C178.657 107.569 178.66 107.573 178.663 107.573H188.266C188.269 107.573 188.272 107.569 188.271 107.566L186.251 99.8754C186.025 98.9921 185.696 97.7322 185.265 96.0994C184.833 94.4421 184.401 92.7383 183.97 90.9904C183.754 90.0568 183.563 89.2055 183.397 88.4472C183.396 88.4419 183.389 88.4419 183.387 88.4473Z" stroke="white" stroke-width="1.5" stroke-linecap="round" stroke-linejoin="round"/>
</svg>
