<svg width="1337" height="370" viewBox="0 0 1337 370" fill="none" xmlns="http://www.w3.org/2000/svg">
<path fill-rule="evenodd" clip-rule="evenodd" d="M471 135H546V158.477H522.37V236H494.696V158.477H471V135Z" stroke="white" stroke-width="1.5"/>
<path fill-rule="evenodd" clip-rule="evenodd" d="M484 3H559V26.4775H535.37V104H507.696V26.4775H484V3Z" stroke="white" stroke-width="1.5"/>
<path fill-rule="evenodd" clip-rule="evenodd" d="M280 134H355V157.477H331.37V235H303.696V157.477H280V134Z" stroke="white" stroke-width="1.5"/>
<path fill-rule="evenodd" clip-rule="evenodd" d="M139.62 155.12C139.615 155.12 139.61 155.124 139.61 155.13V170.196C139.61 170.201 139.615 170.206 139.62 170.206H169.593C169.599 170.206 169.603 170.21 169.603 170.216V192.315C169.603 192.321 169.599 192.325 169.593 192.325H139.62C139.615 192.325 139.61 192.33 139.61 192.335V210.53C139.61 210.536 139.615 210.54 139.62 210.54H171.99C171.996 210.54 172 210.545 172 210.55V232.99C172 232.996 171.996 233 171.99 233H112.01C112.004 233 112 232.996 112 232.99V133.01C112 133.004 112.004 133 112.01 133H171.99C171.996 133 172 133.004 172 133.01V155.11C172 155.115 171.996 155.12 171.99 155.12H139.62Z" stroke="white" stroke-width="1.5" stroke-linecap="round" stroke-linejoin="round"/>
<path fill-rule="evenodd" clip-rule="evenodd" d="M586.62 157.12C586.615 157.12 586.61 157.124 586.61 157.13V172.196C586.61 172.201 586.615 172.206 586.62 172.206H616.593C616.599 172.206 616.603 172.21 616.603 172.216V194.315C616.603 194.321 616.599 194.325 616.593 194.325H586.62C586.615 194.325 586.61 194.33 586.61 194.335V212.53C586.61 212.536 586.615 212.54 586.62 212.54H618.99C618.996 212.54 619 212.545 619 212.55V234.99C619 234.996 618.996 235 618.99 235H559.01C559.004 235 559 234.996 559 234.99V135.01C559 135.004 559.004 135 559.01 135H618.99C618.996 135 619 135.004 619 135.01V157.11C619 157.115 618.996 157.12 618.99 157.12H586.62Z" stroke="white" stroke-width="1.5" stroke-linecap="round" stroke-linejoin="round"/>
<path d="M773.318 171.037C768.618 173.985 765.273 177.069 763.365 180.311C761.458 183.507 760.525 187.407 760.525 191.975V198.604H783.011V194.367C783.011 192.573 783.549 191.061 784.612 189.792C785.758 188.434 788.667 186.212 793.467 183.104C799.174 179.468 803.369 175.593 805.998 171.461C808.684 167.268 810.013 162.338 810.013 156.701C810.013 148.781 807.023 142.472 801.04 137.855C795.078 133.255 786.921 131 776.656 131C764.168 131 752.192 134.273 740.738 140.806L740.115 141.16L750.289 161.07L750.962 160.714C760.111 155.868 768.03 153.486 774.742 153.486C777.424 153.486 779.523 154.036 781.097 155.072L781.109 155.079C782.641 156.047 783.357 157.321 783.357 158.957C783.357 161.184 782.607 163.152 781.083 164.888L781.076 164.896C779.554 166.678 776.986 168.727 773.318 171.037ZM773.318 171.037L773.716 171.672L773.317 171.037L773.318 171.037ZM762.469 212.622C764.743 210.517 768.131 209.404 772.759 209.404C777.194 209.404 780.467 210.534 782.698 212.681L782.704 212.686L782.709 212.691C784.982 214.795 786.16 217.788 786.16 221.779C786.16 225.762 784.942 228.752 782.582 230.859L782.577 230.863C780.245 232.983 777.004 234.086 772.759 234.086C768.37 234.086 765.035 233.001 762.66 230.924C760.305 228.819 759.086 225.809 759.086 221.779C759.086 217.738 760.244 214.724 762.469 212.622Z" stroke="white" stroke-width="1.5"/>
<path fill-rule="evenodd" clip-rule="evenodd" d="M633 134V235H658.491V200.984H666.826C678.823 200.984 687.955 197.907 694.333 191.86C700.749 185.774 704 177.14 704 165.844C704 155.588 700.894 147.778 694.759 142.297C688.618 136.81 679.352 134 666.826 134H633ZM658.491 154.834H666.211C670.044 154.834 673.059 155.72 675.118 157.628C677.192 159.549 678.167 162.384 678.167 165.984C678.167 170.261 676.906 173.707 674.313 176.219C671.774 178.725 668.36 179.939 664.161 179.939H658.491V154.834Z" stroke="white" stroke-width="1.5"/>
<path fill-rule="evenodd" clip-rule="evenodd" d="M181.956 134L212.418 182.334L180 233H208.54L228.082 200.906L247.833 233H277L243.748 184.485L274.71 134H245.888L228.234 165.837L209.884 134H181.956Z" stroke="white" stroke-width="1.5"/>
<path fill-rule="evenodd" clip-rule="evenodd" d="M1.5 133.936V232.377H23V189C23 183.196 22.5 164.225 22.5 163L22.5062 162.903C22.5398 162.377 22.9766 161.967 23.5042 161.967H24.4482L60.9521 232.377H95.1562V133.936H72.5V178.5C72.5 184.534 72.8452 192.281 72.8989 202.253C72.8998 202.415 72.8659 202.576 72.7995 202.724V202.724C72.6172 203.128 72.2145 203.389 71.7706 203.389H71.4149C71.0991 203.389 70.81 203.211 70.6668 202.93L35.5696 133.936H1.5Z" stroke="white" stroke-width="1.5"/>
<path fill-rule="evenodd" clip-rule="evenodd" d="M401.762 141.635C408.47 136.516 417.633 134 429.166 134C439.38 134 449.779 136.345 460.358 141.017L461 141.301L452.382 162.861L451.681 162.542C442.613 158.415 434.848 156.383 428.365 156.383C424.994 156.383 422.703 156.975 421.339 158.02C419.94 159.091 419.288 160.367 419.288 161.882C419.288 163.491 420.104 164.997 421.937 166.404C422.882 167.113 424.676 168.147 427.364 169.514C430.042 170.876 433.566 172.548 437.942 174.533C446.391 178.304 452.35 182.406 455.707 186.877C459.114 191.312 460.792 196.884 460.792 203.542C460.792 209.676 459.222 215.159 456.07 219.966L456.068 219.969C452.913 224.735 448.371 228.44 442.48 231.094L442.476 231.095C436.58 233.706 429.69 235 421.826 235C415.302 235 409.8 234.557 405.333 233.661L405.326 233.66C400.857 232.719 396.22 231.108 391.417 228.836L391 228.639V203.677L392.066 204.22C397.047 206.757 402.225 208.748 407.602 210.191C412.981 211.592 417.899 212.286 422.36 212.286C426.217 212.286 428.894 211.629 430.53 210.443C432.183 209.201 432.971 207.665 432.971 205.794C432.971 204.616 432.639 203.628 431.99 202.794L431.978 202.779L431.968 202.764C431.336 201.863 430.249 200.909 428.646 199.92L428.638 199.915C427.092 198.935 422.835 196.883 415.787 193.74L415.784 193.739C409.397 190.857 404.545 188.042 401.268 185.286L401.264 185.283C398.03 182.525 395.603 179.349 393.999 175.754L393.995 175.747C392.435 172.148 391.667 167.917 391.667 163.074C391.667 153.952 395.025 146.775 401.762 141.635Z" stroke="white" stroke-width="1.5"/>
<path fill-rule="evenodd" clip-rule="evenodd" d="M755.701 266.436H786.815L783.248 332.604H759.268L755.701 266.436ZM759.948 345.59C762.594 343.094 766.382 341.904 771.19 341.904C775.952 341.904 779.68 343.095 782.238 345.601C784.835 348.054 786.09 351.484 786.09 355.779C786.09 360.044 784.78 363.474 782.091 365.968C779.45 368.413 775.781 369.586 771.19 369.586C766.554 369.586 762.823 368.414 760.095 365.977L760.089 365.972C757.352 363.479 756.016 360.049 756.016 355.779C756.016 351.476 757.299 348.043 759.948 345.59Z" fill="white"/>
<path fill-rule="evenodd" clip-rule="evenodd" d="M633.921 266.436H662.56V307.717C664.125 305.099 666.431 301.651 669.467 297.38L669.47 297.376L690.672 266.436H722.044L689.97 312.006L721.333 367.877H689.107L669.508 329.967L662.56 334.125V367.877H633.921V266.436Z" fill="white"/>
<path fill-rule="evenodd" clip-rule="evenodd" d="M555.236 266.436H583.738V344.57H622.225V367.877H555.236V266.436Z" fill="white"/>
<path fill-rule="evenodd" clip-rule="evenodd" d="M478.33 266.025H515.443L548.954 367.877H517.808L512.887 349.146H481.569L476.51 367.877H445.235L478.33 266.025ZM496.32 283.12L497.797 283.116C498.248 285.598 499.177 289.725 500.589 295.511C502.047 301.295 503.276 306.005 504.276 309.643L504.278 309.651L508.832 326.998H485.625L485.875 326.056C490.022 310.377 492.684 299.887 493.866 294.572L493.867 294.566C495.097 289.234 495.914 285.423 496.32 283.12Z" fill="white"/>
<path fill-rule="evenodd" clip-rule="evenodd" d="M369.089 266.436H446.331V290.016H421.995V367.877H393.493V290.016H369.089V266.436Z" fill="white"/>
<path fill-rule="evenodd" clip-rule="evenodd" d="M271.212 272.88C278.084 267.597 287.471 265 299.286 265C309.75 265 320.403 267.421 331.241 272.242L331.899 272.535L323.071 294.788L322.352 294.459C313.062 290.199 305.107 288.102 298.466 288.102C295.012 288.102 292.665 288.713 291.268 289.791C289.835 290.897 289.167 292.214 289.167 293.777C289.167 295.439 290.003 296.994 291.882 298.446C292.851 299.177 294.688 300.244 297.441 301.655C300.183 303.06 303.794 304.786 308.277 306.834C316.933 310.727 323.038 314.961 326.477 319.577C329.967 324.153 331.687 329.904 331.687 336.775C331.687 343.107 330.078 348.766 326.848 353.728L326.846 353.73C323.614 358.649 318.962 362.473 312.926 365.212L312.922 365.214C306.882 367.909 299.824 369.244 291.767 369.244C285.083 369.244 279.447 368.787 274.87 367.862L274.863 367.861C270.285 366.889 265.535 365.228 260.614 362.882L260.187 362.678V336.915L261.279 337.475C266.381 340.094 271.685 342.148 277.192 343.638C282.704 345.084 287.743 345.801 292.313 345.801C296.265 345.801 299.009 345.122 300.685 343.898C302.378 342.616 303.185 341.031 303.185 339.1C303.185 337.884 302.844 336.864 302.179 336.004L302.168 335.989L302.157 335.973C301.509 335.042 300.396 334.058 298.753 333.037L298.746 333.032C297.162 332.021 292.8 329.903 285.58 326.659L285.577 326.657C279.033 323.683 274.063 320.778 270.706 317.934L270.702 317.93C267.389 315.084 264.902 311.805 263.259 308.095L263.255 308.087C261.657 304.373 260.87 300.006 260.87 295.008C260.87 285.593 264.31 278.186 271.212 272.88Z" fill="white"/>
<path fill-rule="evenodd" clip-rule="evenodd" d="M231.143 266.572H255.588L257.027 268.682L256.944 269.009C252.748 285.703 248.703 298.533 244.805 307.475L244.609 307.926H224.186L224.38 307.018C227.475 292.591 229.704 279.332 231.067 267.238L231.143 266.572Z" fill="white"/>
<path fill-rule="evenodd" clip-rule="evenodd" d="M145.406 266.436H222.648V290.016H198.312V367.877H169.811V290.016H145.406V266.436Z" fill="white"/>
<path fill-rule="evenodd" clip-rule="evenodd" d="M78.6846 266.436H139.521V289.605H107.187V303.828H137.128V326.998H107.187V344.365H139.521V367.877H78.6846V266.436Z" fill="white"/>
<path fill-rule="evenodd" clip-rule="evenodd" d="M0 266.436H28.502V344.57H66.9883V367.877H0V266.436Z" fill="white"/>
<path fill-rule="evenodd" clip-rule="evenodd" d="M599.007 31.3112C595.658 36.1073 593.926 43.3969 593.926 53.2981C593.926 63.1058 595.647 70.3253 598.972 75.0747C602.262 79.7736 607.189 82.1508 613.891 82.1508C620.724 82.1508 625.664 79.8331 628.864 75.2829L628.867 75.2788C632.15 70.6758 633.856 63.3945 633.856 53.2981C633.856 43.1566 632.126 35.8288 628.798 31.1789L628.793 31.172C625.538 26.5198 620.662 24.166 614.032 24.166C607.284 24.166 602.322 26.5658 599.007 31.3112Z" stroke="white" stroke-width="1.5"/>
<path d="M576.419 14.8137C575.475 15.8293 574.585 16.8948 573.749 18.0102C567.224 26.7188 564 38.4635 564 53.1619C564 70.1415 568.233 83.1967 576.817 92.2025C585.451 101.211 597.803 105.667 613.749 105.667C629.919 105.667 642.321 101.239 650.82 92.2695C659.312 83.3086 663.498 70.2763 663.498 53.299C663.498 36.278 659.336 23.2448 650.889 14.3286C642.435 5.40455 630.056 1 613.887 1C597.969 1 585.662 5.33719 577.086 14.1147" stroke="white" stroke-width="1.5" stroke-linecap="round" stroke-linejoin="round"/>
<path fill-rule="evenodd" clip-rule="evenodd" d="M891 3V103.597H917.365V69.7692L926.661 64.2375L947.144 103.597H976.707L945.272 47.9433L977.098 3H948.625L927.278 33.9624L927.267 33.9733C923 39.9339 918.797 43.863 917.419 46.5552L917.365 46.5924V3H891Z" stroke="white" stroke-width="1.5"/>
<path fill-rule="evenodd" clip-rule="evenodd" d="M1011.62 25.1198C1011.61 25.1198 1011.61 25.1242 1011.61 25.1297V40.1957C1011.61 40.2012 1011.61 40.2057 1011.62 40.2057H1041.59C1041.6 40.2057 1041.6 40.2101 1041.6 40.2156V62.3155C1041.6 62.321 1041.6 62.3254 1041.59 62.3254H1011.62C1011.61 62.3254 1011.61 62.3299 1011.61 62.3354V80.5302C1011.61 80.5357 1011.61 80.5401 1011.62 80.5401H1043.99C1044 80.5401 1044 80.5446 1044 80.5501V102.99C1044 102.996 1044 103 1043.99 103H984.01C984.004 103 984 102.996 984 102.99V3.00996C984 3.00446 984.004 3 984.01 3H1043.99C1044 3 1044 3.00446 1044 3.00996V25.1098C1044 25.1153 1044 25.1198 1043.99 25.1198H1011.62Z" stroke="white" stroke-width="1.5" stroke-linecap="round" stroke-linejoin="round"/>
<path fill-rule="evenodd" clip-rule="evenodd" d="M1084 3H1159V26.4775H1135.37V104H1107.7V26.4775H1084V3Z" stroke="white" stroke-width="1.5"/>
<path fill-rule="evenodd" clip-rule="evenodd" d="M1171 3H1199.64V40.0508H1229.52V3H1258.15V104.441H1229.52V63.6992H1199.64V104.441H1171V3Z" stroke="white" stroke-width="1.5"/>
<path fill-rule="evenodd" clip-rule="evenodd" d="M1303.62 25.1198C1303.61 25.1198 1303.61 25.1242 1303.61 25.1297V40.1957C1303.61 40.2012 1303.61 40.2057 1303.62 40.2057H1333.59C1333.6 40.2057 1333.6 40.2101 1333.6 40.2156V62.3155C1333.6 62.321 1333.6 62.3254 1333.59 62.3254H1303.62C1303.61 62.3254 1303.61 62.3299 1303.61 62.3354V80.5302C1303.61 80.5357 1303.61 80.5401 1303.62 80.5401H1335.99C1336 80.5401 1336 80.5446 1336 80.5501V102.99C1336 102.996 1336 103 1335.99 103H1276.01C1276 103 1276 102.996 1276 102.99V3.00996C1276 3.00446 1276 3 1276.01 3H1335.99C1336 3 1336 3.00446 1336 3.00996V25.1098C1336 25.1153 1336 25.1198 1335.99 25.1198H1303.62Z" stroke="white" stroke-width="1.5" stroke-linecap="round" stroke-linejoin="round"/>
<path fill-rule="evenodd" clip-rule="evenodd" d="M118.62 25.1198C118.615 25.1198 118.61 25.1242 118.61 25.1297V40.1957C118.61 40.2012 118.615 40.2057 118.62 40.2057H148.593C148.599 40.2057 148.603 40.2101 148.603 40.2156V62.3155C148.603 62.321 148.599 62.3254 148.593 62.3254H118.62C118.615 62.3254 118.61 62.3299 118.61 62.3354V80.5302C118.61 80.5357 118.615 80.5401 118.62 80.5401H150.99C150.996 80.5401 151 80.5446 151 80.5501V102.99C151 102.996 150.996 103 150.99 103H91.01C91.0045 103 91 102.996 91 102.99V3.00996C91 3.00446 91.0045 3 91.01 3H150.99C150.996 3 151 3.00446 151 3.00996V25.1098C151 25.1153 150.996 25.1198 150.99 25.1198H118.62Z" stroke="white" stroke-width="1.5" stroke-linecap="round" stroke-linejoin="round"/>
<path fill-rule="evenodd" clip-rule="evenodd" d="M2 3V103H28.2655V66.0568H36.5221L58.348 103H88L58.347 59.2656L59.0752 58.8627C70.5075 52.543 76.1412 43.6821 76.1412 32.2368C76.1412 22.4331 72.727 15.185 65.9706 10.3546C59.1678 5.4914 48.8694 3 34.9519 3H2ZM29.8105 23.763V45.4326H34.2474C39.0088 45.4326 42.4355 44.3928 44.6673 42.4468C46.8807 40.5166 48.0496 37.5792 48.0496 33.4868C48.0496 30.1797 46.9353 27.8089 44.7878 26.2339C42.5982 24.6272 39.22 23.763 34.5296 23.763H29.8105Z" stroke="white" stroke-width="1.5"/>
<path fill-rule="evenodd" clip-rule="evenodd" d="M264 3L299.203 3C315.307 3 327.84 7.07633 336.691 15.3311C345.598 23.5953 350 35.4958 350 50.911C350 67.4911 345.373 80.3739 336.021 89.4458C326.719 98.5131 313.661 103 296.956 103H264V3ZM292.392 25.9755V79.6876H297.637C305.665 79.6876 311.405 77.3974 315.032 72.9554C318.691 68.4275 320.587 61.4384 320.587 51.8544C320.587 42.8998 318.782 36.4095 315.31 32.2432L315.307 32.2397C311.902 28.1026 306.677 25.9755 299.476 25.9755L292.392 25.9755Z" stroke="white" stroke-width="1.5"/>
<path fill-rule="evenodd" clip-rule="evenodd" d="M353 3L386.29 65.3713V104H412.718V64.5273L446 3L417.706 3L399.501 42.0754L381.441 3L353 3Z" stroke="white" stroke-width="1.5"/>
<path fill-rule="evenodd" clip-rule="evenodd" d="M705 2H780V25.4775H756.37V103H728.696V25.4775H705V2Z" stroke="white" stroke-width="1.5"/>
<path fill-rule="evenodd" clip-rule="evenodd" d="M192.636 84.4889H223.335C223.34 84.4889 223.344 84.492 223.345 84.4963L228.168 102.844C228.169 102.848 228.173 102.852 228.178 102.852H258.701C258.708 102.852 258.713 102.845 258.711 102.838L225.853 3.00687C225.851 3.00277 225.847 3 225.843 3H189.46C189.456 3 189.452 3.00279 189.451 3.00691L157 102.838C156.998 102.845 157.003 102.852 157.01 102.852H187.66C187.665 102.852 187.669 102.849 187.67 102.844L192.627 84.4963C192.628 84.4919 192.632 84.4889 192.636 84.4889ZM207.836 23.6313C207.537 25.0639 207.19 26.6395 206.795 28.3578C206.079 31.6234 205.318 34.8667 204.512 38.0878C203.752 41.3069 203.08 43.9943 202.497 46.1482L198.52 61.2923C198.518 61.2986 198.523 61.3048 198.529 61.3048H217.446C217.453 61.3048 217.458 61.2986 217.456 61.2923L213.478 46.1427C213.031 44.4028 212.383 41.921 211.534 38.7047C210.684 35.4401 209.833 32.0838 208.983 28.6407C208.559 26.8017 208.181 25.1248 207.855 23.6312C207.853 23.6207 207.838 23.6208 207.836 23.6313Z" stroke="white" stroke-width="1.5" stroke-linecap="round" stroke-linejoin="round"/>
<path fill-rule="evenodd" clip-rule="evenodd" d="M816.636 85.4889H847.335C847.34 85.4889 847.344 85.492 847.345 85.4963L852.168 103.844C852.169 103.848 852.173 103.852 852.178 103.852H882.701C882.708 103.852 882.713 103.845 882.711 103.838L849.853 4.00687C849.851 4.00277 849.847 4 849.843 4H813.46C813.456 4 813.452 4.00279 813.451 4.00691L781 103.838C780.998 103.845 781.003 103.852 781.01 103.852H811.66C811.665 103.852 811.669 103.849 811.67 103.844L816.627 85.4963C816.628 85.4919 816.632 85.4889 816.636 85.4889ZM831.836 24.6313C831.537 26.0639 831.19 27.6395 830.795 29.3578C830.079 32.6234 829.318 35.8667 828.512 39.0878C827.752 42.3069 827.08 44.9943 826.497 47.1482L822.52 62.2923C822.518 62.2986 822.523 62.3048 822.529 62.3048H841.446C841.453 62.3048 841.458 62.2986 841.456 62.2923L837.478 47.1427C837.031 45.4028 836.383 42.921 835.534 39.7047C834.684 36.4401 833.833 33.0838 832.983 29.6407C832.559 27.8017 832.181 26.1248 831.855 24.6312C831.853 24.6207 831.838 24.6208 831.836 24.6313Z" stroke="white" stroke-width="1.5" stroke-linecap="round" stroke-linejoin="round"/>
</svg>
