<svg width="64" height="64" viewBox="0 0 64 64" fill="none" xmlns="http://www.w3.org/2000/svg">
<g opacity="0.7">
<g clip-path="url(#clip0_144_7368)">
<path fill-rule="evenodd" clip-rule="evenodd" d="M22.451 48.6582C22.8004 48.8043 22.9652 49.206 22.8191 49.5554C22.2304 50.9633 21.2941 52.1988 20.0978 53.1462C18.9015 54.0937 17.4844 54.7221 15.9791 54.9726C15.6055 55.0348 15.2523 54.7824 15.1901 54.4088C15.1279 54.0352 15.3803 53.682 15.7539 53.6198C17.0303 53.4073 18.2319 52.8745 19.2463 52.0711C20.2607 51.2678 21.0547 50.2201 21.5539 49.0263C21.7 48.6769 22.1016 48.5121 22.451 48.6582Z" fill="white"/>
<path fill-rule="evenodd" clip-rule="evenodd" d="M5.77995 22.6709C5.84536 22.2979 6.20078 22.0485 6.5738 22.1139C9.36923 22.6041 12.0122 23.7383 14.2935 25.4267C16.5747 27.115 18.4317 29.3112 19.7173 31.8414C19.8889 32.179 19.7543 32.5918 19.4167 32.7633C19.079 32.9349 18.6663 32.8003 18.4947 32.4626C17.3055 30.1222 15.5878 28.0907 13.4776 26.529C11.3674 24.9673 8.9227 23.9182 6.33692 23.4648C5.9639 23.3993 5.71454 23.0439 5.77995 22.6709Z" fill="white"/>
<path fill-rule="evenodd" clip-rule="evenodd" d="M20.751 23.2792C20.9782 23.5821 20.9169 24.0119 20.6139 24.2392L15.8326 27.8258C15.5296 28.0531 15.0998 27.9917 14.8726 27.6888C14.6453 27.3858 14.7067 26.956 15.0096 26.7288L19.791 23.1421C20.0939 22.9148 20.5237 22.9762 20.751 23.2792Z" fill="white"/>
<path fill-rule="evenodd" clip-rule="evenodd" d="M26.6801 1.10902C27.0588 1.11628 27.3598 1.42911 27.3526 1.80775C27.2999 4.55481 26.8039 7.27533 25.8838 9.86424C25.757 10.2211 25.3649 10.4075 25.008 10.2807C24.6512 10.1539 24.4647 9.7618 24.5915 9.40496C25.4622 6.95519 25.9316 4.38088 25.9814 1.78146C25.9887 1.40282 26.3015 1.10175 26.6801 1.10902Z" fill="white"/>
<path fill-rule="evenodd" clip-rule="evenodd" d="M24.0008 10.0189C22.9068 10.0189 22.0199 10.9058 22.0199 11.9998C22.0199 13.0939 22.9068 13.9808 24.0008 13.9808C25.0949 13.9808 25.9818 13.0939 25.9818 11.9998C25.9818 10.9058 25.0949 10.0189 24.0008 10.0189ZM20.6484 11.9998C20.6484 10.1484 22.1493 8.64746 24.0008 8.64746C25.8523 8.64746 27.3532 10.1484 27.3532 11.9998C27.3532 13.8513 25.8523 15.3522 24.0008 15.3522C22.1493 15.3522 20.6484 13.8513 20.6484 11.9998Z" fill="white"/>
<path d="M40.0007 19.9998C41.4734 19.9998 42.6673 18.8059 42.6673 17.3332C42.6673 15.8604 41.4734 14.6665 40.0007 14.6665C38.5279 14.6665 37.334 15.8604 37.334 17.3332C37.334 18.8059 38.5279 19.9998 40.0007 19.9998Z" stroke="white" stroke-width="1.06667" stroke-linecap="round" stroke-linejoin="round"/>
<path fill-rule="evenodd" clip-rule="evenodd" d="M49.3328 26.0194C48.2388 26.0194 47.3519 26.9063 47.3519 28.0003C47.3519 29.0944 48.2388 29.9813 49.3328 29.9813C50.4269 29.9813 51.3138 29.0944 51.3138 28.0003C51.3138 26.9063 50.4269 26.0194 49.3328 26.0194ZM45.9805 28.0003C45.9805 26.1489 47.4814 24.6479 49.3328 24.6479C51.1843 24.6479 52.6852 26.1489 52.6852 28.0003C52.6852 29.8518 51.1843 31.3527 49.3328 31.3527C47.4814 31.3527 45.9805 29.8518 45.9805 28.0003Z" fill="white"/>
<path fill-rule="evenodd" clip-rule="evenodd" d="M40.0008 35.3524C38.9068 35.3524 38.0199 36.2393 38.0199 37.3333C38.0199 38.4274 38.9068 39.3143 40.0008 39.3143C41.0949 39.3143 41.9818 38.4274 41.9818 37.3333C41.9818 36.2393 41.0949 35.3524 40.0008 35.3524ZM36.6484 37.3333C36.6484 35.4819 38.1494 33.981 40.0008 33.981C41.8523 33.981 43.3532 35.4819 43.3532 37.3333C43.3532 39.1848 41.8523 40.6857 40.0008 40.6857C38.1494 40.6857 36.6484 39.1848 36.6484 37.3333Z" fill="white"/>
<path fill-rule="evenodd" clip-rule="evenodd" d="M22.6668 20.6859C21.5728 20.6859 20.6859 21.5728 20.6859 22.6668C20.6859 23.7609 21.5728 24.6478 22.6668 24.6478C23.7609 24.6478 24.6478 23.7609 24.6478 22.6668C24.6478 21.5728 23.7609 20.6859 22.6668 20.6859ZM19.3145 22.6668C19.3145 20.8154 20.8154 19.3145 22.6668 19.3145C24.5183 19.3145 26.0192 20.8154 26.0192 22.6668C26.0192 24.5183 24.5183 26.0192 22.6668 26.0192C20.8154 26.0192 19.3145 24.5183 19.3145 22.6668Z" fill="white"/>
<path fill-rule="evenodd" clip-rule="evenodd" d="M20.0008 32.6859C18.9068 32.6859 18.0199 33.5728 18.0199 34.6668C18.0199 35.7609 18.9068 36.6478 20.0008 36.6478C21.0949 36.6478 21.9818 35.7609 21.9818 34.6668C21.9818 33.5728 21.0949 32.6859 20.0008 32.6859ZM16.6484 34.6668C16.6484 32.8154 18.1493 31.3145 20.0008 31.3145C21.8523 31.3145 23.3532 32.8154 23.3532 34.6668C23.3532 36.5183 21.8523 38.0192 20.0008 38.0192C18.1493 38.0192 16.6484 36.5183 16.6484 34.6668Z" fill="white"/>
<path d="M62.6672 32.0002C62.6725 30.1549 62.2043 28.3392 61.3074 26.7266C60.4105 25.114 59.1149 23.7584 57.5445 22.7895C57.7253 22.0021 57.8192 21.1973 57.8245 20.3895C57.8503 17.7158 56.8669 15.1307 55.0707 13.15C53.2744 11.1694 50.7974 9.93894 48.1339 9.70416C48.1611 8.6232 47.9734 7.54758 47.5817 6.53975C47.1899 5.53191 46.6018 4.61193 45.8516 3.83319C45.1014 3.05446 44.204 2.43249 43.2115 2.00338C42.219 1.57427 41.1511 1.34657 40.0699 1.3335C38.3737 1.43061 36.7334 1.97527 35.316 2.91207C33.8987 3.84888 32.7547 5.14439 32.0005 6.66683C31.2464 5.14439 30.1024 3.84888 28.685 2.91207C27.2676 1.97527 25.6274 1.43061 23.9312 1.3335C22.85 1.34657 21.7821 1.57427 20.7896 2.00338C19.7971 2.43249 18.8997 3.05446 18.1495 3.83319C17.3993 4.61193 16.8112 5.53191 16.4194 6.53975C16.0276 7.54758 15.8399 8.6232 15.8672 9.70416C13.2028 9.93901 10.725 11.1702 8.92857 13.152C7.13218 15.1338 6.14942 17.7202 6.17653 20.3948C6.17755 21.2022 6.26697 22.007 6.4432 22.7948C4.87664 23.7678 3.58413 25.1243 2.68789 26.736C1.79165 28.3477 1.32129 30.1614 1.32129 32.0055C1.32129 33.8496 1.79165 35.6633 2.68789 37.275C3.58413 38.8867 4.87664 40.2432 6.4432 41.2162C6.26697 42.004 6.17755 42.8088 6.17653 43.6162C6.15212 46.289 7.13609 48.8728 8.93222 50.8522C10.7283 52.8317 13.2046 54.0615 15.8672 54.2962C15.8399 55.3771 16.0276 56.4527 16.4194 57.4606C16.8112 58.4684 17.3993 59.3884 18.1495 60.1671C18.8997 60.9459 19.7971 61.5678 20.7896 61.9969C21.7821 62.4261 22.85 62.6538 23.9312 62.6668C25.4998 62.7049 27.0542 62.3606 28.46 61.6637C29.8659 60.9668 31.081 59.9383 32.0005 58.6668C32.9201 59.9383 34.1352 60.9668 35.5411 61.6637C36.9469 62.3606 38.5012 62.7049 40.0699 62.6668C41.1511 62.6538 42.219 62.4261 43.2115 61.9969C44.204 61.5678 45.1014 60.9459 45.8516 60.1671C46.6018 59.3884 47.1899 58.4684 47.5817 57.4606C47.9734 56.4527 48.1611 55.3771 48.1339 54.2962C50.7983 54.0613 53.2761 52.8301 55.0725 50.8483C56.8689 48.8666 57.8517 46.2801 57.8245 43.6055C57.8192 42.7977 57.7253 41.9929 57.5445 41.2055C59.1142 40.2371 60.4092 38.8823 61.3061 37.2707C62.2029 35.6591 62.6715 33.8445 62.6672 32.0002Z" stroke="white" stroke-width="1.5" stroke-linecap="round" stroke-linejoin="round"/>
<path fill-rule="evenodd" clip-rule="evenodd" d="M32.0002 5.98096C32.3789 5.98096 32.6859 6.28796 32.6859 6.66667V37.3333C32.6859 37.712 32.3789 38.0191 32.0002 38.0191C31.6215 38.0191 31.3145 37.712 31.3145 37.3333V6.66667C31.3145 6.28796 31.6215 5.98096 32.0002 5.98096Z" fill="white"/>
<path fill-rule="evenodd" clip-rule="evenodd" d="M32.0002 47.2021C32.3789 47.2021 32.6859 47.5092 32.6859 47.8879V58.6665C32.6859 59.0452 32.3789 59.3522 32.0002 59.3522C31.6215 59.3522 31.3145 59.0452 31.3145 58.6665V47.8879C31.3145 47.5092 31.6215 47.2021 32.0002 47.2021Z" fill="white"/>
<path fill-rule="evenodd" clip-rule="evenodd" d="M57.0737 14.7945C57.2432 15.1331 57.1061 15.5451 56.7675 15.7146L49.3729 19.4159C49.3728 19.4159 49.3728 19.4159 49.3728 19.4159C48.2135 19.9963 46.9372 20.3048 45.6408 20.3178C44.3444 20.3309 43.0621 20.0482 41.8913 19.4913C41.5493 19.3286 41.404 18.9195 41.5667 18.5775C41.7293 18.2355 42.1384 18.0902 42.4804 18.2528C43.4629 18.7202 44.539 18.9574 45.627 18.9465C46.7149 18.9355 47.786 18.6766 48.7589 18.1896L48.7589 18.1895L56.1536 14.4882C56.4923 14.3187 56.9042 14.4558 57.0737 14.7945Z" fill="white"/>
<path fill-rule="evenodd" clip-rule="evenodd" d="M47.3338 27.84C47.4221 28.2083 47.1951 28.5784 46.8268 28.6667C45.3317 29.025 43.9648 29.79 42.8777 30.8772C41.7905 31.9644 41.0255 33.3312 40.6672 34.8263C40.5789 35.1946 40.2088 35.4216 39.8405 35.3333C39.4722 35.2451 39.2452 34.875 39.3335 34.5067C39.7508 32.7654 40.6418 31.1736 41.9079 29.9074C43.1741 28.6413 44.7659 27.7503 46.5072 27.333C46.8755 27.2447 47.2456 27.4718 47.3338 27.84Z" fill="white"/>
<path fill-rule="evenodd" clip-rule="evenodd" d="M43.328 49.1985C43.4024 48.8272 43.7638 48.5865 44.1351 48.661C46.6771 49.1706 48.0413 51.4903 48.7927 54.1067C48.8972 54.4707 48.6869 54.8505 48.3229 54.9551C47.9589 55.0596 47.5791 54.8493 47.4746 54.4853C46.754 51.9763 45.6062 50.3546 43.8655 50.0056C43.4942 49.9312 43.2535 49.5698 43.328 49.1985Z" fill="white"/>
<path fill-rule="evenodd" clip-rule="evenodd" d="M22.6668 44.6859C21.5728 44.6859 20.6859 45.5728 20.6859 46.6668C20.6859 47.7609 21.5728 48.6478 22.6668 48.6478C23.7609 48.6478 24.6478 47.7609 24.6478 46.6668C24.6478 45.5728 23.7609 44.6859 22.6668 44.6859ZM19.3145 46.6668C19.3145 44.8154 20.8154 43.3145 22.6668 43.3145C24.5183 43.3145 26.0192 44.8154 26.0192 46.6668C26.0192 48.5183 24.5183 50.0192 22.6668 50.0192C20.8154 50.0192 19.3145 48.5183 19.3145 46.6668Z" fill="white"/>
<path fill-rule="evenodd" clip-rule="evenodd" d="M41.3328 47.3524C40.2388 47.3524 39.3519 48.2393 39.3519 49.3333C39.3519 50.4274 40.2388 51.3143 41.3328 51.3143C42.4269 51.3143 43.3138 50.4274 43.3138 49.3333C43.3138 48.2393 42.4269 47.3524 41.3328 47.3524ZM37.9805 49.3333C37.9805 47.4819 39.4814 45.981 41.3328 45.981C43.1843 45.981 44.6852 47.4819 44.6852 49.3333C44.6852 51.1848 43.1843 52.6857 41.3328 52.6857C39.4814 52.6857 37.9805 51.1848 37.9805 49.3333Z" fill="white"/>
</g>
</g>
<defs>
<clipPath id="clip0_144_7368">
<rect width="64" height="64" fill="white"/>
</clipPath>
</defs>
</svg>
