<svg width="64" height="64" viewBox="0 0 64 64" fill="none" xmlns="http://www.w3.org/2000/svg">
<g opacity="0.7">
<path d="M44 38.6694V62.6694" stroke="white" stroke-width="1.5" stroke-linecap="round" stroke-linejoin="round"/>
<path d="M1.33398 62.6668V14.6668C1.33398 13.2523 1.89589 11.8958 2.89608 10.8956C3.89628 9.8954 5.25283 9.3335 6.66732 9.3335H26.6673" stroke="white" stroke-width="1.5" stroke-linecap="round" stroke-linejoin="round"/>
<path d="M25.334 20.0024H1.33398" stroke="white" stroke-width="1.5" stroke-linecap="round" stroke-linejoin="round"/>
<path d="M21.334 50.6689C24.6477 50.6689 27.334 47.9826 27.334 44.6689C27.334 41.3552 24.6477 38.6689 21.334 38.6689C18.0203 38.6689 15.334 41.3552 15.334 44.6689C15.334 47.9826 18.0203 50.6689 21.334 50.6689Z" stroke="white" stroke-width="1.5" stroke-linecap="round" stroke-linejoin="round"/>
<path d="M33.334 62.6668C32.654 60.0003 31.1053 57.6362 28.9323 55.9478C26.7593 54.2593 24.0858 53.3428 21.334 53.3428C18.5821 53.3428 15.9087 54.2593 13.7357 55.9478C11.5627 57.6362 10.0139 60.0003 9.33398 62.6668" stroke="white" stroke-width="1.5" stroke-linecap="round" stroke-linejoin="round"/>
<path d="M18.666 14.6689H25.3327" stroke="white" stroke-width="1.5" stroke-linecap="round" stroke-linejoin="round"/>
<path d="M46.1719 33.8286C55.0084 33.8286 62.1719 26.6652 62.1719 17.8286C62.1719 8.99206 55.0084 1.82861 46.1719 1.82861C37.3353 1.82861 30.1719 8.99206 30.1719 17.8286C30.1719 26.6652 37.3353 33.8286 46.1719 33.8286Z" stroke="white" stroke-width="1.5" stroke-linecap="round" stroke-linejoin="round"/>
<path d="M53.3017 13.1777L45.5551 23.5057C45.3827 23.7346 45.1634 23.924 44.9117 24.061C44.6601 24.1979 44.382 24.2794 44.0962 24.2999C43.8104 24.3203 43.5236 24.2793 43.255 24.1796C42.9864 24.0799 42.7422 23.9237 42.5391 23.7217L38.5391 19.7217" stroke="white" stroke-width="1.5" stroke-linecap="round" stroke-linejoin="round"/>
</g>
</svg>
