<svg width="65" height="64" viewBox="0 0 65 64" fill="none" xmlns="http://www.w3.org/2000/svg">
<g opacity="0.7">
<g clip-path="url(#clip0_144_7392)">
<g clip-path="url(#clip1_144_7392)">
<path d="M32.667 24.5991V32.5991" stroke="white" stroke-width="1.5" stroke-linecap="round" stroke-linejoin="round"/>
<path d="M32.667 0.716797V3.26613" stroke="white" stroke-width="1.5" stroke-linecap="round" stroke-linejoin="round"/>
<path d="M32.667 11.2661V16.5994" stroke="white" stroke-width="1.5" stroke-linecap="round" stroke-linejoin="round"/>
<path d="M24.429 24.3408C24.6598 24.5139 24.9405 24.6074 25.229 24.6074H43.333V16.6074H25.2183C24.9298 16.6074 24.6491 16.701 24.4183 16.8741L20.7863 19.5408C20.6176 19.6646 20.4805 19.8264 20.386 20.0131C20.2914 20.1998 20.2422 20.4062 20.2422 20.6154C20.2422 20.8247 20.2914 21.031 20.386 21.2177C20.4805 21.4044 20.6176 21.5662 20.7863 21.6901L24.429 24.3408Z" stroke="white" stroke-width="1.5" stroke-linecap="round" stroke-linejoin="round"/>
<path d="M42.239 11.0073C42.0082 11.1804 41.7275 11.2739 41.439 11.2739H23.335V3.27393H41.4496C41.7381 3.27393 42.0188 3.3675 42.2496 3.54059L45.8816 6.20726C46.0503 6.33112 46.1874 6.49295 46.282 6.67965C46.3765 6.86634 46.4257 7.07266 46.4257 7.28193C46.4257 7.49119 46.3765 7.69751 46.282 7.88421C46.1874 8.0709 46.0503 8.23273 45.8816 8.35659L42.239 11.0073Z" stroke="white" stroke-width="1.5" stroke-linecap="round" stroke-linejoin="round"/>
<path d="M62.0018 61.933C61.9783 54.6333 59.234 47.6046 54.305 42.2204C49.376 36.8361 42.6165 33.4831 35.3473 32.8165C28.0781 32.1499 20.8215 34.2176 14.9954 38.6156C9.16938 43.0137 5.19248 49.426 3.8418 56.5996H19.3085C21.338 56.6002 23.2843 57.4069 24.7191 58.8423L27.5805 61.701C27.6525 61.773 27.7031 61.8583 27.7725 61.933" stroke="white" stroke-width="1.5" stroke-linecap="round" stroke-linejoin="round"/>
<path d="M48.9321 61.9328L46.4121 58.1515C45.7133 57.1038 44.7667 56.2449 43.6563 55.6509C42.5459 55.0568 41.3061 54.7461 40.0467 54.7462H38.9428C38.1644 54.7873 37.3857 54.6695 36.6544 54.3999C35.923 54.1304 35.2541 53.7147 34.6886 53.1783C34.1231 52.6419 33.6727 51.9959 33.3649 51.2797C33.0572 50.5636 32.8984 49.7923 32.8984 49.0128C32.8984 48.2333 33.0572 47.462 33.3649 46.7459C33.6727 46.0297 34.1231 45.3838 34.6886 44.8473C35.2541 44.3109 35.923 43.8953 36.6544 43.6257C37.3857 43.3562 38.1644 43.2384 38.9428 43.2795H55.2921" stroke="white" stroke-width="1.5" stroke-linecap="round" stroke-linejoin="round"/>
<path d="M3.82829 56.6899C3.50807 58.4193 3.34297 60.1739 3.33496 61.9326" stroke="white" stroke-width="1.5" stroke-linecap="round" stroke-linejoin="round"/>
</g>
</g>
</g>
<defs>
<clipPath id="clip0_144_7392">
<rect width="64" height="64" fill="white" transform="translate(0.666992)"/>
</clipPath>
<clipPath id="clip1_144_7392">
<rect width="64" height="64" fill="white" transform="translate(0.666992 -0.675293)"/>
</clipPath>
</defs>
</svg>
