<svg width="64" height="65" viewBox="0 0 64 65" fill="none" xmlns="http://www.w3.org/2000/svg">
<g opacity="0.7">
<g clip-path="url(#clip0_182_5451)">
<path d="M44.3327 1.41699H6.99935C4.05383 1.41699 1.66602 3.80481 1.66602 6.75033V57.417C1.66602 60.3625 4.05383 62.7503 6.99935 62.7503H44.3327C47.2782 62.7503 49.666 60.3625 49.666 57.417V36.2932" stroke="white" stroke-width="1.5" stroke-linecap="round" stroke-linejoin="round"/>
<path d="M19.9258 58.9307H33.6401" stroke="white" stroke-width="1.5" stroke-linecap="round" stroke-linejoin="round"/>
<path d="M29.258 20.5308H11.6973V31.045H24.2294" stroke="white" stroke-width="1.5" stroke-linecap="round" stroke-linejoin="round"/>
<path d="M42.0562 36.9878H11.8848V53.4449H42.0562V36.9878Z" stroke="white" stroke-width="1.5" stroke-linecap="round" stroke-linejoin="round"/>
<path d="M18.666 9.41699C18.8638 9.41699 19.0571 9.47564 19.2216 9.58552C19.386 9.6954 19.5142 9.85158 19.5899 10.0343C19.6656 10.217 19.6854 10.4181 19.6468 10.6121C19.6082 10.8061 19.513 10.9842 19.3731 11.1241C19.2333 11.2639 19.0551 11.3592 18.8611 11.3978C18.6671 11.4364 18.4661 11.4166 18.2833 11.3409C18.1006 11.2652 17.9444 11.137 17.8345 10.9726C17.7247 10.8081 17.666 10.6148 17.666 10.417C17.666 10.1518 17.7714 9.89742 17.9589 9.70988C18.1464 9.52235 18.4008 9.41699 18.666 9.41699Z" fill="white"/>
<path d="M18.666 9.41699C18.8638 9.41699 19.0571 9.47564 19.2216 9.58552C19.386 9.6954 19.5142 9.85158 19.5899 10.0343C19.6656 10.217 19.6854 10.4181 19.6468 10.6121C19.6082 10.8061 19.513 10.9842 19.3731 11.1241C19.2333 11.2639 19.0551 11.3592 18.8611 11.3978C18.6671 11.4364 18.4661 11.4166 18.2833 11.3409C18.1006 11.2652 17.9444 11.137 17.8345 10.9726C17.7247 10.8081 17.666 10.6148 17.666 10.417C17.666 10.1518 17.7714 9.89742 17.9589 9.70988C18.1464 9.52235 18.4008 9.41699 18.666 9.41699" stroke="white" stroke-width="1.5" stroke-linecap="round" stroke-linejoin="round"/>
<path d="M26.666 9.41699C26.8638 9.41699 27.0571 9.47564 27.2216 9.58552C27.386 9.6954 27.5142 9.85158 27.5899 10.0343C27.6656 10.217 27.6854 10.4181 27.6468 10.6121C27.6082 10.8061 27.513 10.9842 27.3731 11.1241C27.2333 11.2639 27.0551 11.3592 26.8611 11.3978C26.6671 11.4364 26.4661 11.4166 26.2833 11.3409C26.1006 11.2652 25.9444 11.137 25.8345 10.9726C25.7247 10.8081 25.666 10.6148 25.666 10.417C25.666 10.1518 25.7714 9.89742 25.9589 9.70988C26.1464 9.52235 26.4008 9.41699 26.666 9.41699Z" fill="white"/>
<path d="M26.666 9.41699C26.8638 9.41699 27.0571 9.47564 27.2216 9.58552C27.386 9.6954 27.5142 9.85158 27.5899 10.0343C27.6656 10.217 27.6854 10.4181 27.6468 10.6121C27.6082 10.8061 27.513 10.9842 27.3731 11.1241C27.2333 11.2639 27.0551 11.3592 26.8611 11.3978C26.6671 11.4364 26.4661 11.4166 26.2833 11.3409C26.1006 11.2652 25.9444 11.137 25.8345 10.9726C25.7247 10.8081 25.666 10.6148 25.666 10.417C25.666 10.1518 25.7714 9.89742 25.9589 9.70988C26.1464 9.52235 26.4008 9.41699 26.666 9.41699" stroke="white" stroke-width="1.5" stroke-linecap="round" stroke-linejoin="round"/>
<path d="M34.666 9.41699C34.8638 9.41699 35.0571 9.47564 35.2216 9.58552C35.386 9.6954 35.5142 9.85158 35.5899 10.0343C35.6656 10.217 35.6854 10.4181 35.6468 10.6121C35.6082 10.8061 35.513 10.9842 35.3731 11.1241C35.2333 11.2639 35.0551 11.3592 34.8611 11.3978C34.6671 11.4364 34.4661 11.4166 34.2833 11.3409C34.1006 11.2652 33.9444 11.137 33.8345 10.9726C33.7247 10.8081 33.666 10.6148 33.666 10.417C33.666 10.1518 33.7714 9.89742 33.9589 9.70988C34.1464 9.52235 34.4008 9.41699 34.666 9.41699Z" fill="white"/>
<path d="M34.666 9.41699C34.8638 9.41699 35.0571 9.47564 35.2216 9.58552C35.386 9.6954 35.5142 9.85158 35.5899 10.0343C35.6656 10.217 35.6854 10.4181 35.6468 10.6121C35.6082 10.8061 35.513 10.9842 35.3731 11.1241C35.2333 11.2639 35.0551 11.3592 34.8611 11.3978C34.6671 11.4364 34.4661 11.4166 34.2833 11.3409C34.1006 11.2652 33.9444 11.137 33.8345 10.9726C33.7247 10.8081 33.666 10.6148 33.666 10.417C33.666 10.1518 33.7714 9.89742 33.9589 9.70988C34.1464 9.52235 34.4008 9.41699 34.666 9.41699" stroke="white" stroke-width="1.5" stroke-linecap="round" stroke-linejoin="round"/>
<path d="M59.3221 13.259L42.7908 29.7921L34.666 31.417L36.291 23.2923L52.8223 6.75924C53.682 5.8998 54.8479 5.41699 56.0635 5.41699C57.2792 5.41699 58.4451 5.8998 59.3048 6.75924L59.3221 6.77874C59.7481 7.20395 60.0861 7.709 60.3167 8.26497C60.5473 8.82095 60.666 9.41694 60.666 10.0188C60.666 10.6207 60.5473 11.2167 60.3167 11.7727C60.0861 12.3287 59.7481 12.8337 59.3221 13.259Z" stroke="white" stroke-width="1.5" stroke-linecap="round" stroke-linejoin="round"/>
</g>
</g>
<defs>
<clipPath id="clip0_182_5451">
<rect width="64" height="64" fill="white" transform="translate(0 0.416992)"/>
</clipPath>
</defs>
</svg>
