<svg width="64" height="65" viewBox="0 0 64 65" fill="none" xmlns="http://www.w3.org/2000/svg">
<g opacity="0.7">
<path d="M44 39.0864V63.0864" stroke="white" stroke-width="1.5" stroke-linecap="round" stroke-linejoin="round"/>
<path d="M1.33398 63.0838V15.0838C1.33398 13.6693 1.89589 12.3128 2.89608 11.3126C3.89628 10.3124 5.25283 9.75049 6.66732 9.75049H26.6673" stroke="white" stroke-width="1.5" stroke-linecap="round" stroke-linejoin="round"/>
<path d="M25.334 20.4194H1.33398" stroke="white" stroke-width="1.5" stroke-linecap="round" stroke-linejoin="round"/>
<path d="M21.334 51.0859C24.6477 51.0859 27.334 48.3996 27.334 45.0859C27.334 41.7722 24.6477 39.0859 21.334 39.0859C18.0203 39.0859 15.334 41.7722 15.334 45.0859C15.334 48.3996 18.0203 51.0859 21.334 51.0859Z" stroke="white" stroke-width="1.5" stroke-linecap="round" stroke-linejoin="round"/>
<path d="M33.334 63.0838C32.654 60.4173 31.1053 58.0532 28.9323 56.3648C26.7593 54.6763 24.0858 53.7598 21.334 53.7598C18.5821 53.7598 15.9087 54.6763 13.7357 56.3648C11.5627 58.0532 10.0139 60.4173 9.33398 63.0838" stroke="white" stroke-width="1.5" stroke-linecap="round" stroke-linejoin="round"/>
<path d="M18.666 15.0859H25.3327" stroke="white" stroke-width="1.5" stroke-linecap="round" stroke-linejoin="round"/>
<path d="M46.1719 34.2456C55.0084 34.2456 62.1719 27.0822 62.1719 18.2456C62.1719 9.40905 55.0084 2.24561 46.1719 2.24561C37.3353 2.24561 30.1719 9.40905 30.1719 18.2456C30.1719 27.0822 37.3353 34.2456 46.1719 34.2456Z" stroke="white" stroke-width="1.5" stroke-linecap="round" stroke-linejoin="round"/>
<path d="M53.3017 13.5947L45.5551 23.9227C45.3827 24.1516 45.1634 24.341 44.9117 24.4779C44.6601 24.6149 44.382 24.6964 44.0962 24.7169C43.8104 24.7373 43.5236 24.6963 43.255 24.5966C42.9864 24.4969 42.7422 24.3407 42.5391 24.1387L38.5391 20.1387" stroke="white" stroke-width="1.5" stroke-linecap="round" stroke-linejoin="round"/>
</g>
</svg>
