<svg width="64" height="65" viewBox="0 0 64 65" fill="none" xmlns="http://www.w3.org/2000/svg">
<g opacity="0.7">
<path fill-rule="evenodd" clip-rule="evenodd" d="M22.4501 49.0752C22.7994 49.2213 22.9642 49.623 22.8181 49.9724C22.2294 51.3803 21.2931 52.6158 20.0968 53.5632C18.9005 54.5107 17.4834 55.1391 15.9781 55.3896C15.6045 55.4518 15.2513 55.1994 15.1891 54.8258C15.1269 54.4522 15.3794 54.099 15.7529 54.0368C17.0293 53.8243 18.231 53.2915 19.2454 52.4881C20.2597 51.6847 21.0537 50.6371 21.5529 49.4433C21.699 49.0939 22.1007 48.9291 22.4501 49.0752Z" fill="white"/>
<path fill-rule="evenodd" clip-rule="evenodd" d="M5.77995 23.0879C5.84536 22.7149 6.20078 22.4655 6.5738 22.5309C9.36923 23.0211 12.0122 24.1553 14.2935 25.8436C16.5747 27.532 18.4317 29.7282 19.7173 32.2584C19.8889 32.596 19.7543 33.0088 19.4167 33.1803C19.079 33.3519 18.6663 33.2173 18.4947 32.8796C17.3055 30.5392 15.5878 28.5077 13.4776 26.946C11.3674 25.3843 8.9227 24.3352 6.33692 23.8817C5.9639 23.8163 5.71454 23.4609 5.77995 23.0879Z" fill="white"/>
<path fill-rule="evenodd" clip-rule="evenodd" d="M20.752 23.6962C20.9792 23.9991 20.9178 24.4289 20.6149 24.6562L15.8336 28.2428C15.5306 28.4701 15.1008 28.4087 14.8735 28.1058C14.6463 27.8028 14.7077 27.373 15.0106 27.1458L19.7919 23.5591C20.0949 23.3318 20.5247 23.3932 20.752 23.6962Z" fill="white"/>
<path fill-rule="evenodd" clip-rule="evenodd" d="M26.6792 1.52601C27.0578 1.53327 27.3589 1.8461 27.3516 2.22474C27.2989 4.9718 26.8029 7.69233 25.8828 10.2812C25.756 10.6381 25.3639 10.8245 25.007 10.6977C24.6502 10.5709 24.4637 10.1788 24.5906 9.82195C25.4613 7.37218 25.9306 4.79787 25.9804 2.19845C25.9877 1.81981 26.3005 1.51875 26.6792 1.52601Z" fill="white"/>
<path fill-rule="evenodd" clip-rule="evenodd" d="M24.0008 10.4359C22.9068 10.4359 22.0199 11.3228 22.0199 12.4168C22.0199 13.5109 22.9068 14.3978 24.0008 14.3978C25.0949 14.3978 25.9818 13.5109 25.9818 12.4168C25.9818 11.3228 25.0949 10.4359 24.0008 10.4359ZM20.6484 12.4168C20.6484 10.5654 22.1493 9.06445 24.0008 9.06445C25.8523 9.06445 27.3532 10.5654 27.3532 12.4168C27.3532 14.2683 25.8523 15.7692 24.0008 15.7692C22.1493 15.7692 20.6484 14.2683 20.6484 12.4168Z" fill="white"/>
<path d="M40.0007 20.4168C41.4734 20.4168 42.6673 19.2229 42.6673 17.7502C42.6673 16.2774 41.4734 15.0835 40.0007 15.0835C38.5279 15.0835 37.334 16.2774 37.334 17.7502C37.334 19.2229 38.5279 20.4168 40.0007 20.4168Z" stroke="white" stroke-width="1.06667" stroke-linecap="round" stroke-linejoin="round"/>
<path fill-rule="evenodd" clip-rule="evenodd" d="M49.3328 26.4364C48.2388 26.4364 47.3519 27.3233 47.3519 28.4173C47.3519 29.5114 48.2388 30.3983 49.3328 30.3983C50.4269 30.3983 51.3138 29.5114 51.3138 28.4173C51.3138 27.3233 50.4269 26.4364 49.3328 26.4364ZM45.9805 28.4173C45.9805 26.5659 47.4814 25.0649 49.3328 25.0649C51.1843 25.0649 52.6852 26.5659 52.6852 28.4173C52.6852 30.2688 51.1843 31.7697 49.3328 31.7697C47.4814 31.7697 45.9805 30.2688 45.9805 28.4173Z" fill="white"/>
<path fill-rule="evenodd" clip-rule="evenodd" d="M40.0008 35.7694C38.9068 35.7694 38.0199 36.6563 38.0199 37.7503C38.0199 38.8444 38.9068 39.7313 40.0008 39.7313C41.0949 39.7313 41.9818 38.8444 41.9818 37.7503C41.9818 36.6563 41.0949 35.7694 40.0008 35.7694ZM36.6484 37.7503C36.6484 35.8989 38.1494 34.3979 40.0008 34.3979C41.8523 34.3979 43.3532 35.8989 43.3532 37.7503C43.3532 39.6018 41.8523 41.1027 40.0008 41.1027C38.1494 41.1027 36.6484 39.6018 36.6484 37.7503Z" fill="white"/>
<path fill-rule="evenodd" clip-rule="evenodd" d="M22.6668 21.1029C21.5728 21.1029 20.6859 21.9898 20.6859 23.0838C20.6859 24.1779 21.5728 25.0648 22.6668 25.0648C23.7609 25.0648 24.6478 24.1779 24.6478 23.0838C24.6478 21.9898 23.7609 21.1029 22.6668 21.1029ZM19.3145 23.0838C19.3145 21.2324 20.8154 19.7314 22.6668 19.7314C24.5183 19.7314 26.0192 21.2324 26.0192 23.0838C26.0192 24.9353 24.5183 26.4362 22.6668 26.4362C20.8154 26.4362 19.3145 24.9353 19.3145 23.0838Z" fill="white"/>
<path fill-rule="evenodd" clip-rule="evenodd" d="M20.0008 33.1029C18.9068 33.1029 18.0199 33.9898 18.0199 35.0838C18.0199 36.1779 18.9068 37.0648 20.0008 37.0648C21.0949 37.0648 21.9818 36.1779 21.9818 35.0838C21.9818 33.9898 21.0949 33.1029 20.0008 33.1029ZM16.6484 35.0838C16.6484 33.2324 18.1493 31.7314 20.0008 31.7314C21.8523 31.7314 23.3532 33.2324 23.3532 35.0838C23.3532 36.9353 21.8523 38.4362 20.0008 38.4362C18.1493 38.4362 16.6484 36.9353 16.6484 35.0838Z" fill="white"/>
<path d="M62.6682 32.4172C62.6734 30.5719 62.2052 28.7562 61.3084 27.1436C60.4115 25.531 59.1159 24.1754 57.5455 23.2065C57.7262 22.4191 57.8201 21.6143 57.8255 20.8065C57.8513 18.1328 56.8679 15.5477 55.0717 13.567C53.2754 11.5864 50.7984 10.3559 48.1348 10.1212C48.1621 9.04019 47.9744 7.96457 47.5826 6.95674C47.1909 5.9489 46.6028 5.02892 45.8526 4.25019C45.1024 3.47145 44.205 2.84948 43.2125 2.42037C42.2199 1.99126 41.1521 1.76356 40.0709 1.75049C38.3746 1.8476 36.7344 2.39226 35.317 3.32906C33.8996 4.26587 32.7557 5.56138 32.0015 7.08382C31.2474 5.56138 30.1034 4.26587 28.686 3.32906C27.2686 2.39226 25.6284 1.8476 23.9322 1.75049C22.851 1.76356 21.7831 1.99126 20.7906 2.42037C19.798 2.84948 18.9006 3.47145 18.1504 4.25019C17.4002 5.02892 16.8122 5.9489 16.4204 6.95674C16.0286 7.96457 15.8409 9.04019 15.8682 10.1212C13.2037 10.356 10.7259 11.5872 8.92954 13.569C7.13316 15.5508 6.1504 18.1372 6.17751 20.8118C6.17853 21.6192 6.26795 22.424 6.44418 23.2118C4.87762 24.1848 3.58511 25.5413 2.68887 27.153C1.79262 28.7647 1.32227 30.5784 1.32227 32.4225C1.32227 34.2666 1.79262 36.0803 2.68887 37.692C3.58511 39.3037 4.87762 40.6602 6.44418 41.6332C6.26795 42.421 6.17853 43.2258 6.17751 44.0332C6.1531 46.706 7.13707 49.2897 8.93319 51.2692C10.7293 53.2487 13.2056 54.4784 15.8682 54.7132C15.8409 55.7941 16.0286 56.8697 16.4204 57.8776C16.8122 58.8854 17.4002 59.8054 18.1504 60.5841C18.9006 61.3629 19.798 61.9848 20.7906 62.4139C21.7831 62.843 22.851 63.0707 23.9322 63.0838C25.5008 63.1219 27.0551 62.7776 28.461 62.0807C29.8668 61.3838 31.082 60.3552 32.0015 59.0838C32.921 60.3552 34.1362 61.3838 35.542 62.0807C36.9479 62.7776 38.5022 63.1219 40.0709 63.0838C41.1521 63.0707 42.2199 62.843 43.2125 62.4139C44.205 61.9848 45.1024 61.3629 45.8526 60.5841C46.6028 59.8054 47.1909 58.8854 47.5826 57.8776C47.9744 56.8697 48.1621 55.7941 48.1348 54.7132C50.7993 54.4783 53.2771 53.2471 55.0735 51.2653C56.8699 49.2836 57.8526 46.6971 57.8255 44.0225C57.8201 43.2147 57.7262 42.4099 57.5455 41.6225C59.1151 40.654 60.4102 39.2993 61.3071 37.6877C62.2039 36.0761 62.6725 34.2615 62.6682 32.4172Z" stroke="white" stroke-width="1.5" stroke-linecap="round" stroke-linejoin="round"/>
<path fill-rule="evenodd" clip-rule="evenodd" d="M32.0002 6.39795C32.3789 6.39795 32.6859 6.70495 32.6859 7.08366V37.7503C32.6859 38.129 32.3789 38.436 32.0002 38.436C31.6215 38.436 31.3145 38.129 31.3145 37.7503V7.08366C31.3145 6.70495 31.6215 6.39795 32.0002 6.39795Z" fill="white"/>
<path fill-rule="evenodd" clip-rule="evenodd" d="M32.0002 47.6191C32.3789 47.6191 32.6859 47.9261 32.6859 48.3049V59.0835C32.6859 59.4622 32.3789 59.7692 32.0002 59.7692C31.6215 59.7692 31.3145 59.4622 31.3145 59.0835V48.3049C31.3145 47.9261 31.6215 47.6191 32.0002 47.6191Z" fill="white"/>
<path fill-rule="evenodd" clip-rule="evenodd" d="M57.0737 15.2115C57.2432 15.5501 57.1061 15.9621 56.7675 16.1316L49.3729 19.8329C49.3728 19.8329 49.3728 19.8329 49.3728 19.8329C48.2135 20.4133 46.9372 20.7217 45.6408 20.7348C44.3444 20.7479 43.0621 20.4652 41.8913 19.9083C41.5493 19.7456 41.404 19.3365 41.5667 18.9945C41.7293 18.6525 42.1384 18.5071 42.4804 18.6698C43.4629 19.1372 44.539 19.3744 45.627 19.3635C46.7149 19.3525 47.786 19.0936 48.7589 18.6066L48.7589 18.6065L56.1536 14.9052C56.4923 14.7357 56.9042 14.8728 57.0737 15.2115Z" fill="white"/>
<path fill-rule="evenodd" clip-rule="evenodd" d="M47.3338 28.257C47.4221 28.6253 47.1951 28.9954 46.8268 29.0837C45.3317 29.442 43.9648 30.207 42.8777 31.2942C41.7905 32.3813 41.0255 33.7482 40.6672 35.2433C40.5789 35.6116 40.2088 35.8386 39.8405 35.7503C39.4722 35.6621 39.2452 35.292 39.3335 34.9237C39.7508 33.1824 40.6418 31.5906 41.9079 30.3244C43.1741 29.0583 44.7659 28.1673 46.5072 27.75C46.8755 27.6617 47.2456 27.8887 47.3338 28.257Z" fill="white"/>
<path fill-rule="evenodd" clip-rule="evenodd" d="M43.328 49.6155C43.4024 49.2442 43.7638 49.0035 44.1351 49.078C46.6771 49.5876 48.0413 51.9073 48.7927 54.5237C48.8972 54.8877 48.6869 55.2675 48.3229 55.372C47.9589 55.4766 47.5791 55.2663 47.4746 54.9023C46.754 52.3933 45.6062 50.7716 43.8655 50.4226C43.4942 50.3482 43.2535 49.9868 43.328 49.6155Z" fill="white"/>
<path fill-rule="evenodd" clip-rule="evenodd" d="M22.6668 45.1029C21.5728 45.1029 20.6859 45.9898 20.6859 47.0838C20.6859 48.1779 21.5728 49.0648 22.6668 49.0648C23.7609 49.0648 24.6478 48.1779 24.6478 47.0838C24.6478 45.9898 23.7609 45.1029 22.6668 45.1029ZM19.3145 47.0838C19.3145 45.2324 20.8154 43.7314 22.6668 43.7314C24.5183 43.7314 26.0192 45.2324 26.0192 47.0838C26.0192 48.9353 24.5183 50.4362 22.6668 50.4362C20.8154 50.4362 19.3145 48.9353 19.3145 47.0838Z" fill="white"/>
<path fill-rule="evenodd" clip-rule="evenodd" d="M41.3328 47.7694C40.2388 47.7694 39.3519 48.6563 39.3519 49.7503C39.3519 50.8444 40.2388 51.7313 41.3328 51.7313C42.4269 51.7313 43.3138 50.8444 43.3138 49.7503C43.3138 48.6563 42.4269 47.7694 41.3328 47.7694ZM37.9805 49.7503C37.9805 47.8989 39.4814 46.3979 41.3328 46.3979C43.1843 46.3979 44.6852 47.8989 44.6852 49.7503C44.6852 51.6018 43.1843 53.1027 41.3328 53.1027C39.4814 53.1027 37.9805 51.6018 37.9805 49.7503Z" fill="white"/>
</g>
</svg>
