<svg width="64" height="65" viewBox="0 0 64 65" fill="none" xmlns="http://www.w3.org/2000/svg">
<g opacity="0.7">
<g clip-path="url(#clip0_182_5436)">
<g clip-path="url(#clip1_182_5436)">
<path d="M32 25.0161V33.0161" stroke="white" stroke-width="1.5" stroke-linecap="round" stroke-linejoin="round"/>
<path d="M32 1.13379V3.68312" stroke="white" stroke-width="1.5" stroke-linecap="round" stroke-linejoin="round"/>
<path d="M32 11.6831V17.0164" stroke="white" stroke-width="1.5" stroke-linecap="round" stroke-linejoin="round"/>
<path d="M23.761 24.7577C23.9918 24.9308 24.2725 25.0244 24.561 25.0244H42.665V17.0244H24.5503C24.2618 17.0244 23.9811 17.118 23.7503 17.2911L20.1183 19.9577C19.9497 20.0816 19.8125 20.2434 19.718 20.4301C19.6235 20.6168 19.5742 20.8232 19.5742 21.0324C19.5742 21.2417 19.6235 21.448 19.718 21.6347C19.8125 21.8214 19.9497 21.9832 20.1183 22.1071L23.761 24.7577Z" stroke="white" stroke-width="1.5" stroke-linecap="round" stroke-linejoin="round"/>
<path d="M41.572 11.4243C41.3412 11.5973 41.0605 11.6909 40.772 11.6909H22.668V3.69092H40.7826C41.0711 3.69092 41.3518 3.78449 41.5826 3.95758L45.2146 6.62425C45.3833 6.74812 45.5204 6.90994 45.615 7.09664C45.7095 7.28333 45.7587 7.48966 45.7587 7.69892C45.7587 7.90818 45.7095 8.1145 45.615 8.3012C45.5204 8.48789 45.3833 8.64972 45.2146 8.77359L41.572 11.4243Z" stroke="white" stroke-width="1.5" stroke-linecap="round" stroke-linejoin="round"/>
<path d="M61.3358 62.35C61.3123 55.0503 58.568 48.0216 53.639 42.6374C48.7099 37.2531 41.9505 33.9001 34.6813 33.2335C27.4121 32.5669 20.1555 34.6346 14.3294 39.0326C8.50336 43.4307 4.52646 49.843 3.17578 57.0166H18.6424C20.672 57.0172 22.6183 57.8239 24.0531 59.2593L26.9144 62.118C26.9864 62.19 27.0371 62.2753 27.1064 62.35" stroke="white" stroke-width="1.5" stroke-linecap="round" stroke-linejoin="round"/>
<path d="M48.2661 62.3498L45.7461 58.5685C45.0473 57.5208 44.1007 56.6619 42.9903 56.0678C41.8799 55.4738 40.64 55.163 39.3807 55.1631H38.2767C37.4983 55.2043 36.7197 55.0865 35.9883 54.8169C35.257 54.5474 34.5881 54.1317 34.0226 53.5953C33.4571 53.0589 33.0067 52.4129 32.6989 51.6967C32.3911 50.9806 32.2324 50.2093 32.2324 49.4298C32.2324 48.6503 32.3911 47.879 32.6989 47.1629C33.0067 46.4467 33.4571 45.8008 34.0226 45.2643C34.5881 44.7279 35.257 44.3122 35.9883 44.0427C36.7197 43.7731 37.4983 43.6553 38.2767 43.6965H54.6261" stroke="white" stroke-width="1.5" stroke-linecap="round" stroke-linejoin="round"/>
<path d="M3.1613 57.1069C2.84108 58.8363 2.67598 60.5908 2.66797 62.3496" stroke="white" stroke-width="1.5" stroke-linecap="round" stroke-linejoin="round"/>
</g>
</g>
</g>
<defs>
<clipPath id="clip0_182_5436">
<rect width="64" height="64" fill="white" transform="translate(0 0.416992)"/>
</clipPath>
<clipPath id="clip1_182_5436">
<rect width="64" height="64" fill="white" transform="translate(0 -0.258301)"/>
</clipPath>
</defs>
</svg>
