<svg width="64" height="65" viewBox="0 0 64 65" fill="none" xmlns="http://www.w3.org/2000/svg">
<g opacity="0.7">
<path d="M25.332 31.0838L38.6654 17.7505" stroke="white" stroke-width="1.5" stroke-linecap="round" stroke-linejoin="round"/>
<path d="M39.4493 8.96916C38.9492 9.46914 38.6681 10.1473 38.668 10.8545V17.7505H45.564C46.2712 17.7503 46.9493 17.4693 47.4493 16.9692L54.668 9.75049H46.668V1.75049L39.4493 8.96916Z" stroke="white" stroke-width="1.5" stroke-linecap="round" stroke-linejoin="round"/>
<path d="M25.3338 44.4172C22.8696 44.4165 20.4538 43.733 18.3546 42.4425C16.2553 41.152 14.5548 39.305 13.4417 37.1066C12.3286 34.9081 11.8465 32.4442 12.049 29.9884C12.2514 27.5325 13.1305 25.1808 14.5886 23.1943C16.0467 21.2078 18.0267 19.6643 20.309 18.735C22.5912 17.8057 25.0863 17.527 27.5173 17.9299" stroke="white" stroke-width="1.5" stroke-linecap="round" stroke-linejoin="round"/>
<path d="M25.3337 55.0835C21.8441 55.0812 18.3971 54.3179 15.2327 52.847C12.0683 51.376 9.26279 49.2326 7.01161 46.5663C4.76043 43.9 3.11777 40.7749 2.1981 37.4087C1.27843 34.0425 1.10388 30.5162 1.68662 27.0757C2.26935 23.6351 3.59535 20.363 5.5722 17.4874C7.54905 14.6118 10.1292 12.2019 13.1328 10.4256C16.1364 8.64927 19.4913 7.54933 22.9636 7.2024C26.4358 6.85548 29.942 7.26991 33.2377 8.41683" stroke="white" stroke-width="1.5" stroke-linecap="round" stroke-linejoin="round"/>
<path d="M46.668 63.0835C55.5045 63.0835 62.668 55.9201 62.668 47.0835C62.668 38.2469 55.5045 31.0835 46.668 31.0835C37.8314 31.0835 30.668 38.2469 30.668 47.0835C30.668 55.9201 37.8314 63.0835 46.668 63.0835Z" stroke="white" stroke-width="1.5" stroke-linecap="round" stroke-linejoin="round"/>
<path d="M53.7998 42.4331L46.0531 52.7611C45.8808 52.99 45.6614 53.1793 45.4098 53.3163C45.1581 53.4533 44.88 53.5348 44.5943 53.5552C44.3085 53.5757 44.0216 53.5347 43.753 53.435C43.4844 53.3352 43.2403 53.1791 43.0371 52.9771L39.0371 48.9771" stroke="white" stroke-width="1.5" stroke-linecap="round" stroke-linejoin="round"/>
</g>
</svg>
