<svg width="82" height="25" viewBox="0 0 82 25" fill="none" xmlns="http://www.w3.org/2000/svg">
<g clip-path="url(#clip0_1201_2586)">
<mask id="mask0_1201_2586" style="mask-type:luminance" maskUnits="userSpaceOnUse" x="-4" y="-3" width="89" height="31">
<path d="M84.7741 -2.83276H-3.0791V27.5526H84.7741V-2.83276Z" fill="white"/>
</mask>
<g mask="url(#mask0_1201_2586)">
<path fill-rule="evenodd" clip-rule="evenodd" d="M10.1303 0.352079C8.58966 0.629356 7.04146 1.2669 5.72663 2.10879C4.46227 2.91836 3.28751 4.07159 2.4446 5.31402C-3.45537 14.0105 4.12693 25.954 14.534 24.1144C16.2703 23.8075 17.9294 23.1881 19.3781 22.1713C20.699 21.2441 21.7894 20.1044 22.6611 18.7452C26.0259 13.4978 24.6202 6.09906 19.5983 2.43567C16.9404 0.496805 13.3628 -0.22969 10.1303 0.352079ZM6.60741 3.63173C8.02198 2.67649 9.55109 2.15007 11.2313 1.88775C12.2778 1.72437 13.2793 1.84778 14.3138 2.02979C23.2551 3.60278 25.9865 16.1368 18.057 20.9631C16.9152 21.6582 15.6403 22.2162 14.3138 22.4232C11.0442 22.9333 7.76263 22.0713 5.28955 19.8078C1.6882 16.5119 1.00291 10.7171 3.64546 6.63512C4.41667 5.44384 5.43322 4.42464 6.60741 3.63173ZM3.52493 13.0765C3.37549 13.1351 3.22839 13.1929 3.08454 13.2406C3.08454 10.8312 3.35103 8.65678 4.79946 6.63512C7.92834 2.26796 14.6657 1.58286 18.6979 5.05154C20.6019 6.68949 21.5234 8.82278 21.8596 11.259C21.988 12.1894 22.1271 13.461 21.3598 14.1214C21.8561 16.7026 19.3158 19.441 17.1763 20.5067C16.6577 19.7622 16.0693 19.0492 15.3774 18.4545C15.2203 18.3195 15.0428 18.1951 14.8632 18.0692C14.4286 17.7647 13.9824 17.4519 13.7864 16.9608C13.5954 16.4823 13.7788 15.9663 13.9546 15.4718C14.1525 14.9153 14.3407 14.3861 13.9743 13.9683C13.4558 13.377 12.7087 13.2383 11.9621 13.0997C11.4 12.9954 10.8381 12.8911 10.3746 12.5937C9.51896 12.0448 9.38366 10.9859 9.26445 10.0531C9.25952 10.0144 9.25461 9.97601 9.24968 9.93788C8.81748 10.2951 8.4882 10.8321 8.15973 11.3678C7.75433 12.0289 7.35016 12.6881 6.75529 13.0046C6.33932 13.226 5.9399 13.0846 5.53655 12.9419C5.30886 12.8613 5.07991 12.7802 4.84601 12.7637C4.40133 12.7324 3.95356 12.9082 3.52493 13.0765ZM10.3084 9.44266C9.96541 9.58221 9.62254 9.72172 9.24968 9.71769C9.35191 9.65802 9.45861 9.59283 9.56888 9.52547C10.142 9.17527 10.8115 8.76621 11.4515 8.76934C12.0098 8.77207 12.5525 9.09162 13.0855 9.40543C13.425 9.60533 13.7606 9.8029 14.0937 9.91478C14.4092 10.0207 14.7388 10.0581 15.0671 10.0954C15.4104 10.1343 15.7523 10.1732 16.0754 10.2899C16.517 10.4495 16.8933 10.7432 17.2668 11.0348C17.4548 11.1816 17.6422 11.3279 17.8368 11.4562C18.1672 11.674 18.4969 11.8692 18.8204 12.0608C19.7674 12.6216 20.6614 13.1508 21.3598 14.1214C20.6944 13.7107 20.0314 13.2469 19.364 12.7799C18.2203 11.9798 17.0629 11.17 15.8552 10.6011C15.483 10.4258 15.0797 10.3874 14.6748 10.3489C14.3294 10.316 13.9827 10.2829 13.6533 10.1647C13.3636 10.0607 13.085 9.89338 12.8051 9.72529C12.3725 9.46558 11.9368 9.20392 11.4515 9.17062C11.0455 9.14277 10.6769 9.29274 10.3084 9.44266Z" fill="white"/>
<path d="M78.8565 14.3414V16.9468L80.062 14.3414H81.6898L80.1886 17.4394L81.6898 21.1671H79.9081L78.8565 18.2189V21.1671H77.2861V14.3414H78.8565Z" fill="white"/>
<path d="M75.7458 14.3414H73.9844V21.1671H75.7458V14.3414Z" fill="white"/>
<path d="M73.1033 14.3414V15.7686H71.5533V21.1671H69.884V15.7885H68.4795V14.3414H73.1033Z" fill="white"/>
<path d="M64.807 14.3414C62.76 14.3414 62.5352 16.0053 62.5352 16.0053V21.1671H64.1934V18.8495H65.8205V21.1671H67.3792V15.7582C67.3792 15.7582 66.8558 14.3414 64.807 14.3414ZM65.8205 17.5904H64.2008V16.3832C64.2008 16.3832 64.1898 15.7582 65.0098 15.7582C65.8295 15.7582 65.8205 16.3922 65.8205 16.3922V17.5904Z" fill="white"/>
<path d="M29.6764 5.31396C27.5375 5.31396 27.3037 7.08442 27.3037 7.08442V12.58H29.039V10.113H30.7388V12.58H32.3679V6.82649C32.3679 6.82649 31.819 5.31396 29.6764 5.31396ZM30.7388 8.77241H29.0425V7.48799C29.0425 7.48799 29.0302 6.82649 29.8871 6.82649C30.7443 6.82649 30.7388 7.49675 30.7388 7.49675V8.77241Z" fill="white"/>
<path d="M51.3762 5.31396C49.3265 5.31396 49.1025 7.08442 49.1025 7.08442V12.58H50.7654V10.113H52.3857V12.58H53.9466V6.82649C53.9466 6.82649 53.4256 5.31396 51.3762 5.31396ZM52.3857 8.77241H50.7654V7.48799C50.7654 7.48799 50.7535 6.82121 51.5745 6.82121C52.3958 6.82121 52.3857 7.49675 52.3857 7.49675V8.77241Z" fill="white"/>
<path d="M33.25 5.31396H35.0546V11.0835H37.6537V12.58H33.25V5.31396Z" fill="white"/>
<path d="M38.3135 5.31396H40.119V11.0835H42.7171V12.58H38.3135V5.31396Z" fill="white"/>
<path d="M29.5066 14.3414H27.7451V21.1671H29.5066V14.3414Z" fill="white"/>
<path d="M30.6074 21.1671H32.3207V17.5734L34.1638 21.1671H35.8918V14.3414H34.1731V17.8375L32.3792 14.3414H30.6074V21.1671Z" fill="white"/>
<path d="M36.9932 14.3414V21.1671H38.909V18.4669H41.1767V17.1665H38.8676V15.7467H41.1767V14.3414H36.9932Z" fill="white"/>
<path d="M52.8455 16.3092V15.582C52.8455 15.582 52.816 14.3621 51.2234 14.3478C49.6309 14.3335 48.2217 14.3478 48.2217 14.3478V21.1671H50.0307V18.4337H50.9361C51.0416 18.463 51.134 18.5295 51.1972 18.6217C51.2604 18.7139 51.2906 18.8261 51.2822 18.9388V21.1671H52.8402V18.8206C52.8402 18.8206 52.6394 17.9142 52.1374 17.8999C52.1427 17.8999 52.8455 17.4682 52.8455 16.3092ZM51.2875 16.6818C51.2466 16.8385 51.1563 16.9765 51.0308 17.0739C50.9053 17.1713 50.7518 17.2224 50.595 17.2192H49.9545V15.822C49.9545 15.822 50.2696 15.8077 50.73 15.822C51.1906 15.8364 51.2893 16.1194 51.3031 16.5206C51.3073 16.5746 51.3038 16.6289 51.2928 16.6818H51.2875Z" fill="white"/>
<path d="M55.0479 5.31396V10.8747C55.3546 13.1452 59.5768 13.1452 59.8919 10.8941V5.31396H58.3636V10.1103C58.3636 10.1103 58.4345 11.0597 57.5819 11.0597C57.3499 11.0638 57.1244 10.9781 56.9491 10.8191C56.7737 10.6602 56.6607 10.4391 56.6316 10.1984V5.31396H55.0479Z" fill="white"/>
<path d="M51.0838 3.55249H49.7627V4.65341H51.0838V3.55249Z" fill="white"/>
<path d="M53.2869 3.55249H51.9658V4.65341H53.2869V3.55249Z" fill="white"/>
<path d="M45.6628 8.43412V9.81725H46.4903V10.3498C46.4815 10.8027 46.2234 11.2246 45.6701 11.2142C45.5338 11.21 45.3999 11.1793 45.276 11.1238C45.1522 11.0684 45.0408 10.9893 44.9488 10.8912C44.8565 10.7932 44.7852 10.6781 44.7392 10.5528C44.6929 10.4274 44.6729 10.2943 44.6799 10.1613C44.6799 9.80168 44.6799 7.56794 44.6799 7.56794C44.6799 7.56794 44.694 6.6568 45.61 6.6568C46.5257 6.6568 46.4938 7.46076 46.4938 7.46076H48.2176C48.2176 7.46076 48.4528 5.09387 45.7974 5.09387C43.9445 5.11807 42.981 6.0171 42.9385 7.40542V9.90024C42.9367 10.2531 43.0065 10.6028 43.1437 10.9291C43.2811 11.2554 43.4835 11.5518 43.7389 11.8011C43.9943 12.0504 44.2977 12.2476 44.6317 12.3813C44.9655 12.515 45.3233 12.5826 45.6842 12.58C48.1769 12.58 48.1593 11.2229 48.1593 11.2229V8.42721L45.6628 8.43412Z" fill="white"/>
<path d="M44.8458 14.3414C43.2847 14.3612 42.3163 15.0848 42.2784 16.3167V19.1717C42.2756 19.4376 42.3332 19.7009 42.4471 19.9436C42.5611 20.1862 42.7291 20.4024 42.9392 20.5777C43.8717 21.3948 46.0387 21.3913 46.7561 20.3857C46.9998 20.0699 47.1284 19.6873 47.1222 19.2956V15.9162C47.1222 15.9162 47.0806 14.3414 44.8458 14.3414ZM45.6008 19.3693C45.6008 19.4983 45.5468 19.6221 45.451 19.7135C45.355 19.8046 45.2249 19.8559 45.0893 19.8559H44.2946C44.2273 19.8561 44.1606 19.8438 44.0982 19.8194C44.0359 19.7949 43.9793 19.7593 43.9316 19.7139C43.884 19.6688 43.8461 19.615 43.8201 19.5558C43.7944 19.4968 43.7812 19.4334 43.7812 19.3693V15.9575C43.7812 15.828 43.8351 15.7038 43.9316 15.6122C44.0278 15.5206 44.1583 15.4691 44.2946 15.4691H45.0893C45.1567 15.4691 45.2232 15.4817 45.2855 15.5063C45.3476 15.5309 45.4041 15.5669 45.4517 15.6123C45.4993 15.6576 45.5367 15.7115 45.5625 15.7708C45.588 15.83 45.601 15.8935 45.6008 15.9575V19.3693Z" fill="white"/>
<path d="M54.3857 14.3486V21.1671H55.8942V16.7898L57.3661 21.1081H58.4686L59.7463 16.8686V21.1081H61.4316V14.3414H59.1285L57.8089 18.0023L56.5191 14.345L54.3857 14.3486Z" fill="white"/>
</g>
</g>
<defs>
<clipPath id="clip0_1201_2586">
<rect width="81.2477" height="24" fill="white" transform="translate(0.444336 0.25)"/>
</clipPath>
</defs>
</svg>
