<svg width="236" height="29" viewBox="0 0 236 29" fill="none" xmlns="http://www.w3.org/2000/svg">
<path fill-rule="evenodd" clip-rule="evenodd" d="M127.512 6.43548C127.478 5.74731 127.598 5.25699 127.873 4.96452C128.106 4.70645 128.674 4.5 129.113 4.5C129.552 4.5 130.172 4.68065 130.481 4.8871C130.972 5.19677 131.075 5.48065 130.998 6.38387C130.946 7.33871 130.843 7.51935 130.042 7.90645C129.19 8.34516 129.087 8.34516 128.364 7.90645C127.744 7.51935 127.564 7.23548 127.512 6.43548ZM217.294 6.12581C217.268 5.50645 217.397 5.19677 217.862 4.8871C218.198 4.68065 218.792 4.5 219.179 4.5C219.592 4.5 220.134 4.62903 220.418 4.75806C220.702 4.8871 220.986 5.37742 221.064 5.79032C221.141 6.22903 221.064 6.79677 220.935 7.08065C220.806 7.36452 220.367 7.75161 219.953 7.95806C219.463 8.21613 219.076 8.24194 218.611 8.06129C218.249 7.93226 217.836 7.62258 217.655 7.39032C217.475 7.13226 217.32 6.59032 217.294 6.12581ZM33.3662 5.55806C32.8756 5.81613 32.8756 6.17742 32.9014 14.0484L32.9344 19.3252C32.9447 20.9747 34.3659 22.6829 35.9224 22.1367C36.0821 22.0806 36.1481 22.009 36.1808 21.9194C36.2582 21.7129 36.3099 18.0484 36.3099 13.7903C36.3099 7.26129 36.2582 5.99677 35.9225 5.66129C35.716 5.45484 35.1479 5.27419 34.6831 5.27419C34.2441 5.27419 33.6244 5.40323 33.3662 5.55806ZM38.3498 13.8161C38.3498 6.97742 38.3756 6.04839 38.7629 5.6871C38.9953 5.45484 39.5892 5.27419 40.0798 5.27419C40.5704 5.27419 41.1385 5.45484 41.3451 5.66129C41.6808 5.99677 41.7324 7.26129 41.7324 13.7903C41.7324 18.0484 41.6808 21.7129 41.6033 21.9194C41.5 22.2032 41.0869 22.3065 40.054 22.3065C39.0211 22.3065 38.608 22.2032 38.5047 21.9194C38.4272 21.7129 38.3756 18.0484 38.3498 13.8161ZM212.414 5.45484C212.13 5.55806 212.052 6.07419 212.104 7.88065C212.13 9.14516 212.104 10.3581 212.026 10.5645C211.923 10.9 211.794 10.9 211.174 10.4871C210.787 10.229 210.167 9.89355 209.754 9.7129C209.367 9.53226 208.618 9.40323 208.076 9.40323C207.559 9.40323 206.707 9.53226 206.216 9.6871C205.726 9.81613 204.899 10.3065 204.383 10.771C203.892 11.2355 203.221 12.1129 202.911 12.7581C202.498 13.6097 202.343 14.4097 202.343 15.8548C202.343 17.0161 202.498 18.1774 202.73 18.771C202.937 19.2871 203.505 20.1387 203.944 20.6548C204.409 21.171 205.209 21.7645 205.7 21.9968C206.242 22.229 207.223 22.3839 208.153 22.3839C209.005 22.3581 209.986 22.2032 210.348 21.9968C210.709 21.8161 211.148 21.5065 211.303 21.3516C211.484 21.171 211.742 21.0677 211.897 21.1452C212.026 21.2226 212.155 21.5065 212.155 21.7903C212.155 22.2548 212.336 22.3065 213.705 22.3065C214.841 22.3065 215.28 22.2032 215.383 21.9194C215.461 21.7129 215.512 18.0484 215.512 13.7903C215.512 7.26129 215.461 5.99677 215.125 5.66129C214.918 5.45484 214.299 5.27419 213.756 5.3C213.24 5.3 212.62 5.37742 212.414 5.45484ZM5.71121 6.61613C6.27928 6.46129 7.07975 6.28065 7.51872 6.22903C7.93187 6.20323 8.8098 6.20323 9.45535 6.25484C10.1009 6.30645 11.1854 6.56452 11.9084 6.84839C12.6056 7.10645 13.561 7.7 14 8.16452C14.4389 8.62903 14.9812 9.3 15.2394 9.66129C15.4718 10.0226 15.6525 10.4613 15.6525 10.6419C15.6525 10.8484 15.1361 10.9516 13.8967 10.9516C12.3474 10.9258 12.0892 10.8484 11.3145 10.1774C10.8755 9.73871 10.0492 9.32581 9.50699 9.24839C8.99056 9.14516 8.0868 9.14516 7.51872 9.22258C6.95065 9.32581 6.09853 9.7129 5.60792 10.1C5.14313 10.5129 4.52341 11.2355 4.26519 11.7258C3.92951 12.3452 3.77458 13.1452 3.77458 14.2548C3.77458 15.2355 3.95533 16.2161 4.21355 16.8097C4.47177 17.3258 5.06566 18.0484 5.53045 18.4097C5.99524 18.771 6.84736 19.2355 7.46708 19.3903C8.26755 19.6226 8.78398 19.6484 9.45535 19.4419C9.94596 19.2871 10.669 19.029 11.0563 18.8742C11.4178 18.6935 11.9859 18.229 12.2957 17.7903C12.5798 17.3516 12.8122 16.7839 12.7605 16.5C12.6891 16.0717 12.464 15.9725 8.78532 15.7775C8.21327 15.7472 7.75145 15.2927 7.71779 14.7208C7.67983 14.076 8.19252 13.5323 8.83844 13.5323H15.0078C15.7917 13.5323 16.4272 14.1677 16.4272 14.9516C16.4272 15.7258 16.3239 16.5774 16.1948 16.8355C16.1212 16.9678 15.9722 17.2593 15.7955 17.605L15.7954 17.6052L15.7954 17.6053L15.7953 17.6054C15.662 17.8664 15.5128 18.1581 15.3685 18.4355C15.0586 19.0806 14.4389 19.9323 14 20.3194C13.561 20.7065 12.5798 21.3258 11.8309 21.6613C10.7723 22.1774 10.0751 22.3065 8.55159 22.3065C7.4929 22.3065 6.15017 22.1516 5.5821 21.9968C5.16487 21.8641 4.80335 21.6479 4.64078 21.5424C4.57885 21.5023 4.51776 21.4613 4.45488 21.4226L4.25968 21.3026C4.22893 21.2837 4.19825 21.2656 4.16718 21.2472C3.99203 21.1435 3.35607 20.7527 2.87082 20.2677C2.30275 19.7258 1.55392 18.6935 1.19242 18.0226C0.62434 16.9387 0.546875 16.4226 0.546875 14.3065C0.546875 12.2935 0.650162 11.6484 1.11495 10.6935C1.42481 10.0484 2.01871 9.17097 2.40603 8.75806C2.79336 8.31935 3.46472 7.72581 3.90369 7.44194C4.31684 7.15806 5.14313 6.77097 5.71121 6.61613ZM170.582 6.20323C170.221 6.28065 169.575 6.4871 169.162 6.69355C168.723 6.9 168.078 7.36452 167.665 7.72581C167.277 8.0871 166.838 8.80968 166.683 9.35161C166.503 9.86774 166.451 10.7968 166.554 11.4161C166.632 12.0097 166.916 12.8097 167.2 13.2226C167.458 13.6097 168.181 14.1774 168.801 14.4613C169.421 14.771 170.737 15.2613 171.744 15.5968C172.726 15.9065 173.759 16.371 174.017 16.6032C174.301 16.8613 174.482 17.3774 174.456 17.9968C174.456 18.6935 174.301 19.0548 173.862 19.3387C173.552 19.5452 172.829 19.7258 172.261 19.7258C171.59 19.7258 171.021 19.5452 170.634 19.2097C170.324 18.9258 170.014 18.4613 169.937 18.1774C169.834 17.7387 169.601 17.6613 168.129 17.6613C167.247 17.6613 166.548 18.4583 166.822 19.2968C166.985 19.7952 167.161 20.1326 167.329 20.371C167.639 20.8097 168.465 21.4032 169.111 21.7387C170.014 22.1516 170.789 22.3065 172.183 22.3065C173.268 22.3065 174.456 22.1516 174.972 21.9452C175.463 21.7387 176.237 21.1968 176.676 20.7065C177.115 20.2419 177.632 19.3903 177.813 18.8226C178.097 17.971 178.097 17.5839 177.838 16.629C177.658 15.9839 177.374 15.3129 177.193 15.1065C177.038 14.9 176.47 14.4613 175.928 14.1516C175.411 13.8161 174.791 13.5323 174.585 13.5323C174.378 13.5323 173.991 13.429 173.733 13.3C173.5 13.171 172.7 12.8613 172.003 12.6032C171.28 12.3452 170.505 11.9323 170.247 11.6742C170.014 11.4161 169.808 10.9516 169.808 10.6419C169.808 10.3065 169.989 9.79032 170.195 9.48065C170.505 9.01613 170.841 8.8871 171.796 8.8871C172.881 8.8871 173.139 8.99032 173.862 9.79032C174.559 10.5387 174.895 10.6935 175.747 10.6935C176.315 10.6935 176.96 10.6419 177.167 10.5645C177.399 10.4871 177.554 10.1258 177.554 9.73871C177.554 9.32581 177.244 8.62903 176.909 8.19032C176.547 7.72581 175.798 7.10645 175.23 6.82258C174.662 6.53871 173.526 6.25484 172.7 6.20323C171.899 6.12581 170.944 6.15161 170.582 6.20323ZM89.1459 22.2885C87.4892 22.3109 86.1457 20.9633 86.1457 19.3065V14.3065V9.30645C86.1457 7.6496 87.4888 6.30645 89.1457 6.30645H89.6316C91.5424 6.30645 93.6598 6.43548 94.3311 6.61613C95.0283 6.79677 96.087 7.2871 96.7325 7.7C97.3781 8.13871 98.1527 8.78387 98.4626 9.14516C98.7725 9.50645 99.0565 9.94516 99.0565 10.1258C99.0565 10.2806 99.134 10.4355 99.2372 10.4355C99.3664 10.4355 99.5987 10.9 99.7537 11.4677C99.9344 12.0355 100.089 13.3516 100.089 14.3839C100.089 15.3903 99.9344 16.6548 99.7537 17.1452C99.5987 17.6613 99.2114 18.4097 98.9532 18.8226C98.6692 19.2613 98.2044 19.8032 97.9203 20.0871C97.6105 20.3452 96.9649 20.8097 96.4743 21.1194C95.9837 21.429 94.9509 21.8419 94.202 21.9968C93.6381 22.1377 92.21 22.2472 89.1459 22.2885ZM180.808 7.41613C180.73 7.85484 180.627 8.52581 180.601 8.8871C180.55 9.35161 180.343 9.55806 179.93 9.60968C179.551 9.64409 179.319 9.87634 179.233 10.3065C179.155 10.6677 179.155 11.2355 179.233 11.5968C179.319 12.0269 179.551 12.2677 179.93 12.3194C180.498 12.371 180.524 12.4742 180.653 15.9839C180.73 17.971 180.885 19.829 181.014 20.1129C181.144 20.3968 181.428 20.8355 181.66 21.0935C181.892 21.3774 182.486 21.7387 182.977 21.9452C183.467 22.1516 184.552 22.3065 185.352 22.3065H186.85C186.85 22.3065 186.85 22.3063 186.85 22.3061C186.85 20.56 186.85 19.9955 186.586 19.813C186.46 19.7258 186.273 19.7258 185.998 19.7258C185.559 19.7516 184.888 19.5194 184.526 19.2355C183.932 18.771 183.881 18.5645 183.777 16.0613C183.726 14.4355 183.803 13.171 183.984 12.8355C184.216 12.371 184.526 12.2161 185.482 12.1903L185.559 12.1855C186.212 12.1447 186.721 11.6028 186.721 10.9481C186.721 10.2963 186.215 9.7646 185.567 9.68649C184.582 9.5675 184.218 9.41174 184.061 9.19677C183.881 8.96452 183.752 8.26774 183.752 7.67419C183.752 7.06134 183.254 6.56141 182.642 6.5677C180.952 6.58505 180.917 6.69674 180.808 7.41613ZM20.3521 10.3065C20.5328 10.1516 21.0234 9.91935 21.4624 9.76452C21.8756 9.58387 22.7019 9.45484 23.2699 9.42903C23.838 9.42903 24.7159 9.55806 25.2066 9.73871C25.6972 9.89355 26.162 10.1258 26.2394 10.2032C26.3169 10.2806 26.6267 10.4871 26.9366 10.6677C27.4789 10.9258 27.5563 10.8742 27.6596 10.3065C27.7079 10.075 27.7489 9.92645 27.9323 9.83788C29.3667 9.14514 30.7711 11.037 30.7875 12.6298L30.8713 20.7572C30.8801 21.6102 30.1911 22.3065 29.338 22.3065C27.892 22.3065 27.7887 22.2548 27.6596 21.6613C27.5821 21.3 27.4789 21.0161 27.4014 21.0161C27.3239 21.0161 26.73 21.3258 26.0329 21.7129C25.1033 22.2548 24.4836 22.4097 23.399 22.3839C22.5727 22.3839 21.5657 22.1774 20.946 21.8935C20.4037 21.6355 19.5258 20.8613 19.0094 20.1903C18.4929 19.4935 17.9765 18.4097 17.7957 17.6097C17.615 16.8613 17.4601 16.0097 17.4601 15.7258C17.4601 15.4419 17.5892 14.7968 17.7699 14.3065C17.9248 13.8161 18.2089 13.0677 18.3896 12.629C18.5704 12.1903 19.0094 11.571 19.3709 11.2097C19.7324 10.8484 20.1713 10.4355 20.3521 10.3065ZM47.5939 9.81613C47.0775 10.0226 46.2512 10.4613 45.7864 10.7968C45.3474 11.1323 44.7019 11.9065 44.3662 12.4742C43.9014 13.3516 43.7981 13.9452 43.7981 15.9323C43.7981 17.4806 43.9273 18.5645 44.1597 19.0806C44.3662 19.5194 44.9859 20.2677 45.5282 20.7581C46.0705 21.2742 46.9226 21.8419 47.4132 22.0484C47.9038 22.2548 49.0658 22.4097 49.9953 22.3839C50.9249 22.3839 52.0869 22.1774 52.5775 21.971C53.0681 21.7645 53.9719 21.0419 54.5916 20.3452C55.1855 19.6484 55.7019 18.8742 55.6761 18.6419C55.6761 18.2548 55.4437 18.1774 54.1785 18.1774C52.9132 18.2032 52.5775 18.3065 51.8545 18.9516C51.1831 19.5968 50.7958 19.7258 49.7371 19.7258C48.5493 19.7258 48.3686 19.6484 47.6714 18.771C47.2324 18.229 46.8967 17.5839 46.8967 17.3516C46.8967 17.0935 47.0775 16.8355 47.2841 16.7581C47.4906 16.6806 49.5306 16.629 51.8029 16.629C55.4954 16.629 55.9601 16.5774 56.0893 16.1903C56.1925 15.9323 56.1409 15.0032 55.9602 14.1258C55.8052 13.2226 55.547 12.5 55.4179 12.5C55.263 12.5 55.1597 12.3194 55.1597 12.1129C55.1597 11.9065 54.7724 11.4419 54.3076 11.0806C53.996 10.8242 53.6455 10.5548 53.422 10.3831L53.4217 10.3828C53.3305 10.3127 53.2605 10.259 53.2231 10.229C53.0681 10.1258 52.5 9.89355 51.932 9.7129C51.3639 9.55806 50.3827 9.42903 49.7371 9.42903C49.0916 9.45484 48.1362 9.63548 47.5939 9.81613ZM62.1315 10.4355C62.493 10.2032 63.1127 9.86774 63.5259 9.73871C63.939 9.58387 64.4297 9.53226 64.6104 9.60968C64.7778 9.6724 64.8773 10.0231 64.8679 11.444C64.8633 12.138 64.3614 12.7253 63.6808 12.8613C63.0353 13.0161 62.2606 13.3774 61.9249 13.7129C61.3827 14.2806 61.3569 14.5129 61.3569 17.9194C61.3569 19.9065 61.3052 21.7129 61.2278 21.9194C61.1245 22.2032 60.7113 22.3065 59.6785 22.3065C58.6456 22.3065 58.2325 22.2032 58.1292 21.9194C58.0517 21.7129 58.0001 19.1323 58.0001 16.1903C58.0001 13.2226 58.1033 10.5645 58.2066 10.229C58.3616 9.6871 58.5165 9.63548 59.6785 9.7129C60.6855 9.76452 61.0212 9.91936 61.2278 10.3323C61.486 10.8742 61.5118 10.8742 62.1315 10.4355ZM105.383 9.76452C104.815 9.91935 103.911 10.4871 103.317 11.0806C102.749 11.6484 102.155 12.3452 102 12.629C101.845 12.9129 101.561 13.7387 101.406 14.4355C101.148 15.4677 101.148 16.0097 101.38 17.1452C101.561 17.9194 101.845 18.8484 102.026 19.2097C102.207 19.571 102.749 20.2419 103.214 20.7323C103.704 21.1968 104.505 21.7645 104.995 21.971C105.512 22.2032 106.7 22.3581 107.707 22.3839C109.179 22.3839 109.747 22.2548 110.676 21.7387C111.322 21.3774 112.174 20.629 112.587 20.0871C113.052 19.4419 113.258 18.9 113.155 18.6419C113.026 18.2806 112.69 18.1774 111.632 18.1774C110.47 18.1774 110.186 18.2806 109.566 18.9516C108.972 19.6226 108.688 19.7258 107.578 19.7258C106.493 19.7258 106.157 19.5968 105.512 18.9516C105.073 18.5129 104.737 17.8935 104.737 17.5323C104.737 17.171 104.918 16.8355 105.125 16.7581C105.331 16.6806 107.423 16.629 109.772 16.629H111.506C112.902 16.629 114.479 15.3458 113.801 14.1258C113.672 13.8677 113.439 13.3258 113.284 12.8871C113.129 12.4484 112.51 11.6484 111.916 11.0548C111.175 10.3667 110.392 9.91936 109.566 9.7129C108.895 9.53226 107.913 9.42903 107.371 9.42903C106.855 9.45484 105.951 9.60968 105.383 9.76452ZM116.409 10.8742C116.873 10.4097 117.674 9.91935 118.165 9.73871C118.655 9.58387 119.636 9.45484 120.359 9.45484C121.057 9.45484 122.012 9.58387 122.425 9.73871C122.864 9.91935 123.458 10.229 123.742 10.4355C124.026 10.6419 124.517 11.2097 124.826 11.6742C125.136 12.1129 125.395 12.7323 125.395 13.0161C125.395 13.4806 125.214 13.5323 123.845 13.5323C122.632 13.5323 122.296 13.4548 122.296 13.1452C122.296 12.9387 122.038 12.5774 121.702 12.371C121.392 12.1645 120.824 11.9839 120.411 11.9839C120.024 11.9839 119.481 12.1129 119.197 12.2419C118.853 12.414 118.681 12.7581 118.681 13.2742C118.681 13.7129 118.707 14.0484 118.733 14.0484C118.784 14.0484 119.456 14.2806 120.23 14.5645C121.005 14.8484 121.857 15.0806 122.089 15.0806C122.348 15.0806 122.993 15.3129 123.51 15.6226C124.052 15.9065 124.697 16.3968 124.93 16.7065C125.24 17.0935 125.395 17.7645 125.395 18.6935C125.42 19.829 125.291 20.2419 124.826 20.7839C124.491 21.1452 123.819 21.6613 123.329 21.9194C122.735 22.229 121.831 22.3839 120.747 22.4097C119.817 22.4097 118.655 22.2548 118.165 22.0742C117.674 21.8677 116.925 21.4032 116.538 21.0419C116.125 20.6806 115.634 20.0613 115.427 19.6742C115.221 19.2613 115.066 18.771 115.066 18.5645C115.066 18.2548 115.402 18.1774 116.538 18.1774C117.906 18.1774 118.087 18.229 118.603 18.9516C119.084 19.5919 119.26 19.7054 121.289 19.6331C121.779 19.6156 122.167 19.2102 122.167 18.7194C122.167 18.4081 122.167 18.2041 122.082 18.045C121.922 17.7426 121.455 17.6027 120.101 17.1968C118.965 16.8613 117.751 16.4484 117.416 16.2677C117.08 16.1129 116.538 15.7 116.176 15.3387C115.66 14.7968 115.557 14.4355 115.582 13.2226C115.582 11.8806 115.686 11.6226 116.409 10.8742ZM136.601 9.76452C136.188 9.91935 135.517 10.2548 135.129 10.5129C134.742 10.7452 134.148 11.3903 133.812 11.9323C133.477 12.4484 133.064 13.5323 132.909 14.3065C132.65 15.4161 132.65 16.0613 132.909 17.2742C133.064 18.1258 133.348 19.0548 133.503 19.3387C133.658 19.6226 134.122 20.2419 134.561 20.7065C134.974 21.171 135.672 21.7129 136.111 21.9194C136.524 22.1 137.298 22.3323 137.789 22.4097C138.28 22.4871 139.158 22.4355 139.726 22.3065C140.294 22.1774 141.068 21.8161 141.456 21.5323C141.869 21.2484 142.282 21.0677 142.437 21.1452C142.566 21.2226 142.695 21.5323 142.695 21.8677C142.695 22.1774 142.643 22.7968 142.566 23.2097C142.489 23.6484 142.127 24.3452 141.766 24.7581C141.249 25.3774 140.836 25.5581 139.906 25.6355C139.003 25.7129 138.46 25.6097 137.789 25.2226C137.298 24.9387 136.808 24.5 136.679 24.2677C136.55 23.9581 136.136 23.8548 135.078 23.8548C134.2 23.8548 133.606 23.9839 133.528 24.1903C133.451 24.3452 133.503 24.8097 133.658 25.2226C133.787 25.6097 134.226 26.2548 134.613 26.6935C135.026 27.1065 135.981 27.6742 136.756 27.9839C137.557 28.2677 138.796 28.5 139.596 28.5C140.371 28.5 141.481 28.3194 142.05 28.1387C142.618 27.9323 143.47 27.4677 143.909 27.1065C144.373 26.7452 144.942 26.0484 145.148 25.6097C145.355 25.1452 145.639 24.2419 145.768 23.5968C145.923 22.9516 146.052 19.829 146.052 16.629C146.052 13.429 146 10.5645 145.923 10.2548C145.82 9.73871 145.639 9.66129 144.425 9.66129C143.341 9.63548 143.005 9.73871 142.695 10.1774C142.473 10.5027 142.045 10.6126 141.69 10.4425C139.916 9.59228 139.138 9.40577 138.486 9.42903C137.892 9.45484 137.04 9.58387 136.601 9.76452ZM150.536 9.76475C151.339 9.98882 152.149 10.4209 152.895 10.0484C153.592 9.6871 154.599 9.40323 155.089 9.40323C155.58 9.40323 156.406 9.55806 156.897 9.73871C157.388 9.89355 158.136 10.3323 158.524 10.6935C158.937 11.0548 159.453 11.7516 159.686 12.2419C160.023 12.9402 160.113 13.8407 160.124 20.6244C160.125 21.4906 159.441 22.2048 158.575 22.2394C157.659 22.276 156.897 21.5434 156.897 20.6268V18.1258C156.897 14.3581 156.82 13.8419 156.381 13.2742C156.122 12.9129 155.503 12.5 155.038 12.3452C154.444 12.1387 153.953 12.1387 153.411 12.3194C152.972 12.4484 152.481 12.7065 152.301 12.8613C152.094 13.0161 151.784 13.4806 151.578 13.9194C151.318 14.4395 151.231 15.5229 151.218 20.762C151.216 21.6132 150.526 22.3065 149.675 22.3065C148.817 22.3065 148.125 21.6067 148.134 20.7492L148.233 11.0837C148.241 10.3552 148.811 9.75651 149.538 9.7129C149.969 9.69187 150.276 9.69227 150.536 9.76475ZM226.745 9.73871C226.073 9.94516 225.247 10.4871 224.421 11.3387C223.594 12.1645 223.026 13.0161 222.794 13.7387C222.639 14.3323 222.484 15.3645 222.484 16.0613C222.484 16.7323 222.665 17.7387 222.846 18.3065C223.052 18.8742 223.543 19.7516 223.956 20.2419C224.395 20.7323 225.299 21.429 225.996 21.7903C227.003 22.2806 227.623 22.4097 229.069 22.3839C230.411 22.3839 231.134 22.229 231.909 21.7903C232.477 21.4806 233.277 20.9129 233.665 20.5516C234.052 20.1645 234.594 19.3645 234.878 18.771C235.24 17.9968 235.395 17.1194 235.395 15.8548C235.395 14.8742 235.24 13.7387 235.085 13.3516C234.904 12.9387 234.698 12.5774 234.62 12.5C234.543 12.4226 234.362 12.1387 234.207 11.8548C234.052 11.571 233.484 11.0548 232.916 10.6935C232.374 10.3323 231.496 9.89355 231.005 9.7129C230.515 9.55806 229.585 9.42903 228.939 9.42903C228.294 9.45484 227.313 9.58387 226.745 9.73871ZM66.7794 11.5968C66.6761 11.4677 66.4954 10.9516 66.3921 10.5129C66.299 10.0743 66.6335 9.66129 67.0819 9.66129H67.7348C68.7935 9.66129 69.3616 9.79032 69.6973 10.1258C69.9555 10.3581 70.1362 10.7968 70.1362 11.0806C70.1362 11.3645 70.2137 11.7258 70.3428 11.8548C70.4461 11.9839 70.7043 12.5774 70.8851 13.1452C71.0658 13.7129 71.2982 14.4097 71.4015 14.6935C71.5178 14.9492 71.7178 15.4351 71.8885 15.8496L71.8891 15.8512L71.8892 15.8513L71.9438 15.9839C72.069 16.2878 72.2437 16.6659 72.4852 17.1699C72.6379 17.4885 73.0853 17.5035 73.2607 17.1968C73.4672 16.8097 73.7254 16.2677 73.8029 15.9839C73.8804 15.7 74.3193 14.4871 74.7841 13.2742C75.2489 12.0613 75.6879 10.8484 75.7654 10.5645C75.8428 10.2806 76.0236 9.97097 76.1785 9.86774C76.3334 9.76452 77.0823 9.66129 77.8053 9.66129C78.9931 9.66129 79.1738 9.73871 79.1738 10.1774C79.1738 10.4613 78.8898 11.3129 78.5541 12.0613C78.3368 12.5291 78.0437 13.2239 77.773 13.8659L77.7723 13.8677L77.7709 13.8709L77.7689 13.8757C77.6229 14.2219 77.4836 14.5521 77.3663 14.8226C77.117 15.3975 76.7965 16.1717 76.5423 16.7858L76.5399 16.7917C76.4527 17.0022 76.3735 17.1937 76.3076 17.3516C76.0236 17.9452 75.817 18.4871 75.817 18.5645C75.817 18.6205 75.6819 18.9466 75.4996 19.3865L75.499 19.3881C75.4294 19.5558 75.3531 19.7401 75.2747 19.9323C74.9649 20.6032 74.5517 21.5581 74.3452 22.0484C74.1653 22.4279 73.9235 23.0085 73.7276 23.4789L73.7272 23.4799L73.7269 23.4807C73.67 23.6173 73.617 23.7446 73.5705 23.8548C73.3639 24.3452 73.1057 24.9903 73.0024 25.2742C72.9276 25.4799 72.7171 25.9569 72.2332 26.9309C71.8253 27.7522 70.9757 28.2577 70.0588 28.2419C68.9226 28.2419 68.5869 28.1645 68.5869 27.8548C68.5869 27.6484 68.8452 26.9258 69.1292 26.2548C69.421 25.5986 69.8961 24.576 70.2309 23.8556L70.2315 23.8543L70.2912 23.7258C70.6269 23.029 70.9109 22.229 70.9109 21.9968C70.9109 21.7387 70.7301 21.0935 70.4977 20.5774C70.2654 20.0355 69.9813 19.3645 69.878 19.0806C69.8057 18.8819 69.6448 18.5061 69.484 18.1304L69.4837 18.1298C69.4149 17.969 69.346 17.8082 69.2841 17.6613C69.0776 17.171 68.4578 15.6484 67.9156 14.3065C67.3991 12.9645 66.8827 11.7516 66.7794 11.5968ZM127.873 9.99677C127.822 10.1774 127.77 12.9903 127.796 16.2677L127.835 20.7763C127.842 21.5541 128.471 22.1831 129.249 22.1901C130.042 22.1974 130.688 21.5567 130.688 20.7639V12.6208C130.688 11.0422 128.963 8.72536 127.921 9.91068C127.898 9.93664 127.883 9.96537 127.873 9.99677ZM188.503 14.3581C188.451 12.1645 188.451 10.2032 188.529 10.0226C188.542 9.98329 188.567 9.9477 188.611 9.91554C189.907 8.96827 191.498 10.972 191.498 12.5774C191.498 14.1774 191.653 16.1645 191.808 16.9903C192.04 18.0742 192.35 18.6935 192.841 19.1323C193.254 19.4677 193.899 19.7258 194.338 19.7258C194.752 19.7258 195.371 19.5968 195.681 19.4419C196.017 19.2871 196.482 18.9258 196.714 18.6161C197.101 18.1516 197.153 17.4806 197.179 14.4613C197.179 12.4484 197.23 10.5645 197.308 10.2548C197.411 9.73871 197.592 9.66129 198.857 9.66129C200.122 9.66129 200.277 9.73871 200.406 10.2548C200.479 10.5462 200.507 13.0762 200.423 20.7032C200.414 21.5417 199.747 22.226 198.909 22.2548C198.108 22.2806 197.437 22.229 197.437 22.1258C197.437 22.0226 197.334 21.7903 197.23 21.6097C197.101 21.3516 196.791 21.4032 195.939 21.8161C195.268 22.1258 194.313 22.3323 193.435 22.3323C192.66 22.3323 191.679 22.1774 191.291 21.9968C190.904 21.8419 190.207 21.2742 189.768 20.7839C189.303 20.2677 188.864 19.5194 188.761 19.1065C188.658 18.6677 188.554 16.5258 188.503 14.3581ZM217.733 10.2548C217.655 10.5645 217.578 13.2484 217.578 16.1903C217.578 19.1323 217.63 21.7129 217.707 21.9452C217.784 22.2032 218.223 22.3065 219.256 22.3065C220.289 22.3065 220.702 22.2032 220.806 21.9194C220.883 21.7129 220.935 19.1323 220.935 16.1903C220.935 13.2484 220.857 10.5645 220.806 10.2548C220.676 9.73871 220.522 9.66129 219.282 9.66129C218.043 9.66129 217.862 9.73871 217.733 10.2548ZM89.1927 14.4871C89.1669 11.7258 89.2444 9.40327 89.3735 9.32585C89.5026 9.22262 90.3031 9.1452 91.1552 9.1452C92.0331 9.1452 93.1434 9.22262 93.634 9.32585C94.1763 9.42907 94.9251 9.89359 95.519 10.4871C96.2679 11.2613 96.5261 11.7775 96.7585 12.9388C96.9392 13.9968 96.9392 14.8226 96.7585 15.7775C96.5519 16.8097 96.2162 17.3775 95.4932 18.1C94.8735 18.7452 94.0988 19.1839 93.2984 19.3904C92.627 19.571 91.62 19.7258 91.0519 19.7258C90.4838 19.7258 89.8383 19.6742 89.6317 19.5968C89.296 19.4936 89.2444 18.6678 89.1927 14.4871ZM47.3358 13.3517C47.594 12.9904 48.1363 12.5258 48.5753 12.3452C49.0142 12.1646 49.5565 12.0097 49.8147 11.9839C50.0471 11.9839 50.5119 12.1129 50.8476 12.2678C51.1574 12.4226 51.6739 12.8097 52.0095 13.1194C52.3194 13.4033 52.5776 13.8678 52.5776 14.1C52.5776 14.5129 52.2678 14.5646 49.8663 14.5646C48.317 14.5646 47.1034 14.4613 47.026 14.3065C46.9485 14.1775 47.1034 13.7388 47.3358 13.3517ZM106.08 12.4484C105.615 12.7065 105.125 13.1194 104.97 13.3517C104.841 13.5839 104.789 13.971 104.866 14.1775C104.97 14.4871 105.512 14.5646 107.578 14.5646C109.618 14.5646 110.212 14.4871 110.366 14.1775C110.47 13.9452 110.366 13.5839 110.031 13.2484C109.747 12.9388 109.205 12.5517 108.817 12.3452C108.404 12.1388 107.836 11.9839 107.526 11.9839C107.19 11.9839 106.545 12.1904 106.08 12.4484ZM21.9015 13.3775C22.3663 12.9388 22.9344 12.5 23.1409 12.4226C23.3475 12.3194 23.9414 12.2936 24.432 12.3194C24.9226 12.371 25.6973 12.6807 26.1621 13.042C26.6785 13.4291 27.0916 14.0484 27.2724 14.6936C27.4273 15.2613 27.5048 16.1904 27.4015 16.7581C27.324 17.3258 26.9884 18.0742 26.6785 18.4613C26.3686 18.8226 25.6973 19.2613 25.2067 19.4678C24.4837 19.7258 24.0963 19.7517 23.3217 19.5194C22.7794 19.3388 22.0822 18.8484 21.7207 18.3581C21.2043 17.6871 21.0752 17.2226 21.0752 15.8549C21.0752 14.2807 21.1268 14.1258 21.9015 13.3775ZM137.815 12.6807C137.35 12.9388 136.73 13.5581 136.472 14.0484C136.188 14.5388 135.982 15.3388 135.982 15.7775C135.982 16.242 136.136 17.0162 136.317 17.4549C136.524 17.9194 137.014 18.5646 137.428 18.9C137.841 19.2097 138.512 19.5452 138.951 19.6484C139.493 19.7517 140.036 19.6226 140.836 19.1839C141.482 18.8226 142.05 18.2549 142.256 17.7904C142.411 17.3517 142.566 16.4742 142.566 15.8291C142.566 15.1839 142.385 14.3323 142.179 13.9452C141.972 13.5581 141.533 13.0678 141.198 12.8613C140.888 12.6549 140.19 12.4484 139.648 12.3452C139.003 12.2678 138.409 12.371 137.815 12.6807ZM205.907 14.3065C206.242 13.5581 206.733 12.9904 207.301 12.7065C207.766 12.4484 208.411 12.242 208.721 12.242C209.057 12.242 209.573 12.3452 209.883 12.4742C210.219 12.6033 210.709 12.9129 210.993 13.1968C211.278 13.4549 211.665 13.9194 211.82 14.2549C212.001 14.5646 212.155 15.2871 212.155 15.8549C212.155 16.4226 211.949 17.3 211.691 17.7904C211.458 18.2807 210.839 18.9258 210.348 19.2097C209.857 19.4678 209.16 19.7 208.799 19.7258C208.437 19.7258 207.766 19.4936 207.301 19.2097C206.862 18.9258 206.294 18.4355 206.087 18.1C205.881 17.7904 205.623 17.0678 205.519 16.5C205.416 15.7258 205.493 15.1581 205.907 14.3065ZM227.442 12.7065C226.951 12.9646 226.409 13.5323 226.177 14.0484C225.893 14.6936 225.815 15.3904 225.918 16.5C226.048 17.8162 226.177 18.1517 226.848 18.7452C227.287 19.1581 227.907 19.5452 228.217 19.6226C228.552 19.7 229.12 19.7 229.508 19.6226C229.921 19.5452 230.592 19.1581 231.031 18.7452C231.522 18.3065 231.909 17.6355 232.064 16.9388C232.219 16.2162 232.193 15.4936 232.012 14.7452C231.857 14.1517 231.47 13.4549 231.16 13.171C230.876 12.9129 230.36 12.6033 230.024 12.4742C229.714 12.3452 229.198 12.242 228.862 12.242C228.552 12.242 227.907 12.4484 227.442 12.7065Z" fill="white"/>
</svg>
