<svg width="62" height="25" viewBox="0 0 62 25" fill="none" xmlns="http://www.w3.org/2000/svg">
<g clip-path="url(#clip0_1196_2465)">
<path d="M20.4951 0.522705V3.52271H17.2224H10.9399C9.67801 3.52271 8.35048 3.56442 7.30741 4.27464C5.08935 5.78492 4.60246 8.7768 4.67694 10.3409V14.1591C4.67694 18.0863 6.58604 20.7045 10.9497 20.7045H16.9497V13.3409H10.1315V10.6136H20.4951V23.7045H12.8588C10.4734 23.7045 7.5827 24.0327 5.4364 22.9918C5.36639 22.9578 5.29506 22.9227 5.22239 22.8863C1.94966 21.25 0.586026 17.4318 0.495117 14.6136C0.495117 14.5227 0.586025 13.0136 0.586025 9.52271C0.586025 2.54089 6.58604 0.613614 9.58605 0.522705H20.4951Z" fill="white"/>
<path d="M40.6418 3.25V0.25H31.0963C26.9509 0.25 24.2782 3.70454 23.46 5.43182C22.7327 6.79545 21.6054 10.9409 22.9145 16.6136C24.2236 22.2864 28.7327 23.5227 30.8236 23.4318H37.9145L40.6418 20.4318C39.8236 20.5227 36.9872 20.65 32.1872 20.4318C27.3872 20.2136 26.46 15.3409 26.46 13.3409V9.52273C26.46 5.15909 29.5509 3.34091 31.0963 3.25H32.1872H40.6418Z" fill="white"/>
<path d="M41.4053 3.25V0.25H61.0416L58.0416 3.25H53.1325V23.4318H49.3144V3.25H41.4053Z" fill="white"/>
</g>
<defs>
<clipPath id="clip0_1196_2465">
<rect width="60.5455" height="24" fill="white" transform="translate(0.494141 0.25)"/>
</clipPath>
</defs>
</svg>
