<svg width="130" height="25" viewBox="0 0 130 25" fill="none" xmlns="http://www.w3.org/2000/svg">
<g clip-path="url(#clip0_1194_2444)">
<path fill-rule="evenodd" clip-rule="evenodd" d="M0.420898 0.977273C0.420898 0.575612 0.746509 0.25 1.14817 0.25H4.42381C4.82547 0.25 5.15108 0.575611 5.15108 0.977273V22.1922C5.15108 22.5938 4.82547 22.9195 4.42381 22.9195H1.14817C0.74651 22.9195 0.420898 22.5939 0.420898 22.1922V0.977273ZM35.8831 6.50238C37.7752 6.50238 39.9584 6.61207 40.7224 6.75832C41.996 6.9777 42.0688 7.12396 42.0688 8.294C42.0688 9.42745 41.8783 10.0682 41.8783 10.0682C41.2233 10.2144 38.4301 10.1221 36.8656 10.1221C34.2458 10.1221 33.6794 10.245 32.9517 11.1591C32.2968 12.0366 32.1153 12.5525 32.2245 15.1851C32.3336 17.9274 32.8994 18.3124 33.7 18.934C34.4247 19.5235 35.1167 19.6526 41.0538 19.6331C41.6437 19.6312 42.1597 20.04 42.2871 20.6159C42.2871 20.6159 42.469 22.5029 42.2871 22.7955C41.996 23.2342 40.7224 22.9904 36.5744 23.0635C31.5896 23.1732 31.2621 23.1366 30.0613 22.2957C29.7925 22.1251 29.4552 21.684 29.1431 21.2085C28.4761 20.1923 28.1208 19.0264 28.0683 17.812C28.0177 16.6425 27.9843 14.7576 28.0264 11.755C28.0436 10.5274 28.4404 9.33124 29.1517 8.33058C29.7703 7.70898 30.7163 7.05083 31.3349 6.86801C31.9534 6.68519 33.991 6.53894 35.8831 6.50238ZM52.7919 6.7786C55.5572 6.7786 57.8496 6.92485 58.6136 7.21736C59.3413 7.47331 60.251 8.20455 60.724 8.93582C61.4665 10.0727 61.5563 10.5192 61.5273 21.4447C61.5258 22.0373 61.1648 22.5724 60.6149 22.7935C60.1055 22.9763 57.1582 23.1591 54.0654 23.1591C49.7718 23.1591 48.1709 23.0128 47.334 22.6107C46.7154 22.3181 46.0968 21.7331 45.8785 21.3309C45.6966 20.9287 45.5146 19.6124 45.5146 18.4059C45.5146 17.3931 45.556 16.7952 45.8915 16.1206C46.7076 14.4799 48.6678 13.8137 50.4999 13.7757L56.4305 13.6525V12.5557C56.4305 11.8244 56.1515 11.2759 55.5936 10.9103C55.0324 10.5226 52.9281 10.2432 46.6828 10.2235C46.2818 10.2223 45.95 9.90696 45.9319 9.50634L45.8915 8.61364C45.8187 7.26076 45.8915 6.96826 46.5101 6.822C46.9104 6.71231 50.2813 6.7786 52.7919 6.7786ZM50.536 18.2961L50.6087 19.5027H56.4305V16.5776C52.2825 16.5776 50.9725 16.6873 50.7906 16.8336C50.6087 16.9433 50.4996 17.6014 50.536 18.2961ZM66.8252 6.61264C68.972 6.72233 69.0399 6.57807 69.4401 7.8212C69.6948 8.51596 70.4589 10.8925 72.4237 17.145L71.5505 19.9603C71.0775 21.5326 70.2155 23.415 70.2155 23.415C70.2155 23.415 69.4521 23.3074 69.1246 23.0514C68.3973 22.6877 68.0938 19.3753 67.0387 16.048C66.0198 12.8304 64.9646 9.46658 64.6736 8.55247C64.498 8.00128 64.3904 7.52912 64.3645 7.20903C64.3416 6.92527 64.5442 6.71195 64.8254 6.66722C65.2698 6.59652 66.0231 6.56379 66.8252 6.61264ZM16.6869 6.86801C19.7679 6.86801 21.1126 6.96314 22.3133 7.76753C23.0047 8.20629 24.1315 9.22207 24.4952 10.1953C24.8588 11.0403 24.8602 11.7309 24.7874 14.7658C24.7146 17.764 24.859 18.8653 24.4952 19.6331C24.0601 20.6136 22.9692 21.7045 22.9692 21.7045C21.8048 22.5089 21.0533 22.956 16.6869 22.9195C12.4662 22.8829 11.8112 22.8097 10.5741 22.0784C9.42548 21.3859 8.80468 20.096 8.73225 18.7566C8.68672 17.914 8.63915 16.9196 8.60926 15.9723C8.5001 13.4129 8.79123 11.1459 9.04592 10.1953C9.30061 9.24462 9.9857 8.35255 10.677 7.76753C11.7322 6.89001 13.2224 6.86801 16.6869 6.86801ZM13.4311 12.1137C13.1764 12.6256 13.2138 13.9053 13.2138 15.2948C13.2138 16.867 13.3957 18.0371 13.7596 18.5489C14.2326 19.2802 15.2141 19.4839 16.4968 19.4839C17.918 19.4839 18.8256 19.0243 19.2986 18.5489C19.808 18.0371 19.6965 17.452 19.6965 15.1851C19.7328 12.8816 19.5873 12.0772 19.0778 11.419C18.6413 10.8706 17.9136 10.5415 16.7856 10.4318C15.8759 10.3221 14.9944 10.6512 14.5577 10.834C14.1575 11.0168 13.6494 11.6019 13.4311 12.1137ZM79.3328 6.79545C80.0601 6.79545 81.186 9.48171 83.3329 16.9773L82.3504 19.8292C81.8413 21.3649 81.042 23.1591 80.7875 23.1591C80.5693 23.1591 80.1322 22.7935 79.8413 22.3547C79.5504 21.8794 79.0391 19.6464 77.5838 14.9663L78.7118 11.1271C79.3671 9.00644 79.151 6.79545 79.3328 6.79545Z" fill="white"/>
<path fill-rule="evenodd" clip-rule="evenodd" d="M112.404 1.73595C112.399 1.31841 112.737 0.977295 113.154 0.977295H116.503C116.91 0.977295 117.243 1.30217 117.252 1.70922L117.38 7.01029L121.092 7.11998C121.598 7.12845 122.068 7.14089 122.492 7.155C124.016 7.20577 125.638 7.3274 126.877 8.21686C127.423 8.54595 128.114 9.35039 128.442 9.9354C128.878 10.7764 129.024 12.1292 129.024 15.4199C129.024 19.186 128.915 19.9904 128.297 21.0873C127.86 21.7819 126.986 22.6595 126.295 22.9886C125.276 23.537 124.076 23.6468 120.11 23.6468C117.929 23.6468 115.677 23.5748 113.856 23.3726C113.156 23.295 112.644 22.6928 112.636 21.9886C112.548 14.2983 112.494 9.54497 112.404 1.73595ZM117.745 19.8076C121.42 19.9904 122.365 19.8441 122.948 19.4419C123.676 18.9666 123.748 18.6009 123.748 15.7856C123.748 14.067 123.603 12.3486 123.384 11.9464C123.093 11.3248 122.657 11.2151 120.292 11.2151H117.562L117.745 19.8076Z" fill="#F8F8F8"/>
<path d="M72.7885 13.8704C73.8075 10.6528 74.7173 7.80091 74.79 7.58149L74.9688 7.15902C75.0687 6.89115 75.6901 6.74593 79.0626 6.72335C79.5629 6.72 79.925 7.20079 79.7844 7.68096L78.6467 11.5669C77.8831 14.0533 76.8642 17.3805 76.4271 18.9893C75.9907 20.5981 75.4089 22.2801 75.1173 22.7189C74.6809 23.4501 74.3173 23.5598 72.243 23.5598C70.9331 23.5598 69.8779 23.4501 69.8779 23.3039C69.8779 23.121 70.0963 22.2801 70.3873 21.366C70.6784 20.4519 71.77 17.088 72.7885 13.8704Z" fill="#F8F8F8"/>
<path d="M82.9602 15.5707C84.1973 11.6584 85.3616 8.07512 85.5442 7.59977C85.8714 6.86854 86.126 6.79541 88.4547 6.79541C90.7107 6.79541 90.9653 6.86854 90.7834 7.41699C90.6743 7.78261 89.6191 11.183 88.4183 15.0222C87.1813 18.8249 86.062 22.4663 85.8802 22.7954C85.6256 23.3438 85.7725 23.5227 83.6983 23.5227C82.3158 23.5227 80.7158 23.3425 80.7885 23.1962C80.8613 23.0134 81.7231 19.483 82.9602 15.5707Z" fill="#F8F8F8"/>
<path fill-rule="evenodd" clip-rule="evenodd" d="M107.697 20.25V22.0681C107.697 22.8715 107.046 23.5227 106.243 23.5227H98.9699C96.9095 23.2803 92.7881 21.7045 92.7881 16.6136V13.3409C92.7881 11.5227 94.6063 6.79541 100.424 6.79541C103.117 6.79541 104.887 7.10317 106.037 7.46546C107.537 7.9378 108.632 9.23832 108.983 10.7709C109.085 11.2117 109.152 11.7084 109.152 12.25V15.8863C109.152 16.1287 109.006 16.6136 108.424 16.6136H99.3335C98.2426 16.6136 98.2768 16.71 98.2426 17.3409C98.2084 17.9717 98.0855 19.8863 100.424 19.8863H107.334C107.534 19.8863 107.697 20.0492 107.697 20.25ZM98.6063 14.0681C98.2048 14.0681 97.8819 13.7425 97.9299 13.3438C98.047 12.3798 98.7961 10.7954 100.061 10.7954H101.515C100.788 10.7954 101.045 10.7983 101.515 10.7954C102.134 10.7916 103.598 10.785 104.424 11.8863C105.297 13.05 105.152 14.0681 105.152 14.0681H98.6063Z" fill="#F8F8F8"/>
</g>
<defs>
<clipPath id="clip0_1194_2444">
<rect width="129.455" height="24" fill="white" transform="translate(0.0605469 0.25)"/>
</clipPath>
</defs>
</svg>
