<svg width="1680" height="48" viewBox="0 0 1680 48" fill="none" xmlns="http://www.w3.org/2000/svg">
<g clip-path="url(#clip0_1724_2715)">
<path fill-rule="evenodd" clip-rule="evenodd" d="M196.144 18.4257C198.019 18.4257 199.539 16.9016 199.539 15.0216C199.539 13.1416 198.019 11.6176 196.144 11.6176C194.27 11.6176 192.75 13.1416 192.75 15.0216C192.75 16.9016 194.27 18.4257 196.144 18.4257ZM196.144 18.8879C198.274 18.8879 200 17.1569 200 15.0216C200 12.8863 198.274 11.1553 196.144 11.1553C194.015 11.1553 192.289 12.8863 192.289 15.0216C192.289 17.1569 194.015 18.8879 196.144 18.8879Z" fill="white"/>
<path fill-rule="evenodd" clip-rule="evenodd" d="M195.56 17.0598H194.889V13.0884H196.565C196.821 13.1067 197.33 13.2565 197.555 13.697C197.624 13.8305 197.639 13.9832 197.648 14.133C197.667 14.4308 197.684 14.7436 197.536 15.0027C197.418 15.211 197.213 15.4188 196.88 15.5048L197.822 17.0598H197.005L196.209 15.6519H195.56V17.0598ZM195.538 13.6978V15.0636H196.46C196.649 15.0426 197.026 14.9081 197.026 14.5383C197.026 14.3008 197.022 14.0423 196.86 13.8697C196.769 13.7734 196.639 13.6978 196.46 13.6978H195.538Z" fill="white"/>
<path d="M0.00264939 7.28906C1.27494 7.28906 2.54723 7.28906 3.85807 7.28906C3.85807 12.0737 3.85807 16.8582 3.85807 21.7878C2.28602 20.8025 1.36233 20.1788 0.819634 19.7856C0.270285 19.3876 0.0539195 18.7887 0.0436866 18.1091C0.0401255 17.8726 0.0385917 17.641 0.0468889 17.4382C0.0593137 16.9009 0.0717383 16.3635 0.0845393 15.8099C0.0845393 15.8099 0.013607 14.628 0.0468902 14.0552C0.0642848 13.4898 -0.0152738 12.7045 0.00264785 12.122C0.0480347 10.7281 0.00264939 7.28906 0.00264939 7.28906Z" fill="white"/>
<path d="M5.34826 12.6052C6.46152 12.6052 8.25077 12.6052 9.39776 12.6052C9.39776 17.0708 9.39776 21.5365 9.39776 26.1374C7.45289 25.1622 6.60653 24.9398 5.92879 24.3587C5.49858 23.9897 5.2966 23.4273 5.23646 22.8629C5.18648 22.3937 5.19149 22.0916 5.20706 21.1478C5.21405 20.4025 5.21405 20.4025 5.22118 19.6422C5.23332 19.1242 5.24542 18.6062 5.2579 18.0725C5.26768 17.287 5.26769 17.287 5.27766 16.4857C5.29472 15.192 5.31853 13.8987 5.34826 12.6052Z" fill="white"/>
<path d="M0.0458984 22.7544C2.21614 24.2053 2.75752 24.5673 3.30008 25.0662C3.7009 25.4348 3.95062 25.9477 3.98731 26.4919C4.00816 26.801 4.00446 27.0795 3.99545 27.7572C3.99079 28.374 3.99079 28.374 3.98603 29.0032C3.97796 29.4331 3.96988 29.8629 3.96156 30.3058C3.95721 30.7394 3.95286 31.1731 3.94838 31.6198C3.93701 32.6922 3.92114 33.7644 3.90132 34.8367C2.62903 34.8367 1.35674 34.8367 0.0458984 34.8367C0.0458984 30.8495 0.0458984 26.8624 0.0458984 22.7544Z" fill="white"/>
<path d="M5.34766 27.5872C6.80563 28.3182 7.56067 28.6224 8.11098 28.9808C8.91951 29.5072 9.29971 30.5004 9.30775 31.4671C9.30963 31.6893 9.30467 31.9636 9.29739 32.3653C9.29272 32.8186 9.28804 33.2718 9.28327 33.7387C9.27113 34.2107 9.25903 34.6826 9.24655 35.1688C9.24004 35.6463 9.23349 36.1238 9.22679 36.6158C9.20973 37.7951 9.18597 38.9738 9.15619 40.1527C8.04293 40.1527 6.49464 40.1527 5.34766 40.1527C5.34766 36.0061 5.34766 31.8595 5.34766 27.5872Z" fill="white"/>
<path d="M121.446 39.6696H130.758V23.431C130.758 22.1187 131.934 19.4943 136.639 19.4943C141.344 19.4943 142.194 23.1029 142.03 24.9072H150.362V19.4943C150.362 17.1324 148.892 15.0656 146.931 14.0814C144.971 13.0973 144.187 12.6052 139.09 12.6052C133.993 12.6052 131.085 15.8858 130.268 17.526V13.5894H121.446V39.6696Z" fill="white"/>
<path d="M13.0117 13.5806V39.6694H22.786V25.3944C22.786 21.4565 26.0442 20.472 27.6732 20.472H34.0265C37.5452 20.472 38.4249 23.0973 38.4249 24.4099V39.1772H47.7105V20.472C47.7105 15.3527 42.3347 13.0884 38.9136 13.0884H28.6506C25.9138 13.0884 23.2748 16.0418 22.2973 17.5186V13.5806H13.0117Z" fill="white"/>
<path fill-rule="evenodd" clip-rule="evenodd" d="M61.0048 20.7336H51.5706C51.7364 18.0779 53.7557 12.7666 60.5084 12.7666H74.9075C78.0525 12.7666 84.3417 13.6629 84.3417 17.2481V24.7171V39.1573H75.9007V35.6717C75.2386 36.9995 73.2193 39.6552 70.439 39.6552H58.0255H56.0395C54.3846 39.4893 51.0742 37.8626 51.0742 32.6841C51.0742 27.5056 53.0602 25.215 54.0535 24.7171C54.7152 24.2192 56.6352 23.2233 59.0188 23.2233H68.9494C70.6043 23.2233 74.3118 23.7212 75.9007 25.713V20.7336C75.8959 20.7188 75.8906 20.7032 75.8853 20.6868C75.7118 20.1484 75.2574 18.7419 70.439 18.7419H63.9841C63.9841 18.7419 62.4188 18.7419 61.0048 20.7336ZM62.4945 28.7006C61.667 28.8666 60.0116 29.5969 60.0116 31.1903C60.0116 32.7837 61.667 33.514 62.4945 33.68H71.9287C73.0872 33.514 75.4043 32.7837 75.4043 31.1903C75.4043 29.1985 73.4183 28.7006 70.9354 28.7006H62.4945Z" fill="white"/>
<path d="M86.7461 13.2643H92.2155V7.28906H102.16V13.2643H116.58V20.2354H102.16V28.2024V30.6921C102.16 32.2855 103.486 33.0158 104.149 33.1818H107.629C109.221 33.1818 109.618 31.854 109.618 31.19V28.2024H118.071V32.1859C118.071 37.7628 111.773 39.8209 108.624 40.1529H98.6796C93.5085 40.1529 92.2155 35.5055 92.2155 33.1818V20.2354H86.7461V13.2643Z" fill="white"/>
<path fill-rule="evenodd" clip-rule="evenodd" d="M163.291 12.7666C159.815 12.7666 152.864 14.2604 152.864 20.2357V31.1903C152.698 34.0119 154.155 39.6552 161.305 39.6552H182.656C186.266 39.6552 189.639 37.7294 189.639 29.7624C189.639 21.7954 189.607 21.7295 189.607 21.7295C189.938 18.7419 188.614 12.7666 180.669 12.7666H163.291ZM166.611 19.7377H177.392C178.65 19.7377 181.166 20.409 181.166 23.0942V29.8071C181.166 30.7661 180.519 32.6841 177.932 32.6841H166.071C164.814 32.6841 162.298 32.0128 162.298 29.3276V22.1352C162.298 21.336 163.161 19.7377 166.611 19.7377Z" fill="white"/>
</g>
<g clip-path="url(#clip1_1724_2715)">
<path d="M322.712 20.0361C322.545 19.9272 321.34 19.5214 321.15 19.4621C320.061 19.1123 316.045 17.8158 317.27 16.3048C319.811 13.2003 329.785 13.6324 332.255 10.1716C334.58 6.92856 336.365 -0.0557499 338.473 0.000335779C340.307 0.0498231 341.599 2.94318 341.922 3.73498C341.963 3.8349 341.996 3.93741 342.022 4.0418C342.209 4.79401 343.717 9.01363 353.804 6.62174C358.386 5.53302 361.463 5.04804 363.488 4.8501C363.974 4.80175 364.463 4.90787 364.885 5.15313C365.306 5.39838 365.638 5.77006 365.832 6.21445C366.026 6.65883 366.073 7.1529 365.965 7.62524C365.857 8.09758 365.601 8.52372 365.233 8.84207L365.149 8.91466C362.515 11.1317 356.851 15.3843 355.928 16.0738C355.856 16.1293 355.781 16.18 355.702 16.2256C355.036 16.605 351.273 19.0002 353.641 23.5266C356.231 28.4754 362.179 39.5737 362.179 39.5737C362.179 39.5737 365.822 45.753 364.696 47.2278C363.571 48.7025 355.496 42.0547 355.496 42.0547C355.496 42.0547 344.303 33.6154 338.762 33.1107C333.221 32.6059 326.927 38.6203 326.927 38.6203C326.927 38.6203 318.17 46.1885 317.031 46.0764C315.595 45.9279 316.075 43.8494 316.075 43.8494C316.141 43.4949 316.262 43.1523 316.431 42.8333C317.6 40.4513 324.253 26.7928 324.357 24.0842C324.447 21.7187 323.398 20.4848 322.712 20.0361Z" fill="white"/>
<path d="M448.468 22.1673C448.275 22.7363 447.91 23.2327 447.422 23.5892C447.336 23.6637 447.231 23.7148 447.119 23.7376L441.621 23.896C441.396 23.9003 441.173 23.9314 440.955 23.9884C439.956 24.2556 437.555 25.3278 437.086 29.5112C436.37 35.9082 443.396 35.3771 443.396 35.3771L444.062 35.3573L446.147 35.3045C446.241 35.3083 446.334 35.3321 446.419 35.3743C446.504 35.4165 446.578 35.4761 446.638 35.5492C446.697 35.6223 446.741 35.7071 446.764 35.7981C446.788 35.889 446.792 35.9839 446.776 36.0765L446.147 38.1949C446.1 38.5051 445.814 38.8548 445.514 38.8779L440.469 38.9372C440.469 38.9372 433.26 39.2672 432.62 33.5332C431.894 27.0603 433.995 23.5991 433.995 23.5991C434.529 22.5869 435.329 21.7362 436.31 21.1364C437.291 20.5366 438.417 20.21 439.57 20.1911C443.842 20.0822 447.545 20.0525 447.545 20.0525C447.545 20.0525 448.474 20.0525 448.618 20.2834C448.97 20.8839 448.727 21.4216 448.468 22.1673Z" fill="white"/>
<path d="M412.869 26.2288C412.645 25.0472 412.076 23.9565 411.234 23.0912C410.391 22.2259 409.311 21.6239 408.127 21.3593C406.426 20.9799 403.755 20.5675 400.928 21.3593C394.687 23.0848 394.091 30.9268 395.88 35.2454C397.545 39.3133 404.538 39.2044 404.538 39.2044L410.625 39.1117C410.777 39.1091 410.924 39.0574 411.044 38.9646C411.164 38.8718 411.251 38.7428 411.291 38.5971C411.506 37.8873 411.715 37.2435 411.72 36.5024C411.72 35.8426 411.168 35.4929 410.512 35.4896H407.967C405.66 35.4896 401.504 36.0009 400.738 34.1699C400.531 33.5782 400.419 32.9582 400.405 32.3323C400.399 32.2146 400.417 32.0968 400.458 31.9864C400.5 31.876 400.564 31.7753 400.647 31.6907C400.73 31.6061 400.83 31.5394 400.94 31.4948C401.05 31.4502 401.168 31.4287 401.287 31.4316L409.046 31.6131C409.046 31.6131 411.477 31.6857 411.943 31.5636C412.102 31.5194 412.247 31.4354 412.363 31.3199C412.48 31.2044 412.565 31.0611 412.609 30.9038C412.836 30.3981 412.976 29.8584 413.022 29.307C413.096 28.2785 413.044 27.2451 412.869 26.2288ZM406.426 28.723L401.034 28.6075C400.175 28.6075 400.292 26.958 401.344 25.4931C402.266 24.223 404.594 24.2098 405.054 24.2296H405.21C408.893 24.6288 408.767 26.4598 408.767 27.0042C408.767 28.304 408.507 28.7296 406.426 28.723Z" fill="white"/>
<path d="M421.446 13.6808C423.838 13.5416 423.492 14.7253 423.492 14.7253C423.492 14.7253 420.745 34.6731 420.451 37.0637C420.248 38.8011 419.041 39.331 416.208 39.4006C416.083 39.3939 415.961 39.3605 415.849 39.3025C415.738 39.2445 415.64 39.1632 415.561 39.064C415.482 38.9649 415.425 38.8499 415.394 38.7268C415.362 38.6037 415.356 38.4751 415.376 38.3495L418.359 13.7703L421.446 13.6808Z" fill="white"/>
<path d="M427.286 13.7511C427.067 13.757 426.858 13.8395 426.697 13.9834C426.536 14.1274 426.434 14.3231 426.409 14.5347L423.525 38.1676C423.5 38.3085 423.506 38.4527 423.542 38.5912C423.577 38.7297 423.642 38.8595 423.732 38.9723C423.822 39.0852 423.935 39.1786 424.064 39.2468C424.193 39.3149 424.334 39.3563 424.48 39.3683C427.031 39.4355 428.525 38.7722 428.722 37.0637C429.005 34.6255 431.638 14.7432 431.638 14.7432C431.638 14.7432 431.983 13.5426 429.567 13.6805L427.286 13.7511Z" fill="white"/>
<path d="M461.689 20.4996C457.373 19.1337 451.536 21.5281 449.79 27.3189C448.044 33.1098 450.304 37.4389 454.616 38.8048C458.928 40.1706 464.828 38.6328 466.851 31.9027C468.874 25.1726 466.001 21.8522 461.689 20.4996ZM462.73 30.4508C461.913 33.6389 459.205 36.073 456.78 35.4347C454.356 34.7965 453.157 32.2103 453.98 29.0221C454.804 25.834 457.798 23.3999 460.239 24.0184C462.681 24.6368 463.635 26.9203 462.73 30.4508Z" fill="white"/>
<path d="M495.091 37.3064C495.091 37.3064 495.669 31.8208 496.126 25.9645C496.583 20.1083 491.058 20.2715 491.058 20.2715L472.33 20.1253C472.046 20.1227 471.772 20.225 471.558 20.4129C471.344 20.6008 471.205 20.8613 471.168 21.1455L468.847 38.3572L474.2 38.4151L476.075 24.0907C476.089 23.9798 476.144 23.8784 476.228 23.8066C476.313 23.7348 476.421 23.6978 476.531 23.703C476.867 23.72 477.492 23.7472 478.631 23.788H481.22L479.128 38.4117H484.478L486.537 23.788L489.946 23.8084C489.946 23.8084 491.4 23.9785 491.289 25.3286C491.179 26.6787 489.754 38.4185 489.754 38.4185L492.807 38.5851C492.807 38.5851 494.769 38.8368 495.091 37.3064Z" fill="white"/>
<path d="M394.38 16.9316C394.328 17.2627 394.158 17.5647 393.902 17.7835C393.646 18.0023 393.319 18.1236 392.981 18.1259L385.928 17.9642C384.456 17.9159 383.002 18.2968 381.746 19.0596C380.081 20.0922 378.329 22.0717 377.936 25.8657C377.011 34.8097 386.085 34.3379 386.811 34.2621H386.924L390.627 34.1895C392.052 34.1235 392.408 34.7404 392.252 35.6477L391.744 37.391C391.761 37.3316 391.587 37.9736 391.337 38.1951C390.837 38.6372 390.056 38.545 389.721 38.5586H381.889C381.889 38.5586 372.623 38.5586 371.566 30.9376C370.457 22.9437 373.97 18.3041 373.97 18.3041C373.97 18.3041 375.908 13.9063 382.155 13.5896C388.402 13.2728 393.294 13.484 393.294 13.484C393.294 13.484 394.713 13.484 394.806 13.87C394.876 14.1042 394.586 15.7538 394.38 16.9316Z" fill="white"/>
</g>
<g clip-path="url(#clip2_1724_2715)">
<path d="M711.914 24.5882C713.247 20.7189 715.557 17.9087 719.201 16.2317C723.061 14.4553 728.787 15.1284 731.57 18.3504C731.822 18.6423 732.173 18.8485 732.769 19.3282C732.769 14.3725 732.769 9.73958 732.769 4.97217C735.909 4.97217 738.83 4.97217 741.94 4.97217C741.974 5.69456 742.035 6.38184 742.036 7.06917C742.042 16.1255 742.046 25.1819 742.033 34.2383C742.032 35.3305 741.973 36.3881 743.24 36.9122C743.468 37.0065 743.739 37.3476 743.743 37.5794C743.783 39.7671 743.822 41.9584 743.713 44.1412C743.697 44.4491 742.899 44.9257 742.434 44.964C741.082 45.0753 739.712 45.0594 738.354 44.9906C736.27 44.8849 735.12 43.7715 734.406 41.4775C732.369 42.5738 730.407 44.0213 728.206 44.743C720.728 47.1958 712.978 41.931 711.444 33.7929C710.863 30.7079 711.189 27.7215 711.914 24.5882ZM722.117 25.6394C720.446 27.5771 720.369 29.8547 720.719 32.22C721.087 34.7085 723.301 36.9062 726.014 37.4885C728.134 37.9433 730.734 36.6846 732.178 34.9288C733.577 33.2286 733.083 31.3496 733.128 29.5218C733.19 27.025 731.142 24.3475 728.604 23.3795C726.248 22.4806 724.351 23.1008 722.117 25.6394Z" fill="white"/>
<path d="M619.082 43.9209C616.777 42.9858 614.618 42.0669 612.45 41.1721C611.353 40.7195 611.088 40.0994 611.69 38.9889C612.864 36.8241 613.926 34.5987 615.081 32.3063C616.791 33.181 618.317 34.2269 620.005 34.7653C622.717 35.6303 625.532 36.1746 628.313 36.8141C628.696 36.902 629.165 36.8476 629.536 36.7072C630.827 36.2191 632.374 35.9685 632.517 34.1527C632.661 32.3199 631.178 31.6819 629.936 31.2114C626.709 29.9886 623.364 29.0802 620.122 27.8929C616.672 26.6295 613.626 24.5955 613.073 20.7195C612.021 13.3417 615.163 7.86939 622.703 5.97456C627.837 4.68427 632.864 5.70506 637.674 7.76536C638.913 8.29624 640.085 8.98592 641.486 9.70448C640.181 12.2451 638.907 14.7248 637.644 17.1835C635.117 16.1673 632.865 15.0506 630.487 14.379C628.856 13.918 627.043 13.9296 625.322 14.0009C623.828 14.0627 622.635 14.7572 622.565 16.5739C622.493 18.4237 623.714 19.2395 625.141 19.7178C628.586 20.8726 632.102 21.8135 635.538 22.9921C638.313 23.944 640.62 25.7088 641.651 28.4955C643.965 34.7498 642.191 42.139 634.205 44.2858C629.208 45.6292 624.19 45.314 619.082 43.9209Z" fill="white"/>
<path d="M670.279 18.2481C674.477 21.8314 676.346 26.2932 675.889 31.6415C675.255 39.0501 670.939 43.6151 663.804 45.0044C658.602 46.0173 653.889 44.9684 649.771 41.5362C647.426 39.5818 646.055 37.0368 645.429 34.1111C644.18 28.2806 645.45 23.1397 649.875 18.9599C651.854 17.0906 654.285 16.0299 656.906 15.5525C661.641 14.6896 666.135 15.3767 670.279 18.2481ZM662.156 37.276C666.276 35.8605 667.529 30.6355 666.058 27.1342C664.961 24.5219 662.092 22.5739 659.917 23.0088C656.398 23.7122 653.712 27.5025 654.247 30.9954C654.956 35.6218 657.692 38.1666 662.156 37.276Z" fill="white"/>
<path d="M783.683 20.1229C783.185 22.3835 782.686 24.644 782.13 27.1671C784.556 27.1671 786.814 27.1671 789.191 27.1671C789.191 29.7291 789.191 32.0573 789.191 34.697C786.282 34.697 783.362 34.697 780.133 34.6983C779.536 34.6913 779.247 34.683 778.855 34.5702C776.223 34.5575 773.695 34.6492 771.166 34.7409C769.574 34.7254 767.981 34.7312 766.39 34.6865C765.444 34.6599 764.953 34.8933 764.721 35.9861C764.092 38.9434 763.258 41.8571 762.477 44.8974C759.651 44.8974 756.785 44.8974 753.687 44.8974C754.443 41.983 755.168 39.1879 756.063 36.2506C757.662 35.8934 760.599 35.286 760.599 35.286C760.599 35.286 762.367 34.9046 762.334 34.9247C762.334 34.9247 764.837 34.3709 765.05 34.2766L762.921 34.183C760.717 34.3496 758.456 34.5205 756.194 34.6915C754.749 34.555 753.269 34.5595 751.877 34.2108C751.338 34.076 750.693 33.1716 750.631 32.5635C750.46 30.8826 750.572 29.1731 750.572 27.2253C752.72 27.2253 754.704 27.1956 756.687 27.2375C757.709 27.2591 758.288 27.0466 758.461 25.8448C758.665 24.4185 759.2 23.0395 759.833 21.5181C762.34 20.9597 764.607 20.5234 767.006 20.0831C767.651 19.9723 768.164 19.8656 768.686 19.7627C768.694 19.7666 768.71 19.7745 768.703 19.9167C768.128 22.3954 767.56 24.7319 766.976 27.1369C769.179 27.1369 771.171 27.1369 773.152 27.1369C773.716 25.2171 774.255 23.3824 774.931 21.5288C777.427 21.0313 779.786 20.5526 782.299 20.0811C782.863 20.0999 783.273 20.1114 783.683 20.1229Z" fill="white"/>
<path d="M759.642 19.4681C757.467 19.4681 755.291 19.4681 753.004 19.4681C753.004 16.8742 753.004 14.538 753.004 12.012C755.871 12.012 758.689 12.012 761.667 12.012C762.32 9.33701 762.897 6.78751 763.596 4.27188C763.727 3.79936 764.331 3.13417 764.742 3.11625C767.217 3.00814 769.699 3.06249 772.599 3.06249C771.912 6.063 771.274 8.85239 770.569 11.9297C772.52 11.9297 774.277 11.9953 776.02 11.8773C776.394 11.852 776.913 11.2152 777.04 10.768C777.753 8.25083 778.366 5.70552 779.019 3.14431C781.932 3.14431 784.757 3.14431 787.769 3.14431C787.053 6.08566 786.367 8.90195 785.636 11.9079C787.973 11.9079 790.197 11.9079 792.565 11.9079C792.565 14.4128 792.565 16.7501 792.565 19.4219C789.796 19.4219 786.982 19.4219 783.896 19.3876C783.097 19.3741 782.57 19.3949 781.877 19.3989C779.45 19.4083 777.188 19.4346 774.761 19.4423C772.58 19.4241 770.564 19.4244 768.548 19.4247C768.548 19.4247 768.532 19.4168 768.419 19.366C767.791 19.3419 767.276 19.3685 766.595 19.3813C764.166 19.4011 761.904 19.4346 759.642 19.4681Z" fill="white"/>
<path d="M688.708 15.499C688.708 21.6599 688.697 27.643 688.715 33.6261C688.722 35.855 689.516 37.1992 691.054 37.4186C691.772 37.5211 692.581 37.3662 693.281 37.1287C694.295 36.7848 694.678 37.0451 694.766 38.0973C694.849 39.0853 695.054 40.0682 695.269 41.0391C695.783 43.3593 695.542 43.9814 693.291 44.4645C690.044 45.1616 686.794 45.9363 683.494 44.3733C681.042 43.2114 679.899 41.2031 679.876 38.7679C679.768 27.7508 679.835 16.732 679.847 5.71378C679.847 5.49169 679.939 5.26969 680.009 4.95215C682.865 4.95215 685.669 4.95215 688.708 4.95215C688.708 8.48532 688.708 11.9033 688.708 15.499Z" fill="white"/>
<path d="M706.015 15.8618C706.517 16.2343 707.141 16.6015 707.143 16.9711C707.176 26.0169 707.144 35.0629 707.116 44.1089C707.116 44.2108 707.019 44.3125 706.907 44.5329C704.044 44.5329 701.125 44.5329 698.078 44.5329C698.078 35.0082 698.078 25.5801 698.078 15.8577C700.695 15.8577 703.271 15.8577 706.015 15.8618Z" fill="white"/>
<path d="M779.447 36.8036C778.833 39.2217 778.251 41.6471 777.569 44.0492C777.479 44.368 776.891 44.7792 776.521 44.7897C774.157 44.8569 771.789 44.824 769.009 44.824C769.715 42.1482 770.368 39.6751 771.265 37.1404C773.46 36.7946 776.779 36.015 778.785 35.8077C778.785 35.8077 779.926 34.9124 779.447 36.8036Z" fill="white"/>
<path d="M707.196 7.02276C707.196 9.01706 707.196 10.8411 707.196 12.8368C704.117 12.8368 701.162 12.8368 698.078 12.8368C698.078 10.2307 698.078 7.67166 698.078 4.85961C700.888 4.85961 703.639 4.79704 706.379 4.94715C706.685 4.96393 706.925 6.18817 707.196 7.02276Z" fill="white"/>
</g>
<g clip-path="url(#clip3_1724_2715)">
<path d="M913.081 6.3533C913.248 5.96228 913.639 5.7168 914.065 5.7168C914.161 5.7168 914.258 5.7168 914.355 5.7168C914.758 5.7168 915.129 5.93676 915.315 6.29293C916.887 9.30259 918.128 12.4612 919.424 15.5973C919.792 16.4849 920.16 17.3723 920.529 18.2599C920.756 18.8085 920.984 19.3573 921.211 19.9063C921.858 21.4675 922.526 23.0167 923.223 24.5561C923.919 22.8775 924.614 21.1989 925.31 19.52C925.545 18.9521 925.781 18.3839 926.016 17.8157C926.36 16.9873 926.703 16.1589 927.046 15.3305C927.16 15.0567 927.273 14.7828 927.39 14.5005C927.977 13.0851 928.559 11.6686 929.137 10.2499C929.251 9.97155 929.364 9.69325 929.481 9.40653C929.698 8.87496 929.914 8.34317 930.129 7.81111C930.225 7.57529 930.321 7.33947 930.42 7.0965C930.504 6.88864 930.589 6.68077 930.675 6.46661C930.912 5.93768 931.487 5.70896 932.068 5.70828C932.124 5.70822 932.18 5.70825 932.235 5.70836C932.75 5.70937 933.22 6.01438 933.391 6.49888C933.699 7.37139 933.889 8.25662 934.062 9.1857C934.101 9.39326 934.141 9.6008 934.182 9.81464C934.312 10.499 934.441 11.1838 934.569 11.8686C934.66 12.3479 934.75 12.8271 934.841 13.3063C935.031 14.3116 935.22 15.3169 935.408 16.3222C935.648 17.6019 935.89 18.8811 936.133 20.16C936.321 21.1508 936.508 22.1417 936.693 23.1328C936.782 23.604 936.871 24.075 936.961 24.546C937.431 27.0162 937.826 29.438 937.979 31.942C937.999 32.2652 937.823 32.5792 937.511 32.6691C936.969 32.825 936.458 32.7947 935.817 32.7985C935.524 32.8023 935.23 32.8061 934.927 32.8102C934.394 32.7657 934.239 32.7526 933.999 32.5549C933.739 32.3409 933.575 32.0318 933.498 31.7052C933.449 31.4983 933.418 31.3222 933.339 30.8618C933.289 30.5828 933.24 30.304 933.189 30.0165C933.138 29.714 933.087 29.4115 933.034 29.0997C932.954 28.6339 932.954 28.6339 932.871 28.1588C932.757 27.5008 932.645 26.8425 932.533 26.1839C932.362 25.1781 932.187 24.1728 932.012 23.1675C931.902 22.5283 931.792 21.8891 931.682 21.2499C931.63 20.9496 931.578 20.649 931.524 20.3396C931.477 20.0573 931.429 19.775 931.38 19.4839C931.338 19.2371 931.296 18.99 931.253 18.7356C931.155 17.9391 931.148 17.167 931.163 16.3651C930.982 16.3651 930.801 16.3651 930.615 16.3651C930.583 16.5543 930.552 16.7432 930.519 16.9382C930.319 17.8285 930.023 18.634 929.692 19.4848C929.627 19.6532 929.562 19.8217 929.495 19.9951C929.282 20.5433 929.067 21.0907 928.852 21.6382C928.78 21.8247 928.707 22.0112 928.632 22.2034C927.615 24.8081 926.574 27.4017 925.498 29.9827C925.383 30.2598 925.268 30.5369 925.149 30.8225C924.715 31.8535 924.518 32.3218 924.378 32.5847C924.212 32.8973 923.846 33.0246 923.491 33.0273C923.271 33.0289 923.05 33.0292 922.83 33.0281C922.402 33.0262 922.017 32.7698 921.847 32.3786C920.138 28.457 918.52 24.5007 916.916 20.5346C916.784 20.2091 916.784 20.2091 916.65 19.8768C916.483 19.4646 916.317 19.0523 916.151 18.6397C915.744 17.627 915.744 17.627 915.283 16.6381C915.254 16.8199 915.225 17.0015 915.195 17.1888C914.892 19.0807 914.584 20.9717 914.275 22.8625C914.16 23.568 914.046 24.2738 913.933 24.9799C913.771 25.9947 913.605 27.0093 913.438 28.0234C913.388 28.339 913.338 28.6544 913.287 28.9795C913.238 29.2744 913.189 29.5696 913.138 29.8737C913.096 30.1326 913.054 30.3914 913.011 30.6582C912.851 31.2599 912.65 31.7358 912.356 32.2169C912.141 32.568 911.775 32.8072 911.366 32.8602C911.096 32.8951 910.89 32.8875 910.337 32.8667C910.046 32.8607 909.755 32.8547 909.455 32.8484C909.059 32.7947 908.874 32.7693 908.705 32.6751C908.303 32.4512 908.172 31.9401 908.206 31.4825C908.382 29.1322 908.9 26.8067 909.334 24.4933C909.424 24.0119 909.513 23.5309 909.603 23.0495C909.791 22.0453 909.979 21.0413 910.168 20.0377C910.409 18.7547 910.648 17.4711 910.885 16.1873C911.069 15.1951 911.255 14.2032 911.442 13.2115C911.53 12.7383 911.618 12.2652 911.706 11.7918C911.828 11.1297 911.953 10.4682 912.079 9.80678C912.114 9.61369 912.149 9.42059 912.185 9.22166C912.385 8.18732 912.684 7.28295 913.081 6.3533Z" fill="white"/>
<path d="M1024.59 5.52051C1025.39 5.5335 1025.66 5.68567 1026.28 6.21164C1026.93 6.93436 1027.55 7.67661 1028.15 8.43857C1028.57 8.95649 1029 9.47413 1029.42 9.99145C1029.62 10.2431 1029.83 10.4948 1030.04 10.754C1030.53 11.3366 1031.03 11.8698 1031.58 12.3976C1032.33 13.1266 1032.99 13.8982 1033.65 14.7184C1035 16.3918 1036.46 17.9415 1037.94 19.5038C1040.39 22.096 1040.39 22.096 1041.29 23.4555C1041.3 23.2521 1041.3 23.0487 1041.3 22.839C1041.33 20.9228 1041.36 19.0064 1041.39 17.0899C1041.4 16.1048 1041.42 15.1197 1041.43 14.1343C1041.44 13.1836 1041.46 12.2329 1041.47 11.2824C1041.48 10.7429 1041.49 10.2034 1041.5 9.66389C1041.5 9.33598 1041.51 9.00806 1041.51 8.67021C1041.52 8.38101 1041.52 8.09179 1041.53 7.79382C1041.55 7.33764 1041.56 7.17032 1041.64 6.90097C1041.75 6.48162 1042.06 6.11944 1042.48 6.02347C1042.92 5.92323 1043.35 5.9457 1043.9 5.94712C1044.16 5.94641 1044.43 5.94571 1044.71 5.945C1045.24 5.97298 1045.37 5.97937 1045.65 6.10652C1045.83 6.19212 1045.95 6.38461 1045.95 6.59108C1045.96 9.92723 1045.96 13.2634 1045.96 16.5996C1045.96 18.2006 1045.97 19.8017 1045.97 21.4028C1045.97 22.9465 1045.97 24.4903 1045.98 26.0337C1045.98 26.6243 1045.98 27.2146 1045.98 27.8049C1045.98 28.6289 1045.98 29.4527 1045.98 30.2764C1045.98 30.5232 1045.98 30.7698 1045.98 31.024C1045.98 32.7075 1045.98 32.7075 1045.68 33.0117C1044.97 33.0906 1044.82 33.1075 1044.29 33.0619C1043.94 33.0324 1043.62 32.894 1043.36 32.6603C1043.08 32.3971 1042.97 32.2475 1042.56 31.6806C1041.76 30.6254 1040.96 29.6149 1040.06 28.6431C1039.22 27.7159 1038.41 26.7696 1037.62 25.7932C1036.77 24.7548 1035.9 23.7555 1035 22.7729C1033.87 21.5552 1032.82 20.297 1031.78 19.0091C1030.95 18.0125 1030.08 17.0599 1029.21 16.1092C1028.7 15.5375 1028.7 15.5375 1028.15 14.7184C1028.15 14.9321 1028.15 15.1457 1028.15 15.366C1028.13 17.3788 1028.11 19.3914 1028.09 21.4042C1028.08 22.439 1028.06 23.4738 1028.06 24.5086C1028.05 25.5071 1028.04 26.5055 1028.03 27.504C1028.02 27.8852 1028.02 28.2663 1028.02 28.6472C1028.01 29.1807 1028.01 29.7142 1028 30.2475C1027.99 30.5514 1027.99 30.855 1027.99 31.1682C1027.89 31.8161 1027.88 31.9053 1027.64 32.2431C1027.55 32.3657 1027.44 32.4746 1027.31 32.5494C1026.74 32.8749 1026.25 32.8364 1025.53 32.8238C1025.27 32.823 1025 32.8219 1024.73 32.8208C1024.2 32.7567 1024.08 32.7427 1023.79 32.4809C1023.6 32.301 1023.49 32.0465 1023.47 31.7811C1023.44 31.095 1023.43 30.4206 1023.43 29.7287C1023.43 29.4734 1023.43 29.2181 1023.43 28.9552C1023.43 28.1085 1023.43 27.2618 1023.43 26.4152C1023.44 25.829 1023.44 25.2428 1023.44 24.6566C1023.44 23.4268 1023.44 22.1973 1023.44 20.9676C1023.45 19.3878 1023.45 17.808 1023.45 16.228C1023.45 15.0173 1023.45 13.8067 1023.45 12.5958C1023.45 12.0131 1023.45 11.4304 1023.45 10.8477C1023.45 10.035 1023.46 9.22237 1023.46 8.40971C1023.46 8.16646 1023.46 7.92319 1023.46 7.67257C1023.47 5.77768 1023.47 5.77768 1024.59 5.52051Z" fill="white"/>
<path d="M1069.5 5.93764C1069.84 5.93371 1069.84 5.93371 1070.18 5.9297C1070.43 5.92853 1070.68 5.92738 1070.93 5.92618C1071.18 5.92462 1071.44 5.92307 1071.7 5.92145C1072.24 5.91886 1072.78 5.91709 1073.32 5.91605C1074.14 5.9134 1074.95 5.90494 1075.77 5.89631C1076.3 5.89453 1076.82 5.89308 1077.35 5.89205C1077.59 5.88866 1077.83 5.8853 1078.08 5.88184C1080.8 5.89139 1083.31 6.61575 1085.37 8.43894C1087.06 10.4784 1088 12.6723 1087.79 15.3374C1087.33 18.0023 1085.6 19.9834 1083.46 21.5446C1083.09 21.7305 1082.73 21.9129 1082.36 22.0907C1082.49 22.3249 1082.62 22.5589 1082.75 22.8003C1083.24 23.6713 1083.72 24.5425 1084.2 25.4135C1084.41 25.7903 1084.62 26.1668 1084.83 26.5433C1085.13 27.0856 1085.43 27.6278 1085.73 28.1701C1085.82 28.3374 1085.92 28.5051 1086.01 28.6776C1086.26 29.1205 1086.5 29.5645 1086.74 30.0087C1086.85 30.2115 1086.97 30.4147 1087.08 30.6238C1087.33 31.189 1087.31 31.5087 1087.18 31.9966C1087.13 32.2162 1087.02 32.4327 1086.84 32.5651C1086.67 32.6839 1086.44 32.7483 1085.88 32.7658C1085.52 32.7625 1085.17 32.7592 1084.81 32.756C1084.28 32.7524 1084.28 32.7524 1083.74 32.7486C1083.67 32.7478 1083.6 32.7469 1083.53 32.7461C1083.15 32.7418 1082.79 32.5345 1082.6 32.2003C1081.31 29.9644 1080.08 27.7062 1078.92 25.4012C1078.8 25.1626 1078.68 24.9242 1078.56 24.6785C1078.44 24.456 1078.33 24.2334 1078.22 24.0041C1078.12 23.8059 1078.02 23.6079 1077.92 23.4037C1077.71 22.9098 1077.71 22.3637 1077.71 22.3637C1075.9 22.3637 1074.09 22.3637 1072.23 22.3637C1072.24 23.067 1072.24 23.7701 1072.25 24.4947C1072.25 25.1741 1072.26 25.8536 1072.26 26.5332C1072.26 27.0061 1072.27 27.4793 1072.27 27.9522C1072.28 28.6312 1072.28 29.3103 1072.28 29.9896C1072.29 30.2017 1072.29 30.4139 1072.29 30.6326C1072.29 30.9815 1072.28 31.3304 1072.26 31.6791C1072.24 32.0103 1072.11 32.3368 1071.86 32.5485C1071.62 32.7453 1071.46 32.7603 1070.93 32.8117C1070.64 32.81 1070.34 32.8087 1070.04 32.8073C1069.6 32.8095 1069.6 32.8095 1069.15 32.8117C1068.56 32.7551 1068.43 32.7426 1068.15 32.4813C1067.95 32.3022 1067.84 32.0463 1067.83 31.7807C1067.79 31.1019 1067.78 30.4346 1067.79 29.7498C1067.79 29.4967 1067.79 29.2436 1067.79 28.9832C1067.79 28.1439 1067.79 27.3048 1067.8 26.4655C1067.8 25.8848 1067.8 25.304 1067.8 24.7233C1067.8 23.1926 1067.81 21.662 1067.81 20.1314C1067.82 18.5704 1067.82 17.0092 1067.82 15.4483C1067.83 12.3837 1067.84 9.31918 1067.85 6.25467C1068.47 5.94652 1068.81 5.94403 1069.5 5.93764ZM1072.23 10.0772C1072.23 12.9604 1072.23 15.8436 1072.23 18.8143C1073.86 18.8397 1073.86 18.8397 1075.52 18.8656C1076.02 18.8765 1076.02 18.8765 1076.54 18.888C1078.7 18.9044 1080.35 18.7703 1082.05 17.3295C1083.01 16.1844 1083.31 15.4595 1083.27 13.9242C1083.06 12.5268 1082.36 11.6648 1081.28 10.7939C1080 10.1169 1078.88 10.0432 1077.44 10.0505C1077.03 10.0515 1077.03 10.0515 1076.61 10.0525C1076.27 10.055 1075.92 10.0575 1075.57 10.0601C1073.92 10.0685 1073.92 10.0685 1072.23 10.0772Z" fill="white"/>
<path d="M998.826 7.06811C999.012 6.3222 999.771 5.88234 1000.54 5.88005C1000.64 5.87978 1000.75 5.87983 1000.87 5.87992C1001.2 5.87822 1001.52 5.8765 1001.85 5.87476C1002.2 5.87727 1002.55 5.87978 1002.91 5.88237C1003.26 5.88224 1003.62 5.8821 1003.99 5.88196C1004.74 5.88199 1005.5 5.88486 1006.25 5.88977C1007.22 5.89597 1008.19 5.89613 1009.16 5.89428C1010.08 5.89316 1011 5.89641 1011.92 5.89944C1012.27 5.89919 1012.62 5.89895 1012.98 5.8987C1013.3 5.90129 1013.62 5.90389 1013.96 5.90659C1014.24 5.90785 1014.52 5.9091 1014.82 5.91039C1015.39 5.97086 1015.48 5.97996 1015.83 6.31614C1015.96 6.45089 1016.05 6.63385 1016.06 6.82715C1016.1 7.30871 1016.1 7.4239 1016.09 8.18291C1016.09 8.4789 1016.09 8.7749 1016.09 9.07988C1016.05 9.64777 1016.04 9.77033 1015.91 9.92844C1015.82 10.0297 1015.69 10.0823 1015.56 10.0889C1015.24 10.1046 1014.92 10.109 1014.6 10.1081C1014.36 10.1081 1014.11 10.108 1013.86 10.108C1013.59 10.1066 1013.32 10.1052 1013.04 10.1038C1012.77 10.1034 1012.5 10.103 1012.22 10.1026C1011.34 10.1011 1010.46 10.0976 1009.59 10.0942C1009 10.0928 1008.4 10.0915 1007.81 10.0904C1006.36 10.0876 1004.9 10.0823 1003.44 10.0771C1003.44 12.4197 1003.44 14.7624 1003.44 17.176C1004.19 17.1727 1004.94 17.1697 1005.71 17.1664C1006.43 17.1642 1007.15 17.1626 1007.87 17.161C1008.38 17.1596 1008.88 17.1577 1009.38 17.1555C1010.1 17.152 1010.83 17.1506 1011.55 17.1492C1011.77 17.1479 1012 17.1465 1012.23 17.1451C1012.7 17.1451 1013.17 17.1555 1013.63 17.1694C1013.77 17.1735 1013.91 17.2251 1014 17.3333C1014.12 17.4905 1014.13 17.6306 1014.16 18.2425C1014.16 18.5663 1014.16 18.8901 1014.16 19.2237C1014.16 19.7095 1014.16 19.7095 1014.16 20.205C1014.14 20.7022 1014.13 20.8879 1014.06 21.0244C1013.96 21.2095 1013.73 21.2753 1013.52 21.2808C1012.86 21.2974 1012.21 21.3024 1011.55 21.2983C1011.32 21.2977 1011.09 21.2974 1010.85 21.2969C1010.11 21.2955 1009.37 21.292 1008.63 21.2887C1008.13 21.2873 1007.63 21.286 1007.13 21.2849C1005.9 21.2822 1004.67 21.2767 1003.44 21.2715C1003.44 23.7042 1003.44 26.137 1003.44 28.6434C1004.33 28.6402 1005.22 28.6372 1006.13 28.6339C1006.98 28.6317 1007.84 28.6301 1008.69 28.6284C1009.29 28.6271 1009.89 28.6251 1010.48 28.623C1011.34 28.6197 1012.19 28.618 1013.04 28.6167C1013.45 28.6148 1013.45 28.6148 1013.86 28.6126C1014.23 28.6126 1014.23 28.6126 1014.6 28.6123C1014.82 28.6118 1015.04 28.6112 1015.26 28.6107C1015.58 28.6314 1015.7 28.6391 1015.81 28.7103C1015.98 28.8176 1016.05 29.0262 1016.06 29.2253C1016.08 29.6624 1016.09 30.1001 1016.09 30.5378C1016.09 30.8329 1016.1 31.1283 1016.1 31.4325C1016.06 31.8104 1016.05 32.1096 1015.92 32.3474C1015.74 32.6917 1015.29 32.7698 1014.9 32.796C1014.68 32.8108 1014.48 32.8116 1013.98 32.814C1013.67 32.8165 1013.35 32.8192 1013.03 32.822C1012.69 32.8217 1012.35 32.8214 1011.99 32.8211C1011.47 32.8228 1011.47 32.8228 1010.93 32.8247C1010.19 32.8263 1009.45 32.8266 1008.71 32.8252C1007.76 32.8236 1006.81 32.8282 1005.86 32.8345C1004.96 32.8394 1004.05 32.8386 1003.15 32.8381C1002.8 32.8408 1002.46 32.8433 1002.11 32.8457C1001.8 32.8441 1001.48 32.8424 1001.15 32.8405C1000.88 32.8408 1000.6 32.8411 1000.31 32.8411C999.485 32.7204 999.3 32.559 998.79 31.9199C998.71 31.1057 998.681 30.3485 998.688 29.5341C998.687 29.2903 998.686 29.0464 998.685 28.7952C998.683 27.9882 998.687 27.1811 998.691 26.374C998.691 25.8137 998.691 25.2537 998.69 24.6937C998.69 23.5194 998.693 22.3454 998.698 21.171C998.704 19.6642 998.704 18.1575 998.702 16.6509C998.702 15.4944 998.704 14.3378 998.706 13.1812C998.707 12.6256 998.707 12.07 998.707 11.5142C998.707 10.7383 998.71 9.96244 998.715 9.18653C998.714 8.84054 998.714 8.84054 998.713 8.48759C998.718 7.90419 998.723 7.48069 998.826 7.06811Z" fill="white"/>
<path d="M969.51 5.77775C969.51 5.77775 971.195 5.72514 971.694 6.33515C971.699 6.34083 971.704 6.34659 971.708 6.35246C972.482 7.65372 973.169 8.96797 973.792 10.3468C973.887 10.5535 973.982 10.7601 974.08 10.973C974.383 11.6353 974.685 12.2987 974.986 12.9619C975.194 13.4178 975.402 13.8735 975.611 14.3292C976.018 15.2212 976.425 16.1138 976.83 17.0066C977.295 18.0283 977.763 19.0484 978.234 20.0673C978.458 20.5544 978.681 21.0412 978.905 21.5283C979.004 21.7427 979.104 21.957 979.206 22.1776C979.579 22.9983 980.033 24.4976 980.033 24.4976C980.214 24.4976 980.207 24.4976 980.394 24.4976C980.441 24.3466 980.489 24.1953 980.538 24.0394C981.012 22.5711 981.57 21.1786 982.227 19.7825C982.322 19.5761 982.418 19.37 982.516 19.1576C982.823 18.4968 983.131 17.8369 983.44 17.177C983.86 16.2721 984.28 15.3668 984.7 14.4616C984.803 14.2416 984.905 14.0215 985.01 13.7949C985.91 11.8574 986.789 9.91098 987.646 7.95422C988.125 6.87287 988.239 6.61597 988.535 6.28699C988.749 6.04868 989.056 5.91353 989.376 5.88869C989.758 5.85909 989.942 5.85991 990.661 5.86307C990.98 5.86165 991.299 5.86026 991.628 5.85881C992.22 5.91162 992.38 5.92598 992.636 6.14075C992.873 6.3405 992.984 6.65493 992.942 6.96182C992.773 8.20066 992.233 9.25657 991.675 10.3959C991.569 10.6153 991.464 10.8347 991.355 11.0607C991.011 11.775 990.665 12.4879 990.319 13.2008C989.96 13.9451 989.602 14.6894 989.244 15.4339C989.005 15.9311 988.766 16.4283 988.526 16.9255C987.531 18.9918 986.558 21.0677 985.596 23.1496C984.191 26.1833 982.755 29.2017 981.303 32.2133C981.082 32.6709 980.624 32.9617 980.114 32.9617C979.617 32.9617 979.155 32.6848 978.93 32.2428C977.331 29.0977 975.842 25.9034 974.36 22.7007C973.643 21.1499 972.922 19.6007 972.201 18.0515C971.848 17.2938 971.496 16.5362 971.143 15.7785C970.912 15.2813 970.681 14.7841 970.449 14.2872C970.121 13.5827 969.794 12.8783 969.466 12.1739C969.369 11.9659 969.273 11.7579 969.173 11.5437C968.988 11.1468 968.805 10.7493 968.623 10.3512C968.428 9.93036 968.228 9.51199 968.024 9.09553C967.921 8.87992 967.818 8.6643 967.712 8.44219C967.57 8.15184 967.57 8.15184 967.425 7.85563C967.303 7.46431 967.277 7.18538 967.324 6.89042C967.398 6.42462 967.689 5.98094 968.147 5.86542C968.574 5.7579 969.061 5.80137 969.51 5.77775Z" fill="white"/>
<path d="M954.706 5.63487C954.938 5.5499 955.198 5.54392 955.426 5.63839C956.122 5.92529 956.335 6.4306 956.774 7.16411C957.619 8.71328 958.348 10.3194 959.088 11.9202C959.27 12.31 959.452 12.6999 959.633 13.0898C960.004 13.8852 960.374 14.6808 960.743 15.4767C961.235 16.5366 961.729 17.5957 962.223 18.6543C962.807 19.9061 963.39 21.1591 963.971 22.4129C964.493 23.54 965.022 24.664 965.558 25.7851C965.796 26.2826 966.032 26.7806 966.268 27.2789C966.563 27.9017 966.86 28.5231 967.161 29.1432C967.291 29.4203 967.422 29.6974 967.557 29.983C967.673 30.226 967.789 30.469 967.909 30.7197C968.013 31.0369 968.073 31.278 968.081 31.5071C968.105 32.1493 967.539 32.6752 966.9 32.7541C966.566 32.7956 966.224 32.7876 965.813 32.7904C965.548 32.7942 965.283 32.798 965.01 32.8018C964.512 32.7584 964.359 32.7451 964.04 32.5605C963.654 32.3369 963.353 31.9909 963.149 31.595C963.008 31.3209 962.908 31.0989 962.635 30.4854C962.556 30.3104 962.477 30.1354 962.395 29.9552C962.135 29.3766 961.878 28.7967 961.621 28.217C961.441 27.8151 961.26 27.4138 961.08 27.0124C960.701 26.1704 960.323 25.3278 959.946 24.4852C959.083 22.5581 958.205 20.6382 957.327 18.7176C956.887 17.7544 956.448 16.7905 956.009 15.827C955.863 15.5067 955.717 15.1867 955.567 14.8569C955.464 14.6311 955.361 14.4053 955.255 14.1727C953.664 17.2894 952.171 20.4421 950.72 23.6265C948.201 29.1568 947.325 31.0782 946.844 31.9232C946.514 32.5007 945.853 32.7669 945.187 32.7819C944.989 32.7866 944.792 32.789 944.594 32.7904C944.298 32.7942 944.002 32.798 943.697 32.8018C943.607 32.7945 943.528 32.7879 943.457 32.7814C942.657 32.706 942.395 31.7253 942.594 30.9496C942.76 30.2987 943.01 29.6868 943.321 29.0296C943.529 28.5878 943.529 28.5878 943.741 28.137C943.893 27.8198 944.045 27.5028 944.201 27.176C944.36 26.8379 944.52 26.4999 944.679 26.1616C945.017 25.4452 945.356 24.7293 945.696 24.014C946.474 22.3747 947.245 20.7318 948.016 19.0892C948.273 18.5415 948.531 17.9944 948.789 17.4469C949.65 15.6165 950.509 13.7847 951.359 11.949C951.441 11.771 951.524 11.5931 951.609 11.4098C952 10.5648 952.391 9.71947 952.781 8.87358C952.919 8.57635 953.057 8.27913 953.198 7.97289C953.378 7.58231 953.378 7.58231 953.562 7.18385C954.14 6.01288 954.243 5.80385 954.706 5.63487Z" fill="white"/>
<path d="M909.358 38.4748C909.609 38.474 909.859 38.4735 910.117 38.4729C910.394 38.4735 910.671 38.4737 910.957 38.4743C911.247 38.4737 911.537 38.4735 911.836 38.4732C912.799 38.4721 913.763 38.4727 914.727 38.4735C915.393 38.4735 916.06 38.4732 916.726 38.4729C918.125 38.4727 919.524 38.4729 920.923 38.474C922.721 38.4751 924.518 38.4746 926.316 38.4732C927.693 38.4724 929.069 38.4727 930.446 38.4732C931.109 38.4735 931.772 38.4732 932.435 38.4727C933.36 38.4721 934.285 38.4729 935.21 38.4743C935.487 38.4737 935.764 38.4735 936.049 38.4729C936.425 38.4737 936.425 38.4737 936.808 38.4748C937.027 38.4748 937.246 38.4748 937.472 38.4751C937.624 38.4833 937.729 38.489 937.811 38.4991C938.122 38.5376 938.255 38.895 938.265 39.2074C938.274 39.5085 938.278 39.8097 938.277 40.1106C938.278 40.4923 938.278 40.4923 938.279 40.8816C938.26 41.212 938.251 41.3671 938.206 41.4722C938.117 41.6789 937.849 41.727 937.623 41.7343C937.352 41.7436 937.08 41.7466 936.808 41.7466C936.558 41.7472 936.307 41.7477 936.049 41.7485C935.772 41.748 935.495 41.7477 935.21 41.7472C934.92 41.7474 934.63 41.748 934.331 41.7483C933.367 41.7493 932.404 41.7485 931.44 41.748C930.773 41.748 930.107 41.7482 929.44 41.7485C928.041 41.7488 926.643 41.7482 925.244 41.7474C923.446 41.7461 921.649 41.7469 919.851 41.7483C918.474 41.7488 917.097 41.7485 915.72 41.748C915.057 41.748 914.394 41.7482 913.731 41.7485C912.807 41.7491 911.882 41.7483 910.957 41.7472C910.68 41.7477 910.403 41.748 910.117 41.7485C909.742 41.7474 909.742 41.7474 909.358 41.7466C909.139 41.7466 908.921 41.7463 908.695 41.7463C908.543 41.7381 908.437 41.7324 908.356 41.7223C908.045 41.6835 907.912 41.3264 907.902 41.0138C907.892 40.7129 907.889 40.4117 907.89 40.1106C907.889 39.8564 907.888 39.6019 907.888 39.3398C907.943 38.3809 908.249 38.4751 909.358 38.4748Z" fill="white"/>
<path d="M1056.02 5.90869C1056.31 5.91008 1056.61 5.9115 1056.91 5.91295C1057.35 5.91085 1057.35 5.91085 1057.8 5.90869C1058.55 5.98121 1058.55 5.98121 1059.1 6.52728C1059.15 7.33877 1059.17 8.12481 1059.17 8.93659C1059.17 9.18612 1059.17 9.43564 1059.17 9.69276C1059.18 10.5204 1059.17 11.348 1059.17 12.1758C1059.17 12.7489 1059.17 13.3223 1059.17 13.8957C1059.17 15.0984 1059.17 16.3011 1059.17 17.5038C1059.17 19.0484 1059.17 20.5927 1059.17 22.1369C1059.17 23.3211 1059.17 24.5055 1059.17 25.6897C1059.17 26.2592 1059.17 26.8288 1059.17 27.3983C1059.18 28.1934 1059.17 28.9882 1059.17 29.7833C1059.17 30.0203 1059.17 30.2575 1059.17 30.5019C1059.17 31.2626 1059.17 31.6678 1059.1 31.9457C1058.96 32.5633 1058.21 32.7984 1057.57 32.8071C1057.41 32.8093 1057.21 32.8082 1056.91 32.8069C1056.47 32.809 1056.47 32.8091 1056.02 32.8112C1055.62 32.7725 1055.43 32.7544 1055.26 32.663C1054.85 32.444 1054.7 31.9381 1054.68 31.4758C1054.65 30.9126 1054.65 30.3542 1054.65 29.7833C1054.65 29.5337 1054.65 29.2842 1054.64 29.027C1054.64 28.1994 1054.64 27.3718 1054.65 26.544C1054.65 25.9709 1054.64 25.3975 1054.64 24.8242C1054.64 23.6214 1054.64 22.4187 1054.65 21.216C1054.65 19.6714 1054.65 18.1272 1054.65 16.5829C1054.64 15.3987 1054.64 14.2143 1054.65 13.0301C1054.65 12.4606 1054.65 11.891 1054.64 11.3214C1054.64 10.5264 1054.64 9.73156 1054.65 8.93659C1054.65 8.69943 1054.65 8.46225 1054.64 8.21791C1054.66 6.03961 1054.66 6.03961 1056.02 5.90869Z" fill="white"/>
</g>
<g clip-path="url(#clip4_1724_2715)">
<path d="M1218.42 9.31539C1219.73 10.2268 1220.94 11.3982 1221.57 12.8845C1221.57 13.1103 1221.57 13.3362 1221.57 13.5689C1221.28 13.7227 1220.99 13.8744 1220.7 14.0252C1220.54 14.1099 1220.37 14.1946 1220.21 14.2818C1219.74 14.4814 1219.74 14.4814 1219.06 14.4814C1218.69 14.0483 1218.69 14.0483 1218.33 13.4833C1218.21 13.2981 1218.09 13.1128 1217.96 12.9219C1217.69 12.4282 1217.69 12.4282 1217.69 11.9719C1217.38 11.819 1217.08 11.6671 1216.78 11.5157C1216.62 11.4351 1216.46 11.3545 1216.29 11.2715C1214.32 10.3722 1212.32 10.2463 1210.26 10.9881C1209.2 11.4714 1208.63 12.0707 1208.11 13.1126C1207.99 14.2763 1207.98 15.3015 1208.42 16.3921C1210.16 18.1328 1212.7 18.5491 1215.01 19.0963C1217.53 19.7271 1219.88 20.6643 1221.34 22.9225C1222.14 24.5115 1222.29 26.1913 1221.86 27.9112C1221.16 30.0166 1220.13 31.2703 1218.14 32.2761C1216.6 32.8736 1215.15 33.0797 1213.5 33.0603C1213.29 33.0584 1213.08 33.0566 1212.86 33.0546C1210.23 32.9891 1208.03 32.246 1206.05 30.451C1205.03 29.2683 1204.3 28.1142 1204 26.5727C1204.83 26.1963 1205.66 25.8198 1206.51 25.432C1206.7 25.8179 1206.9 26.2037 1207.09 26.6012C1207.74 27.7753 1208.35 28.5831 1209.48 29.3103C1209.68 29.4511 1209.68 29.4511 1209.9 29.5946C1211.72 30.61 1214.13 30.5043 1216.12 30.0643C1217.38 29.6172 1218.1 29.0488 1218.83 27.9415C1219.24 26.7102 1219.22 25.6372 1218.69 24.4624C1217.65 22.6319 1215.71 22.308 1213.81 21.7818C1213.47 21.6912 1213.13 21.6009 1212.78 21.5109C1207.39 20.0824 1207.39 20.0824 1205.83 17.6754C1204.94 15.8859 1204.9 14.1707 1205.5 12.2856C1206.28 10.3359 1207.54 9.42093 1209.4 8.5374C1212.16 7.41795 1215.92 7.79108 1218.42 9.31539Z" fill="white"/>
<path d="M1326.74 8.5498C1327.56 8.5498 1328.39 8.5498 1329.24 8.5498C1329.24 16.4548 1329.24 24.3597 1329.24 32.5042C1328.42 32.5042 1327.59 32.5042 1326.74 32.5042C1326.62 31.6008 1326.62 31.6008 1326.51 30.6791C1326.39 30.7864 1326.28 30.8938 1326.16 31.0044C1324.29 32.7176 1323.04 33.099 1320.5 33.0389C1318.58 32.8589 1317.02 31.9176 1315.78 30.451C1314.5 28.3228 1314.14 26.7024 1314.13 24.2627C1314.13 24.0357 1314.12 23.8087 1314.12 23.5748C1314.1 20.9268 1314.78 18.7533 1316.63 16.8109C1318.31 15.277 1319.95 14.9974 1322.18 15.0704C1324.13 15.2761 1325.14 16.0817 1326.51 17.4471C1326.58 14.511 1326.66 11.5749 1326.74 8.5498ZM1317.98 18.93C1316.57 21.0404 1316.42 23.7147 1316.81 26.1565C1317.16 27.7484 1317.59 29.0431 1318.91 30.0651C1320.21 30.85 1321.6 30.8692 1323.09 30.6791C1324.52 30.318 1325.22 29.4987 1326 28.2863C1327.08 26.077 1327.09 23.0963 1326.49 20.7266C1325.96 19.267 1325.01 18.2329 1323.68 17.4471C1321.55 16.8572 1319.47 17.1648 1317.98 18.93Z" fill="white"/>
<path d="M1238.19 15.9392C1240.15 17.4319 1241.16 19.4295 1241.57 21.8298C1241.94 25.0609 1241.62 28.2688 1239.59 30.9071C1238.41 32.2143 1237.12 32.8646 1235.37 33.0406C1233.49 33.1124 1232 32.9537 1230.46 31.8197C1230.09 31.4433 1229.71 31.0668 1229.32 30.679C1229.25 33.5398 1229.17 36.4007 1229.09 39.3482C1228.27 39.3482 1227.44 39.3482 1226.58 39.3482C1226.58 31.5185 1226.58 23.6889 1226.58 15.622C1227.34 15.622 1228.09 15.622 1228.87 15.622C1228.94 16.3748 1229.02 17.1277 1229.09 17.9033C1229.31 17.621 1229.54 17.3387 1229.76 17.0478C1231.84 14.7228 1235.51 14.3336 1238.19 15.9392ZM1229.89 19.4272C1228.57 21.4888 1228.6 24.1934 1229.02 26.5298C1229.42 28.0693 1230.26 29.3509 1231.6 30.2227C1233.07 30.9169 1234.71 30.9205 1236.25 30.4366C1237.92 29.2084 1238.67 27.775 1239.06 25.7741C1239.29 23.244 1239.14 20.6746 1237.53 18.5877C1236.32 17.4459 1235.14 17.1281 1233.51 17.1574C1231.96 17.3344 1230.85 18.2388 1229.89 19.4272Z" fill="white"/>
<path d="M1359.14 15.0516C1359.34 15.0474 1359.53 15.0432 1359.72 15.0388C1361.41 15.0557 1362.68 15.5928 1364.11 16.4775C1365.24 17.6491 1365.76 19.1338 1365.79 20.7499C1365.79 20.95 1365.8 21.1502 1365.8 21.3564C1365.8 21.5706 1365.81 21.7847 1365.81 22.0053C1365.82 22.3368 1365.82 22.3368 1365.82 22.675C1365.84 23.6202 1365.86 24.5654 1365.87 25.5107C1365.88 26.2006 1365.9 26.8905 1365.91 27.5804C1365.91 27.796 1365.92 28.0115 1365.92 28.2336C1365.92 28.4316 1365.93 28.6296 1365.93 28.8336C1365.93 29.0086 1365.94 29.1837 1365.94 29.3641C1365.93 29.7724 1365.93 29.7724 1366.2 29.9946C1366.58 30.042 1366.96 30.0784 1367.34 30.1087C1368.46 30.1974 1368.46 30.1974 1368.71 30.4509C1368.73 30.7975 1368.73 31.1448 1368.73 31.4917C1368.72 31.6803 1368.72 31.8688 1368.72 32.063C1368.72 32.2086 1368.71 32.3541 1368.71 32.5041C1368.13 32.5227 1367.54 32.5362 1366.96 32.5469C1366.79 32.5526 1366.63 32.5583 1366.46 32.5643C1365.41 32.5786 1364.74 32.4903 1363.92 31.8197C1363.6 31.3025 1363.44 30.8034 1363.24 30.2227C1363.14 30.3439 1363.05 30.4651 1362.96 30.5899C1361.99 31.7966 1361.12 32.6156 1359.59 32.9604C1357.62 33.1532 1355.55 33.2666 1353.88 32.0478C1352.95 31.1735 1352.34 30.4277 1352.23 29.115C1352.19 27.2784 1352.3 26.0048 1353.53 24.6013C1356.02 22.23 1359.92 21.4872 1363.24 21.5535C1363.15 21.1154 1363.05 20.6783 1362.95 20.2417C1362.87 19.8765 1362.87 19.8765 1362.79 19.5039C1362.53 18.7442 1362.25 18.4092 1361.64 17.9033C1360.2 17.2171 1358.51 17.2177 1357 17.718C1355.73 18.267 1354.99 19.2102 1354.34 20.4128C1353.96 20.3105 1353.59 20.2054 1353.21 20.0992C1352.9 20.0118 1352.9 20.0118 1352.58 19.9227C1352.06 19.7284 1352.06 19.7284 1351.83 19.2722C1352.56 17.574 1353.89 16.357 1355.52 15.5364C1356.71 15.1005 1357.89 15.0689 1359.14 15.0516ZM1355.57 26.004C1354.98 26.6378 1354.8 27.1196 1354.79 27.9806C1354.84 28.7853 1354.94 29.3883 1355.34 30.0944C1356.55 30.8181 1358.04 31.0641 1359.43 30.7646C1360.79 30.257 1361.74 29.6131 1362.55 28.3976C1363 27.2965 1363.1 26.2891 1363.15 25.1182C1363.16 24.9502 1363.17 24.7823 1363.18 24.6093C1363.2 24.1992 1363.22 23.7889 1363.24 23.3786C1360.53 23.277 1357.56 24.1403 1355.57 26.004Z" fill="white"/>
<path d="M1256.03 15.7764C1257.4 16.7108 1258.08 17.9097 1258.52 19.5005C1258.62 20.3064 1258.63 21.1053 1258.63 21.9165C1258.63 22.1412 1258.64 22.366 1258.64 22.5975C1258.65 23.3095 1258.66 24.0214 1258.66 24.7334C1258.67 25.4511 1258.68 26.1688 1258.69 26.8864C1258.7 27.3318 1258.7 27.7771 1258.71 28.2224C1258.71 28.4221 1258.71 28.6217 1258.71 28.8274C1258.72 29.0037 1258.72 29.1801 1258.72 29.3618C1258.71 29.7724 1258.71 29.7724 1258.98 29.9948C1259.36 30.0422 1259.74 30.0786 1260.12 30.1089C1261.23 30.1976 1261.23 30.1976 1261.49 30.4511C1261.5 30.7977 1261.51 31.145 1261.5 31.492C1261.5 31.6805 1261.5 31.869 1261.5 32.0632C1261.49 32.2088 1261.49 32.3544 1261.49 32.5043C1260.9 32.5291 1260.32 32.5471 1259.73 32.5614C1259.57 32.569 1259.41 32.5767 1259.24 32.5845C1258.35 32.6007 1257.94 32.5659 1257.17 32.0837C1256.67 31.5602 1256.45 31.1396 1256.24 30.4511C1256.14 30.5393 1256.05 30.6276 1255.95 30.7185C1253.84 32.5922 1251.96 33.166 1249.16 33.0113C1247.92 32.8711 1246.91 32.3163 1246.05 31.4207C1245.11 30.1895 1244.92 29.0053 1245.06 27.4853C1245.38 25.9855 1246.19 24.8239 1247.34 23.8351C1248.98 22.8028 1250.71 22.1933 1252.59 21.7819C1252.94 21.7043 1252.94 21.7043 1253.3 21.6251C1254.21 21.5268 1255.1 21.5356 1256.01 21.5538C1255.95 20.1913 1255.84 19.1717 1254.87 18.1317C1253.47 17.2779 1251.84 17.2361 1250.26 17.5462C1249.03 17.9257 1248.27 18.6581 1247.57 19.7287C1247.5 19.9545 1247.42 20.1804 1247.34 20.4131C1247.01 20.3425 1246.68 20.2711 1246.35 20.1992C1246.07 20.1397 1246.07 20.1397 1245.78 20.0789C1245.29 19.9568 1245.29 19.9568 1244.83 19.7287C1244.91 18.4936 1245.61 17.6365 1246.43 16.7629C1248.88 14.7901 1253.18 14.3658 1256.03 15.7764ZM1248.21 26.088C1247.67 27.0209 1247.57 27.5432 1247.57 28.626C1247.85 29.4311 1248.1 29.8581 1248.74 30.4083C1250.3 31.0531 1251.64 30.9851 1253.22 30.4377C1254.59 29.8603 1255.15 28.9912 1255.78 27.7135C1256.09 26.8397 1256.04 25.9464 1256.03 25.0329C1256.03 24.8738 1256.02 24.7147 1256.02 24.5507C1256.02 24.1601 1256.02 23.7695 1256.01 23.3789C1253.38 23.2903 1250.08 24.1266 1248.21 26.088Z" fill="white"/>
<path d="M1278.14 8.54956C1278.97 8.54956 1279.8 8.54956 1280.65 8.54956C1280.65 13.669 1280.65 18.7883 1280.65 24.0629C1282.03 22.8646 1282.03 22.8646 1283.37 21.6336C1283.52 21.4947 1283.67 21.3559 1283.82 21.2129C1283.97 21.0712 1284.12 20.9294 1284.27 20.7834C1286.75 18.4547 1286.75 18.4547 1287.94 17.4184C1288.41 17.0073 1288.41 17.0073 1288.78 16.5629C1289.46 15.8259 1289.84 15.6377 1290.87 15.5389C1291.72 15.5228 1292.57 15.5623 1293.43 15.6218C1292.48 16.587 1291.5 17.518 1290.51 18.445C1290.35 18.5897 1290.2 18.7344 1290.04 18.8834C1289.11 19.7514 1288.17 20.5982 1287.21 21.4265C1286.84 21.7603 1286.48 22.1062 1286.13 22.4659C1286.42 23.0937 1286.73 23.5941 1287.19 24.1119C1287.31 24.2481 1287.43 24.3844 1287.55 24.5247C1287.68 24.6687 1287.81 24.8128 1287.94 24.9612C1288.21 25.2685 1288.48 25.5759 1288.75 25.8835C1288.88 26.0374 1289.02 26.1913 1289.16 26.3499C1294.11 32.0245 1294.11 32.0245 1294.11 32.5039C1291.34 32.9413 1291.34 32.9413 1290.31 32.2496C1289.59 31.559 1289.01 30.7504 1288.45 29.9253C1288.08 29.3886 1287.67 28.8878 1287.25 28.3832C1287.11 28.2047 1286.97 28.0262 1286.83 27.8423C1285.93 26.7205 1285 25.6211 1284.08 24.5191C1283.36 24.8357 1282.89 25.2045 1282.35 25.7739C1281.87 26.2806 1281.47 26.6357 1280.88 27.0287C1280.76 27.6022 1280.76 27.6022 1280.76 28.2709C1280.76 28.5165 1280.75 28.762 1280.74 29.015C1280.73 29.401 1280.73 29.401 1280.72 29.7948C1280.72 30.0539 1280.71 30.313 1280.7 30.5799C1280.68 31.2212 1280.67 31.8626 1280.65 32.5039C1279.82 32.5039 1279 32.5039 1278.14 32.5039C1278.14 24.599 1278.14 16.694 1278.14 8.54956Z" fill="white"/>
<path d="M1345.57 16.1318C1347.3 17.3779 1348.13 19.0536 1348.64 21.0974C1348.64 22.2267 1348.64 23.3559 1348.64 24.5194C1344.57 24.5194 1340.51 24.5194 1336.32 24.5194C1337.08 27.9032 1337.08 27.9032 1339.29 30.2229C1340.66 30.6797 1342.35 30.7123 1343.73 30.2683C1344.97 29.5683 1345.66 28.4683 1346.36 27.2571C1347.21 27.3728 1347.89 27.5117 1348.64 27.9415C1348.41 29.4233 1347.69 30.5804 1346.55 31.556C1344.39 33.0627 1342.07 33.2152 1339.51 32.9605C1337.58 32.5133 1336.21 31.514 1335.14 29.8521C1333.53 26.98 1333.3 23.543 1334.18 20.3845C1334.95 18.2291 1336.32 16.6618 1338.33 15.5508C1340.67 14.5908 1343.42 14.8756 1345.57 16.1318ZM1337.62 18.9016C1336.82 20.1487 1336.55 20.9628 1336.55 22.4662C1339.71 22.4662 1342.87 22.4662 1346.13 22.4662C1345.93 20.6653 1345.77 19.2815 1344.4 18.0362C1342.08 16.4313 1339.48 16.9863 1337.62 18.9016Z" fill="white"/>
<path d="M1380.86 15.8058C1380.99 15.8958 1381.12 15.9858 1381.26 16.0785C1381.39 16.1638 1381.52 16.249 1381.65 16.3369C1382.58 17.023 1383.05 17.7997 1383.54 18.8161C1383.54 19.042 1383.54 19.2678 1383.54 19.5005C1382.41 19.8393 1382.41 19.8393 1381.26 20.1849C1381.06 19.8603 1380.87 19.5356 1380.66 19.2011C1380.03 18.2778 1379.64 17.7508 1378.52 17.4473C1376.99 17.3124 1375.48 17.1805 1374.19 18.1317C1373.64 18.6662 1373.52 18.9501 1373.4 19.7144C1373.53 20.6221 1373.73 20.9379 1374.42 21.5538C1375.34 22.0041 1376.33 22.2071 1377.33 22.4342C1379.51 22.9352 1381.56 23.4755 1383.21 25.0899C1383.95 26.3758 1384.22 27.616 1384 29.0823C1383.53 30.5572 1382.88 31.5317 1381.53 32.2905C1379.24 33.2834 1376.32 33.3846 1373.93 32.6184C1372.52 31.9897 1371.18 31.0693 1370.49 29.6482C1370.32 29.1567 1370.18 28.678 1370.08 28.1697C1370.92 27.6044 1371.59 27.3736 1372.59 27.2572C1372.65 27.4113 1372.71 27.5654 1372.78 27.7241C1373.32 28.9688 1373.75 29.7979 1375.05 30.3112C1376.68 30.7586 1378.3 30.848 1379.89 30.223C1380.6 29.7462 1380.95 29.4369 1381.14 28.5912C1381.2 27.6413 1381.17 27.2159 1380.58 26.4311C1379.69 25.7335 1378.9 25.544 1377.81 25.3038C1377.42 25.2086 1377.03 25.1126 1376.64 25.0159C1376.36 24.9474 1376.36 24.9474 1376.08 24.8775C1373.95 24.3438 1372.12 23.62 1370.88 21.7106C1370.63 20.3415 1370.51 19.093 1371.22 17.8465C1373.27 14.981 1377.76 14.073 1380.86 15.8058Z" fill="white"/>
<path d="M1306.43 8.5498C1307.34 8.5498 1308.24 8.5498 1309.17 8.5498C1309.17 16.4548 1309.17 24.3597 1309.17 32.5042C1308.27 32.5042 1307.36 32.5042 1306.43 32.5042C1306.43 24.5992 1306.43 16.6943 1306.43 8.5498Z" fill="white"/>
<path d="M1272.7 15.3655C1272.87 15.3646 1273.04 15.3637 1273.21 15.3628C1274.46 15.3651 1274.46 15.3651 1274.72 15.6221C1274.74 16.0448 1274.74 16.4681 1274.74 16.8911C1274.73 17.122 1274.73 17.3528 1274.73 17.5907C1274.73 17.7692 1274.72 17.9477 1274.72 18.1316C1274.46 18.121 1274.2 18.1105 1273.94 18.0995C1271.3 17.926 1271.3 17.926 1269.02 19.0442C1267.57 20.7728 1267.35 22.6426 1267.33 24.818C1267.32 25.0385 1267.32 25.2591 1267.31 25.4863C1267.3 26.1859 1267.29 26.8854 1267.28 27.585C1267.27 28.0614 1267.26 28.5377 1267.25 29.014C1267.23 30.1774 1267.21 31.3408 1267.19 32.5043C1266.36 32.5043 1265.54 32.5043 1264.68 32.5043C1264.68 26.9331 1264.68 21.362 1264.68 15.6221C1265.44 15.6221 1266.19 15.6221 1266.96 15.6221C1267.04 16.5255 1267.12 17.429 1267.19 18.3598C1267.43 18.0774 1267.66 17.7951 1267.91 17.5043C1269.33 15.8797 1270.53 15.354 1272.7 15.3655Z" fill="white"/>
</g>
<g clip-path="url(#clip5_1724_2715)">
<mask id="mask0_1724_2715" style="mask-type:luminance" maskUnits="userSpaceOnUse" x="1499" y="0" width="181" height="48">
<path d="M1679.89 0H1500V47.206H1679.89V0Z" fill="white"/>
</mask>
<g mask="url(#mask0_1724_2715)">
<path fill-rule="evenodd" clip-rule="evenodd" d="M1516.45 13.0118C1514.92 13.0249 1513.39 13.296 1511.94 13.8142C1508.21 15.1859 1502.15 18.4813 1500.62 25.659C1498.38 36.2574 1502.52 42.6626 1507.25 45.0956C1508.32 45.6433 1510.98 46.2342 1513.77 46.5663C1517.54 47.0104 1527.99 47.0755 1531.79 47.0107C1539.04 46.9029 1547.23 46.6873 1557.03 46.6873C1559.79 46.6873 1562.04 46.6398 1563.88 46.5663C1570.57 46.2946 1576.95 43.189 1579.68 36.9559C1580.96 34.0227 1581.48 31.2362 1581.48 26.8495C1581.48 17.873 1575.25 14.022 1570.3 12.124C1567.16 10.9119 1563.76 10.5617 1560.41 10.8981C1559.97 10.9403 1559.53 10.9533 1559.09 10.937C1557.34 10.8593 1555 9.34526 1554.1 7.80535C1548.91 -1.033 1538.4 0.0410609 1538.4 0.0410609C1538.4 0.0410609 1527.56 -0.700883 1524.37 7.67593C1522.74 11.9635 1518.78 12.9773 1516.45 13.0118ZM1539.72 5.79144C1540.29 4.8012 1541.56 4.46307 1542.56 5.03619C1549.5 9.03738 1554.21 16.2449 1554.21 24.5416C1554.21 32.8385 1549.5 40.0459 1542.56 44.0471C1541.56 44.6201 1540.29 44.282 1539.72 43.2918C1539.14 42.3015 1539.48 41.0343 1540.47 40.4611C1546.27 37.1219 1550.05 31.2088 1550.05 24.5416C1550.05 17.8744 1546.27 11.9614 1540.47 8.62216C1539.48 8.04904 1539.14 6.78168 1539.72 5.79144ZM1538.88 12.9782C1537.89 12.3948 1536.61 12.7197 1536.03 13.704C1535.44 14.6882 1535.77 15.959 1536.76 16.5424C1539.61 18.2272 1541.46 21.2003 1541.46 24.5416C1541.46 27.8829 1539.61 30.8562 1536.76 32.5409C1535.77 33.1244 1535.44 34.3951 1536.03 35.3792C1536.61 36.3634 1537.89 36.6884 1538.88 36.1051C1542.89 33.7362 1545.62 29.4638 1545.62 24.5416C1545.62 19.6194 1542.89 15.347 1538.88 12.9782ZM1534.49 27.8913C1535.99 27.8913 1537.2 26.6858 1537.2 25.1983C1537.2 23.711 1535.99 22.5052 1534.49 22.5052C1533 22.5052 1531.79 23.711 1531.79 25.1983C1531.79 26.6858 1533 27.8913 1534.49 27.8913Z" fill="white"/>
<path d="M1603.51 6.75607C1602.07 5.20569 1600.95 4.93994 1595.85 4.93994H1591.5L1591.6 13.8682L1591.67 23.2369H1594.41L1594.48 20.5126L1594.55 17.8106H1597.22C1600.44 17.8106 1601.81 17.4784 1603.14 16.371C1603.77 15.7867 1604.31 15.106 1604.72 14.3555C1605.24 13.2924 1605.28 13.2455 1605.28 11.6065C1605.29 9.3917 1604.85 8.19569 1603.51 6.75607ZM1600.97 14.4219C1600.47 14.732 1599.76 14.8206 1597.45 14.8871L1594.53 14.9756L1594.48 7.81919H1597.17C1599.35 7.81919 1600.01 7.90777 1600.65 8.21786C1601.72 8.7937 1602.29 9.9454 1602.29 11.5622C1602.29 13.0683 1601.84 13.8461 1600.97 14.4219Z" fill="white"/>
<path d="M1621.15 7.00393C1620.01 7.95812 1620.7 9.79072 1622.2 9.79072C1623.28 9.79072 1624.08 8.63965 1623.71 7.64005C1623.3 6.56473 1622.04 6.24665 1621.15 7.00393Z" fill="white"/>
<path d="M1658.76 6.58813H1657.24L1657.17 8.56285L1657.11 10.5602H1654.16L1654.23 11.9675L1654.3 13.3974L1655.73 13.4655L1657.13 13.5336V15.7807C1657.13 19.5938 1657.67 21.1147 1659.53 22.4311C1660.68 23.2483 1664.6 22.9272 1664.6 22.9272V20.4571C1664.6 20.4571 1663.98 20.4571 1663.26 20.4571C1662.13 20.4571 1661.56 20.2295 1660.93 19.6619C1660.69 19.4544 1660.5 19.2003 1660.37 18.9156C1660.24 18.6307 1660.17 18.3216 1660.16 18.0073L1660.12 16.2573L1660.02 13.5109H1664.6V10.5829L1662.4 10.5148L1660.18 10.4467L1660.12 7.8819C1660.09 6.49736 1660.12 6.58813 1660.12 6.58813H1658.76Z" fill="white"/>
<path d="M1608.12 10.7436C1608.05 10.9021 1608.03 13.7764 1608.05 17.1261L1608.12 23.237H1610.86L1610.98 19.3894C1611.09 15.225 1611.25 14.4974 1612.5 13.6826C1613.3 13.162 1614.88 13.2073 1615.84 13.7731L1616.64 14.2258L1617.62 13.31C1618.14 12.88 1618.52 12.5769 1618.52 12.5769C1618.52 12.5769 1616.74 10.9473 1615.43 10.6757C1614.22 10.4243 1613.16 10.5492 1611.99 10.9781C1610.93 11.4355 1610.93 10.8341 1610.93 10.8341C1610.68 10.3588 1608.28 10.2683 1608.12 10.7436Z" fill="white"/>
<path d="M1626.42 10.6296C1626.31 10.8352 1630.24 22.7175 1630.62 23.3116C1630.87 23.7 1633.56 23.7 1633.85 23.3116C1633.98 23.1744 1634.48 21.8034 1634.99 20.2953C1635.51 18.7871 1636.41 16.068 1637.04 14.2628C1637.69 12.4119 1638.11 10.7263 1638 10.6121H1636.8H1635.15L1633.76 14.7883C1632.97 17.0277 1632.32 18.9244 1632.28 18.9699C1632.23 19.0156 1631.54 17.1648 1630.75 14.8797L1629.27 10.6121L1627.93 10.6296H1626.42Z" fill="white"/>
<path d="M1650.37 10.4554C1649.07 10.3868 1648.94 10.4325 1648.94 10.844C1648.94 11.2554 1648.89 11.2783 1648.19 10.9811C1647.33 10.6154 1645.42 10.3868 1644.74 10.5468C1642.69 11.0725 1641.31 12.0784 1640.53 13.6328C1639.6 15.4387 1639.6 18.4105 1640.51 20.1935C1641.16 21.377 1642.16 22.3222 1643.37 22.8909C1644.53 23.371 1646.96 23.3939 1648.07 22.9137C1648.85 22.5937 1648.89 22.5937 1649.01 23.0052C1649.12 23.4167 1649.3 23.4625 1650.46 23.3939L1651.78 23.3252V10.5239L1650.37 10.4554ZM1647.34 20.5593C1645.16 21.428 1643.07 20.5364 1642.37 18.4334C1641.71 16.3988 1642.37 14.3872 1644.05 13.3585C1644.94 12.8099 1646.55 12.8099 1647.57 13.3585C1650.14 14.7072 1649.98 19.4849 1647.34 20.5593Z" fill="white"/>
<path d="M1620.68 11.3335V23.4065H1622.23H1623.52L1623.56 17.7226L1623.61 11.3335H1622.25C1621.49 11.3335 1620.68 11.3335 1620.68 11.3335Z" fill="white"/>
<path d="M1600.93 37.2461C1601.27 37.1612 1601.58 36.9891 1601.83 36.7469C1602.55 36.093 1603.51 34.9167 1603.77 34.1376C1604.25 32.7381 1604.25 30.44 1603.77 29.0405C1603.47 28.1388 1602.87 27.2601 1602.13 26.606C1601.17 25.7651 1599.82 25.656 1598.54 25.656H1591.45C1591.45 25.656 1591.44 29.7086 1591.46 34.4093L1591.52 42.9744H1594.01L1594.08 40.4047L1594.14 37.8563H1597.67L1598.34 39.3602C1598.69 40.1959 1599.23 41.3448 1599.53 41.9299L1600.05 42.9744L1601.27 43.0369C1601.94 43.0788 1602.58 43.0161 1602.67 42.9325C1602.75 42.849 1602.33 41.5955 1601.71 40.1748C1601.09 38.7545 1600.61 37.5218 1600.69 37.4174C1600.71 37.3721 1600.75 37.3328 1600.79 37.303C1600.83 37.2733 1600.88 37.2537 1600.93 37.2461ZM1599.73 34.7852C1599.13 35.0777 1598.56 35.1405 1596.61 35.0986L1594.22 35.0358L1594.16 31.7979C1594.13 30.0223 1594.16 28.4554 1594.22 28.2883C1594.3 28.0585 1594.88 28.0166 1597.01 28.0795C1599.54 28.142 1599.73 28.1628 1600.27 28.6644C1601.06 29.3955 1601.39 30.3357 1601.39 31.756C1601.39 33.2186 1600.86 34.2003 1599.73 34.7852Z" fill="white"/>
<path d="M1637.68 26.348H1636.47V31.0995H1633.77V33.7971H1636.43L1636.51 36.5358C1636.59 39.6277 1636.86 40.4576 1638.21 41.6197C1639.13 42.4497 1640.1 42.7609 1641.83 42.8023L1642.71 42.8147C1642.77 42.816 1642.84 42.8036 1642.9 42.7789C1642.96 42.7538 1643.02 42.7169 1643.07 42.67C1643.12 42.6231 1643.15 42.567 1643.18 42.5053C1643.21 42.4439 1643.22 42.3775 1643.22 42.3105V40.6506C1643.22 40.508 1643.16 40.3709 1643.07 40.2652C1642.97 40.1593 1642.84 40.0921 1642.7 40.0757L1641.87 39.999C1641.29 39.9635 1640.71 39.8733 1640.15 39.7291C1639.42 39.3973 1639.17 38.4843 1639.17 36.0774V33.795H1643.32V31.0974H1639.17V28.7134C1639.17 27.4061 1639.11 26.3271 1639.02 26.348H1637.68Z" fill="white"/>
<path d="M1618.13 34.2264C1616.75 31.6426 1613.57 30.2721 1610.8 31.0586C1609.33 31.446 1608.05 32.3574 1607.21 33.6199C1606.38 34.8215 1606.01 36.2811 1606.17 37.7315C1606.28 39.2887 1606.98 40.7462 1608.13 41.8007C1609.29 42.8552 1610.81 43.4256 1612.38 43.3932C1614.84 43.3932 1616.78 42.2925 1618.02 40.203C1618.56 39.2816 1618.73 38.9134 1618.73 37.1161C1618.73 35.4759 1618.54 34.9454 1618.13 34.2264ZM1610.61 40.5622C1609.17 39.8659 1608.58 38.8772 1608.58 37.2147C1608.58 35.3499 1609.15 34.3837 1610.72 33.5748C1611.56 33.1479 1613.09 33.103 1614.06 33.53C1615.17 33.9794 1616.21 35.2825 1616.37 36.4282C1616.89 39.776 1613.66 42.1125 1610.61 40.5622Z" fill="white"/>
<path d="M1620.86 31.1047C1620.86 31.1047 1620.73 37.4374 1621.02 38.6662C1621.27 39.77 1622.02 41.0401 1622.81 41.7067C1623.2 41.9879 1623.61 42.2254 1624.05 42.4146C1625.09 42.9146 1627.28 42.9979 1628.3 42.6023C1628.82 42.3938 1628.94 42.4146 1629.09 42.6856C1629.23 42.9146 1629.61 42.9979 1630.5 42.9979H1631.75V31.1047H1630.42H1629.04V34.8743C1628.98 37.2688 1628.86 38.6849 1628.67 38.9764C1628.3 39.643 1627.34 40.0802 1626.3 40.0802C1625.14 40.0802 1624.49 39.7262 1623.97 38.8309C1623.6 38.1852 1623.53 37.6855 1623.45 34.6033V31.1047H1622.1C1621.43 31.1068 1620.86 31.1047 1620.86 31.1047Z" fill="white"/>
<path d="M1655.93 39.9157C1655.88 39.9157 1655.25 40.1192 1654.52 40.3678C1652.57 41.0683 1651.29 40.8424 1650.18 40.3678C1649.57 40.0966 1649.39 39.9384 1649.61 39.848C1649.79 39.7803 1651.7 39.1928 1653.81 38.5602C1658.18 37.2495 1658.16 37.2495 1657.43 35.0804C1656.48 32.188 1652.97 30.2671 1650 30.9903C1646.8 31.804 1644.9 34.4251 1645.13 37.7466C1645.31 40.2096 1646.53 41.9721 1648.82 43.0116C1650.43 43.7348 1652.96 44.0738 1655.07 43.3505C1657.31 42.5822 1657.27 42.65 1656.59 41.1814C1656.27 40.4808 1655.97 39.9157 1655.93 39.9157ZM1647.75 37.7693C1647.46 37.7693 1647.35 37.5885 1647.35 37.114C1647.35 35.6903 1648.37 34.199 1649.73 33.5664C1650.84 33.0464 1652.81 33.2726 1653.78 33.9958C1654.55 34.6057 1655.19 35.4417 1654.98 35.6452C1654.82 35.8033 1648.16 37.7693 1647.75 37.7693Z" fill="white"/>
<path d="M1675.82 20.4275C1675.82 20.4275 1674.96 21.1768 1674.17 21.202C1672.01 21.3017 1670.96 20.2339 1670.96 20.2339C1670.43 19.7798 1669.81 18.512 1670.07 18.4915C1670.27 18.4796 1672.75 18.4762 1675.04 18.4915C1676.82 18.5045 1678.72 18.4915 1678.72 18.4915C1679.71 18.4915 1679.85 18.0006 1679.82 16.541C1679.76 13.3924 1676.85 10.4257 1673.67 10.2377C1670.24 10.0703 1667.55 12.0825 1666.76 15.435C1666.19 17.9249 1666.88 20.0393 1668.84 21.7628C1670.22 22.9668 1671.95 23.1753 1674.27 23.1014C1676.05 23.0447 1677.65 21.3561 1678.02 20.6789C1678.09 20.5627 1678 20.4275 1677.87 20.4275C1677.5 20.4275 1676.79 20.4275 1675.82 20.4275ZM1669.77 16.3552C1669.48 16.2656 1669.42 16.0525 1669.57 15.5834C1670 14.1762 1671.07 12.9135 1672.62 12.7015C1673.88 12.5254 1675.77 13.3483 1676.52 14.3594C1677.1 15.1968 1677.48 16.2162 1677.21 16.3552C1677 16.462 1670.18 16.4793 1669.77 16.3552Z" fill="white"/>
<path d="M1659.69 36.9493L1659.75 42.8147H1662.24L1662.35 39.1878C1662.43 36.1618 1662.59 35.1887 1662.9 34.7327C1663.67 33.5931 1665.69 33.2821 1666.83 34.1318L1667.45 34.5878L1668.36 33.6964C1668.86 33.1993 1669.2 33.0114 1669.2 32.9286C1669.2 32.5762 1667.23 31.5193 1666.13 31.2913C1665.19 31.1047 1664.73 31.1256 1663.72 31.3744C1662.64 31.6437 1662.43 31.6437 1662.28 31.3949C1662.18 31.1878 1661.72 31.1047 1660.87 31.1047H1659.64L1659.69 36.9493Z" fill="white"/>
</g>
</g>
<defs>
<clipPath id="clip0_1724_2715">
<rect width="200" height="32.8638" fill="white" transform="translate(0 7.28906)"/>
</clipPath>
<clipPath id="clip1_1724_2715">
<rect width="180" height="47.4419" fill="white" transform="translate(316)"/>
</clipPath>
<clipPath id="clip2_1724_2715">
<rect width="180" height="42.2222" fill="white" transform="translate(612 2.60986)"/>
</clipPath>
<clipPath id="clip3_1724_2715">
<rect width="180" height="36.8675" fill="white" transform="translate(908 5.28711)"/>
</clipPath>
<clipPath id="clip4_1724_2715">
<rect width="180" height="31.2548" fill="white" transform="translate(1204 8.09351)"/>
</clipPath>
<clipPath id="clip5_1724_2715">
<rect width="180" height="47.4419" fill="white" transform="translate(1500)"/>
</clipPath>
</defs>
</svg>
