<svg width="118" height="25" viewBox="0 0 118 25" fill="none" xmlns="http://www.w3.org/2000/svg">
<g clip-path="url(#clip0_1197_2478)">
<path d="M3.35068 0.944082C3.45949 0.68954 3.71357 0.529734 3.99106 0.529734C4.05382 0.529734 4.11673 0.529734 4.17983 0.529734C4.44201 0.529734 4.68363 0.672921 4.80474 0.904784C5.8281 2.86401 6.63579 4.92022 7.47952 6.96174C7.71907 7.53957 7.95879 8.11723 8.1987 8.69506C8.34699 9.05214 8.4951 9.4094 8.64268 9.76684C9.06385 10.7832 9.49892 11.7917 9.95253 12.7938C10.4056 11.701 10.8585 10.6083 11.3112 9.51533C11.4645 9.14563 11.6178 8.77576 11.7711 8.40588C11.9948 7.86662 12.2181 7.32735 12.4416 6.78809C12.5156 6.60982 12.5893 6.43154 12.6656 6.24776C13.0472 5.32635 13.4267 4.40424 13.8028 3.48066C13.8767 3.29949 13.9505 3.11832 14.0266 2.93168C14.1676 2.58564 14.3082 2.23945 14.4483 1.89309C14.5109 1.73957 14.5735 1.58606 14.6378 1.42789C14.6927 1.29258 14.7476 1.15726 14.8041 1.01784C14.9583 0.673525 15.3327 0.524632 15.7108 0.524188C15.747 0.524152 15.7833 0.52417 15.8195 0.524241C16.1548 0.524898 16.4606 0.723452 16.572 1.03885C16.7725 1.60684 16.8962 2.18311 17.0085 2.78792C17.0344 2.92304 17.0602 3.05814 17.0868 3.19735C17.1718 3.64287 17.2554 4.08862 17.3388 4.53443C17.3978 4.84646 17.4568 5.15839 17.5159 5.47032C17.6395 6.12476 17.7624 6.7792 17.8849 7.43364C18.0408 8.26671 18.1986 9.09942 18.357 9.93196C18.4795 10.577 18.6009 11.222 18.7217 11.8672C18.7795 12.174 18.8376 12.4806 18.8958 12.7872C19.2019 14.3952 19.4589 15.9717 19.5585 17.6018C19.5714 17.8122 19.4571 18.0166 19.2537 18.0751C18.901 18.1766 18.5688 18.1569 18.1514 18.1594C17.9603 18.1619 17.769 18.1643 17.5721 18.167C17.2249 18.138 17.1236 18.1295 16.9675 18.0008C16.7985 17.8615 16.6918 17.6603 16.6413 17.4477C16.6094 17.313 16.5897 17.1983 16.5378 16.8987C16.5057 16.717 16.4736 16.5355 16.4405 16.3484C16.4073 16.1514 16.374 15.9545 16.3398 15.7515C16.2872 15.4483 16.2872 15.4483 16.2334 15.139C16.1594 14.7107 16.086 14.2821 16.0132 13.8534C15.902 13.1986 15.7883 12.5442 15.6742 11.8898C15.6026 11.4737 15.5311 11.0576 15.4596 10.6415C15.4258 10.446 15.3917 10.2503 15.3568 10.0489C15.3258 9.86513 15.2948 9.68134 15.2629 9.49187C15.2356 9.3312 15.2082 9.17034 15.1798 9.00469C15.1162 8.48622 15.1116 7.98357 15.1214 7.46155C15.0037 7.46155 14.8861 7.46155 14.7649 7.46155C14.7442 7.58472 14.7235 7.70772 14.7021 7.83462C14.5724 8.41423 14.3792 8.93857 14.1641 9.49241C14.1216 9.60207 14.0792 9.71174 14.0354 9.8246C13.8969 10.1815 13.7573 10.5379 13.6174 10.8942C13.5702 11.0156 13.5228 11.137 13.4739 11.2622C12.8121 12.9578 12.1345 14.6462 11.434 16.3263C11.359 16.5067 11.2839 16.6871 11.2064 16.8731C10.9239 17.5442 10.7956 17.849 10.7045 18.0202C10.5963 18.2237 10.3582 18.3065 10.1272 18.3083C9.98372 18.3094 9.84007 18.3096 9.69659 18.3089C9.418 18.3076 9.16794 18.1407 9.0569 17.886C7.94418 15.3331 6.89109 12.7577 5.84717 10.1758C5.7614 9.96395 5.7614 9.96395 5.67392 9.74764C5.56539 9.47925 5.45699 9.21087 5.34877 8.9423C5.08375 8.28306 5.08375 8.28306 4.78371 7.63929C4.7648 7.75766 4.74589 7.87586 4.72641 7.99779C4.52913 9.22935 4.32919 10.4604 4.12773 11.6912C4.05289 12.1505 3.97875 12.61 3.90528 13.0696C3.79953 13.7303 3.69136 14.3907 3.58271 15.0509C3.55037 15.2563 3.51806 15.4616 3.48475 15.6733C3.45267 15.8653 3.4206 16.0574 3.38754 16.2554C3.36023 16.4239 3.33293 16.5924 3.30478 16.7661C3.20073 17.1578 3.06992 17.4676 2.87834 17.7808C2.73848 18.0094 2.50018 18.1651 2.23389 18.1995C2.05822 18.2223 1.92442 18.2173 1.56433 18.2038C1.37478 18.1999 1.18523 18.196 0.989935 18.1919C0.732225 18.1569 0.611774 18.1404 0.501606 18.079C0.240153 17.9333 0.154992 17.6006 0.177201 17.3027C0.291271 15.7727 0.628492 14.2589 0.911262 12.7529C0.969706 12.4395 1.0281 12.1263 1.08649 11.813C1.20851 11.1593 1.33115 10.5057 1.45415 9.85233C1.61126 9.01713 1.76635 8.18157 1.92091 7.34584C2.04072 6.69993 2.16185 6.0542 2.28335 5.40865C2.34108 5.10062 2.39835 4.7926 2.45514 4.48447C2.53474 4.05345 2.61617 3.62282 2.69805 3.19223C2.72085 3.06653 2.74365 2.94083 2.76714 2.81133C2.89737 2.138 3.09199 1.54927 3.35068 0.944082Z" fill="white"/>
<path d="M75.943 0.401978C76.4622 0.410438 76.6387 0.509493 77.0388 0.851892C77.4643 1.32237 77.8647 1.80556 78.2601 2.30158C78.5346 2.63873 78.8094 2.97571 79.0844 3.31247C79.2172 3.4763 79.35 3.64012 79.4867 3.8089C79.8063 4.18813 80.1312 4.53525 80.488 4.87881C80.9808 5.35337 81.4082 5.85567 81.8358 6.3896C82.7144 7.47897 83.6697 8.48782 84.6306 9.50485C86.2236 11.1923 86.2236 11.1923 86.8154 12.0773C86.8172 11.9449 86.8189 11.8125 86.8209 11.6759C86.8384 10.4286 86.8565 9.18101 86.8758 7.93345C86.8856 7.29216 86.8952 6.65088 86.9039 6.00941C86.9125 5.39052 86.9218 4.77163 86.9318 4.15285C86.9371 3.80165 86.9416 3.45045 86.9462 3.09924C86.9498 2.88577 86.9533 2.67231 86.9569 2.45237C86.9597 2.26411 86.9624 2.07583 86.9653 1.88186C86.9833 1.58489 86.9897 1.47597 87.0375 1.30063C87.1116 1.02764 87.3105 0.791869 87.5871 0.729393C87.876 0.664145 88.1534 0.678772 88.5086 0.679697C88.6831 0.679234 88.8578 0.678773 89.0376 0.678311C89.3861 0.696529 89.4654 0.700688 89.6475 0.783461C89.7703 0.839183 89.8455 0.964489 89.8457 1.0989C89.8496 3.27067 89.8527 5.44242 89.8545 7.61423C89.8555 8.6565 89.8568 9.69876 89.8587 10.741C89.8607 11.746 89.8618 12.7509 89.8623 13.7557C89.8625 14.1401 89.8632 14.5244 89.8641 14.9087C89.8655 15.4451 89.8657 15.9813 89.8655 16.5176C89.8662 16.6783 89.8668 16.8388 89.8675 17.0042C89.8657 18.1002 89.8657 18.1002 89.6671 18.2982C89.205 18.3496 89.1071 18.3606 88.7622 18.3309C88.5393 18.3117 88.3265 18.2216 88.1625 18.0694C87.9778 17.8981 87.9072 17.8007 87.6397 17.4317C87.12 16.7447 86.5986 16.0869 86.0133 15.4543C85.4615 14.8507 84.9346 14.2347 84.4202 13.5991C83.872 12.9232 83.3063 12.2726 82.716 11.6329C81.9843 10.8402 81.2981 10.0212 80.6203 9.18279C80.0831 8.53403 79.5172 7.9139 78.9457 7.29501C78.6165 6.92282 78.6165 6.92282 78.2601 6.3896C78.259 6.52877 78.2579 6.66776 78.2569 6.8112C78.2465 8.1215 78.2337 9.43162 78.218 10.7419C78.21 11.4156 78.203 12.0892 78.1982 12.7628C78.1936 13.4128 78.1865 14.0628 78.1774 14.7128C78.1745 14.9609 78.1724 15.2091 78.1713 15.457C78.1695 15.8043 78.1644 16.1516 78.1588 16.4988C78.1569 16.6966 78.1549 16.8942 78.1528 17.0981C78.0916 17.5199 78.0831 17.578 77.9262 17.7979C77.8694 17.8777 77.7988 17.9486 77.7134 17.9973C77.3415 18.2091 77.0196 18.1841 76.5556 18.1759C76.3827 18.1754 76.2097 18.1747 76.0314 18.174C75.6846 18.1322 75.6081 18.1231 75.4224 17.9527C75.2948 17.8355 75.2235 17.6699 75.2146 17.4971C75.1919 17.0505 75.1839 16.6114 75.1868 16.161C75.1864 15.9949 75.1861 15.8287 75.1857 15.6575C75.185 15.1063 75.1869 14.5552 75.1889 14.004C75.1891 13.6224 75.1893 13.2408 75.1893 12.8592C75.1894 12.0586 75.1909 11.2583 75.1934 10.4577C75.1964 9.42931 75.1971 8.40091 75.1969 7.37232C75.1969 6.58422 75.198 5.79612 75.1992 5.00785C75.1998 4.62855 75.2001 4.24922 75.2003 3.86985C75.2007 3.34082 75.2023 2.81181 75.2041 2.28279C75.2041 2.12444 75.2041 1.96607 75.2039 1.80293C75.2105 0.569392 75.2105 0.569391 75.943 0.401978Z" fill="white"/>
<path d="M105.174 0.673415C105.396 0.670855 105.396 0.670856 105.622 0.668243C105.782 0.667479 105.942 0.666732 106.107 0.66595C106.272 0.664937 106.438 0.663924 106.608 0.662876C106.959 0.661187 107.311 0.660032 107.662 0.659357C108.194 0.657633 108.727 0.652122 109.259 0.646505C109.601 0.64535 109.943 0.644408 110.285 0.643732C110.442 0.641528 110.599 0.639342 110.761 0.637085C112.535 0.643306 114.165 1.11485 115.509 2.30171C116.605 3.62934 117.217 5.05757 117.082 6.79249C116.781 8.52724 115.656 9.81692 114.261 10.8332C114.025 10.9543 113.787 11.073 113.548 11.1887C113.633 11.3412 113.717 11.4935 113.804 11.6507C114.119 12.2177 114.433 12.7848 114.747 13.3518C114.883 13.5971 115.019 13.8422 115.155 14.0873C115.35 14.4403 115.546 14.7933 115.742 15.1463C115.802 15.2552 115.863 15.3644 115.925 15.4767C116.084 15.765 116.242 16.054 116.4 16.3432C116.474 16.4752 116.547 16.6075 116.623 16.7436C116.781 17.1116 116.773 17.3197 116.688 17.6373C116.65 17.7802 116.582 17.9212 116.461 18.0074C116.353 18.0847 116.205 18.1266 115.837 18.138C115.607 18.1359 115.378 18.1337 115.141 18.1316C114.796 18.1293 114.796 18.1293 114.444 18.1268C114.4 18.1263 114.355 18.1257 114.311 18.1252C114.059 18.1224 113.827 17.9875 113.702 17.7699C112.866 16.3144 112.065 14.8443 111.309 13.3438C111.231 13.1885 111.152 13.0333 111.071 12.8733C110.999 12.7285 110.926 12.5836 110.852 12.4343C110.787 12.3053 110.723 12.1764 110.656 12.0435C110.518 11.7219 110.518 11.3665 110.518 11.3665C109.342 11.3665 108.166 11.3665 106.954 11.3665C106.958 11.8243 106.962 12.282 106.966 12.7537C106.969 13.1959 106.971 13.6383 106.973 14.0807C106.975 14.3886 106.978 14.6966 106.981 15.0044C106.985 15.4465 106.987 15.8885 106.988 16.3307C106.99 16.4688 106.992 16.607 106.994 16.7493C106.994 16.9765 106.986 17.2036 106.974 17.4306C106.962 17.6462 106.877 17.8588 106.711 17.9965C106.555 18.1247 106.453 18.1345 106.107 18.1679C105.916 18.1668 105.725 18.1659 105.528 18.165C105.241 18.1664 105.241 18.1664 104.948 18.1679C104.567 18.1311 104.482 18.1229 104.295 17.9528C104.166 17.8362 104.095 17.6697 104.087 17.4967C104.065 17.0549 104.058 16.6205 104.061 16.1747C104.061 16.0099 104.061 15.8452 104.061 15.6756C104.062 15.1292 104.064 14.583 104.067 14.0367C104.068 13.6586 104.068 13.2805 104.069 12.9025C104.07 11.9061 104.074 10.9097 104.077 9.91326C104.081 8.89712 104.083 7.8808 104.084 6.86466C104.088 4.8697 104.094 2.87473 104.102 0.879789C104.504 0.679192 104.728 0.677574 105.174 0.673415ZM106.954 3.36815C106.954 5.24509 106.954 7.12202 106.954 9.05584C108.012 9.07237 108.012 9.07237 109.092 9.08925C109.422 9.09636 109.422 9.09636 109.758 9.10383C111.164 9.11449 112.239 9.02722 113.348 8.08929C113.968 7.34384 114.169 6.87194 114.139 5.87251C114.002 4.96284 113.55 4.40166 112.847 3.83472C112.014 3.39405 111.281 3.34602 110.348 3.35079C110.08 3.35146 110.08 3.35146 109.806 3.35214C109.582 3.35375 109.357 3.35537 109.126 3.35704C108.051 3.36254 108.051 3.36254 106.954 3.36815Z" fill="white"/>
<path d="M59.1692 1.40942C59.29 0.923848 59.7841 0.637508 60.2858 0.636015C60.3477 0.635838 60.4188 0.635874 60.5024 0.635927C60.7118 0.634825 60.9212 0.633706 61.1369 0.632568C61.364 0.634204 61.5911 0.635839 61.8249 0.637527C62.057 0.637439 62.289 0.637349 62.5282 0.63726C63.0196 0.637278 63.511 0.639145 64.0026 0.642344C64.633 0.646379 65.2636 0.646485 65.894 0.645276C66.4947 0.644547 67.0951 0.646663 67.6956 0.648636C67.9227 0.648476 68.1498 0.648316 68.3836 0.648156C68.593 0.649845 68.8025 0.651533 69.0181 0.653293C69.203 0.65411 69.388 0.654928 69.5785 0.655764C69.9521 0.695133 70.0082 0.701052 70.2353 0.919903C70.3262 1.00762 70.3807 1.12672 70.3907 1.25256C70.4157 1.56604 70.4146 1.64103 70.4082 2.13513C70.4069 2.32782 70.4059 2.52051 70.4046 2.71904C70.3811 3.08872 70.3761 3.16851 70.2891 3.27144C70.2333 3.33735 70.1488 3.37161 70.0626 3.37588C69.8553 3.3861 69.6475 3.38896 69.44 3.38838C69.2794 3.38838 69.1188 3.38836 68.9534 3.38834C68.7789 3.38743 68.6043 3.38651 68.4246 3.38557C68.2467 3.38532 68.069 3.38505 67.8858 3.3848C67.3156 3.38381 66.7453 3.38157 66.1751 3.37931C65.7894 3.37842 65.4039 3.3776 65.0182 3.37688C64.0708 3.37506 63.1233 3.3716 62.1758 3.3682C62.1758 4.89321 62.1758 6.41822 62.1758 7.98945C62.6628 7.98731 63.1495 7.98536 63.6511 7.98322C64.1208 7.9818 64.5902 7.98074 65.0597 7.97967C65.3871 7.97878 65.7144 7.97754 66.0416 7.97612C66.5111 7.97381 66.9804 7.97292 67.4498 7.97203C67.5971 7.97114 67.7443 7.97025 67.8959 7.96936C68.2 7.96936 68.5039 7.97612 68.8078 7.98518C68.8983 7.98785 68.9887 8.02144 69.0456 8.09182C69.1283 8.1942 69.1324 8.28538 69.1507 8.6837C69.1502 8.8945 69.1498 9.1053 69.1493 9.3225C69.15 9.6387 69.15 9.6387 69.1507 9.96129C69.1359 10.285 69.1304 10.4058 69.0844 10.4947C69.0222 10.6152 68.8732 10.658 68.7372 10.6616C68.3077 10.6724 67.8803 10.6756 67.4498 10.673C67.2998 10.6726 67.1497 10.6724 66.995 10.6721C66.5137 10.6712 66.0325 10.6689 65.5513 10.6667C65.2256 10.6659 64.9002 10.665 64.5747 10.6643C63.7752 10.6625 62.9754 10.6589 62.1758 10.6555C62.1758 12.2392 62.1758 13.8229 62.1758 15.4545C62.7528 15.4524 63.3297 15.4504 63.9242 15.4483C64.4804 15.4469 65.0365 15.4458 65.5928 15.4448C65.9806 15.4439 66.3685 15.4426 66.7563 15.4412C67.3124 15.4391 67.8685 15.438 68.4246 15.4371C68.6862 15.4359 68.6862 15.4359 68.9534 15.4344C69.1942 15.4344 69.1942 15.4344 69.44 15.4343C69.5821 15.4339 69.7241 15.4336 69.8704 15.4332C70.0759 15.4467 70.1519 15.4517 70.2246 15.4981C70.3342 15.5679 70.3797 15.7037 70.3861 15.8333C70.4002 16.1179 70.4064 16.4028 70.4082 16.6877C70.4107 16.8798 70.4132 17.0721 70.4158 17.2701C70.3909 17.5161 70.3811 17.7109 70.298 17.8658C70.1777 18.0899 69.889 18.1407 69.6348 18.1578C69.4926 18.1674 69.3594 18.1679 69.0372 18.1695C68.832 18.1711 68.6269 18.1729 68.4153 18.1747C68.1927 18.1745 67.9703 18.1743 67.7409 18.1741C67.3994 18.1752 67.3994 18.1752 67.0509 18.1764C66.5686 18.1775 66.0863 18.1777 65.604 18.1768C64.9857 18.1757 64.3678 18.1788 63.7497 18.1828C63.1602 18.186 62.571 18.1855 61.9816 18.1852C61.7593 18.1869 61.537 18.1885 61.3082 18.1901C61.1023 18.1891 60.8967 18.188 60.6846 18.1868C60.5031 18.1869 60.3218 18.1871 60.1349 18.1871C59.598 18.1085 59.4775 18.0035 59.1458 17.5874C59.094 17.0574 59.0747 16.5645 59.0795 16.0343C59.0788 15.8756 59.0781 15.7169 59.0776 15.5534C59.0762 15.028 59.0785 14.5026 59.0811 13.9772C59.0811 13.6124 59.0811 13.2479 59.0808 12.8833C59.0808 12.1189 59.0828 11.3546 59.086 10.5901C59.0901 9.60919 59.0901 8.62842 59.0888 7.64765C59.0883 6.89475 59.0895 6.14184 59.0911 5.38893C59.0918 5.02723 59.092 4.66553 59.0918 4.30374C59.0918 3.79863 59.094 3.29357 59.0968 2.78847C59.0963 2.56323 59.0963 2.56323 59.0956 2.33347C59.099 1.95369 59.1024 1.678 59.1692 1.40942Z" fill="white"/>
<path d="M40.0851 0.569345C40.0851 0.569345 41.1816 0.535095 41.5067 0.932202C41.5097 0.935899 41.5129 0.939649 41.5161 0.943471C42.0195 1.79056 42.4672 2.64611 42.8727 3.54372C42.9345 3.67823 42.9962 3.81275 43.0598 3.95133C43.2575 4.38249 43.4537 4.81433 43.6498 5.24606C43.7853 5.54289 43.9207 5.83954 44.0563 6.13619C44.3216 6.71686 44.5862 7.2979 44.8504 7.87911C45.1527 8.54421 45.4578 9.20825 45.7642 9.87157C45.9098 10.1887 46.0553 10.5056 46.2007 10.8227C46.2654 10.9622 46.3303 11.1017 46.3969 11.2453C46.6399 11.7796 46.9354 12.7556 46.9354 12.7556C47.053 12.7556 47.0487 12.7556 47.1699 12.7556C47.2008 12.6573 47.2318 12.5588 47.2637 12.4573C47.5726 11.5015 47.936 10.595 48.3632 9.68619C48.4254 9.55182 48.4876 9.41763 48.5518 9.27934C48.7514 8.84921 48.9521 8.41961 49.1528 7.99002C49.4268 7.40098 49.7002 6.8116 49.9736 6.22239C50.0402 6.07913 50.1067 5.93587 50.1753 5.78835C50.761 4.52709 51.3332 3.25999 51.8909 1.98618C52.2031 1.28224 52.2775 1.11501 52.4699 0.900849C52.6093 0.745717 52.8091 0.657736 53.0175 0.641561C53.2658 0.622294 53.3857 0.622827 53.8538 0.624889C54.0614 0.623964 54.2691 0.623058 54.4831 0.622116C54.8685 0.65649 54.9731 0.66584 55.1394 0.80565C55.2937 0.935685 55.3661 1.14037 55.3388 1.34015C55.2289 2.14661 54.8774 2.83399 54.5138 3.57566C54.4452 3.71847 54.3765 3.86131 54.3058 4.00846C54.0819 4.47344 53.8564 4.93751 53.631 5.40159C53.3975 5.88611 53.1644 6.37063 52.9314 6.85532C52.7758 7.17899 52.62 7.50265 52.4641 7.82632C51.8162 9.17146 51.1829 10.5228 50.5564 11.8781C49.6417 13.853 48.707 15.8179 47.7617 17.7783C47.6178 18.0762 47.3197 18.2655 46.988 18.2655C46.6645 18.2655 46.3636 18.0853 46.2173 17.7975C45.176 15.7502 44.2068 13.6708 43.2424 11.5859C42.7752 10.5763 42.3063 9.56782 41.8368 8.55932C41.6072 8.06609 41.3777 7.57286 41.1483 7.07963C40.9977 6.75597 40.847 6.4323 40.6964 6.10881C40.4829 5.65024 40.2697 5.19167 40.0566 4.73311C39.9935 4.5977 39.9304 4.46234 39.8655 4.32288C39.7454 4.06446 39.6261 3.80573 39.5074 3.5466C39.3807 3.27261 39.2504 3.00026 39.1175 2.72916C39.0504 2.58879 38.9834 2.44843 38.9144 2.30384C38.8219 2.11483 38.8219 2.11483 38.7275 1.922C38.6485 1.66726 38.631 1.48568 38.6617 1.29367C38.7104 0.990447 38.8993 0.701619 39.1978 0.626417C39.4757 0.556423 39.7926 0.584719 40.0851 0.569345Z" fill="white"/>
<path d="M30.4475 0.476253C30.5989 0.420941 30.7677 0.417048 30.9167 0.478546C31.3692 0.665316 31.5084 0.99426 31.7939 1.47176C32.3441 2.48024 32.8184 3.5258 33.3004 4.56785C33.4185 4.82166 33.5369 5.07548 33.6552 5.32929C33.8968 5.84705 34.1375 6.36498 34.3778 6.88309C34.6979 7.57308 35.0193 8.26254 35.341 8.95163C35.7215 9.76657 36.1006 10.5822 36.4787 11.3984C36.8191 12.1321 37.1631 12.8639 37.5121 13.5937C37.6668 13.9175 37.8206 14.2417 37.9741 14.5661C38.1662 14.9715 38.3598 15.3761 38.5553 15.7797C38.6405 15.9601 38.7255 16.1405 38.8132 16.3264C38.8889 16.4846 38.9647 16.6428 39.0428 16.806C39.1103 17.0125 39.149 17.1695 39.1545 17.3186C39.1698 17.7366 38.802 18.0789 38.3856 18.1303C38.1685 18.1573 37.9457 18.1522 37.6782 18.154C37.5057 18.1564 37.3331 18.1589 37.1554 18.1614C36.8314 18.1332 36.7314 18.1244 36.5239 18.0043C36.2726 17.8587 36.0764 17.6335 35.9438 17.3758C35.8518 17.1974 35.7873 17.0529 35.6091 16.6535C35.5577 16.5395 35.5062 16.4256 35.4533 16.3083C35.2838 15.9317 35.1164 15.5541 34.9491 15.1768C34.8318 14.9152 34.7143 14.6539 34.5967 14.3926C34.3502 13.8445 34.1044 13.296 33.859 12.7475C33.2972 11.493 32.7252 10.2431 32.154 8.99287C31.8675 8.3658 31.5818 7.73838 31.2959 7.11113C31.2009 6.90264 31.1059 6.69433 31.0081 6.47962C30.9411 6.33263 30.8741 6.18564 30.8051 6.03421C29.769 8.06311 28.7971 10.1155 27.8532 12.1885C26.2129 15.7886 25.643 17.0393 25.3293 17.5895C25.1149 17.9654 24.6845 18.1387 24.2508 18.1484C24.1223 18.1515 23.9936 18.1531 23.865 18.154C23.6723 18.1564 23.4794 18.1589 23.2809 18.1614C23.2224 18.1566 23.1707 18.1524 23.1246 18.1481C22.6041 18.099 22.4335 17.4606 22.5628 16.9556C22.6711 16.5319 22.8335 16.1336 23.0365 15.7058C23.1718 15.4182 23.1718 15.4182 23.3098 15.1247C23.4085 14.9182 23.5072 14.7118 23.6088 14.4991C23.7127 14.279 23.8167 14.059 23.9204 13.8388C24.1403 13.3724 24.361 12.9064 24.5824 12.4407C25.0891 11.3735 25.5905 10.3041 26.0925 9.23477C26.2599 8.87823 26.4276 8.52204 26.5955 8.16567C27.1566 6.9741 27.7152 5.78164 28.2688 4.5866C28.3224 4.47079 28.3761 4.35495 28.4313 4.23564C28.6864 3.68555 28.9409 3.13525 29.1947 2.58459C29.2844 2.3911 29.3739 2.19761 29.4662 1.99826C29.5835 1.744 29.5835 1.744 29.7032 1.48461C30.0793 0.722335 30.1463 0.586257 30.4475 0.476253Z" fill="white"/>
<path d="M0.927117 21.8546C1.09018 21.8541 1.25325 21.8537 1.42126 21.8534C1.60158 21.8537 1.78188 21.8539 1.96766 21.8543C2.15642 21.8539 2.34521 21.8537 2.5397 21.8535C3.16711 21.8528 3.79451 21.8532 4.42192 21.8537C4.85576 21.8537 5.28962 21.8535 5.72348 21.8534C6.6341 21.8532 7.54473 21.8534 8.45533 21.8541C9.62562 21.8548 10.7957 21.8544 11.966 21.8535C12.8624 21.853 13.7585 21.8532 14.6549 21.8535C15.0864 21.8537 15.5181 21.8535 15.9498 21.8532C16.5518 21.8528 17.1539 21.8534 17.7558 21.8543C17.9362 21.8539 18.1166 21.8537 18.3023 21.8534C18.5468 21.8539 18.5468 21.8539 18.7964 21.8546C18.939 21.8546 19.0815 21.8546 19.2284 21.8548C19.3273 21.8601 19.3961 21.8639 19.4491 21.8704C19.6515 21.8955 19.738 22.1281 19.7446 22.3315C19.7508 22.5275 19.753 22.7236 19.7524 22.9194C19.7531 23.1679 19.7531 23.1679 19.7538 23.4214C19.7414 23.6365 19.7355 23.7374 19.7063 23.8058C19.6485 23.9404 19.4738 23.9717 19.3271 23.9765C19.1503 23.9825 18.9734 23.9845 18.7964 23.9845C18.6335 23.9848 18.4704 23.9852 18.3023 23.9857C18.1219 23.9854 17.9417 23.9852 17.7558 23.9848C17.5671 23.985 17.3783 23.9854 17.1839 23.9855C16.5565 23.9862 15.9291 23.9857 15.3017 23.9854C14.8679 23.9854 14.4339 23.9855 14.0001 23.9857C13.0894 23.9859 12.1788 23.9855 11.2682 23.985C10.0979 23.9841 8.92783 23.9846 7.75754 23.9855C6.86127 23.9859 5.96499 23.9857 5.0687 23.9854C4.63708 23.9854 4.20547 23.9855 3.77386 23.9857C3.17178 23.9861 2.56972 23.9855 1.96766 23.9848C1.78735 23.9852 1.60703 23.9854 1.42126 23.9857C1.17666 23.985 1.17666 23.985 0.927117 23.9845C0.7846 23.9845 0.642066 23.9843 0.495218 23.9843C0.39619 23.979 0.327427 23.9752 0.274598 23.9686C0.0721225 23.9434 -0.0144281 23.7109 -0.0209872 23.5074C-0.0273145 23.3115 -0.0294355 23.1155 -0.028883 22.9194C-0.0293464 22.754 -0.02981 22.5883 -0.0302734 22.4177C0.00605091 21.7935 0.204819 21.8548 0.927117 21.8546Z" fill="white"/>
<path d="M96.4003 0.654663C96.5915 0.65557 96.7826 0.656494 96.9795 0.657436C97.2663 0.656068 97.2663 0.656067 97.5588 0.654663C98.0489 0.701871 98.0489 0.701871 98.4054 1.05735C98.4409 1.58561 98.4541 2.09731 98.4516 2.62577C98.4521 2.7882 98.4528 2.95064 98.4535 3.11802C98.455 3.6568 98.4541 4.19555 98.4528 4.73444C98.453 5.10752 98.4534 5.48077 98.4539 5.85403C98.4544 6.63697 98.4535 7.41992 98.4519 8.20286C98.45 9.20834 98.451 10.2136 98.4532 11.2189C98.4544 11.9898 98.4541 12.7608 98.4532 13.5317C98.4528 13.9025 98.4532 14.2732 98.4541 14.644C98.455 15.1616 98.4535 15.679 98.4516 16.1965C98.4523 16.3508 98.453 16.5053 98.4537 16.6644C98.4502 17.1595 98.4484 17.4233 98.4068 17.6042C98.3147 18.0063 97.8247 18.1593 97.4112 18.165C97.3062 18.1664 97.1763 18.1657 96.9795 18.1648C96.6928 18.1663 96.6928 18.1663 96.4003 18.1677C96.1388 18.1424 96.0167 18.1307 95.9057 18.0712C95.6396 17.9286 95.541 17.5993 95.5278 17.2984C95.5118 16.9317 95.5059 16.5682 95.5075 16.1965C95.507 16.0341 95.5062 15.8716 95.5057 15.7042C95.5041 15.1655 95.5052 14.6267 95.5064 14.0878C95.5061 13.7148 95.5057 13.3415 95.5053 12.9683C95.5048 12.1853 95.5055 11.4024 95.5071 10.6194C95.5093 9.61394 95.508 8.60864 95.5059 7.60334C95.5046 6.83249 95.505 6.06145 95.5061 5.29059C95.5062 4.91982 95.5059 4.54902 95.5052 4.17824C95.5043 3.66073 95.5055 3.14328 95.5075 2.62577C95.5068 2.47138 95.5061 2.31698 95.5053 2.15792C95.5155 0.73989 95.5155 0.739889 96.4003 0.654663Z" fill="white"/>
</g>
<defs>
<clipPath id="clip0_1197_2478">
<rect width="117.176" height="24" fill="white" transform="translate(0.0429688 0.25)"/>
</clipPath>
</defs>
</svg>
