<svg width="139" height="25" viewBox="0 0 139 25" fill="none" xmlns="http://www.w3.org/2000/svg">
<g clip-path="url(#clip0_1201_2531)">
<path d="M11.2982 1.18827C12.302 1.88813 13.229 2.78759 13.7117 3.92892C13.7117 4.10235 13.7117 4.27578 13.7117 4.45446C13.4898 4.57255 13.267 4.68903 13.0438 4.80483C12.9198 4.86986 12.7959 4.9349 12.6681 5.00191C12.3102 5.15519 12.3102 5.15519 11.7847 5.15519C11.5034 4.82262 11.5034 4.82262 11.2263 4.38877C11.1335 4.2465 11.0407 4.10424 10.9451 3.95766C10.7336 3.57855 10.7336 3.57855 10.7336 3.22819C10.5003 3.11076 10.2667 2.99413 10.0329 2.87782C9.91025 2.81595 9.78763 2.75407 9.6613 2.69032C8.14464 1.99977 6.60796 1.90306 5.02923 2.47271C4.21571 2.84381 3.77596 3.30406 3.37594 4.1041C3.28688 4.99765 3.27565 5.78494 3.61682 6.62235C4.95348 7.95901 6.90525 8.2787 8.68034 8.69888C10.6122 9.18327 12.4198 9.90294 13.5365 11.6369C14.1521 12.8571 14.2695 14.147 13.9348 15.4677C13.3959 17.0844 12.612 18.0471 11.084 18.8194C9.89616 19.2782 8.78221 19.4365 7.51463 19.4216C7.35388 19.4202 7.19314 19.4187 7.02753 19.4172C5.00349 19.3669 3.31648 18.7963 1.7993 17.418C1.01227 16.5097 0.454254 15.6236 0.222656 14.4399C0.858569 14.1508 1.49448 13.8618 2.14966 13.564C2.2978 13.8602 2.44594 14.1565 2.59857 14.4618C3.09392 15.3633 3.56336 15.9836 4.42704 16.5421C4.58726 16.6501 4.58726 16.6501 4.75071 16.7603C6.15086 17.54 8.00463 17.4589 9.53265 17.121C10.4948 16.7777 11.0487 16.3413 11.6095 15.491C11.9247 14.5454 11.9064 13.7215 11.5 12.8194C10.7011 11.4138 9.21577 11.1651 7.7555 10.761C7.49303 10.6914 7.23048 10.6221 6.96787 10.553C2.82304 9.45609 2.82304 9.45609 1.62412 7.60775C0.940719 6.23363 0.91352 4.91656 1.37229 3.46906C1.97241 1.9719 2.94234 1.26931 4.36887 0.590868C6.48948 -0.268744 9.37882 0.0177771 11.2982 1.18827Z" fill="white"/>
<path d="M94.4692 0.600342C95.1051 0.600342 95.7411 0.600342 96.3962 0.600342C96.3962 6.67042 96.3962 12.7405 96.3962 18.9945C95.7603 18.9945 95.1244 18.9945 94.4692 18.9945C94.3825 18.3008 94.3825 18.3008 94.2941 17.593C94.2071 17.6755 94.1202 17.7579 94.0306 17.8428C92.5952 19.1584 91.6324 19.4513 89.6798 19.4051C88.2079 19.2668 87.0127 18.5441 86.0605 17.4179C85.0753 15.7837 84.7999 14.5394 84.7904 12.666C84.7868 12.4917 84.7832 12.3174 84.7795 12.1378C84.7688 10.1045 85.2919 8.4354 86.7085 6.94386C87.9995 5.76603 89.2581 5.55133 90.9724 5.60741C92.4694 5.76538 93.2456 6.38397 94.2941 7.43246C94.3519 5.17786 94.4097 2.92326 94.4692 0.600342ZM87.7466 8.57115C86.6663 10.1917 86.552 12.2452 86.8495 14.1202C87.1159 15.3426 87.4496 16.3368 88.4569 17.1216C89.4622 17.7243 90.5258 17.7391 91.6663 17.593C92.7645 17.3157 93.3056 16.6866 93.904 15.7557C94.7324 14.0592 94.7415 11.7703 94.2831 9.95071C93.8708 8.82992 93.1443 8.03579 92.1262 7.43246C90.4841 6.97947 88.8903 7.21564 87.7466 8.57115Z" fill="white"/>
<path d="M26.4789 6.27461C27.984 7.42083 28.7544 8.95473 29.0711 10.7979C29.3525 13.279 29.1134 15.7423 27.5499 17.7682C26.6439 18.772 25.6529 19.2713 24.3103 19.4065C22.8668 19.4616 21.7251 19.3398 20.5426 18.469C20.2535 18.1799 19.9645 17.8909 19.6666 17.593C19.6088 19.7898 19.551 21.9866 19.4915 24.25C18.8555 24.25 18.2196 24.25 17.5645 24.25C17.5645 18.2377 17.5645 12.2255 17.5645 6.031C18.1426 6.031 18.7207 6.031 19.3163 6.031C19.3741 6.6091 19.4319 7.1872 19.4915 7.78282C19.6613 7.56604 19.8311 7.34925 20.0061 7.12589C21.6015 5.34055 24.4182 5.04167 26.4789 6.27461ZM20.1005 8.95299C19.0931 10.536 19.1156 12.6128 19.4367 14.4069C19.7453 15.5891 20.3885 16.5732 21.4185 17.2427C22.5442 17.7757 23.8076 17.7785 24.9878 17.4069C26.2656 16.4638 26.8429 15.3631 27.1447 13.8266C27.3182 11.8838 27.2024 9.91086 25.9732 8.30837C25.0377 7.43159 24.1325 7.18755 22.8843 7.21006C21.691 7.34593 20.8379 8.04044 20.1005 8.95299Z" fill="white"/>
<path d="M119.355 5.59309C119.502 5.58984 119.649 5.5866 119.8 5.58325C121.098 5.59622 122.073 6.00864 123.165 6.68798C124.04 7.58765 124.437 8.72775 124.458 9.96867C124.461 10.1224 124.463 10.2761 124.466 10.4344C124.469 10.5989 124.471 10.7633 124.474 10.9327C124.479 11.1873 124.479 11.1873 124.483 11.4469C124.497 12.1727 124.509 12.8986 124.521 13.6244C124.53 14.1542 124.54 14.684 124.55 15.2138C124.553 15.3793 124.555 15.5448 124.558 15.7153C124.56 15.8673 124.563 16.0194 124.566 16.176C124.569 16.3104 124.571 16.4449 124.573 16.5834C124.567 16.897 124.567 16.897 124.775 17.0675C125.066 17.1039 125.358 17.1319 125.651 17.1551C126.507 17.2233 126.507 17.2233 126.702 17.4179C126.714 17.6841 126.716 17.9508 126.713 18.2172C126.711 18.3619 126.71 18.5067 126.708 18.6558C126.706 18.7676 126.704 18.8794 126.702 18.9945C126.253 19.0088 125.804 19.0192 125.355 19.0274C125.229 19.0318 125.102 19.0362 124.972 19.0407C124.169 19.0517 123.65 18.9839 123.023 18.469C122.774 18.0718 122.657 17.6886 122.497 17.2427C122.427 17.3358 122.357 17.4288 122.285 17.5247C121.539 18.4513 120.874 19.0801 119.694 19.3449C118.188 19.493 116.594 19.5801 115.315 18.6442C114.598 17.9728 114.131 17.4001 114.047 16.3921C114.015 14.9818 114.097 14.0038 115.041 12.9261C116.954 11.1052 119.95 10.5348 122.497 10.5858C122.428 10.2494 122.354 9.91373 122.278 9.57849C122.217 9.29802 122.217 9.29802 122.155 9.01188C121.953 8.42858 121.744 8.17132 121.271 7.78287C120.165 7.25596 118.867 7.25635 117.713 7.64053C116.731 8.06214 116.167 8.78641 115.665 9.70988C115.377 9.63126 115.088 9.55058 114.8 9.469C114.559 9.40193 114.559 9.40193 114.314 9.33351C113.913 9.18433 113.913 9.18433 113.738 8.83397C114.302 7.52999 115.323 6.59547 116.574 5.96535C117.488 5.63065 118.392 5.60635 119.355 5.59309ZM116.608 14.0032C116.158 14.4899 116.019 14.8599 116.012 15.521C116.05 16.1389 116.126 16.602 116.432 17.1442C117.365 17.6999 118.508 17.8888 119.574 17.6588C120.619 17.269 121.35 16.7746 121.972 15.8413C122.315 14.9957 122.393 14.2221 122.432 13.323C122.438 13.1941 122.445 13.0651 122.452 12.9323C122.469 12.6173 122.483 12.3023 122.497 11.9872C120.421 11.9092 118.142 12.5721 116.608 14.0032Z" fill="white"/>
<path d="M40.1716 6.14956C41.2257 6.8671 41.75 7.78772 42.0891 9.00928C42.1637 9.62811 42.1704 10.2416 42.1726 10.8644C42.1753 11.037 42.178 11.2096 42.1808 11.3874C42.1891 11.9341 42.194 12.4808 42.1986 13.0275C42.205 13.5786 42.2121 14.1297 42.22 14.6808C42.2248 15.0227 42.2286 15.3647 42.2312 15.7067C42.233 15.86 42.2348 16.0133 42.2366 16.1712C42.2378 16.3066 42.2389 16.442 42.2401 16.5816C42.2307 16.8969 42.2307 16.8969 42.4394 17.0677C42.7306 17.1041 43.0228 17.132 43.3154 17.1553C44.1718 17.2234 44.1718 17.2234 44.3664 17.418C44.379 17.6842 44.3811 17.9509 44.3774 18.2173C44.3758 18.3621 44.3742 18.5068 44.3726 18.6559C44.3706 18.7677 44.3685 18.8795 44.3664 18.9947C43.9173 19.0137 43.469 19.0275 43.0197 19.0385C42.8934 19.0443 42.767 19.0502 42.6369 19.0563C41.959 19.0686 41.6389 19.042 41.0489 18.6717C40.6644 18.2697 40.4988 17.9467 40.3372 17.418C40.263 17.4858 40.1887 17.5535 40.1121 17.6233C38.4917 19.0622 37.0498 19.5027 34.902 19.384C33.9454 19.2763 33.1703 18.8503 32.5102 18.1626C31.7889 17.2172 31.6404 16.3079 31.7533 15.1407C31.9966 13.989 32.617 13.097 33.5051 12.3377C34.7595 11.545 36.0915 11.077 37.5343 10.7611C37.8053 10.7015 37.8053 10.7015 38.0818 10.6407C38.7762 10.5652 39.4643 10.572 40.1621 10.5859C40.1156 9.5397 40.0277 8.75681 39.2862 7.95818C38.2108 7.30255 36.9568 7.27048 35.7469 7.50859C34.7985 7.80001 34.2202 8.36242 33.6803 9.18446C33.6225 9.35789 33.5647 9.53132 33.5051 9.71001C33.2495 9.65584 32.9941 9.60096 32.7387 9.54578C32.5253 9.50005 32.5253 9.50005 32.3076 9.45339C31.9285 9.35964 31.9285 9.35964 31.5781 9.18446C31.6374 8.23609 32.1771 7.57789 32.8044 6.90709C34.6846 5.39224 37.9901 5.06639 40.1716 6.14956ZM34.173 14.0677C33.7575 14.784 33.6803 15.1851 33.6803 16.0166C33.8903 16.6348 34.0828 16.9627 34.5781 17.3852C35.7769 17.8803 36.8025 17.8281 38.0202 17.4078C39.0689 16.9644 39.4963 16.297 39.9869 15.3158C40.2211 14.6449 40.1816 13.9589 40.173 13.2575C40.1722 13.1353 40.1714 13.0131 40.1706 12.8872C40.1686 12.5873 40.1654 12.2873 40.1621 11.9874C38.1405 11.9194 35.6094 12.5615 34.173 14.0677Z" fill="white"/>
<path d="M57.1562 0.600342C57.7922 0.600342 58.4281 0.600342 59.0833 0.600342C59.0833 4.53144 59.0833 8.46253 59.0833 12.5128C60.1416 11.5926 60.1416 11.5926 61.1731 10.6473C61.2862 10.5407 61.3992 10.4341 61.5157 10.3243C61.6307 10.2155 61.7458 10.1066 61.8643 9.9945C63.7635 8.20631 63.7635 8.20631 64.6768 7.41056C65.0397 7.09487 65.0397 7.09487 65.3255 6.75363C65.8469 6.1877 66.1393 6.0432 66.9254 5.96736C67.5841 5.955 68.2365 5.98534 68.8935 6.031C68.1623 6.77212 67.4086 7.48709 66.649 8.19888C66.531 8.30999 66.413 8.42109 66.2914 8.53556C65.5807 9.20208 64.8588 9.85231 64.1207 10.4883C63.8315 10.7447 63.5577 11.0102 63.2876 11.2865C63.5112 11.7686 63.7509 12.1528 64.1026 12.5504C64.1944 12.655 64.2861 12.7596 64.3806 12.8674C64.4788 12.978 64.577 13.0886 64.6781 13.2025C64.8851 13.4385 65.092 13.6746 65.2988 13.9108C65.4026 14.029 65.5063 14.1472 65.6132 14.2689C69.419 18.6263 69.419 18.6263 69.419 18.9945C67.2918 19.3304 67.2918 19.3304 66.5003 18.7992C65.9422 18.2689 65.503 17.648 65.0697 17.0144C64.7849 16.6023 64.4699 16.2177 64.1526 15.8303C64.044 15.6932 63.9354 15.5561 63.8234 15.4149C63.1325 14.5535 62.4205 13.7093 61.711 12.8631C61.1581 13.1062 60.8003 13.3894 60.3862 13.8266C60.0161 14.2157 59.7111 14.4884 59.2584 14.7901C59.1692 15.2305 59.1692 15.2305 59.1688 15.744C59.1626 15.9326 59.1564 16.1212 59.15 16.3154C59.144 16.6118 59.144 16.6118 59.138 16.9142C59.132 17.1132 59.126 17.3121 59.1199 17.5171C59.1054 18.0095 59.094 18.502 59.0833 18.9945C58.4473 18.9945 57.8114 18.9945 57.1562 18.9945C57.1562 12.9244 57.1562 6.85436 57.1562 0.600342Z" fill="white"/>
<path d="M108.931 6.42242C110.262 7.37922 110.896 8.66597 111.288 10.2354C111.288 11.1025 111.288 11.9697 111.288 12.8631C108.166 12.8631 105.045 12.8631 101.828 12.8631C102.414 15.4614 102.414 15.4614 104.106 17.2427C105.158 17.5935 106.46 17.6185 107.52 17.2776C108.471 16.74 109.001 15.8954 109.536 14.9653C110.188 15.0541 110.716 15.1608 111.288 15.4908C111.112 16.6287 110.559 17.5172 109.685 18.2664C108.026 19.4233 106.242 19.5404 104.281 19.3449C102.8 19.0015 101.745 18.2342 100.919 16.958C99.6874 14.7525 99.5119 12.1133 100.186 9.68793C100.778 8.03288 101.826 6.82934 103.372 5.97625C105.168 5.23905 107.283 5.4578 108.931 6.42242ZM102.825 8.54924C102.209 9.5069 102.003 10.132 102.003 11.2865C104.431 11.2865 106.859 11.2865 109.361 11.2865C109.207 9.90359 109.088 8.841 108.037 7.88478C106.253 6.65235 104.257 7.07855 102.825 8.54924Z" fill="white"/>
<path d="M136.031 6.17205C136.132 6.24115 136.233 6.31025 136.338 6.38144C136.437 6.44693 136.537 6.51242 136.64 6.57989C137.35 7.10669 137.714 7.70318 138.09 8.48363C138.09 8.65707 138.09 8.8305 138.09 9.00918C137.223 9.26933 137.223 9.26933 136.338 9.53473C136.186 9.28542 136.034 9.03612 135.878 8.77925C135.395 8.07026 135.09 7.66563 134.236 7.43254C133.06 7.32898 131.898 7.22769 130.907 7.95809C130.483 8.36853 130.392 8.58653 130.305 9.17342C130.405 9.87045 130.558 10.1129 131.082 10.5858C131.789 10.9316 132.555 11.0875 133.317 11.2619C134.995 11.6466 136.567 12.0615 137.838 13.3012C138.406 14.2886 138.611 15.2409 138.44 16.3668C138.078 17.4994 137.584 18.2477 136.541 18.8304C134.784 19.5928 132.545 19.6705 130.71 19.0822C129.623 18.5994 128.595 17.8927 128.065 16.8014C127.937 16.424 127.833 16.0564 127.754 15.6661C128.396 15.232 128.912 15.0548 129.681 14.9654C129.728 15.0837 129.775 15.202 129.823 15.324C130.243 16.2797 130.573 16.9163 131.567 17.3105C132.818 17.654 134.062 17.7227 135.287 17.2428C135.83 16.8766 136.103 16.6392 136.245 15.9898C136.293 15.2604 136.27 14.9337 135.818 14.331C135.135 13.7954 134.524 13.6499 133.688 13.4654C133.389 13.3923 133.09 13.3186 132.791 13.2444C132.576 13.1917 132.576 13.1917 132.356 13.138C130.721 12.7283 129.318 12.1725 128.367 10.7063C128.171 9.65499 128.084 8.69625 128.63 7.73911C130.202 5.53871 133.653 4.8415 136.031 6.17205Z" fill="white"/>
<path d="M78.8789 0.600342C79.5726 0.600342 80.2664 0.600342 80.9811 0.600342C80.9811 6.67042 80.9811 12.7405 80.9811 18.9945C80.2874 18.9945 79.5937 18.9945 78.8789 18.9945C78.8789 12.9244 78.8789 6.85436 78.8789 0.600342Z" fill="white"/>
<path d="M52.9736 5.83408C53.1034 5.83341 53.2333 5.83273 53.3671 5.83203C54.331 5.83379 54.331 5.83379 54.5283 6.03116C54.541 6.35576 54.543 6.6808 54.5393 7.00562C54.5377 7.18289 54.5361 7.36016 54.5345 7.5428C54.5325 7.67987 54.5304 7.81694 54.5283 7.95817C54.3296 7.95004 54.1309 7.94191 53.9262 7.93354C51.899 7.80025 51.899 7.80025 50.1488 8.6589C49.0374 9.98626 48.8708 11.4221 48.85 13.0925C48.8466 13.2619 48.8432 13.4312 48.8397 13.6057C48.8293 14.1429 48.8211 14.6801 48.813 15.2173C48.8063 15.5831 48.7995 15.9488 48.7925 16.3146C48.7757 17.2079 48.761 18.1013 48.7473 18.9947C48.1114 18.9947 47.4755 18.9947 46.8203 18.9947C46.8203 14.7167 46.8203 10.4388 46.8203 6.03116C47.3984 6.03116 47.9765 6.03116 48.5721 6.03116C48.6299 6.72489 48.6878 7.41861 48.7473 8.13335C48.928 7.91657 49.1086 7.69978 49.2948 7.47642C50.3855 6.22892 51.3086 5.82531 52.9736 5.83408Z" fill="white"/>
</g>
<defs>
<clipPath id="clip0_1201_2531">
<rect width="138.219" height="24" fill="white" transform="translate(0.222656 0.25)"/>
</clipPath>
</defs>
</svg>
